<svg width="196" height="111" viewBox="0 0 196 111" fill="none" xmlns="http://www.w3.org/2000/svg">
<g clip-path="url(#clip0)">
<path d="M178.735 25.8829H114.6C109.007 25.8829 104.436 30.428 104.436 36.0871V36.6218C104.436 47.1379 95.9583 55.6487 85.4837 55.6487H17.2654C7.72283 55.6933 0 63.4467 0 72.9824V79.6664C0 89.2467 7.72283 97 17.2654 97H124.32C129.912 97 134.484 92.455 134.484 86.7959V79.5772C134.484 69.0612 142.961 60.5503 153.436 60.5503H178.735C188.277 60.5503 196 52.7969 196 43.2166C196 33.6363 188.277 25.8829 178.735 25.8829Z" fill="white"/>
<path d="M67.1531 36.3544H22.9909C16.0226 36.3544 10.3859 30.6953 10.3859 23.6995C10.3859 16.6591 16.0226 11 22.9909 11H67.1531C74.1214 11 79.7581 16.6591 79.7581 23.6549C79.8025 30.6508 74.1214 36.3544 67.1531 36.3544Z" fill="white"/>
<rect x="140" y="52" width="5" height="23" rx="2.5" fill="url(#paint0_linear)" fill-opacity="0.95"/>
<rect x="131" y="66" width="5" height="23" rx="2.5" transform="rotate(-90 131 66)" fill="url(#paint1_linear)" fill-opacity="0.95"/>
</g>
<path d="M47 18C51.4183 18 55 14.1944 55 9.5C55 4.80558 51.4183 1 47 1C42.5817 1 39 4.80558 39 9.5C39 14.1944 42.5817 18 47 18Z" fill="#A3E56A"/>
<path d="M52.6118 21H41.3676C38.7473 21 36.3334 22.4105 35.0337 24.6714L24.3671 45.8079C23.645 47.1354 24.0164 48.7948 25.2336 49.7074C26.6366 50.7445 28.6172 50.3712 29.5456 48.8985L38.6442 32.6779L37.365 57.0087L38.149 93.2664C38.1697 95.3406 39.8408 97 41.904 97C43.9465 97 45.597 95.3614 45.6589 93.3286L46.5874 57.4236C46.5874 57.1954 46.7731 57.0295 47 57.0295C47.2269 57.0295 47.4126 57.2162 47.4126 57.4236L48.3411 93.3286C48.3823 95.3821 50.0535 97 52.096 97C54.1592 97 55.8303 95.3406 55.851 93.2664L56.635 57.0087L55.1495 32.6779L64.4544 48.8985C65.4034 50.3712 67.3634 50.7445 68.7664 49.7074C69.9836 48.8155 70.355 47.1561 69.6329 45.8079L58.9457 24.6714C57.6459 22.3897 55.232 21 52.6118 21Z" fill="#A3E56A"/>
<path d="M115 23C119.418 23 123 19.4183 123 15C123 10.5817 119.418 7 115 7C110.582 7 107 10.5817 107 15C107 19.4183 110.582 23 115 23Z" fill="#7AC142"/>
<path d="M120.653 26H109.326C106.687 26 104.255 27.4243 102.946 29.7073L91.3698 51.0505C90.6424 52.391 91.0165 54.0666 92.2427 54.9882C93.6559 56.0354 95.6511 55.6584 96.5863 54.1713L105.336 39.4678L105.71 62.3609L106.084 100.23C106.105 102.324 107.788 104 109.867 104C111.924 104 113.587 102.345 113.649 100.293L114.584 62.7798C114.584 62.5494 114.771 62.3818 115 62.3818C115.229 62.3818 115.416 62.5704 115.416 62.7798L116.351 100.293C116.392 102.366 118.076 104 120.133 104C122.212 104 123.895 102.324 123.916 100.23L124.29 62.3609L124.664 39.4678L133.414 54.1713C134.37 55.6584 136.344 56.0354 137.757 54.9882C138.984 54.0875 139.358 52.4119 138.63 51.0505L127.054 29.7073C125.724 27.4243 123.292 26 120.653 26Z" fill="#7AC142"/>
<path d="M40.1368 2.14401C35.5404 6.58535 38.8832 12.8945 36 18C42.2469 13.4134 51.2308 12.8323 58 16.6095C56.1614 15.5925 56.2868 10.5078 56.245 8.84753C56.1823 6.14952 55.3884 3.55528 53.2991 1.66667C51.3143 -0.138915 49.2877 -0.159669 46.8224 0.151639C44.2735 0.442194 42.1633 0.193147 40.1368 2.14401Z" fill="#A3E56A"/>
<path d="M80 31C84.9706 31 89 27.4183 89 23C89 18.5817 84.9706 15 80 15C75.0294 15 71 18.5817 71 23C71 27.4183 75.0294 31 80 31Z" fill="#0882BF"/>
<path d="M85.6118 34H74.3676C71.7473 34 69.3334 35.429 68.0337 37.7197L57.3671 59.1343C56.645 60.4793 57.0164 62.1605 58.2336 63.0852C59.6366 64.1359 61.6172 63.7576 62.5456 62.2656L71.6442 45.8316L70.365 70.4825L71.149 107.217C71.1697 109.319 72.8408 111 74.904 111C76.9465 111 78.597 109.34 78.6589 107.28L79.5874 70.9028C79.5874 70.6717 79.7731 70.5035 80 70.5035C80.2269 70.5035 80.4126 70.6927 80.4126 70.9028L81.3411 107.28C81.3823 109.361 83.0535 111 85.096 111C87.1592 111 88.8303 109.319 88.851 107.217L89.635 70.4825L88.1495 45.8316L97.4544 62.2656C98.4034 63.7576 100.363 64.1359 101.766 63.0852C102.984 62.1815 103.355 60.5003 102.633 59.1343L91.9664 37.7197C90.6253 35.429 88.2114 34 85.6118 34Z" fill="#0882BF"/>
<path d="M80.8825 13.9894C79.553 13.0732 77.8495 12.7896 76.333 13.2477C74.3803 13.8149 72.9054 15.4291 71.5343 16.9778C70.1424 18.5484 68.626 20.4898 69.083 22.5838C69.3738 23.9145 70.4125 25.0051 70.5579 26.3794C70.6826 27.6882 69.9347 28.8879 69.4569 30.1095C68.9791 31.331 68.896 32.9888 69.9347 33.7087C70.7033 34.2322 71.7628 33.9922 72.5107 33.4469C73.2585 32.9016 73.8194 32.1163 74.4634 31.4183C77.1017 28.6262 81.5472 27.9718 84.8295 29.8477C86.0759 30.5675 87.1769 31.6146 88.5688 32.0072C89.9399 32.3999 91.7679 31.7673 91.9757 30.284C92.1419 29.2151 91.4148 28.2335 91.0616 27.2083C90.5423 25.6813 90.8747 24.0017 91.0409 22.3875C91.207 20.7733 91.1032 18.9628 90.0022 17.8285C89.3997 17.2178 88.5688 16.8906 87.9871 16.2798C86.8861 15.1237 86.8238 13.2041 85.7435 12.0262C84.8295 11.0228 83.3546 10.8264 82.0666 11.1318C80.7786 11.4372 79.6568 12.2007 78.535 12.9641" fill="#0882BF"/>
<path d="M106.021 9.94024C106.086 8.02856 106.777 6.03376 108.288 4.78701C110.08 3.31169 112.607 3.12467 114.96 3C114.938 3.41558 114.938 3.81039 114.917 4.22597C116.45 2.83377 119.019 3 120.811 4.05974C122.625 5.11947 123.834 6.8857 125 8.58959C124.201 10.5221 123.812 12.6 123.856 14.6779C119.645 14.7402 115.435 14.8026 111.246 14.8441C110.167 14.8649 107.986 15.3013 107.036 14.6156C105.892 13.8052 105.978 11.1662 106.021 9.94024Z" fill="#7AC142"/>
<defs>
<linearGradient id="paint0_linear" x1="140.1" y1="75" x2="147.154" y2="74.3662" gradientUnits="userSpaceOnUse">
<stop offset="0.277132" stop-color="#0069AA"/>
<stop offset="1" stop-color="#1F93DB"/>
</linearGradient>
<linearGradient id="paint1_linear" x1="131.1" y1="89" x2="138.154" y2="88.3662" gradientUnits="userSpaceOnUse">
<stop offset="0.277132" stop-color="#0069AA"/>
<stop offset="1" stop-color="#1F93DB"/>
</linearGradient>
<clipPath id="clip0">
<rect width="196" height="86" fill="white" transform="translate(0 11)"/>
</clipPath>
</defs>
</svg>
