<svg width="294" height="288" viewBox="0 0 294 288" fill="none" xmlns="http://www.w3.org/2000/svg">
<g filter="url(#filter0_d)">
<path d="M246.245 228H121.755C114.721 228 109 222.26 109 215.204V41.7962C109 34.7397 114.721 29 121.755 29H246.245C253.279 29 259 34.7397 259 41.7962V215.204C259 222.26 253.279 228 246.245 228Z" fill="white"/>
<path d="M237.764 79.8811H129.563C127.645 79.8811 126.097 78.328 126.097 76.4035V74.1076C126.097 72.1831 127.645 70.63 129.563 70.63H237.764C239.682 70.63 241.23 72.1831 241.23 74.1076V76.4035C241.23 78.328 239.682 79.8811 237.764 79.8811Z" fill="#D3E1EA"/>
<path d="M132.39 54.7275H129.866C127.779 54.7275 126.063 53.0393 126.063 50.9123V49.2579C126.063 47.1645 127.746 45.4426 129.866 45.4426H132.39C134.477 45.4426 136.193 47.1308 136.193 49.2579V50.946C136.193 53.0393 134.51 54.7275 132.39 54.7275Z" fill="#D3E1EA"/>
<path d="M145.987 54.7275H143.463C141.376 54.7275 139.66 53.0393 139.66 50.9123V49.2579C139.66 47.1645 141.342 45.4426 143.463 45.4426H145.987C148.073 45.4426 149.79 47.1308 149.79 49.2579V50.946C149.79 53.0393 148.107 54.7275 145.987 54.7275Z" fill="#D3E1EA"/>
<path d="M159.583 54.7275H157.059C154.973 54.7275 153.256 53.0393 153.256 50.9123V49.2579C153.256 47.1645 154.939 45.4426 157.059 45.4426H159.583C161.67 45.4426 163.386 47.1308 163.386 49.2579V50.946C163.386 53.0393 161.703 54.7275 159.583 54.7275Z" fill="#D3E1EA"/>
<path d="M173.18 54.7275H170.656C168.569 54.7275 166.853 53.0393 166.853 50.9123V49.2579C166.853 47.1645 168.536 45.4426 170.656 45.4426H173.18C175.267 45.4426 176.983 47.1308 176.983 49.2579V50.946C176.983 53.0393 175.3 54.7275 173.18 54.7275Z" fill="#D3E1EA"/>
<path d="M186.777 54.7275H184.252C182.166 54.7275 180.449 53.0393 180.449 50.9123V49.2579C180.449 47.1645 182.132 45.4426 184.252 45.4426H186.777C188.863 45.4426 190.58 47.1308 190.58 49.2579V50.946C190.58 53.0393 188.863 54.7275 186.777 54.7275Z" fill="#D3E1EA"/>
<path d="M237.764 98.3833H129.563C127.645 98.3833 126.097 96.8302 126.097 94.9057V92.6098C126.097 90.6853 127.645 89.1322 129.563 89.1322H237.764C239.682 89.1322 241.23 90.6853 241.23 92.6098V94.9057C241.23 96.8302 239.682 98.3833 237.764 98.3833Z" fill="#D3E1EA"/>
<path d="M237.764 116.852H129.563C127.645 116.852 126.097 115.299 126.097 113.374V111.078C126.097 109.154 127.645 107.601 129.563 107.601H237.764C239.682 107.601 241.23 109.154 241.23 111.078V113.374C241.23 115.299 239.682 116.852 237.764 116.852Z" fill="#D3E1EA"/>
<path d="M237.764 148.893H129.563C127.645 148.893 126.097 147.34 126.097 145.415V143.119C126.097 141.195 127.645 139.642 129.563 139.642H237.764C239.682 139.642 241.23 141.195 241.23 143.119V145.415C241.23 147.34 239.682 148.893 237.764 148.893Z" fill="#D3E1EA"/>
<path d="M237.764 167.361H129.563C127.645 167.361 126.097 165.808 126.097 163.884V161.588C126.097 159.663 127.645 158.11 129.563 158.11H237.764C239.682 158.11 241.23 159.663 241.23 161.588V163.884C241.23 165.808 239.682 167.361 237.764 167.361Z" fill="#D3E1EA"/>
<path d="M237.764 185.864H129.563C127.645 185.864 126.097 184.311 126.097 182.386V180.09C126.097 178.166 127.645 176.613 129.563 176.613H237.764C239.682 176.613 241.23 178.166 241.23 180.09V182.386C241.23 184.311 239.682 185.864 237.764 185.864Z" fill="#D3E1EA"/>
</g>
<g filter="url(#filter1_d)">
<path d="M117.68 149.406H114.904V136.804C114.904 119.827 101.024 106 83.9824 106C66.9405 106 53.061 119.827 53.061 136.804V149.406H50.285C41.8519 149.406 35 156.232 35 164.633V231.773C35 240.174 41.8519 247 50.285 247H117.68C126.113 247 132.965 240.174 132.965 231.773V164.633C133 156.232 126.148 149.406 117.68 149.406ZM63.6375 136.804C63.6375 125.603 72.7734 116.501 84.0176 116.501C95.2617 116.501 104.398 125.603 104.398 136.804V149.406H63.6375V136.804Z" fill="url(#paint0_linear)"/>
<path d="M95.9997 186.827C95.9997 179.931 90.1668 174.4 83.1392 174.89C77.2009 175.31 72.4221 180.071 72.0005 185.986C71.7194 189.837 73.3006 193.337 75.9008 195.718C76.463 196.208 76.7441 196.943 76.7441 197.678V215.916C76.7441 219.066 79.3092 221.586 82.4365 221.586H85.4583C88.6208 221.586 91.1507 219.031 91.1507 215.916V197.713C91.1507 196.978 91.4318 196.243 91.994 195.753C94.4888 193.513 95.9997 190.362 95.9997 186.827Z" fill="#065982"/>
</g>
<defs>
<filter id="filter0_d" x="74" y="0" width="220" height="269" filterUnits="userSpaceOnUse" color-interpolation-filters="sRGB">
<feFlood flood-opacity="0" result="BackgroundImageFix"/>
<feColorMatrix in="SourceAlpha" type="matrix" values="0 0 0 0 0 0 0 0 0 0 0 0 0 0 0 0 0 0 127 0"/>
<feOffset dy="6"/>
<feGaussianBlur stdDeviation="17.5"/>
<feColorMatrix type="matrix" values="0 0 0 0 0.0288582 0 0 0 0 0.322059 0 0 0 0 0.503564 0 0 0 0.2 0"/>
<feBlend mode="normal" in2="BackgroundImageFix" result="effect1_dropShadow"/>
<feBlend mode="normal" in="SourceGraphic" in2="effect1_dropShadow" result="shape"/>
</filter>
<filter id="filter1_d" x="0" y="77" width="168" height="211" filterUnits="userSpaceOnUse" color-interpolation-filters="sRGB">
<feFlood flood-opacity="0" result="BackgroundImageFix"/>
<feColorMatrix in="SourceAlpha" type="matrix" values="0 0 0 0 0 0 0 0 0 0 0 0 0 0 0 0 0 0 127 0"/>
<feOffset dy="6"/>
<feGaussianBlur stdDeviation="17.5"/>
<feColorMatrix type="matrix" values="0 0 0 0 0.0288582 0 0 0 0 0.322059 0 0 0 0 0.503564 0 0 0 0.2 0"/>
<feBlend mode="normal" in2="BackgroundImageFix" result="effect1_dropShadow"/>
<feBlend mode="normal" in="SourceGraphic" in2="effect1_dropShadow" result="shape"/>
</filter>
<linearGradient id="paint0_linear" x1="23.0144" y1="247" x2="163.479" y2="136.178" gradientUnits="userSpaceOnUse">
<stop offset="0.257313" stop-color="#7AC142"/>
<stop offset="1" stop-color="#A3E56A"/>
</linearGradient>
</defs>
</svg>
