<svg width="668" height="444" viewBox="0 0 668 444" fill="none" xmlns="http://www.w3.org/2000/svg">
<path opacity="0.5" d="M455.885 443.977H41.4737C26.8539 443.977 15.0001 432.136 15.0001 417.532C15.0001 402.928 26.8539 391.087 41.4737 391.087H455.806C470.425 391.087 482.279 402.928 482.279 417.532C482.279 432.215 470.425 443.977 455.885 443.977Z" fill="url(#paint0_linear)"/>
<path d="M139.075 151.592L159.324 131.438L165.684 136.695L149.455 160.865C146.897 163.713 142.438 164.005 139.587 161.449C136.809 158.821 136.517 154.439 139.075 151.592Z" fill="#007AB7"/>
<path d="M159.324 131.438L163.272 124.866C164.587 122.675 167.512 122.018 169.632 123.479C171.678 124.939 172.19 127.714 170.728 129.758L165.757 136.622L159.324 131.438Z" fill="#AF7A4F"/>
<path d="M137.321 419.505C131.473 419.505 126.575 414.978 126.209 409.136L114.513 238.851C114.513 228.775 122.701 220.596 132.789 220.596H141.926C152.014 220.596 160.201 228.775 160.201 238.851L148.505 409.136C148.067 414.978 143.169 419.505 137.321 419.505Z" fill="url(#paint1_linear)"/>
<path d="M137.321 124.647C127.16 124.647 118.826 116.395 118.826 106.173V94.4892C118.826 84.3393 127.087 76.0149 137.321 76.0149C147.482 76.0149 155.815 84.2663 155.815 94.4892V106.173C155.815 116.395 147.555 124.647 137.321 124.647Z" fill="#AF7A4F"/>
<path d="M152.16 248.271H122.554C118.168 248.271 114.513 244.62 114.513 240.239L110.858 146.115C110.858 136.038 119.045 127.86 129.133 127.86H141.926C152.014 127.86 160.201 136.038 160.201 146.115V240.239C160.201 244.62 156.546 248.271 152.16 248.271Z" fill="url(#paint2_linear)"/>
<path d="M123.505 93.9779C124.747 90.9841 126.94 87.6981 130.011 86.6028C134.177 85.2154 140.099 85.5075 144.338 86.0186C147.189 86.3838 150.552 86.8949 152.526 84.7043C154.719 82.2216 153.037 78.2054 150.552 76.0878C145.289 71.7066 137.686 71.8526 130.961 72.8749C126.063 73.6051 120.654 75.0655 118.022 79.2277C115.902 82.5867 115.902 87.406 115.244 91.2031C114.44 96.1686 115.829 102.083 117.364 106.757C117.583 107.487 117.876 108.29 118.461 108.874C119.045 109.458 119.923 109.75 120.654 109.385C121.75 108.874 121.75 107.414 121.677 106.172C121.458 102.375 121.75 98.5052 123.066 95.0002C123.212 94.7812 123.358 94.4161 123.505 93.9779Z" fill="#0069AA"/>
<path d="M160.274 186.057L122.189 152.176C118.534 148.963 118.241 143.34 121.458 139.689C124.674 136.038 130.303 135.746 133.958 138.959L172.044 172.84C175.699 176.053 175.991 181.676 172.775 185.327C169.485 188.905 163.93 189.27 160.274 186.057Z" fill="#007AB7"/>
<path d="M160.128 173.79L185.787 148.306L193.901 154.951L173.359 185.546C170.143 189.197 164.514 189.489 160.859 186.277C157.204 183.064 156.912 177.441 160.128 173.79Z" fill="#007AB7"/>
<path d="M190.246 147.867L164.807 135.016C163.418 134.213 162.979 132.387 163.856 131L172.994 116.907C173.798 115.519 175.626 115.081 177.015 115.957L204.062 125.231C205.451 126.034 205.89 127.86 205.012 129.247L194.193 146.918C193.389 148.306 191.562 148.744 190.246 147.867Z" fill="#01527A"/>
<path d="M190.392 145.239L168.023 134.067L177.819 118.805L201.723 126.545L190.392 145.239Z" fill="#E6E6E6"/>
<path d="M185.787 148.305L190.757 139.981C192.439 137.206 196.167 136.403 198.799 138.229C201.43 140.054 202.015 143.632 200.188 146.188L193.901 154.877L185.787 148.305Z" fill="#AF7A4F"/>
<path d="M257.161 417.168C263.009 417.241 267.907 412.787 268.419 406.945L282.308 251.922C282.454 241.918 274.34 233.521 264.252 233.448L255.114 233.302C245.099 233.155 236.693 241.261 236.62 251.338L246.196 406.653C246.562 412.495 251.313 417.095 257.161 417.168Z" fill="#CCA283"/>
<path d="M235.231 258.056L231.795 312.602C231.576 316.619 234.719 320.051 238.74 320.051H279.091C283.112 320.051 286.328 316.692 286.036 312.675L282.527 254.478L235.231 258.056Z" fill="url(#paint3_linear)"/>
<path d="M259.939 137.498C270.1 137.498 278.434 129.247 278.434 119.024V107.34C278.434 97.1906 270.173 88.8662 259.939 88.8662C249.778 88.8662 241.444 97.1176 241.444 107.34V119.024C241.444 129.247 249.705 137.498 259.939 137.498Z" fill="#CCA283"/>
<path d="M241.444 261.049H276.898C281.285 261.049 284.94 257.471 284.94 253.017L279.822 158.893C279.822 148.816 271.635 140.638 261.547 140.638H255.334C245.246 140.638 237.058 148.816 237.058 158.893L233.403 253.017C233.403 257.471 237.058 261.049 241.444 261.049Z" fill="url(#paint4_linear)"/>
<path d="M241.444 206.357L265.568 161.449C267.834 157.141 266.225 151.81 261.986 149.474C257.673 147.21 252.336 148.817 249.997 153.052L225.874 197.96C223.608 202.268 225.216 207.598 229.456 209.935C233.769 212.199 239.105 210.592 241.444 206.357Z" fill="#86CC48"/>
<path d="M234.792 192.921L198.753 190.073L196.853 200.369L232.307 210.446C237.132 211.103 241.591 207.744 242.322 202.925C242.98 198.106 239.617 193.651 234.792 192.921Z" fill="#86CC48"/>
<path d="M198.68 190.073L189.543 186.933C186.472 185.911 183.11 187.664 182.233 190.804C181.428 193.87 183.256 197.01 186.326 197.74L196.78 200.296L198.68 190.073Z" fill="#CCA283"/>
<path d="M198.68 190.073C198.68 190.073 195.537 184.232 194.075 184.013C192.613 183.793 189.25 185.473 191.516 188.175C193.783 190.804 198.68 190.073 198.68 190.073Z" fill="#CCA283"/>
<path d="M240.933 107.121C241.371 107.633 242.175 107.998 243.418 108.363C245.904 108.947 251.167 110.042 253.287 108.071C253.945 107.486 254.237 106.537 254.456 105.661C255.845 100.549 256.576 95.584 257.161 90.3265C257.454 87.9168 254.749 87.4787 252.921 87.7708C248.901 88.501 245.392 91.3488 243.345 94.8538C241.737 97.4826 240.933 100.549 240.567 103.616C240.275 105.369 240.348 106.391 240.933 107.121Z" fill="#01527A"/>
<path d="M259.354 120.119C259.354 120.192 259.354 120.265 259.354 120.265C258.477 126.472 260.451 150.204 259.939 156.484C259.866 157.141 266.957 158.455 267.688 158.528C270.466 158.893 273.243 158.966 276.021 158.747C278.799 158.455 281.577 157.944 284.208 156.995C285.451 156.557 287.132 156.119 288.229 155.315C289.399 154.439 289.326 153.709 289.326 152.102C289.399 146.407 286.767 123.259 286.621 117.564C286.475 112.379 286.255 107.122 284.282 102.302C282.162 97.0446 278.068 92.5173 273.024 89.9616C270.319 88.5742 267.395 87.771 264.398 87.4789C262.132 87.2598 258.623 86.6026 256.576 88.0631C253.433 90.2537 256.357 99.1622 256.869 102.083C257.38 105.296 257.892 108.582 258.477 111.795C258.916 114.57 259.72 117.417 259.354 120.119Z" fill="#01527A"/>
<path d="M307.381 72.4368H176.896C166.808 72.4368 158.621 64.2584 158.621 54.1815V18.2552C158.621 8.17834 166.808 0 176.896 0H307.381C317.469 0 325.657 8.17834 325.657 18.2552V54.1815C325.657 64.1854 317.469 72.4368 307.381 72.4368Z" fill="#D3E1EA"/>
<path d="M201.385 72.4368C201.385 72.4368 206.721 86.6758 218.052 93.5398C220.391 94.9272 223.242 92.7366 222.584 90.1078C221.415 85.7266 220.245 79.3738 220.245 72.3638H201.385V72.4368Z" fill="#D3E1EA"/>
<g opacity="0.5">
<path opacity="0.5" d="M303.726 19.4966H178.724C177.408 19.4966 176.311 18.4013 176.311 17.0869C176.311 15.7726 177.408 14.6772 178.724 14.6772H303.726C305.042 14.6772 306.139 15.7726 306.139 17.0869C306.139 18.4013 305.042 19.4966 303.726 19.4966Z" fill="#0069AA"/>
</g>
<g opacity="0.5">
<path opacity="0.5" d="M303.726 36.2913H178.724C177.408 36.2913 176.311 35.196 176.311 33.8816C176.311 32.5672 177.408 31.4719 178.724 31.4719H303.726C305.042 31.4719 306.139 32.5672 306.139 33.8816C306.139 35.196 305.042 36.2913 303.726 36.2913Z" fill="#0069AA"/>
</g>
<g opacity="0.5">
<path opacity="0.5" d="M272.147 53.0862H178.431C177.262 53.0862 176.384 52.1369 176.384 51.0416V50.3844C176.384 49.2161 177.335 48.3398 178.431 48.3398H272.147C273.317 48.3398 274.194 49.2891 274.194 50.3844V51.0416C274.194 52.1369 273.317 53.0862 272.147 53.0862Z" fill="#0069AA"/>
</g>
<g opacity="0.08">
<path opacity="0.9" d="M250.365 233.719C250.365 226.557 244.537 220.742 237.359 220.742H223.126C198.157 220.742 177.974 200.542 177.974 175.691C177.974 150.778 198.219 130.639 223.126 130.639H378.892C392.02 130.639 402.695 119.989 402.695 106.89C402.695 85.9554 419.689 69 440.67 69H629.871C650.852 69 667.846 85.9554 667.846 106.89V133.945C667.846 154.879 650.852 171.834 629.871 171.834H492.817C480.486 171.834 470.547 181.812 470.547 194.054C470.547 206.357 480.547 216.273 492.817 216.273H553.614C574.104 216.273 590.73 232.862 590.73 253.306C590.73 273.75 574.104 290.339 553.614 290.339H366.07C351.837 290.339 340.242 301.846 340.242 316.108C340.242 327.677 330.855 337.043 319.26 337.043H45.2756C20.2452 337.043 0 316.782 0 291.869C0 266.895 20.3065 246.695 45.2756 246.695H237.421C244.537 246.695 250.365 240.88 250.365 233.719Z" fill="#0069AA"/>
</g>
<defs>
<linearGradient id="paint0_linear" x1="18.617" y1="413.43" x2="477.634" y2="431.898" gradientUnits="userSpaceOnUse">
<stop stop-color="#7AC142"/>
<stop offset="1" stop-color="#A3E56A"/>
</linearGradient>
<linearGradient id="paint1_linear" x1="137.357" y1="220.596" x2="137.357" y2="419.505" gradientUnits="userSpaceOnUse">
<stop stop-color="#A3E56A"/>
<stop offset="1" stop-color="#7AC142"/>
</linearGradient>
<linearGradient id="paint2_linear" x1="135.53" y1="127.86" x2="135.53" y2="248.271" gradientUnits="userSpaceOnUse">
<stop stop-color="#0069AA"/>
<stop offset="1" stop-color="#045D95"/>
</linearGradient>
<linearGradient id="paint3_linear" x1="258.919" y1="254.478" x2="258.919" y2="320.051" gradientUnits="userSpaceOnUse">
<stop stop-color="#FF6A52"/>
<stop offset="1" stop-color="#EA5941"/>
</linearGradient>
<linearGradient id="paint4_linear" x1="259.171" y1="140.638" x2="259.171" y2="261.049" gradientUnits="userSpaceOnUse">
<stop stop-color="#A3E56A"/>
<stop offset="1" stop-color="#7AC142"/>
</linearGradient>
</defs>
</svg>
