<svg width="391" height="246" viewBox="0 0 391 246" fill="none" xmlns="http://www.w3.org/2000/svg">
<g clip-path="url(#clip0)">
<path opacity="0.3" d="M309.908 243.524H-43.041C-56.2721 243.524 -67 234.201 -67 222.702V221.521C-67 210.022 -56.2721 200.698 -43.041 200.698H309.908C323.139 200.698 333.867 210.022 333.867 221.521V222.702C333.867 234.201 323.139 243.524 309.908 243.524Z" fill="#7AC142"/>
<path d="M355.571 51.2195H262.332C253.84 51.2195 246.951 44.3155 246.951 35.8044C246.951 16.104 230.976 0.09375 211.319 0.09375H45.746C26.0887 0.09375 10.1134 16.104 10.1134 35.8044V51.6362C10.1134 71.3365 26.0887 87.3468 45.746 87.3468H85.8326C94.325 87.3468 101.214 94.2509 101.214 102.762V138.473C101.214 158.173 117.189 174.183 136.847 174.183H211.259C230.916 174.183 246.892 158.173 246.892 138.473H355.512C375.169 138.473 391.144 122.462 391.144 102.762V86.9302C391.203 67.2298 375.228 51.2195 355.571 51.2195Z" fill="#E5F0F7"/>
<path d="M51.5373 32.6346C45.3441 32.6346 40.2648 27.6082 40.2648 21.3807V14.2637C40.2648 8.08069 45.2996 3.00977 51.5373 3.00977C57.7305 3.00977 62.8098 8.03621 62.8098 14.2637V21.3807C62.8098 27.6082 57.775 32.6346 51.5373 32.6346Z" fill="#FFDAB6"/>
<path d="M93 51C93 45.4772 97.4772 41 103 41H129C134.523 41 139 45.4772 139 51V212C139 217.523 134.523 222 129 222H103C97.4772 222 93 217.523 93 212V51Z" fill="url(#paint0_linear)"/>
<path d="M151 153C151 147.477 155.477 143 161 143H187C192.523 143 197 147.477 197 153V212C197 217.523 192.523 222 187 222H161C155.477 222 151 217.523 151 212V153Z" fill="url(#paint1_linear)"/>
<path d="M212 185C212 179.477 216.477 175 222 175H248C253.523 175 258 179.477 258 185V212C258 217.523 253.523 222 248 222H222C216.477 222 212 217.523 212 212V185Z" fill="url(#paint2_linear)"/>
<path d="M46.8145 1.58725C46.6809 1.63173 46.5917 1.63173 46.4581 1.67621C44.1858 2.29896 42.1362 4.6565 40.7996 6.48026C39.4184 8.30402 38.3045 10.3947 37.9926 12.6188C37.6807 14.7984 38.0817 16.978 38.0371 19.1576C37.9926 21.3372 37.3243 23.7392 35.4975 24.9402C36.5668 26.2302 37.6361 27.5202 38.7055 28.8102C39.6411 29.9222 40.7996 31.1232 42.2253 30.9898C44.0521 30.8118 44.8987 28.4988 44.7204 26.675C44.5422 24.8513 43.7402 23.0275 44.0521 21.2038C44.5422 18.3569 47.4829 16.7111 49.6215 14.7539C52.9632 11.6402 55.4582 6.16889 55.0127 1.58725C52.5622 1.00899 49.3542 0.964506 46.8145 1.58725Z" fill="#FF6A52"/>
<path d="M62.8099 6.9693C64.1911 10.3944 63.3446 14.4423 64.7703 17.8674C65.5723 19.7801 67.0427 21.4704 67.2209 23.5166C67.3991 25.5183 66.1961 27.4755 64.6367 28.721C63.0772 29.9665 61.1168 30.7226 59.2009 31.3899C58.3544 26.8082 58.3098 22.0487 59.0227 17.4226C59.5128 14.2643 60.493 11.1061 58.1762 8.39272C57.2851 7.32516 56.1712 6.43551 55.5474 5.19002C55.0573 4.2559 54.4781 1.94284 55.6811 1.32009C56.4831 0.919754 57.9979 1.85387 58.6217 2.29869C60.2257 3.36626 62.097 5.2345 62.8099 6.9693Z" fill="#FF6A52"/>
<path d="M82.9934 68.8877H89.8103C89.8103 68.8877 87.8499 79.2074 88.8747 81.2536C89.1866 81.9208 89.3202 82.677 89.3202 83.4332C89.3202 85.079 87.9836 86.458 86.2905 86.458C83.6617 86.458 81.5231 84.4118 81.3449 81.7874C81.2112 79.3409 81.1221 76.5386 81.3449 75.1596C81.8795 72.3128 82.9934 68.8877 82.9934 68.8877Z" fill="#FFDAB6"/>
<path d="M32.2005 99.7588C32.2005 99.7588 26.8093 107.499 28.5469 109.812C30.2846 112.125 34.7401 118.397 36.656 116.484C38.5719 114.571 33.4926 107.899 33.4926 107.899C33.4926 107.899 40.265 106.831 38.1709 100.871C37.8144 99.8922 36.5669 96.6006 36.5669 96.6006L32.2005 99.7588Z" fill="#FFDAB6"/>
<path d="M73.7259 107.676L72.2556 224.307C72.2111 227.421 69.6714 229.957 66.508 229.957C63.4782 229.957 60.9831 227.599 60.8049 224.574L55.2355 134.187C55.2355 133.876 54.9236 133.609 54.6117 133.609C54.2553 133.609 53.988 133.876 53.988 134.231L52.7404 224.619C52.6959 227.732 50.1562 230.268 46.9928 230.268H46.4136C43.3838 230.268 40.8887 227.91 40.7105 224.886L34.1163 109.055L73.7259 107.676Z" fill="url(#paint3_linear)"/>
<path d="M90.9689 34.8585L70.0279 34.7695H45.2997C39.9086 34.7695 34.8293 37.4829 31.8441 41.9756L16.5616 64.8393C14.5121 68.3534 14.6012 72.7571 16.8289 76.1822L32.0223 99.802L34.4728 98.0672L34.1609 108.209C34.0718 110.967 36.2996 113.28 39.062 113.28H68.914C71.721 113.28 73.9488 110.923 73.8151 108.12L69.6715 52.7402C69.6269 51.984 70.117 51.2723 70.8299 51.0944L83.5281 47.6248C84.1519 47.4469 84.7757 47.8917 84.7757 48.5589L83.038 68.9316L89.855 68.8871L96.2264 40.2408C96.5828 37.1271 93.9986 34.5026 90.9689 34.8585ZM34.1164 109.054C33.6263 108.343 33.3144 107.898 33.3144 107.898C33.3144 107.898 33.6708 107.853 34.1609 107.675L34.1164 109.054ZM34.651 92.3291C31.7995 85.123 28.1014 75.9597 26.542 72.0898C26.0519 70.9333 26.1855 69.5988 26.8539 68.5313L35.7649 59.7684L34.651 92.3291Z" fill="url(#paint4_linear)"/>
<path d="M177.227 85.2726H178.568V80.659H178.682C178.977 81.1363 179.545 82.1817 181.227 82.1817C183.409 82.1817 184.932 80.4317 184.932 77.659C184.932 74.909 183.409 73.159 181.205 73.159C179.5 73.159 178.977 74.2045 178.682 74.659H178.523V73.2726H177.227V85.2726ZM178.545 77.6363C178.545 75.6817 179.409 74.3635 181.045 74.3635C182.75 74.3635 183.591 75.7954 183.591 77.6363C183.591 79.4999 182.727 80.9772 181.045 80.9772C179.432 80.9772 178.545 79.6135 178.545 77.6363Z" fill="#00559B"/>
<path d="M190.636 82.1817C192.409 82.1817 193.705 81.2954 194.114 79.9772L192.818 79.6135C192.477 80.5226 191.687 80.9772 190.636 80.9772C189.062 80.9772 187.977 79.9601 187.915 78.0908H194.25V77.5226C194.25 74.2726 192.318 73.159 190.5 73.159C188.136 73.159 186.568 75.0226 186.568 77.7045C186.568 80.3863 188.114 82.1817 190.636 82.1817ZM187.915 76.9317C188.006 75.5738 188.966 74.3635 190.5 74.3635C191.955 74.3635 192.886 75.4545 192.886 76.9317H187.915Z" fill="#00559B"/>
<path d="M196.29 81.9999H197.631V76.4772C197.631 75.2954 198.562 74.4317 199.835 74.4317C200.193 74.4317 200.562 74.4999 200.653 74.5226V73.159C200.5 73.1476 200.148 73.1363 199.949 73.1363C198.903 73.1363 197.994 73.7272 197.676 74.5908H197.585V73.2726H196.29V81.9999Z" fill="#00559B"/>
<path d="M208.425 75.2272C208.004 73.9885 207.061 73.159 205.334 73.159C203.493 73.159 202.129 74.2045 202.129 75.6817C202.129 76.8863 202.845 77.6931 204.447 78.0681L205.902 78.409C206.783 78.6135 207.197 79.034 207.197 79.6363C207.197 80.3863 206.402 80.9999 205.152 80.9999C204.055 80.9999 203.368 80.5283 203.129 79.5908L201.857 79.909C202.169 81.392 203.391 82.1817 205.175 82.1817C207.203 82.1817 208.584 81.0738 208.584 79.5681C208.584 78.3522 207.822 77.5851 206.266 77.2045L204.97 76.8863C203.936 76.6306 203.47 76.284 203.47 75.6135C203.47 74.8635 204.266 74.3181 205.334 74.3181C206.504 74.3181 206.987 74.9658 207.22 75.5681L208.425 75.2272Z" fill="#00559B"/>
<path d="M214.148 82.1817C216.511 82.1817 218.102 80.3863 218.102 77.6817C218.102 74.9545 216.511 73.159 214.148 73.159C211.784 73.159 210.193 74.9545 210.193 77.6817C210.193 80.3863 211.784 82.1817 214.148 82.1817ZM214.148 80.9772C212.352 80.9772 211.534 79.4317 211.534 77.6817C211.534 75.9317 212.352 74.3635 214.148 74.3635C215.943 74.3635 216.761 75.9317 216.761 77.6817C216.761 79.4317 215.943 80.9772 214.148 80.9772Z" fill="#00559B"/>
<path d="M221.49 76.7499C221.49 75.2272 222.433 74.3635 223.717 74.3635C224.962 74.3635 225.717 75.176 225.717 76.5454V81.9999H227.058V76.4545C227.058 74.2272 225.871 73.159 224.104 73.159C222.785 73.159 221.967 73.7499 221.558 74.6363H221.445V73.2726H220.149V81.9999H221.49V76.7499Z" fill="#00559B"/>
<path d="M232.077 82.2045C233.599 82.2045 234.395 81.3863 234.668 80.8181H234.736V81.9999H236.077V76.2499C236.077 73.4772 233.963 73.159 232.849 73.159C231.531 73.159 230.031 73.6135 229.349 75.2045L230.622 75.659C230.918 75.0226 231.616 74.3408 232.895 74.3408C234.128 74.3408 234.736 74.9942 234.736 76.1135V76.159C234.736 76.8067 234.077 76.7499 232.486 76.9545C230.866 77.1647 229.099 77.5226 229.099 79.5226C229.099 81.2272 230.418 82.2045 232.077 82.2045ZM232.281 80.9999C231.213 80.9999 230.44 80.5226 230.44 79.5908C230.44 78.5681 231.372 78.2499 232.418 78.1135C232.986 78.0454 234.508 77.8863 234.736 77.6135V78.8408C234.736 79.9317 233.872 80.9999 232.281 80.9999Z" fill="#00559B"/>
<path d="M244.706 75.2272C244.285 73.9885 243.342 73.159 241.615 73.159C239.774 73.159 238.41 74.2045 238.41 75.6817C238.41 76.8863 239.126 77.6931 240.729 78.0681L242.183 78.409C243.064 78.6135 243.479 79.034 243.479 79.6363C243.479 80.3863 242.683 80.9999 241.433 80.9999C240.337 80.9999 239.649 80.5283 239.41 79.5908L238.138 79.909C238.45 81.392 239.672 82.1817 241.456 82.1817C243.484 82.1817 244.865 81.0738 244.865 79.5681C244.865 78.3522 244.104 77.5851 242.547 77.2045L241.251 76.8863C240.217 76.6306 239.751 76.284 239.751 75.6135C239.751 74.8635 240.547 74.3181 241.615 74.3181C242.785 74.3181 243.268 74.9658 243.501 75.5681L244.706 75.2272Z" fill="#00559B"/>
<path d="M254.679 82.1817C256.361 82.1817 256.929 81.1363 257.224 80.659H257.383V81.9999H258.679V70.3635H257.338V74.659H257.224C256.929 74.2045 256.406 73.159 254.702 73.159C252.497 73.159 250.974 74.909 250.974 77.659C250.974 80.4317 252.497 82.1817 254.679 82.1817ZM254.861 80.9772C253.179 80.9772 252.315 79.4999 252.315 77.6363C252.315 75.7954 253.156 74.3635 254.861 74.3635C256.497 74.3635 257.361 75.6817 257.361 77.6363C257.361 79.6135 256.474 80.9772 254.861 80.9772Z" fill="#00559B"/>
<path d="M264.98 82.1817C266.753 82.1817 268.048 81.2954 268.457 79.9772L267.162 79.6135C266.821 80.5226 266.031 80.9772 264.98 80.9772C263.406 80.9772 262.321 79.9601 262.258 78.0908H268.594V77.5226C268.594 74.2726 266.662 73.159 264.844 73.159C262.48 73.159 260.912 75.0226 260.912 77.7045C260.912 80.3863 262.457 82.1817 264.98 82.1817ZM262.258 76.9317C262.349 75.5738 263.31 74.3635 264.844 74.3635C266.298 74.3635 267.23 75.4545 267.23 76.9317H262.258Z" fill="#00559B"/>
<path d="M279.912 70.3635H277.599L274.719 72.1874V74.3692L277.383 72.6988H277.452V81.9999H279.912V70.3635Z" fill="#00559B"/>
<path d="M282.678 81.9999H290.973V79.9885H286.087V79.909L287.785 78.2442C290.178 76.0624 290.82 74.9715 290.82 73.6476C290.82 71.6306 289.172 70.2045 286.678 70.2045C284.234 70.2045 282.558 71.6647 282.564 73.9488H284.899C284.893 72.8351 285.598 72.1533 286.66 72.1533C287.683 72.1533 288.445 72.7897 288.445 73.8124C288.445 74.7385 287.876 75.3749 286.82 76.392L282.678 80.2272V81.9999Z" fill="#00559B"/>
<path d="M298.97 82.1647C300.26 82.1647 301.095 81.6022 301.521 80.7897H301.589V81.9999H303.885V76.1135C303.885 74.034 302.124 73.159 300.18 73.159C298.089 73.159 296.714 74.159 296.379 75.7499L298.618 75.9317C298.783 75.3522 299.3 74.926 300.169 74.926C300.993 74.926 301.464 75.3408 301.464 76.0567V76.0908C301.464 76.6533 300.868 76.7272 299.351 76.8749C297.624 77.034 296.072 77.6135 296.072 79.5624C296.072 81.2897 297.305 82.1647 298.97 82.1647ZM299.663 80.4942C298.919 80.4942 298.385 80.1476 298.385 79.4829C298.385 78.801 298.947 78.4658 299.8 78.3465C300.328 78.2726 301.192 78.1476 301.482 77.9545V78.8806C301.482 79.7954 300.726 80.4942 299.663 80.4942Z" fill="#00559B"/>
<path d="M308.183 76.9545C308.189 75.8295 308.859 75.1704 309.837 75.1704C310.808 75.1704 311.393 75.8067 311.388 76.8749V81.9999H313.808V76.4431C313.808 74.409 312.615 73.159 310.797 73.159C309.501 73.159 308.564 73.7954 308.172 74.8124H308.07V73.2726H305.763V81.9999H308.183V76.9545ZM308.155 72.1988C308.155 71.6704 308.416 71.3351 308.808 71.3351C309.109 71.3351 309.337 71.4999 309.587 71.6874C309.905 71.9204 310.268 72.1931 310.905 72.1874C311.933 72.1817 312.74 71.3806 312.751 69.9431L311.428 69.9033C311.422 70.426 311.189 70.7783 310.751 70.784C310.467 70.784 310.229 70.6192 309.967 70.4317C309.626 70.1988 309.246 69.926 308.655 69.9317C307.621 69.9374 306.808 70.7385 306.808 72.1817L308.155 72.1988Z" fill="#00559B"/>
<path d="M319.659 82.1704C322.307 82.1704 323.955 80.3579 323.955 77.6704C323.955 74.9658 322.307 73.159 319.659 73.159C317.011 73.159 315.364 74.9658 315.364 77.6704C315.364 80.3579 317.011 82.1704 319.659 82.1704ZM319.67 80.2954C318.449 80.2954 317.824 79.176 317.824 77.6533C317.824 76.1306 318.449 75.0056 319.67 75.0056C320.869 75.0056 321.494 76.1306 321.494 77.6533C321.494 79.176 320.869 80.2954 319.67 80.2954Z" fill="#00559B"/>
<path d="M332.79 75.7613C332.574 74.1533 331.278 73.159 329.074 73.159C326.841 73.159 325.369 74.1931 325.375 75.8749C325.369 77.1817 326.193 78.0283 327.898 78.3692L329.409 78.6704C330.17 78.8238 330.517 79.1022 330.528 79.5397C330.517 80.0567 329.955 80.426 329.108 80.426C328.244 80.426 327.67 80.0567 327.523 79.3465L325.142 79.4715C325.369 81.142 326.79 82.1704 329.102 82.1704C331.364 82.1704 332.983 81.017 332.989 79.2954C332.983 78.034 332.159 77.2783 330.466 76.9317L328.886 76.6135C328.074 76.4374 327.773 76.159 327.778 75.7385C327.773 75.2158 328.364 74.8749 329.114 74.8749C329.955 74.8749 330.455 75.3351 330.574 75.8976L332.79 75.7613Z" fill="#00559B"/>
<path d="M178.46 109.273C180.261 109.273 181.216 108.352 181.71 106.943L185.102 97.284L182.54 97.2726L180.716 103.682H180.625L178.818 97.2726H176.273L179.403 106.25L179.261 106.619C178.943 107.437 178.335 107.477 177.483 107.216L176.937 109.023C177.284 109.17 177.847 109.273 178.46 109.273Z" fill="#00559B"/>
<path d="M190.044 106H192.464V100.761C192.464 99.7954 193.078 99.1533 193.885 99.1533C194.68 99.1533 195.214 99.6988 195.214 100.557V106H197.561V100.67C197.561 99.767 198.078 99.1533 198.959 99.1533C199.732 99.1533 200.311 99.6363 200.311 100.608V106H202.726V100.131C202.726 98.2385 201.601 97.159 199.976 97.159C198.697 97.159 197.703 97.8124 197.345 98.8124H197.254C196.976 97.801 196.084 97.159 194.885 97.159C193.709 97.159 192.817 97.784 192.453 98.8124H192.351V97.2726H190.044V106Z" fill="#00559B"/>
<path d="M207.126 106.165C208.416 106.165 209.251 105.602 209.678 104.79H209.746V106H212.041V100.114C212.041 98.034 210.28 97.159 208.337 97.159C206.246 97.159 204.871 98.159 204.535 99.7499L206.774 99.9317C206.939 99.3522 207.456 98.926 208.325 98.926C209.149 98.926 209.621 99.3408 209.621 100.057V100.091C209.621 100.653 209.024 100.727 207.507 100.875C205.78 101.034 204.229 101.614 204.229 103.562C204.229 105.29 205.462 106.165 207.126 106.165ZM207.82 104.494C207.075 104.494 206.541 104.148 206.541 103.483C206.541 102.801 207.104 102.466 207.956 102.347C208.484 102.273 209.348 102.148 209.638 101.954V102.881C209.638 103.795 208.882 104.494 207.82 104.494ZM207.558 96.1476H209.268L211.001 93.5624H208.763L207.558 96.1476Z" fill="#00559B"/>
<path d="M221.18 99.7613C220.964 98.1533 219.669 97.159 217.464 97.159C215.232 97.159 213.76 98.1931 213.766 99.8749C213.76 101.182 214.584 102.028 216.288 102.369L217.8 102.67C218.561 102.824 218.908 103.102 218.919 103.54C218.908 104.057 218.345 104.426 217.499 104.426C216.635 104.426 216.061 104.057 215.913 103.347L213.533 103.472C213.76 105.142 215.18 106.17 217.493 106.17C219.754 106.17 221.374 105.017 221.379 103.295C221.374 102.034 220.55 101.278 218.857 100.932L217.277 100.614C216.464 100.437 216.163 100.159 216.169 99.7385C216.163 99.2158 216.754 98.8749 217.504 98.8749C218.345 98.8749 218.845 99.3351 218.964 99.8976L221.18 99.7613Z" fill="#00559B"/>
<path d="M227.665 109.273H229.006V104.659H229.119C229.415 105.136 229.983 106.182 231.665 106.182C233.847 106.182 235.369 104.432 235.369 101.659C235.369 98.909 233.847 97.159 231.642 97.159C229.937 97.159 229.415 98.2045 229.119 98.659H228.96V97.2726H227.665V109.273ZM228.983 101.636C228.983 99.6817 229.847 98.3635 231.483 98.3635C233.187 98.3635 234.028 99.7954 234.028 101.636C234.028 103.5 233.165 104.977 231.483 104.977C229.869 104.977 228.983 103.614 228.983 101.636Z" fill="#00559B"/>
<path d="M239.983 106.204C241.506 106.204 242.301 105.386 242.574 104.818H242.642V106H243.983V100.25C243.983 97.4772 241.869 97.159 240.756 97.159C239.437 97.159 237.937 97.6135 237.256 99.2045L238.528 99.659C238.824 99.0226 239.523 98.3408 240.801 98.3408C242.034 98.3408 242.642 98.9942 242.642 100.114V100.159C242.642 100.807 241.983 100.75 240.392 100.954C238.773 101.165 237.006 101.523 237.006 103.523C237.006 105.227 238.324 106.204 239.983 106.204ZM240.187 105C239.119 105 238.347 104.523 238.347 103.591C238.347 102.568 239.278 102.25 240.324 102.114C240.892 102.045 242.415 101.886 242.642 101.614V102.841C242.642 103.932 241.778 105 240.187 105Z" fill="#00559B"/>
<path d="M246.43 106H247.771V100.477C247.771 99.2954 248.703 98.4317 249.976 98.4317C250.334 98.4317 250.703 98.4999 250.794 98.5226V97.159C250.641 97.1476 250.288 97.1363 250.089 97.1363C249.044 97.1363 248.135 97.7272 247.817 98.5908H247.726V97.2726H246.43V106Z" fill="#00559B"/>
<path d="M256.726 97.2726H254.862V95.1817H253.521V97.2726H252.203V98.409H253.521V103.864C253.521 105.386 254.749 106.114 255.885 106.114C256.385 106.114 256.703 106.023 256.885 105.954L256.612 104.75C256.499 104.773 256.317 104.818 256.021 104.818C255.43 104.818 254.862 104.636 254.862 103.5V98.409H256.726V97.2726Z" fill="#00559B"/>
<path d="M258.743 106H260.084V97.2726H258.743V106ZM259.425 95.8181C259.947 95.8181 260.379 95.409 260.379 94.909C260.379 94.409 259.947 93.9999 259.425 93.9999C258.902 93.9999 258.47 94.409 258.47 94.909C258.47 95.409 258.902 95.8181 259.425 95.8181Z" fill="#00559B"/>
<path d="M266.085 106.182C268.017 106.182 269.29 105 269.517 103.454H268.176C267.926 104.409 267.131 104.977 266.085 104.977C264.494 104.977 263.472 103.659 263.472 101.636C263.472 99.659 264.517 98.3635 266.085 98.3635C267.267 98.3635 267.972 99.0908 268.176 99.8863H269.517C269.29 98.2499 267.903 97.159 266.062 97.159C263.699 97.159 262.131 99.0226 262.131 101.682C262.131 104.295 263.631 106.182 266.085 106.182Z" fill="#00559B"/>
<path d="M271.477 106H272.818V97.2726H271.477V106ZM272.159 95.8181C272.682 95.8181 273.114 95.409 273.114 94.909C273.114 94.409 272.682 93.9999 272.159 93.9999C271.636 93.9999 271.205 94.409 271.205 94.909C271.205 95.409 271.636 95.8181 272.159 95.8181Z" fill="#00559B"/>
<path d="M275.274 109.273H276.615V104.659H276.729C277.024 105.136 277.592 106.182 279.274 106.182C281.456 106.182 282.979 104.432 282.979 101.659C282.979 98.909 281.456 97.159 279.251 97.159C277.547 97.159 277.024 98.2045 276.729 98.659H276.57V97.2726H275.274V109.273ZM276.592 101.636C276.592 99.6817 277.456 98.3635 279.092 98.3635C280.797 98.3635 281.638 99.7954 281.638 101.636C281.638 103.5 280.774 104.977 279.092 104.977C277.479 104.977 276.592 103.614 276.592 101.636Z" fill="#00559B"/>
<path d="M287.592 106.204C289.115 106.204 289.91 105.386 290.183 104.818H290.251V106H291.592V100.25C291.592 97.4772 289.479 97.159 288.365 97.159C287.047 97.159 285.547 97.6135 284.865 99.2045L286.138 99.659C286.433 99.0226 287.132 98.3408 288.41 98.3408C289.643 98.3408 290.251 98.9942 290.251 100.114V100.159C290.251 100.807 289.592 100.75 288.001 100.954C286.382 101.165 284.615 101.523 284.615 103.523C284.615 105.227 285.933 106.204 287.592 106.204ZM287.797 105C286.729 105 285.956 104.523 285.956 103.591C285.956 102.568 286.888 102.25 287.933 102.114C288.501 102.045 290.024 101.886 290.251 101.614V102.841C290.251 103.932 289.388 105 287.797 105Z" fill="#00559B"/>
<path d="M295.381 100.75C295.381 99.2272 296.324 98.3635 297.608 98.3635C298.852 98.3635 299.608 99.1761 299.608 100.545V106H300.949V100.454C300.949 98.2272 299.761 97.159 297.994 97.159C296.676 97.159 295.858 97.7499 295.449 98.6363H295.335V97.2726H294.04V106H295.381V100.75Z" fill="#00559B"/>
<path d="M311.558 106.182C313.331 106.182 314.626 105.295 315.035 103.977L313.74 103.614C313.399 104.523 312.609 104.977 311.558 104.977C309.984 104.977 308.899 103.96 308.837 102.091H315.172V101.523C315.172 98.2726 313.24 97.159 311.422 97.159C309.058 97.159 307.49 99.0226 307.49 101.704C307.49 104.386 309.036 106.182 311.558 106.182ZM308.837 100.932C308.928 99.5738 309.888 98.3635 311.422 98.3635C312.876 98.3635 313.808 99.4545 313.808 100.932H308.837Z" fill="#00559B"/>
<path d="M318.553 100.75C318.553 99.2272 319.496 98.3635 320.78 98.3635C322.024 98.3635 322.78 99.1761 322.78 100.545V106H324.121V100.454C324.121 98.2272 322.933 97.159 321.166 97.159C319.848 97.159 319.03 97.7499 318.621 98.6363H318.507V97.2726H317.212V106H318.553V100.75Z" fill="#00559B"/>
<path d="M334.73 106.182C336.503 106.182 337.798 105.295 338.207 103.977L336.912 103.614C336.571 104.523 335.781 104.977 334.73 104.977C333.156 104.977 332.071 103.96 332.009 102.091H338.344V101.523C338.344 98.2726 336.412 97.159 334.594 97.159C332.23 97.159 330.662 99.0226 330.662 101.704C330.662 104.386 332.207 106.182 334.73 106.182ZM332.009 100.932C332.099 99.5738 333.06 98.3635 334.594 98.3635C336.048 98.3635 336.98 99.4545 336.98 100.932H332.009Z" fill="#00559B"/>
<path d="M341.724 94.3635H340.384V106H341.724V94.3635Z" fill="#00559B"/>
<path d="M177.409 130H184.523V128.75H178.818V124.795H184.068V123.545H178.818V119.614H184.432V118.364H177.409V130Z" fill="#00559B"/>
<path d="M192.972 123.227C192.551 121.989 191.608 121.159 189.881 121.159C188.04 121.159 186.676 122.204 186.676 123.682C186.676 124.886 187.392 125.693 188.994 126.068L190.449 126.409C191.33 126.614 191.744 127.034 191.744 127.636C191.744 128.386 190.949 129 189.699 129C188.602 129 187.915 128.528 187.676 127.591L186.403 127.909C186.716 129.392 187.937 130.182 189.722 130.182C191.75 130.182 193.131 129.074 193.131 127.568C193.131 126.352 192.369 125.585 190.812 125.204L189.517 124.886C188.483 124.631 188.017 124.284 188.017 123.614C188.017 122.864 188.812 122.318 189.881 122.318C191.051 122.318 191.534 122.966 191.767 123.568L192.972 123.227Z" fill="#00559B"/>
<path d="M198.945 121.273H197.081V119.182H195.74V121.273H194.422V122.409H195.74V127.864C195.74 129.386 196.967 130.114 198.104 130.114C198.604 130.114 198.922 130.023 199.104 129.954L198.831 128.75C198.717 128.773 198.535 128.818 198.24 128.818C197.649 128.818 197.081 128.636 197.081 127.5V122.409H198.945V121.273Z" fill="#00559B"/>
<path d="M206.462 126.432C206.462 128.068 205.212 128.818 204.212 128.818C203.098 128.818 202.303 128 202.303 126.727V121.273H200.962V126.818C200.962 129.045 202.143 130.114 203.78 130.114C205.098 130.114 205.962 129.409 206.371 128.523H206.462V130H207.803V121.273H206.462V126.432Z" fill="#00559B"/>
<path d="M213.554 130.182C215.236 130.182 215.804 129.136 216.099 128.659H216.258V130H217.554V118.364H216.213V122.659H216.099C215.804 122.204 215.281 121.159 213.577 121.159C211.372 121.159 209.849 122.909 209.849 125.659C209.849 128.432 211.372 130.182 213.554 130.182ZM213.736 128.977C212.054 128.977 211.19 127.5 211.19 125.636C211.19 123.795 212.031 122.364 213.736 122.364C215.372 122.364 216.236 123.682 216.236 125.636C216.236 127.614 215.349 128.977 213.736 128.977Z" fill="#00559B"/>
<path d="M220.196 130H221.537V121.273H220.196V130ZM220.878 119.818C221.401 119.818 221.832 119.409 221.832 118.909C221.832 118.409 221.401 118 220.878 118C220.355 118 219.923 118.409 219.923 118.909C219.923 119.409 220.355 119.818 220.878 119.818Z" fill="#00559B"/>
<path d="M227.538 130.182C229.902 130.182 231.493 128.386 231.493 125.682C231.493 122.954 229.902 121.159 227.538 121.159C225.175 121.159 223.584 122.954 223.584 125.682C223.584 128.386 225.175 130.182 227.538 130.182ZM227.538 128.977C225.743 128.977 224.925 127.432 224.925 125.682C224.925 123.932 225.743 122.364 227.538 122.364C229.334 122.364 230.152 123.932 230.152 125.682C230.152 127.432 229.334 128.977 227.538 128.977Z" fill="#00559B"/>
<path d="M238.222 130H239.631V125.75H242.176C244.886 125.75 246.108 124.102 246.108 122.045C246.108 119.989 244.886 118.364 242.153 118.364H238.222V130ZM239.631 124.5V119.614H242.108C244 119.614 244.722 120.648 244.722 122.045C244.722 123.443 244 124.5 242.131 124.5H239.631Z" fill="#00559B"/>
<path d="M247.668 130L248.838 126.704H253.543L254.713 130H256.19L251.918 118.364H250.463L246.19 130H247.668ZM249.281 125.454L251.145 120.204H251.236L253.099 125.454H249.281Z" fill="#00559B"/>
<path d="M256.007 119.614H259.666V130H261.075V119.614H264.734V118.364H256.007V119.614Z" fill="#00559B"/>
<path d="M266.909 130H268.318V124.795H274.523V130H275.932V118.364H274.523V123.545H268.318V118.364H266.909V130Z" fill="#00559B"/>
<path d="M279.548 130.091C280.111 130.091 280.571 129.631 280.571 129.068C280.571 128.506 280.111 128.045 279.548 128.045C278.986 128.045 278.526 128.506 278.526 129.068C278.526 129.631 278.986 130.091 279.548 130.091Z" fill="#00559B"/>
<path d="M173.151 55.9317H181.528V58.9999H185.057V55.9317H187.222V52.9743H185.057V41.5454H180.438L173.151 53.0255V55.9317ZM181.597 52.9743H176.866V52.838L181.46 45.5681H181.597V52.9743Z" fill="#00559B"/>
<path d="M195.996 41.3067C192.092 41.2897 189.459 43.8465 189.476 47.3579C189.484 50.6135 191.743 52.9743 194.837 52.9743C196.754 52.9743 198.459 52.0454 199.234 50.5113H199.354C199.345 53.9715 198.143 56.0766 195.868 56.0766C194.53 56.0766 193.567 55.3437 193.286 54.0738H189.646C189.987 57.0141 192.374 59.2385 195.868 59.2385C200.189 59.2385 202.976 55.7442 202.967 49.8209C202.959 43.4971 199.584 41.3238 195.996 41.3067ZM196.021 44.2045C197.717 44.2045 198.97 45.5851 198.987 47.2471C198.996 48.9175 197.675 50.2982 195.987 50.2982C194.283 50.2982 193.064 48.9687 193.055 47.2556C193.038 45.551 194.308 44.2045 196.021 44.2045Z" fill="#00559B"/>
<path d="M208.778 56.6135H205.778L205.735 57.5681C205.633 59.8863 204.968 62.2641 204.721 63.2613H207.073C207.482 62.23 208.454 59.8096 208.684 57.551L208.778 56.6135Z" fill="#00559B"/>
<path d="M218.18 59.3834C222.57 59.3834 225.22 56.0425 225.229 50.2897C225.237 44.5795 222.553 41.3067 218.18 41.3067C213.8 41.3067 211.141 44.5709 211.132 50.2897C211.115 56.0255 213.783 59.3749 218.18 59.3834ZM218.18 56.3238C216.178 56.3238 214.882 54.3124 214.891 50.2897C214.899 46.3266 216.186 44.3323 218.18 44.3323C220.166 44.3323 221.462 46.3266 221.462 50.2897C221.47 54.3124 220.175 56.3238 218.18 56.3238Z" fill="#00559B"/>
<path d="M234.704 59.3834C239.093 59.3834 241.744 56.0425 241.752 50.2897C241.761 44.5795 239.076 41.3067 234.704 41.3067C230.323 41.3067 227.664 44.5709 227.656 50.2897C227.639 56.0255 230.306 59.3749 234.704 59.3834ZM234.704 56.3238C232.701 56.3238 231.406 54.3124 231.414 50.2897C231.423 46.3266 232.71 44.3323 234.704 44.3323C236.69 44.3323 237.985 46.3266 237.985 50.2897C237.994 54.3124 236.698 56.3238 234.704 56.3238Z" fill="#00559B"/>
<path d="M251.227 59.3834C255.616 59.3834 258.267 56.0425 258.276 50.2897C258.284 44.5795 255.599 41.3067 251.227 41.3067C246.847 41.3067 244.188 44.5709 244.179 50.2897C244.162 56.0255 246.83 59.3749 251.227 59.3834ZM251.227 56.3238C249.224 56.3238 247.929 54.3124 247.938 50.2897C247.946 46.3266 249.233 44.3323 251.227 44.3323C253.213 44.3323 254.509 46.3266 254.509 50.2897C254.517 54.3124 253.222 56.3238 251.227 56.3238Z" fill="#00559B"/>
<path d="M151 52.0003L161.5 45.9381L161.5 58.0625L151 52.0003Z" fill="#7AC142"/>
</g>
<defs>
<linearGradient id="paint0_linear" x1="116" y1="41" x2="116" y2="222" gradientUnits="userSpaceOnUse">
<stop stop-color="#99D5FB"/>
<stop offset="1" stop-color="#AFDCF8"/>
</linearGradient>
<linearGradient id="paint1_linear" x1="174" y1="143" x2="174" y2="222" gradientUnits="userSpaceOnUse">
<stop stop-color="#99D5FB"/>
<stop offset="1" stop-color="#AFDCF8"/>
</linearGradient>
<linearGradient id="paint2_linear" x1="235" y1="175" x2="235" y2="222" gradientUnits="userSpaceOnUse">
<stop stop-color="#99D5FB"/>
<stop offset="1" stop-color="#AFDCF8"/>
</linearGradient>
<linearGradient id="paint3_linear" x1="53.9211" y1="107.676" x2="53.9211" y2="230.268" gradientUnits="userSpaceOnUse">
<stop stop-color="#0069AA"/>
<stop offset="1" stop-color="#005CAA"/>
</linearGradient>
<linearGradient id="paint4_linear" x1="51.1874" y1="113.427" x2="53.1551" y2="32.782" gradientUnits="userSpaceOnUse">
<stop stop-color="#86CC48"/>
<stop offset="1" stop-color="#A3E56A"/>
</linearGradient>
<clipPath id="clip0">
<rect width="391" height="246" fill="white"/>
</clipPath>
</defs>
</svg>
