<svg width="371" height="308" viewBox="0 0 371 308" fill="none" xmlns="http://www.w3.org/2000/svg">
<g clip-path="url(#clip0)">
<path d="M113.318 23.0004H125.113V19.9578H117.008V15.7902H124.474V12.7476H117.008V8.58851H125.079V5.5459H113.318V23.0004Z" fill="#002D44"/>
<path d="M132.769 23.2135C134.882 23.2135 135.982 21.9948 136.485 20.9039H136.638V23.0004H140.218V5.5459H136.596V12.1084H136.485C135.999 11.0431 134.951 9.73908 132.76 9.73908C129.888 9.73908 127.459 11.972 127.459 16.472C127.459 20.8527 129.786 23.2135 132.769 23.2135ZM133.919 20.3243C132.138 20.3243 131.167 18.7391 131.167 16.455C131.167 14.1879 132.121 12.6283 133.919 12.6283C135.684 12.6283 136.672 14.1198 136.672 16.455C136.672 18.7902 135.667 20.3243 133.919 20.3243Z" fill="#002D44"/>
<path d="M146.936 23.2476C148.87 23.2476 150.123 22.4039 150.762 21.1851H150.865V23.0004H154.308V14.1709C154.308 11.0516 151.666 9.73908 148.751 9.73908C145.615 9.73908 143.552 11.2391 143.049 13.6254L146.407 13.8982C146.654 13.0289 147.43 12.3896 148.734 12.3896C149.97 12.3896 150.677 13.0118 150.677 14.0857V14.1368C150.677 14.9806 149.782 15.0914 147.507 15.3129C144.916 15.5516 142.589 16.4209 142.589 19.3442C142.589 21.9351 144.439 23.2476 146.936 23.2476ZM147.975 20.7419C146.859 20.7419 146.058 20.222 146.058 19.2249C146.058 18.2021 146.902 17.6993 148.18 17.5203C148.973 17.4095 150.268 17.222 150.703 16.9323V18.3215C150.703 19.6936 149.569 20.7419 147.975 20.7419Z" fill="#002D44"/>
<path d="M161.948 23.2135C164.062 23.2135 165.162 21.9948 165.664 20.9039H165.818V23.0004H169.397V5.5459H165.775V12.1084H165.664C165.179 11.0431 164.13 9.73908 161.94 9.73908C159.068 9.73908 156.639 11.972 156.639 16.472C156.639 20.8527 158.966 23.2135 161.948 23.2135ZM163.099 20.3243C161.318 20.3243 160.346 18.7391 160.346 16.455C160.346 14.1879 161.301 12.6283 163.099 12.6283C164.863 12.6283 165.852 14.1198 165.852 16.455C165.852 18.7902 164.846 20.3243 163.099 20.3243Z" fill="#002D44"/>
<path d="M178.348 23.2561C181.587 23.2561 183.769 21.6794 184.28 19.2504L180.922 19.0289C180.556 20.026 179.618 20.5459 178.408 20.5459C176.593 20.5459 175.442 19.3442 175.442 17.3925V17.384H184.357V16.3868C184.357 11.9379 181.664 9.73908 178.203 9.73908C174.351 9.73908 171.854 12.4749 171.854 16.5146C171.854 20.6652 174.317 23.2561 178.348 23.2561ZM175.442 15.134C175.519 13.6425 176.652 12.4493 178.263 12.4493C179.84 12.4493 180.931 13.5743 180.939 15.134H175.442Z" fill="#002D44"/>
<path d="M197.618 13.6425C197.294 11.2306 195.351 9.73908 192.044 9.73908C188.695 9.73908 186.488 11.2902 186.496 13.8129C186.488 15.7732 187.723 17.0431 190.28 17.5544L192.547 18.0061C193.689 18.2362 194.209 18.6539 194.226 19.3101C194.209 20.0857 193.365 20.6396 192.096 20.6396C190.8 20.6396 189.939 20.0857 189.718 19.0203L186.147 19.2078C186.488 21.7135 188.618 23.2561 192.087 23.2561C195.479 23.2561 197.908 21.526 197.917 18.9436C197.908 17.0516 196.672 15.9181 194.132 15.3982L191.763 14.9209C190.544 14.6567 190.093 14.2391 190.101 13.6084C190.093 12.8243 190.979 12.3129 192.104 12.3129C193.365 12.3129 194.115 13.0033 194.294 13.847L197.618 13.6425Z" fill="#002D44"/>
<path d="M210.581 23.2135C212.695 23.2135 213.794 21.9948 214.297 20.9039H214.451V23.0004H218.03V5.5459H214.408V12.1084H214.297C213.811 11.0431 212.763 9.73908 210.573 9.73908C207.701 9.73908 205.272 11.972 205.272 16.472C205.272 20.8527 207.598 23.2135 210.581 23.2135ZM211.732 20.3243C209.951 20.3243 208.979 18.7391 208.979 16.455C208.979 14.1879 209.934 12.6283 211.732 12.6283C213.496 12.6283 214.485 14.1198 214.485 16.455C214.485 18.7902 213.479 20.3243 211.732 20.3243Z" fill="#002D44"/>
<path d="M226.981 23.2561C230.22 23.2561 232.402 21.6794 232.913 19.2504L229.555 19.0289C229.189 20.026 228.251 20.5459 227.041 20.5459C225.225 20.5459 224.075 19.3442 224.075 17.3925V17.384H232.99V16.3868C232.99 11.9379 230.297 9.73908 226.836 9.73908C222.984 9.73908 220.487 12.4749 220.487 16.5146C220.487 20.6652 222.95 23.2561 226.981 23.2561ZM224.075 15.134C224.152 13.6425 225.285 12.4493 226.896 12.4493C228.473 12.4493 229.564 13.5743 229.572 15.134H224.075Z" fill="#002D44"/>
<path d="M244.544 5.5459H240.914V23.0004H244.544V5.5459Z" fill="#002D44"/>
<path d="M253.368 23.2561C257.339 23.2561 259.811 20.5374 259.811 16.5061C259.811 12.4493 257.339 9.73908 253.368 9.73908C249.396 9.73908 246.924 12.4493 246.924 16.5061C246.924 20.5374 249.396 23.2561 253.368 23.2561ZM253.385 20.4436C251.552 20.4436 250.615 18.7646 250.615 16.4806C250.615 14.1965 251.552 12.509 253.385 12.509C255.183 12.509 256.12 14.1965 256.12 16.4806C256.12 18.7646 255.183 20.4436 253.385 20.4436Z" fill="#002D44"/>
<path d="M273.064 13.6425C272.74 11.2306 270.797 9.73908 267.49 9.73908C264.14 9.73908 261.933 11.2902 261.941 13.8129C261.933 15.7732 263.169 17.0431 265.725 17.5544L267.993 18.0061C269.135 18.2362 269.654 18.6539 269.672 19.3101C269.654 20.0857 268.811 20.6396 267.541 20.6396C266.245 20.6396 265.385 20.0857 265.163 19.0203L261.592 19.2078C261.933 21.7135 264.064 23.2561 267.532 23.2561C270.924 23.2561 273.353 21.526 273.362 18.9436C273.353 17.0516 272.118 15.9181 269.578 15.3982L267.208 14.9209C265.99 14.6567 265.538 14.2391 265.547 13.6084C265.538 12.8243 266.424 12.3129 267.549 12.3129C268.811 12.3129 269.561 13.0033 269.74 13.847L273.064 13.6425Z" fill="#002D44"/>
<path d="M154.166 52.2476C156.101 52.2476 157.354 51.4039 157.993 50.1851H158.095V52.0004H161.538V43.1709C161.538 40.0516 158.896 38.7391 155.982 38.7391C152.845 38.7391 150.783 40.2391 150.28 42.6254L153.638 42.8982C153.885 42.0289 154.66 41.3896 155.964 41.3896C157.2 41.3896 157.908 42.0118 157.908 43.0857V43.1368C157.908 43.9806 157.013 44.0914 154.737 44.3129C152.146 44.5516 149.82 45.4209 149.82 48.3442C149.82 50.9351 151.669 52.2476 154.166 52.2476ZM155.206 49.7419C154.089 49.7419 153.288 49.222 153.288 48.2249C153.288 47.2021 154.132 46.6993 155.41 46.5203C156.203 46.4095 157.499 46.222 157.933 45.9323V47.3215C157.933 48.6936 156.8 49.7419 155.206 49.7419Z" fill="#002D44"/>
<path d="M169.179 52.2135C171.293 52.2135 172.392 50.9948 172.895 49.9039H173.048V52.0004H176.628V34.5459H173.006V41.1084H172.895C172.409 40.0431 171.361 38.7391 169.17 38.7391C166.298 38.7391 163.869 40.972 163.869 45.472C163.869 49.8527 166.196 52.2135 169.179 52.2135ZM170.33 49.3243C168.548 49.3243 167.577 47.7391 167.577 45.455C167.577 43.1879 168.531 41.6283 170.33 41.6283C172.094 41.6283 173.082 43.1198 173.082 45.455C173.082 47.7902 172.077 49.3243 170.33 49.3243Z" fill="#002D44"/>
<path d="M188.008 46.4266C188.016 48.1823 186.815 49.1027 185.511 49.1027C184.138 49.1027 183.252 48.1397 183.244 46.597V38.9095H179.613V47.2448C179.621 50.3044 181.411 52.1709 184.045 52.1709C186.013 52.1709 187.428 51.1567 188.016 49.6226H188.153V52.0004H191.638V38.9095H188.008V46.4266Z" fill="#002D44"/>
<path d="M198.173 34.5459H194.543V52.0004H198.173V34.5459Z" fill="#002D44"/>
<path d="M208.045 38.9095H205.582V35.7732H201.951V38.9095H200.161V41.6368H201.951V48.455C201.934 51.0203 203.681 52.2902 206.315 52.1794C207.252 52.1453 207.917 51.9578 208.283 51.8385L207.712 49.1368C207.533 49.1709 207.15 49.2561 206.809 49.2561C206.085 49.2561 205.582 48.9834 205.582 47.9777V41.6368H208.045V38.9095Z" fill="#002D44"/>
<path d="M216.184 52.2561C220.156 52.2561 222.627 49.5374 222.627 45.5061C222.627 41.4493 220.156 38.7391 216.184 38.7391C212.212 38.7391 209.741 41.4493 209.741 45.5061C209.741 49.5374 212.212 52.2561 216.184 52.2561ZM216.201 49.4436C214.369 49.4436 213.431 47.7647 213.431 45.4806C213.431 43.1965 214.369 41.509 216.201 41.509C217.999 41.509 218.937 43.1965 218.937 45.4806C218.937 47.7647 217.999 49.4436 216.201 49.4436Z" fill="#002D44"/>
<path d="M235.88 42.6425C235.556 40.2306 233.613 38.7391 230.306 38.7391C226.957 38.7391 224.749 40.2902 224.758 42.8129C224.749 44.7732 225.985 46.0431 228.542 46.5544L230.809 47.0061C231.951 47.2362 232.471 47.6539 232.488 48.3101C232.471 49.0857 231.627 49.6396 230.357 49.6396C229.062 49.6396 228.201 49.0857 227.979 48.0203L224.408 48.2078C224.749 50.7135 226.88 52.2561 230.349 52.2561C233.741 52.2561 236.17 50.526 236.178 47.9436C236.17 46.0516 234.934 44.9181 232.394 44.3982L230.025 43.9209C228.806 43.6567 228.354 43.2391 228.363 42.6084C228.354 41.8243 229.241 41.3129 230.366 41.3129C231.627 41.3129 232.377 42.0033 232.556 42.847L235.88 42.6425Z" fill="#002D44"/>
<path opacity="0.3" d="M347.143 307.652H-54.6738C-68.1428 307.652 -79 296.744 -79 283.326C-79 269.857 -68.0916 259 -54.6738 259H347.143C360.612 259 371.47 269.908 371.47 283.326C371.47 296.744 360.612 307.652 347.143 307.652Z" fill="#7AC142"/>
<path d="M300.295 119H341.359C344.661 119 347.362 121.645 347.362 124.878V279.122C347.362 282.355 344.661 285 341.359 285H300.295C296.993 285 294.292 282.355 294.292 279.122V124.878C294.292 121.645 296.993 119 300.295 119Z" fill="url(#paint0_linear)"/>
<path d="M234.737 171H275.801C279.103 171 281.804 173.665 281.804 176.922V279.078C281.804 282.335 279.103 285 275.801 285H234.737C231.435 285 228.734 282.335 228.734 279.078V176.922C228.734 173.665 231.435 171 234.737 171Z" fill="url(#paint1_linear)"/>
<path d="M169.119 164H210.183C213.485 164 216.187 166.829 216.187 170.286V278.714C216.187 282.171 213.485 285 210.183 285H169.119C165.818 285 163.116 282.171 163.116 278.714V170.286C163.116 166.829 165.818 164 169.119 164Z" fill="url(#paint2_linear)"/>
<path d="M103.561 119H144.625C147.927 119 150.628 121.777 150.628 125.171V278.829C150.628 282.223 147.927 285 144.625 285H103.561C100.259 285 97.5578 282.223 97.5578 278.829V125.171C97.5578 121.777 100.259 119 103.561 119Z" fill="url(#paint3_linear)"/>
<path d="M38.0035 69.2344H79.0672C82.3691 69.2344 85.0706 71.9359 85.0706 75.2378V278.996C85.0706 282.297 82.3691 284.999 79.0672 284.999H38.0035C34.7016 284.999 32 282.297 32 278.996V75.2378C32 71.9359 34.6415 69.2344 38.0035 69.2344Z" fill="url(#paint4_linear)"/>
<path d="M44.2337 40.2387C48.1541 40.2387 50.9581 38.0825 50.9496 35.0995C50.9581 32.9262 49.5774 31.3751 47.0121 31.0512V30.9149C48.9638 30.5654 50.3104 29.1847 50.3019 27.2245C50.3104 24.4717 47.8984 22.3069 44.2848 22.3069C40.7053 22.3069 38.0121 24.4035 37.9609 27.4205H41.4979C41.5405 26.091 42.7592 25.2302 44.2678 25.2302C45.7592 25.2302 46.7564 26.1336 46.7479 27.4461C46.7564 28.8183 45.5888 29.7472 43.9098 29.7472H42.282V32.4575H43.9098C45.8871 32.4575 47.1229 33.4461 47.1144 34.8524C47.1229 36.2416 45.9297 37.1961 44.2422 37.1961C42.6144 37.1961 41.3956 36.3438 41.3274 35.0654H37.6115C37.6712 38.1166 40.3984 40.2387 44.2337 40.2387Z" fill="#004F7F"/>
<path d="M60.054 40.2387C63.9744 40.2387 66.7784 38.0825 66.7699 35.0995C66.7784 32.9262 65.3977 31.3751 62.8324 31.0512V30.9149C64.7841 30.5654 66.1307 29.1847 66.1222 27.2245C66.1307 24.4717 63.7188 22.3069 60.1051 22.3069C56.5256 22.3069 53.8324 24.4035 53.7813 27.4205H57.3182C57.3608 26.091 58.5796 25.2302 60.0881 25.2302C61.5796 25.2302 62.5767 26.1336 62.5682 27.4461C62.5767 28.8183 61.4091 29.7472 59.7301 29.7472H58.1023V32.4575H59.7301C61.7074 32.4575 62.9432 33.4461 62.9347 34.8524C62.9432 36.2416 61.75 37.1961 60.0625 37.1961C58.4347 37.1961 57.2159 36.3438 57.1477 35.0654H53.4318C53.4915 38.1166 56.2188 40.2387 60.054 40.2387Z" fill="#004F7F"/>
<path d="M78.9766 36.7274C78.9851 38.824 80.3232 40.6052 82.8203 40.6052C85.2919 40.6052 86.6726 38.824 86.6641 36.7274V35.8069C86.6726 33.6933 85.326 31.9291 82.8203 31.9291C80.3573 31.9291 78.9851 33.7103 78.9766 35.8069V36.7274ZM70.0192 26.7387C70.0277 28.8353 71.3658 30.5995 73.8544 30.5995C76.3345 30.5995 77.7152 28.8524 77.7067 26.7387V25.8183C77.7152 23.7046 76.3686 21.9404 73.8544 21.9404C71.4169 21.9404 70.0277 23.7046 70.0192 25.8183V26.7387ZM70.8544 40.0001H73.0788L85.0788 22.5455H82.8544L70.8544 40.0001ZM81.4567 35.8069C81.4652 34.9717 81.7976 34.1109 82.8203 34.1109C83.8942 34.1109 84.1754 34.9717 84.1669 35.8069V36.7274C84.1754 37.5626 83.8601 38.4063 82.8203 38.4063C81.7805 38.4063 81.4652 37.537 81.4567 36.7274V35.8069ZM72.5163 25.8183C72.5249 25.0086 72.8402 24.1222 73.8544 24.1222C74.9283 24.1222 75.218 24.983 75.2095 25.8183V26.7387C75.218 27.574 74.8942 28.4177 73.8544 28.4177C72.8487 28.4177 72.5249 27.574 72.5163 26.7387V25.8183Z" fill="#004F7F"/>
<path d="M45.2955 52.3632H43.8864L40.9773 54.295V55.7268L43.8182 53.8405H43.8864V63.9996H45.2955V52.3632Z" fill="#004F7F"/>
<path d="M52.3693 64.1586C54.6932 64.1586 56.3125 62.8007 56.3239 60.9086C56.3125 59.4371 55.3296 58.1871 54.0739 57.9541V57.8859C55.1648 57.6018 55.8807 56.5336 55.8921 55.295C55.8807 53.5223 54.3921 52.2041 52.3693 52.2041C50.3239 52.2041 48.8353 53.5223 48.8466 55.295C48.8353 56.5336 49.5512 57.6018 50.6648 57.8859V57.9541C49.3864 58.1871 48.4034 59.4371 48.4148 60.9086C48.4034 62.8007 50.0227 64.1586 52.3693 64.1586ZM52.3693 62.9086C50.7727 62.9086 49.7898 62.0905 49.8012 60.8405C49.7898 59.528 50.875 58.5905 52.3693 58.5905C53.8409 58.5905 54.9262 59.528 54.9375 60.8405C54.9262 62.0905 53.9432 62.9086 52.3693 62.9086ZM52.3693 57.3859C51.0966 57.3859 50.1989 56.5905 50.2103 55.3859C50.1989 54.2041 51.0625 53.4314 52.3693 53.4314C53.6534 53.4314 54.5171 54.2041 54.5284 55.3859C54.5171 56.5905 53.6193 57.3859 52.3693 57.3859Z" fill="#004F7F"/>
<path d="M65.2969 57.5564H57.2969V58.8064H65.2969V57.5564Z" fill="#004F7F"/>
<path d="M66.5014 63.9996H73.8424V62.7496H68.4333V62.6586L71.0469 59.8632C73.0469 57.7211 73.6378 56.7211 73.6378 55.4314C73.6378 53.6359 72.1833 52.2041 70.1378 52.2041C68.098 52.2041 66.5469 53.5905 66.5469 55.6359H67.8878C67.8878 54.3121 68.7458 53.4314 70.0924 53.4314C71.3537 53.4314 72.3196 54.2041 72.3196 55.4314C72.3196 56.5052 71.6889 57.3007 70.3424 58.7723L66.5014 62.9768V63.9996Z" fill="#004F7F"/>
<path d="M75.6662 61.6132H81.1435V63.9996H82.4844V61.6132H84.0753V60.3632H82.4844V52.3632H80.7799L75.6662 60.4541V61.6132ZM81.1435 60.3632H77.1889V60.2723L81.0526 54.1586H81.1435V60.3632Z" fill="#004F7F"/>
<path d="M101.173 87.0001H113.616V83.983H106.286V83.8637L108.835 81.3666C112.423 78.0938 113.386 76.4575 113.386 74.4717C113.386 71.4461 110.914 69.3069 107.173 69.3069C103.508 69.3069 100.994 71.4972 101.002 74.9234H104.505C104.496 73.2529 105.553 72.2302 107.147 72.2302C108.681 72.2302 109.823 73.1847 109.823 74.7188C109.823 76.108 108.971 77.0626 107.386 78.5882L101.173 84.341V87.0001Z" fill="#004F7F"/>
<path d="M123.884 69.5455H120.415L116.094 72.2813V75.5541L120.091 73.0484H120.193V87.0001H123.884V69.5455Z" fill="#004F7F"/>
<path d="M137.586 83.7274C137.594 85.824 138.933 87.6052 141.43 87.6052C143.901 87.6052 145.282 85.824 145.273 83.7274V82.8069C145.282 80.6933 143.935 78.9291 141.43 78.9291C138.967 78.9291 137.594 80.7103 137.586 82.8069V83.7274ZM128.629 73.7387C128.637 75.8353 129.975 77.5995 132.464 77.5995C134.944 77.5995 136.325 75.8524 136.316 73.7387V72.8183C136.325 70.7046 134.978 68.9404 132.464 68.9404C130.026 68.9404 128.637 70.7046 128.629 72.8183V73.7387ZM129.464 87.0001H131.688L143.688 69.5455H141.464L129.464 87.0001ZM140.066 82.8069C140.075 81.9717 140.407 81.1109 141.43 81.1109C142.504 81.1109 142.785 81.9717 142.776 82.8069V83.7274C142.785 84.5626 142.469 85.4063 141.43 85.4063C140.39 85.4063 140.075 84.537 140.066 83.7274V82.8069ZM131.126 72.8183C131.134 72.0086 131.45 71.1222 132.464 71.1222C133.538 71.1222 133.827 71.983 133.819 72.8183V73.7387C133.827 74.574 133.504 75.4177 132.464 75.4177C131.458 75.4177 131.134 74.574 131.126 73.7387V72.8183Z" fill="#004F7F"/>
<path d="M100.767 111H108.108V109.75H102.699V109.659L105.312 106.863C107.312 104.721 107.903 103.721 107.903 102.431C107.903 100.636 106.449 99.2041 104.403 99.2041C102.364 99.2041 100.812 100.59 100.812 102.636H102.153C102.153 101.312 103.011 100.431 104.358 100.431C105.619 100.431 106.585 101.204 106.585 102.431C106.585 103.505 105.955 104.301 104.608 105.772L100.767 109.977V111Z" fill="#004F7F"/>
<path d="M114.091 111.159C116.307 111.159 117.932 109.522 117.932 107.295C117.932 105.039 116.364 103.386 114.227 103.386C113.443 103.386 112.682 103.664 112.205 104.045H112.136L112.545 100.613H117.409V99.3632H111.364L110.659 105.09L111.977 105.25C112.46 104.903 113.284 104.653 114 104.659C115.483 104.67 116.568 105.795 116.568 107.318C116.568 108.812 115.523 109.909 114.091 109.909C112.898 109.909 111.949 109.142 111.841 108.09H110.477C110.562 109.863 112.091 111.159 114.091 111.159Z" fill="#004F7F"/>
<path d="M126.984 104.556H118.984V105.806H126.984V104.556Z" fill="#004F7F"/>
<path d="M132.121 111.159C134.376 111.159 136.053 109.744 136.053 107.84C136.053 106.363 135.178 105.289 133.712 105.045V104.954C134.888 104.596 135.621 103.63 135.621 102.318C135.621 100.67 134.32 99.2041 132.166 99.2041C130.155 99.2041 128.484 100.443 128.416 102.272H129.78C129.831 101.113 130.933 100.431 132.143 100.431C133.428 100.431 134.257 101.21 134.257 102.386C134.257 103.613 133.297 104.409 131.916 104.409H130.984V105.659H131.916C133.683 105.659 134.666 106.556 134.666 107.84C134.666 109.073 133.592 109.909 132.098 109.909C130.751 109.909 129.683 109.215 129.598 108.09H128.166C128.251 109.92 129.865 111.159 132.121 111.159Z" fill="#004F7F"/>
<path d="M138.104 108.613H143.581V111H144.922V108.613H146.513V107.363H144.922V99.3632H143.217L138.104 107.454V108.613ZM143.581 107.363H139.626V107.272L143.49 101.159H143.581V107.363Z" fill="#004F7F"/>
<path d="M174.415 116.546H170.946L166.625 119.281V122.554L170.622 120.048H170.724V134H174.415V116.546Z" fill="#004F7F"/>
<path d="M185.015 134.239C188.935 134.239 191.739 132.082 191.731 129.1C191.739 126.926 190.359 125.375 187.793 125.051V124.915C189.745 124.565 191.092 123.185 191.083 121.225C191.092 118.472 188.68 116.307 185.066 116.307C181.487 116.307 178.793 118.403 178.742 121.421H182.279C182.322 120.091 183.54 119.23 185.049 119.23C186.54 119.23 187.538 120.134 187.529 121.446C187.538 122.818 186.37 123.747 184.691 123.747H183.063V126.457H184.691C186.668 126.457 187.904 127.446 187.896 128.852C187.904 130.242 186.711 131.196 185.023 131.196C183.396 131.196 182.177 130.344 182.109 129.065H178.393C178.452 132.117 181.18 134.239 185.015 134.239Z" fill="#004F7F"/>
<path d="M203.938 130.727C203.946 132.824 205.284 134.605 207.781 134.605C210.253 134.605 211.634 132.824 211.625 130.727V129.807C211.634 127.693 210.287 125.929 207.781 125.929C205.318 125.929 203.946 127.71 203.938 129.807V130.727ZM194.98 120.739C194.989 122.835 196.327 124.6 198.815 124.6C201.295 124.6 202.676 122.852 202.668 120.739V119.818C202.676 117.705 201.33 115.94 198.815 115.94C196.378 115.94 194.989 117.705 194.98 119.818V120.739ZM195.815 134H198.04L210.04 116.546H207.815L195.815 134ZM206.418 129.807C206.426 128.972 206.759 128.111 207.781 128.111C208.855 128.111 209.136 128.972 209.128 129.807V130.727C209.136 131.563 208.821 132.406 207.781 132.406C206.741 132.406 206.426 131.537 206.418 130.727V129.807ZM197.477 119.818C197.486 119.009 197.801 118.122 198.815 118.122C199.889 118.122 200.179 118.983 200.17 119.818V120.739C200.179 121.574 199.855 122.418 198.815 122.418C197.81 122.418 197.486 121.574 197.477 120.739V119.818Z" fill="#004F7F"/>
<path d="M170.41 158.16C172.665 158.16 174.342 156.745 174.342 154.841C174.342 153.364 173.467 152.29 172.001 152.046V151.955C173.177 151.597 173.91 150.631 173.91 149.319C173.91 147.671 172.609 146.205 170.455 146.205C168.444 146.205 166.773 147.444 166.705 149.273H168.069C168.12 148.114 169.222 147.432 170.433 147.432C171.717 147.432 172.546 148.211 172.546 149.387C172.546 150.614 171.586 151.41 170.205 151.41H169.273V152.66H170.205C171.972 152.66 172.955 153.557 172.955 154.841C172.955 156.074 171.881 156.91 170.387 156.91C169.04 156.91 167.972 156.216 167.887 155.091H166.455C166.54 156.921 168.154 158.16 170.41 158.16Z" fill="#004F7F"/>
<path d="M180.302 158.16C182.518 158.16 184.143 156.523 184.143 154.296C184.143 152.04 182.575 150.387 180.438 150.387C179.654 150.387 178.893 150.665 178.415 151.046H178.347L178.756 147.614H183.62V146.364H177.575L176.87 152.091L178.188 152.251C178.671 151.904 179.495 151.654 180.211 151.66C181.694 151.671 182.779 152.796 182.779 154.319C182.779 155.813 181.734 156.91 180.302 156.91C179.109 156.91 178.16 156.143 178.052 155.091H176.688C176.773 156.864 178.302 158.16 180.302 158.16Z" fill="#004F7F"/>
<path d="M193.195 151.557H185.195V152.807H193.195V151.557Z" fill="#004F7F"/>
<path d="M194.127 155.614H199.604V158.001H200.945V155.614H202.536V154.364H200.945V146.364H199.241L194.127 154.455V155.614ZM199.604 154.364H195.65V154.273L199.514 148.16H199.604V154.364Z" fill="#004F7F"/>
<path d="M204.393 155.614H209.87V158.001H211.211V155.614H212.802V154.364H211.211V146.364H209.506L204.393 154.455V155.614ZM209.87 154.364H205.915V154.273L209.779 148.16H209.87V154.364Z" fill="#004F7F"/>
<path d="M239.766 121.546H236.298L231.977 124.281V127.554L235.974 125.048H236.076V139H239.766V121.546Z" fill="#004F7F"/>
<path d="M243.915 139H256.358V135.983H249.028V135.864L251.577 133.367C255.165 130.094 256.128 128.457 256.128 126.472C256.128 123.446 253.656 121.307 249.915 121.307C246.25 121.307 243.736 123.497 243.744 126.923H247.247C247.239 125.253 248.295 124.23 249.889 124.23C251.423 124.23 252.565 125.185 252.565 126.719C252.565 128.108 251.713 129.063 250.128 130.588L243.915 136.341V139Z" fill="#004F7F"/>
<path d="M268.586 135.727C268.594 137.824 269.933 139.605 272.43 139.605C274.901 139.605 276.282 137.824 276.273 135.727V134.807C276.282 132.693 274.935 130.929 272.43 130.929C269.967 130.929 268.594 132.71 268.586 134.807V135.727ZM259.629 125.739C259.637 127.835 260.975 129.6 263.464 129.6C265.944 129.6 267.325 127.852 267.316 125.739V124.818C267.325 122.705 265.978 120.94 263.464 120.94C261.026 120.94 259.637 122.705 259.629 124.818V125.739ZM260.464 139H262.688L274.688 121.546H272.464L260.464 139ZM271.066 134.807C271.075 133.972 271.407 133.111 272.43 133.111C273.504 133.111 273.785 133.972 273.776 134.807V135.727C273.785 136.563 273.469 137.406 272.43 137.406C271.39 137.406 271.075 136.537 271.066 135.727V134.807ZM262.126 124.818C262.134 124.009 262.45 123.122 263.464 123.122C264.538 123.122 264.827 123.983 264.819 124.818V125.739C264.827 126.574 264.504 127.418 263.464 127.418C262.458 127.418 262.134 126.574 262.126 125.739V124.818Z" fill="#004F7F"/>
<path d="M231.432 160.614H236.909V163.001H238.25V160.614H239.841V159.364H238.25V151.364H236.545L231.432 159.455V160.614ZM236.909 159.364H232.955V159.273L236.818 153.16H236.909V159.364Z" fill="#004F7F"/>
<path d="M245.607 163.16C247.822 163.16 249.447 161.523 249.447 159.296C249.447 157.04 247.879 155.387 245.743 155.387C244.959 155.387 244.197 155.665 243.72 156.046H243.652L244.061 152.614H248.925V151.364H242.879L242.175 157.092L243.493 157.251C243.976 156.904 244.8 156.654 245.516 156.66C246.999 156.671 248.084 157.796 248.084 159.319C248.084 160.813 247.038 161.91 245.607 161.91C244.413 161.91 243.464 161.143 243.357 160.092H241.993C242.078 161.864 243.607 163.16 245.607 163.16Z" fill="#004F7F"/>
<path d="M258.5 156.557H250.5V157.807H258.5V156.557Z" fill="#004F7F"/>
<path d="M263.341 163.16C265.557 163.16 267.182 161.523 267.182 159.296C267.182 157.04 265.614 155.387 263.477 155.387C262.693 155.387 261.932 155.665 261.455 156.046H261.386L261.795 152.614H266.659V151.364H260.614L259.909 157.092L261.227 157.251C261.71 156.904 262.534 156.654 263.25 156.66C264.733 156.671 265.818 157.796 265.818 159.319C265.818 160.813 264.773 161.91 263.341 161.91C262.148 161.91 261.199 161.143 261.091 160.092H259.727C259.813 161.864 261.341 163.16 263.341 163.16Z" fill="#004F7F"/>
<path d="M269.166 160.614H274.643V163.001H275.984V160.614H277.575V159.364H275.984V151.364H274.28L269.166 159.455V160.614ZM274.643 159.364H270.689V159.273L274.553 153.16H274.643V159.364Z" fill="#004F7F"/>
<path d="M298.173 86.0001H310.616V82.983H303.286V82.8637L305.834 80.3666C309.423 77.0938 310.386 75.4575 310.386 73.4717C310.386 70.4461 307.914 68.3069 304.173 68.3069C300.508 68.3069 297.994 70.4972 298.002 73.9234H301.505C301.496 72.2529 302.553 71.2302 304.147 71.2302C305.681 71.2302 306.823 72.1847 306.823 73.7188C306.823 75.108 305.971 76.0626 304.386 77.5882L298.173 83.341V86.0001Z" fill="#004F7F"/>
<path d="M320.883 68.5455H317.415L313.094 71.2813V74.5541L317.091 72.0484H317.193V86.0001H320.883V68.5455Z" fill="#004F7F"/>
<path d="M334.586 82.7274C334.594 84.824 335.932 86.6052 338.43 86.6052C340.901 86.6052 342.282 84.824 342.273 82.7274V81.8069C342.282 79.6933 340.935 77.9291 338.43 77.9291C335.967 77.9291 334.594 79.7103 334.586 81.8069V82.7274ZM325.629 72.7387C325.637 74.8353 326.975 76.5995 329.464 76.5995C331.944 76.5995 333.325 74.8524 333.316 72.7387V71.8183C333.325 69.7046 331.978 67.9404 329.464 67.9404C327.026 67.9404 325.637 69.7046 325.629 71.8183V72.7387ZM326.464 86.0001H328.688L340.688 68.5455H338.464L326.464 86.0001ZM337.066 81.8069C337.075 80.9717 337.407 80.1109 338.43 80.1109C339.504 80.1109 339.785 80.9717 339.776 81.8069V82.7274C339.785 83.5626 339.469 84.4063 338.43 84.4063C337.39 84.4063 337.075 83.537 337.066 82.7274V81.8069ZM328.126 71.8183C328.134 71.0086 328.45 70.1222 329.464 70.1222C330.538 70.1222 330.827 70.983 330.819 71.8183V72.7387C330.827 73.574 330.504 74.4177 329.464 74.4177C328.458 74.4177 328.134 73.574 328.126 72.7387V71.8183Z" fill="#004F7F"/>
<path d="M310.333 110.16C312.549 110.16 314.174 108.523 314.174 106.296C314.174 104.04 312.606 102.387 310.469 102.387C309.685 102.387 308.924 102.665 308.447 103.046H308.379L308.788 99.6143H313.651V98.3643H307.606L306.901 104.092L308.219 104.251C308.702 103.904 309.526 103.654 310.242 103.66C311.725 103.671 312.81 104.796 312.81 106.319C312.81 107.813 311.765 108.91 310.333 108.91C309.14 108.91 308.191 108.143 308.083 107.092H306.719C306.805 108.864 308.333 110.16 310.333 110.16Z" fill="#004F7F"/>
<path d="M320.067 110.16C322.283 110.16 323.908 108.523 323.908 106.296C323.908 104.04 322.34 102.387 320.204 102.387C319.42 102.387 318.658 102.665 318.181 103.046H318.113L318.522 99.6143H323.386V98.3643H317.34L316.636 104.092L317.954 104.251C318.437 103.904 319.261 103.654 319.977 103.66C321.46 103.671 322.545 104.796 322.545 106.319C322.545 107.813 321.499 108.91 320.067 108.91C318.874 108.91 317.925 108.143 317.817 107.092H316.454C316.539 108.864 318.067 110.16 320.067 110.16Z" fill="#004F7F"/>
<path d="M329.597 107.955H330.87V104.842H333.984V103.569H330.87V100.455H329.597V103.569H326.484V104.842H329.597V107.955Z" fill="#004F7F"/>
</g>
<defs>
<linearGradient id="paint0_linear" x1="320.827" y1="119" x2="320.827" y2="285" gradientUnits="userSpaceOnUse">
<stop stop-color="#99D5FB"/>
<stop offset="1" stop-color="#AFDCF8"/>
</linearGradient>
<linearGradient id="paint1_linear" x1="255.269" y1="171" x2="255.269" y2="285" gradientUnits="userSpaceOnUse">
<stop stop-color="#99D5FB"/>
<stop offset="1" stop-color="#AFDCF8"/>
</linearGradient>
<linearGradient id="paint2_linear" x1="189.651" y1="164" x2="189.651" y2="285" gradientUnits="userSpaceOnUse">
<stop stop-color="#99D5FB"/>
<stop offset="1" stop-color="#AFDCF8"/>
</linearGradient>
<linearGradient id="paint3_linear" x1="124.093" y1="119" x2="124.093" y2="285" gradientUnits="userSpaceOnUse">
<stop stop-color="#99D5FB"/>
<stop offset="1" stop-color="#AFDCF8"/>
</linearGradient>
<linearGradient id="paint4_linear" x1="58.5353" y1="69.2344" x2="58.5353" y2="284.999" gradientUnits="userSpaceOnUse">
<stop stop-color="#99D5FB"/>
<stop offset="1" stop-color="#AFDCF8"/>
</linearGradient>
<clipPath id="clip0">
<rect width="371" height="308" fill="white"/>
</clipPath>
</defs>
</svg>
