<svg width="376" height="262" viewBox="0 0 376 262" fill="none" xmlns="http://www.w3.org/2000/svg">
<g clip-path="url(#clip0)">
<path opacity="0.5" d="M406.023 250.239H172.448C164.208 250.239 157.527 243.565 157.527 235.334C157.527 227.103 164.208 220.429 172.448 220.429H405.979C414.219 220.429 420.9 227.103 420.9 235.334C420.9 243.609 414.219 250.239 406.023 250.239Z" fill="url(#paint0_linear)"/>
<path d="M227.459 85.4423L238.872 74.083L242.457 77.0463L233.31 90.6692C231.868 92.2744 229.355 92.439 227.748 90.9985C226.182 89.5168 226.017 87.0474 227.459 85.4423Z" fill="#007AB7"/>
<path d="M238.872 74.0827L241.097 70.3786C241.839 69.1438 243.487 68.7734 244.682 69.5966C245.836 70.4197 246.124 71.9837 245.3 73.1361L242.498 77.0048L238.872 74.0827Z" fill="#AF7A4F"/>
<path d="M226.471 236.446C223.174 236.446 220.414 233.895 220.208 230.602L213.616 134.624C213.616 128.945 218.23 124.335 223.916 124.335H229.066C234.752 124.335 239.367 128.945 239.367 134.624L232.775 230.602C232.527 233.895 229.767 236.446 226.471 236.446Z" fill="url(#paint1_linear)"/>
<path d="M226.471 70.2552C220.744 70.2552 216.047 65.6045 216.047 59.8425V53.2574C216.047 47.5366 220.702 42.8447 226.471 42.8447C232.198 42.8447 236.895 47.4955 236.895 53.2574V59.8425C236.895 65.6045 232.239 70.2552 226.471 70.2552Z" fill="#AF7A4F"/>
<path d="M234.835 139.934H218.148C215.676 139.934 213.616 137.876 213.616 135.407L211.555 82.3556C211.555 76.676 216.17 72.0664 221.856 72.0664H229.066C234.752 72.0664 239.367 76.676 239.367 82.3556V135.407C239.367 137.876 237.307 139.934 234.835 139.934Z" fill="url(#paint2_linear)"/>
<path d="M218.683 52.9692C219.384 51.2817 220.62 49.4297 222.35 48.8123C224.699 48.0303 228.036 48.195 230.426 48.4831C232.033 48.6888 233.928 48.9769 235.041 47.7422C236.277 46.3429 235.329 44.0793 233.928 42.8857C230.962 40.4163 226.677 40.4986 222.886 41.0748C220.125 41.4864 217.077 42.3095 215.593 44.6555C214.398 46.5487 214.398 49.265 214.028 51.4052C213.574 54.2039 214.357 57.5376 215.222 60.1716C215.346 60.5832 215.511 61.0359 215.84 61.3652C216.17 61.6944 216.665 61.859 217.077 61.6532C217.695 61.3652 217.695 60.542 217.653 59.8424C217.53 57.7022 217.695 55.5209 218.436 53.5453C218.519 53.4219 218.601 53.2161 218.683 52.9692Z" fill="#0069AA"/>
<path d="M239.408 104.868L217.942 85.7708C215.882 83.9599 215.717 80.7908 217.53 78.733C219.343 76.6751 222.515 76.5105 224.575 78.3214L246.042 97.4182C248.102 99.2291 248.267 102.398 246.454 104.456C244.6 106.473 241.468 106.678 239.408 104.868Z" fill="#007AB7"/>
<path d="M239.326 97.9536L253.787 83.5898L258.361 87.3351L246.783 104.58C244.97 106.638 241.798 106.802 239.738 104.991C237.677 103.181 237.513 100.011 239.326 97.9536Z" fill="#007AB7"/>
<path d="M256.301 83.3423L241.963 76.0987C241.18 75.6459 240.933 74.617 241.427 73.835L246.577 65.8917C247.03 65.1098 248.061 64.8628 248.843 65.3567L264.088 70.5836C264.871 71.0364 265.118 72.0653 264.624 72.8473L258.526 82.8072C258.073 83.5892 257.043 83.8361 256.301 83.3423Z" fill="#01527A"/>
<path d="M256.383 81.8617L243.775 75.5647L249.297 66.9629L262.77 71.3255L256.383 81.8617Z" fill="#E6E6E6"/>
<path d="M253.787 83.5896L256.589 78.8977C257.537 77.3337 259.638 76.881 261.121 77.9099C262.605 78.9388 262.934 80.9555 261.904 82.396L258.361 87.2937L253.787 83.5896Z" fill="#AF7A4F"/>
<path d="M294.017 235.129C297.313 235.17 300.073 232.66 300.362 229.367L308.19 141.991C308.273 136.353 303.699 131.62 298.013 131.579L292.863 131.496C287.218 131.414 282.48 135.982 282.439 141.662L287.836 229.203C288.042 232.495 290.72 235.088 294.017 235.129Z" fill="#CCA283"/>
<path d="M281.656 145.448L279.719 176.193C279.596 178.456 281.367 180.391 283.634 180.391H306.377C308.643 180.391 310.456 178.497 310.291 176.234L308.313 143.432L281.656 145.448Z" fill="url(#paint3_linear)"/>
<path d="M295.582 77.4984C301.309 77.4984 306.006 72.8476 306.006 67.0857V60.5006C306.006 54.7798 301.351 50.0879 295.582 50.0879C289.855 50.0879 285.158 54.7386 285.158 60.5006V67.0857C285.158 72.8476 289.814 77.4984 295.582 77.4984Z" fill="#CCA283"/>
<path d="M285.158 147.135H305.141C307.613 147.135 309.673 145.119 309.673 142.608L306.789 89.5568C306.789 83.8772 302.175 79.2676 296.489 79.2676H292.986C287.301 79.2676 282.686 83.8772 282.686 89.5568L280.626 142.608C280.626 145.119 282.686 147.135 285.158 147.135Z" fill="url(#paint4_linear)"/>
<path d="M285.158 116.31L298.755 90.9982C300.032 88.57 299.126 85.5655 296.736 84.2485C294.305 82.9726 291.297 83.8781 289.979 86.2652L276.382 111.577C275.105 114.005 276.011 117.009 278.401 118.326C280.832 119.602 283.84 118.697 285.158 116.31Z" fill="#86CC48"/>
<path d="M281.409 108.736L261.096 107.131L260.025 112.934L280.008 118.614C282.727 118.984 285.241 117.091 285.653 114.374C286.023 111.658 284.128 109.148 281.409 108.736Z" fill="#86CC48"/>
<path d="M261.055 107.131L255.905 105.362C254.174 104.786 252.279 105.773 251.784 107.543C251.331 109.272 252.361 111.041 254.092 111.453L259.984 112.893L261.055 107.131Z" fill="#CCA283"/>
<path d="M261.055 107.131C261.055 107.131 259.283 103.838 258.459 103.715C257.635 103.591 255.74 104.538 257.017 106.061C258.294 107.542 261.055 107.131 261.055 107.131Z" fill="#CCA283"/>
<path d="M284.87 60.3773C285.117 60.6654 285.57 60.8711 286.271 61.0769C287.671 61.4062 290.638 62.0235 291.833 60.9123C292.204 60.583 292.369 60.048 292.492 59.5541C293.275 56.6731 293.687 53.8744 294.017 50.9111C294.181 49.553 292.657 49.306 291.627 49.4706C289.361 49.8822 287.383 51.4873 286.229 53.4629C285.323 54.9445 284.87 56.6731 284.664 58.4017C284.499 59.3895 284.54 59.9657 284.87 60.3773Z" fill="#01527A"/>
<path d="M295.253 67.7029C295.253 67.744 295.253 67.7852 295.253 67.7852C294.758 71.2835 295.871 84.6595 295.582 88.199C295.541 88.5694 299.538 89.3103 299.95 89.3514C301.515 89.5572 303.081 89.5984 304.647 89.4749C306.212 89.3103 307.778 89.0222 309.261 88.4871C309.962 88.2402 310.909 87.9933 311.527 87.5405C312.187 87.0466 312.145 86.6351 312.145 85.7296C312.187 82.5194 310.703 69.4726 310.621 66.2624C310.538 63.3403 310.415 60.377 309.302 57.6606C308.108 54.6973 305.8 52.1456 302.957 50.7051C301.433 49.9231 299.785 49.4704 298.095 49.3058C296.818 49.1823 294.841 48.8119 293.687 49.635C291.915 50.8697 293.563 55.8909 293.852 57.5371C294.14 59.348 294.429 61.2001 294.758 63.011C295.005 64.575 295.459 66.1801 295.253 67.7029Z" fill="#01527A"/>
<path d="M322.322 40.8276H248.777C243.091 40.8276 238.476 36.2181 238.476 30.5384V10.2892C238.476 4.60957 243.091 0 248.777 0H322.322C328.008 0 332.623 4.60957 332.623 10.2892V30.5384C332.623 36.1769 328.008 40.8276 322.322 40.8276Z" fill="#D3E1EA"/>
<path d="M262.579 40.8283C262.579 40.8283 265.587 48.8538 271.973 52.7226C273.292 53.5046 274.899 52.2699 274.528 50.7882C273.869 48.3188 273.21 44.7382 273.21 40.7871H262.579V40.8283Z" fill="#D3E1EA"/>
<g opacity="0.5">
<path opacity="0.5" d="M320.262 10.9888H249.807C249.065 10.9888 248.447 10.3715 248.447 9.63063C248.447 8.88981 249.065 8.27246 249.807 8.27246H320.262C321.004 8.27246 321.622 8.88981 321.622 9.63063C321.622 10.3715 321.004 10.9888 320.262 10.9888Z" fill="#0069AA"/>
</g>
<g opacity="0.5">
<path opacity="0.5" d="M320.262 20.4546H249.807C249.065 20.4546 248.447 19.8373 248.447 19.0965C248.447 18.3556 249.065 17.7383 249.807 17.7383H320.262C321.004 17.7383 321.622 18.3556 321.622 19.0965C321.622 19.8373 321.004 20.4546 320.262 20.4546Z" fill="#0069AA"/>
</g>
<g opacity="0.5">
<path opacity="0.5" d="M302.463 29.9213H249.642C248.983 29.9213 248.488 29.3863 248.488 28.7689V28.3985C248.488 27.74 249.024 27.2461 249.642 27.2461H302.463C303.122 27.2461 303.617 27.7811 303.617 28.3985V28.7689C303.617 29.3863 303.122 29.9213 302.463 29.9213Z" fill="#0069AA"/>
</g>
<g opacity="0.08">
<path opacity="0.9" d="M199.165 120.98C199.165 116.198 195.274 112.316 190.481 112.316H180.978C164.307 112.316 150.83 98.8287 150.83 82.2357C150.83 65.6018 164.348 52.1557 180.978 52.1557H284.98C293.746 52.1557 300.873 45.0444 300.873 36.2983C300.873 22.3209 312.22 11 326.229 11H452.555C466.564 11 477.91 22.3209 477.91 36.2983V54.3626C477.91 68.34 466.564 79.6609 452.555 79.6609H361.046C352.813 79.6609 346.177 86.3226 346.177 94.4966C346.177 102.711 352.854 109.332 361.046 109.332H401.639C415.321 109.332 426.421 120.408 426.421 134.058C426.421 147.709 415.321 158.784 401.639 158.784H276.419C266.916 158.784 259.174 166.468 259.174 175.99C259.174 183.715 252.907 189.968 245.165 189.968H62.2299C45.5174 189.968 32 176.44 32 159.806C32 143.131 45.5584 129.644 62.2299 129.644H190.522C195.274 129.644 199.165 125.762 199.165 120.98Z" fill="#0069AA"/>
</g>
<path d="M20.5909 88.9997H27.6193V87.4884H22.3466V77.3634H20.5909V88.9997Z" fill="#00559B"/>
<path d="M33.1619 89.1759C35.6221 89.1759 37.2301 87.3747 37.2301 84.6759C37.2301 81.96 35.6221 80.1588 33.1619 80.1588C30.7017 80.1588 29.0937 81.96 29.0937 84.6759C29.0937 87.3747 30.7017 89.1759 33.1619 89.1759ZM33.1676 87.7497C31.5596 87.7497 30.8096 86.3463 30.8096 84.6702C30.8096 82.9997 31.5596 81.5793 33.1676 81.5793C34.7642 81.5793 35.5142 82.9997 35.5142 84.6702C35.5142 86.3463 34.7642 87.7497 33.1676 87.7497Z" fill="#00559B"/>
<path d="M45.6662 82.4031C45.3139 81.0452 44.2514 80.1588 42.365 80.1588C40.3935 80.1588 38.9957 81.1986 38.9957 82.7441C38.9957 83.9827 39.7457 84.8066 41.3821 85.1702L42.8594 85.4941C43.7003 85.6816 44.0923 86.0566 44.0923 86.602C44.0923 87.2781 43.3707 87.8066 42.2571 87.8066C41.24 87.8066 40.5866 87.3691 40.3821 86.5111L38.74 86.7611C39.0241 88.3066 40.3082 89.1759 42.2684 89.1759C44.3764 89.1759 45.8366 88.0566 45.8366 86.477C45.8366 85.2441 45.0525 84.4827 43.4503 84.1134L42.0639 83.7952C41.1037 83.5679 40.6889 83.2441 40.6946 82.6531C40.6889 81.9827 41.4162 81.5054 42.3821 81.5054C43.4389 81.5054 43.9275 82.0906 44.1264 82.6759L45.6662 82.4031Z" fill="#00559B"/>
<path d="M55.7003 89.1759C57.6037 89.1759 58.9503 88.2384 59.3366 86.8179L57.7287 86.5281C57.4219 87.352 56.6832 87.7725 55.7173 87.7725C54.2628 87.7725 53.2855 86.8293 53.24 85.1475H59.4446V84.5452C59.4446 81.3918 57.5582 80.1588 55.5809 80.1588C53.1491 80.1588 51.5469 82.0111 51.5469 84.6929C51.5469 87.4031 53.1264 89.1759 55.7003 89.1759ZM53.2457 83.8747C53.3139 82.6361 54.2116 81.5622 55.5923 81.5622C56.9105 81.5622 57.7741 82.5395 57.7798 83.8747H53.2457Z" fill="#00559B"/>
<path d="M63.0284 83.8179C63.0284 82.4259 63.8807 81.6304 65.0625 81.6304C66.2159 81.6304 66.9148 82.3861 66.9148 83.6531V88.9997H68.6136V83.4486C68.6136 81.2895 67.4261 80.1588 65.642 80.1588C64.3295 80.1588 63.4716 80.7668 63.0682 81.6929H62.9602V80.2725H61.3295V88.9997H63.0284V83.8179Z" fill="#00559B"/>
<path d="M74.9659 80.2725H73.1761V78.1816H71.4773V80.2725H70.1988V81.6361H71.4773V86.7895C71.4716 88.3747 72.6818 89.1418 74.0227 89.1134C74.5625 89.1077 74.9261 89.0054 75.125 88.9316L74.8182 87.5281C74.7045 87.5509 74.4943 87.602 74.2216 87.602C73.6704 87.602 73.1761 87.4202 73.1761 86.4372V81.6361H74.9659V80.2725Z" fill="#00559B"/>
<path d="M76.8452 88.9997H78.544V83.6702C78.544 82.5281 79.4247 81.7043 80.6292 81.7043C80.9815 81.7043 81.3792 81.7668 81.5156 81.8066V80.1816C81.3452 80.1588 81.0099 80.1418 80.794 80.1418C79.7713 80.1418 78.8963 80.7213 78.5781 81.6588H78.4872V80.2725H76.8452V88.9997Z" fill="#00559B"/>
<path d="M86.4346 89.1759C88.3381 89.1759 89.6846 88.2384 90.071 86.8179L88.4631 86.5281C88.1562 87.352 87.4176 87.7725 86.4517 87.7725C84.9971 87.7725 84.0199 86.8293 83.9744 85.1475H90.179V84.5452C90.179 81.3918 88.2926 80.1588 86.3153 80.1588C83.8835 80.1588 82.2812 82.0111 82.2812 84.6929C82.2812 87.4031 83.8608 89.1759 86.4346 89.1759ZM83.9801 83.8747C84.0483 82.6361 84.946 81.5622 86.3267 81.5622C87.6449 81.5622 88.5085 82.5395 88.5142 83.8747H83.9801Z" fill="#00559B"/>
<path d="M99.2642 80.2725H97.4403L95.2358 86.9884H95.1449L92.9346 80.2725H91.1108L94.2812 88.9997H96.0994L99.2642 80.2725Z" fill="#00559B"/>
<path d="M100.861 88.9997H102.56V80.2725H100.861V88.9997ZM101.719 78.9259C102.304 78.9259 102.793 78.4713 102.793 77.9145C102.793 77.3577 102.304 76.8975 101.719 76.8975C101.128 76.8975 100.645 77.3577 100.645 77.9145C100.645 78.4713 101.128 78.9259 101.719 78.9259Z" fill="#00559B"/>
<path d="M111.385 82.4031C111.033 81.0452 109.97 80.1588 108.084 80.1588C106.112 80.1588 104.714 81.1986 104.714 82.7441C104.714 83.9827 105.464 84.8066 107.101 85.1702L108.578 85.4941C109.419 85.6816 109.811 86.0566 109.811 86.602C109.811 87.2781 109.089 87.8066 107.976 87.8066C106.959 87.8066 106.305 87.3691 106.101 86.5111L104.459 86.7611C104.743 88.3066 106.027 89.1759 107.987 89.1759C110.095 89.1759 111.555 88.0566 111.555 86.477C111.555 85.2441 110.771 84.4827 109.169 84.1134L107.783 83.7952C106.822 83.5679 106.408 83.2441 106.413 82.6531C106.408 81.9827 107.135 81.5054 108.101 81.5054C109.158 81.5054 109.646 82.0906 109.845 82.6759L111.385 82.4031Z" fill="#00559B"/>
<path d="M117.497 80.2725H115.707V78.1816H114.009V80.2725H112.73V81.6361H114.009V86.7895C114.003 88.3747 115.213 89.1418 116.554 89.1134C117.094 89.1077 117.457 89.0054 117.656 88.9316L117.349 87.5281C117.236 87.5509 117.026 87.602 116.753 87.602C116.202 87.602 115.707 87.4202 115.707 86.4372V81.6361H117.497V80.2725Z" fill="#00559B"/>
<path d="M121.916 89.1929C123.359 89.1929 124.172 88.46 124.496 87.8066H124.564V88.9997H126.223V83.2043C126.223 80.6645 124.223 80.1588 122.837 80.1588C121.257 80.1588 119.803 80.7952 119.234 82.3861L120.831 82.7497C121.081 82.1304 121.717 81.5338 122.859 81.5338C123.956 81.5338 124.518 82.1077 124.518 83.0963V83.1361C124.518 83.7554 123.882 83.7441 122.314 83.9259C120.66 84.1191 118.967 84.5509 118.967 86.5338C118.967 88.2497 120.257 89.1929 121.916 89.1929ZM122.285 87.8293C121.325 87.8293 120.632 87.3975 120.632 86.5566C120.632 85.6475 121.439 85.3236 122.422 85.1929C122.973 85.1191 124.28 84.9713 124.524 84.727V85.852C124.524 86.8861 123.7 87.8293 122.285 87.8293Z" fill="#00559B"/>
<path d="M131.753 89.1702C133.344 89.1702 133.969 88.1986 134.276 87.6418H134.418V88.9997H136.077V77.3634H134.378V81.6872H134.276C133.969 81.1475 133.389 80.1588 131.764 80.1588C129.656 80.1588 128.105 81.8236 128.105 84.6531C128.105 87.477 129.634 89.1702 131.753 89.1702ZM132.128 87.7213C130.611 87.7213 129.821 86.3861 129.821 84.6361C129.821 82.9031 130.594 81.602 132.128 81.602C133.611 81.602 134.406 82.8122 134.406 84.6361C134.406 86.4713 133.594 87.7213 132.128 87.7213Z" fill="#00559B"/>
<path d="M142.178 89.1759C144.638 89.1759 146.246 87.3747 146.246 84.6759C146.246 81.96 144.638 80.1588 142.178 80.1588C139.717 80.1588 138.109 81.96 138.109 84.6759C138.109 87.3747 139.717 89.1759 142.178 89.1759ZM142.183 87.7497C140.575 87.7497 139.825 86.3463 139.825 84.6702C139.825 82.9997 140.575 81.5793 142.183 81.5793C143.78 81.5793 144.53 82.9997 144.53 84.6702C144.53 86.3463 143.78 87.7497 142.183 87.7497Z" fill="#00559B"/>
<path d="M148.142 88.9997H149.841V83.6702C149.841 82.5281 150.722 81.7043 151.926 81.7043C152.278 81.7043 152.676 81.7668 152.812 81.8066V80.1816C152.642 80.1588 152.307 80.1418 152.091 80.1418C151.068 80.1418 150.193 80.7213 149.875 81.6588H149.784V80.2725H148.142V88.9997Z" fill="#00559B"/>
<path d="M157.732 89.1759C159.635 89.1759 160.982 88.2384 161.368 86.8179L159.76 86.5281C159.453 87.352 158.714 87.7725 157.749 87.7725C156.294 87.7725 155.317 86.8293 155.271 85.1475H161.476V84.5452C161.476 81.3918 159.589 80.1588 157.612 80.1588C155.18 80.1588 153.578 82.0111 153.578 84.6929C153.578 87.4031 155.158 89.1759 157.732 89.1759ZM155.277 83.8747C155.345 82.6361 156.243 81.5622 157.624 81.5622C158.942 81.5622 159.805 82.5395 159.811 83.8747H155.277Z" fill="#00559B"/>
<path d="M169.901 82.4031C169.548 81.0452 168.486 80.1588 166.599 80.1588C164.628 80.1588 163.23 81.1986 163.23 82.7441C163.23 83.9827 163.98 84.8066 165.616 85.1702L167.094 85.4941C167.935 85.6816 168.327 86.0566 168.327 86.602C168.327 87.2781 167.605 87.8066 166.491 87.8066C165.474 87.8066 164.821 87.3691 164.616 86.5111L162.974 86.7611C163.258 88.3066 164.543 89.1759 166.503 89.1759C168.611 89.1759 170.071 88.0566 170.071 86.477C170.071 85.2441 169.287 84.4827 167.685 84.1134L166.298 83.7952C165.338 83.5679 164.923 83.2441 164.929 82.6531C164.923 81.9827 165.651 81.5054 166.616 81.5054C167.673 81.5054 168.162 82.0906 168.361 82.6759L169.901 82.4031Z" fill="#00559B"/>
<path d="M182.713 82.4031C182.361 81.0452 181.298 80.1588 179.412 80.1588C177.44 80.1588 176.043 81.1986 176.043 82.7441C176.043 83.9827 176.793 84.8066 178.429 85.1702L179.906 85.4941C180.747 85.6816 181.139 86.0566 181.139 86.602C181.139 87.2781 180.418 87.8066 179.304 87.8066C178.287 87.8066 177.633 87.3691 177.429 86.5111L175.787 86.7611C176.071 88.3066 177.355 89.1759 179.315 89.1759C181.423 89.1759 182.884 88.0566 182.884 86.477C182.884 85.2441 182.099 84.4827 180.497 84.1134L179.111 83.7952C178.151 83.5679 177.736 83.2441 177.741 82.6531C177.736 81.9827 178.463 81.5054 179.429 81.5054C180.486 81.5054 180.974 82.0906 181.173 82.6759L182.713 82.4031Z" fill="#00559B"/>
<path d="M188.513 89.1759C190.416 89.1759 191.763 88.2384 192.149 86.8179L190.541 86.5281C190.234 87.352 189.496 87.7725 188.53 87.7725C187.075 87.7725 186.098 86.8293 186.053 85.1475H192.257V84.5452C192.257 81.3918 190.371 80.1588 188.393 80.1588C185.962 80.1588 184.359 82.0111 184.359 84.6929C184.359 87.4031 185.939 89.1759 188.513 89.1759ZM186.058 83.8747C186.126 82.6361 187.024 81.5622 188.405 81.5622C189.723 81.5622 190.587 82.5395 190.592 83.8747H186.058Z" fill="#00559B"/>
<path d="M40.0838 113.176C42.1463 113.176 43.4815 111.937 43.669 110.238H42.0156C41.7997 111.182 41.0667 111.738 40.0952 111.738C38.6577 111.738 37.7315 110.54 37.7315 108.636C37.7315 106.767 38.6747 105.591 40.0952 105.591C41.1747 105.591 41.8338 106.272 42.0156 107.091H43.669C43.4872 105.329 42.0497 104.159 40.0667 104.159C37.6065 104.159 36.0156 106.011 36.0156 108.676C36.0156 111.307 37.5497 113.176 40.0838 113.176Z" fill="#00559B"/>
<path d="M49.1619 113.176C51.6221 113.176 53.2301 111.375 53.2301 108.676C53.2301 105.96 51.6221 104.159 49.1619 104.159C46.7017 104.159 45.0937 105.96 45.0937 108.676C45.0937 111.375 46.7017 113.176 49.1619 113.176ZM49.1676 111.75C47.5596 111.75 46.8096 110.346 46.8096 108.67C46.8096 107 47.5596 105.579 49.1676 105.579C50.7642 105.579 51.5142 107 51.5142 108.67C51.5142 110.346 50.7642 111.75 49.1676 111.75Z" fill="#00559B"/>
<path d="M55.1264 113H56.8253V107.619C56.8253 106.443 57.6491 105.625 58.615 105.625C59.5582 105.625 60.2116 106.25 60.2116 107.199V113H61.9048V107.437C61.9048 106.386 62.5469 105.625 63.6548 105.625C64.5525 105.625 65.2912 106.125 65.2912 107.307V113H66.99V107.147C66.99 105.153 65.8764 104.159 64.2969 104.159C63.0412 104.159 62.098 104.761 61.6775 105.693H61.5866C61.2059 104.738 60.4048 104.159 59.24 104.159C58.0866 104.159 57.2287 104.733 56.865 105.693H56.7571V104.272H55.1264V113Z" fill="#00559B"/>
<path d="M74.7954 109.38C74.8011 110.863 73.6988 111.568 72.7443 111.568C71.6932 111.568 70.9659 110.807 70.9659 109.619V104.272H69.267V109.824C69.267 111.988 70.4545 113.113 72.1307 113.113C73.4432 113.113 74.3352 112.42 74.7386 111.488H74.8295V113H76.5V104.272H74.7954V109.38Z" fill="#00559B"/>
<path d="M80.4815 107.818C80.4815 106.426 81.3338 105.63 82.5156 105.63C83.669 105.63 84.3679 106.386 84.3679 107.653V113H86.0667V107.449C86.0667 105.29 84.8792 104.159 83.0952 104.159C81.7827 104.159 80.9247 104.767 80.5213 105.693H80.4133V104.272H78.7827V113H80.4815V107.818Z" fill="#00559B"/>
<path d="M88.3452 113H90.044V104.272H88.3452V113ZM89.2031 102.926C89.7883 102.926 90.277 102.471 90.277 101.915C90.277 101.358 89.7883 100.897 89.2031 100.897C88.6122 100.897 88.1292 101.358 88.1292 101.915C88.1292 102.471 88.6122 102.926 89.2031 102.926Z" fill="#00559B"/>
<path d="M96.0057 113.176C98.0682 113.176 99.4034 111.937 99.5909 110.238H97.9375C97.7216 111.182 96.9886 111.738 96.017 111.738C94.5795 111.738 93.6534 110.54 93.6534 108.636C93.6534 106.767 94.5966 105.591 96.017 105.591C97.0966 105.591 97.7557 106.272 97.9375 107.091H99.5909C99.4091 105.329 97.9716 104.159 95.9886 104.159C93.5284 104.159 91.9375 106.011 91.9375 108.676C91.9375 111.307 93.4716 113.176 96.0057 113.176Z" fill="#00559B"/>
<path d="M103.947 113.193C105.391 113.193 106.203 112.46 106.527 111.807H106.595V113H108.254V107.204C108.254 104.665 106.254 104.159 104.868 104.159C103.288 104.159 101.834 104.795 101.266 106.386L102.862 106.75C103.112 106.13 103.749 105.534 104.891 105.534C105.987 105.534 106.55 106.108 106.55 107.096V107.136C106.55 107.755 105.913 107.744 104.345 107.926C102.692 108.119 100.999 108.551 100.999 110.534C100.999 112.25 102.288 113.193 103.947 113.193ZM104.317 111.829C103.357 111.829 102.663 111.397 102.663 110.557C102.663 109.647 103.47 109.324 104.453 109.193C105.004 109.119 106.311 108.971 106.555 108.727V109.852C106.555 110.886 105.732 111.829 104.317 111.829Z" fill="#00559B"/>
<path d="M112.216 107.818C112.216 106.426 113.068 105.63 114.25 105.63C115.403 105.63 116.102 106.386 116.102 107.653V113H117.801V107.449C117.801 105.29 116.614 104.159 114.83 104.159C113.517 104.159 112.659 104.767 112.256 105.693H112.148V104.272H110.517V113H112.216V107.818Z" fill="#00559B"/>
<path d="M127.99 113.176C130.053 113.176 131.388 111.937 131.575 110.238H129.922C129.706 111.182 128.973 111.738 128.001 111.738C126.564 111.738 125.638 110.54 125.638 108.636C125.638 106.767 126.581 105.591 128.001 105.591C129.081 105.591 129.74 106.272 129.922 107.091H131.575C131.393 105.329 129.956 104.159 127.973 104.159C125.513 104.159 123.922 106.011 123.922 108.676C123.922 111.307 125.456 113.176 127.99 113.176Z" fill="#00559B"/>
<path d="M137.068 113.176C139.528 113.176 141.136 111.375 141.136 108.676C141.136 105.96 139.528 104.159 137.068 104.159C134.608 104.159 133 105.96 133 108.676C133 111.375 134.608 113.176 137.068 113.176ZM137.074 111.75C135.466 111.75 134.716 110.346 134.716 108.67C134.716 107 135.466 105.579 137.074 105.579C138.67 105.579 139.42 107 139.42 108.67C139.42 110.346 138.67 111.75 137.074 111.75Z" fill="#00559B"/>
<path d="M144.732 107.818C144.732 106.426 145.584 105.63 146.766 105.63C147.919 105.63 148.618 106.386 148.618 107.653V113H150.317V107.449C150.317 105.29 149.129 104.159 147.345 104.159C146.033 104.159 145.175 104.767 144.771 105.693H144.663V104.272H143.033V113H144.732V107.818Z" fill="#00559B"/>
<path d="M160.506 113.176C162.568 113.176 163.903 111.937 164.091 110.238H162.437C162.222 111.182 161.489 111.738 160.517 111.738C159.08 111.738 158.153 110.54 158.153 108.636C158.153 106.767 159.097 105.591 160.517 105.591C161.597 105.591 162.256 106.272 162.437 107.091H164.091C163.909 105.329 162.472 104.159 160.489 104.159C158.028 104.159 156.437 106.011 156.437 108.676C156.437 111.307 157.972 113.176 160.506 113.176Z" fill="#00559B"/>
<path d="M168.447 113.193C169.891 113.193 170.703 112.46 171.027 111.807H171.095V113H172.754V107.204C172.754 104.665 170.754 104.159 169.368 104.159C167.788 104.159 166.334 104.795 165.766 106.386L167.362 106.75C167.612 106.13 168.249 105.534 169.391 105.534C170.487 105.534 171.05 106.108 171.05 107.096V107.136C171.05 107.755 170.413 107.744 168.845 107.926C167.192 108.119 165.499 108.551 165.499 110.534C165.499 112.25 166.788 113.193 168.447 113.193ZM168.817 111.829C167.857 111.829 167.163 111.397 167.163 110.557C167.163 109.647 167.97 109.324 168.953 109.193C169.504 109.119 170.811 108.971 171.055 108.727V109.852C171.055 110.886 170.232 111.829 168.817 111.829Z" fill="#00559B"/>
<path d="M178.284 113.17C179.875 113.17 180.5 112.199 180.807 111.642H180.949V113H182.608V101.363H180.909V105.687H180.807C180.5 105.147 179.92 104.159 178.295 104.159C176.187 104.159 174.636 105.824 174.636 108.653C174.636 111.477 176.165 113.17 178.284 113.17ZM178.659 111.721C177.142 111.721 176.352 110.386 176.352 108.636C176.352 106.903 177.125 105.602 178.659 105.602C180.142 105.602 180.937 106.812 180.937 108.636C180.937 110.471 180.125 111.721 178.659 111.721Z" fill="#00559B"/>
<path d="M187.572 113.193C189.016 113.193 189.828 112.46 190.152 111.807H190.22V113H191.879V107.204C191.879 104.665 189.879 104.159 188.493 104.159C186.913 104.159 185.459 104.795 184.891 106.386L186.487 106.75C186.737 106.13 187.374 105.534 188.516 105.534C189.612 105.534 190.175 106.108 190.175 107.096V107.136C190.175 107.755 189.538 107.744 187.97 107.926C186.317 108.119 184.624 108.551 184.624 110.534C184.624 112.25 185.913 113.193 187.572 113.193ZM187.942 111.829C186.982 111.829 186.288 111.397 186.288 110.557C186.288 109.647 187.095 109.324 188.078 109.193C188.629 109.119 189.936 108.971 190.18 108.727V109.852C190.18 110.886 189.357 111.829 187.942 111.829Z" fill="#00559B"/>
<path d="M19.4545 140.272H21.1534V135.642H21.2557C21.5625 136.199 22.1875 137.17 23.7784 137.17C25.892 137.17 27.4261 135.477 27.4261 132.653C27.4261 129.824 25.8693 128.159 23.7613 128.159C22.142 128.159 21.5568 129.147 21.2557 129.687H21.1136V128.272H19.4545V140.272ZM21.1193 132.636C21.1193 130.812 21.9148 129.602 23.3977 129.602C24.9375 129.602 25.7102 130.903 25.7102 132.636C25.7102 134.386 24.9148 135.721 23.3977 135.721C21.9375 135.721 21.1193 134.471 21.1193 132.636Z" fill="#00559B"/>
<path d="M31.8693 137.193C33.3125 137.193 34.125 136.46 34.4488 135.807H34.517V137H36.1761V131.204C36.1761 128.665 34.1761 128.159 32.7898 128.159C31.2102 128.159 29.7557 128.795 29.1875 130.386L30.7841 130.75C31.0341 130.13 31.6704 129.534 32.8125 129.534C33.9091 129.534 34.4716 130.108 34.4716 131.096V131.136C34.4716 131.755 33.8352 131.744 32.267 131.926C30.6136 132.119 28.9204 132.551 28.9204 134.534C28.9204 136.25 30.2102 137.193 31.8693 137.193ZM32.2386 135.829C31.2784 135.829 30.5852 135.397 30.5852 134.557C30.5852 133.647 31.392 133.324 32.375 133.193C32.9261 133.119 34.2329 132.971 34.4773 132.727V133.852C34.4773 134.886 33.6534 135.829 32.2386 135.829Z" fill="#00559B"/>
<path d="M38.4389 137H40.1378V131.67C40.1378 130.528 41.0184 129.704 42.223 129.704C42.5753 129.704 42.973 129.767 43.1094 129.807V128.182C42.9389 128.159 42.6037 128.142 42.3878 128.142C41.365 128.142 40.49 128.721 40.1719 129.659H40.0809V128.272H38.4389V137Z" fill="#00559B"/>
<path d="M49.169 128.272H47.3792V126.182H45.6804V128.272H44.402V129.636H45.6804V134.79C45.6747 136.375 46.8849 137.142 48.2258 137.113C48.7656 137.108 49.1292 137.005 49.3281 136.932L49.0213 135.528C48.9077 135.551 48.6974 135.602 48.4247 135.602C47.8736 135.602 47.3792 135.42 47.3792 134.437V129.636H49.169V128.272Z" fill="#00559B"/>
<path d="M51.0483 137H52.7471V128.272H51.0483V137ZM51.9062 126.926C52.4915 126.926 52.9801 126.471 52.9801 125.915C52.9801 125.358 52.4915 124.897 51.9062 124.897C51.3153 124.897 50.8324 125.358 50.8324 125.915C50.8324 126.471 51.3153 126.926 51.9062 126.926Z" fill="#00559B"/>
<path d="M58.7088 137.176C60.7713 137.176 62.1065 135.937 62.294 134.238H60.6406C60.4247 135.182 59.6917 135.738 58.7202 135.738C57.2827 135.738 56.3565 134.54 56.3565 132.636C56.3565 130.767 57.2997 129.591 58.7202 129.591C59.7997 129.591 60.4588 130.272 60.6406 131.091H62.294C62.1122 129.329 60.6747 128.159 58.6917 128.159C56.2315 128.159 54.6406 130.011 54.6406 132.676C54.6406 135.307 56.1747 137.176 58.7088 137.176Z" fill="#00559B"/>
<path d="M64.1108 137H65.8096V128.272H64.1108V137ZM64.9687 126.926C65.554 126.926 66.0426 126.471 66.0426 125.915C66.0426 125.358 65.554 124.897 64.9687 124.897C64.3778 124.897 63.8949 125.358 63.8949 125.915C63.8949 126.471 64.3778 126.926 64.9687 126.926Z" fill="#00559B"/>
<path d="M68.0952 140.272H69.794V135.642H69.8963C70.2031 136.199 70.8281 137.17 72.419 137.17C74.5327 137.17 76.0667 135.477 76.0667 132.653C76.0667 129.824 74.5099 128.159 72.402 128.159C70.7827 128.159 70.1974 129.147 69.8963 129.687H69.7542V128.272H68.0952V140.272ZM69.7599 132.636C69.7599 130.812 70.5554 129.602 72.0383 129.602C73.5781 129.602 74.3508 130.903 74.3508 132.636C74.3508 134.386 73.5554 135.721 72.0383 135.721C70.5781 135.721 69.7599 134.471 69.7599 132.636Z" fill="#00559B"/>
<path d="M80.5099 137.193C81.9531 137.193 82.7656 136.46 83.0895 135.807H83.1577V137H84.8167V131.204C84.8167 128.665 82.8167 128.159 81.4304 128.159C79.8508 128.159 78.3963 128.795 77.8281 130.386L79.4247 130.75C79.6747 130.13 80.3111 129.534 81.4531 129.534C82.5497 129.534 83.1122 130.108 83.1122 131.096V131.136C83.1122 131.755 82.4758 131.744 80.9077 131.926C79.2542 132.119 77.5611 132.551 77.5611 134.534C77.5611 136.25 78.8508 137.193 80.5099 137.193ZM80.8792 135.829C79.919 135.829 79.2258 135.397 79.2258 134.557C79.2258 133.647 80.0327 133.324 81.0156 133.193C81.5667 133.119 82.8736 132.971 83.1179 132.727V133.852C83.1179 134.886 82.294 135.829 80.8792 135.829Z" fill="#00559B"/>
<path d="M88.7784 131.818C88.7784 130.426 89.6307 129.63 90.8125 129.63C91.9659 129.63 92.6648 130.386 92.6648 131.653V137H94.3636V131.449C94.3636 129.29 93.1761 128.159 91.392 128.159C90.0795 128.159 89.2216 128.767 88.8182 129.693H88.7102V128.272H87.0795V137H88.7784V131.818Z" fill="#00559B"/>
<path d="M100.716 128.272H98.9261V126.182H97.2273V128.272H95.9488V129.636H97.2273V134.79C97.2216 136.375 98.4318 137.142 99.7727 137.113C100.312 137.108 100.676 137.005 100.875 136.932L100.568 135.528C100.455 135.551 100.244 135.602 99.9716 135.602C99.4204 135.602 98.9261 135.42 98.9261 134.437V129.636H100.716V128.272Z" fill="#00559B"/>
<path d="M106.263 137.176C108.166 137.176 109.513 136.238 109.899 134.818L108.291 134.528C107.984 135.352 107.246 135.772 106.28 135.772C104.825 135.772 103.848 134.829 103.803 133.147H110.007V132.545C110.007 129.392 108.121 128.159 106.143 128.159C103.712 128.159 102.109 130.011 102.109 132.693C102.109 135.403 103.689 137.176 106.263 137.176ZM103.808 131.875C103.876 130.636 104.774 129.562 106.155 129.562C107.473 129.562 108.337 130.54 108.342 131.875H103.808Z" fill="#00559B"/>
<path d="M121.547 133.284C121.553 134.454 120.751 135.068 119.882 135.068C118.967 135.068 118.376 134.426 118.371 133.397V128.272H115.95V133.829C115.956 135.869 117.149 137.113 118.905 137.113C120.217 137.113 121.16 136.437 121.553 135.415H121.643V137H123.967V128.272H121.547V133.284Z" fill="#00559B"/>
<path d="M128.324 131.954C128.33 130.829 129 130.17 129.977 130.17C130.949 130.17 131.534 130.807 131.528 131.875V137H133.949V131.443C133.949 129.409 132.756 128.159 130.937 128.159C129.642 128.159 128.705 128.795 128.312 129.812H128.21V128.272H125.903V137H128.324V131.954Z" fill="#00559B"/>
<path d="M138.345 137.165C139.635 137.165 140.47 136.602 140.896 135.79H140.964V137H143.26V131.113C143.26 129.034 141.499 128.159 139.555 128.159C137.464 128.159 136.089 129.159 135.754 130.75L137.993 130.932C138.158 130.352 138.675 129.926 139.544 129.926C140.368 129.926 140.839 130.341 140.839 131.057V131.091C140.839 131.653 140.243 131.727 138.726 131.875C136.999 132.034 135.447 132.613 135.447 134.562C135.447 136.29 136.68 137.165 138.345 137.165ZM139.038 135.494C138.294 135.494 137.76 135.147 137.76 134.483C137.76 133.801 138.322 133.466 139.175 133.346C139.703 133.272 140.567 133.147 140.857 132.954V133.88C140.857 134.795 140.101 135.494 139.038 135.494Z" fill="#00559B"/>
<path d="M156.977 128.272H154.415L152.608 134.517H152.517L150.705 128.272H148.148L151.199 137H153.926L156.977 128.272Z" fill="#00559B"/>
<path d="M161.896 137.17C164.055 137.17 165.51 136.119 165.851 134.5L163.612 134.352C163.368 135.017 162.743 135.363 161.936 135.363C160.726 135.363 159.959 134.562 159.959 133.261V133.255H165.902V132.591C165.902 129.625 164.107 128.159 161.8 128.159C159.232 128.159 157.567 129.983 157.567 132.676C157.567 135.443 159.209 137.17 161.896 137.17ZM159.959 131.755C160.01 130.761 160.766 129.966 161.839 129.966C162.891 129.966 163.618 130.716 163.624 131.755H159.959Z" fill="#00559B"/>
<path d="M167.436 137H174.771V135.068H170.612V135.005L174.624 129.846V128.272H167.584V130.204H171.709V130.267L167.436 135.557V137Z" fill="#00559B"/>
<path d="M182.814 137.165C184.104 137.165 184.939 136.602 185.365 135.79H185.433V137H187.729V131.113C187.729 129.034 185.967 128.159 184.024 128.159C181.933 128.159 180.558 129.159 180.223 130.75L182.462 130.932C182.626 130.352 183.143 129.926 184.013 129.926C184.837 129.926 185.308 130.341 185.308 131.057V131.091C185.308 131.653 184.712 131.727 183.195 131.875C181.467 132.034 179.916 132.613 179.916 134.562C179.916 136.29 181.149 137.165 182.814 137.165ZM183.507 135.494C182.763 135.494 182.229 135.147 182.229 134.483C182.229 133.801 182.791 133.466 183.643 133.346C184.172 133.272 185.035 133.147 185.325 132.954V133.88C185.325 134.795 184.57 135.494 183.507 135.494Z" fill="#00559B"/>
<path d="M192.027 125.363H189.607V137H192.027V125.363Z" fill="#00559B"/>
<path d="M32.892 161.165C34.1818 161.165 35.017 160.602 35.4432 159.79H35.5113V161H37.8068V155.113C37.8068 153.034 36.0454 152.159 34.1023 152.159C32.0113 152.159 30.6363 153.159 30.3011 154.75L32.5398 154.932C32.7045 154.352 33.2216 153.926 34.0909 153.926C34.9148 153.926 35.3863 154.341 35.3863 155.057V155.091C35.3863 155.653 34.7898 155.727 33.2727 155.875C31.5454 156.034 29.9943 156.613 29.9943 158.562C29.9943 160.29 31.2273 161.165 32.892 161.165ZM33.5852 159.494C32.8409 159.494 32.3068 159.147 32.3068 158.483C32.3068 157.801 32.8693 157.466 33.7216 157.346C34.25 157.272 35.1136 157.147 35.4034 156.954V157.88C35.4034 158.795 34.6477 159.494 33.5852 159.494Z" fill="#00559B"/>
<path d="M42.1051 155.954C42.1108 154.829 42.7812 154.17 43.7585 154.17C44.7301 154.17 45.3153 154.807 45.3096 155.875V161H47.7301V155.443C47.7301 153.409 46.5369 152.159 44.7187 152.159C43.4233 152.159 42.4858 152.795 42.0937 153.812H41.9915V152.272H39.6846V161H42.1051V155.954ZM42.0767 151.199C42.0767 150.67 42.3381 150.335 42.7301 150.335C43.0312 150.335 43.2585 150.5 43.5085 150.687C43.8267 150.92 44.1903 151.193 44.8267 151.187C45.8551 151.182 46.6619 150.38 46.6733 148.943L45.3494 148.903C45.3437 149.426 45.1108 149.778 44.6733 149.784C44.3892 149.784 44.1506 149.619 43.8892 149.432C43.5483 149.199 43.1676 148.926 42.5767 148.932C41.5426 148.937 40.7301 149.738 40.7301 151.182L42.0767 151.199Z" fill="#00559B"/>
<path d="M53.5809 161.17C56.2287 161.17 57.8764 159.358 57.8764 156.67C57.8764 153.966 56.2287 152.159 53.5809 152.159C50.9332 152.159 49.2855 153.966 49.2855 156.67C49.2855 159.358 50.9332 161.17 53.5809 161.17ZM53.5923 159.295C52.3707 159.295 51.7457 158.176 51.7457 156.653C51.7457 155.13 52.3707 154.005 53.5923 154.005C54.7912 154.005 55.4162 155.13 55.4162 156.653C55.4162 158.176 54.7912 159.295 53.5923 159.295Z" fill="#00559B"/>
<path d="M67.0966 161.17C69.7443 161.17 71.392 159.358 71.392 156.67C71.392 153.966 69.7443 152.159 67.0966 152.159C64.4488 152.159 62.8011 153.966 62.8011 156.67C62.8011 159.358 64.4488 161.17 67.0966 161.17ZM67.1079 159.295C65.8863 159.295 65.2613 158.176 65.2613 156.653C65.2613 155.13 65.8863 154.005 67.1079 154.005C68.3068 154.005 68.9318 155.13 68.9318 156.653C68.9318 158.176 68.3068 159.295 67.1079 159.295Z" fill="#00559B"/>
<path d="M80.6122 161.17C82.9361 161.17 84.3963 159.807 84.5099 157.801H82.2258C82.0838 158.733 81.4702 159.255 80.6406 159.255C79.5099 159.255 78.777 158.307 78.777 156.636C78.777 154.988 79.5156 154.045 80.6406 154.045C81.527 154.045 82.0952 154.63 82.2258 155.5H84.5099C84.4077 153.483 82.8792 152.159 80.6008 152.159C77.9531 152.159 76.3167 153.994 76.3167 156.67C76.3167 159.324 77.9247 161.17 80.6122 161.17Z" fill="#00559B"/>
<path d="M88.5483 161.165C89.8381 161.165 90.6733 160.602 91.0994 159.79H91.1676V161H93.4631V155.113C93.4631 153.034 91.7017 152.159 89.7585 152.159C87.6676 152.159 86.2926 153.159 85.9574 154.75L88.196 154.932C88.3608 154.352 88.8778 153.926 89.7471 153.926C90.571 153.926 91.0426 154.341 91.0426 155.057V155.091C91.0426 155.653 90.446 155.727 88.929 155.875C87.2017 156.034 85.6506 156.613 85.6506 158.562C85.6506 160.29 86.8835 161.165 88.5483 161.165ZM89.2415 159.494C88.4971 159.494 87.9631 159.147 87.9631 158.483C87.9631 157.801 88.5256 157.466 89.3778 157.346C89.9062 157.272 90.7699 157.147 91.0596 156.954V157.88C91.0596 158.795 90.304 159.494 89.2415 159.494Z" fill="#00559B"/>
<path d="M98.5568 161.142C99.9659 161.142 100.699 160.329 101.034 159.602H101.136V161H103.523V149.363H101.108V153.738H101.034C100.71 153.028 100.011 152.159 98.5511 152.159C96.6364 152.159 95.017 153.647 95.017 156.647C95.017 159.568 96.5682 161.142 98.5568 161.142ZM99.3239 159.216C98.1364 159.216 97.4886 158.159 97.4886 156.636C97.4886 155.125 98.125 154.085 99.3239 154.085C100.5 154.085 101.159 155.079 101.159 156.636C101.159 158.193 100.489 159.216 99.3239 159.216Z" fill="#00559B"/>
<path d="M108.001 161.165C109.291 161.165 110.126 160.602 110.553 159.79H110.621V161H112.916V155.113C112.916 153.034 111.155 152.159 109.212 152.159C107.121 152.159 105.746 153.159 105.41 154.75L107.649 154.932C107.814 154.352 108.331 153.926 109.2 153.926C110.024 153.926 110.496 154.341 110.496 155.057V155.091C110.496 155.653 109.899 155.727 108.382 155.875C106.655 156.034 105.104 156.613 105.104 158.562C105.104 160.29 106.337 161.165 108.001 161.165ZM108.695 159.494C107.95 159.494 107.416 159.147 107.416 158.483C107.416 157.801 107.979 157.466 108.831 157.346C109.359 157.272 110.223 157.147 110.513 156.954V157.88C110.513 158.795 109.757 159.494 108.695 159.494Z" fill="#00559B"/>
<path d="M121.713 161.142C123.122 161.142 123.855 160.329 124.19 159.602H124.293V161H126.679V149.363H124.264V153.738H124.19C123.866 153.028 123.168 152.159 121.707 152.159C119.793 152.159 118.173 153.647 118.173 156.647C118.173 159.568 119.724 161.142 121.713 161.142ZM122.48 159.216C121.293 159.216 120.645 158.159 120.645 156.636C120.645 155.125 121.281 154.085 122.48 154.085C123.656 154.085 124.315 155.079 124.315 156.636C124.315 158.193 123.645 159.216 122.48 159.216Z" fill="#00559B"/>
<path d="M132.612 161.17C135.26 161.17 136.908 159.358 136.908 156.67C136.908 153.966 135.26 152.159 132.612 152.159C129.964 152.159 128.317 153.966 128.317 156.67C128.317 159.358 129.964 161.17 132.612 161.17ZM132.624 159.295C131.402 159.295 130.777 158.176 130.777 156.653C130.777 155.13 131.402 154.005 132.624 154.005C133.822 154.005 134.447 155.13 134.447 156.653C134.447 158.176 133.822 159.295 132.624 159.295Z" fill="#00559B"/>
<path d="M145.743 154.761C145.527 153.153 144.232 152.159 142.027 152.159C139.794 152.159 138.322 153.193 138.328 154.875C138.322 156.182 139.146 157.028 140.851 157.369L142.362 157.67C143.124 157.824 143.47 158.102 143.482 158.54C143.47 159.057 142.908 159.426 142.061 159.426C141.197 159.426 140.624 159.057 140.476 158.346L138.095 158.471C138.322 160.142 139.743 161.17 142.055 161.17C144.317 161.17 145.936 160.017 145.942 158.295C145.936 157.034 145.112 156.278 143.419 155.932L141.839 155.613C141.027 155.437 140.726 155.159 140.732 154.738C140.726 154.216 141.317 153.875 142.067 153.875C142.908 153.875 143.408 154.335 143.527 154.897L145.743 154.761Z" fill="#00559B"/>
<path d="M153.658 161.165C154.947 161.165 155.783 160.602 156.209 159.79H156.277V161H158.572V155.113C158.572 153.034 156.811 152.159 154.868 152.159C152.777 152.159 151.402 153.159 151.067 154.75L153.305 154.932C153.47 154.352 153.987 153.926 154.857 153.926C155.68 153.926 156.152 154.341 156.152 155.057V155.091C156.152 155.653 155.555 155.727 154.038 155.875C152.311 156.034 150.76 156.613 150.76 158.562C150.76 160.29 151.993 161.165 153.658 161.165ZM154.351 159.494C153.607 159.494 153.072 159.147 153.072 158.483C153.072 157.801 153.635 157.466 154.487 157.346C155.016 157.272 155.879 157.147 156.169 156.954V157.88C156.169 158.795 155.413 159.494 154.351 159.494Z" fill="#00559B"/>
<path d="M162.871 155.954C162.876 154.829 163.547 154.17 164.524 154.17C165.496 154.17 166.081 154.807 166.075 155.875V161H168.496V155.443C168.496 153.409 167.303 152.159 165.484 152.159C164.189 152.159 163.251 152.795 162.859 153.812H162.757V152.272H160.45V161H162.871V155.954ZM162.842 151.199C162.842 150.67 163.104 150.335 163.496 150.335C163.797 150.335 164.024 150.5 164.274 150.687C164.592 150.92 164.956 151.193 165.592 151.187C166.621 151.182 167.428 150.38 167.439 148.943L166.115 148.903C166.109 149.426 165.876 149.778 165.439 149.784C165.155 149.784 164.916 149.619 164.655 149.432C164.314 149.199 163.933 148.926 163.342 148.932C162.308 148.937 161.496 149.738 161.496 151.182L162.842 151.199Z" fill="#00559B"/>
<path d="M174.347 161.17C176.994 161.17 178.642 159.358 178.642 156.67C178.642 153.966 176.994 152.159 174.347 152.159C171.699 152.159 170.051 153.966 170.051 156.67C170.051 159.358 171.699 161.17 174.347 161.17ZM174.358 159.295C173.136 159.295 172.511 158.176 172.511 156.653C172.511 155.13 173.136 154.005 174.358 154.005C175.557 154.005 176.182 155.13 176.182 156.653C176.182 158.176 175.557 159.295 174.358 159.295Z" fill="#00559B"/>
<path d="M187.477 154.761C187.261 153.153 185.966 152.159 183.761 152.159C181.528 152.159 180.057 153.193 180.062 154.875C180.057 156.182 180.881 157.028 182.585 157.369L184.097 157.67C184.858 157.824 185.205 158.102 185.216 158.54C185.205 159.057 184.642 159.426 183.795 159.426C182.932 159.426 182.358 159.057 182.21 158.346L179.83 158.471C180.057 160.142 181.477 161.17 183.79 161.17C186.051 161.17 187.67 160.017 187.676 158.295C187.67 157.034 186.847 156.278 185.153 155.932L183.574 155.613C182.761 155.437 182.46 155.159 182.466 154.738C182.46 154.216 183.051 153.875 183.801 153.875C184.642 153.875 185.142 154.335 185.261 154.897L187.477 154.761Z" fill="#00559B"/>
<path d="M190.615 161.147C191.342 161.147 191.973 160.54 191.979 159.784C191.973 159.04 191.342 158.432 190.615 158.432C189.865 158.432 189.246 159.04 189.251 159.784C189.246 160.54 189.865 161.147 190.615 161.147Z" fill="#00559B"/>
</g>
<defs>
<linearGradient id="paint0_linear" x1="159.566" y1="233.022" x2="418.282" y2="243.431" gradientUnits="userSpaceOnUse">
<stop stop-color="#7AC142"/>
<stop offset="1" stop-color="#A3E56A"/>
</linearGradient>
<linearGradient id="paint1_linear" x1="226.491" y1="124.335" x2="226.491" y2="236.446" gradientUnits="userSpaceOnUse">
<stop stop-color="#A3E56A"/>
<stop offset="1" stop-color="#7AC142"/>
</linearGradient>
<linearGradient id="paint2_linear" x1="225.461" y1="72.0664" x2="225.461" y2="139.934" gradientUnits="userSpaceOnUse">
<stop stop-color="#0069AA"/>
<stop offset="1" stop-color="#045D95"/>
</linearGradient>
<linearGradient id="paint3_linear" x1="295.007" y1="143.432" x2="295.007" y2="180.391" gradientUnits="userSpaceOnUse">
<stop stop-color="#FF6A52"/>
<stop offset="1" stop-color="#EA5941"/>
</linearGradient>
<linearGradient id="paint4_linear" x1="295.15" y1="79.2676" x2="295.15" y2="147.135" gradientUnits="userSpaceOnUse">
<stop stop-color="#A3E56A"/>
<stop offset="1" stop-color="#7AC142"/>
</linearGradient>
<clipPath id="clip0">
<rect width="376" height="262" fill="white"/>
</clipPath>
</defs>
</svg>
