<svg width="361" height="351" viewBox="0 0 361 351" fill="none" xmlns="http://www.w3.org/2000/svg">
<path opacity="0.3" d="M331.361 350.837H53.6692C40.0248 350.837 29 339.822 29 326.189V323.299C29 309.667 40.0248 298.652 53.6692 298.652H331.361C345.006 298.652 356.031 309.667 356.031 323.299V326.189C356.031 339.822 345.006 350.837 331.361 350.837Z" fill="#7AC142"/>
<path d="M94.758 322.645C91.1131 322.645 88.0606 319.821 87.8328 316.177L80.5432 223.58C80.5432 217.295 85.6459 212.193 91.9332 212.193H97.6282C103.916 212.193 109.018 217.295 109.018 223.58L101.729 316.177C101.455 319.821 98.4483 322.645 94.758 322.645Z" fill="#EFC59E"/>
<path d="M157.13 147.015C150.797 147.015 145.603 141.868 145.603 135.492V128.204C145.603 121.873 150.751 116.681 157.13 116.681C163.463 116.681 168.656 121.827 168.656 128.204V135.492C168.656 141.868 163.508 147.015 157.13 147.015Z" fill="#DDAA7C"/>
<path d="M164.055 185.275L140.318 164.141C138.04 162.137 137.858 158.63 139.862 156.353C141.867 154.076 145.375 153.893 147.653 155.897L171.39 177.031C173.668 179.035 173.85 182.542 171.846 184.82C169.841 187.052 166.333 187.279 164.055 185.275Z" fill="#FC857A"/>
<path d="M182.005 216.11L182.188 222.122C182.233 224.172 180.548 225.811 178.543 225.72C176.584 225.629 175.035 223.944 175.171 221.985L175.582 215.29L182.005 216.11Z" fill="#E8BB8B"/>
<path d="M129.748 212.239L129.429 218.251C129.338 220.301 127.516 221.804 125.511 221.576C123.552 221.348 122.14 219.526 122.413 217.568L123.37 210.918L129.748 212.239Z" fill="#E8BB8B"/>
<path d="M181.823 179.991C184.511 180.219 186.47 182.587 186.151 185.229L182.461 216.52L175.582 215.973L176.812 184.5C176.812 181.813 179.135 179.763 181.823 179.991Z" fill="#FC857A"/>
<path d="M131.525 175.573C134.168 175.937 135.99 178.442 135.534 181.084L129.976 212.102L123.142 211.145L126.24 179.809C126.468 177.121 128.883 175.208 131.525 175.573Z" fill="#FC857A"/>
<path d="M174.215 210.964L174.716 316.861C174.67 319.685 172.347 321.962 169.522 321.962H168.155C165.422 321.962 163.144 319.821 162.961 317.089L158.36 235.013C158.36 234.694 158.086 234.466 157.767 234.466C157.449 234.466 157.175 234.739 157.175 235.058L155.125 317.134C155.079 319.958 152.756 322.235 149.931 322.235H148.018C145.284 322.235 143.006 320.095 142.824 317.362L140.5 212.194L174.215 210.964Z" fill="url(#paint0_linear)"/>
<path d="M185.65 181.13L178.224 158.22C176.037 153.802 171.572 151.024 166.652 150.978L147.927 150.933C142.642 150.933 137.904 154.075 135.899 158.949L126.559 178.352C125.511 180.857 126.741 183.727 129.247 184.729C131.753 185.776 134.623 184.546 135.626 182.041L139.726 175.391L140.045 213.15C140.09 215.245 141.776 216.885 143.872 216.885H170.525C172.62 216.885 174.306 215.245 174.352 213.15L174.762 178.99L176.949 185.412C178.133 187.826 181.094 188.828 183.509 187.644C185.833 186.505 186.835 183.59 185.65 181.13Z" fill="#FC857A"/>
<path d="M223.101 147.015C216.768 147.015 211.574 141.868 211.574 135.492V128.204C211.574 121.873 216.722 116.681 223.101 116.681C229.434 116.681 234.627 121.827 234.627 128.204V135.492C234.627 141.868 229.479 147.015 223.101 147.015Z" fill="#CE956E"/>
<path d="M230.026 185.275L206.289 164.141C204.011 162.137 203.829 158.63 205.833 156.353C207.838 154.076 211.346 153.893 213.624 155.897L237.361 177.031C239.639 179.035 239.821 182.542 237.817 184.82C235.812 187.052 232.304 187.279 230.026 185.275Z" fill="#FC857A"/>
<path d="M262.465 154.758L264.925 149.247C265.745 147.379 267.977 146.605 269.8 147.561C271.531 148.472 272.169 150.659 271.212 152.389L267.932 158.219L262.465 154.758Z" fill="#CE956E"/>
<path d="M195.264 214.562L193.942 220.437C193.487 222.441 191.436 223.626 189.523 223.034C187.609 222.487 186.562 220.437 187.154 218.57L189.204 212.193L195.264 214.562Z" fill="#CE956E"/>
<path d="M247.293 187.598C244.97 186.231 244.241 183.271 245.699 180.993L262.647 154.439L268.615 157.947L253.808 185.73C252.578 188.099 249.617 188.919 247.293 187.598Z" fill="#E5B01C"/>
<path d="M203.237 178.716C205.788 179.536 207.155 182.314 206.244 184.819L195.491 214.425L188.885 212.33L197.223 181.95C197.952 179.353 200.685 177.896 203.237 178.716Z" fill="#E5B01C"/>
<path d="M241.553 210.964L240.687 316.861C240.641 319.685 238.318 321.962 235.493 321.962H234.126C231.393 321.962 229.115 319.821 228.933 317.089L224.331 235.013C224.331 234.694 224.058 234.466 223.739 234.466C223.42 234.466 223.146 234.739 223.146 235.058L221.096 317.134C221.051 319.958 218.727 322.235 215.902 322.235H214.034C211.301 322.235 209.023 320.095 208.841 317.362L205.15 212.194L241.553 210.964Z" fill="#0069AA"/>
<path d="M253.626 180.174L241.416 158.22C239.229 153.802 234.764 151.024 229.844 150.978L216.586 150.933C211.301 150.933 206.107 154.075 204.102 158.949L197.359 180.538C196.311 183.043 197.542 185.913 200.047 186.915C202.553 187.962 205.423 186.733 206.426 184.228L207.428 180.265L202.781 222.533C202.827 224.628 204.512 226.268 206.608 226.268H239.639C241.735 226.268 243.421 224.628 243.466 222.533L238.819 174.526L244.833 184.501C246.018 186.915 248.979 187.917 251.394 186.733C253.854 185.548 254.856 182.588 253.626 180.174Z" fill="#E5B01C"/>
<path d="M220.868 120.37C218.408 120.826 216.176 122.648 214.945 124.925C213.806 127.111 213.396 129.616 213.351 132.076C213.305 134.262 213.305 136.767 213.943 138.817C215.538 143.736 218.226 148.473 218.271 153.802C215.948 154.303 213.943 155.806 211.893 156.99C209.843 158.174 207.291 159.04 205.059 158.266C207.929 155.76 207.565 149.748 207.519 146.287C207.474 141.869 206.972 137.451 207.155 133.078C207.382 127.84 208.02 122.01 212.166 118.412C215.948 115.087 220.321 114.54 225.105 114.449C224.604 114.449 223.784 119.96 223.693 120.507C222.736 120.188 221.825 120.188 220.868 120.37Z" fill="#01527A"/>
<path d="M233.124 119.323C233.58 119.915 233.99 120.598 234.308 121.327C236.222 125.608 237.315 130.254 237.224 134.945C237.088 140.092 236.951 145.33 238.865 150.249C239.502 151.843 240.322 153.392 240.368 155.077C240.368 154.622 234.217 154.804 233.625 154.849C231.666 155.031 231.393 155.806 229.935 156.899C229.251 153.711 229.434 150.067 229.752 146.833C230.208 142.005 231.393 137.223 231.119 132.349C230.983 130.072 230.436 127.794 229.479 125.745C228.295 123.285 226.609 122.875 224.65 121.418C224.513 121.281 224.331 121.144 224.285 121.008C224.194 120.826 224.24 120.598 224.285 120.416C224.604 118.822 225.06 117.273 225.607 115.77C225.652 115.633 225.698 115.497 225.834 115.406C226.062 115.223 226.381 115.269 226.654 115.36C229.342 116.134 231.575 117.319 233.124 119.323Z" fill="#01527A"/>
<path d="M152.483 114.267C151.799 114.176 151.116 114.13 150.387 114.222C149.84 114.313 149.294 114.449 148.929 114.814C148.565 115.178 148.337 115.816 148.656 116.271C147.243 116.18 145.239 116.863 145.512 118.64C145.558 118.867 145.649 119.141 145.603 119.368C145.512 119.778 145.148 120.006 144.829 120.279C143.826 121.145 143.599 122.557 143.553 123.878C143.553 124.379 143.553 124.925 143.781 125.381C144.829 127.294 153.804 121.6 155.626 120.962C159.043 119.778 163.007 119.414 166.424 120.917C165.331 118.139 162.05 117.364 159.545 116.453C158.087 115.907 156.674 115.542 155.216 114.996C154.305 114.723 153.394 114.449 152.483 114.267Z" fill="#473021"/>
<path d="M145.922 137.132C146.104 137.223 146.332 137.223 146.56 137.132C146.97 136.904 147.015 136.357 147.015 135.902C147.015 133.488 147.015 131.074 147.015 128.614C147.015 127.703 147.79 124.014 145.74 124.834C144.737 125.244 144.829 127.066 144.783 127.931C144.692 129.297 144.692 130.664 144.829 132.03C144.92 133.123 145.512 134.08 145.375 135.173C145.33 135.628 145.239 136.129 145.421 136.585C145.512 136.858 145.694 137.04 145.922 137.132Z" fill="#473021"/>
<path d="M166.47 118.002C167.244 118.503 167.7 119.323 168.019 120.188C168.019 120.689 168.429 121.418 168.52 121.919C168.657 122.557 168.748 123.194 168.793 123.877C168.884 125.153 168.884 126.428 168.884 127.703C168.93 130.345 169.158 132.85 169.021 135.492C169.021 135.856 168.975 136.312 168.657 136.494C168.292 136.722 167.745 136.448 167.563 136.084C167.381 135.674 167.381 135.219 167.426 134.763C167.654 130.117 166.287 125.426 163.554 121.691C162.87 120.735 161.002 118.275 162.87 117.637C163.918 117.228 165.558 117.455 166.47 118.002Z" fill="#473021"/>
<path d="M104.736 266.622H84.6893C82.8669 266.622 81.3634 265.21 81.2723 263.388L78.7209 223.17H110.704L108.153 263.388C108.062 265.21 106.558 266.622 104.736 266.622Z" fill="#0069AA"/>
<path d="M94.7581 152.39C88.4253 152.39 83.2314 147.243 83.2314 140.867V133.579C83.2314 127.248 88.3797 122.056 94.7581 122.056C101.091 122.056 106.285 127.202 106.285 133.579V140.867C106.285 147.198 101.137 152.39 94.7581 152.39Z" fill="#EFC59E"/>
<path d="M107.196 229.456H81.91C79.1764 229.456 76.8984 227.178 76.8984 224.446L80.5432 165.735C80.5432 159.45 85.646 154.349 91.9333 154.349H95.3503C101.638 154.349 106.74 159.45 106.74 165.735L112.207 224.446C112.207 227.224 109.929 229.456 107.196 229.456Z" fill="#7AC142"/>
<path d="M109.064 190.649L85.3271 169.515C83.0491 167.511 82.8668 164.004 84.8715 161.727C86.8761 159.45 90.3842 159.267 92.6622 161.271L116.399 182.405C118.677 184.409 118.859 187.916 116.855 190.194C114.85 192.471 111.342 192.653 109.064 190.649Z" fill="#86CC48"/>
<path d="M108.062 184.136L119.953 164.961L125.83 167.83L117.72 189.374C116.262 192.061 112.937 193.063 110.249 191.606C107.606 190.148 106.604 186.824 108.062 184.136Z" fill="#86CC48"/>
<path d="M119.907 165.007L121.73 159.268C122.367 157.309 124.463 156.307 126.377 157.036C128.199 157.765 129.11 159.86 128.336 161.682L125.739 167.876L119.907 165.007Z" fill="#EFC59E"/>
<path d="M88.2885 119.778C84.3703 120.735 80.9533 123.513 79.222 127.157C75.1216 135.72 80.6344 146.013 78.4475 155.214C77.7641 157.992 76.4429 160.588 75.6228 163.321C74.8483 166.054 74.666 169.242 76.2606 171.611C77.8552 173.979 81.6367 174.936 83.6413 172.886C84.6892 171.793 85.0081 170.244 85.2815 168.741C86.8761 159.541 87.7873 150.249 88.0607 140.912C88.1062 139.728 88.1518 138.498 88.7441 137.496C89.5641 136.13 91.2043 135.583 92.5711 134.854C95.9425 133.078 100.407 128.295 100.043 124.105C99.6329 119.414 92.0244 118.867 88.2885 119.778Z" fill="#CC473A"/>
<path d="M96.9905 122.237C100.863 121.463 105.1 123.968 106.239 127.748C102.822 128.705 98.904 126.245 98.2206 122.784" fill="#CC473A"/>
<path d="M340.292 107H210.708C202.037 107 195 99.9929 195 91.3592V60.6408C195 52.0071 202.037 45 210.708 45H340.292C348.963 45 356 52.0071 356 60.6408V91.3592C356 99.9929 348.9 107 340.292 107Z" fill="#D3E1EA"/>
<path d="M254.272 106.934C254.272 106.934 250.946 115.816 243.885 120.097C242.427 120.963 240.65 119.596 241.06 117.957C241.789 115.224 242.518 111.261 242.518 106.889H254.272V106.934Z" fill="#D3E1EA"/>
<path d="M29.8279 103H174.172C182.909 103 190 95.8871 190 87.123V55.877C190 47.1129 182.909 40 174.172 40H29.8279C21.0909 40 14 47.1129 14 55.877V87.123C14 95.8236 21.0909 103 29.8279 103Z" fill="#D3E1EA"/>
<path d="M120.181 102.182C120.181 102.182 116.855 111.064 109.793 115.345C108.335 116.211 106.558 114.844 106.968 113.205C107.697 110.472 108.426 106.509 108.426 102.137H120.181V102.182Z" fill="#D3E1EA"/>
<path d="M117.01 14.2727C117.01 8.5625 113.464 5.30682 108.837 5.30682C104.183 5.30682 100.663 8.5625 100.663 14.2727C100.663 19.9574 104.183 23.2386 108.837 23.2386C113.464 23.2386 117.01 19.983 117.01 14.2727ZM113.268 14.2727C113.268 17.9716 111.513 19.9744 108.837 19.9744C106.152 19.9744 104.405 17.9716 104.405 14.2727C104.405 10.5739 106.152 8.57102 108.837 8.57102C111.513 8.57102 113.268 10.5739 113.268 14.2727Z" fill="#002D44"/>
<path d="M119.675 23H123.306V15.5938C123.306 13.983 124.482 12.875 126.084 12.875C126.587 12.875 127.278 12.9602 127.619 13.071V9.84943C127.295 9.77273 126.843 9.72159 126.477 9.72159C125.011 9.72159 123.809 10.5739 123.332 12.1932H123.195V9.90909H119.675V23Z" fill="#002D44"/>
<path d="M129.496 23H133.126V9.90909H129.496V23ZM131.32 8.22159C132.402 8.22159 133.288 7.39489 133.288 6.38068C133.288 5.375 132.402 4.54829 131.32 4.54829C130.246 4.54829 129.359 5.375 129.359 6.38068C129.359 7.39489 130.246 8.22159 131.32 8.22159Z" fill="#002D44"/>
<path d="M141.933 28.1818C145.674 28.1818 148.333 26.4773 148.333 23.1278V9.90909H144.728V12.108H144.592C144.106 11.0426 143.04 9.73864 140.85 9.73864C137.978 9.73864 135.549 11.9716 135.549 16.429C135.549 20.7841 137.91 22.8125 140.859 22.8125C142.947 22.8125 144.114 21.7642 144.592 20.6818H144.745V23.0767C144.745 24.875 143.594 25.5739 142.018 25.5739C140.415 25.5739 139.606 24.875 139.308 24.0824L135.95 24.5341C136.384 26.5966 138.404 28.1818 141.933 28.1818ZM142.009 20.0852C140.228 20.0852 139.256 18.6705 139.256 16.4119C139.256 14.1875 140.211 12.6278 142.009 12.6278C143.773 12.6278 144.762 14.1193 144.762 16.4119C144.762 18.7216 143.756 20.0852 142.009 20.0852Z" fill="#002D44"/>
<path d="M157.188 23.2557C160.427 23.2557 162.609 21.679 163.12 19.25L159.762 19.0284C159.396 20.0256 158.458 20.5455 157.248 20.5455C155.433 20.5455 154.282 19.3438 154.282 17.392V17.3835H163.197V16.3864C163.197 11.9375 160.504 9.73864 157.043 9.73864C153.191 9.73864 150.694 12.4744 150.694 16.5142C150.694 20.6648 153.157 23.2557 157.188 23.2557ZM154.282 15.1335C154.359 13.642 155.492 12.4489 157.103 12.4489C158.68 12.4489 159.771 13.5739 159.779 15.1335H154.282Z" fill="#002D44"/>
<path d="M169.197 15.4318C169.205 13.7443 170.211 12.7557 171.677 12.7557C173.134 12.7557 174.012 13.7102 174.004 15.3125V23H177.634V14.6648C177.634 11.6136 175.844 9.73864 173.117 9.73864C171.174 9.73864 169.768 10.6932 169.18 12.2188H169.026V9.90909H165.566V23H169.197V15.4318Z" fill="#002D44"/>
<path d="M192.016 23.2557C195.255 23.2557 197.437 21.679 197.948 19.25L194.59 19.0284C194.224 20.0256 193.286 20.5455 192.076 20.5455C190.261 20.5455 189.11 19.3438 189.11 17.392V17.3835H198.025V16.3864C198.025 11.9375 195.332 9.73864 191.871 9.73864C188.019 9.73864 185.522 12.4744 185.522 16.5142C185.522 20.6648 187.985 23.2557 192.016 23.2557ZM189.11 15.1335C189.187 13.642 190.32 12.4489 191.931 12.4489C193.508 12.4489 194.599 13.5739 194.607 15.1335H189.11ZM190.482 8.22159H193.048L195.647 4.34375H192.289L190.482 8.22159Z" fill="#002D44"/>
<path d="M207.357 9.90909H204.894V6.77273H201.263V9.90909H199.474V12.6364H201.263V19.4545C201.246 22.0199 202.994 23.2898 205.627 23.179C206.565 23.1449 207.229 22.9574 207.596 22.8381L207.025 20.1364C206.846 20.1705 206.462 20.2557 206.121 20.2557C205.397 20.2557 204.894 19.983 204.894 18.9773V12.6364H207.357V9.90909Z" fill="#002D44"/>
<path d="M213.353 15.4318C213.361 13.7443 214.367 12.7557 215.833 12.7557C217.29 12.7557 218.168 13.7102 218.16 15.3125V23H221.79V14.6648C221.79 11.6136 220.001 9.73864 217.273 9.73864C215.33 9.73864 213.924 10.6932 213.336 12.2188H213.183V9.90909H209.722V23H213.353V15.4318Z" fill="#002D44"/>
<path d="M224.652 23H228.283V9.90909H224.652V23ZM226.476 8.22159C227.558 8.22159 228.445 7.39489 228.445 6.38068C228.445 5.375 227.558 4.54829 226.476 4.54829C225.402 4.54829 224.516 5.375 224.516 6.38068C224.516 7.39489 225.402 8.22159 226.476 8.22159Z" fill="#002D44"/>
<path d="M237.106 23.2557C240.592 23.2557 242.782 21.2102 242.952 18.2017H239.526C239.313 19.5994 238.393 20.3835 237.148 20.3835C235.452 20.3835 234.353 18.9602 234.353 16.4545C234.353 13.983 235.461 12.5682 237.148 12.5682C238.478 12.5682 239.33 13.446 239.526 14.75H242.952C242.799 11.7244 240.506 9.73864 237.089 9.73864C233.117 9.73864 230.663 12.4915 230.663 16.5057C230.663 20.4858 233.075 23.2557 237.106 23.2557Z" fill="#002D44"/>
<path d="M251.192 23.2557C255.163 23.2557 257.635 20.5369 257.635 16.5057C257.635 12.4489 255.163 9.73864 251.192 9.73864C247.22 9.73864 244.749 12.4489 244.749 16.5057C244.749 20.5369 247.22 23.2557 251.192 23.2557ZM251.209 20.4432C249.376 20.4432 248.439 18.7642 248.439 16.4801C248.439 14.196 249.376 12.5085 251.209 12.5085C253.007 12.5085 253.945 14.196 253.945 16.4801C253.945 18.7642 253.007 20.4432 251.209 20.4432Z" fill="#002D44"/>
<path d="M211.282 87.0001H223.725V83.983H216.396V83.8637L218.944 81.3666C222.532 78.0938 223.495 76.4575 223.495 74.4717C223.495 71.4461 221.023 69.3069 217.282 69.3069C213.617 69.3069 211.103 71.4972 211.111 74.9234H214.614C214.606 73.2529 215.663 72.2302 217.256 72.2302C218.79 72.2302 219.932 73.1847 219.932 74.7188C219.932 76.108 219.08 77.0626 217.495 78.5882L211.282 84.341V87.0001Z" fill="#002D44"/>
<path d="M233.243 87.3836C237.632 87.3836 240.283 84.0427 240.291 78.2899C240.3 72.5796 237.615 69.3069 233.243 69.3069C228.862 69.3069 226.203 72.5711 226.195 78.2899C226.178 84.0257 228.845 87.3751 233.243 87.3836ZM233.243 84.324C231.24 84.324 229.945 82.3126 229.953 78.2899C229.962 74.3268 231.249 72.3325 233.243 72.3325C235.229 72.3325 236.524 74.3268 236.524 78.2899C236.533 82.3126 235.237 84.324 233.243 84.324Z" fill="#002D44"/>
<path d="M252.477 83.7274C252.485 85.824 253.823 87.6052 256.32 87.6052C258.792 87.6052 260.173 85.824 260.164 83.7274V82.8069C260.173 80.6933 258.826 78.9291 256.32 78.9291C253.857 78.9291 252.485 80.7103 252.477 82.8069V83.7274ZM243.519 73.7387C243.528 75.8353 244.866 77.5995 247.354 77.5995C249.834 77.5995 251.215 75.8524 251.207 73.7387V72.8183C251.215 70.7046 249.869 68.9404 247.354 68.9404C244.917 68.9404 243.528 70.7046 243.519 72.8183V73.7387ZM244.354 87.0001H246.579L258.579 69.5455H256.354L244.354 87.0001ZM254.957 82.8069C254.965 81.9717 255.298 81.1109 256.32 81.1109C257.394 81.1109 257.675 81.9717 257.667 82.8069V83.7274C257.675 84.5626 257.36 85.4063 256.32 85.4063C255.281 85.4063 254.965 84.537 254.957 83.7274V82.8069ZM246.016 72.8183C246.025 72.0086 246.34 71.1222 247.354 71.1222C248.428 71.1222 248.718 71.983 248.709 72.8183V73.7387C248.718 74.574 248.394 75.4177 247.354 75.4177C246.349 75.4177 246.025 74.574 246.016 73.7387V72.8183Z" fill="#002D44"/>
<path d="M271.409 74H272.818V68.7955H279.023V74H280.432V62.3636H279.023V67.5455H272.818V62.3636H271.409V74Z" fill="#002D44"/>
<path d="M283.071 74H284.412V65.2727H283.071V74ZM283.753 63.8182C284.276 63.8182 284.707 63.4091 284.707 62.9091C284.707 62.4091 284.276 62 283.753 62C283.23 62 282.798 62.4091 282.798 62.9091C282.798 63.4091 283.23 63.8182 283.753 63.8182Z" fill="#002D44"/>
<path d="M293.05 67.2273C292.629 65.9886 291.686 65.1591 289.959 65.1591C288.118 65.1591 286.754 66.2045 286.754 67.6818C286.754 68.8864 287.47 69.6932 289.072 70.0682L290.527 70.4091C291.408 70.6136 291.822 71.0341 291.822 71.6364C291.822 72.3864 291.027 73 289.777 73C288.68 73 287.993 72.5284 287.754 71.5909L286.482 71.9091C286.794 73.392 288.016 74.1818 289.8 74.1818C291.828 74.1818 293.209 73.0739 293.209 71.5682C293.209 70.3523 292.447 69.5852 290.891 69.2045L289.595 68.8864C288.561 68.6307 288.095 68.2841 288.095 67.6136C288.095 66.8636 288.891 66.3182 289.959 66.3182C291.129 66.3182 291.612 66.9659 291.845 67.5682L293.05 67.2273Z" fill="#002D44"/>
<path d="M295.227 77.2727H296.568V72.6591H296.682C296.977 73.1364 297.545 74.1818 299.227 74.1818C301.409 74.1818 302.932 72.4318 302.932 69.6591C302.932 66.9091 301.409 65.1591 299.205 65.1591C297.5 65.1591 296.977 66.2045 296.682 66.6591H296.523V65.2727H295.227V77.2727ZM296.545 69.6364C296.545 67.6818 297.409 66.3636 299.045 66.3636C300.75 66.3636 301.591 67.7955 301.591 69.6364C301.591 71.5 300.727 72.9773 299.045 72.9773C297.432 72.9773 296.545 71.6136 296.545 69.6364Z" fill="#002D44"/>
<path d="M307.545 74.2045C309.068 74.2045 309.864 73.3864 310.136 72.8182H310.205V74H311.545V68.25C311.545 65.4773 309.432 65.1591 308.318 65.1591C307 65.1591 305.5 65.6136 304.818 67.2045L306.091 67.6591C306.386 67.0227 307.085 66.3409 308.364 66.3409C309.597 66.3409 310.205 66.9943 310.205 68.1136V68.1591C310.205 68.8068 309.545 68.75 307.955 68.9545C306.335 69.1648 304.568 69.5227 304.568 71.5227C304.568 73.2273 305.886 74.2045 307.545 74.2045ZM307.75 73C306.682 73 305.909 72.5227 305.909 71.5909C305.909 70.5682 306.841 70.25 307.886 70.1136C308.455 70.0455 309.977 69.8864 310.205 69.6136V70.8409C310.205 71.9318 309.341 73 307.75 73Z" fill="#002D44"/>
<path d="M315.334 68.75C315.334 67.2273 316.277 66.3636 317.561 66.3636C318.805 66.3636 319.561 67.1761 319.561 68.5455V74H320.902V68.4545C320.902 66.2273 319.714 65.1591 317.947 65.1591C316.629 65.1591 315.811 65.75 315.402 66.6364H315.288V65.2727H313.993V74H315.334V68.75Z" fill="#002D44"/>
<path d="M326.898 74.1818C329.261 74.1818 330.852 72.3864 330.852 69.6818C330.852 66.9545 329.261 65.1591 326.898 65.1591C324.534 65.1591 322.943 66.9545 322.943 69.6818C322.943 72.3864 324.534 74.1818 326.898 74.1818ZM326.898 72.9773C325.102 72.9773 324.284 71.4318 324.284 69.6818C324.284 67.9318 325.102 66.3636 326.898 66.3636C328.693 66.3636 329.511 67.9318 329.511 69.6818C329.511 71.4318 328.693 72.9773 326.898 72.9773Z" fill="#002D44"/>
<path d="M274.773 94.1818C277.136 94.1818 278.727 92.3864 278.727 89.6818C278.727 86.9545 277.136 85.1591 274.773 85.1591C272.409 85.1591 270.818 86.9545 270.818 89.6818C270.818 92.3864 272.409 94.1818 274.773 94.1818ZM274.773 92.9773C272.977 92.9773 272.159 91.4318 272.159 89.6818C272.159 87.9318 272.977 86.3636 274.773 86.3636C276.568 86.3636 277.386 87.9318 277.386 89.6818C277.386 91.4318 276.568 92.9773 274.773 92.9773Z" fill="#002D44"/>
<path d="M286.615 82.3636H285.274V94H286.615V82.3636Z" fill="#002D44"/>
<path d="M291.639 94.2045C293.162 94.2045 293.957 93.3864 294.23 92.8182H294.298V94H295.639V88.25C295.639 85.4773 293.526 85.1591 292.412 85.1591C291.094 85.1591 289.594 85.6136 288.912 87.2045L290.185 87.6591C290.48 87.0227 291.179 86.3409 292.457 86.3409C293.69 86.3409 294.298 86.9943 294.298 88.1136V88.1591C294.298 88.8068 293.639 88.75 292.048 88.9545C290.429 89.1648 288.662 89.5227 288.662 91.5227C288.662 93.2273 289.98 94.2045 291.639 94.2045ZM291.844 93C290.776 93 290.003 92.5227 290.003 91.5909C290.003 90.5682 290.935 90.25 291.98 90.1136C292.548 90.0455 294.071 89.8864 294.298 89.6136V90.8409C294.298 91.9318 293.435 93 291.844 93Z" fill="#002D44"/>
<path d="M301.882 85.2727H300.018V83.1818H298.678V85.2727H297.359V86.4091H298.678V91.8636C298.678 93.3864 299.905 94.1136 301.041 94.1136C301.541 94.1136 301.859 94.0227 302.041 93.9545L301.768 92.75C301.655 92.7727 301.473 92.8182 301.178 92.8182C300.587 92.8182 300.018 92.6364 300.018 91.5V86.4091H301.882V85.2727Z" fill="#002D44"/>
<path d="M303.899 94H305.24V85.2727H303.899V94ZM304.581 83.8182C305.104 83.8182 305.536 83.4091 305.536 82.9091C305.536 82.4091 305.104 82 304.581 82C304.058 82 303.626 82.4091 303.626 82.9091C303.626 83.4091 304.058 83.8182 304.581 83.8182Z" fill="#002D44"/>
<path d="M309.037 88.75C309.037 87.2273 309.98 86.3636 311.264 86.3636C312.509 86.3636 313.264 87.1761 313.264 88.5455V94H314.605V88.4545C314.605 86.2273 313.418 85.1591 311.651 85.1591C310.332 85.1591 309.514 85.75 309.105 86.6364H308.991V85.2727H307.696V94H309.037V88.75Z" fill="#002D44"/>
<path d="M320.601 94.1818C322.964 94.1818 324.555 92.3864 324.555 89.6818C324.555 86.9545 322.964 85.1591 320.601 85.1591C318.237 85.1591 316.646 86.9545 316.646 89.6818C316.646 92.3864 318.237 94.1818 320.601 94.1818ZM320.601 92.9773C318.805 92.9773 317.987 91.4318 317.987 89.6818C317.987 87.9318 318.805 86.3636 320.601 86.3636C322.396 86.3636 323.214 87.9318 323.214 89.6818C323.214 91.4318 322.396 92.9773 320.601 92.9773Z" fill="#002D44"/>
<path d="M33.4183 80.2387C37.3558 80.2387 40.1854 78.1336 40.1939 75.3041C40.1854 73.1222 38.5064 71.341 36.4098 70.9916V70.8722C38.2337 70.4972 39.5376 68.9205 39.5462 67.0029C39.5376 64.3012 36.9467 62.3069 33.4183 62.3069C29.8814 62.3069 27.2905 64.3012 27.299 67.0029C27.2905 68.912 28.5774 70.4972 30.4354 70.8722V70.9916C28.3047 71.341 26.6428 73.1222 26.6513 75.3041C26.6428 78.1336 29.4808 80.2387 33.4183 80.2387ZM33.4183 77.5285C31.6626 77.5285 30.4865 76.4887 30.4865 75.0143C30.4865 73.5058 31.7223 72.4149 33.4183 72.4149C35.1058 72.4149 36.3501 73.5058 36.3501 75.0143C36.3501 76.4972 35.1655 77.5285 33.4183 77.5285ZM33.4183 69.7302C31.9439 69.7302 30.8956 68.7671 30.8956 67.3865C30.8956 66.0228 31.9268 65.0853 33.4183 65.0853C34.9013 65.0853 35.9411 66.0313 35.9411 67.3865C35.9411 68.7671 34.8842 69.7302 33.4183 69.7302Z" fill="#002D44"/>
<path d="M49.6179 80.3836C54.0071 80.3836 56.6577 77.0427 56.6662 71.2899C56.6747 65.5796 53.9901 62.3069 49.6179 62.3069C45.2372 62.3069 42.5781 65.5711 42.5696 71.2899C42.5526 77.0257 45.2202 80.3751 49.6179 80.3836ZM49.6179 77.324C47.6151 77.324 46.3196 75.3126 46.3281 71.2899C46.3366 67.3268 47.6236 65.3325 49.6179 65.3325C51.6037 65.3325 52.8991 67.3268 52.8991 71.2899C52.9077 75.3126 51.6122 77.324 49.6179 77.324Z" fill="#002D44"/>
<path d="M68.8516 76.7274C68.8601 78.824 70.1982 80.6052 72.6953 80.6052C75.1669 80.6052 76.5476 78.824 76.5391 76.7274V75.8069C76.5476 73.6933 75.201 71.9291 72.6953 71.9291C70.2322 71.9291 68.8601 73.7103 68.8516 75.8069V76.7274ZM59.8942 66.7387C59.9027 68.8353 61.2408 70.5995 63.7294 70.5995C66.2095 70.5995 67.5902 68.8524 67.5817 66.7387V65.8183C67.5902 63.7046 66.2436 61.9404 63.7294 61.9404C61.2919 61.9404 59.9027 63.7046 59.8942 65.8183V66.7387ZM60.7294 80.0001H62.9538L74.9538 62.5455H72.7294L60.7294 80.0001ZM71.3317 75.8069C71.3402 74.9717 71.6726 74.1109 72.6953 74.1109C73.7692 74.1109 74.0504 74.9717 74.0419 75.8069V76.7274C74.0504 77.5626 73.7351 78.4063 72.6953 78.4063C71.6555 78.4063 71.3402 77.537 71.3317 76.7274V75.8069ZM62.3913 65.8183C62.3999 65.0086 62.7152 64.1222 63.7294 64.1222C64.8033 64.1222 65.093 64.983 65.0845 65.8183V66.7387C65.093 67.574 64.7692 68.4177 63.7294 68.4177C62.7237 68.4177 62.3999 67.574 62.3913 66.7387V65.8183Z" fill="#002D44"/>
<path d="M93.6364 55.3636H92.25V64.5227H92.1364L85.7727 55.3636H84.4091V67H85.8182V57.8636H85.9318L92.2727 67H93.6364V55.3636Z" fill="#002D44"/>
<path d="M96.2742 67H97.6151V58.2727H96.2742V67ZM96.956 56.8182C97.4787 56.8182 97.9105 56.4091 97.9105 55.9091C97.9105 55.4091 97.4787 55 96.956 55C96.4333 55 96.0014 55.4091 96.0014 55.9091C96.0014 56.4091 96.4333 56.8182 96.956 56.8182Z" fill="#002D44"/>
<path d="M105.912 61.75C105.912 60.2273 106.884 59.3636 108.207 59.3636C109.469 59.3636 110.23 60.1591 110.23 61.5455V67H111.571V61.4545C111.571 59.2102 110.378 58.1591 108.594 58.1591C107.219 58.1591 106.435 58.733 106.026 59.6364H105.912V55.3636H104.571V67H105.912V61.75Z" fill="#002D44"/>
<path d="M114.024 67H115.365V58.2727H114.024V67ZM114.706 56.8182C115.229 56.8182 115.661 56.4091 115.661 55.9091C115.661 55.4091 115.229 55 114.706 55C114.183 55 113.751 55.4091 113.751 55.9091C113.751 56.4091 114.183 56.8182 114.706 56.8182Z" fill="#002D44"/>
<path d="M124.003 60.2273C123.582 58.9886 122.639 58.1591 120.912 58.1591C119.071 58.1591 117.707 59.2045 117.707 60.6818C117.707 61.8864 118.423 62.6932 120.026 63.0682L121.48 63.4091C122.361 63.6136 122.776 64.0341 122.776 64.6364C122.776 65.3864 121.98 66 120.73 66C119.634 66 118.946 65.5284 118.707 64.5909L117.435 64.9091C117.747 66.392 118.969 67.1818 120.753 67.1818C122.781 67.1818 124.162 66.0739 124.162 64.5682C124.162 63.3523 123.401 62.5852 121.844 62.2045L120.548 61.8864C119.514 61.6307 119.048 61.2841 119.048 60.6136C119.048 59.8636 119.844 59.3182 120.912 59.3182C122.082 59.3182 122.565 59.9659 122.798 60.5682L124.003 60.2273Z" fill="#002D44"/>
<path d="M126.18 70.2727H127.521V65.6591H127.635C127.93 66.1364 128.499 67.1818 130.18 67.1818C132.362 67.1818 133.885 65.4318 133.885 62.6591C133.885 59.9091 132.362 58.1591 130.158 58.1591C128.453 58.1591 127.93 59.2045 127.635 59.6591H127.476V58.2727H126.18V70.2727ZM127.499 62.6364C127.499 60.6818 128.362 59.3636 129.999 59.3636C131.703 59.3636 132.544 60.7955 132.544 62.6364C132.544 64.5 131.68 65.9773 129.999 65.9773C128.385 65.9773 127.499 64.6136 127.499 62.6364Z" fill="#002D44"/>
<path d="M138.499 67.2045C140.021 67.2045 140.817 66.3864 141.09 65.8182H141.158V67H142.499V61.25C142.499 58.4773 140.385 58.1591 139.271 58.1591C137.953 58.1591 136.453 58.6136 135.771 60.2045L137.044 60.6591C137.34 60.0227 138.038 59.3409 139.317 59.3409C140.55 59.3409 141.158 59.9943 141.158 61.1136V61.1591C141.158 61.8068 140.499 61.75 138.908 61.9545C137.288 62.1648 135.521 62.5227 135.521 64.5227C135.521 66.2273 136.84 67.2045 138.499 67.2045ZM138.703 66C137.635 66 136.862 65.5227 136.862 64.5909C136.862 63.5682 137.794 63.25 138.84 63.1136C139.408 63.0455 140.93 62.8864 141.158 62.6136V63.8409C141.158 64.9318 140.294 66 138.703 66Z" fill="#002D44"/>
<path d="M146.287 61.75C146.287 60.2273 147.23 59.3636 148.514 59.3636C149.759 59.3636 150.514 60.1761 150.514 61.5455V67H151.855V61.4545C151.855 59.2273 150.668 58.1591 148.901 58.1591C147.582 58.1591 146.764 58.75 146.355 59.6364H146.242V58.2727H144.946V67H146.287V61.75Z" fill="#002D44"/>
<path d="M157.851 67.1818C160.215 67.1818 161.805 65.3864 161.805 62.6818C161.805 59.9545 160.215 58.1591 157.851 58.1591C155.487 58.1591 153.896 59.9545 153.896 62.6818C153.896 65.3864 155.487 67.1818 157.851 67.1818ZM157.851 65.9773C156.055 65.9773 155.237 64.4318 155.237 62.6818C155.237 60.9318 156.055 59.3636 157.851 59.3636C159.646 59.3636 160.465 60.9318 160.465 62.6818C160.465 64.4318 159.646 65.9773 157.851 65.9773Z" fill="#002D44"/>
<path d="M85.5682 81.75C85.5682 80.2273 86.5114 79.3636 87.7955 79.3636C89.0398 79.3636 89.7955 80.1761 89.7955 81.5455V87H91.1364V81.4545C91.1364 79.2273 89.9489 78.1591 88.1818 78.1591C86.8637 78.1591 86.0455 78.75 85.6364 79.6364H85.5227V78.2727H84.2273V87H85.5682V81.75Z" fill="#002D44"/>
<path d="M93.5867 87H94.9276V78.2727H93.5867V87ZM94.2685 76.8182C94.7912 76.8182 95.223 76.4091 95.223 75.9091C95.223 75.4091 94.7912 75 94.2685 75C93.7458 75 93.3139 75.4091 93.3139 75.9091C93.3139 76.4091 93.7458 76.8182 94.2685 76.8182Z" fill="#002D44"/>
<path d="M103.224 75.3636H101.884V87H103.224V75.3636Z" fill="#002D44"/>
<path d="M108.249 87.2045C109.771 87.2045 110.567 86.3864 110.84 85.8182H110.908V87H112.249V81.25C112.249 78.4773 110.135 78.1591 109.021 78.1591C107.703 78.1591 106.203 78.6136 105.521 80.2045L106.794 80.6591C107.09 80.0227 107.788 79.3409 109.067 79.3409C110.3 79.3409 110.908 79.9943 110.908 81.1136V81.1591C110.908 81.8068 110.249 81.75 108.658 81.9545C107.038 82.1648 105.271 82.5227 105.271 84.5227C105.271 86.2273 106.59 87.2045 108.249 87.2045ZM108.453 86C107.385 86 106.612 85.5227 106.612 84.5909C106.612 83.5682 107.544 83.25 108.59 83.1136C109.158 83.0455 110.68 82.8864 110.908 82.6136V83.8409C110.908 84.9318 110.044 86 108.453 86Z" fill="#002D44"/>
<path d="M118.492 78.2727H116.628V76.1818H115.287V78.2727H113.969V79.4091H115.287V84.8636C115.287 86.3864 116.514 87.1136 117.651 87.1136C118.151 87.1136 118.469 87.0227 118.651 86.9545L118.378 85.75C118.264 85.7727 118.082 85.8182 117.787 85.8182C117.196 85.8182 116.628 85.6364 116.628 84.5V79.4091H118.492V78.2727Z" fill="#002D44"/>
<path d="M120.509 87H121.849V78.2727H120.509V87ZM121.19 76.8182C121.713 76.8182 122.145 76.4091 122.145 75.9091C122.145 75.4091 121.713 75 121.19 75C120.668 75 120.236 75.4091 120.236 75.9091C120.236 76.4091 120.668 76.8182 121.19 76.8182Z" fill="#002D44"/>
<path d="M125.646 81.75C125.646 80.2273 126.59 79.3636 127.874 79.3636C129.118 79.3636 129.874 80.1761 129.874 81.5455V87H131.215V81.4545C131.215 79.2273 130.027 78.1591 128.26 78.1591C126.942 78.1591 126.124 78.75 125.715 79.6364H125.601V78.2727H124.305V87H125.646V81.75Z" fill="#002D44"/>
<path d="M137.21 87.1818C139.574 87.1818 141.165 85.3864 141.165 82.6818C141.165 79.9545 139.574 78.1591 137.21 78.1591C134.847 78.1591 133.256 79.9545 133.256 82.6818C133.256 85.3864 134.847 87.1818 137.21 87.1818ZM137.21 85.9773C135.415 85.9773 134.597 84.4318 134.597 82.6818C134.597 80.9318 135.415 79.3636 137.21 79.3636C139.006 79.3636 139.824 80.9318 139.824 82.6818C139.824 84.4318 139.006 85.9773 137.21 85.9773Z" fill="#002D44"/>
<defs>
<linearGradient id="paint0_linear" x1="157.631" y1="210.961" x2="157.631" y2="322.282" gradientUnits="userSpaceOnUse">
<stop stop-color="#0069AA"/>
<stop offset="1" stop-color="#3BA6D7"/>
</linearGradient>
</defs>
</svg>
