<svg width="397" height="332" viewBox="0 0 397 332" fill="none" xmlns="http://www.w3.org/2000/svg">
<g clip-path="url(#clip0)">
<path opacity="0.3" d="M545.76 267H88.2404C59.9598 267 37 244.148 37 216C37 187.852 59.9598 165 88.2404 165H545.76C574.04 165 597 187.852 597 216C597 244.148 574.113 267 545.76 267Z" fill="#7AC142"/>
<path fill-rule="evenodd" clip-rule="evenodd" d="M96.287 77.7451C96.287 73.8624 93.1395 70.7148 89.2568 70.7148C85.3741 70.7148 82.2266 73.8624 82.2266 77.7451V104.225H70.0409V90.8674C70.0409 88.279 67.9425 86.1806 65.3541 86.1806C62.7656 86.1806 60.6672 88.279 60.6672 90.8674V104.225C60.6672 109.402 64.864 113.599 70.0409 113.599H82.2266V177.106C82.2266 180.988 85.3741 184.136 89.2568 184.136C93.1395 184.136 96.287 180.988 96.287 177.106V141.251H105.192C110.369 141.251 114.566 137.054 114.566 131.877V101.647C114.566 99.0589 112.467 96.9605 109.879 96.9605C107.29 96.9605 105.192 99.0589 105.192 101.647V131.877H96.287V77.7451Z" fill="#5E9A2E"/>
<path fill-rule="evenodd" clip-rule="evenodd" d="M275.767 91.1567C278.404 92.2296 279.673 95.2374 278.6 97.8748C274.857 107.077 270.842 117.036 268.718 129.985C266.599 142.903 266.337 159.003 270.45 180.253C270.991 183.048 269.163 185.753 266.368 186.294C263.572 186.835 260.868 185.007 260.327 182.212C256.003 159.875 256.21 142.542 258.543 128.316C260.872 114.12 265.293 103.222 269.049 93.9897C270.122 91.3522 273.13 90.0839 275.767 91.1567Z" fill="#BF7B43"/>
<path d="M247.997 85.5464C243.406 80.1002 241.879 72.2755 241.751 65.9224C241.659 61.3566 245.584 57.9926 250.068 58.8593C255.949 59.9961 263.117 62.761 268.065 68.6302C272.928 74.3999 274.603 81.9315 274.908 88.0296C275.148 92.8351 270.942 96.3327 266.244 95.2909C259.931 93.8908 252.511 90.9012 247.997 85.5464Z" fill="#7BC043"/>
<path d="M272.938 67.0161C275.441 60.3388 281.517 55.1674 286.995 51.9383C290.934 49.6166 295.795 51.3945 297.233 55.7347C299.117 61.4254 300.211 69.0358 297.513 76.2316C294.86 83.3055 289.112 88.4614 283.943 91.7198C279.868 94.2885 274.753 92.3311 273.363 87.7188C271.497 81.5221 270.476 73.5815 272.938 67.0161Z" fill="#7BC043"/>
<path d="M300.381 81.4074C307.471 80.8876 314.69 84.2478 319.898 87.8756C323.638 90.4809 324.057 95.6231 320.735 98.7436C316.373 102.84 309.941 107.023 302.3 107.583C294.788 108.134 287.72 105.065 282.615 101.73C278.593 99.1038 278.231 93.6563 281.82 90.4654C286.648 86.1743 293.409 81.9185 300.381 81.4074Z" fill="#80CE3B"/>
<path d="M252.648 88.4775C258.811 87.064 265.524 88.6277 270.752 90.8194C275.177 92.6742 276.446 97.9964 273.257 101.582C269.7 105.581 264.482 109.716 257.867 111.234C251.381 112.721 244.846 111.396 239.761 109.451C235.046 107.648 233.792 102.006 237.232 98.3118C241.157 94.098 246.603 89.8638 252.648 88.4775Z" fill="#80CE3B"/>
<path d="M292.28 111.508C293.445 117.723 291.613 124.368 289.213 129.504C287.182 133.851 281.813 134.905 278.359 131.575C274.505 127.86 270.583 122.481 269.333 115.81C268.107 109.269 269.694 102.793 271.841 97.7902C273.832 93.151 279.52 92.1244 283.073 95.7108C287.126 99.8016 291.138 105.413 292.28 111.508Z" fill="#7BC043"/>
<path d="M176.695 184C179.544 184 181.833 181.703 181.833 178.844V113.172C181.833 110.313 179.544 108.016 176.695 108.016C173.846 108.016 171.557 110.313 171.557 113.172V178.844C171.557 181.656 173.846 184 176.695 184Z" fill="#A35B2B"/>
<path d="M171.324 139.891H176.695C177.583 139.891 178.33 139.141 178.33 138.25C178.33 137.359 177.583 136.609 176.695 136.609H171.324C164.177 136.609 158.339 130.75 158.339 123.578V121.75C158.339 120.859 157.592 120.109 156.704 120.109C155.817 120.109 155.069 120.859 155.069 121.75V123.578C155.069 132.578 162.356 139.891 171.324 139.891Z" fill="#A35B2B"/>
<path d="M138.068 83.2188H143.439V74.5938C143.439 65.4532 150.819 58 159.974 58H187.158C196.266 58 203.693 65.4063 203.693 74.5938H210.092C219.153 74.5938 226.533 82.0001 226.533 91.0938V94.1876C226.533 103.281 219.153 110.688 210.092 110.688C210.092 120.203 202.431 127.891 192.95 127.891H179.965H166.419H151.987C147.409 127.891 143.719 124.188 143.719 119.594H138.068C128.96 119.594 121.533 112.188 121.533 103V99.7657C121.533 90.6251 128.96 83.2188 138.068 83.2188Z" fill="#7AC142"/>
<path d="M153.098 226H165.542V222.983H158.212V222.864L160.76 220.367C164.348 217.094 165.311 215.457 165.311 213.472C165.311 210.446 162.84 208.307 159.098 208.307C155.434 208.307 152.919 210.497 152.928 213.923H156.431C156.422 212.253 157.479 211.23 159.073 211.23C160.607 211.23 161.749 212.185 161.749 213.719C161.749 215.108 160.897 216.063 159.311 217.588L153.098 223.341V226Z" fill="#004F7F"/>
<path d="M167.576 222.932H175.954V226H179.483V222.932H181.647V219.975H179.483V208.546H174.863L167.576 220.026V222.932ZM176.022 219.975H171.292V219.838L175.886 212.568H176.022V219.975Z" fill="#004F7F"/>
<path d="M193.66 222.727C193.669 224.824 195.007 226.605 197.504 226.605C199.976 226.605 201.356 224.824 201.348 222.727V221.807C201.356 219.693 200.01 217.929 197.504 217.929C195.041 217.929 193.669 219.71 193.66 221.807V222.727ZM184.703 212.739C184.711 214.835 186.049 216.6 188.538 216.6C191.018 216.6 192.399 214.852 192.39 212.739V211.818C192.399 209.705 191.052 207.94 188.538 207.94C186.101 207.94 184.711 209.705 184.703 211.818V212.739ZM185.538 226H187.762L199.762 208.546H197.538L185.538 226ZM196.14 221.807C196.149 220.972 196.481 220.111 197.504 220.111C198.578 220.111 198.859 220.972 198.851 221.807V222.727C198.859 223.563 198.544 224.406 197.504 224.406C196.464 224.406 196.149 223.537 196.14 222.727V221.807ZM187.2 211.818C187.208 211.009 187.524 210.122 188.538 210.122C189.612 210.122 189.902 210.983 189.893 211.818V212.739C189.902 213.574 189.578 214.418 188.538 214.418C187.532 214.418 187.208 213.574 187.2 212.739V211.818Z" fill="#004F7F"/>
<path d="M132.12 236.364V248H133.438V239.159H133.552L137.188 248H138.461L142.097 239.159H142.211V248H143.529V236.364H141.847L137.893 246.023H137.756L133.802 236.364H132.12Z" fill="#004F7F"/>
<path d="M149.832 248.182C151.604 248.182 152.9 247.295 153.309 245.977L152.014 245.614C151.673 246.523 150.883 246.977 149.832 246.977C148.258 246.977 147.173 245.96 147.11 244.091H153.445V243.523C153.445 240.273 151.514 239.159 149.695 239.159C147.332 239.159 145.764 241.023 145.764 243.705C145.764 246.386 147.309 248.182 149.832 248.182ZM147.11 242.932C147.201 241.574 148.161 240.364 149.695 240.364C151.15 240.364 152.082 241.455 152.082 242.932H147.11Z" fill="#004F7F"/>
<path d="M158.781 248.182C160.462 248.182 161.031 247.136 161.326 246.659H161.485V248H162.781V236.364H161.44V240.659H161.326C161.031 240.205 160.508 239.159 158.803 239.159C156.599 239.159 155.076 240.909 155.076 243.659C155.076 246.432 156.599 248.182 158.781 248.182ZM158.962 246.977C157.281 246.977 156.417 245.5 156.417 243.636C156.417 241.795 157.258 240.364 158.962 240.364C160.599 240.364 161.462 241.682 161.462 243.636C161.462 245.614 160.576 246.977 158.962 246.977Z" fill="#004F7F"/>
<path d="M165.423 248H166.764V239.273H165.423V248ZM166.104 237.818C166.627 237.818 167.059 237.409 167.059 236.909C167.059 236.409 166.627 236 166.104 236C165.582 236 165.15 236.409 165.15 236.909C165.15 237.409 165.582 237.818 166.104 237.818Z" fill="#004F7F"/>
<path d="M172.765 248.182C175.129 248.182 176.719 246.386 176.719 243.682C176.719 240.955 175.129 239.159 172.765 239.159C170.401 239.159 168.81 240.955 168.81 243.682C168.81 246.386 170.401 248.182 172.765 248.182ZM172.765 246.977C170.969 246.977 170.151 245.432 170.151 243.682C170.151 241.932 170.969 240.364 172.765 240.364C174.56 240.364 175.379 241.932 175.379 243.682C175.379 245.432 174.56 246.977 172.765 246.977Z" fill="#004F7F"/>
<path d="M186.812 248.182C189.175 248.182 190.766 246.386 190.766 243.682C190.766 240.955 189.175 239.159 186.812 239.159C184.448 239.159 182.857 240.955 182.857 243.682C182.857 246.386 184.448 248.182 186.812 248.182ZM186.812 246.977C185.016 246.977 184.198 245.432 184.198 243.682C184.198 241.932 185.016 240.364 186.812 240.364C188.607 240.364 189.425 241.932 189.425 243.682C189.425 245.432 188.607 246.977 186.812 246.977Z" fill="#004F7F"/>
<path d="M196.472 248.182C198.245 248.182 199.541 247.295 199.95 245.977L198.654 245.614C198.313 246.523 197.523 246.977 196.472 246.977C194.898 246.977 193.813 245.96 193.751 244.091H200.086V243.523C200.086 240.273 198.154 239.159 196.336 239.159C193.972 239.159 192.404 241.023 192.404 243.705C192.404 246.386 193.95 248.182 196.472 248.182ZM193.751 242.932C193.842 241.574 194.802 240.364 196.336 240.364C197.791 240.364 198.722 241.455 198.722 242.932H193.751Z" fill="#004F7F"/>
<path d="M208.308 241.227C207.887 239.989 206.944 239.159 205.217 239.159C203.376 239.159 202.012 240.205 202.012 241.682C202.012 242.886 202.728 243.693 204.33 244.068L205.785 244.409C206.666 244.614 207.08 245.034 207.08 245.636C207.08 246.386 206.285 247 205.035 247C203.938 247 203.251 246.528 203.012 245.591L201.739 245.909C202.052 247.392 203.273 248.182 205.058 248.182C207.086 248.182 208.467 247.074 208.467 245.568C208.467 244.352 207.705 243.585 206.148 243.205L204.853 242.886C203.819 242.631 203.353 242.284 203.353 241.614C203.353 240.864 204.148 240.318 205.217 240.318C206.387 240.318 206.87 240.966 207.103 241.568L208.308 241.227Z" fill="#004F7F"/>
<path d="M214.281 239.273H212.417V237.182H211.076V239.273H209.758V240.409H211.076V245.864C211.076 247.386 212.303 248.114 213.44 248.114C213.94 248.114 214.258 248.023 214.44 247.955L214.167 246.75C214.053 246.773 213.871 246.818 213.576 246.818C212.985 246.818 212.417 246.636 212.417 245.5V240.409H214.281V239.273Z" fill="#004F7F"/>
<path d="M219.863 248.182C221.636 248.182 222.931 247.295 223.34 245.977L222.045 245.614C221.704 246.523 220.914 246.977 219.863 246.977C218.289 246.977 217.204 245.96 217.141 244.091H223.477V243.523C223.477 240.273 221.545 239.159 219.727 239.159C217.363 239.159 215.795 241.023 215.795 243.705C215.795 246.386 217.34 248.182 219.863 248.182ZM217.141 242.932C217.232 241.574 218.193 240.364 219.727 240.364C221.181 240.364 222.113 241.455 222.113 242.932H217.141Z" fill="#004F7F"/>
<path fill-rule="evenodd" clip-rule="evenodd" d="M354.579 143.596C358.462 143.596 361.61 146.743 361.61 150.626V173.826C361.61 177.708 358.462 180.856 354.579 180.856C350.697 180.856 347.549 177.708 347.549 173.826V150.626C347.549 146.743 350.697 143.596 354.579 143.596Z" fill="#A35B2B"/>
<path fill-rule="evenodd" clip-rule="evenodd" d="M347.859 78.8824C350.782 72.8947 359.315 72.8947 362.237 78.8824L370.411 95.627C371.63 98.1244 370.565 100.933 368.391 102.173L376.156 116.934C377.511 119.511 376.371 122.488 374.043 123.703L386.816 149.248C388.478 152.572 386.06 156.484 382.343 156.484H327.753C324.036 156.484 321.618 152.572 323.281 149.248L336.053 123.703C333.725 122.488 332.585 119.511 333.94 116.934L341.705 102.173C339.531 100.933 338.466 98.1243 339.685 95.627L347.859 78.8824Z" fill="#249B29"/>
<path d="M0 310C0 297.85 9.84974 288 22 288H55C67.1503 288 77 297.85 77 310C77 322.15 67.1503 332 55 332H22C9.84973 332 0 322.15 0 310Z" fill="#CBE5C2"/>
<path d="M66.1335 226H78.5767V222.983H71.2472V222.864L73.7955 220.367C77.3835 217.094 78.3466 215.457 78.3466 213.472C78.3466 210.446 75.875 208.307 72.1335 208.307C68.4688 208.307 65.9546 210.497 65.9631 213.923H69.4659C69.4574 212.253 70.5142 211.23 72.108 211.23C73.6421 211.23 74.7841 212.185 74.7841 213.719C74.7841 215.108 73.9318 216.063 72.3466 217.588L66.1335 223.341V226Z" fill="#004F7F"/>
<path d="M87.7024 226.239C91.6229 226.239 94.4269 224.082 94.4184 221.1C94.4269 218.926 93.0462 217.375 90.4809 217.051V216.915C92.4326 216.565 93.7791 215.185 93.7706 213.225C93.7791 210.472 91.3672 208.307 87.7536 208.307C84.174 208.307 81.4809 210.403 81.4297 213.421H84.9666C85.0093 212.091 86.228 211.23 87.7365 211.23C89.228 211.23 90.2252 212.134 90.2166 213.446C90.2252 214.818 89.0576 215.747 87.3786 215.747H85.7507V218.457H87.3786C89.3559 218.457 90.5916 219.446 90.5831 220.852C90.5916 222.242 89.3985 223.196 87.711 223.196C86.0831 223.196 84.8644 222.344 84.7962 221.065H81.0803C81.1399 224.117 83.8672 226.239 87.7024 226.239Z" fill="#004F7F"/>
<path d="M106.625 222.727C106.634 224.824 107.972 226.605 110.469 226.605C112.94 226.605 114.321 224.824 114.313 222.727V221.807C114.321 219.693 112.974 217.929 110.469 217.929C108.006 217.929 106.634 219.71 106.625 221.807V222.727ZM97.6676 212.739C97.6762 214.835 99.0142 216.6 101.503 216.6C103.983 216.6 105.364 214.852 105.355 212.739V211.818C105.364 209.705 104.017 207.94 101.503 207.94C99.0654 207.94 97.6762 209.705 97.6676 211.818V212.739ZM98.5029 226H100.727L112.727 208.546H110.503L98.5029 226ZM109.105 221.807C109.114 220.972 109.446 220.111 110.469 220.111C111.543 220.111 111.824 220.972 111.815 221.807V222.727C111.824 223.563 111.509 224.406 110.469 224.406C109.429 224.406 109.114 223.537 109.105 222.727V221.807ZM100.165 211.818C100.173 211.009 100.489 210.122 101.503 210.122C102.577 210.122 102.867 210.983 102.858 211.818V212.739C102.867 213.574 102.543 214.418 101.503 214.418C100.497 214.418 100.173 213.574 100.165 212.739V211.818Z" fill="#004F7F"/>
<path d="M79.2819 242.181C79.2819 238.5 77.1229 236.204 74.1456 236.204C71.1683 236.204 69.0092 238.5 69.0092 242.181C69.0092 245.863 71.1683 248.159 74.1456 248.159C77.1229 248.159 79.2819 245.863 79.2819 242.181ZM77.9183 242.181C77.9183 245.204 76.2592 246.84 74.1456 246.84C72.0319 246.84 70.3729 245.204 70.3729 242.181C70.3729 239.159 72.0319 237.522 74.1456 237.522C76.2592 237.522 77.9183 239.159 77.9183 242.181Z" fill="#004F7F"/>
<path d="M85.1285 248.181C86.9013 248.181 88.1967 247.295 88.6058 245.977L87.3104 245.613C86.9694 246.522 86.1797 246.977 85.1285 246.977C83.5547 246.977 82.4694 245.96 82.4069 244.09H88.7422V243.522C88.7422 240.272 86.8104 239.159 84.9922 239.159C82.6285 239.159 81.0604 241.022 81.0604 243.704C81.0604 246.386 82.6058 248.181 85.1285 248.181ZM82.4069 242.931C82.4979 241.573 83.4581 240.363 84.9922 240.363C86.4467 240.363 87.3785 241.454 87.3785 242.931H82.4069Z" fill="#004F7F"/>
<path d="M96.9638 241.227C96.5433 239.988 95.6001 239.159 93.8729 239.159C92.0319 239.159 90.6683 240.204 90.6683 241.681C90.6683 242.886 91.3842 243.693 92.9865 244.068L94.441 244.409C95.3217 244.613 95.7365 245.034 95.7365 245.636C95.7365 246.386 94.941 247 93.691 247C92.5944 247 91.9069 246.528 91.6683 245.59L90.3956 245.909C90.7081 247.392 91.9297 248.181 93.7138 248.181C95.7422 248.181 97.1229 247.073 97.1229 245.568C97.1229 244.352 96.3615 243.585 94.8047 243.204L93.5092 242.886C92.4751 242.63 92.0092 242.284 92.0092 241.613C92.0092 240.863 92.8047 240.318 93.8729 240.318C95.0433 240.318 95.5263 240.965 95.7592 241.568L96.9638 241.227Z" fill="#004F7F"/>
<path d="M102.937 239.272H101.073V237.181H99.7322V239.272H98.414V240.409H99.7322V245.863C99.7322 247.386 100.959 248.113 102.096 248.113C102.596 248.113 102.914 248.022 103.096 247.954L102.823 246.75C102.709 246.772 102.528 246.818 102.232 246.818C101.641 246.818 101.073 246.636 101.073 245.5V240.409H102.937V239.272Z" fill="#004F7F"/>
<path d="M108.519 248.181C110.292 248.181 111.587 247.295 111.996 245.977L110.701 245.613C110.36 246.522 109.57 246.977 108.519 246.977C106.945 246.977 105.86 245.96 105.798 244.09H112.133V243.522C112.133 240.272 110.201 239.159 108.383 239.159C106.019 239.159 104.451 241.022 104.451 243.704C104.451 246.386 105.996 248.181 108.519 248.181ZM105.798 242.931C105.888 241.573 106.849 240.363 108.383 240.363C109.837 240.363 110.769 241.454 110.769 242.931H105.798Z" fill="#004F7F"/>
<path d="M252.21 229.239C256.131 229.239 258.935 227.082 258.926 224.1C258.935 221.926 257.554 220.375 254.989 220.051V219.915C256.94 219.565 258.287 218.185 258.278 216.225C258.287 213.472 255.875 211.307 252.261 211.307C248.682 211.307 245.989 213.403 245.938 216.421H249.474C249.517 215.091 250.736 214.23 252.244 214.23C253.736 214.23 254.733 215.134 254.724 216.446C254.733 217.818 253.565 218.747 251.886 218.747H250.259V221.457H251.886C253.864 221.457 255.099 222.446 255.091 223.852C255.099 225.242 253.906 226.196 252.219 226.196C250.591 226.196 249.372 225.344 249.304 224.065H245.588C245.648 227.117 248.375 229.239 252.21 229.239Z" fill="#004F7F"/>
<path d="M268.09 229.239C272.028 229.239 274.857 227.134 274.866 224.304C274.857 222.122 273.178 220.341 271.082 219.992V219.872C272.906 219.497 274.21 217.921 274.218 216.003C274.21 213.301 271.619 211.307 268.09 211.307C264.553 211.307 261.962 213.301 261.971 216.003C261.962 217.912 263.249 219.497 265.107 219.872V219.992C262.977 220.341 261.315 222.122 261.323 224.304C261.315 227.134 264.153 229.239 268.09 229.239ZM268.09 226.528C266.335 226.528 265.158 225.489 265.158 224.014C265.158 222.506 266.394 221.415 268.09 221.415C269.778 221.415 271.022 222.506 271.022 224.014C271.022 225.497 269.837 226.528 268.09 226.528ZM268.09 218.73C266.616 218.73 265.567 217.767 265.567 216.386C265.567 215.023 266.599 214.085 268.09 214.085C269.573 214.085 270.613 215.031 270.613 216.386C270.613 217.767 269.556 218.73 268.09 218.73Z" fill="#004F7F"/>
<path d="M287 225.727C287.009 227.824 288.347 229.605 290.844 229.605C293.315 229.605 294.696 227.824 294.688 225.727V224.807C294.696 222.693 293.349 220.929 290.844 220.929C288.381 220.929 287.009 222.71 287 224.807V225.727ZM278.043 215.739C278.051 217.835 279.389 219.6 281.878 219.6C284.358 219.6 285.739 217.852 285.73 215.739V214.818C285.739 212.705 284.392 210.94 281.878 210.94C279.44 210.94 278.051 212.705 278.043 214.818V215.739ZM278.878 229H281.102L293.102 211.546H290.878L278.878 229ZM289.48 224.807C289.489 223.972 289.821 223.111 290.844 223.111C291.918 223.111 292.199 223.972 292.19 224.807V225.727C292.199 226.563 291.884 227.406 290.844 227.406C289.804 227.406 289.489 226.537 289.48 225.727V224.807ZM280.54 214.818C280.548 214.009 280.864 213.122 281.878 213.122C282.952 213.122 283.241 213.983 283.233 214.818V215.739C283.241 216.574 282.918 217.418 281.878 217.418C280.872 217.418 280.548 216.574 280.54 215.739V214.818Z" fill="#004F7F"/>
<path d="M263.546 242.272H264.91C264.847 240.517 263.228 239.204 260.978 239.204C258.751 239.204 257.001 240.5 257.001 242.454C257.001 244.022 258.137 244.954 259.955 245.477L261.387 245.886C262.614 246.227 263.705 246.659 263.705 247.818C263.705 249.09 262.478 249.931 260.864 249.931C259.478 249.931 258.251 249.318 258.137 248H256.683C256.819 249.909 258.364 251.204 260.864 251.204C263.546 251.204 265.069 249.727 265.069 247.84C265.069 245.659 263.001 244.954 261.796 244.636L260.614 244.318C259.751 244.09 258.364 243.636 258.364 242.386C258.364 241.272 259.387 240.454 260.933 240.454C262.342 240.454 263.41 241.125 263.546 242.272Z" fill="#004F7F"/>
<path d="M272.704 247.431C272.704 249.068 271.454 249.818 270.454 249.818C269.34 249.818 268.545 249 268.545 247.727V242.272H267.204V247.818C267.204 250.045 268.386 251.113 270.022 251.113C271.34 251.113 272.204 250.409 272.613 249.522H272.704V251H274.045V242.272H272.704V247.431Z" fill="#004F7F"/>
<path d="M276.501 251H277.842V245.477C277.842 244.295 278.773 243.431 280.046 243.431C280.404 243.431 280.773 243.5 280.864 243.522V242.159C280.711 242.147 280.359 242.136 280.16 242.136C279.114 242.136 278.205 242.727 277.887 243.59H277.796V242.272H276.501V251Z" fill="#004F7F"/>
<path d="M340.591 211.546H337.122L332.801 214.281V217.554L336.798 215.048H336.9V229H340.591V211.546Z" fill="#004F7F"/>
<path d="M351.114 229.239C355 229.239 357.642 226.707 357.634 223.179C357.642 219.838 355.307 217.435 352.162 217.435C350.628 217.435 349.307 218.074 348.694 218.935H348.591L349.043 214.563H356.671V211.546H346L345.174 220.75L348.455 221.338C348.992 220.614 350.032 220.162 351.063 220.162C352.819 220.171 354.08 221.44 354.08 223.273C354.08 225.088 352.844 226.341 351.114 226.341C349.648 226.341 348.463 225.421 348.378 224.065H344.799C344.867 227.082 347.5 229.239 351.114 229.239Z" fill="#004F7F"/>
<path d="M369.762 225.727C369.77 227.824 371.108 229.605 373.605 229.605C376.077 229.605 377.458 227.824 377.449 225.727V224.807C377.458 222.693 376.111 220.929 373.605 220.929C371.142 220.929 369.77 222.71 369.762 224.807V225.727ZM360.804 215.739C360.813 217.835 362.151 219.6 364.64 219.6C367.12 219.6 368.5 217.852 368.492 215.739V214.818C368.5 212.705 367.154 210.94 364.64 210.94C362.202 210.94 360.813 212.705 360.804 214.818V215.739ZM361.64 229H363.864L375.864 211.546H373.64L361.64 229ZM372.242 224.807C372.25 223.972 372.583 223.111 373.605 223.111C374.679 223.111 374.961 223.972 374.952 224.807V225.727C374.961 226.563 374.645 227.406 373.605 227.406C372.566 227.406 372.25 226.537 372.242 225.727V224.807ZM363.301 214.818C363.31 214.009 363.625 213.122 364.64 213.122C365.713 213.122 366.003 213.983 365.995 214.818V215.739C366.003 216.574 365.679 217.418 364.64 217.418C363.634 217.418 363.31 216.574 363.301 215.739V214.818Z" fill="#004F7F"/>
<path d="M336.144 239.363H334.758V248.522H334.644L328.281 239.363H326.917V251H328.326V241.863H328.44L334.781 251H336.144V239.363Z" fill="#004F7F"/>
<path d="M342.327 251.181C344.691 251.181 346.282 249.386 346.282 246.681C346.282 243.954 344.691 242.159 342.327 242.159C339.964 242.159 338.373 243.954 338.373 246.681C338.373 249.386 339.964 251.181 342.327 251.181ZM342.327 249.977C340.532 249.977 339.714 248.431 339.714 246.681C339.714 244.931 340.532 243.363 342.327 243.363C344.123 243.363 344.941 244.931 344.941 246.681C344.941 248.431 344.123 249.977 342.327 249.977Z" fill="#004F7F"/>
<path d="M348.329 251H349.67V245.477C349.67 244.295 350.602 243.431 351.874 243.431C352.232 243.431 352.602 243.5 352.692 243.522V242.159C352.539 242.147 352.187 242.136 351.988 242.136C350.942 242.136 350.033 242.727 349.715 243.591H349.624V242.272H348.329V251Z" fill="#004F7F"/>
<path d="M357.675 251.181C359.448 251.181 360.744 250.295 361.153 248.977L359.857 248.613C359.516 249.522 358.727 249.977 357.675 249.977C356.102 249.977 355.016 248.96 354.954 247.091H361.289V246.522C361.289 243.272 359.357 242.159 357.539 242.159C355.175 242.159 353.607 244.022 353.607 246.704C353.607 249.386 355.153 251.181 357.675 251.181ZM354.954 245.931C355.045 244.574 356.005 243.363 357.539 243.363C358.994 243.363 359.925 244.454 359.925 245.931H354.954Z" fill="#004F7F"/>
<path d="M369.511 244.227C369.09 242.988 368.147 242.159 366.42 242.159C364.579 242.159 363.215 243.204 363.215 244.681C363.215 245.886 363.931 246.693 365.533 247.068L366.988 247.409C367.869 247.613 368.283 248.034 368.283 248.636C368.283 249.386 367.488 250 366.238 250C365.141 250 364.454 249.528 364.215 248.591L362.943 248.909C363.255 250.392 364.477 251.181 366.261 251.181C368.289 251.181 369.67 250.074 369.67 248.568C369.67 247.352 368.908 246.585 367.352 246.204L366.056 245.886C365.022 245.63 364.556 245.284 364.556 244.613C364.556 243.863 365.352 243.318 366.42 243.318C367.59 243.318 368.073 243.966 368.306 244.568L369.511 244.227Z" fill="#004F7F"/>
<path d="M375.484 242.272H373.62V240.181H372.279V242.272H370.961V243.409H372.279V248.863C372.279 250.386 373.506 251.113 374.643 251.113C375.143 251.113 375.461 251.022 375.643 250.954L375.37 249.75C375.256 249.772 375.075 249.818 374.779 249.818C374.188 249.818 373.62 249.636 373.62 248.5V243.409H375.484V242.272Z" fill="#004F7F"/>
<path d="M381.066 251.181C382.839 251.181 384.134 250.295 384.543 248.977L383.248 248.613C382.907 249.522 382.117 249.977 381.066 249.977C379.492 249.977 378.407 248.96 378.344 247.091H384.68V246.522C384.68 243.272 382.748 242.159 380.93 242.159C378.566 242.159 376.998 244.022 376.998 246.704C376.998 249.386 378.543 251.181 381.066 251.181ZM378.344 245.931C378.435 244.574 379.396 243.363 380.93 243.363C382.384 243.363 383.316 244.454 383.316 245.931H378.344Z" fill="#004F7F"/>
<path d="M180.294 11.1875H184.044C183.567 7.73579 180.524 5.30682 176.578 5.30682C171.967 5.30682 168.413 8.63068 168.413 14.2898C168.413 19.8125 171.737 23.2386 176.655 23.2386C181.061 23.2386 184.206 20.4517 184.206 15.858V13.6591H176.902V16.4375H180.652C180.601 18.6023 179.126 19.9744 176.672 19.9744C173.902 19.9744 172.155 17.9034 172.155 14.2557C172.155 10.625 173.97 8.57102 176.638 8.57102C178.538 8.57102 179.825 9.55114 180.294 11.1875Z" fill="#002D44"/>
<path d="M192.876 23.2557C196.114 23.2557 198.296 21.679 198.808 19.25L195.45 19.0284C195.083 20.0256 194.146 20.5455 192.935 20.5455C191.12 20.5455 189.969 19.3438 189.969 17.392V17.3835H198.884V16.3864C198.884 11.9375 196.191 9.73864 192.731 9.73864C188.879 9.73864 186.381 12.4744 186.381 16.5142C186.381 20.6648 188.844 23.2557 192.876 23.2557ZM189.969 15.1335C190.046 13.642 191.18 12.4489 192.79 12.4489C194.367 12.4489 195.458 13.5739 195.467 15.1335H189.969Z" fill="#002D44"/>
<path d="M207.168 23.2557C211.14 23.2557 213.611 20.5369 213.611 16.5057C213.611 12.4489 211.14 9.73864 207.168 9.73864C203.197 9.73864 200.725 12.4489 200.725 16.5057C200.725 20.5369 203.197 23.2557 207.168 23.2557ZM207.185 20.4432C205.353 20.4432 204.415 18.7642 204.415 16.4801C204.415 14.196 205.353 12.5085 207.185 12.5085C208.984 12.5085 209.921 14.196 209.921 16.4801C209.921 18.7642 208.984 20.4432 207.185 20.4432Z" fill="#002D44"/>
<path d="M221.87 28.1818C225.611 28.1818 228.271 26.4773 228.271 23.1278V9.90909H224.665V12.108H224.529C224.043 11.0426 222.978 9.73864 220.788 9.73864C217.915 9.73864 215.486 11.9716 215.486 16.429C215.486 20.7841 217.847 22.8125 220.796 22.8125C222.884 22.8125 224.052 21.7642 224.529 20.6818H224.683V23.0767C224.683 24.875 223.532 25.5739 221.955 25.5739C220.353 25.5739 219.543 24.875 219.245 24.0824L215.887 24.5341C216.322 26.5966 218.342 28.1818 221.87 28.1818ZM221.947 20.0852C220.165 20.0852 219.194 18.6705 219.194 16.4119C219.194 14.1875 220.148 12.6278 221.947 12.6278C223.711 12.6278 224.7 14.1193 224.7 16.4119C224.7 18.7216 223.694 20.0852 221.947 20.0852Z" fill="#002D44"/>
<path d="M231.16 23H234.79V15.5938C234.79 13.983 235.967 12.875 237.569 12.875C238.072 12.875 238.762 12.9602 239.103 13.071V9.84943C238.779 9.77273 238.327 9.72159 237.961 9.72159C236.495 9.72159 235.293 10.5739 234.816 12.1932H234.68V9.90909H231.16V23Z" fill="#002D44"/>
<path d="M244.338 23.2472C246.273 23.2472 247.526 22.4034 248.165 21.1847H248.267V23H251.71V14.1705C251.71 11.0511 249.068 9.73864 246.153 9.73864C243.017 9.73864 240.955 11.2386 240.452 13.625L243.81 13.8977C244.057 13.0284 244.832 12.3892 246.136 12.3892C247.372 12.3892 248.08 13.0114 248.08 14.0852V14.1364C248.08 14.9801 247.185 15.0909 244.909 15.3125C242.318 15.5511 239.991 16.4205 239.991 19.3438C239.991 21.9347 241.841 23.2472 244.338 23.2472ZM245.378 20.7415C244.261 20.7415 243.46 20.2216 243.46 19.2244C243.46 18.2017 244.304 17.6989 245.582 17.5199C246.375 17.4091 247.67 17.2216 248.105 16.9318V18.321C248.105 19.6932 246.972 20.7415 245.378 20.7415Z" fill="#002D44"/>
<path d="M261.567 9.90909H258.967V9.03125C258.967 8.14489 259.325 7.625 260.391 7.625C260.825 7.625 261.268 7.71875 261.558 7.8125L262.197 5.08523C261.746 4.94886 260.749 4.72727 259.632 4.72727C257.169 4.72727 255.337 6.11648 255.337 8.96307V9.90909H253.487V12.6364H255.337V23H258.967V12.6364H261.567V9.90909Z" fill="#002D44"/>
<path d="M263.785 23H267.415V9.90909H263.785V23ZM264.305 8.22159H266.87L269.469 4.34375H266.111L264.305 8.22159Z" fill="#002D44"/>
<path d="M274.057 23.2472C275.991 23.2472 277.244 22.4034 277.884 21.1847H277.986V23H281.429V14.1705C281.429 11.0511 278.787 9.73864 275.872 9.73864C272.736 9.73864 270.673 11.2386 270.17 13.625L273.528 13.8977C273.776 13.0284 274.551 12.3892 275.855 12.3892C277.091 12.3892 277.798 13.0114 277.798 14.0852V14.1364C277.798 14.9801 276.903 15.0909 274.628 15.3125C272.037 15.5511 269.71 16.4205 269.71 19.3438C269.71 21.9347 271.56 23.2472 274.057 23.2472ZM275.097 20.7415C273.98 20.7415 273.179 20.2216 273.179 19.2244C273.179 18.2017 274.023 17.6989 275.301 17.5199C276.094 17.4091 277.389 17.2216 277.824 16.9318V18.321C277.824 19.6932 276.69 20.7415 275.097 20.7415Z" fill="#002D44"/>
</g>
<defs>
<clipPath id="clip0">
<rect width="397" height="332" fill="white"/>
</clipPath>
</defs>
</svg>
