<svg width="446" height="190" viewBox="0 0 446 190" fill="none" xmlns="http://www.w3.org/2000/svg">
<g clip-path="url(#clip0)">
<path opacity="0.3" d="M238.526 181H-0.756889C-9.72697 181 -17 173.735 -17 164.774V163.854C-17 154.894 -9.72697 147.629 -0.756889 147.629H238.526C247.496 147.629 254.769 154.894 254.769 163.854V164.774C254.769 173.735 247.496 181 238.526 181Z" fill="#7AC142"/>
<path opacity="0.3" d="M311.976 180.021H286.618C277.648 180.021 270.375 172.756 270.375 163.796C270.375 154.835 277.648 147.57 286.618 147.57H311.976C320.946 147.57 328.219 154.835 328.219 163.796C328.219 172.756 320.946 180.021 311.976 180.021Z" fill="#7AC142"/>
<path d="M182.449 66H186.08V58.142C186.08 56.6932 187 55.7301 188.21 55.7301C189.403 55.7301 190.205 56.5483 190.205 57.8352V66H193.724V58.0057C193.724 56.6506 194.5 55.7301 195.821 55.7301C196.98 55.7301 197.849 56.4545 197.849 57.9119V66H201.472V57.196C201.472 54.358 199.784 52.7386 197.347 52.7386C195.429 52.7386 193.937 53.7188 193.401 55.2188H193.264C192.847 53.7017 191.509 52.7386 189.71 52.7386C187.946 52.7386 186.608 53.6761 186.062 55.2188H185.909V52.9091H182.449V66Z" fill="#00559B"/>
<path d="M208.072 66.2472C210.007 66.2472 211.26 65.4034 211.899 64.1847H212.001V66H215.445V57.1705C215.445 54.0511 212.803 52.7386 209.888 52.7386C206.751 52.7386 204.689 54.2386 204.186 56.625L207.544 56.8977C207.791 56.0284 208.567 55.3892 209.871 55.3892C211.107 55.3892 211.814 56.0114 211.814 57.0852V57.1364C211.814 57.9801 210.919 58.0909 208.643 58.3125C206.053 58.5511 203.726 59.4205 203.726 62.3438C203.726 64.9347 205.575 66.2472 208.072 66.2472ZM209.112 63.7415C207.996 63.7415 207.195 63.2216 207.195 62.2244C207.195 61.2017 208.038 60.6989 209.317 60.5199C210.109 60.4091 211.405 60.2216 211.839 59.9318V61.321C211.839 62.6932 210.706 63.7415 209.112 63.7415ZM208.72 51.2216H211.285L213.885 47.3438H210.527L208.72 51.2216Z" fill="#00559B"/>
<path d="M229.153 56.642C228.83 54.2301 226.886 52.7386 223.58 52.7386C220.23 52.7386 218.023 54.2898 218.031 56.8125C218.023 58.7727 219.259 60.0426 221.815 60.554L224.082 61.0057C225.224 61.2358 225.744 61.6534 225.761 62.3097C225.744 63.0852 224.901 63.6392 223.631 63.6392C222.335 63.6392 221.474 63.0852 221.253 62.0199L217.682 62.2074C218.023 64.7131 220.153 66.2557 223.622 66.2557C227.014 66.2557 229.443 64.5256 229.452 61.9432C229.443 60.0511 228.207 58.9176 225.668 58.3977L223.298 57.9205C222.08 57.6562 221.628 57.2386 221.636 56.608C221.628 55.8239 222.514 55.3125 223.639 55.3125C224.901 55.3125 225.651 56.0028 225.83 56.8466L229.153 56.642Z" fill="#00559B"/>
<path d="M242.116 66.2131C244.23 66.2131 245.33 64.9943 245.832 63.9034H245.986V66H249.565V48.5455H245.943V55.108H245.832C245.347 54.0426 244.298 52.7386 242.108 52.7386C239.236 52.7386 236.807 54.9716 236.807 59.4716C236.807 63.8523 239.134 66.2131 242.116 66.2131ZM243.267 63.3239C241.486 63.3239 240.514 61.7386 240.514 59.4545C240.514 57.1875 241.469 55.6278 243.267 55.6278C245.031 55.6278 246.02 57.1193 246.02 59.4545C246.02 61.7898 245.014 63.3239 243.267 63.3239Z" fill="#00559B"/>
<path d="M258.516 66.2557C261.755 66.2557 263.937 64.679 264.448 62.25L261.09 62.0284C260.724 63.0256 259.786 63.5455 258.576 63.5455C256.761 63.5455 255.61 62.3438 255.61 60.392V60.3835H264.525V59.3864C264.525 54.9375 261.832 52.7386 258.371 52.7386C254.519 52.7386 252.022 55.4744 252.022 59.5142C252.022 63.6648 254.485 66.2557 258.516 66.2557ZM255.61 58.1335C255.687 56.642 256.82 55.4489 258.431 55.4489C260.008 55.4489 261.099 56.5739 261.107 58.1335H255.61Z" fill="#00559B"/>
<path d="M272.415 66H284.858V62.983H277.528V62.8636L280.077 60.3665C283.665 57.0938 284.628 55.4574 284.628 53.4716C284.628 50.446 282.156 48.3068 278.415 48.3068C274.75 48.3068 272.236 50.4972 272.244 53.9233H275.747C275.739 52.2528 276.795 51.2301 278.389 51.2301C279.923 51.2301 281.065 52.1847 281.065 53.7188C281.065 55.108 280.213 56.0625 278.628 57.5881L272.415 63.3409V66Z" fill="#00559B"/>
<path d="M293.907 66.2386C297.793 66.2386 300.435 63.7074 300.427 60.179C300.435 56.8381 298.1 54.4347 294.955 54.4347C293.421 54.4347 292.1 55.0739 291.486 55.9347H291.384L291.836 51.5625H299.464V48.5455H288.793L287.967 57.75L291.248 58.3381C291.785 57.6136 292.825 57.1619 293.856 57.1619C295.612 57.1705 296.873 58.4403 296.873 60.2727C296.873 62.0881 295.637 63.3409 293.907 63.3409C292.441 63.3409 291.256 62.4205 291.171 61.0653H287.592C287.66 64.0824 290.293 66.2386 293.907 66.2386Z" fill="#00559B"/>
<path d="M309.844 66.3835C314.234 66.3835 316.884 63.0426 316.893 57.2898C316.901 51.5795 314.217 48.3068 309.844 48.3068C305.464 48.3068 302.805 51.571 302.796 57.2898C302.779 63.0256 305.447 66.375 309.844 66.3835ZM309.844 63.3239C307.842 63.3239 306.546 61.3125 306.555 57.2898C306.563 53.3267 307.85 51.3324 309.844 51.3324C311.83 51.3324 313.126 53.3267 313.126 57.2898C313.134 61.3125 311.839 63.3239 309.844 63.3239Z" fill="#00559B"/>
<path d="M182.227 90.9996H183.568V82.2723H182.227V90.9996ZM182.909 80.8177C183.432 80.8177 183.864 80.4086 183.864 79.9086C183.864 79.4086 183.432 78.9996 182.909 78.9996C182.386 78.9996 181.955 79.4086 181.955 79.9086C181.955 80.4086 182.386 80.8177 182.909 80.8177Z" fill="#00559B"/>
<path d="M187.365 85.7496C187.365 84.2268 188.308 83.3632 189.592 83.3632C190.837 83.3632 191.592 84.1757 191.592 85.545V90.9996H192.933V85.4541C192.933 83.2268 191.746 82.1586 189.979 82.1586C188.66 82.1586 187.842 82.7496 187.433 83.6359H187.32V82.2723H186.024V90.9996H187.365V85.7496Z" fill="#00559B"/>
<path d="M199.27 82.2723H197.315V81.3859C197.315 80.5223 197.679 80.0677 198.565 80.0677C198.952 80.0677 199.179 80.1586 199.315 80.2041L199.702 79.045C199.497 78.9541 199.088 78.8177 198.429 78.8177C197.179 78.8177 195.974 79.5677 195.974 81.0677V82.2723H194.565V83.4086H195.974V90.9996H197.315V83.4086H199.27V82.2723Z" fill="#00559B"/>
<path d="M204.335 91.1814C206.699 91.1814 208.29 89.3859 208.29 86.6814C208.29 83.9541 206.699 82.1586 204.335 82.1586C201.972 82.1586 200.381 83.9541 200.381 86.6814C200.381 89.3859 201.972 91.1814 204.335 91.1814ZM204.335 89.9768C202.54 89.9768 201.722 88.4314 201.722 86.6814C201.722 84.9314 202.54 83.3632 204.335 83.3632C206.131 83.3632 206.949 84.9314 206.949 86.6814C206.949 88.4314 206.131 89.9768 204.335 89.9768Z" fill="#00559B"/>
<path d="M210.337 90.9996H211.678V85.4768C211.678 84.295 212.609 83.4314 213.882 83.4314C214.24 83.4314 214.609 83.4996 214.7 83.5223V82.1586C214.547 82.1473 214.195 82.1359 213.996 82.1359C212.95 82.1359 212.041 82.7268 211.723 83.5905H211.632V82.2723H210.337V90.9996Z" fill="#00559B"/>
<path d="M216.29 90.9996H217.631V85.545C217.631 84.2666 218.562 83.3632 219.608 83.3632C220.625 83.3632 221.335 84.028 221.335 85.0223V90.9996H222.699V85.3177C222.699 84.1927 223.403 83.3632 224.631 83.3632C225.585 83.3632 226.403 83.8689 226.403 85.1586V90.9996H227.744V85.1586C227.744 83.1075 226.642 82.1586 225.085 82.1586C223.835 82.1586 222.92 82.7325 222.472 83.6359H222.381C221.949 82.7041 221.187 82.1586 220.04 82.1586C218.903 82.1586 218.062 82.7041 217.699 83.6359H217.585V82.2723H216.29V90.9996Z" fill="#00559B"/>
<path d="M233.855 91.1814C235.628 91.1814 236.923 90.295 237.332 88.9768L236.037 88.6132C235.696 89.5223 234.906 89.9768 233.855 89.9768C232.281 89.9768 231.196 88.9598 231.134 87.0905H237.469V86.5223C237.469 83.2723 235.537 82.1586 233.719 82.1586C231.355 82.1586 229.787 84.0223 229.787 86.7041C229.787 89.3859 231.332 91.1814 233.855 91.1814ZM231.134 85.9314C231.224 84.5734 232.185 83.3632 233.719 83.3632C235.173 83.3632 236.105 84.4541 236.105 85.9314H231.134Z" fill="#00559B"/>
<path d="M245.69 84.2268C245.27 82.9882 244.327 82.1586 242.599 82.1586C240.759 82.1586 239.395 83.2041 239.395 84.6814C239.395 85.8859 240.111 86.6927 241.713 87.0677L243.168 87.4086C244.048 87.6132 244.463 88.0336 244.463 88.6359C244.463 89.3859 243.668 89.9996 242.418 89.9996C241.321 89.9996 240.634 89.528 240.395 88.5905L239.122 88.9086C239.435 90.3916 240.656 91.1814 242.44 91.1814C244.469 91.1814 245.849 90.0734 245.849 88.5677C245.849 87.3518 245.088 86.5848 243.531 86.2041L242.236 85.8859C241.202 85.6302 240.736 85.2836 240.736 84.6132C240.736 83.8632 241.531 83.3177 242.599 83.3177C243.77 83.3177 244.253 83.9655 244.486 84.5677L245.69 84.2268Z" fill="#00559B"/>
<path d="M255.663 91.1814C257.345 91.1814 257.913 90.1359 258.209 89.6586H258.368V90.9996H259.663V79.3632H258.322V83.6586H258.209C257.913 83.2041 257.391 82.1586 255.686 82.1586C253.482 82.1586 251.959 83.9086 251.959 86.6586C251.959 89.4314 253.482 91.1814 255.663 91.1814ZM255.845 89.9768C254.163 89.9768 253.3 88.4996 253.3 86.6359C253.3 84.795 254.141 83.3632 255.845 83.3632C257.482 83.3632 258.345 84.6814 258.345 86.6359C258.345 88.6132 257.459 89.9768 255.845 89.9768Z" fill="#00559B"/>
<path d="M265.964 91.1814C267.737 91.1814 269.033 90.295 269.442 88.9768L268.146 88.6132C267.805 89.5223 267.016 89.9768 265.964 89.9768C264.391 89.9768 263.305 88.9598 263.243 87.0905H269.578V86.5223C269.578 83.2723 267.646 82.1586 265.828 82.1586C263.464 82.1586 261.896 84.0223 261.896 86.7041C261.896 89.3859 263.442 91.1814 265.964 91.1814ZM263.243 85.9314C263.334 84.5734 264.294 83.3632 265.828 83.3632C267.283 83.3632 268.214 84.4541 268.214 85.9314H263.243Z" fill="#00559B"/>
<path d="M276.118 90.9996H277.459V82.2723H276.118V90.9996ZM276.8 80.8177C277.322 80.8177 277.754 80.4086 277.754 79.9086C277.754 79.4086 277.322 78.9996 276.8 78.9996C276.277 78.9996 275.845 79.4086 275.845 79.9086C275.845 80.4086 276.277 80.8177 276.8 80.8177Z" fill="#00559B"/>
<path d="M281.256 85.7496C281.256 84.2268 282.199 83.3632 283.483 83.3632C284.727 83.3632 285.483 84.1757 285.483 85.545V90.9996H286.824V85.4541C286.824 83.2268 285.636 82.1586 283.869 82.1586C282.551 82.1586 281.733 82.7496 281.324 83.6359H281.21V82.2723H279.915V90.9996H281.256V85.7496Z" fill="#00559B"/>
<path d="M296.098 82.2723H294.643L292.234 89.2268H292.143L289.734 82.2723H288.28L291.507 90.9996H292.871L296.098 82.2723Z" fill="#00559B"/>
<path d="M301.214 91.1814C302.987 91.1814 304.283 90.295 304.692 88.9768L303.396 88.6132C303.055 89.5223 302.266 89.9768 301.214 89.9768C299.641 89.9768 298.555 88.9598 298.493 87.0905H304.828V86.5223C304.828 83.2723 302.896 82.1586 301.078 82.1586C298.714 82.1586 297.146 84.0223 297.146 86.7041C297.146 89.3859 298.692 91.1814 301.214 91.1814ZM298.493 85.9314C298.584 84.5734 299.544 83.3632 301.078 83.3632C302.533 83.3632 303.464 84.4541 303.464 85.9314H298.493Z" fill="#00559B"/>
<path d="M313.05 84.2268C312.629 82.9882 311.686 82.1586 309.959 82.1586C308.118 82.1586 306.754 83.2041 306.754 84.6814C306.754 85.8859 307.47 86.6927 309.072 87.0677L310.527 87.4086C311.408 87.6132 311.822 88.0336 311.822 88.6359C311.822 89.3859 311.027 89.9996 309.777 89.9996C308.68 89.9996 307.993 89.528 307.754 88.5905L306.482 88.9086C306.794 90.3916 308.016 91.1814 309.8 91.1814C311.828 91.1814 313.209 90.0734 313.209 88.5677C313.209 87.3518 312.447 86.5848 310.891 86.2041L309.595 85.8859C308.561 85.6302 308.095 85.2836 308.095 84.6132C308.095 83.8632 308.891 83.3177 309.959 83.3177C311.129 83.3177 311.612 83.9655 311.845 84.5677L313.05 84.2268Z" fill="#00559B"/>
<path d="M319.023 82.2723H317.159V80.1814H315.818V82.2723H314.5V83.4086H315.818V88.8632C315.818 90.3859 317.045 91.1132 318.182 91.1132C318.682 91.1132 319 91.0223 319.182 90.9541L318.909 89.7496C318.795 89.7723 318.614 89.8177 318.318 89.8177C317.727 89.8177 317.159 89.6359 317.159 88.4996V83.4086H319.023V82.2723Z" fill="#00559B"/>
<path d="M321.04 90.9996H322.381V82.2723H321.04V90.9996ZM321.722 80.8177C322.244 80.8177 322.676 80.4086 322.676 79.9086C322.676 79.4086 322.244 78.9996 321.722 78.9996C321.199 78.9996 320.767 79.4086 320.767 79.9086C320.767 80.4086 321.199 80.8177 321.722 80.8177Z" fill="#00559B"/>
<path d="M328.359 94.4541C330.45 94.4541 332.132 93.4996 332.132 91.2496V82.2723H330.837V83.6586H330.7C330.405 83.2041 329.859 82.1586 328.155 82.1586C325.95 82.1586 324.428 83.9086 324.428 86.5905C324.428 89.3177 326.018 90.8632 328.132 90.8632C329.837 90.8632 330.382 89.8632 330.678 89.3859H330.791V91.1586C330.791 92.6132 329.768 93.2723 328.359 93.2723C326.774 93.2723 326.217 92.4371 325.859 91.9541L324.791 92.7041C325.337 93.6189 326.41 94.4541 328.359 94.4541ZM328.314 89.6586C326.632 89.6586 325.768 88.3859 325.768 86.5677C325.768 84.795 326.609 83.3632 328.314 83.3632C329.95 83.3632 330.814 84.6814 330.814 86.5677C330.814 88.4996 329.928 89.6586 328.314 89.6586Z" fill="#00559B"/>
<path d="M337.155 91.2041C338.678 91.2041 339.473 90.3859 339.746 89.8177H339.814V90.9996H341.155V85.2496C341.155 82.4768 339.041 82.1586 337.928 82.1586C336.609 82.1586 335.109 82.6132 334.428 84.2041L335.7 84.6586C335.996 84.0223 336.695 83.3405 337.973 83.3405C339.206 83.3405 339.814 83.9939 339.814 85.1132V85.1586C339.814 85.8064 339.155 85.7496 337.564 85.9541C335.945 86.1643 334.178 86.5223 334.178 88.5223C334.178 90.2268 335.496 91.2041 337.155 91.2041ZM337.359 89.9996C336.291 89.9996 335.518 89.5223 335.518 88.5905C335.518 87.5677 336.45 87.2496 337.496 87.1132C338.064 87.045 339.587 86.8859 339.814 86.6132V87.8405C339.814 88.9314 338.95 89.9996 337.359 89.9996Z" fill="#00559B"/>
<path d="M347.148 91.1814C349.08 91.1814 350.352 89.9996 350.58 88.4541H349.239C348.989 89.4086 348.193 89.9768 347.148 89.9768C345.557 89.9768 344.534 88.6586 344.534 86.6359C344.534 84.6586 345.58 83.3632 347.148 83.3632C348.33 83.3632 349.034 84.0905 349.239 84.8859H350.58C350.352 83.2496 348.966 82.1586 347.125 82.1586C344.761 82.1586 343.193 84.0223 343.193 86.6814C343.193 89.295 344.693 91.1814 347.148 91.1814Z" fill="#00559B"/>
<path d="M352.54 90.9996H353.881V82.2723H352.54V90.9996ZM353.222 80.8177C353.744 80.8177 354.176 80.4086 354.176 79.9086C354.176 79.4086 353.744 78.9996 353.222 78.9996C352.699 78.9996 352.267 79.4086 352.267 79.9086C352.267 80.4086 352.699 80.8177 353.222 80.8177Z" fill="#00559B"/>
<path d="M359.882 91.1814C362.246 91.1814 363.837 89.3859 363.837 86.6814C363.837 83.9541 362.246 82.1586 359.882 82.1586C357.518 82.1586 355.928 83.9541 355.928 86.6814C355.928 89.3859 357.518 91.1814 359.882 91.1814ZM359.882 89.9768C358.087 89.9768 357.268 88.4314 357.268 86.6814C357.268 84.9314 358.087 83.3632 359.882 83.3632C361.678 83.3632 362.496 84.9314 362.496 86.6814C362.496 88.4314 361.678 89.9768 359.882 89.9768ZM359.268 81.0905H360.45L362.223 78.4541H360.655L359.268 81.0905Z" fill="#00559B"/>
<path d="M367.224 85.7496C367.224 84.2268 368.168 83.3632 369.452 83.3632C370.696 83.3632 371.452 84.1757 371.452 85.545V90.9996H372.793V85.4541C372.793 83.2268 371.605 82.1586 369.838 82.1586C368.52 82.1586 367.702 82.7496 367.293 83.6359H367.179V82.2723H365.884V90.9996H367.224V85.7496Z" fill="#00559B"/>
<path d="M385.243 87.4314C385.243 89.0677 383.993 89.8177 382.993 89.8177C381.879 89.8177 381.084 88.9996 381.084 87.7268V82.2723H379.743V87.8177C379.743 90.045 380.925 91.1132 382.561 91.1132C383.879 91.1132 384.743 90.4086 385.152 89.5223H385.243V90.9996H386.584V82.2723H385.243V87.4314Z" fill="#00559B"/>
<path d="M395.222 84.2268C394.801 82.9882 393.858 82.1586 392.131 82.1586C390.29 82.1586 388.926 83.2041 388.926 84.6814C388.926 85.8859 389.642 86.6927 391.244 87.0677L392.699 87.4086C393.58 87.6132 393.994 88.0336 393.994 88.6359C393.994 89.3859 393.199 89.9996 391.949 89.9996C390.852 89.9996 390.165 89.528 389.926 88.5905L388.653 88.9086C388.966 90.3916 390.187 91.1814 391.972 91.1814C394 91.1814 395.381 90.0734 395.381 88.5677C395.381 87.3518 394.619 86.5848 393.062 86.2041L391.767 85.8859C390.733 85.6302 390.267 85.2836 390.267 84.6132C390.267 83.8632 391.062 83.3177 392.131 83.3177C393.301 83.3177 393.784 83.9655 394.017 84.5677L395.222 84.2268Z" fill="#00559B"/>
<path d="M399.967 91.2041C401.49 91.2041 402.286 90.3859 402.558 89.8177H402.626V90.9996H403.967V85.2496C403.967 82.4768 401.854 82.1586 400.74 82.1586C399.422 82.1586 397.922 82.6132 397.24 84.2041L398.513 84.6586C398.808 84.0223 399.507 83.3405 400.785 83.3405C402.018 83.3405 402.626 83.9939 402.626 85.1132V85.1586C402.626 85.8064 401.967 85.7496 400.376 85.9541C398.757 86.1643 396.99 86.5223 396.99 88.5223C396.99 90.2268 398.308 91.2041 399.967 91.2041ZM400.172 89.9996C399.104 89.9996 398.331 89.5223 398.331 88.5905C398.331 87.5677 399.263 87.2496 400.308 87.1132C400.876 87.045 402.399 86.8859 402.626 86.6132V87.8405C402.626 88.9314 401.763 89.9996 400.172 89.9996Z" fill="#00559B"/>
<path d="M407.756 85.7496C407.756 84.2268 408.699 83.3632 409.983 83.3632C411.227 83.3632 411.983 84.1757 411.983 85.545V90.9996H413.324V85.4541C413.324 83.2268 412.136 82.1586 410.369 82.1586C409.051 82.1586 408.233 82.7496 407.824 83.6359H407.71V82.2723H406.415V90.9996H407.756V85.7496Z" fill="#00559B"/>
<path d="M419.07 91.1814C420.751 91.1814 421.32 90.1359 421.615 89.6586H421.774V90.9996H423.07V79.3632H421.729V83.6586H421.615C421.32 83.2041 420.797 82.1586 419.092 82.1586C416.888 82.1586 415.365 83.9086 415.365 86.6586C415.365 89.4314 416.888 91.1814 419.07 91.1814ZM419.251 89.9768C417.57 89.9768 416.706 88.4996 416.706 86.6359C416.706 84.795 417.547 83.3632 419.251 83.3632C420.888 83.3632 421.751 84.6814 421.751 86.6359C421.751 88.6132 420.865 89.9768 419.251 89.9768Z" fill="#00559B"/>
<path d="M429.257 91.1814C431.621 91.1814 433.212 89.3859 433.212 86.6814C433.212 83.9541 431.621 82.1586 429.257 82.1586C426.893 82.1586 425.303 83.9541 425.303 86.6814C425.303 89.3859 426.893 91.1814 429.257 91.1814ZM429.257 89.9768C427.462 89.9768 426.643 88.4314 426.643 86.6814C426.643 84.9314 427.462 83.3632 429.257 83.3632C431.053 83.3632 431.871 84.9314 431.871 86.6814C431.871 88.4314 431.053 89.9768 429.257 89.9768Z" fill="#00559B"/>
<path d="M183.568 103.363H182.227V115H183.568V103.363Z" fill="#00559B"/>
<path d="M189.57 115.181C191.933 115.181 193.524 113.386 193.524 110.681C193.524 107.954 191.933 106.159 189.57 106.159C187.206 106.159 185.615 107.954 185.615 110.681C185.615 113.386 187.206 115.181 189.57 115.181ZM189.57 113.977C187.774 113.977 186.956 112.431 186.956 110.681C186.956 108.931 187.774 107.363 189.57 107.363C191.365 107.363 192.183 108.931 192.183 110.681C192.183 112.431 191.365 113.977 189.57 113.977Z" fill="#00559B"/>
<path d="M201.753 108.227C201.332 106.988 200.389 106.159 198.662 106.159C196.821 106.159 195.457 107.204 195.457 108.681C195.457 109.886 196.173 110.693 197.776 111.068L199.23 111.409C200.111 111.613 200.526 112.034 200.526 112.636C200.526 113.386 199.73 114 198.48 114C197.384 114 196.696 113.528 196.457 112.59L195.185 112.909C195.497 114.392 196.719 115.181 198.503 115.181C200.531 115.181 201.912 114.073 201.912 112.568C201.912 111.352 201.151 110.585 199.594 110.204L198.298 109.886C197.264 109.63 196.798 109.284 196.798 108.613C196.798 107.863 197.594 107.318 198.662 107.318C199.832 107.318 200.315 107.965 200.548 108.568L201.753 108.227Z" fill="#00559B"/>
<path d="M211.726 115.181C213.408 115.181 213.976 114.136 214.271 113.659H214.43V115H215.726V103.363H214.385V107.659H214.271C213.976 107.204 213.453 106.159 211.749 106.159C209.544 106.159 208.021 107.909 208.021 110.659C208.021 113.431 209.544 115.181 211.726 115.181ZM211.908 113.977C210.226 113.977 209.362 112.5 209.362 110.636C209.362 108.795 210.203 107.363 211.908 107.363C213.544 107.363 214.408 108.681 214.408 110.636C214.408 112.613 213.521 113.977 211.908 113.977Z" fill="#00559B"/>
<path d="M220.936 115.204C222.459 115.204 223.254 114.386 223.527 113.818H223.595V115H224.936V109.25C224.936 106.477 222.822 106.159 221.709 106.159C220.391 106.159 218.891 106.613 218.209 108.204L219.482 108.659C219.777 108.022 220.476 107.34 221.754 107.34C222.987 107.34 223.595 107.994 223.595 109.113V109.159C223.595 109.806 222.936 109.75 221.345 109.954C219.726 110.164 217.959 110.522 217.959 112.522C217.959 114.227 219.277 115.204 220.936 115.204ZM221.141 114C220.072 114 219.3 113.522 219.3 112.59C219.3 111.568 220.232 111.25 221.277 111.113C221.845 111.045 223.368 110.886 223.595 110.613V111.84C223.595 112.931 222.732 114 221.141 114Z" fill="#00559B"/>
<path d="M231.179 106.272H229.315V104.181H227.974V106.272H226.656V107.409H227.974V112.863C227.974 114.386 229.202 115.113 230.338 115.113C230.838 115.113 231.156 115.022 231.338 114.954L231.065 113.75C230.952 113.772 230.77 113.818 230.474 113.818C229.884 113.818 229.315 113.636 229.315 112.5V107.409H231.179V106.272Z" fill="#00559B"/>
<path d="M236.648 115.181C239.011 115.181 240.602 113.386 240.602 110.681C240.602 107.954 239.011 106.159 236.648 106.159C234.284 106.159 232.693 107.954 232.693 110.681C232.693 113.386 234.284 115.181 236.648 115.181ZM236.648 113.977C234.852 113.977 234.034 112.431 234.034 110.681C234.034 108.931 234.852 107.363 236.648 107.363C238.443 107.363 239.261 108.931 239.261 110.681C239.261 112.431 238.443 113.977 236.648 113.977Z" fill="#00559B"/>
<path d="M248.831 108.227C248.41 106.988 247.467 106.159 245.74 106.159C243.899 106.159 242.535 107.204 242.535 108.681C242.535 109.886 243.251 110.693 244.854 111.068L246.308 111.409C247.189 111.613 247.604 112.034 247.604 112.636C247.604 113.386 246.808 114 245.558 114C244.462 114 243.774 113.528 243.535 112.59L242.263 112.909C242.575 114.392 243.797 115.181 245.581 115.181C247.609 115.181 248.99 114.073 248.99 112.568C248.99 111.352 248.229 110.585 246.672 110.204L245.376 109.886C244.342 109.63 243.876 109.284 243.876 108.613C243.876 107.863 244.672 107.318 245.74 107.318C246.91 107.318 247.393 107.965 247.626 108.568L248.831 108.227Z" fill="#00559B"/>
<path d="M258.804 115.181C260.486 115.181 261.054 114.136 261.349 113.659H261.509V115H262.804V103.363H261.463V107.659H261.349C261.054 107.204 260.531 106.159 258.827 106.159C256.622 106.159 255.099 107.909 255.099 110.659C255.099 113.431 256.622 115.181 258.804 115.181ZM258.986 113.977C257.304 113.977 256.44 112.5 256.44 110.636C256.44 108.795 257.281 107.363 258.986 107.363C260.622 107.363 261.486 108.681 261.486 110.636C261.486 112.613 260.599 113.977 258.986 113.977Z" fill="#00559B"/>
<path d="M269.105 115.181C270.878 115.181 272.173 114.295 272.582 112.977L271.287 112.613C270.946 113.522 270.156 113.977 269.105 113.977C267.531 113.977 266.446 112.96 266.384 111.09H272.719V110.522C272.719 107.272 270.787 106.159 268.969 106.159C266.605 106.159 265.037 108.022 265.037 110.704C265.037 113.386 266.582 115.181 269.105 115.181ZM266.384 109.931C266.474 108.573 267.435 107.363 268.969 107.363C270.423 107.363 271.355 108.454 271.355 109.931H266.384Z" fill="#00559B"/>
<path d="M276.099 103.363H274.759V115H276.099V103.363Z" fill="#00559B"/>
<path d="M283.237 115H290.351V113.75H284.646V109.795H289.896V108.545H284.646V104.613H290.26V103.363H283.237V115Z" fill="#00559B"/>
<path d="M298.8 108.227C298.379 106.988 297.436 106.159 295.709 106.159C293.868 106.159 292.504 107.204 292.504 108.681C292.504 109.886 293.22 110.693 294.822 111.068L296.277 111.409C297.158 111.613 297.572 112.034 297.572 112.636C297.572 113.386 296.777 114 295.527 114C294.43 114 293.743 113.528 293.504 112.59L292.232 112.909C292.544 114.392 293.766 115.181 295.55 115.181C297.578 115.181 298.959 114.073 298.959 112.568C298.959 111.352 298.197 110.585 296.641 110.204L295.345 109.886C294.311 109.63 293.845 109.284 293.845 108.613C293.845 107.863 294.641 107.318 295.709 107.318C296.879 107.318 297.362 107.965 297.595 108.568L298.8 108.227Z" fill="#00559B"/>
<path d="M304.773 106.272H302.909V104.181H301.568V106.272H300.25V107.409H301.568V112.863C301.568 114.386 302.795 115.113 303.932 115.113C304.432 115.113 304.75 115.022 304.932 114.954L304.659 113.75C304.545 113.772 304.364 113.818 304.068 113.818C303.477 113.818 302.909 113.636 302.909 112.5V107.409H304.773V106.272Z" fill="#00559B"/>
<path d="M312.29 111.431C312.29 113.068 311.04 113.818 310.04 113.818C308.926 113.818 308.131 113 308.131 111.727V106.272H306.79V111.818C306.79 114.045 307.972 115.113 309.608 115.113C310.926 115.113 311.79 114.409 312.199 113.522H312.29V115H313.631V106.272H312.29V111.431Z" fill="#00559B"/>
<path d="M319.382 115.181C321.064 115.181 321.632 114.136 321.928 113.659H322.087V115H323.382V103.363H322.041V107.659H321.928C321.632 107.204 321.109 106.159 319.405 106.159C317.2 106.159 315.678 107.909 315.678 110.659C315.678 113.431 317.2 115.181 319.382 115.181ZM319.564 113.977C317.882 113.977 317.018 112.5 317.018 110.636C317.018 108.795 317.859 107.363 319.564 107.363C321.2 107.363 322.064 108.681 322.064 110.636C322.064 112.613 321.178 113.977 319.564 113.977Z" fill="#00559B"/>
<path d="M326.024 115H327.365V106.272H326.024V115ZM326.706 104.818C327.229 104.818 327.66 104.409 327.66 103.909C327.66 103.409 327.229 103 326.706 103C326.183 103 325.751 103.409 325.751 103.909C325.751 104.409 326.183 104.818 326.706 104.818Z" fill="#00559B"/>
<path d="M333.366 115.181C335.73 115.181 337.321 113.386 337.321 110.681C337.321 107.954 335.73 106.159 333.366 106.159C331.003 106.159 329.412 107.954 329.412 110.681C329.412 113.386 331.003 115.181 333.366 115.181ZM333.366 113.977C331.571 113.977 330.753 112.431 330.753 110.681C330.753 108.931 331.571 107.363 333.366 107.363C335.162 107.363 335.98 108.931 335.98 110.681C335.98 112.431 335.162 113.977 333.366 113.977Z" fill="#00559B"/>
<path d="M344.05 115H345.459V110.75H348.004C350.714 110.75 351.936 109.102 351.936 107.045C351.936 104.988 350.714 103.363 347.982 103.363H344.05V115ZM345.459 109.5V104.613H347.936C349.828 104.613 350.55 105.647 350.55 107.045C350.55 108.443 349.828 109.5 347.959 109.5H345.459Z" fill="#00559B"/>
<path d="M353.496 115L354.666 111.704H359.371L360.541 115H362.018L357.746 103.363H356.291L352.018 115H353.496ZM355.109 110.454L356.973 105.204H357.064L358.928 110.454H355.109Z" fill="#00559B"/>
<path d="M361.835 104.613H365.494V115H366.903V104.613H370.562V103.363H361.835V104.613Z" fill="#00559B"/>
<path d="M372.737 115H374.146V109.795H380.351V115H381.76V103.363H380.351V108.545H374.146V103.363H372.737V115Z" fill="#00559B"/>
<path d="M385.376 115.09C385.939 115.09 386.399 114.63 386.399 114.068C386.399 113.505 385.939 113.045 385.376 113.045C384.814 113.045 384.354 113.505 384.354 114.068C384.354 114.63 384.814 115.09 385.376 115.09Z" fill="#00559B"/>
<path d="M182.409 38H183.818V32.7955H190.023V38H191.432V26.3636H190.023V31.5455H183.818V26.3636H182.409V38Z" fill="#00559B"/>
<path d="M196.639 38.2045C198.162 38.2045 198.957 37.3864 199.23 36.8182H199.298V38H200.639V32.25C200.639 29.4773 198.526 29.1591 197.412 29.1591C196.094 29.1591 194.594 29.6136 193.912 31.2045L195.185 31.6591C195.48 31.0227 196.179 30.3409 197.457 30.3409C198.69 30.3409 199.298 30.9943 199.298 32.1136V32.1591C199.298 32.8068 198.639 32.75 197.048 32.9545C195.429 33.1648 193.662 33.5227 193.662 35.5227C193.662 37.2273 194.98 38.2045 196.639 38.2045ZM196.844 37C195.776 37 195.003 36.5227 195.003 35.5909C195.003 34.5682 195.935 34.25 196.98 34.1136C197.548 34.0455 199.071 33.8864 199.298 33.6136V34.8409C199.298 35.9318 198.435 37 196.844 37Z" fill="#00559B"/>
<path d="M209.268 31.2273C208.848 29.9886 207.905 29.1591 206.178 29.1591C204.337 29.1591 202.973 30.2045 202.973 31.6818C202.973 32.8864 203.689 33.6932 205.291 34.0682L206.746 34.4091C207.626 34.6136 208.041 35.0341 208.041 35.6364C208.041 36.3864 207.246 37 205.996 37C204.899 37 204.212 36.5284 203.973 35.5909L202.7 35.9091C203.013 37.392 204.234 38.1818 206.018 38.1818C208.047 38.1818 209.428 37.0739 209.428 35.5682C209.428 34.3523 208.666 33.5852 207.109 33.2045L205.814 32.8864C204.78 32.6307 204.314 32.2841 204.314 31.6136C204.314 30.8636 205.109 30.3182 206.178 30.3182C207.348 30.3182 207.831 30.9659 208.064 31.5682L209.268 31.2273Z" fill="#00559B"/>
<path d="M215.241 29.2727H213.378V27.1818H212.037V29.2727H210.719V30.4091H212.037V35.8636C212.037 37.3864 213.264 38.1136 214.401 38.1136C214.901 38.1136 215.219 38.0227 215.401 37.9545L215.128 36.75C215.014 36.7727 214.832 36.8182 214.537 36.8182C213.946 36.8182 213.378 36.6364 213.378 35.5V30.4091H215.241V29.2727Z" fill="#00559B"/>
<path d="M219.827 38.2045C221.349 38.2045 222.145 37.3864 222.418 36.8182H222.486V38H223.827V32.25C223.827 29.4773 221.713 29.1591 220.599 29.1591C219.281 29.1591 217.781 29.6136 217.099 31.2045L218.372 31.6591C218.668 31.0227 219.366 30.3409 220.645 30.3409C221.878 30.3409 222.486 30.9943 222.486 32.1136V32.1591C222.486 32.8068 221.827 32.75 220.236 32.9545C218.616 33.1648 216.849 33.5227 216.849 35.5227C216.849 37.2273 218.168 38.2045 219.827 38.2045ZM220.031 37C218.963 37 218.19 36.5227 218.19 35.5909C218.19 34.5682 219.122 34.25 220.168 34.1136C220.736 34.0455 222.258 33.8864 222.486 33.6136V34.8409C222.486 35.9318 221.622 37 220.031 37Z" fill="#00559B"/>
<path d="M233.342 38.2045C234.865 38.2045 235.66 37.3864 235.933 36.8182H236.001V38H237.342V32.25C237.342 29.4773 235.229 29.1591 234.115 29.1591C232.797 29.1591 231.297 29.6136 230.615 31.2045L231.888 31.6591C232.183 31.0227 232.882 30.3409 234.16 30.3409C235.393 30.3409 236.001 30.9943 236.001 32.1136V32.1591C236.001 32.8068 235.342 32.75 233.751 32.9545C232.132 33.1648 230.365 33.5227 230.365 35.5227C230.365 37.2273 231.683 38.2045 233.342 38.2045ZM233.547 37C232.479 37 231.706 36.5227 231.706 35.5909C231.706 34.5682 232.638 34.25 233.683 34.1136C234.251 34.0455 235.774 33.8864 236.001 33.6136V34.8409C236.001 35.9318 235.138 37 233.547 37Z" fill="#00559B"/>
<path d="M241.131 32.75C241.131 31.2273 242.102 30.3636 243.426 30.3636C244.687 30.3636 245.449 31.1591 245.449 32.5455V38H246.79V32.4545C246.79 30.2102 245.597 29.1591 243.812 29.1591C242.437 29.1591 241.653 29.733 241.244 30.6364H241.131V26.3636H239.79V38H241.131V32.75Z" fill="#00559B"/>
<path d="M252.788 38.1818C255.152 38.1818 256.743 36.3864 256.743 33.6818C256.743 30.9545 255.152 29.1591 252.788 29.1591C250.425 29.1591 248.834 30.9545 248.834 33.6818C248.834 36.3864 250.425 38.1818 252.788 38.1818ZM252.788 36.9773C250.993 36.9773 250.175 35.4318 250.175 33.6818C250.175 31.9318 250.993 30.3636 252.788 30.3636C254.584 30.3636 255.402 31.9318 255.402 33.6818C255.402 35.4318 254.584 36.9773 252.788 36.9773Z" fill="#00559B"/>
<path d="M258.79 38H260.131V32.4773C260.131 31.2955 261.062 30.4318 262.335 30.4318C262.693 30.4318 263.062 30.5 263.153 30.5227V29.1591C263 29.1477 262.648 29.1364 262.449 29.1364C261.403 29.1364 260.494 29.7273 260.176 30.5909H260.085V29.2727H258.79V38Z" fill="#00559B"/>
<path d="M267.311 38.2045C268.834 38.2045 269.629 37.3864 269.902 36.8182H269.97V38H271.311V32.25C271.311 29.4773 269.197 29.1591 268.084 29.1591C266.766 29.1591 265.266 29.6136 264.584 31.2045L265.857 31.6591C266.152 31.0227 266.851 30.3409 268.129 30.3409C269.362 30.3409 269.97 30.9943 269.97 32.1136V32.1591C269.97 32.8068 269.311 32.75 267.72 32.9545C266.101 33.1648 264.334 33.5227 264.334 35.5227C264.334 37.2273 265.652 38.2045 267.311 38.2045ZM267.516 37C266.447 37 265.675 36.5227 265.675 35.5909C265.675 34.5682 266.607 34.25 267.652 34.1136C268.22 34.0455 269.743 33.8864 269.97 33.6136V34.8409C269.97 35.9318 269.107 37 267.516 37Z" fill="#00559B"/>
<path d="M284.44 31.2273C284.02 29.9886 283.077 29.1591 281.349 29.1591C279.508 29.1591 278.145 30.2045 278.145 31.6818C278.145 32.8864 278.861 33.6932 280.463 34.0682L281.918 34.4091C282.798 34.6136 283.213 35.0341 283.213 35.6364C283.213 36.3864 282.418 37 281.168 37C280.071 37 279.383 36.5284 279.145 35.5909L277.872 35.9091C278.185 37.392 279.406 38.1818 281.19 38.1818C283.219 38.1818 284.599 37.0739 284.599 35.5682C284.599 34.3523 283.838 33.5852 282.281 33.2045L280.986 32.8864C279.952 32.6307 279.486 32.2841 279.486 31.6136C279.486 30.8636 280.281 30.3182 281.349 30.3182C282.52 30.3182 283.003 30.9659 283.236 31.5682L284.44 31.2273Z" fill="#00559B"/>
<path d="M290.277 38.1818C292.05 38.1818 293.345 37.2955 293.754 35.9773L292.459 35.6136C292.118 36.5227 291.328 36.9773 290.277 36.9773C288.703 36.9773 287.618 35.9602 287.555 34.0909H293.891V33.5227C293.891 30.2727 291.959 29.1591 290.141 29.1591C287.777 29.1591 286.209 31.0227 286.209 33.7045C286.209 36.3864 287.754 38.1818 290.277 38.1818ZM287.555 32.9318C287.646 31.5739 288.607 30.3636 290.141 30.3636C291.595 30.3636 292.527 31.4545 292.527 32.9318H287.555Z" fill="#00559B"/>
<path d="M301.771 32.75C301.771 31.2273 302.743 30.3636 304.067 30.3636C305.328 30.3636 306.089 31.1591 306.089 32.5455V38H307.43V32.4545C307.43 30.2102 306.237 29.1591 304.453 29.1591C303.078 29.1591 302.294 29.733 301.885 30.6364H301.771V26.3636H300.43V38H301.771V32.75Z" fill="#00559B"/>
<path d="M312.452 38.2045C313.974 38.2045 314.77 37.3864 315.043 36.8182H315.111V38H316.452V32.25C316.452 29.4773 314.338 29.1591 313.224 29.1591C311.906 29.1591 310.406 29.6136 309.724 31.2045L310.997 31.6591C311.293 31.0227 311.991 30.3409 313.27 30.3409C314.503 30.3409 315.111 30.9943 315.111 32.1136V32.1591C315.111 32.8068 314.452 32.75 312.861 32.9545C311.241 33.1648 309.474 33.5227 309.474 35.5227C309.474 37.2273 310.793 38.2045 312.452 38.2045ZM312.656 37C311.588 37 310.815 36.5227 310.815 35.5909C310.815 34.5682 311.747 34.25 312.793 34.1136C313.361 34.0455 314.883 33.8864 315.111 33.6136V34.8409C315.111 35.9318 314.247 37 312.656 37Z" fill="#00559B"/>
<path d="M320.24 32.75C320.24 31.2273 321.183 30.3636 322.467 30.3636C323.712 30.3636 324.467 31.1761 324.467 32.5455V38H325.808V32.4545C325.808 30.2273 324.621 29.1591 322.854 29.1591C321.535 29.1591 320.717 29.75 320.308 30.6364H320.195V29.2727H318.899V38H320.24V32.75Z" fill="#00559B"/>
<path d="M332.758 41.2727H334.099V36.6591H334.213C334.508 37.1364 335.077 38.1818 336.758 38.1818C338.94 38.1818 340.463 36.4318 340.463 33.6591C340.463 30.9091 338.94 29.1591 336.736 29.1591C335.031 29.1591 334.508 30.2045 334.213 30.6591H334.054V29.2727H332.758V41.2727ZM334.077 33.6364C334.077 31.6818 334.94 30.3636 336.577 30.3636C338.281 30.3636 339.122 31.7955 339.122 33.6364C339.122 35.5 338.258 36.9773 336.577 36.9773C334.963 36.9773 334.077 35.6136 334.077 33.6364Z" fill="#00559B"/>
<path d="M348.008 34.4318C348.008 36.0682 346.758 36.8182 345.758 36.8182C344.645 36.8182 343.849 36 343.849 34.7273V29.2727H342.508V34.8182C342.508 37.0455 343.69 38.1136 345.327 38.1136C346.645 38.1136 347.508 37.4091 347.918 36.5227H348.008V38H349.349V29.2727H348.008V34.4318Z" fill="#00559B"/>
<path d="M351.987 38H353.283V36.6591H353.442C353.737 37.1364 354.305 38.1818 355.987 38.1818C358.169 38.1818 359.692 36.4318 359.692 33.6591C359.692 30.9091 358.169 29.1591 355.964 29.1591C354.26 29.1591 353.737 30.2045 353.442 30.6591H353.328V26.3636H351.987V38ZM353.305 33.6364C353.305 31.6818 354.169 30.3636 355.805 30.3636C357.51 30.3636 358.351 31.7955 358.351 33.6364C358.351 35.5 357.487 36.9773 355.805 36.9773C354.192 36.9773 353.305 35.6136 353.305 33.6364Z" fill="#00559B"/>
<path d="M363.084 26.3636H361.743V38H363.084V26.3636Z" fill="#00559B"/>
<path d="M365.54 38H366.881V29.2727H365.54V38ZM366.222 27.8182C366.744 27.8182 367.176 27.4091 367.176 26.9091C367.176 26.4091 366.744 26 366.222 26C365.699 26 365.267 26.4091 365.267 26.9091C365.267 27.4091 365.699 27.8182 366.222 27.8182Z" fill="#00559B"/>
<path d="M372.882 38.1818C374.814 38.1818 376.087 37 376.314 35.4545H374.973C374.723 36.4091 373.928 36.9773 372.882 36.9773C371.291 36.9773 370.268 35.6591 370.268 33.6364C370.268 31.6591 371.314 30.3636 372.882 30.3636C374.064 30.3636 374.768 31.0909 374.973 31.8864H376.314C376.087 30.25 374.7 29.1591 372.859 29.1591C370.496 29.1591 368.928 31.0227 368.928 33.6818C368.928 36.2955 370.428 38.1818 372.882 38.1818Z" fill="#00559B"/>
<path d="M380.842 38.2045C382.365 38.2045 383.16 37.3864 383.433 36.8182H383.501V38H384.842V32.25C384.842 29.4773 382.729 29.1591 381.615 29.1591C380.297 29.1591 378.797 29.6136 378.115 31.2045L379.388 31.6591C379.683 31.0227 380.382 30.3409 381.66 30.3409C382.893 30.3409 383.501 30.9943 383.501 32.1136V32.1591C383.501 32.8068 382.842 32.75 381.251 32.9545C379.632 33.1648 377.865 33.5227 377.865 35.5227C377.865 37.2273 379.183 38.2045 380.842 38.2045ZM381.047 37C379.979 37 379.206 36.5227 379.206 35.5909C379.206 34.5682 380.138 34.25 381.183 34.1136C381.751 34.0455 383.274 33.8864 383.501 33.6136V34.8409C383.501 35.9318 382.638 37 381.047 37Z" fill="#00559B"/>
<path d="M390.585 38.1818C392.267 38.1818 392.835 37.1364 393.131 36.6591H393.29V38H394.585V26.3636H393.244V30.6591H393.131C392.835 30.2045 392.312 29.1591 390.608 29.1591C388.403 29.1591 386.881 30.9091 386.881 33.6591C386.881 36.4318 388.403 38.1818 390.585 38.1818ZM390.767 36.9773C389.085 36.9773 388.222 35.5 388.222 33.6364C388.222 31.7955 389.062 30.3636 390.767 30.3636C392.403 30.3636 393.267 31.6818 393.267 33.6364C393.267 35.6136 392.381 36.9773 390.767 36.9773Z" fill="#00559B"/>
<path d="M400.773 38.1818C403.136 38.1818 404.727 36.3864 404.727 33.6818C404.727 30.9545 403.136 29.1591 400.773 29.1591C398.409 29.1591 396.818 30.9545 396.818 33.6818C396.818 36.3864 398.409 38.1818 400.773 38.1818ZM400.773 36.9773C398.977 36.9773 398.159 35.4318 398.159 33.6818C398.159 31.9318 398.977 30.3636 400.773 30.3636C402.568 30.3636 403.386 31.9318 403.386 33.6818C403.386 35.4318 402.568 36.9773 400.773 36.9773Z" fill="#00559B"/>
<path d="M10 10C10 4.47715 14.4772 0 20 0H106C111.523 0 116 4.47715 116 10V127C116 132.523 111.523 137 106 137H20C14.4772 137 10 132.523 10 127V10Z" fill="#DEF5FF"/>
<path d="M28.1018 13.8295C28.6279 8.33179 33.5112 4.30153 39.009 4.82769L124.152 12.9762C129.65 13.5024 133.68 18.3857 133.154 23.8834L121.966 140.786C121.44 146.284 116.556 150.314 111.059 149.788L25.9155 141.64C20.4178 141.114 16.3875 136.23 16.9137 130.732L28.1018 13.8295Z" fill="#B9EAFF"/>
<g filter="url(#filter0_d)">
<path d="M53.6869 19.8968C54.7588 14.4789 60.0197 10.9558 65.4376 12.0277L149.343 28.6272C154.761 29.699 158.284 34.96 157.213 40.3778L134.421 155.582C133.349 161 128.088 164.523 122.67 163.451L38.7646 146.852C33.3468 145.78 29.8236 140.519 30.8955 135.101L53.6869 19.8968Z" fill="#60C3EF"/>
</g>
<path d="M63.1408 35.3405C63.6669 32.6812 66.2492 30.9519 68.9085 31.478L138.728 45.2908C141.387 45.8169 143.117 48.3992 142.591 51.0585C142.065 53.7179 139.482 55.4472 136.823 54.9211L67.0033 41.1083C64.344 40.5822 62.6147 37.9999 63.1408 35.3405Z" fill="white" fill-opacity="0.31"/>
<path d="M59.8067 52.1931C60.3328 49.5337 62.9151 47.8044 65.5744 48.3305L135.394 62.1433C138.053 62.6694 139.783 65.2517 139.257 67.9111C138.73 70.5704 136.148 72.2997 133.489 71.7736L63.6692 57.9608C61.0099 57.4347 59.2806 54.8524 59.8067 52.1931Z" fill="white" fill-opacity="0.31"/>
<path d="M56.4725 69.0456C56.9986 66.3863 59.5809 64.657 62.2403 65.1831L132.06 78.9959C134.719 79.522 136.448 82.1043 135.922 84.7636C135.396 87.4229 132.814 89.1523 130.155 88.6261L60.335 74.8134C57.6757 74.2873 55.9464 71.7049 56.4725 69.0456Z" fill="white" fill-opacity="0.31"/>
<path d="M53.1384 85.8991C53.6645 83.2398 56.2468 81.5105 58.9061 82.0366L128.726 95.8494C131.385 96.3755 133.114 98.9578 132.588 101.617C132.062 104.276 129.48 106.006 126.821 105.48L57.0009 91.6669C54.3416 91.1408 52.6123 88.5585 53.1384 85.8991Z" fill="white" fill-opacity="0.31"/>
<path d="M49.8043 102.752C50.3304 100.092 52.9127 98.363 55.572 98.8891L125.392 112.702C128.051 113.228 129.78 115.81 129.254 118.47C128.728 121.129 126.146 122.858 123.486 122.332L53.6668 108.519C51.0075 107.993 49.2782 105.411 49.8043 102.752Z" fill="white" fill-opacity="0.31"/>
<path fill-rule="evenodd" clip-rule="evenodd" d="M107.576 126.676C108.298 126.291 109.181 126.384 109.807 126.911L119.992 135.493C120.837 136.205 120.945 137.467 120.233 138.312C119.521 139.156 118.26 139.264 117.415 138.552L108.265 130.843L86.3826 142.526C85.6366 142.925 84.7208 142.811 84.0951 142.242L67.1899 126.871L46.7218 139.595C45.7837 140.179 44.5505 139.891 43.9673 138.953C43.3842 138.015 43.6719 136.781 44.61 136.198L66.3614 122.676C67.1207 122.204 68.1012 122.293 68.7627 122.895L85.7426 138.334L107.576 126.676Z" fill="#FC857A"/>
</g>
<defs>
<filter id="filter0_d" x="-6.04529" y="-18.9131" width="200.199" height="225.305" filterUnits="userSpaceOnUse" color-interpolation-filters="sRGB">
<feFlood flood-opacity="0" result="BackgroundImageFix"/>
<feColorMatrix in="SourceAlpha" type="matrix" values="0 0 0 0 0 0 0 0 0 0 0 0 0 0 0 0 0 0 127 0"/>
<feOffset dy="6"/>
<feGaussianBlur stdDeviation="17.5"/>
<feColorMatrix type="matrix" values="0 0 0 0 0.0288582 0 0 0 0 0.322059 0 0 0 0 0.503564 0 0 0 0.1 0"/>
<feBlend mode="normal" in2="BackgroundImageFix" result="effect1_dropShadow"/>
<feBlend mode="normal" in="SourceGraphic" in2="effect1_dropShadow" result="shape"/>
</filter>
<clipPath id="clip0">
<rect width="446" height="190" fill="white"/>
</clipPath>
</defs>
</svg>
