<svg width="369" height="383" viewBox="0 0 369 383" fill="none" xmlns="http://www.w3.org/2000/svg">
<g clip-path="url(#clip0)">
<path d="M167.865 23.0004H171.555V16.8129H174.248L177.555 23.0004H181.629L177.922 16.2164C179.907 15.3641 181.007 13.634 181.007 11.2476C181.007 7.77885 178.714 5.5459 174.751 5.5459H167.865V23.0004ZM171.555 13.847V8.56294H174.044C176.174 8.56294 177.206 9.50897 177.206 11.2476C177.206 12.9777 176.174 13.847 174.061 13.847H171.555Z" fill="#002D44"/>
<path d="M187.279 23.2476C189.214 23.2476 190.467 22.4039 191.106 21.1851H191.208V23.0004H194.652V14.1709C194.652 11.0516 192.01 9.73908 189.095 9.73908C185.958 9.73908 183.896 11.2391 183.393 13.6254L186.751 13.8982C186.998 13.0289 187.774 12.3896 189.078 12.3896C190.314 12.3896 191.021 13.0118 191.021 14.0857V14.1368C191.021 14.9806 190.126 15.0914 187.85 15.3129C185.26 15.5516 182.933 16.4209 182.933 19.3442C182.933 21.9351 184.782 23.2476 187.279 23.2476ZM188.319 20.7419C187.203 20.7419 186.402 20.222 186.402 19.2249C186.402 18.2021 187.245 17.6993 188.524 17.5203C189.316 17.4095 190.612 17.222 191.047 16.9323V18.3215C191.047 19.6936 189.913 20.7419 188.319 20.7419Z" fill="#002D44"/>
<path d="M197.4 23.0004H208.403V20.1027H202.164V20.009L208.181 12.2703V9.90953H197.622V12.8073H203.809V12.901L197.4 20.8357V23.0004Z" fill="#002D44"/>
<path d="M214.912 23.2476C216.847 23.2476 218.1 22.4039 218.739 21.1851H218.841V23.0004H222.284V14.1709C222.284 11.0516 219.642 9.73908 216.728 9.73908C213.591 9.73908 211.529 11.2391 211.026 13.6254L214.384 13.8982C214.631 13.0289 215.407 12.3896 216.711 12.3896C217.946 12.3896 218.654 13.0118 218.654 14.0857V14.1368C218.654 14.9806 217.759 15.0914 215.483 15.3129C212.892 15.5516 210.566 16.4209 210.566 19.3442C210.566 21.9351 212.415 23.2476 214.912 23.2476ZM215.952 20.7419C214.836 20.7419 214.034 20.222 214.034 19.2249C214.034 18.2021 214.878 17.6993 216.157 17.5203C216.949 17.4095 218.245 17.222 218.679 16.9323V18.3215C218.679 19.6936 217.546 20.7419 215.952 20.7419Z" fill="#002D44"/>
<path d="M-30 244.5C-30 233.73 -21.2696 225 -10.5 225H349.5C360.27 225 369 233.73 369 244.5V244.5C369 255.27 360.27 264 349.5 264H-10.5C-21.2696 264 -30 255.27 -30 244.5V244.5Z" fill="#CBE5C2"/>
<path d="M39.321 114.26L46.2297 97.668L51.2131 99.1403L47.6455 117.092C46.8527 119.357 44.361 120.603 42.0392 119.81C39.774 119.017 38.5282 116.525 39.321 114.26Z" fill="#FC857A"/>
<path d="M46.2299 97.6688L46.9095 92.912C47.136 91.3263 48.665 90.2504 50.3072 90.5902C51.8362 90.9299 52.7989 92.4589 52.4591 93.9879L51.2133 99.1978L46.2299 97.6688Z" fill="#F4D2BA"/>
<path d="M36.0366 260.307C32.3557 260.307 29.2978 257.476 29.0712 253.795L21.7095 160.357C21.7095 154.015 26.8627 148.861 33.2051 148.861H38.9247C45.2671 148.861 50.4203 154.015 50.4203 160.357L43.0586 253.795C42.7754 257.476 39.7175 260.307 36.0366 260.307Z" fill="#0069AA"/>
<path d="M36.0365 88.5503C29.6375 88.5503 24.4276 83.3405 24.4276 76.9414V69.5796C24.4276 63.1806 29.6375 57.9707 36.0365 57.9707C42.4356 57.9707 47.6455 63.1806 47.6455 69.5796V76.9414C47.6455 83.3405 42.4922 88.5503 36.0365 88.5503Z" fill="#F4D2BA"/>
<path d="M48.5516 166.302H23.0685C20.2937 166.302 18.0286 164.037 18.0286 161.262L21.7094 102.028C21.7094 95.6855 26.8627 90.5322 33.2051 90.5322H36.6595C43.0019 90.5322 48.1552 95.6855 48.1552 102.028L53.6482 161.262C53.6482 164.037 51.383 166.302 48.5516 166.302Z" fill="#FF6A52"/>
<path d="M50.4769 127.115L26.5229 105.822C24.2577 103.784 24.0312 100.273 26.0698 97.9511C28.1085 95.6859 31.6194 95.4594 33.9412 97.498L57.8953 118.791C60.1604 120.829 60.387 124.34 58.3483 126.662C56.3097 128.984 52.7421 129.154 50.4769 127.115Z" fill="#FC857A"/>
<path d="M49.4009 122.019L55.9699 100.217L62.4256 101.463L60.217 124.567C59.5375 127.569 56.5362 129.381 53.5348 128.701C50.5901 128.022 48.7214 125.02 49.4009 122.019Z" fill="#FC857A"/>
<path d="M55.97 100.274L56.2531 94.2142C56.3664 92.1756 58.1785 90.59 60.2171 90.8165C62.1991 91.043 63.6149 92.8551 63.3317 94.8372L62.4257 101.519L55.97 100.274Z" fill="#F4D2BA"/>
<path d="M38.0751 69.1274C35.2437 70.4865 32.0725 70.9961 29.241 72.2986C27.259 73.2046 25.4469 74.7902 24.5408 76.659C24.3143 77.1687 23.5215 77.0554 23.4648 76.4891C23.0118 73.0914 23.2383 69.5804 24.3709 66.2959C25.8433 62.1054 29.0711 58.4811 33.2617 57.0088C36.4329 55.9328 43.3416 56.1593 45.0971 59.8402C46.7393 63.5211 40.9066 67.7683 38.0751 69.1274Z" fill="#E5B01C"/>
<path d="M21.8227 47.4385C17.0659 45.9662 11.0632 48.288 9.59084 53.1014C8.7414 55.9329 9.53421 58.9342 10.6668 61.6524C12.7054 66.3526 16.9526 72.0155 12.5922 76.7723C12.4789 76.8856 12.4223 76.9422 12.309 77.0555C11.1764 78.1881 12.6488 80.0568 14.0079 79.1508C14.914 78.5278 15.7068 77.735 16.3297 76.829C19.331 72.4685 17.1225 61.9922 24.5409 61.256C26.6362 61.0295 29.0712 60.9729 30.1471 58.821C30.4869 58.0282 30.6002 57.1787 30.4869 56.3293C29.864 51.9122 25.7867 48.6278 21.8227 47.4385Z" fill="#E5B01C"/>
<path d="M125.364 77.9458C118.965 77.9458 113.755 72.736 113.755 66.3369V58.9751C113.755 52.5761 118.965 47.3662 125.364 47.3662C131.763 47.3662 136.973 52.5761 136.973 58.9751V66.3369C136.973 72.7926 131.763 77.9458 125.364 77.9458Z" fill="#8C6449"/>
<path d="M132.329 116.567L108.375 95.218C106.11 93.1794 105.884 89.6684 107.922 87.3466C109.961 85.0814 113.472 84.8549 115.794 86.8935L139.748 108.186C142.013 110.225 142.239 113.736 140.201 116.057C138.162 118.379 134.594 118.606 132.329 116.567Z" fill="#FC857A"/>
<path d="M161.154 81.854L162.513 75.908C162.966 73.9259 165.004 72.6801 166.986 73.303C168.912 73.8693 169.988 75.9079 169.365 77.7767L167.27 84.2324L161.154 81.854Z" fill="#8C6449"/>
<path d="M111.433 141.257L113.755 146.863C114.548 148.788 113.528 150.94 111.603 151.563C109.734 152.186 107.639 151.167 107.073 149.242L105.091 142.786L111.433 141.257Z" fill="#8C6449"/>
<path d="M152.772 117.302C150.224 116.453 148.922 113.621 149.884 111.073L161.323 81.3994L167.949 83.6646L158.888 114.131C158.096 116.736 155.321 118.208 152.772 117.302Z" fill="#7AC142"/>
<path d="M97.3327 106.997C99.9377 106.204 102.656 107.676 103.335 110.281L111.547 140.974L104.864 143.013L94.2748 113.056C93.3687 110.621 94.7844 107.846 97.3327 106.997Z" fill="#7AC142"/>
<path d="M142.579 142.503L143.089 249.362C143.032 252.25 140.711 254.515 137.822 254.515H136.463C133.689 254.515 131.423 252.363 131.254 249.588L126.61 166.797C126.61 166.514 126.327 166.23 126.044 166.23C125.704 166.23 125.477 166.514 125.477 166.797L123.382 249.588C123.325 252.476 121.004 254.741 118.116 254.741H116.19C113.415 254.741 111.15 252.59 110.98 249.815L108.659 143.692L142.579 142.503Z" fill="#0069AA"/>
<path d="M158.888 110.509L146.6 89.3295C144.391 84.8558 139.861 82.0244 134.934 82.0244L116.02 81.9678C110.697 81.9678 105.884 85.139 103.902 90.0657L94.5011 109.603C93.4818 112.151 94.671 115.039 97.2193 116.058C99.7676 117.078 102.656 115.889 103.675 113.34L107.809 106.658L108.149 144.713C108.205 146.808 109.904 148.507 111.999 148.507H138.898C140.993 148.507 142.692 146.808 142.749 144.713L143.145 103.43L150.111 114.869C151.3 117.304 154.301 118.324 156.736 117.134C159.115 115.945 160.077 112.944 158.888 110.509Z" fill="#7AC142"/>
<path d="M118.682 53.3692C120.097 53.1427 121.06 54.6717 122.136 55.6344C123.835 57.22 126.553 57.5031 128.592 56.3705C129.554 55.8043 130.347 54.9548 131.367 54.5018C132.273 54.1054 133.575 53.9355 134.481 54.3885C135.331 54.7849 135.387 55.8043 136.633 55.6344C137.766 55.4645 136.18 51.5005 135.84 51.1041C134.821 49.8582 133.179 48.6124 131.763 47.8762C127.119 45.4412 119.814 45.7809 116.133 49.9715C115.397 50.7643 112.962 55.4645 114.604 56.2007C115.68 56.767 117.549 53.5957 118.682 53.3692Z" fill="#969696"/>
<path d="M223.867 83.1558C217.468 83.1558 212.258 77.9459 212.258 71.5469V64.1851C212.258 57.786 217.468 52.5762 223.867 52.5762C230.266 52.5762 235.476 57.786 235.476 64.1851V71.5469C235.42 78.0026 230.266 83.1558 223.867 83.1558Z" fill="#FCBA8D"/>
<path d="M246.405 148.449L245.046 154.395C244.593 156.377 242.555 157.623 240.573 157C238.647 156.433 237.571 154.395 238.194 152.526L240.289 146.07L246.405 148.449Z" fill="#FCBA8D"/>
<path d="M198.101 148.676V154.735C198.101 156.774 196.345 158.416 194.307 158.303C192.325 158.189 190.796 156.434 191.022 154.452L191.645 147.713L198.101 148.676Z" fill="#FCBA8D"/>
<path d="M254.787 112.999C257.335 113.848 258.637 116.68 257.675 119.228L246.236 148.901L239.61 146.636L248.671 116.17C249.463 113.565 252.238 112.093 254.787 112.999Z" fill="#0069AA"/>
<path d="M197.988 111.64C200.649 111.867 202.631 114.302 202.291 116.963L198.271 148.506L191.305 147.883L192.778 116.171C192.948 113.452 195.326 111.414 197.988 111.64Z" fill="#0069AA"/>
<path d="M241.649 147.713L240.403 249.645C240.346 252.533 238.024 254.798 235.136 254.798H233.777C231.002 254.798 228.737 252.646 228.567 249.872L225.113 171.95C225.113 171.667 224.83 171.384 224.547 171.384C224.207 171.384 223.98 171.667 223.98 171.95L223.074 249.872C223.018 252.76 220.696 255.025 217.808 255.025H215.882C213.108 255.025 210.842 252.873 210.672 250.098L205.916 148.959L241.649 147.713Z" fill="#002D44"/>
<path d="M257.391 115.717L245.103 94.5375C242.894 90.0639 238.364 87.2324 233.437 87.2324L214.523 87.1758C209.2 87.1758 204.386 90.347 202.404 95.2737L193.004 114.811C191.985 117.359 193.174 120.247 195.722 121.266C198.271 122.286 201.159 121.097 202.178 118.548L206.312 111.866L204.84 157.679C204.896 159.774 206.595 161.473 208.69 161.473H239.1C241.195 161.473 242.894 159.774 242.951 157.679L241.592 108.638L248.557 120.077C249.746 122.512 252.748 123.532 255.183 122.342C257.561 121.153 258.58 118.208 257.391 115.717Z" fill="#0069AA"/>
<path d="M230.153 58.5789C230.153 59.938 229.587 61.2971 228.567 62.2031C230.323 62.0332 232.022 61.467 233.494 60.5043C233.777 62.2598 234.4 63.9586 235.306 65.4876C235.589 62.8261 235.929 60.1645 236.156 57.5029C236.212 56.9933 236.042 53.1991 236.212 53.1425C231.852 54.1618 227.605 51.2171 223.188 50.934C219.79 50.7075 216.279 52.1798 214.07 54.7281C212.938 56.0306 212.145 57.5596 211.749 59.2018C211.465 60.2211 210.786 63.2224 211.579 64.1851C212.655 65.4876 216.449 63.6755 217.751 63.1658C219.847 62.3164 221.829 61.2404 223.867 60.3344C224.32 60.0512 230.153 58.1258 230.153 58.5789Z" fill="#002D44"/>
<path d="M312.233 259.781C315.914 259.837 319.029 257.006 319.312 253.382L328.033 155.867C328.146 149.524 323.05 144.314 316.707 144.201L310.988 144.144C304.645 144.031 299.435 149.128 299.322 155.47L305.325 253.155C305.495 256.836 308.553 259.724 312.233 259.781Z" fill="#FC857A"/>
<path d="M313.932 83.7779C320.331 83.7779 325.541 78.568 325.541 72.1689V64.8072C325.541 58.4081 320.331 53.1982 313.932 53.1982C307.533 53.1982 302.323 58.4081 302.323 64.8072V72.1689C302.323 78.568 307.533 83.7779 313.932 83.7779Z" fill="#DD9666"/>
<path d="M302.324 161.529H324.579C327.353 161.529 329.619 159.264 329.619 156.489L326.391 97.2555C326.391 90.913 321.238 85.7598 314.895 85.7598H310.988C304.645 85.7598 299.492 90.913 299.492 97.2555L297.17 156.489C297.284 159.264 299.549 161.529 302.324 161.529Z" fill="#7AC142"/>
<path d="M302.323 127.101L317.5 98.8429C318.972 96.1247 317.953 92.7836 315.235 91.3113C312.517 89.8389 309.176 90.8582 307.703 93.5764L292.527 121.834C291.054 124.552 292.074 127.894 294.792 129.366C297.51 130.782 300.851 129.762 302.323 127.101Z" fill="#86CC48"/>
<path d="M298.133 118.663L275.481 116.851L274.292 123.306L296.604 129.649C299.605 130.102 302.437 127.95 302.89 124.949C303.286 121.947 301.134 119.116 298.133 118.663Z" fill="#86CC48"/>
<path d="M275.481 116.85L269.705 114.868C267.78 114.188 265.684 115.321 265.118 117.303C264.608 119.228 265.798 121.21 267.723 121.663L274.292 123.249L275.481 116.85Z" fill="#DD9666"/>
<path d="M275.481 116.851C275.481 116.851 273.499 113.17 272.593 113.056C271.687 112.943 269.535 113.962 270.951 115.661C272.366 117.36 275.481 116.851 275.481 116.851Z" fill="#DD9666"/>
<path d="M299.945 58.8618C299.435 60.3341 299.265 62.033 300.115 63.3355C300.568 64.0717 301.304 64.5247 302.097 64.9211C303.343 65.544 304.758 65.8838 306.118 65.7705C308.156 65.6573 310.025 64.6946 311.667 63.562C313.309 62.4294 314.838 61.0137 315.688 59.1449C317.5 55.2375 314.782 50.594 310.365 51.4434C306.061 52.2362 301.587 54.5014 299.945 58.8618Z" fill="#0069AA"/>
<path d="M313.932 62.712C314.329 64.9772 315.008 66.9592 315.744 67.9219C316.367 68.7713 317.217 69.5641 317.613 70.5268C318.406 72.339 316.594 75.6234 316.311 77.5488C315.971 79.7007 316.481 81.5128 317.273 83.4382C317.896 84.9106 319.142 86.4962 319.312 88.0818C319.425 88.9312 319.142 89.7807 318.972 90.6301C318.349 93.8013 319.199 97.822 323.219 97.9352C325.881 97.9919 327.92 95.4436 328.656 92.8953C329.449 90.0638 329.165 86.9492 327.863 84.2877C327.806 84.1178 329.505 81.1164 329.618 80.6634C330.015 79.2477 330.071 77.9452 329.958 76.5295C329.845 74.0378 329.562 71.263 327.127 69.8473C328.996 66.1664 328.769 61.5228 326.56 58.0685C324.918 55.4635 320.728 52.1224 317.33 52.6321C313.649 53.1417 313.196 58.4082 313.932 62.712Z" fill="#0069AA"/>
<path d="M117.188 269.546H113.719L109.398 272.281V275.554L113.396 273.048H113.498V287H117.188V269.546Z" fill="#004F7F"/>
<path d="M122.027 287H125.837L133.081 272.605V269.546H120.834V272.563H129.263V272.682L122.027 287Z" fill="#004F7F"/>
<path d="M145.164 283.727C145.173 285.824 146.511 287.605 149.008 287.605C151.479 287.605 152.86 285.824 152.852 283.727V282.807C152.86 280.693 151.513 278.929 149.008 278.929C146.545 278.929 145.173 280.71 145.164 282.807V283.727ZM136.207 273.739C136.215 275.835 137.553 277.6 140.042 277.6C142.522 277.6 143.903 275.852 143.894 273.739V272.818C143.903 270.705 142.556 268.94 140.042 268.94C137.604 268.94 136.215 270.705 136.207 272.818V273.739ZM137.042 287H139.266L151.266 269.546H149.042L137.042 287ZM147.644 282.807C147.653 281.972 147.985 281.111 149.008 281.111C150.082 281.111 150.363 281.972 150.354 282.807V283.727C150.363 284.563 150.048 285.406 149.008 285.406C147.968 285.406 147.653 284.537 147.644 283.727V282.807ZM138.704 272.818C138.712 272.009 139.028 271.122 140.042 271.122C141.116 271.122 141.406 271.983 141.397 272.818V273.739C141.406 274.574 141.082 275.418 140.042 275.418C139.036 275.418 138.712 274.574 138.704 273.739V272.818Z" fill="#004F7F"/>
<path d="M109.824 298.363H108.437V307.522H108.324L101.96 298.363H100.597V310H102.006V300.863H102.119L108.46 310H109.824V298.363Z" fill="#004F7F"/>
<path d="M116.121 310.181C117.893 310.181 119.189 309.295 119.598 307.977L118.303 307.613C117.962 308.522 117.172 308.977 116.121 308.977C114.547 308.977 113.462 307.96 113.399 306.091H119.734V305.522C119.734 302.272 117.803 301.159 115.984 301.159C113.621 301.159 112.053 303.022 112.053 305.704C112.053 308.386 113.598 310.181 116.121 310.181ZM113.399 304.931C113.49 303.574 114.45 302.363 115.984 302.363C117.439 302.363 118.371 303.454 118.371 304.931H113.399Z" fill="#004F7F"/>
<path d="M125.297 313.454C127.388 313.454 129.07 312.5 129.07 310.25V301.272H127.774V302.659H127.638C127.342 302.204 126.797 301.159 125.092 301.159C122.888 301.159 121.365 302.909 121.365 305.591C121.365 308.318 122.956 309.863 125.07 309.863C126.774 309.863 127.32 308.863 127.615 308.386H127.729V310.159C127.729 311.613 126.706 312.272 125.297 312.272C123.712 312.272 123.155 311.437 122.797 310.954L121.729 311.704C122.274 312.619 123.348 313.454 125.297 313.454ZM125.251 308.659C123.57 308.659 122.706 307.386 122.706 305.568C122.706 303.795 123.547 302.363 125.251 302.363C126.888 302.363 127.751 303.681 127.751 305.568C127.751 307.5 126.865 308.659 125.251 308.659Z" fill="#004F7F"/>
<path d="M131.524 310H132.865V304.477C132.865 303.295 133.797 302.431 135.07 302.431C135.428 302.431 135.797 302.5 135.888 302.522V301.159C135.734 301.147 135.382 301.136 135.183 301.136C134.138 301.136 133.229 301.727 132.911 302.591H132.82V301.272H131.524V310Z" fill="#004F7F"/>
<path d="M140.045 310.204C141.568 310.204 142.364 309.386 142.636 308.818H142.705V310H144.045V304.25C144.045 301.477 141.932 301.159 140.818 301.159C139.5 301.159 138 301.613 137.318 303.204L138.591 303.659C138.886 303.022 139.585 302.341 140.864 302.341C142.097 302.341 142.705 302.994 142.705 304.113V304.159C142.705 304.806 142.045 304.75 140.455 304.954C138.835 305.164 137.068 305.522 137.068 307.522C137.068 309.227 138.386 310.204 140.045 310.204ZM140.25 309C139.182 309 138.409 308.522 138.409 307.591C138.409 306.568 139.341 306.25 140.386 306.113C140.955 306.045 142.477 305.886 142.705 305.613V306.841C142.705 307.931 141.841 309 140.25 309Z" fill="#004F7F"/>
<path d="M154.538 310.181C156.902 310.181 158.493 308.386 158.493 305.681C158.493 302.954 156.902 301.159 154.538 301.159C152.175 301.159 150.584 302.954 150.584 305.681C150.584 308.386 152.175 310.181 154.538 310.181ZM154.538 308.977C152.743 308.977 151.925 307.431 151.925 305.681C151.925 303.931 152.743 302.363 154.538 302.363C156.334 302.363 157.152 303.931 157.152 305.681C157.152 307.431 156.334 308.977 154.538 308.977Z" fill="#004F7F"/>
<path d="M104.866 330.204C106.388 330.204 107.184 329.386 107.457 328.818H107.525V330H108.866V324.25C108.866 321.477 106.752 321.159 105.638 321.159C104.32 321.159 102.82 321.613 102.138 323.204L103.411 323.659C103.707 323.022 104.406 322.341 105.684 322.341C106.917 322.341 107.525 322.994 107.525 324.113V324.159C107.525 324.806 106.866 324.75 105.275 324.954C103.656 325.164 101.888 325.522 101.888 327.522C101.888 329.227 103.207 330.204 104.866 330.204ZM105.07 329C104.002 329 103.229 328.522 103.229 327.591C103.229 326.568 104.161 326.25 105.207 326.113C105.775 326.045 107.298 325.886 107.525 325.613V326.841C107.525 327.931 106.661 329 105.07 329Z" fill="#004F7F"/>
<path d="M115.2 321.272H113.245V320.386C113.245 319.522 113.609 319.068 114.495 319.068C114.881 319.068 115.109 319.159 115.245 319.204L115.631 318.045C115.427 317.954 115.018 317.818 114.359 317.818C113.109 317.818 111.904 318.568 111.904 320.068V321.272H110.495V322.409H111.904V330H113.245V322.409H115.2V321.272Z" fill="#004F7F"/>
<path d="M117.079 330H118.42V324.477C118.42 323.295 119.352 322.431 120.624 322.431C120.982 322.431 121.352 322.5 121.442 322.522V321.159C121.289 321.147 120.937 321.136 120.738 321.136C119.692 321.136 118.783 321.727 118.465 322.591H118.374V321.272H117.079V330Z" fill="#004F7F"/>
<path d="M123.032 330H124.373V321.272H123.032V330ZM123.714 319.818C124.237 319.818 124.668 319.409 124.668 318.909C124.668 318.409 124.237 318 123.714 318C123.191 318 122.759 318.409 122.759 318.909C122.759 319.409 123.191 319.818 123.714 319.818Z" fill="#004F7F"/>
<path d="M130.374 330.181C132.306 330.181 133.579 329 133.806 327.454H132.465C132.215 328.409 131.42 328.977 130.374 328.977C128.783 328.977 127.761 327.659 127.761 325.636C127.761 323.659 128.806 322.363 130.374 322.363C131.556 322.363 132.261 323.091 132.465 323.886H133.806C133.579 322.25 132.192 321.159 130.352 321.159C127.988 321.159 126.42 323.022 126.42 325.681C126.42 328.295 127.92 330.181 130.374 330.181Z" fill="#004F7F"/>
<path d="M138.335 330.204C139.857 330.204 140.653 329.386 140.925 328.818H140.994V330H142.335V324.25C142.335 321.477 140.221 321.159 139.107 321.159C137.789 321.159 136.289 321.613 135.607 323.204L136.88 323.659C137.175 323.022 137.874 322.341 139.153 322.341C140.386 322.341 140.994 322.994 140.994 324.113V324.159C140.994 324.806 140.335 324.75 138.744 324.954C137.124 325.164 135.357 325.522 135.357 327.522C135.357 329.227 136.675 330.204 138.335 330.204ZM138.539 329C137.471 329 136.698 328.522 136.698 327.591C136.698 326.568 137.63 326.25 138.675 326.113C139.244 326.045 140.766 325.886 140.994 325.613V326.841C140.994 327.931 140.13 329 138.539 329Z" fill="#004F7F"/>
<path d="M146.123 324.75C146.123 323.227 147.066 322.363 148.35 322.363C149.594 322.363 150.35 323.176 150.35 324.545V330H151.691V324.454C151.691 322.227 150.504 321.159 148.736 321.159C147.418 321.159 146.6 321.75 146.191 322.636H146.077V321.272H144.782V330H146.123V324.75Z" fill="#004F7F"/>
<path d="M156.71 330.204C158.232 330.204 159.028 329.386 159.3 328.818H159.369V330H160.71V324.25C160.71 321.477 158.596 321.159 157.482 321.159C156.164 321.159 154.664 321.613 153.982 323.204L155.255 323.659C155.55 323.022 156.249 322.341 157.528 322.341C158.761 322.341 159.369 322.994 159.369 324.113V324.159C159.369 324.806 158.71 324.75 157.119 324.954C155.499 325.164 153.732 325.522 153.732 327.522C153.732 329.227 155.05 330.204 156.71 330.204ZM156.914 329C155.846 329 155.073 328.522 155.073 327.591C155.073 326.568 156.005 326.25 157.05 326.113C157.619 326.045 159.141 325.886 159.369 325.613V326.841C159.369 327.931 158.505 329 156.914 329Z" fill="#004F7F"/>
<path d="M96.1392 350.204C97.6619 350.204 98.4574 349.386 98.7301 348.818H98.7983V350H100.139V344.25C100.139 341.477 98.0256 341.159 96.9119 341.159C95.5937 341.159 94.0937 341.613 93.4119 343.204L94.6847 343.659C94.9801 343.022 95.679 342.341 96.9574 342.341C98.1903 342.341 98.7983 342.994 98.7983 344.113V344.159C98.7983 344.806 98.1392 344.75 96.5483 344.954C94.929 345.164 93.1619 345.522 93.1619 347.522C93.1619 349.227 94.4801 350.204 96.1392 350.204ZM96.3437 349C95.2756 349 94.5028 348.522 94.5028 347.591C94.5028 346.568 95.4347 346.25 96.4801 346.113C97.0483 346.045 98.571 345.886 98.7983 345.613V346.841C98.7983 347.931 97.9347 349 96.3437 349Z" fill="#004F7F"/>
<path d="M102.587 350H103.928V344.545C103.928 343.267 104.859 342.363 105.905 342.363C106.922 342.363 107.632 343.028 107.632 344.022V350H108.996V344.318C108.996 343.193 109.7 342.363 110.928 342.363C111.882 342.363 112.7 342.869 112.7 344.159V350H114.041V344.159C114.041 342.108 112.939 341.159 111.382 341.159C110.132 341.159 109.217 341.733 108.768 342.636H108.678C108.246 341.704 107.484 341.159 106.337 341.159C105.2 341.159 104.359 341.704 103.996 342.636H103.882V341.272H102.587V350Z" fill="#004F7F"/>
<path d="M120.152 350.181C121.925 350.181 123.22 349.295 123.629 347.977L122.334 347.613C121.993 348.522 121.203 348.977 120.152 348.977C118.578 348.977 117.493 347.96 117.43 346.091H123.766V345.522C123.766 342.272 121.834 341.159 120.016 341.159C117.652 341.159 116.084 343.022 116.084 345.704C116.084 348.386 117.629 350.181 120.152 350.181ZM117.43 344.931C117.521 343.574 118.482 342.363 120.016 342.363C121.47 342.363 122.402 343.454 122.402 344.931H117.43Z" fill="#004F7F"/>
<path d="M125.805 350H127.146V344.477C127.146 343.295 128.078 342.431 129.351 342.431C129.709 342.431 130.078 342.5 130.169 342.522V341.159C130.016 341.147 129.663 341.136 129.464 341.136C128.419 341.136 127.51 341.727 127.192 342.591H127.101V341.272H125.805V350Z" fill="#004F7F"/>
<path d="M131.759 350H133.099V341.272H131.759V350ZM132.44 339.818C132.963 339.818 133.395 339.409 133.395 338.909C133.395 338.409 132.963 338 132.44 338C131.918 338 131.486 338.409 131.486 338.909C131.486 339.409 131.918 339.818 132.44 339.818Z" fill="#004F7F"/>
<path d="M139.101 350.181C141.033 350.181 142.305 349 142.533 347.454H141.192C140.942 348.409 140.146 348.977 139.101 348.977C137.51 348.977 136.487 347.659 136.487 345.636C136.487 343.659 137.533 342.363 139.101 342.363C140.283 342.363 140.987 343.091 141.192 343.886H142.533C142.305 342.25 140.919 341.159 139.078 341.159C136.714 341.159 135.146 343.022 135.146 345.681C135.146 348.295 136.646 350.181 139.101 350.181Z" fill="#004F7F"/>
<path d="M147.061 350.204C148.584 350.204 149.379 349.386 149.652 348.818H149.72V350H151.061V344.25C151.061 341.477 148.947 341.159 147.834 341.159C146.516 341.159 145.016 341.613 144.334 343.204L145.607 343.659C145.902 343.022 146.601 342.341 147.879 342.341C149.112 342.341 149.72 342.994 149.72 344.113V344.159C149.72 344.806 149.061 344.75 147.47 344.954C145.851 345.164 144.084 345.522 144.084 347.522C144.084 349.227 145.402 350.204 147.061 350.204ZM147.266 349C146.197 349 145.425 348.522 145.425 347.591C145.425 346.568 146.357 346.25 147.402 346.113C147.97 346.045 149.493 345.886 149.72 345.613V346.841C149.72 347.931 148.857 349 147.266 349Z" fill="#004F7F"/>
<path d="M154.849 344.75C154.849 343.227 155.793 342.363 157.077 342.363C158.321 342.363 159.077 343.176 159.077 344.545V350H160.418V344.454C160.418 342.227 159.23 341.159 157.463 341.159C156.145 341.159 155.327 341.75 154.918 342.636H154.804V341.272H153.509V350H154.849V344.75Z" fill="#004F7F"/>
<path d="M165.436 350.204C166.959 350.204 167.754 349.386 168.027 348.818H168.095V350H169.436V344.25C169.436 341.477 167.322 341.159 166.209 341.159C164.891 341.159 163.391 341.613 162.709 343.204L163.982 343.659C164.277 343.022 164.976 342.341 166.254 342.341C167.487 342.341 168.095 342.994 168.095 344.113V344.159C168.095 344.806 167.436 344.75 165.845 344.954C164.226 345.164 162.459 345.522 162.459 347.522C162.459 349.227 163.777 350.204 165.436 350.204ZM165.641 349C164.572 349 163.8 348.522 163.8 347.591C163.8 346.568 164.732 346.25 165.777 346.113C166.345 346.045 167.868 345.886 168.095 345.613V346.841C168.095 347.931 167.232 349 165.641 349Z" fill="#004F7F"/>
<path d="M18.5973 287H22.407L29.6513 272.605V269.546H17.4041V272.563H25.8331V272.682L18.5973 287Z" fill="#004F7F"/>
<path d="M32.1804 287H44.6236V283.983H37.294V283.864L39.8423 281.367C43.4304 278.094 44.3935 276.457 44.3935 274.472C44.3935 271.446 41.9219 269.307 38.1804 269.307C34.5156 269.307 32.0014 271.497 32.0099 274.923H35.5128C35.5043 273.253 36.5611 272.23 38.1548 272.23C39.6889 272.23 40.831 273.185 40.831 274.719C40.831 276.108 39.9787 277.063 38.3935 278.588L32.1804 284.341V287Z" fill="#004F7F"/>
<path d="M56.8516 283.727C56.8601 285.824 58.1981 287.605 60.6953 287.605C63.1669 287.605 64.5476 285.824 64.5391 283.727V282.807C64.5476 280.693 63.201 278.929 60.6953 278.929C58.2322 278.929 56.8601 280.71 56.8516 282.807V283.727ZM47.8942 273.739C47.9027 275.835 49.2408 277.6 51.7294 277.6C54.2095 277.6 55.5902 275.852 55.5817 273.739V272.818C55.5902 270.705 54.2436 268.94 51.7294 268.94C49.2919 268.94 47.9027 270.705 47.8942 272.818V273.739ZM48.7294 287H50.9538L62.9538 269.546H60.7294L48.7294 287ZM59.3317 282.807C59.3402 281.972 59.6726 281.111 60.6953 281.111C61.7692 281.111 62.0504 281.972 62.0419 282.807V283.727C62.0504 284.563 61.7351 285.406 60.6953 285.406C59.6555 285.406 59.3402 284.537 59.3317 283.727V282.807ZM50.3913 272.818C50.3998 272.009 50.7152 271.122 51.7294 271.122C52.8033 271.122 53.093 271.983 53.0845 272.818V273.739C53.093 274.574 52.7692 275.418 51.7294 275.418C50.7237 275.418 50.3998 274.574 50.3913 273.739V272.818Z" fill="#004F7F"/>
<path d="M17.6435 310H21.848C24.598 310 25.7344 308.659 25.7344 306.909C25.7344 305.068 24.4617 304.068 23.3935 304V303.886C24.3935 303.613 25.2799 302.954 25.2799 301.454C25.2799 299.75 24.1435 298.363 21.7117 298.363H17.6435V310ZM19.0526 308.75V304.704H21.9162C23.4389 304.704 24.3935 305.727 24.3935 306.909C24.3935 307.931 23.6889 308.75 21.848 308.75H19.0526ZM19.0526 303.477V299.613H21.7117C23.2571 299.613 23.9389 300.431 23.9389 301.454C23.9389 302.681 22.9389 303.477 21.6662 303.477H19.0526Z" fill="#004F7F"/>
<path d="M29.2088 298.363H27.8679V310H29.2088V298.363Z" fill="#004F7F"/>
<path d="M34.233 310.204C35.7557 310.204 36.5512 309.386 36.8239 308.818H36.8921V310H38.233V304.25C38.233 301.477 36.1193 301.159 35.0057 301.159C33.6875 301.159 32.1875 301.613 31.5057 303.204L32.7784 303.659C33.0739 303.022 33.7728 302.341 35.0512 302.341C36.2841 302.341 36.8921 302.994 36.8921 304.113V304.159C36.8921 304.806 36.233 304.75 34.6421 304.954C33.0228 305.164 31.2557 305.522 31.2557 307.522C31.2557 309.227 32.5739 310.204 34.233 310.204ZM34.4375 309C33.3693 309 32.5966 308.522 32.5966 307.591C32.5966 306.568 33.5284 306.25 34.5739 306.113C35.1421 306.045 36.6648 305.886 36.8921 305.613V306.841C36.8921 307.931 36.0284 309 34.4375 309Z" fill="#004F7F"/>
<path d="M42.0213 304.75C42.0213 303.227 42.9645 302.363 44.2486 302.363C45.4929 302.363 46.2486 303.176 46.2486 304.545V310H47.5895V304.454C47.5895 302.227 46.402 301.159 44.635 301.159C43.3168 301.159 42.4986 301.75 42.0895 302.636H41.9759V301.272H40.6804V310H42.0213V304.75Z" fill="#004F7F"/>
<path d="M53.5853 310.181C55.5171 310.181 56.7898 309 57.0171 307.454H55.6762C55.4262 308.409 54.6307 308.977 53.5853 308.977C51.9943 308.977 50.9716 307.659 50.9716 305.636C50.9716 303.659 52.0171 302.363 53.5853 302.363C54.7671 302.363 55.4716 303.091 55.6762 303.886H57.0171C56.7898 302.25 55.4034 301.159 53.5625 301.159C51.1989 301.159 49.6307 303.022 49.6307 305.681C49.6307 308.295 51.1307 310.181 53.5853 310.181Z" fill="#004F7F"/>
<path d="M61.5455 310.204C63.0682 310.204 63.8637 309.386 64.1364 308.818H64.2046V310H65.5455V304.25C65.5455 301.477 63.4318 301.159 62.3182 301.159C61 301.159 59.5 301.613 58.8182 303.204L60.0909 303.659C60.3864 303.022 61.0853 302.341 62.3637 302.341C63.5966 302.341 64.2046 302.994 64.2046 304.113V304.159C64.2046 304.806 63.5455 304.75 61.9546 304.954C60.3353 305.164 58.5682 305.522 58.5682 307.522C58.5682 309.227 59.8864 310.204 61.5455 310.204ZM61.75 309C60.6818 309 59.9091 308.522 59.9091 307.591C59.9091 306.568 60.8409 306.25 61.8864 306.113C62.4546 306.045 63.9773 305.886 64.2046 305.613V306.841C64.2046 307.931 63.3409 309 61.75 309Z" fill="#004F7F"/>
<path d="M218.144 290.239C222.064 290.239 224.868 288.082 224.86 285.1C224.868 282.926 223.488 281.375 220.922 281.051V280.915C222.874 280.565 224.221 279.185 224.212 277.225C224.221 274.472 221.809 272.307 218.195 272.307C214.615 272.307 211.922 274.403 211.871 277.421H215.408C215.451 276.091 216.669 275.23 218.178 275.23C219.669 275.23 220.667 276.134 220.658 277.446C220.667 278.818 219.499 279.747 217.82 279.747H216.192V282.457H217.82C219.797 282.457 221.033 283.446 221.025 284.852C221.033 286.242 219.84 287.196 218.152 287.196C216.525 287.196 215.306 286.344 215.238 285.065H211.522C211.581 288.117 214.309 290.239 218.144 290.239Z" fill="#004F7F"/>
<path d="M237.066 286.727C237.075 288.824 238.413 290.605 240.91 290.605C243.382 290.605 244.762 288.824 244.754 286.727V285.807C244.762 283.693 243.416 281.929 240.91 281.929C238.447 281.929 237.075 283.71 237.066 285.807V286.727ZM228.109 276.739C228.118 278.835 229.456 280.6 231.944 280.6C234.424 280.6 235.805 278.852 235.797 276.739V275.818C235.805 273.705 234.458 271.94 231.944 271.94C229.507 271.94 228.118 273.705 228.109 275.818V276.739ZM228.944 290H231.169L243.169 272.546H240.944L228.944 290ZM239.547 285.807C239.555 284.972 239.887 284.111 240.91 284.111C241.984 284.111 242.265 284.972 242.257 285.807V286.727C242.265 287.563 241.95 288.406 240.91 288.406C239.87 288.406 239.555 287.537 239.547 286.727V285.807ZM230.606 275.818C230.615 275.009 230.93 274.122 231.944 274.122C233.018 274.122 233.308 274.983 233.299 275.818V276.739C233.308 277.574 232.984 278.418 231.944 278.418C230.939 278.418 230.615 277.574 230.606 276.739V275.818Z" fill="#004F7F"/>
<path d="M200.613 313L201.783 309.704H206.488L207.658 313H209.136L204.863 301.363H203.408L199.136 313H200.613ZM202.227 308.454L204.09 303.204H204.181L206.045 308.454H202.227Z" fill="#004F7F"/>
<path d="M216.948 306.227C216.528 304.988 215.585 304.159 213.857 304.159C212.016 304.159 210.653 305.204 210.653 306.681C210.653 307.886 211.369 308.693 212.971 309.068L214.425 309.409C215.306 309.613 215.721 310.034 215.721 310.636C215.721 311.386 214.925 312 213.675 312C212.579 312 211.891 311.528 211.653 310.59L210.38 310.909C210.693 312.392 211.914 313.181 213.698 313.181C215.727 313.181 217.107 312.073 217.107 310.568C217.107 309.352 216.346 308.585 214.789 308.204L213.494 307.886C212.46 307.63 211.994 307.284 211.994 306.613C211.994 305.863 212.789 305.318 213.857 305.318C215.028 305.318 215.511 305.965 215.744 306.568L216.948 306.227Z" fill="#004F7F"/>
<path d="M219.126 313H220.467V304.272H219.126V313ZM219.808 302.818C220.33 302.818 220.762 302.409 220.762 301.909C220.762 301.409 220.33 301 219.808 301C219.285 301 218.853 301.409 218.853 301.909C218.853 302.409 219.285 302.818 219.808 302.818Z" fill="#004F7F"/>
<path d="M225.491 313.204C227.014 313.204 227.809 312.386 228.082 311.818H228.15V313H229.491V307.25C229.491 304.477 227.377 304.159 226.264 304.159C224.945 304.159 223.445 304.613 222.764 306.204L224.036 306.659C224.332 306.022 225.031 305.34 226.309 305.34C227.542 305.34 228.15 305.994 228.15 307.113V307.159C228.15 307.806 227.491 307.75 225.9 307.954C224.281 308.164 222.514 308.522 222.514 310.522C222.514 312.227 223.832 313.204 225.491 313.204ZM225.695 312C224.627 312 223.854 311.522 223.854 310.59C223.854 309.568 224.786 309.25 225.832 309.113C226.4 309.045 227.923 308.886 228.15 308.613V309.84C228.15 310.931 227.286 312 225.695 312ZM225.741 303.09H226.923L228.695 300.454H227.127L225.741 303.09Z" fill="#004F7F"/>
<path d="M235.734 304.272H233.87V302.181H232.529V304.272H231.211V305.409H232.529V310.863C232.529 312.386 233.756 313.113 234.893 313.113C235.393 313.113 235.711 313.022 235.893 312.954L235.62 311.75C235.506 311.772 235.325 311.818 235.029 311.818C234.438 311.818 233.87 311.636 233.87 310.5V305.409H235.734V304.272Z" fill="#004F7F"/>
<path d="M237.751 313H239.092V304.272H237.751V313ZM238.433 302.818C238.955 302.818 239.387 302.409 239.387 301.909C239.387 301.409 238.955 301 238.433 301C237.91 301 237.478 301.409 237.478 301.909C237.478 302.409 237.91 302.818 238.433 302.818Z" fill="#004F7F"/>
<path d="M245.093 313.181C247.025 313.181 248.298 312 248.525 310.454H247.184C246.934 311.409 246.139 311.977 245.093 311.977C243.502 311.977 242.479 310.659 242.479 308.636C242.479 306.659 243.525 305.363 245.093 305.363C246.275 305.363 246.979 306.09 247.184 306.886H248.525C248.298 305.25 246.911 304.159 245.07 304.159C242.707 304.159 241.139 306.022 241.139 308.681C241.139 311.295 242.639 313.181 245.093 313.181Z" fill="#004F7F"/>
<path d="M253.053 313.204C254.576 313.204 255.371 312.386 255.644 311.818H255.712V313H257.053V307.25C257.053 304.477 254.94 304.159 253.826 304.159C252.508 304.159 251.008 304.613 250.326 306.204L251.599 306.659C251.894 306.022 252.593 305.34 253.871 305.34C255.104 305.34 255.712 305.994 255.712 307.113V307.159C255.712 307.806 255.053 307.75 253.462 307.954C251.843 308.164 250.076 308.522 250.076 310.522C250.076 312.227 251.394 313.204 253.053 313.204ZM253.258 312C252.19 312 251.417 311.522 251.417 310.59C251.417 309.568 252.349 309.25 253.394 309.113C253.962 309.045 255.485 308.886 255.712 308.613V309.84C255.712 310.931 254.849 312 253.258 312Z" fill="#004F7F"/>
<path d="M299.18 290.239C303.118 290.239 305.947 288.134 305.956 285.304C305.947 283.122 304.268 281.341 302.172 280.992V280.872C303.995 280.497 305.299 278.921 305.308 277.003C305.299 274.301 302.708 272.307 299.18 272.307C295.643 272.307 293.052 274.301 293.061 277.003C293.052 278.912 294.339 280.497 296.197 280.872V280.992C294.066 281.341 292.404 283.122 292.413 285.304C292.404 288.134 295.243 290.239 299.18 290.239ZM299.18 287.528C297.424 287.528 296.248 286.489 296.248 285.014C296.248 283.506 297.484 282.415 299.18 282.415C300.868 282.415 302.112 283.506 302.112 285.014C302.112 286.497 300.927 287.528 299.18 287.528ZM299.18 279.73C297.706 279.73 296.657 278.767 296.657 277.386C296.657 276.023 297.689 275.085 299.18 275.085C300.663 275.085 301.703 276.031 301.703 277.386C301.703 278.767 300.646 279.73 299.18 279.73Z" fill="#004F7F"/>
<path d="M318.09 286.727C318.098 288.824 319.436 290.605 321.934 290.605C324.405 290.605 325.786 288.824 325.777 286.727V285.807C325.786 283.693 324.439 281.929 321.934 281.929C319.471 281.929 318.098 283.71 318.09 285.807V286.727ZM309.132 276.739C309.141 278.835 310.479 280.6 312.968 280.6C315.448 280.6 316.828 278.852 316.82 276.739V275.818C316.828 273.705 315.482 271.94 312.968 271.94C310.53 271.94 309.141 273.705 309.132 275.818V276.739ZM309.968 290H312.192L324.192 272.546H321.968L309.968 290ZM320.57 285.807C320.578 284.972 320.911 284.111 321.934 284.111C323.007 284.111 323.289 284.972 323.28 285.807V286.727C323.289 287.563 322.973 288.406 321.934 288.406C320.894 288.406 320.578 287.537 320.57 286.727V285.807ZM311.63 275.818C311.638 275.009 311.953 274.122 312.968 274.122C314.042 274.122 314.331 274.983 314.323 275.818V276.739C314.331 277.574 314.007 278.418 312.968 278.418C311.962 278.418 311.638 277.574 311.63 276.739V275.818Z" fill="#004F7F"/>
<path d="M302.001 307.181C302.001 303.5 299.842 301.204 296.864 301.204C293.887 301.204 291.728 303.5 291.728 307.181C291.728 310.863 293.887 313.159 296.864 313.159C299.842 313.159 302.001 310.863 302.001 307.181ZM300.637 307.181C300.637 310.204 298.978 311.84 296.864 311.84C294.751 311.84 293.092 310.204 293.092 307.181C293.092 304.159 294.751 302.522 296.864 302.522C298.978 302.522 300.637 304.159 300.637 307.181Z" fill="#004F7F"/>
<path d="M307.984 304.272H306.12V302.181H304.779V304.272H303.461V305.409H304.779V310.863C304.779 312.386 306.006 313.113 307.143 313.113C307.643 313.113 307.961 313.022 308.143 312.954L307.87 311.75C307.756 311.772 307.575 311.818 307.279 311.818C306.688 311.818 306.12 311.636 306.12 310.5V305.409H307.984V304.272Z" fill="#004F7F"/>
<path d="M310.001 313H311.342V307.477C311.342 306.295 312.273 305.431 313.546 305.431C313.904 305.431 314.273 305.5 314.364 305.522V304.159C314.211 304.147 313.859 304.136 313.66 304.136C312.614 304.136 311.705 304.727 311.387 305.59H311.296V304.272H310.001V313Z" fill="#004F7F"/>
<path d="M318.522 313.204C320.045 313.204 320.84 312.386 321.113 311.818H321.181V313H322.522V307.25C322.522 304.477 320.408 304.159 319.295 304.159C317.977 304.159 316.477 304.613 315.795 306.204L317.067 306.659C317.363 306.022 318.062 305.34 319.34 305.34C320.573 305.34 321.181 305.994 321.181 307.113V307.159C321.181 307.806 320.522 307.75 318.931 307.954C317.312 308.164 315.545 308.522 315.545 310.522C315.545 312.227 316.863 313.204 318.522 313.204ZM318.727 312C317.658 312 316.886 311.522 316.886 310.59C316.886 309.568 317.817 309.25 318.863 309.113C319.431 309.045 320.954 308.886 321.181 308.613V309.84C321.181 310.931 320.317 312 318.727 312Z" fill="#004F7F"/>
<path d="M326.969 311.409H325.515L325.447 312.045C325.282 313.585 324.958 315.119 324.81 315.84H325.833C326.106 315.068 326.685 313.318 326.879 312.022L326.969 311.409Z" fill="#004F7F"/>
<path d="M269.751 333H271.092V324.272H269.751V333ZM270.433 322.818C270.955 322.818 271.387 322.409 271.387 321.909C271.387 321.409 270.955 321 270.433 321C269.91 321 269.478 321.409 269.478 321.909C269.478 322.409 269.91 322.818 270.433 322.818Z" fill="#004F7F"/>
<path d="M274.889 327.75C274.889 326.227 275.832 325.363 277.116 325.363C278.36 325.363 279.116 326.176 279.116 327.545V333H280.457V327.454C280.457 325.227 279.269 324.159 277.502 324.159C276.184 324.159 275.366 324.75 274.957 325.636H274.843V324.272H273.548V333H274.889V327.75Z" fill="#004F7F"/>
<path d="M286.452 333.181C288.384 333.181 289.657 332 289.884 330.454H288.543C288.293 331.409 287.498 331.977 286.452 331.977C284.862 331.977 283.839 330.659 283.839 328.636C283.839 326.659 284.884 325.363 286.452 325.363C287.634 325.363 288.339 326.09 288.543 326.886H289.884C289.657 325.25 288.271 324.159 286.43 324.159C284.066 324.159 282.498 326.022 282.498 328.681C282.498 331.295 283.998 333.181 286.452 333.181Z" fill="#004F7F"/>
<path d="M293.185 321.363H291.844V333H293.185V321.363Z" fill="#004F7F"/>
<path d="M301.141 329.431C301.141 331.068 299.891 331.818 298.891 331.818C297.778 331.818 296.982 331 296.982 329.727V324.272H295.641V329.818C295.641 332.045 296.823 333.113 298.46 333.113C299.778 333.113 300.641 332.409 301.05 331.522H301.141V333H302.482V324.272H301.141V329.431Z" fill="#004F7F"/>
<path d="M305.802 336.272C307.012 336.272 307.864 335.63 308.37 334.272L312.086 324.295L310.62 324.272L308.211 331.227H308.12L305.711 324.272H304.256L307.484 333.045L307.234 333.727C306.745 335.056 306.143 335.181 305.166 334.931L304.825 336.113C304.961 336.181 305.347 336.272 305.802 336.272Z" fill="#004F7F"/>
<path d="M317.207 333.181C318.979 333.181 320.275 332.295 320.684 330.977L319.389 330.613C319.048 331.522 318.258 331.977 317.207 331.977C315.633 331.977 314.548 330.96 314.485 329.09H320.82V328.522C320.82 325.272 318.889 324.159 317.07 324.159C314.707 324.159 313.139 326.022 313.139 328.704C313.139 331.386 314.684 333.181 317.207 333.181ZM314.485 327.931C314.576 326.573 315.536 325.363 317.07 325.363C318.525 325.363 319.457 326.454 319.457 327.931H314.485Z" fill="#004F7F"/>
<path d="M324.201 327.75C324.201 326.227 325.144 325.363 326.428 325.363C327.673 325.363 328.428 326.176 328.428 327.545V333H329.769V327.454C329.769 325.227 328.582 324.159 326.815 324.159C325.496 324.159 324.678 324.75 324.269 325.636H324.156V324.272H322.86V333H324.201V327.75Z" fill="#004F7F"/>
<path d="M335.515 333.181C337.197 333.181 337.765 332.136 338.06 331.659H338.219V333H339.515V321.363H338.174V325.659H338.06C337.765 325.204 337.242 324.159 335.538 324.159C333.333 324.159 331.81 325.909 331.81 328.659C331.81 331.431 333.333 333.181 335.515 333.181ZM335.697 331.977C334.015 331.977 333.151 330.5 333.151 328.636C333.151 326.795 333.992 325.363 335.697 325.363C337.333 325.363 338.197 326.681 338.197 328.636C338.197 330.613 337.31 331.977 335.697 331.977Z" fill="#004F7F"/>
<path d="M345.702 333.181C348.066 333.181 349.657 331.386 349.657 328.681C349.657 325.954 348.066 324.159 345.702 324.159C343.339 324.159 341.748 325.954 341.748 328.681C341.748 331.386 343.339 333.181 345.702 333.181ZM345.702 331.977C343.907 331.977 343.089 330.431 343.089 328.681C343.089 326.931 343.907 325.363 345.702 325.363C347.498 325.363 348.316 326.931 348.316 328.681C348.316 330.431 347.498 331.977 345.702 331.977Z" fill="#004F7F"/>
<path d="M269.188 353H270.529V347.545C270.529 346.267 271.461 345.363 272.506 345.363C273.523 345.363 274.234 346.028 274.234 347.022V353H275.597V347.318C275.597 346.193 276.302 345.363 277.529 345.363C278.484 345.363 279.302 345.869 279.302 347.159V353H280.643V347.159C280.643 345.108 279.541 344.159 277.984 344.159C276.734 344.159 275.819 344.733 275.37 345.636H275.279C274.847 344.704 274.086 344.159 272.938 344.159C271.802 344.159 270.961 344.704 270.597 345.636H270.484V344.272H269.188V353Z" fill="#004F7F"/>
<path d="M288.594 349.431C288.594 351.068 287.344 351.818 286.344 351.818C285.231 351.818 284.435 351 284.435 349.727V344.272H283.094V349.818C283.094 352.045 284.276 353.113 285.913 353.113C287.231 353.113 288.094 352.409 288.504 351.522H288.594V353H289.935V344.272H288.594V349.431Z" fill="#004F7F"/>
<path d="M293.732 341.363H292.391V353H293.732V341.363Z" fill="#004F7F"/>
<path d="M299.984 344.272H298.12V342.181H296.779V344.272H295.461V345.409H296.779V350.863C296.779 352.386 298.006 353.113 299.143 353.113C299.643 353.113 299.961 353.022 300.143 352.954L299.87 351.75C299.756 351.772 299.575 351.818 299.279 351.818C298.688 351.818 298.12 351.636 298.12 350.5V345.409H299.984V344.272Z" fill="#004F7F"/>
<path d="M302.001 353H303.342V344.272H302.001V353ZM302.683 342.818C303.205 342.818 303.637 342.409 303.637 341.909C303.637 341.409 303.205 341 302.683 341C302.16 341 301.728 341.409 301.728 341.909C301.728 342.409 302.16 342.818 302.683 342.818Z" fill="#004F7F"/>
<path d="M305.798 353H307.139V347.477C307.139 346.295 308.07 345.431 309.343 345.431C309.701 345.431 310.07 345.5 310.161 345.522V344.159C310.008 344.147 309.656 344.136 309.457 344.136C308.411 344.136 307.502 344.727 307.184 345.59H307.093V344.272H305.798V353Z" fill="#004F7F"/>
<path d="M311.751 353H313.092V347.477C313.092 346.295 314.023 345.431 315.296 345.431C315.654 345.431 316.023 345.5 316.114 345.522V344.159C315.961 344.147 315.609 344.136 315.41 344.136C314.364 344.136 313.455 344.727 313.137 345.59H313.046V344.272H311.751V353Z" fill="#004F7F"/>
<path d="M320.272 353.204C321.795 353.204 322.59 352.386 322.863 351.818H322.931V353H324.272V347.25C324.272 344.477 322.158 344.159 321.045 344.159C319.727 344.159 318.227 344.613 317.545 346.204L318.817 346.659C319.113 346.022 319.812 345.34 321.09 345.34C322.323 345.34 322.931 345.994 322.931 347.113V347.159C322.931 347.806 322.272 347.75 320.681 347.954C319.062 348.164 317.295 348.522 317.295 350.522C317.295 352.227 318.613 353.204 320.272 353.204ZM320.477 352C319.408 352 318.636 351.522 318.636 350.59C318.636 349.568 319.567 349.25 320.613 349.113C321.181 349.045 322.704 348.886 322.931 348.613V349.84C322.931 350.931 322.067 352 320.477 352Z" fill="#004F7F"/>
<path d="M330.265 353.181C332.197 353.181 333.469 352 333.697 350.454H332.356C332.106 351.409 331.31 351.977 330.265 351.977C328.674 351.977 327.651 350.659 327.651 348.636C327.651 346.659 328.697 345.363 330.265 345.363C331.447 345.363 332.151 346.09 332.356 346.886H333.697C333.469 345.25 332.083 344.159 330.242 344.159C327.879 344.159 326.31 346.022 326.31 348.681C326.31 351.295 327.81 353.181 330.265 353.181Z" fill="#004F7F"/>
<path d="M335.657 353H336.998V344.272H335.657V353ZM336.339 342.818C336.862 342.818 337.293 342.409 337.293 341.909C337.293 341.409 336.862 341 336.339 341C335.816 341 335.384 341.409 335.384 341.909C335.384 342.409 335.816 342.818 336.339 342.818Z" fill="#004F7F"/>
<path d="M342.022 353.204C343.545 353.204 344.34 352.386 344.613 351.818H344.681V353H346.022V347.25C346.022 344.477 343.908 344.159 342.795 344.159C341.477 344.159 339.977 344.613 339.295 346.204L340.567 346.659C340.863 346.022 341.562 345.34 342.84 345.34C344.073 345.34 344.681 345.994 344.681 347.113V347.159C344.681 347.806 344.022 347.75 342.431 347.954C340.812 348.164 339.045 348.522 339.045 350.522C339.045 352.227 340.363 353.204 342.022 353.204ZM342.227 352C341.158 352 340.386 351.522 340.386 350.59C340.386 349.568 341.317 349.25 342.363 349.113C342.931 349.045 344.454 348.886 344.681 348.613V349.84C344.681 350.931 343.817 352 342.227 352Z" fill="#004F7F"/>
<path d="M349.81 341.363H348.469V353H349.81V341.363Z" fill="#004F7F"/>
</g>
<defs>
<clipPath id="clip0">
<rect width="369" height="383" fill="white"/>
</clipPath>
</defs>
</svg>
