<svg width="342" height="271" viewBox="0 0 342 271" fill="none" xmlns="http://www.w3.org/2000/svg">
<g clip-path="url(#clip0)">
<path opacity="0.3" d="M345.568 270.718H50.4319C35.8125 270.718 24 259.821 24 246.335V243.476C24 229.99 35.8125 219.093 50.4319 219.093H345.568C360.187 219.093 372 229.99 372 243.476V246.335C372 259.821 360.187 270.718 345.568 270.718Z" fill="#7AC142"/>
<path d="M129.885 76.7333C124.005 76.7333 119.204 71.9322 119.204 66.0523V59.2552C119.204 53.3753 124.005 48.5742 129.885 48.5742C135.765 48.5742 140.566 53.3753 140.566 59.2552V66.0523C140.566 71.9322 135.765 76.7333 129.885 76.7333Z" fill="#E8BB8B"/>
<path d="M136.305 112.282L114.241 92.6465C112.137 90.7584 111.922 87.5217 113.81 85.4179C115.698 83.314 118.934 83.0983 121.038 84.9863L143.102 104.622C145.205 106.51 145.421 109.747 143.533 111.851C141.645 113.955 138.408 114.116 136.305 112.282Z" fill="#FC857A"/>
<path d="M150.222 136.989L148.981 142.437C148.55 144.272 146.662 145.404 144.828 144.865C143.047 144.326 142.076 142.491 142.616 140.711L144.504 134.777L150.222 136.989Z" fill="#E8BB8B"/>
<path d="M111.706 137.529L112.785 143.032C113.162 144.866 111.868 146.646 109.98 146.916C108.145 147.131 106.473 145.837 106.311 144.003L105.664 137.799L111.706 137.529Z" fill="#E8BB8B"/>
<path d="M157.99 104.298C160.364 105.108 161.551 107.697 160.687 110.017L150.168 137.366L144.073 135.263L152.434 107.211C153.081 104.784 155.617 103.489 157.99 104.298Z" fill="#7AC142"/>
<path d="M104.963 104.083C107.444 103.813 109.656 105.647 109.818 108.129L111.868 137.367L105.448 138.068L101.133 109.1C100.755 106.618 102.481 104.353 104.963 104.083Z" fill="#7AC142"/>
<path d="M145.691 136.181L146.176 234.629C146.122 237.273 143.965 239.377 141.321 239.377H140.027C137.491 239.377 135.387 237.381 135.226 234.845L130.964 158.568C130.964 158.298 130.694 158.082 130.425 158.082C130.155 158.082 129.885 158.298 129.885 158.622L127.997 234.899C127.943 237.542 125.785 239.646 123.142 239.646H121.362C118.826 239.646 116.669 237.65 116.561 235.115L114.403 137.314L145.691 136.181Z" fill="#079BD6"/>
<path d="M160.741 106.726L149.413 87.1984C147.417 83.0986 143.209 80.5093 138.624 80.4553L121.2 80.4014C116.291 80.4014 111.868 83.3144 110.033 87.8457L101.348 105.863C100.377 108.183 101.51 110.826 103.83 111.797C106.149 112.768 108.793 111.635 109.764 109.316L113.54 103.166L113.864 138.23C113.917 140.172 115.482 141.682 117.424 141.682H142.184C144.126 141.682 145.691 140.118 145.745 138.23L146.122 100.199L152.542 110.718C153.675 112.984 156.372 113.901 158.637 112.822C160.957 111.689 161.874 108.938 160.741 106.726Z" fill="#7AC142"/>
<path d="M198.125 76.7333C192.245 76.7333 187.444 71.9322 187.444 66.0523V59.2552C187.444 53.3753 192.245 48.5742 198.125 48.5742C204.005 48.5742 208.806 53.3753 208.806 59.2552V66.0523C208.86 71.9322 204.059 76.7333 198.125 76.7333Z" fill="#A3785A"/>
<path d="M204.598 112.282L182.535 92.6465C180.431 90.7584 180.215 87.5217 182.103 85.4179C183.991 83.314 187.228 83.0983 189.332 84.9863L211.395 104.622C213.499 106.51 213.715 109.747 211.827 111.851C209.939 113.955 206.702 114.116 204.598 112.282Z" fill="#FC857A"/>
<path d="M226.284 138.284L226.985 143.84C227.201 145.728 225.798 147.4 223.91 147.508C222.076 147.616 220.512 146.214 220.458 144.379L220.242 138.176L226.284 138.284Z" fill="#A3785A"/>
<path d="M172.285 139.524L171.045 144.973C170.613 146.807 168.725 147.94 166.891 147.4C165.111 146.861 164.14 145.027 164.679 143.246L166.567 137.312L172.285 139.524Z" fill="#8C6449"/>
<path d="M222.4 104.893C224.881 104.839 226.931 106.889 226.877 109.37L226.284 138.662L219.865 138.77L218.138 109.532C217.976 107.05 219.918 104.947 222.4 104.893Z" fill="#FF6A52"/>
<path d="M179.676 106.187C182.049 106.942 183.29 109.531 182.481 111.851L172.501 139.417L166.352 137.475L174.12 109.262C174.767 106.78 177.302 105.432 179.676 106.187Z" fill="#FF6A52"/>
<path d="M213.985 136.181L214.47 234.629C214.416 237.273 212.258 239.377 209.615 239.377H208.32C205.785 239.377 203.681 237.381 203.519 234.845L199.258 158.568C199.258 158.298 198.988 158.082 198.718 158.082C198.449 158.082 198.179 158.298 198.179 158.622L196.291 234.899C196.237 237.542 194.079 239.646 191.436 239.646H189.656C187.12 239.646 184.962 237.65 184.855 235.115L182.697 137.314L213.985 136.181Z" fill="#079BD6"/>
<path d="M226.5 107.536L215.171 87.1447C213.175 83.0449 208.968 80.4555 204.382 80.4016L192.029 80.3477C187.12 80.3477 182.265 83.2607 180.431 87.792L174.174 107.859C173.203 110.179 174.335 112.822 176.655 113.793C178.975 114.764 181.618 113.631 182.589 111.312L183.56 107.59L181.348 146.861C181.402 148.803 182.966 150.314 184.909 150.314H211.395C213.337 150.314 214.902 148.749 214.956 146.861L212.744 102.195L218.354 111.474C219.487 113.739 222.184 114.656 224.45 113.578C226.716 112.553 227.633 109.801 226.5 107.536Z" fill="#FF6A52"/>
<path d="M206.54 48.5743C209.237 50.0847 211.287 52.728 211.018 56.0187C211.072 55.3174 213.553 58.608 213.661 58.8238C214.848 61.0894 213.931 64.1643 211.665 65.405C218.894 67.5089 211.773 78.7833 206.972 73.9822C205.461 72.4717 207.295 69.0193 207.242 66.9694C207.134 61.6289 204.275 56.9357 200.93 52.9438C199.905 51.7031 196.183 49.0059 198.179 47.7112C200.283 46.3626 204.221 47.3875 206.163 48.4125C206.324 48.4664 206.432 48.5204 206.54 48.5743Z" fill="#01527A"/>
<path d="M191.112 47.1176C188.847 47.4952 186.743 49.653 187.336 51.8108C185.88 52.0266 184.531 53.1594 184.153 54.6159C183.722 56.0724 184.261 57.6908 185.394 58.6618C183.614 58.8236 182.05 60.1722 181.618 61.8984C181.186 63.6247 181.942 65.5667 183.398 66.5377C181.672 68.4257 180.863 71.2848 181.996 73.6044C183.128 75.924 186.311 77.0569 188.361 75.6003C189.979 74.4136 190.411 72.1479 190.087 70.1519C189.764 68.156 188.954 66.3219 188.523 64.3799C187.768 60.9814 188.415 57.3671 190.249 54.4001C191.652 52.1884 195.212 48.8978 197.963 48.8438C197.801 48.8438 195.751 47.3873 195.05 47.2255C193.756 47.0097 192.407 46.9018 191.112 47.1176Z" fill="#01527A"/>
<path d="M190.842 51.5406C190.141 53.3208 189.817 55.3167 188.631 56.8272C193.432 56.9351 198.071 53.4287 199.258 48.7895C199.258 48.7355 194.78 48.0342 194.241 48.1421C192.569 48.5737 191.436 50.0302 190.842 51.5406Z" fill="#01527A"/>
<path d="M133.985 51.9187C134.74 54.6159 136.304 57.0974 138.462 58.9315C139.056 59.417 139.865 59.9025 140.512 59.5788C141.321 59.2012 141.375 58.1223 141.213 57.2592C140.512 53.2673 137.545 49.7609 133.769 48.3584C129.939 46.9558 125.462 47.711 122.333 50.3004C120.337 51.9187 115.913 58.4999 118.88 60.8735C121.632 63.0852 127.727 59.417 129.831 57.6368C131.611 56.1264 133.122 54.1304 133.985 51.9187Z" fill="#E5B01C"/>
<path d="M143.052 10.5652H146.589C146.538 7.45437 143.981 5.30664 140.095 5.30664C136.268 5.30664 133.464 7.42028 133.481 10.5907C133.473 13.1646 135.288 14.639 138.237 15.3464L140.137 15.8237C142.038 16.2839 143.095 16.8294 143.103 18.0055C143.095 19.2839 141.885 20.1532 140.01 20.1532C138.092 20.1532 136.711 19.2669 136.592 17.5197H133.021C133.115 21.2953 135.816 23.247 140.052 23.247C144.314 23.247 146.819 21.21 146.828 18.014C146.819 15.1078 144.629 13.5652 141.595 12.8833L140.027 12.5083C138.51 12.1589 137.24 11.5964 137.265 10.3436C137.265 9.21857 138.262 8.39187 140.069 8.39187C141.833 8.39187 142.916 9.193 143.052 10.5652Z" fill="#002D44"/>
<path d="M155.208 23.2555C158.446 23.2555 160.628 21.6788 161.14 19.2498L157.782 19.0282C157.415 20.0254 156.478 20.5453 155.267 20.5453C153.452 20.5453 152.301 19.3436 152.301 17.3919V17.3833H161.216V16.3862C161.216 11.9373 158.523 9.73846 155.063 9.73846C151.211 9.73846 148.713 12.4743 148.713 16.514C148.713 20.6646 151.176 23.2555 155.208 23.2555ZM152.301 15.1333C152.378 13.6419 153.512 12.4487 155.122 12.4487C156.699 12.4487 157.79 13.5737 157.799 15.1333H152.301Z" fill="#002D44"/>
<path d="M166.409 9.90891H162.659L166.409 16.4544L162.522 22.9998H166.272L168.812 18.4743L171.395 22.9998H175.102L171.207 16.4544L175 9.90891H171.275L168.812 14.4856L166.409 9.90891Z" fill="#002D44"/>
<path d="M182.578 23.2555C186.55 23.2555 189.022 20.5368 189.022 16.5055C189.022 12.4487 186.55 9.73846 182.578 9.73846C178.607 9.73846 176.135 12.4487 176.135 16.5055C176.135 20.5368 178.607 23.2555 182.578 23.2555ZM182.596 20.443C180.763 20.443 179.826 18.764 179.826 16.4799C179.826 14.1958 180.763 12.5083 182.596 12.5083C184.394 12.5083 185.331 14.1958 185.331 16.4799C185.331 18.764 184.394 20.443 182.596 20.443Z" fill="#002D44"/>
<path d="M42.9538 164.239C46.8402 164.239 49.4822 161.707 49.4737 158.179C49.4822 154.838 47.147 152.435 44.0021 152.435C42.468 152.435 41.147 153.074 40.5334 153.935H40.4311L40.8828 149.563H48.5107V146.546H37.8402L37.0135 155.75L40.2947 156.338C40.8317 155.614 41.8714 155.162 42.9027 155.162C44.6584 155.171 45.9197 156.44 45.9197 158.273C45.9197 160.088 44.6839 161.341 42.9538 161.341C41.4879 161.341 40.3033 160.421 40.218 159.065H36.6385C36.7067 162.082 39.3402 164.239 42.9538 164.239Z" fill="#004F7F"/>
<path d="M59.6413 146.546H56.1726L51.8516 149.281V152.554L55.8487 150.048H55.951V164H59.6413V146.546Z" fill="#004F7F"/>
<path d="M73.3437 160.727C73.3523 162.824 74.6903 164.605 77.1875 164.605C79.6591 164.605 81.0398 162.824 81.0312 160.727V159.807C81.0398 157.693 79.6932 155.929 77.1875 155.929C74.7244 155.929 73.3523 157.71 73.3437 159.807V160.727ZM64.3864 150.739C64.3949 152.835 65.7329 154.6 68.2216 154.6C70.7017 154.6 72.0824 152.852 72.0739 150.739V149.818C72.0824 147.705 70.7358 145.94 68.2216 145.94C65.7841 145.94 64.3949 147.705 64.3864 149.818V150.739ZM65.2216 164H67.446L79.446 146.546H77.2216L65.2216 164ZM75.8239 159.807C75.8324 158.972 76.1648 158.111 77.1875 158.111C78.2614 158.111 78.5426 158.972 78.5341 159.807V160.727C78.5426 161.563 78.2273 162.406 77.1875 162.406C76.1477 162.406 75.8324 161.537 75.8239 160.727V159.807ZM66.8835 149.818C66.892 149.009 67.2074 148.122 68.2216 148.122C69.2954 148.122 69.5852 148.983 69.5767 149.818V150.739C69.5852 151.574 69.2614 152.418 68.2216 152.418C67.2159 152.418 66.892 151.574 66.8835 150.739V149.818Z" fill="#004F7F"/>
<path d="M19.3651 182.75C19.3651 181.227 20.3367 180.363 21.6605 180.363C22.9219 180.363 23.6833 181.159 23.6833 182.545V188H25.0242V182.454C25.0242 180.21 23.831 179.159 22.0469 179.159C20.6719 179.159 19.8878 179.733 19.4787 180.636H19.3651V176.363H18.0242V188H19.3651V182.75Z" fill="#004F7F"/>
<path d="M31.0228 188.181C33.3864 188.181 34.9773 186.386 34.9773 183.681C34.9773 180.954 33.3864 179.159 31.0228 179.159C28.6591 179.159 27.0682 180.954 27.0682 183.681C27.0682 186.386 28.6591 188.181 31.0228 188.181ZM31.0228 186.977C29.2273 186.977 28.4091 185.431 28.4091 183.681C28.4091 181.931 29.2273 180.363 31.0228 180.363C32.8182 180.363 33.6364 181.931 33.6364 183.681C33.6364 185.431 32.8182 186.977 31.0228 186.977Z" fill="#004F7F"/>
<path d="M37.0242 188H38.3651V182.545C38.3651 181.267 39.2969 180.363 40.3424 180.363C41.3594 180.363 42.0696 181.028 42.0696 182.022V188H43.4333V182.318C43.4333 181.193 44.1378 180.363 45.3651 180.363C46.3196 180.363 47.1378 180.869 47.1378 182.159V188H48.4787V182.159C48.4787 180.108 47.3764 179.159 45.8196 179.159C44.5696 179.159 43.6549 179.733 43.206 180.636H43.1151C42.6833 179.704 41.9219 179.159 40.7742 179.159C39.6378 179.159 38.7969 179.704 38.4333 180.636H38.3196V179.272H37.0242V188Z" fill="#004F7F"/>
<path d="M51.1122 188H52.4077V186.659H52.5668C52.8622 187.136 53.4304 188.181 55.1122 188.181C57.2941 188.181 58.8168 186.431 58.8168 183.659C58.8168 180.909 57.2941 179.159 55.0895 179.159C53.385 179.159 52.8622 180.204 52.5668 180.659H52.4531V176.363H51.1122V188ZM52.4304 183.636C52.4304 181.681 53.2941 180.363 54.9304 180.363C56.635 180.363 57.4759 181.795 57.4759 183.636C57.4759 185.5 56.6122 186.977 54.9304 186.977C53.3168 186.977 52.4304 185.613 52.4304 183.636Z" fill="#004F7F"/>
<path d="M60.8679 188H62.2088V182.477C62.2088 181.295 63.1406 180.431 64.4134 180.431C64.7713 180.431 65.1407 180.5 65.2316 180.522V179.159C65.0782 179.147 64.7259 179.136 64.527 179.136C63.4816 179.136 62.5725 179.727 62.2543 180.591H62.1634V179.272H60.8679V188Z" fill="#004F7F"/>
<path d="M70.2145 188.181C71.9872 188.181 73.2827 187.295 73.6918 185.977L72.3963 185.613C72.0554 186.522 71.2657 186.977 70.2145 186.977C68.6407 186.977 67.5554 185.96 67.4929 184.091H73.8281V183.522C73.8281 180.272 71.8963 179.159 70.0781 179.159C67.7145 179.159 66.1463 181.022 66.1463 183.704C66.1463 186.386 67.6918 188.181 70.2145 188.181ZM67.4929 182.931C67.5838 181.574 68.5441 180.363 70.0781 180.363C71.5327 180.363 72.4645 181.454 72.4645 182.931H67.4929Z" fill="#004F7F"/>
<path d="M82.0497 181.227C81.6293 179.988 80.6861 179.159 78.9588 179.159C77.1179 179.159 75.7543 180.204 75.7543 181.681C75.7543 182.886 76.4702 183.693 78.0725 184.068L79.527 184.409C80.4077 184.613 80.8225 185.034 80.8225 185.636C80.8225 186.386 80.027 187 78.777 187C77.6804 187 76.9929 186.528 76.7543 185.591L75.4816 185.909C75.7941 187.392 77.0156 188.181 78.7997 188.181C80.8281 188.181 82.2088 187.074 82.2088 185.568C82.2088 184.352 81.4475 183.585 79.8906 183.204L78.5952 182.886C77.5611 182.63 77.0952 182.284 77.0952 181.613C77.0952 180.863 77.8906 180.318 78.9588 180.318C80.1293 180.318 80.6122 180.966 80.8452 181.568L82.0497 181.227Z" fill="#004F7F"/>
<path d="M242.151 160.932H250.528V164H254.057V160.932H256.222V157.975H254.057V146.546H249.438L242.151 158.026V160.932ZM250.597 157.975H245.866V157.838L250.46 150.568H250.597V157.975Z" fill="#004F7F"/>
<path d="M264.996 146.307C261.092 146.29 258.459 148.847 258.476 152.358C258.484 155.614 260.743 157.975 263.837 157.975C265.754 157.975 267.459 157.046 268.234 155.511H268.354C268.345 158.972 267.143 161.077 264.868 161.077C263.53 161.077 262.567 160.344 262.286 159.074H258.646C258.987 162.014 261.374 164.239 264.868 164.239C269.189 164.239 271.976 160.744 271.967 154.821C271.959 148.497 268.584 146.324 264.996 146.307ZM265.021 149.205C266.717 149.205 267.97 150.585 267.987 152.247C267.996 153.918 266.675 155.298 264.987 155.298C263.283 155.298 262.064 153.969 262.055 152.256C262.038 150.551 263.308 149.205 265.021 149.205Z" fill="#004F7F"/>
<path d="M284.078 160.727C284.087 162.824 285.425 164.605 287.922 164.605C290.393 164.605 291.774 162.824 291.766 160.727V159.807C291.774 157.693 290.428 155.929 287.922 155.929C285.459 155.929 284.087 157.71 284.078 159.807V160.727ZM275.121 150.739C275.129 152.835 276.467 154.6 278.956 154.6C281.436 154.6 282.817 152.852 282.808 150.739V149.818C282.817 147.705 281.47 145.94 278.956 145.94C276.518 145.94 275.129 147.705 275.121 149.818V150.739ZM275.956 164H278.18L290.18 146.546H287.956L275.956 164ZM286.558 159.807C286.567 158.972 286.899 158.111 287.922 158.111C288.996 158.111 289.277 158.972 289.268 159.807V160.727C289.277 161.563 288.962 162.406 287.922 162.406C286.882 162.406 286.567 161.537 286.558 160.727V159.807ZM277.618 149.818C277.626 149.009 277.942 148.122 278.956 148.122C280.03 148.122 280.32 148.983 280.311 149.818V150.739C280.32 151.574 279.996 152.418 278.956 152.418C277.95 152.418 277.626 151.574 277.618 150.739V149.818Z" fill="#004F7F"/>
<path d="M242.227 188H243.568V182.545C243.568 181.267 244.5 180.364 245.545 180.364C246.563 180.364 247.273 181.028 247.273 182.023V188H248.636V182.318C248.636 181.193 249.341 180.364 250.568 180.364C251.523 180.364 252.341 180.869 252.341 182.159V188H253.682V182.159C253.682 180.108 252.58 179.159 251.023 179.159C249.773 179.159 248.858 179.733 248.409 180.636H248.318C247.886 179.705 247.125 179.159 245.977 179.159C244.841 179.159 244 179.705 243.636 180.636H243.523V179.273H242.227V188Z" fill="#004F7F"/>
<path d="M261.634 184.432C261.634 186.068 260.384 186.818 259.384 186.818C258.27 186.818 257.474 186 257.474 184.727V179.273H256.134V184.818C256.134 187.045 257.315 188.114 258.952 188.114C260.27 188.114 261.134 187.409 261.543 186.523H261.634V188H262.974V179.273H261.634V184.432Z" fill="#004F7F"/>
<path d="M265.43 179.273V188.636C265.43 189.523 265.067 190.023 264.249 190.023H263.999V191.273H264.271C265.953 191.273 266.771 190.25 266.771 188.636V179.273H265.43ZM266.09 177.818C266.612 177.818 267.044 177.409 267.044 176.909C267.044 176.409 266.612 176 266.09 176C265.567 176 265.135 176.409 265.135 176.909C265.135 177.409 265.567 177.818 266.09 177.818Z" fill="#004F7F"/>
<path d="M272.886 188.182C274.659 188.182 275.955 187.295 276.364 185.977L275.068 185.614C274.727 186.523 273.938 186.977 272.886 186.977C271.313 186.977 270.227 185.96 270.165 184.091H276.5V183.523C276.5 180.273 274.568 179.159 272.75 179.159C270.386 179.159 268.818 181.023 268.818 183.705C268.818 186.386 270.364 188.182 272.886 188.182ZM270.165 182.932C270.256 181.574 271.216 180.364 272.75 180.364C274.205 180.364 275.136 181.455 275.136 182.932H270.165Z" fill="#004F7F"/>
<path d="M278.54 188H279.881V182.477C279.881 181.295 280.813 180.432 282.085 180.432C282.443 180.432 282.813 180.5 282.903 180.523V179.159C282.75 179.148 282.398 179.136 282.199 179.136C281.153 179.136 280.244 179.727 279.926 180.591H279.835V179.273H278.54V188Z" fill="#004F7F"/>
<path d="M287.886 188.182C289.659 188.182 290.955 187.295 291.364 185.977L290.068 185.614C289.727 186.523 288.938 186.977 287.886 186.977C286.313 186.977 285.227 185.96 285.165 184.091H291.5V183.523C291.5 180.273 289.568 179.159 287.75 179.159C285.386 179.159 283.818 181.023 283.818 183.705C283.818 186.386 285.364 188.182 287.886 188.182ZM285.165 182.932C285.256 181.574 286.216 180.364 287.75 180.364C289.205 180.364 290.136 181.455 290.136 182.932H285.165Z" fill="#004F7F"/>
<path d="M299.722 181.227C299.301 179.989 298.358 179.159 296.631 179.159C294.79 179.159 293.426 180.205 293.426 181.682C293.426 182.886 294.142 183.693 295.744 184.068L297.199 184.409C298.08 184.614 298.494 185.034 298.494 185.636C298.494 186.386 297.699 187 296.449 187C295.352 187 294.665 186.528 294.426 185.591L293.153 185.909C293.466 187.392 294.688 188.182 296.472 188.182C298.5 188.182 299.881 187.074 299.881 185.568C299.881 184.352 299.119 183.585 297.563 183.205L296.267 182.886C295.233 182.631 294.767 182.284 294.767 181.614C294.767 180.864 295.563 180.318 296.631 180.318C297.801 180.318 298.284 180.966 298.517 181.568L299.722 181.227Z" fill="#004F7F"/>
</g>
<defs>
<clipPath id="clip0">
<rect width="342" height="271" fill="white"/>
</clipPath>
</defs>
</svg>
