<svg width="424" height="280" viewBox="0 0 424 280" fill="none" xmlns="http://www.w3.org/2000/svg">
<g clip-path="url(#clip0)">
<path opacity="0.2" d="M354.844 189.405H196.395C196.395 174.561 184.378 162.543 169.536 162.543H0.0506592V280H133.099H163.617H285.213H370.309H424V189.405C424 182.415 418.348 176.762 411.358 176.762H367.515C360.495 176.762 354.844 182.415 354.844 189.405Z" fill="#7AC142"/>
<path opacity="0.15" d="M366.285 18.0133V16.7655C366.285 10.2766 361.012 5 354.529 5H284.74C278.257 5 272.984 10.2766 272.984 16.7655V18.0133C272.984 24.5022 278.257 29.7788 284.74 29.7788H313.703C320.187 29.7788 325.459 35.0554 325.459 41.5443V52.7036C325.459 59.1924 320.187 64.4691 313.703 64.4691H207.756C201.272 64.4691 196 69.7457 196 76.2345C196 82.7234 201.272 88 207.756 88H407.11C413.594 88 418.866 82.7234 418.866 76.2345C418.866 69.7457 424.139 64.4691 430.622 64.4691H453.244C459.728 64.4691 465 59.1924 465 52.7036V41.5443C465 35.0554 459.728 29.7788 453.244 29.7788H378.041C371.557 29.7788 366.285 24.5022 366.285 18.0133Z" fill="#007AB7"/>
<path opacity="0.15" d="M87.2324 21.9243V16.8076C87.2324 7.52624 79.707 0 70.4267 0H1.80573C-7.4746 0 -15 7.52624 -15 16.8076V21.9243C-15 31.2056 -7.4746 38.7319 1.80573 38.7319H5.16688C14.4472 38.7319 21.9726 46.2581 21.9726 55.5395V60.6562C21.9726 69.9375 29.498 77.4638 38.7783 77.4638H107.399C116.68 77.4638 124.205 69.9375 124.205 60.6562V55.5395C124.205 46.2581 116.68 38.7319 107.399 38.7319H104.038C94.7578 38.7319 87.2324 31.2056 87.2324 21.9243Z" fill="#007AB7"/>
<path d="M61.8305 64.999V44.2945C61.8305 42.6583 60.492 41.3197 58.856 41.3197H52.8773V31.6516C52.8773 30.0154 51.5388 28.6768 49.9029 28.6768H44.2811C42.6452 28.6768 41.3067 30.0154 41.3067 31.6516V41.3197H35.328C33.692 41.3197 32.3535 42.6583 32.3535 44.2945V64.999H26.1964C24.5604 64.999 23.2219 66.3377 23.2219 67.9738V196.039H70.9621V67.9738C70.9621 66.3377 69.6236 64.999 67.9876 64.999H61.8305Z" fill="#079BD6"/>
<path d="M140.802 71.9307H102.61H94.6388C92.4972 71.9307 90.772 73.1801 90.772 74.7567V196.039H152.581V74.7567C152.581 73.2098 150.856 71.9307 148.715 71.9307H140.802Z" fill="#60C3EF"/>
<path d="M123.491 85.9121H81.2835C79.6178 85.9121 78.2495 87.2508 78.2495 88.9464V207.73C78.2495 209.396 79.588 210.764 81.2835 210.764H123.491C125.157 210.764 126.525 209.426 126.525 207.73V88.9464C126.525 87.2805 125.157 85.9121 123.491 85.9121Z" fill="#007AB7"/>
<path d="M93.2706 105.129H89.2253C87.4406 105.129 85.9832 103.672 85.9832 101.887V97.8412C85.9832 96.0563 87.4406 94.5986 89.2253 94.5986H93.2706C95.0553 94.5986 96.5128 96.0563 96.5128 97.8412V101.887C96.483 103.702 95.0553 105.129 93.2706 105.129Z" fill="#7AC142"/>
<path d="M114.627 105.129H110.582C108.797 105.129 107.34 103.672 107.34 101.887V97.8412C107.34 96.0563 108.797 94.5986 110.582 94.5986H114.627C116.412 94.5986 117.869 96.0563 117.869 97.8412V101.887C117.84 103.702 116.412 105.129 114.627 105.129Z" fill="#7AC142"/>
<path d="M93.2706 124.674H89.2253C87.4406 124.674 85.9832 123.217 85.9832 121.432V117.386C85.9832 115.601 87.4406 114.144 89.2253 114.144H93.2706C95.0553 114.144 96.5128 115.601 96.5128 117.386V121.432C96.483 123.246 95.0553 124.674 93.2706 124.674Z" fill="#7AC142"/>
<path d="M114.627 124.674H110.582C108.797 124.674 107.34 123.217 107.34 121.432V117.386C107.34 115.601 108.797 114.144 110.582 114.144H114.627C116.412 114.144 117.869 115.601 117.869 117.386V121.432C117.84 123.246 116.412 124.674 114.627 124.674Z" fill="#7AC142"/>
<path d="M93.2706 144.248H89.2253C87.4406 144.248 85.9832 142.79 85.9832 141.005V136.959C85.9832 135.174 87.4406 133.717 89.2253 133.717H93.2706C95.0553 133.717 96.5128 135.174 96.5128 136.959V141.005C96.483 142.79 95.0553 144.248 93.2706 144.248Z" fill="#7AC142"/>
<path d="M114.627 144.248H110.582C108.797 144.248 107.34 142.79 107.34 141.005V136.959C107.34 135.174 108.797 133.717 110.582 133.717H114.627C116.412 133.717 117.869 135.174 117.869 136.959V141.005C117.84 142.79 116.412 144.248 114.627 144.248Z" fill="#7AC142"/>
<path d="M93.2706 163.792H89.2253C87.4406 163.792 85.9832 162.334 85.9832 160.549V156.474C85.9832 154.689 87.4406 153.231 89.2253 153.231H93.2706C95.0553 153.231 96.5128 154.689 96.5128 156.474V160.52C96.483 162.334 95.0553 163.792 93.2706 163.792Z" fill="#7AC142"/>
<path d="M114.627 163.792H110.582C108.797 163.792 107.34 162.334 107.34 160.549V156.474C107.34 154.689 108.797 153.231 110.582 153.231H114.627C116.412 153.231 117.869 154.689 117.869 156.474V160.52C117.84 162.334 116.412 163.792 114.627 163.792Z" fill="#7AC142"/>
<path d="M93.2706 183.337H89.2253C87.4406 183.337 85.9832 181.88 85.9832 180.095V176.049C85.9832 174.264 87.4406 172.807 89.2253 172.807H93.2706C95.0553 172.807 96.5128 174.264 96.5128 176.049V180.095C96.483 181.88 95.0553 183.337 93.2706 183.337Z" fill="#7AC142"/>
<path d="M114.627 183.337H110.582C108.797 183.337 107.34 181.88 107.34 180.095V176.049C107.34 174.264 108.797 172.807 110.582 172.807H114.627C116.412 172.807 117.869 174.264 117.869 176.049V180.095C117.84 181.88 116.412 183.337 114.627 183.337Z" fill="#7AC142"/>
<path d="M0.0506592 110.722L28.9625 129.82C31.0446 131.218 32.3236 133.538 32.3236 136.067V207.76C32.3236 209.396 30.9851 210.734 29.3492 210.734H0.0506592V110.722Z" fill="#007AB7"/>
<path d="M74.0854 210.734H37.4697C35.8337 210.734 34.4952 209.396 34.4952 207.76V156.206C34.4952 154.57 35.8337 153.231 37.4697 153.231H74.0854C75.7213 153.231 77.0598 154.57 77.0598 156.206V207.76C77.0598 209.425 75.7213 210.734 74.0854 210.734Z" fill="#007AB7"/>
<path d="M257.904 201.691H225.489C224.416 201.691 223.552 201.049 223.552 200.251V181.457C223.552 180.726 224.059 180.061 224.923 179.706L240.683 173.035C241.309 172.769 242.084 172.769 242.709 173.035L258.47 179.706C259.304 180.061 259.841 180.726 259.841 181.457V200.251C259.841 201.049 258.977 201.691 257.904 201.691Z" fill="#60C3EF"/>
<path d="M311.266 201.602H278.933C277.863 201.602 277 200.739 277 199.668V174.442C277 173.46 277.506 172.568 278.368 172.092L294.103 163.138C294.728 162.781 295.501 162.781 296.126 163.138L311.861 172.092C312.694 172.568 313.229 173.46 313.229 174.442V199.668C313.229 200.739 312.337 201.602 311.266 201.602Z" fill="#60C3EF"/>
<path d="M395.266 180.302H362.933C361.863 180.302 361 179.44 361 178.369V153.202C361 152.22 361.506 151.328 362.368 150.852L369.685 144.872L378.103 141.898C378.728 141.541 379.501 141.541 380.126 141.898L388.99 145.11L395.861 150.852C396.694 151.328 397.229 152.22 397.229 153.202V178.369C397.199 179.41 396.337 180.302 395.266 180.302Z" fill="#FF6A52"/>
<path fill-rule="evenodd" clip-rule="evenodd" d="M379.185 142.768C379.151 142.768 379.117 142.777 379.091 142.791L378.95 142.868L370.353 145.899L363.009 151.896C362.153 152.594 360.893 152.467 360.194 151.611C359.496 150.756 359.623 149.496 360.479 148.797L368.364 142.359L377.341 139.194C378.489 138.633 379.867 138.615 381.029 139.203L390.447 142.606L397.885 148.811C398.734 149.518 398.848 150.779 398.14 151.628C397.433 152.476 396.172 152.59 395.323 151.882L388.425 146.128L379.373 142.858L379.225 142.773C379.223 142.772 379.21 142.768 379.185 142.768Z" fill="#CC4640"/>
<path d="M168.376 210.735H132.712C130.808 210.735 129.262 209.188 129.262 207.284V137.138C129.262 135.234 130.808 133.687 132.712 133.687L146.305 122.8C148.804 120.806 152.314 120.806 154.812 122.8L168.406 133.687C170.309 133.687 171.856 135.234 171.856 137.138V207.284C171.826 209.217 170.279 210.735 168.376 210.735Z" fill="#007AB7"/>
<path d="M21.4074 142.225H6.89202C5.52377 142.225 4.42322 141.125 4.42322 139.756C4.42322 138.388 5.52377 137.287 6.89202 137.287H21.4372C22.8054 137.287 23.906 138.388 23.906 139.756C23.8762 141.125 22.7757 142.225 21.4074 142.225Z" fill="#B5EA86"/>
<path opacity="0.3" d="M145.205 145.498H135.211C134.051 145.498 133.099 144.546 133.099 143.386V142.672C133.099 141.512 134.051 140.56 135.211 140.56H145.205C146.365 140.56 147.317 141.512 147.317 142.672V143.386C147.287 144.546 146.365 145.498 145.205 145.498Z" fill="#B5EA86"/>
<path opacity="0.3" d="M165.104 145.498H155.11C153.95 145.498 152.998 144.546 152.998 143.386V142.672C152.998 141.512 153.95 140.56 155.11 140.56H165.104C166.264 140.56 167.216 141.512 167.216 142.672V143.386C167.216 144.546 166.264 145.498 165.104 145.498Z" fill="#B5EA86"/>
<path opacity="0.3" d="M145.205 156.564H135.211C134.051 156.564 133.099 155.612 133.099 154.452V153.738C133.099 152.578 134.051 151.626 135.211 151.626H145.205C146.365 151.626 147.317 152.578 147.317 153.738V154.452C147.287 155.612 146.365 156.564 145.205 156.564Z" fill="#B5EA86"/>
<path opacity="0.3" d="M165.104 156.564H155.11C153.95 156.564 152.998 155.612 152.998 154.452V153.738C152.998 152.578 153.95 151.626 155.11 151.626H165.104C166.264 151.626 167.216 152.578 167.216 153.738V154.452C167.216 155.612 166.264 156.564 165.104 156.564Z" fill="#B5EA86"/>
<path opacity="0.3" d="M145.205 167.6H135.211C134.051 167.6 133.099 166.648 133.099 165.488V164.774C133.099 163.614 134.051 162.662 135.211 162.662H145.205C146.365 162.662 147.317 163.614 147.317 164.774V165.488C147.287 166.648 146.365 167.6 145.205 167.6Z" fill="#B5EA86"/>
<path opacity="0.3" d="M165.104 167.6H155.11C153.95 167.6 152.998 166.648 152.998 165.488V164.774C152.998 163.614 153.95 162.662 155.11 162.662H165.104C166.264 162.662 167.216 163.614 167.216 164.774V165.488C167.216 166.648 166.264 167.6 165.104 167.6Z" fill="#B5EA86"/>
<path opacity="0.3" d="M145.205 178.636H135.211C134.051 178.636 133.099 177.684 133.099 176.524V175.81C133.099 174.65 134.051 173.698 135.211 173.698H145.205C146.365 173.698 147.317 174.65 147.317 175.81V176.524C147.287 177.714 146.365 178.636 145.205 178.636Z" fill="#B5EA86"/>
<path opacity="0.3" d="M165.104 178.636H155.11C153.95 178.636 152.998 177.684 152.998 176.524V175.81C152.998 174.65 153.95 173.698 155.11 173.698H165.104C166.264 173.698 167.216 174.65 167.216 175.81V176.524C167.216 177.714 166.264 178.636 165.104 178.636Z" fill="#B5EA86"/>
<path opacity="0.3" d="M145.205 189.703H135.211C134.051 189.703 133.099 188.751 133.099 187.591V186.877C133.099 185.717 134.051 184.765 135.211 184.765H145.205C146.365 184.765 147.317 185.717 147.317 186.877V187.591C147.287 188.751 146.365 189.703 145.205 189.703Z" fill="#B5EA86"/>
<path opacity="0.3" d="M165.104 189.703H155.11C153.95 189.703 152.998 188.751 152.998 187.591V186.877C152.998 185.717 153.95 184.765 155.11 184.765H165.104C166.264 184.765 167.216 185.717 167.216 186.877V187.591C167.216 188.751 166.264 189.703 165.104 189.703Z" fill="#B5EA86"/>
<path opacity="0.3" d="M145.205 200.74H135.211C134.051 200.74 133.099 199.788 133.099 198.628V197.914C133.099 196.754 134.051 195.802 135.211 195.802H145.205C146.365 195.802 147.317 196.754 147.317 197.914V198.628C147.287 199.788 146.365 200.74 145.205 200.74Z" fill="#B5EA86"/>
<path opacity="0.3" d="M165.104 200.74H155.11C153.95 200.74 152.998 199.788 152.998 198.628V197.914C152.998 196.754 153.95 195.802 155.11 195.802H165.104C166.264 195.802 167.216 196.754 167.216 197.914V198.628C167.216 199.788 166.264 200.74 165.104 200.74Z" fill="#B5EA86"/>
<path d="M21.4074 153.292H6.89202C5.52377 153.292 4.42322 152.191 4.42322 150.823C4.42322 149.454 5.52377 148.354 6.89202 148.354H21.4372C22.8054 148.354 23.906 149.454 23.906 150.823C23.8762 152.161 22.7757 153.292 21.4074 153.292Z" fill="#B5EA86"/>
<path d="M21.4074 164.328H6.89202C5.52377 164.328 4.42322 163.227 4.42322 161.859C4.42322 160.49 5.52377 159.39 6.89202 159.39H21.4372C22.8054 159.39 23.906 160.49 23.906 161.859C23.8762 163.227 22.7757 164.328 21.4074 164.328Z" fill="#B5EA86"/>
<path d="M21.4074 175.365H6.89202C5.52377 175.365 4.42322 174.264 4.42322 172.896C4.42322 171.527 5.52377 170.427 6.89202 170.427H21.4372C22.8054 170.427 23.906 171.527 23.906 172.896C23.8762 174.264 22.7757 175.365 21.4074 175.365Z" fill="#B5EA86"/>
<path d="M21.4074 186.43H6.89202C5.52377 186.43 4.42322 185.33 4.42322 183.961C4.42322 182.593 5.52377 181.492 6.89202 181.492H21.4372C22.8054 181.492 23.906 182.593 23.906 183.961C23.8762 185.33 22.7757 186.43 21.4074 186.43Z" fill="#B5EA86"/>
<path d="M21.4074 197.467H6.89202C5.52377 197.467 4.42322 196.367 4.42322 194.998C4.42322 193.63 5.52377 192.529 6.89202 192.529H21.4372C22.8054 192.529 23.906 193.63 23.906 194.998C23.8762 196.367 22.7757 197.467 21.4074 197.467Z" fill="#B5EA86"/>
<path d="M405.587 134.64C402.256 134.64 399.579 137.317 399.579 140.649V179.381H411.595V140.649C411.595 137.347 408.918 134.64 405.587 134.64Z" fill="#FF6A52"/>
<path opacity="0.3" d="M252.077 201.603V191.086C252.077 188.959 250.353 187.234 248.225 187.234C246.098 187.234 244.373 188.959 244.373 191.086V201.603H252.077Z" fill="#004F7F"/>
<path opacity="0.3" d="M233.814 187.115H232.922C231.033 187.115 229.501 188.647 229.501 190.536C229.501 192.426 231.033 193.957 232.922 193.957H233.814C235.703 193.957 237.235 192.426 237.235 190.536C237.235 188.647 235.703 187.115 233.814 187.115Z" fill="#004F7F"/>
<path opacity="0.3" d="M298.952 201.603V191.086C298.952 188.959 297.227 187.234 295.1 187.234C292.972 187.234 291.248 188.959 291.248 191.086V201.603H298.952Z" fill="#0069AA"/>
<path d="M308.232 162.87H305.793C305.347 162.87 304.96 163.227 304.96 163.703V171.408H309.035V163.703C309.035 163.227 308.678 162.87 308.232 162.87Z" fill="#60C3EF"/>
<path opacity="0.3" d="M465.688 211.333H429.134C429.134 203.951 423.177 198 415.85 198H390.456C383.1 198 377.171 203.979 377.171 211.333H246.284C238.929 211.333 233 217.312 233 224.667C233 232.049 238.957 238 246.284 238H465.716C473.071 238 479 232.021 479 224.667C478.972 217.312 473.043 211.333 465.688 211.333Z" fill="#7AC142"/>
<path opacity="0.5" d="M388.633 162.543H369.983V180.273H388.633V162.543Z" fill="#F7B9B2"/>
<path opacity="0.5" d="M402.939 143.861C402.434 143.861 402.017 144.278 402.017 144.784V178.488C402.017 178.994 402.434 179.41 402.939 179.41C403.445 179.41 403.862 178.994 403.862 178.488V144.784C403.832 144.278 403.415 143.861 402.939 143.861Z" fill="#F7B9B2"/>
<path opacity="0.5" d="M379.245 150.89C380.871 150.89 382.19 149.572 382.19 147.945C382.19 146.319 380.871 145 379.245 145C377.618 145 376.3 146.319 376.3 147.945C376.3 149.572 377.618 150.89 379.245 150.89Z" fill="#F7B9B2"/>
<path d="M205.943 196.516C204.129 196.516 202.672 195.058 202.672 193.243V144.992C202.672 143.177 204.129 141.72 205.943 141.72C207.758 141.72 209.215 143.177 209.215 144.992V193.243C209.215 195.028 207.758 196.516 205.943 196.516Z" fill="#A35B2B"/>
<path d="M209.364 155.939H205.943C205.378 155.939 204.902 155.463 204.902 154.898C204.902 154.333 205.378 153.857 205.943 153.857H209.364C213.915 153.857 217.633 150.139 217.633 145.587V144.427C217.633 143.862 218.109 143.386 218.674 143.386C219.239 143.386 219.715 143.862 219.715 144.427V145.587C219.715 151.299 215.075 155.939 209.364 155.939Z" fill="#A35B2B"/>
<path d="M205.943 166.41H205.854C200.143 166.41 195.503 161.769 195.503 156.057V145.586C195.503 145.021 195.979 144.545 196.544 144.545C197.109 144.545 197.585 145.021 197.585 145.586V156.057C197.585 160.609 201.303 164.327 205.854 164.327H205.943C206.508 164.327 206.984 164.803 206.984 165.369C206.984 165.934 206.538 166.41 205.943 166.41Z" fill="#A35B2B"/>
<path d="M230.245 117.148H226.824V111.674C226.824 105.873 222.124 101.144 216.294 101.144H198.983C193.183 101.144 188.453 105.844 188.453 111.674H184.378C178.608 111.674 173.908 116.375 173.908 122.146V124.109C173.908 129.88 178.608 134.58 184.378 134.58C184.378 140.619 189.256 145.498 195.295 145.498H203.564H212.19H221.381C224.296 145.498 226.645 143.148 226.645 140.232H230.245C236.045 140.232 240.774 135.532 240.774 129.702V127.649C240.774 121.848 236.075 117.148 230.245 117.148Z" fill="#7AC142"/>
<path d="M329.831 195.962C331.645 195.962 333.103 194.504 333.103 192.689V151.013C333.103 149.198 331.645 147.74 329.831 147.74C328.017 147.74 326.559 149.198 326.559 151.013V192.689C326.559 194.474 328.017 195.962 329.831 195.962Z" fill="#A35B2B"/>
<path d="M326.41 167.97H329.831C330.396 167.97 330.872 167.494 330.872 166.928C330.872 166.363 330.396 165.887 329.831 165.887H326.41C321.86 165.887 318.141 162.169 318.141 157.617V156.457C318.141 155.892 317.666 155.416 317.1 155.416C316.535 155.416 316.059 155.892 316.059 156.457V157.617C316.059 163.329 320.699 167.97 326.41 167.97Z" fill="#A35B2B"/>
<path d="M305.53 132.004H308.95V126.531C308.95 120.73 313.65 116 319.48 116H336.791C342.591 116 347.321 120.7 347.321 126.531H351.396C357.166 126.531 361.866 131.231 361.866 137.002V138.965C361.866 144.737 357.166 149.437 351.396 149.437C351.396 155.476 346.518 160.354 340.48 160.354H332.211H323.585H314.394C311.479 160.354 309.129 158.004 309.129 155.089H305.53C299.729 155.089 295 150.389 295 144.558V142.505C295 136.705 299.729 132.004 305.53 132.004Z" fill="#7AC142"/>
<path d="M298 171.943C298 173.75 296.535 175.215 294.728 175.215C292.921 175.215 291.456 173.75 291.456 171.943C291.456 170.136 292.921 168.671 294.728 168.671C296.535 168.671 298 170.136 298 171.943Z" fill="#00559B" fill-opacity="0.6"/>
<path d="M94.7692 23.0001H98.5788L105.823 8.6052V5.54554H93.576V8.56259H102.005V8.68191L94.7692 23.0001Z" fill="#002D44"/>
<path d="M114.433 5.30691C110.53 5.28986 107.896 7.84668 107.913 11.358C107.922 14.6137 110.18 16.9745 113.274 16.9745C115.192 16.9745 116.896 16.0455 117.672 14.5115H117.791C117.783 17.9717 116.581 20.0768 114.305 20.0768C112.967 20.0768 112.004 19.3438 111.723 18.074H108.084C108.425 21.0143 110.811 23.2387 114.305 23.2387C118.626 23.2387 121.413 19.7444 121.405 13.8211C121.396 7.49725 118.021 5.32395 114.433 5.30691ZM114.459 8.20463C116.155 8.20463 117.408 9.58532 117.425 11.2472C117.433 12.9177 116.112 14.2984 114.425 14.2984C112.72 14.2984 111.501 12.9688 111.493 11.2558C111.476 9.55123 112.746 8.20463 114.459 8.20463Z" fill="#002D44"/>
<path d="M133.516 19.7274C133.524 21.824 134.862 23.6052 137.359 23.6052C139.831 23.6052 141.212 21.824 141.203 19.7274V18.8069C141.212 16.6933 139.865 14.9291 137.359 14.9291C134.896 14.9291 133.524 16.7103 133.516 18.8069V19.7274ZM124.558 9.73873C124.567 11.8353 125.905 13.5995 128.393 13.5995C130.874 13.5995 132.254 11.8524 132.246 9.73873V8.81827C132.254 6.70463 130.908 4.94043 128.393 4.94043C125.956 4.94043 124.567 6.70463 124.558 8.81827V9.73873ZM125.393 23.0001H127.618L139.618 5.54554H137.393L125.393 23.0001ZM135.996 18.8069C136.004 17.9717 136.337 17.1109 137.359 17.1109C138.433 17.1109 138.714 17.9717 138.706 18.8069V19.7274C138.714 20.5626 138.399 21.4063 137.359 21.4063C136.32 21.4063 136.004 20.537 135.996 19.7274V18.8069ZM127.055 8.81827C127.064 8.00861 127.379 7.12225 128.393 7.12225C129.467 7.12225 129.757 7.98304 129.749 8.81827V9.73873C129.757 10.574 129.433 11.4177 128.393 11.4177C127.388 11.4177 127.064 10.574 127.055 9.73873V8.81827Z" fill="#002D44"/>
<path d="M150.056 23.0001H163.42V19.9575H154.684L163.403 7.73588V5.54554H150.039V8.58816H158.766L150.056 20.8097V23.0001Z" fill="#002D44"/>
<path d="M172.098 23.2558C176.07 23.2558 178.541 20.537 178.541 16.5058C178.541 12.449 176.07 9.73873 172.098 9.73873C168.126 9.73873 165.655 12.449 165.655 16.5058C165.655 20.537 168.126 23.2558 172.098 23.2558ZM172.115 20.4433C170.283 20.4433 169.345 18.7643 169.345 16.4802C169.345 14.1961 170.283 12.5086 172.115 12.5086C173.913 12.5086 174.851 14.1961 174.851 16.4802C174.851 18.7643 173.913 20.4433 172.115 20.4433Z" fill="#002D44"/>
<path d="M184.533 15.4319C184.541 13.7444 185.547 12.7558 187.013 12.7558C188.47 12.7558 189.348 13.7103 189.339 15.3126V23.0001H192.97V14.6649C192.97 11.6137 191.18 9.73873 188.453 9.73873C186.51 9.73873 185.104 10.6933 184.516 12.2188H184.362V9.90918H180.902V23.0001H184.533V15.4319Z" fill="#002D44"/>
<path d="M199.565 23.2472C201.499 23.2472 202.752 22.4035 203.391 21.1847H203.494V23.0001H206.937V14.1705C206.937 11.0512 204.295 9.73873 201.38 9.73873C198.244 9.73873 196.181 11.2387 195.678 13.6251L199.036 13.8978C199.283 13.0285 200.059 12.3893 201.363 12.3893C202.599 12.3893 203.306 13.0115 203.306 14.0853V14.1365C203.306 14.9802 202.411 15.091 200.136 15.3126C197.545 15.5512 195.218 16.4205 195.218 19.3438C195.218 21.9347 197.067 23.2472 199.565 23.2472ZM200.604 20.7416C199.488 20.7416 198.687 20.2217 198.687 19.2245C198.687 18.2018 199.531 17.699 200.809 17.52C201.602 17.4092 202.897 17.2217 203.332 16.9319V18.3211C203.332 19.6933 202.198 20.7416 200.604 20.7416Z" fill="#002D44"/>
<path d="M220.646 13.6421C220.322 11.2302 218.379 9.73873 215.072 9.73873C211.722 9.73873 209.515 11.2899 209.523 13.8126C209.515 15.7728 210.751 17.0427 213.308 17.5541L215.575 18.0058C216.717 18.2359 217.237 18.6535 217.254 19.3097C217.237 20.0853 216.393 20.6393 215.123 20.6393C213.827 20.6393 212.967 20.0853 212.745 19.02L209.174 19.2075C209.515 21.7132 211.646 23.2558 215.114 23.2558C218.506 23.2558 220.935 21.5257 220.944 18.9433C220.935 17.0512 219.7 15.9177 217.16 15.3978L214.79 14.9205C213.572 14.6563 213.12 14.2387 213.129 13.608C213.12 12.824 214.006 12.3126 215.131 12.3126C216.393 12.3126 217.143 13.0029 217.322 13.8467L220.646 13.6421Z" fill="#002D44"/>
<path d="M121.715 46.4262C121.723 48.1819 120.522 49.1024 119.218 49.1024C117.846 49.1024 116.959 48.1393 116.951 46.5967V38.9092H113.32V47.2444C113.328 50.3041 115.118 52.1705 117.752 52.1705C119.721 52.1705 121.135 51.1563 121.723 49.6222H121.86V52.0001H125.346V38.9092H121.715V46.4262Z" fill="#002D44"/>
<path d="M128.25 52.0001H131.88V44.5938C131.88 42.983 133.056 41.8751 134.659 41.8751C135.162 41.8751 135.852 41.9603 136.193 42.0711V38.8495C135.869 38.7728 135.417 38.7217 135.051 38.7217C133.585 38.7217 132.383 39.5739 131.906 41.1933H131.77V38.9092H128.25V52.0001Z" fill="#002D44"/>
<path d="M138.138 52.0001H141.718V49.9035H141.88C142.382 50.9944 143.482 52.2132 145.596 52.2132C148.578 52.2132 150.905 49.8524 150.905 45.4717C150.905 40.9717 148.476 38.7387 145.604 38.7387C143.414 38.7387 142.365 40.0427 141.88 41.108H141.769V34.5455H138.138V52.0001ZM141.692 45.4546C141.692 43.1194 142.681 41.6279 144.445 41.6279C146.243 41.6279 147.198 43.1876 147.198 45.4546C147.198 47.7387 146.226 49.324 144.445 49.324C142.698 49.324 141.692 47.7899 141.692 45.4546Z" fill="#002D44"/>
<path d="M157.061 52.2472C158.995 52.2472 160.248 51.4035 160.887 50.1847H160.99V52.0001H164.433V43.1705C164.433 40.0512 161.791 38.7387 158.876 38.7387C155.74 38.7387 153.677 40.2387 153.174 42.6251L156.532 42.8978C156.779 42.0285 157.555 41.3893 158.859 41.3893C160.095 41.3893 160.802 42.0115 160.802 43.0853V43.1365C160.802 43.9802 159.907 44.091 157.632 44.3126C155.041 44.5512 152.714 45.4205 152.714 48.3438C152.714 50.9347 154.564 52.2472 157.061 52.2472ZM158.1 49.7416C156.984 49.7416 156.183 49.2217 156.183 48.2245C156.183 47.2018 157.027 46.699 158.305 46.52C159.098 46.4092 160.393 46.2217 160.828 45.9319V47.3211C160.828 48.6933 159.694 49.7416 158.1 49.7416Z" fill="#002D44"/>
<path d="M170.88 44.4319C170.889 42.7444 171.895 41.7558 173.36 41.7558C174.818 41.7558 175.696 42.7103 175.687 44.3126V52.0001H179.318V43.6649C179.318 40.6137 177.528 38.7387 174.801 38.7387C172.858 38.7387 171.451 39.6933 170.863 41.2188H170.71V38.9092H167.25V52.0001H170.88V44.4319Z" fill="#002D44"/>
<path d="M185.912 52.2472C187.847 52.2472 189.1 51.4035 189.739 50.1847H189.841V52.0001H193.284V43.1705C193.284 40.0512 190.642 38.7387 187.728 38.7387C184.591 38.7387 182.529 40.2387 182.026 42.6251L185.384 42.8978C185.631 42.0285 186.407 41.3893 187.711 41.3893C188.946 41.3893 189.654 42.0115 189.654 43.0853V43.1365C189.654 43.9802 188.759 44.091 186.483 44.3126C183.892 44.5512 181.566 45.4205 181.566 48.3438C181.566 50.9347 183.415 52.2472 185.912 52.2472ZM186.952 49.7416C185.836 49.7416 185.034 49.2217 185.034 48.2245C185.034 47.2018 185.878 46.699 187.157 46.52C187.949 46.4092 189.245 46.2217 189.679 45.9319V47.3211C189.679 48.6933 188.546 49.7416 186.952 49.7416Z" fill="#002D44"/>
<path d="M206.993 42.6421C206.669 40.2302 204.726 38.7387 201.419 38.7387C198.07 38.7387 195.863 40.2899 195.871 42.8126C195.863 44.7728 197.098 46.0427 199.655 46.5541L201.922 47.0058C203.064 47.2359 203.584 47.6535 203.601 48.3097C203.584 49.0853 202.74 49.6393 201.471 49.6393C200.175 49.6393 199.314 49.0853 199.093 48.02L195.522 48.2075C195.863 50.7132 197.993 52.2558 201.462 52.2558C204.854 52.2558 207.283 50.5257 207.292 47.9433C207.283 46.0512 206.047 44.9177 203.507 44.3978L201.138 43.9205C199.919 43.6563 199.468 43.2387 199.476 42.608C199.468 41.824 200.354 41.3126 201.479 41.3126C202.74 41.3126 203.49 42.0029 203.669 42.8467L206.993 42.6421Z" fill="#002D44"/>
<path d="M261.091 75.0001H273.534V71.983H266.204V71.8637L268.752 69.3666C272.341 66.0938 273.304 64.4575 273.304 62.4717C273.304 59.4461 270.832 57.3069 267.091 57.3069C263.426 57.3069 260.912 59.4972 260.92 62.9234H264.423C264.414 61.2529 265.471 60.2302 267.065 60.2302C268.599 60.2302 269.741 61.1847 269.741 62.7188C269.741 64.108 268.889 65.0626 267.304 66.5882L261.091 72.341V75.0001Z" fill="#002D44"/>
<path d="M283.801 57.5455H280.333L276.012 60.2813V63.5541L280.009 61.0484H280.111V75.0001H283.801V57.5455Z" fill="#002D44"/>
<path d="M297.504 71.7274C297.512 73.824 298.85 75.6052 301.348 75.6052C303.819 75.6052 305.2 73.824 305.191 71.7274V70.8069C305.2 68.6933 303.853 66.9291 301.348 66.9291C298.885 66.9291 297.512 68.7103 297.504 70.8069V71.7274ZM288.546 61.7387C288.555 63.8353 289.893 65.5995 292.382 65.5995C294.862 65.5995 296.243 63.8524 296.234 61.7387V60.8183C296.243 58.7046 294.896 56.9404 292.382 56.9404C289.944 56.9404 288.555 58.7046 288.546 60.8183V61.7387ZM289.382 75.0001H291.606L303.606 57.5455H301.382L289.382 75.0001ZM299.984 70.8069C299.993 69.9717 300.325 69.1109 301.348 69.1109C302.421 69.1109 302.703 69.9717 302.694 70.8069V71.7274C302.703 72.5626 302.387 73.4063 301.348 73.4063C300.308 73.4063 299.993 72.537 299.984 71.7274V70.8069ZM291.044 60.8183C291.052 60.0086 291.368 59.1222 292.382 59.1222C293.456 59.1222 293.745 59.983 293.737 60.8183V61.7387C293.745 62.574 293.421 63.4177 292.382 63.4177C291.376 63.4177 291.052 62.574 291.044 61.7387V60.8183Z" fill="#002D44"/>
<path d="M314.044 75.0001H327.408V71.9575H318.672L327.391 59.7359V57.5455H314.027V60.5882H322.755L314.044 72.8097V75.0001Z" fill="#002D44"/>
<path d="M336.086 75.2558C340.058 75.2558 342.529 72.537 342.529 68.5058C342.529 64.449 340.058 61.7387 336.086 61.7387C332.115 61.7387 329.643 64.449 329.643 68.5058C329.643 72.537 332.115 75.2558 336.086 75.2558ZM336.103 72.4433C334.271 72.4433 333.333 70.7643 333.333 68.4802C333.333 66.1961 334.271 64.5086 336.103 64.5086C337.902 64.5086 338.839 66.1961 338.839 68.4802C338.839 70.7643 337.902 72.4433 336.103 72.4433Z" fill="#002D44"/>
<path d="M348.521 67.4319C348.529 65.7444 349.535 64.7558 351.001 64.7558C352.458 64.7558 353.336 65.7103 353.328 67.3126V75.0001H356.958V66.6649C356.958 63.6137 355.169 61.7387 352.441 61.7387C350.498 61.7387 349.092 62.6933 348.504 64.2188H348.35V61.9092H344.89V75.0001H348.521V67.4319Z" fill="#002D44"/>
<path d="M363.553 75.2472C365.488 75.2472 366.74 74.4035 367.38 73.1847H367.482V75.0001H370.925V66.1705C370.925 63.0512 368.283 61.7387 365.368 61.7387C362.232 61.7387 360.169 63.2387 359.667 65.6251L363.024 65.8978C363.272 65.0285 364.047 64.3893 365.351 64.3893C366.587 64.3893 367.294 65.0115 367.294 66.0853V66.1365C367.294 66.9802 366.399 67.091 364.124 67.3126C361.533 67.5512 359.206 68.4205 359.206 71.3438C359.206 73.9347 361.056 75.2472 363.553 75.2472ZM364.593 72.7416C363.476 72.7416 362.675 72.2217 362.675 71.2245C362.675 70.2018 363.519 69.699 364.797 69.52C365.59 69.4092 366.885 69.2217 367.32 68.9319V70.3211C367.32 71.6933 366.186 72.7416 364.593 72.7416Z" fill="#002D44"/>
<path d="M384.634 65.6421C384.31 63.2302 382.367 61.7387 379.06 61.7387C375.711 61.7387 373.503 63.2899 373.512 65.8126C373.503 67.7728 374.739 69.0427 377.296 69.5541L379.563 70.0058C380.705 70.2359 381.225 70.6535 381.242 71.3097C381.225 72.0853 380.381 72.6393 379.111 72.6393C377.816 72.6393 376.955 72.0853 376.733 71.02L373.162 71.2075C373.503 73.7132 375.634 75.2558 379.103 75.2558C382.495 75.2558 384.924 73.5257 384.932 70.9433C384.924 69.0512 383.688 67.9177 381.148 67.3978L378.779 66.9205C377.56 66.6563 377.108 66.2387 377.117 65.608C377.108 64.824 377.995 64.3126 379.12 64.3126C380.381 64.3126 381.131 65.0029 381.31 65.8467L384.634 65.6421Z" fill="#002D44"/>
<path d="M264.849 96.4319C264.858 94.7444 265.863 93.7558 267.329 93.7558C268.787 93.7558 269.664 94.7103 269.656 96.3126V104H273.287V95.6649C273.287 92.6137 271.497 90.7387 268.769 90.7387C266.826 90.7387 265.42 91.6933 264.832 93.2188H264.679V90.9092H261.218V104H264.849V96.4319Z" fill="#002D44"/>
<path d="M282.063 104.256C286.034 104.256 288.506 101.537 288.506 97.5058C288.506 93.449 286.034 90.7387 282.063 90.7387C278.091 90.7387 275.62 93.449 275.62 97.5058C275.62 101.537 278.091 104.256 282.063 104.256ZM282.08 101.443C280.247 101.443 279.31 99.7643 279.31 97.4802C279.31 95.1961 280.247 93.5086 282.08 93.5086C283.878 93.5086 284.816 95.1961 284.816 97.4802C284.816 99.7643 283.878 101.443 282.08 101.443Z" fill="#002D44"/>
<path d="M304.816 98.4262C304.825 100.182 303.623 101.102 302.319 101.102C300.947 101.102 300.061 100.139 300.052 98.5967V90.9092H296.421V99.2444C296.43 102.304 298.22 104.171 300.853 104.171C302.822 104.171 304.237 103.156 304.825 101.622H304.961V104H308.447V90.9092H304.816V98.4262Z" fill="#002D44"/>
<path d="M311.351 104H314.982V96.5938C314.982 94.983 316.158 93.8751 317.76 93.8751C318.263 93.8751 318.953 93.9603 319.294 94.0711V90.8495C318.97 90.7728 318.519 90.7217 318.152 90.7217C316.686 90.7217 315.485 91.5739 315.007 93.1933H314.871V90.9092H311.351V104Z" fill="#002D44"/>
<path d="M321.24 104H324.819V101.903H324.981C325.484 102.994 326.583 104.213 328.697 104.213C331.68 104.213 334.007 101.852 334.007 97.4717C334.007 92.9717 331.578 90.7387 328.706 90.7387C326.515 90.7387 325.467 92.0427 324.981 93.108H324.87V86.5455H321.24V104ZM324.794 97.4546C324.794 95.1194 325.782 93.6279 327.546 93.6279C329.345 93.6279 330.299 95.1876 330.299 97.4546C330.299 99.7387 329.328 101.324 327.546 101.324C325.799 101.324 324.794 99.7899 324.794 97.4546Z" fill="#002D44"/>
<path d="M340.162 104.247C342.097 104.247 343.35 103.403 343.989 102.185H344.091V104H347.534V95.1705C347.534 92.0512 344.892 90.7387 341.978 90.7387C338.841 90.7387 336.779 92.2387 336.276 94.6251L339.634 94.8978C339.881 94.0285 340.657 93.3893 341.961 93.3893C343.196 93.3893 343.904 94.0115 343.904 95.0853V95.1365C343.904 95.9802 343.009 96.091 340.733 96.3126C338.142 96.5512 335.816 97.4205 335.816 100.344C335.816 102.935 337.665 104.247 340.162 104.247ZM341.202 101.742C340.086 101.742 339.284 101.222 339.284 100.225C339.284 99.2018 340.128 98.699 341.407 98.52C342.199 98.4092 343.495 98.2217 343.929 97.9319V99.3211C343.929 100.693 342.796 101.742 341.202 101.742Z" fill="#002D44"/>
<path d="M353.982 96.4319C353.99 94.7444 354.996 93.7558 356.462 93.7558C357.919 93.7558 358.797 94.7103 358.789 96.3126V104H362.419V95.6649C362.419 92.6137 360.63 90.7387 357.902 90.7387C355.959 90.7387 354.553 91.6933 353.965 93.2188H353.811V90.9092H350.351V104H353.982V96.4319Z" fill="#002D44"/>
<path d="M369.014 104.247C370.948 104.247 372.201 103.403 372.841 102.185H372.943V104H376.386V95.1705C376.386 92.0512 373.744 90.7387 370.829 90.7387C367.693 90.7387 365.63 92.2387 365.127 94.6251L368.485 94.8978C368.733 94.0285 369.508 93.3893 370.812 93.3893C372.048 93.3893 372.755 94.0115 372.755 95.0853V95.1365C372.755 95.9802 371.86 96.091 369.585 96.3126C366.994 96.5512 364.667 97.4205 364.667 100.344C364.667 102.935 366.517 104.247 369.014 104.247ZM370.054 101.742C368.937 101.742 368.136 101.222 368.136 100.225C368.136 99.2018 368.98 98.699 370.258 98.52C371.051 98.4092 372.346 98.2217 372.781 97.9319V99.3211C372.781 100.693 371.647 101.742 370.054 101.742Z" fill="#002D44"/>
<path d="M390.095 94.6421C389.771 92.2302 387.828 90.7387 384.521 90.7387C381.171 90.7387 378.964 92.2899 378.973 94.8126C378.964 96.7728 380.2 98.0427 382.757 98.5541L385.024 99.0058C386.166 99.2359 386.686 99.6535 386.703 100.31C386.686 101.085 385.842 101.639 384.572 101.639C383.277 101.639 382.416 101.085 382.194 100.02L378.623 100.207C378.964 102.713 381.095 104.256 384.564 104.256C387.956 104.256 390.385 102.526 390.393 99.9433C390.385 98.0512 389.149 96.9177 386.609 96.3978L384.24 95.9205C383.021 95.6563 382.569 95.2387 382.578 94.608C382.569 93.824 383.456 93.3126 384.581 93.3126C385.842 93.3126 386.592 94.0029 386.771 94.8467L390.095 94.6421Z" fill="#002D44"/>
</g>
<defs>
<clipPath id="clip0">
<rect width="424" height="280" fill="white"/>
</clipPath>
</defs>
</svg>
