<svg width="375" height="246" viewBox="0 0 375 246" fill="none" xmlns="http://www.w3.org/2000/svg">
<path opacity="0.3" d="M302.908 243.524H-50.041C-63.2721 243.524 -74 234.201 -74 222.702V221.521C-74 210.022 -63.2721 200.698 -50.041 200.698H302.908C316.139 200.698 326.867 210.022 326.867 221.521V222.702C326.867 234.201 316.139 243.524 302.908 243.524Z" fill="#7AC142"/>
<path d="M348.571 51.2195H255.332C246.84 51.2195 239.951 44.3155 239.951 35.8044C239.951 16.104 223.976 0.09375 204.318 0.09375H38.7458C19.0885 0.09375 3.11328 16.104 3.11328 35.8044V51.6362C3.11328 71.3365 19.0885 87.3468 38.7458 87.3468H78.8325C87.3249 87.3468 94.2138 94.2509 94.2138 102.762V138.473C94.2138 158.173 110.189 174.183 129.846 174.183H204.259C223.916 174.183 239.892 158.173 239.892 138.473H348.511C368.169 138.473 384.144 122.462 384.144 102.762V86.9302C384.203 67.2298 368.228 51.2195 348.571 51.2195Z" fill="#E5F0F7"/>
<path d="M44.5374 32.6346C38.3442 32.6346 33.2649 27.6082 33.2649 21.3807V14.2637C33.2649 8.08069 38.2996 3.00977 44.5374 3.00977C50.7305 3.00977 55.8098 8.03621 55.8098 14.2637V21.3807C55.8098 27.6082 50.7751 32.6346 44.5374 32.6346Z" fill="#FFDAB6"/>
<rect x="86" y="41" width="46" height="181" rx="10" fill="url(#paint0_linear)"/>
<rect x="144" y="143" width="46" height="79" rx="10" fill="url(#paint1_linear)"/>
<rect x="205" y="175" width="46" height="47" rx="10" fill="url(#paint2_linear)"/>
<path d="M39.8146 1.58725C39.6809 1.63173 39.5918 1.63173 39.4581 1.67621C37.1858 2.29896 35.1363 4.6565 33.7996 6.48026C32.4184 8.30402 31.3045 10.3947 30.9926 12.6188C30.6808 14.7984 31.0818 16.978 31.0372 19.1576C30.9927 21.3372 30.3243 23.7392 28.4976 24.9402C29.5669 26.2302 30.6362 27.5202 31.7055 28.8102C32.6412 29.9222 33.7996 31.1232 35.2254 30.9898C37.0522 30.8118 37.8987 28.4988 37.7205 26.675C37.5423 24.8513 36.7403 23.0275 37.0522 21.2038C37.5423 18.3569 40.4829 16.7111 42.6216 14.7539C45.9632 11.6402 48.4583 6.16889 48.0128 1.58725C45.5622 1.00899 42.3542 0.964506 39.8146 1.58725Z" fill="#FF6A52"/>
<path d="M55.8098 6.9693C57.1911 10.3944 56.3445 14.4423 57.7703 17.8674C58.5723 19.7801 60.0426 21.4704 60.2208 23.5166C60.399 25.5183 59.1961 27.4755 57.6366 28.721C56.0772 29.9665 54.1168 30.7226 52.2009 31.3899C51.3543 26.8082 51.3098 22.0487 52.0226 17.4226C52.5128 14.2643 53.493 11.1061 51.1761 8.39272C50.285 7.32516 49.1711 6.43551 48.5473 5.19002C48.0572 4.2559 47.478 1.94284 48.681 1.32009C49.483 0.919754 50.9979 1.85387 51.6217 2.29869C53.2256 3.36626 55.097 5.2345 55.8098 6.9693Z" fill="#FF6A52"/>
<path d="M75.9935 68.8877H82.8104C82.8104 68.8877 80.85 79.2075 81.8747 81.2536C82.1866 81.9208 82.3203 82.677 82.3203 83.4332C82.3203 85.079 80.9836 86.458 79.2906 86.458C76.6618 86.458 74.5231 84.4118 74.3449 81.7874C74.2113 79.3409 74.1221 76.5386 74.3449 75.1596C74.8796 72.3128 75.9935 68.8877 75.9935 68.8877Z" fill="#FFDAB6"/>
<path d="M25.2005 99.7588C25.2005 99.7588 19.8093 107.499 21.5469 109.812C23.2846 112.125 27.7401 118.397 29.656 116.484C31.5719 114.571 26.4926 107.899 26.4926 107.899C26.4926 107.899 33.265 106.831 31.1709 100.871C30.8144 99.8922 29.5669 96.6006 29.5669 96.6006L25.2005 99.7588Z" fill="#FFDAB6"/>
<path d="M66.7258 107.676L65.2555 224.307C65.2109 227.421 62.6713 229.957 59.5079 229.957C56.4781 229.957 53.983 227.599 53.8048 224.574L48.2354 134.187C48.2354 133.876 47.9235 133.609 47.6116 133.609C47.2552 133.609 46.9879 133.876 46.9879 134.231L45.7403 224.619C45.6957 227.732 43.1561 230.268 39.9927 230.268H39.4135C36.3837 230.268 33.8886 227.91 33.7104 224.886L27.1162 109.055L66.7258 107.676Z" fill="url(#paint3_linear)"/>
<path d="M83.9688 34.8585L63.0278 34.7695H38.2996C32.9084 34.7695 27.8291 37.4829 24.8439 41.9756L9.56149 64.8393C7.51195 68.3534 7.60105 72.7571 9.82882 76.1822L25.0222 99.802L27.4727 98.0672L27.1608 108.209C27.0717 110.967 29.2995 113.28 32.0619 113.28H61.9139C64.7209 113.28 66.9487 110.923 66.815 108.12L62.6713 52.7402C62.6268 51.984 63.1169 51.2723 63.8298 51.0944L76.528 47.6248C77.1518 47.4469 77.7756 47.8917 77.7756 48.5589L76.0379 68.9316L82.8549 68.8871L89.2263 40.2408C89.5827 37.1271 86.9985 34.5026 83.9688 34.8585ZM27.1163 109.054C26.6261 108.343 26.3143 107.898 26.3143 107.898C26.3143 107.898 26.6707 107.853 27.1608 107.675L27.1163 109.054ZM27.6509 92.3291C24.7994 85.123 21.1013 75.9597 19.5419 72.0898C19.0518 70.9333 19.1854 69.5988 19.8537 68.5313L28.7648 59.7684L27.6509 92.3291Z" fill="url(#paint4_linear)"/>
<path d="M170.227 85.2723H171.568V80.6586H171.682C171.977 81.1359 172.545 82.1814 174.227 82.1814C176.409 82.1814 177.932 80.4314 177.932 77.6586C177.932 74.9086 176.409 73.1586 174.204 73.1586C172.5 73.1586 171.977 74.2041 171.682 74.6586H171.523V73.2723H170.227V85.2723ZM171.545 77.6359C171.545 75.6814 172.409 74.3632 174.045 74.3632C175.75 74.3632 176.591 75.795 176.591 77.6359C176.591 79.4996 175.727 80.9768 174.045 80.9768C172.432 80.9768 171.545 79.6132 171.545 77.6359Z" fill="#00559B"/>
<path d="M183.636 82.1814C185.409 82.1814 186.704 81.295 187.114 79.9768L185.818 79.6132C185.477 80.5223 184.687 80.9768 183.636 80.9768C182.062 80.9768 180.977 79.9598 180.915 78.0905H187.25V77.5223C187.25 74.2723 185.318 73.1586 183.5 73.1586C181.136 73.1586 179.568 75.0223 179.568 77.7041C179.568 80.3859 181.114 82.1814 183.636 82.1814ZM180.915 76.9314C181.006 75.5734 181.966 74.3632 183.5 74.3632C184.954 74.3632 185.886 75.4541 185.886 76.9314H180.915Z" fill="#00559B"/>
<path d="M192.835 82.1814C195.199 82.1814 196.79 80.3859 196.79 77.6814C196.79 74.9541 195.199 73.1586 192.835 73.1586C190.471 73.1586 188.881 74.9541 188.881 77.6814C188.881 80.3859 190.471 82.1814 192.835 82.1814ZM192.835 80.9768C191.04 80.9768 190.221 79.4314 190.221 77.6814C190.221 75.9314 191.04 74.3632 192.835 74.3632C194.631 74.3632 195.449 75.9314 195.449 77.6814C195.449 79.4314 194.631 80.9768 192.835 80.9768Z" fill="#00559B"/>
<path d="M198.837 85.2723H200.177V80.6586H200.291C200.587 81.1359 201.155 82.1814 202.837 82.1814C205.018 82.1814 206.541 80.4314 206.541 77.6586C206.541 74.9086 205.018 73.1586 202.814 73.1586C201.109 73.1586 200.587 74.2041 200.291 74.6586H200.132V73.2723H198.837V85.2723ZM200.155 77.6359C200.155 75.6814 201.018 74.3632 202.655 74.3632C204.359 74.3632 205.2 75.795 205.2 77.6359C205.2 79.4996 204.337 80.9768 202.655 80.9768C201.041 80.9768 200.155 79.6132 200.155 77.6359Z" fill="#00559B"/>
<path d="M209.927 70.3632H208.587V81.9996H209.927V70.3632Z" fill="#00559B"/>
<path d="M216.043 82.1814C217.815 82.1814 219.111 81.295 219.52 79.9768L218.224 79.6132C217.883 80.5223 217.094 80.9768 216.043 80.9768C214.469 80.9768 213.383 79.9598 213.321 78.0905H219.656V77.5223C219.656 74.2723 217.724 73.1586 215.906 73.1586C213.543 73.1586 211.974 75.0223 211.974 77.7041C211.974 80.3859 213.52 82.1814 216.043 82.1814ZM213.321 76.9314C213.412 75.5734 214.372 74.3632 215.906 74.3632C217.361 74.3632 218.293 75.4541 218.293 76.9314H213.321Z" fill="#00559B"/>
<path d="M228.764 82.2041C230.287 82.2041 231.082 81.3859 231.355 80.8177H231.423V81.9996H232.764V76.2496C232.764 73.4768 230.65 73.1586 229.537 73.1586C228.219 73.1586 226.719 73.6132 226.037 75.2041L227.31 75.6586C227.605 75.0223 228.304 74.3405 229.582 74.3405C230.815 74.3405 231.423 74.9939 231.423 76.1132V76.1586C231.423 76.8064 230.764 76.7496 229.173 76.9541C227.554 77.1643 225.787 77.5223 225.787 79.5223C225.787 81.2268 227.105 82.2041 228.764 82.2041ZM228.969 80.9996C227.9 80.9996 227.128 80.5223 227.128 79.5905C227.128 78.5677 228.06 78.2496 229.105 78.1132C229.673 78.045 231.196 77.8859 231.423 77.6132V78.8405C231.423 79.9314 230.56 80.9996 228.969 80.9996Z" fill="#00559B"/>
<path d="M238.734 85.4541C240.825 85.4541 242.507 84.4996 242.507 82.2496V73.2723H241.212V74.6586H241.075C240.78 74.2041 240.234 73.1586 238.53 73.1586C236.325 73.1586 234.802 74.9086 234.802 77.5905C234.802 80.3177 236.393 81.8632 238.507 81.8632C240.212 81.8632 240.757 80.8632 241.052 80.3859H241.166V82.1586C241.166 83.6132 240.143 84.2723 238.734 84.2723C237.149 84.2723 236.592 83.4371 236.234 82.9541L235.166 83.7041C235.712 84.6189 236.785 85.4541 238.734 85.4541ZM238.689 80.6586C237.007 80.6586 236.143 79.3859 236.143 77.5677C236.143 75.795 236.984 74.3632 238.689 74.3632C240.325 74.3632 241.189 75.6814 241.189 77.5677C241.189 79.4996 240.302 80.6586 238.689 80.6586Z" fill="#00559B"/>
<path d="M248.621 82.1814C250.393 82.1814 251.689 81.295 252.098 79.9768L250.802 79.6132C250.462 80.5223 249.672 80.9768 248.621 80.9768C247.047 80.9768 245.962 79.9598 245.899 78.0905H252.234V77.5223C252.234 74.2723 250.302 73.1586 248.484 73.1586C246.121 73.1586 244.552 75.0223 244.552 77.7041C244.552 80.3859 246.098 82.1814 248.621 82.1814ZM245.899 76.9314C245.99 75.5734 246.95 74.3632 248.484 74.3632C249.939 74.3632 250.871 75.4541 250.871 76.9314H245.899Z" fill="#00559B"/>
<path d="M260.456 75.2268C260.035 73.9882 259.092 73.1586 257.365 73.1586C255.524 73.1586 254.16 74.2041 254.16 75.6814C254.16 76.8859 254.876 77.6927 256.479 78.0677L257.933 78.4086C258.814 78.6132 259.229 79.0336 259.229 79.6359C259.229 80.3859 258.433 80.9996 257.183 80.9996C256.087 80.9996 255.399 80.528 255.16 79.5905L253.888 79.9086C254.2 81.3916 255.422 82.1814 257.206 82.1814C259.234 82.1814 260.615 81.0734 260.615 79.5677C260.615 78.3518 259.854 77.5848 258.297 77.2041L257.001 76.8859C255.967 76.6302 255.501 76.2836 255.501 75.6132C255.501 74.8632 256.297 74.3177 257.365 74.3177C258.535 74.3177 259.018 74.9655 259.251 75.5677L260.456 75.2268Z" fill="#00559B"/>
<path d="M271.912 70.3632H269.599L266.719 72.1871V74.3689L269.383 72.6984H269.452V81.9996H271.912V70.3632Z" fill="#00559B"/>
<path d="M274.677 81.9996H282.973V79.9882H278.087V79.9086L279.785 78.2439C282.177 76.0621 282.819 74.9711 282.819 73.6473C282.819 71.6302 281.172 70.2041 278.677 70.2041C276.234 70.2041 274.558 71.6643 274.564 73.9484H276.899C276.893 72.8348 277.598 72.153 278.66 72.153C279.683 72.153 280.444 72.7893 280.444 73.8121C280.444 74.7382 279.876 75.3746 278.819 76.3916L274.677 80.2268V81.9996Z" fill="#00559B"/>
<path d="M290.97 82.1643C292.26 82.1643 293.095 81.6018 293.521 80.7893H293.589V81.9996H295.885V76.1132C295.885 74.0336 294.123 73.1586 292.18 73.1586C290.089 73.1586 288.714 74.1586 288.379 75.7496L290.618 75.9314C290.783 75.3518 291.3 74.9257 292.169 74.9257C292.993 74.9257 293.464 75.3405 293.464 76.0564V76.0905C293.464 76.653 292.868 76.7268 291.351 76.8746C289.623 77.0336 288.072 77.6132 288.072 79.5621C288.072 81.2893 289.305 82.1643 290.97 82.1643ZM291.663 80.4939C290.919 80.4939 290.385 80.1473 290.385 79.4825C290.385 78.8007 290.947 78.4655 291.8 78.3461C292.328 78.2723 293.192 78.1473 293.481 77.9541V78.8802C293.481 79.795 292.726 80.4939 291.663 80.4939Z" fill="#00559B"/>
<path d="M300.183 76.9541C300.189 75.8291 300.859 75.17 301.837 75.17C302.808 75.17 303.393 75.8064 303.388 76.8746V81.9996H305.808V76.4427C305.808 74.4086 304.615 73.1586 302.797 73.1586C301.501 73.1586 300.564 73.795 300.172 74.8121H300.069V73.2723H297.763V81.9996H300.183V76.9541Z" fill="#00559B"/>
<path d="M310.932 82.1416C312.341 82.1416 313.074 81.3291 313.409 80.6018H313.511V81.9996H315.898V70.3632H313.483V74.7382H313.409C313.085 74.028 312.386 73.1586 310.926 73.1586C309.011 73.1586 307.392 74.6473 307.392 77.6473C307.392 80.5677 308.943 82.1416 310.932 82.1416ZM311.699 80.2155C310.511 80.2155 309.864 79.1586 309.864 77.6359C309.864 76.1246 310.5 75.0848 311.699 75.0848C312.875 75.0848 313.534 76.0791 313.534 77.6359C313.534 79.1927 312.864 80.2155 311.699 80.2155Z" fill="#00559B"/>
<path d="M173.909 106.17C176.557 106.17 178.204 104.358 178.204 101.67C178.204 98.9655 176.557 97.1586 173.909 97.1586C171.261 97.1586 169.614 98.9655 169.614 101.67C169.614 104.358 171.261 106.17 173.909 106.17ZM173.92 104.295C172.699 104.295 172.074 103.176 172.074 101.653C172.074 100.13 172.699 99.0052 173.92 99.0052C175.119 99.0052 175.744 100.13 175.744 101.653C175.744 103.176 175.119 104.295 173.92 104.295Z" fill="#00559B"/>
<path d="M182.199 94.3632H179.778V106H182.199V94.3632Z" fill="#00559B"/>
<path d="M187.354 106.142C188.763 106.142 189.496 105.329 189.831 104.602H189.933V106H192.319V94.3632H189.905V98.7382H189.831C189.507 98.028 188.808 97.1586 187.348 97.1586C185.433 97.1586 183.814 98.6473 183.814 101.647C183.814 104.568 185.365 106.142 187.354 106.142ZM188.121 104.215C186.933 104.215 186.285 103.159 186.285 101.636C186.285 100.125 186.922 99.0848 188.121 99.0848C189.297 99.0848 189.956 100.079 189.956 101.636C189.956 103.193 189.285 104.215 188.121 104.215Z" fill="#00559B"/>
<path d="M198.287 106.17C200.446 106.17 201.9 105.119 202.241 103.5L200.003 103.352C199.758 104.017 199.133 104.363 198.327 104.363C197.116 104.363 196.349 103.562 196.349 102.261V102.255H202.293V101.59C202.293 98.6246 200.497 97.1586 198.19 97.1586C195.622 97.1586 193.957 98.9825 193.957 101.676C193.957 104.443 195.599 106.17 198.287 106.17ZM196.349 100.755C196.4 99.7609 197.156 98.9655 198.23 98.9655C199.281 98.9655 200.008 99.7155 200.014 100.755H196.349Z" fill="#00559B"/>
<path d="M203.872 106H206.293V101.062C206.293 99.9882 207.077 99.2496 208.145 99.2496C208.48 99.2496 208.94 99.3064 209.168 99.3802V97.2325C208.952 97.1814 208.65 97.1473 208.406 97.1473C207.429 97.1473 206.628 97.7155 206.31 98.795H206.219V97.2723H203.872V106Z" fill="#00559B"/>
<path d="M216.952 106.204C218.474 106.204 219.27 105.386 219.543 104.818H219.611V106H220.952V100.25C220.952 97.4768 218.838 97.1586 217.724 97.1586C216.406 97.1586 214.906 97.6132 214.224 99.2041L215.497 99.6586C215.793 99.0223 216.491 98.3405 217.77 98.3405C219.003 98.3405 219.611 98.9939 219.611 100.113V100.159C219.611 100.806 218.952 100.75 217.361 100.954C215.741 101.164 213.974 101.522 213.974 103.522C213.974 105.227 215.293 106.204 216.952 106.204ZM217.156 105C216.088 105 215.315 104.522 215.315 103.59C215.315 102.568 216.247 102.25 217.293 102.113C217.861 102.045 219.383 101.886 219.611 101.613V102.84C219.611 103.931 218.747 105 217.156 105Z" fill="#00559B"/>
<path d="M223.399 106H224.74V100.477C224.74 99.295 225.672 98.4314 226.944 98.4314C227.302 98.4314 227.672 98.4996 227.763 98.5223V97.1586C227.609 97.1473 227.257 97.1359 227.058 97.1359C226.013 97.1359 225.104 97.7268 224.785 98.5905H224.694V97.2723H223.399V106Z" fill="#00559B"/>
<path d="M232.746 106.181C234.518 106.181 235.814 105.295 236.223 103.977L234.927 103.613C234.587 104.522 233.797 104.977 232.746 104.977C231.172 104.977 230.087 103.96 230.024 102.09H236.359V101.522C236.359 98.2723 234.427 97.1586 232.609 97.1586C230.246 97.1586 228.677 99.0223 228.677 101.704C228.677 104.386 230.223 106.181 232.746 106.181ZM230.024 100.931C230.115 99.5734 231.075 98.3632 232.609 98.3632C234.064 98.3632 234.996 99.4541 234.996 100.931H230.024Z" fill="#00559B"/>
<path d="M242.899 109.272H244.24V104.659H244.354C244.649 105.136 245.217 106.181 246.899 106.181C249.081 106.181 250.604 104.431 250.604 101.659C250.604 98.9086 249.081 97.1586 246.876 97.1586C245.172 97.1586 244.649 98.2041 244.354 98.6586H244.194V97.2723H242.899V109.272ZM244.217 101.636C244.217 99.6814 245.081 98.3632 246.717 98.3632C248.422 98.3632 249.263 99.795 249.263 101.636C249.263 103.5 248.399 104.977 246.717 104.977C245.104 104.977 244.217 103.613 244.217 101.636Z" fill="#00559B"/>
<path d="M255.217 106.204C256.74 106.204 257.535 105.386 257.808 104.818H257.876V106H259.217V100.25C259.217 97.4768 257.104 97.1586 255.99 97.1586C254.672 97.1586 253.172 97.6132 252.49 99.2041L253.763 99.6586C254.058 99.0223 254.757 98.3405 256.035 98.3405C257.268 98.3405 257.876 98.9939 257.876 100.113V100.159C257.876 100.806 257.217 100.75 255.626 100.954C254.007 101.164 252.24 101.522 252.24 103.522C252.24 105.227 253.558 106.204 255.217 106.204ZM255.422 105C254.354 105 253.581 104.522 253.581 103.59C253.581 102.568 254.513 102.25 255.558 102.113C256.126 102.045 257.649 101.886 257.876 101.613V102.84C257.876 103.931 257.013 105 255.422 105Z" fill="#00559B"/>
<path d="M261.665 106H263.006V100.477C263.006 99.295 263.937 98.4314 265.21 98.4314C265.568 98.4314 265.937 98.4996 266.028 98.5223V97.1586C265.875 97.1473 265.523 97.1359 265.324 97.1359C264.278 97.1359 263.369 97.7268 263.051 98.5905H262.96V97.2723H261.665V106Z" fill="#00559B"/>
<path d="M271.96 97.2723H270.096V95.1814H268.756V97.2723H267.437V98.4086H268.756V103.863C268.756 105.386 269.983 106.113 271.119 106.113C271.619 106.113 271.937 106.022 272.119 105.954L271.846 104.75C271.733 104.772 271.551 104.818 271.256 104.818C270.665 104.818 270.096 104.636 270.096 103.5V98.4086H271.96V97.2723Z" fill="#00559B"/>
<path d="M273.977 106H275.318V97.2723H273.977V106ZM274.659 95.8177C275.182 95.8177 275.614 95.4086 275.614 94.9086C275.614 94.4086 275.182 93.9996 274.659 93.9996C274.136 93.9996 273.704 94.4086 273.704 94.9086C273.704 95.4086 274.136 95.8177 274.659 95.8177Z" fill="#00559B"/>
<path d="M281.319 106.181C283.251 106.181 284.524 105 284.751 103.454H283.41C283.16 104.409 282.365 104.977 281.319 104.977C279.729 104.977 278.706 103.659 278.706 101.636C278.706 99.6586 279.751 98.3632 281.319 98.3632C282.501 98.3632 283.206 99.0905 283.41 99.8859H284.751C284.524 98.2496 283.138 97.1586 281.297 97.1586C278.933 97.1586 277.365 99.0223 277.365 101.681C277.365 104.295 278.865 106.181 281.319 106.181Z" fill="#00559B"/>
<path d="M286.712 106H288.052V97.2723H286.712V106ZM287.393 95.8177C287.916 95.8177 288.348 95.4086 288.348 94.9086C288.348 94.4086 287.916 93.9996 287.393 93.9996C286.871 93.9996 286.439 94.4086 286.439 94.9086C286.439 95.4086 286.871 95.8177 287.393 95.8177Z" fill="#00559B"/>
<path d="M290.508 109.272H291.849V104.659H291.963C292.258 105.136 292.827 106.181 294.508 106.181C296.69 106.181 298.213 104.431 298.213 101.659C298.213 98.9086 296.69 97.1586 294.486 97.1586C292.781 97.1586 292.258 98.2041 291.963 98.6586H291.804V97.2723H290.508V109.272ZM291.827 101.636C291.827 99.6814 292.69 98.3632 294.327 98.3632C296.031 98.3632 296.872 99.795 296.872 101.636C296.872 103.5 296.008 104.977 294.327 104.977C292.713 104.977 291.827 103.613 291.827 101.636Z" fill="#00559B"/>
<path d="M302.827 106.204C304.349 106.204 305.145 105.386 305.418 104.818H305.486V106H306.827V100.25C306.827 97.4768 304.713 97.1586 303.599 97.1586C302.281 97.1586 300.781 97.6132 300.099 99.2041L301.372 99.6586C301.668 99.0223 302.366 98.3405 303.645 98.3405C304.878 98.3405 305.486 98.9939 305.486 100.113V100.159C305.486 100.806 304.827 100.75 303.236 100.954C301.616 101.164 299.849 101.522 299.849 103.522C299.849 105.227 301.168 106.204 302.827 106.204ZM303.031 105C301.963 105 301.19 104.522 301.19 103.59C301.19 102.568 302.122 102.25 303.168 102.113C303.736 102.045 305.258 101.886 305.486 101.613V102.84C305.486 103.931 304.622 105 303.031 105Z" fill="#00559B"/>
<path d="M313.069 97.2723H311.206V95.1814H309.865V97.2723H308.547V98.4086H309.865V103.863C309.865 105.386 311.092 106.113 312.229 106.113C312.729 106.113 313.047 106.022 313.229 105.954L312.956 104.75C312.842 104.772 312.66 104.818 312.365 104.818C311.774 104.818 311.206 104.636 311.206 103.5V98.4086H313.069V97.2723Z" fill="#00559B"/>
<path d="M315.087 106H316.427V97.2723H315.087V106ZM315.768 95.8177C316.291 95.8177 316.723 95.4086 316.723 94.9086C316.723 94.4086 316.291 93.9996 315.768 93.9996C315.246 93.9996 314.814 94.4086 314.814 94.9086C314.814 95.4086 315.246 95.8177 315.768 95.8177Z" fill="#00559B"/>
<path d="M320.224 100.75C320.224 99.2268 321.168 98.3632 322.452 98.3632C323.696 98.3632 324.452 99.1757 324.452 100.545V106H325.793V100.454C325.793 98.2268 324.605 97.1586 322.838 97.1586C321.52 97.1586 320.702 97.7496 320.293 98.6359H320.179V97.2723H318.883V106H320.224V100.75Z" fill="#00559B"/>
<path d="M331.766 109.454C333.856 109.454 335.538 108.5 335.538 106.25V97.2723H334.243V98.6586H334.106C333.811 98.2041 333.266 97.1586 331.561 97.1586C329.356 97.1586 327.834 98.9086 327.834 101.59C327.834 104.318 329.425 105.863 331.538 105.863C333.243 105.863 333.788 104.863 334.084 104.386H334.197V106.159C334.197 107.613 333.175 108.272 331.766 108.272C330.18 108.272 329.623 107.437 329.266 106.954L328.197 107.704C328.743 108.619 329.817 109.454 331.766 109.454ZM331.72 104.659C330.038 104.659 329.175 103.386 329.175 101.568C329.175 99.795 330.016 98.3632 331.72 98.3632C333.356 98.3632 334.22 99.6814 334.22 101.568C334.22 103.5 333.334 104.659 331.72 104.659Z" fill="#00559B"/>
<path d="M170.227 130H171.568V121.272H170.227V130ZM170.909 119.818C171.432 119.818 171.864 119.409 171.864 118.909C171.864 118.409 171.432 118 170.909 118C170.386 118 169.954 118.409 169.954 118.909C169.954 119.409 170.386 119.818 170.909 119.818Z" fill="#00559B"/>
<path d="M175.365 124.75C175.365 123.227 176.308 122.363 177.592 122.363C178.837 122.363 179.592 123.176 179.592 124.545V130H180.933V124.454C180.933 122.227 179.746 121.159 177.979 121.159C176.66 121.159 175.842 121.75 175.433 122.636H175.319V121.272H174.024V130H175.365V124.75Z" fill="#00559B"/>
<path d="M191.679 121.272H189.815V119.181H188.474V121.272H187.156V122.409H188.474V127.863C188.474 129.386 189.702 130.113 190.838 130.113C191.338 130.113 191.656 130.022 191.838 129.954L191.565 128.75C191.452 128.772 191.27 128.818 190.974 128.818C190.383 128.818 189.815 128.636 189.815 127.5V122.409H191.679V121.272Z" fill="#00559B"/>
<path d="M195.224 124.75C195.224 123.227 196.196 122.363 197.52 122.363C198.781 122.363 199.543 123.159 199.543 124.545V130H200.883V124.454C200.883 122.21 199.69 121.159 197.906 121.159C196.531 121.159 195.747 121.733 195.338 122.636H195.224V118.363H193.883V130H195.224V124.75Z" fill="#00559B"/>
<path d="M206.996 130.181C208.768 130.181 210.064 129.295 210.473 127.977L209.177 127.613C208.837 128.522 208.047 128.977 206.996 128.977C205.422 128.977 204.337 127.96 204.274 126.09H210.609V125.522C210.609 122.272 208.677 121.159 206.859 121.159C204.496 121.159 202.927 123.022 202.927 125.704C202.927 128.386 204.473 130.181 206.996 130.181ZM204.274 124.931C204.365 123.573 205.325 122.363 206.859 122.363C208.314 122.363 209.246 123.454 209.246 124.931H204.274Z" fill="#00559B"/>
<path d="M217.331 130H218.74V125.75H221.285C223.996 125.75 225.217 124.102 225.217 122.045C225.217 119.988 223.996 118.363 221.263 118.363H217.331V130ZM218.74 124.5V119.613H221.217C223.109 119.613 223.831 120.647 223.831 122.045C223.831 123.443 223.109 124.5 221.24 124.5H218.74Z" fill="#00559B"/>
<path d="M226.777 130L227.947 126.704H232.652L233.822 130H235.3L231.027 118.363H229.572L225.3 130H226.777ZM228.391 125.454L230.254 120.204H230.345L232.209 125.454H228.391Z" fill="#00559B"/>
<path d="M235.116 119.613H238.775V130H240.185V119.613H243.844V118.363H235.116V119.613Z" fill="#00559B"/>
<path d="M246.018 130H247.427V124.795H253.632V130H255.041V118.363H253.632V123.545H247.427V118.363H246.018V130Z" fill="#00559B"/>
<path d="M268.726 121.272H270.089C270.027 119.517 268.408 118.204 266.158 118.204C263.93 118.204 262.18 119.5 262.18 121.454C262.18 123.022 263.317 123.954 265.135 124.477L266.567 124.886C267.794 125.227 268.885 125.659 268.885 126.818C268.885 128.09 267.658 128.931 266.044 128.931C264.658 128.931 263.43 128.318 263.317 127H261.862C261.998 128.909 263.544 130.204 266.044 130.204C268.726 130.204 270.248 128.727 270.248 126.84C270.248 124.659 268.18 123.954 266.976 123.636L265.794 123.318C264.93 123.09 263.544 122.636 263.544 121.386C263.544 120.272 264.567 119.454 266.112 119.454C267.521 119.454 268.589 120.125 268.726 121.272Z" fill="#00559B"/>
<path d="M276.179 121.272H274.315V119.181H272.974V121.272H271.656V122.409H272.974V127.863C272.974 129.386 274.202 130.113 275.338 130.113C275.838 130.113 276.156 130.022 276.338 129.954L276.065 128.75C275.952 128.772 275.77 128.818 275.474 128.818C274.883 128.818 274.315 128.636 274.315 127.5V122.409H276.179V121.272Z" fill="#00559B"/>
<path d="M283.696 126.431C283.696 128.068 282.446 128.818 281.446 128.818C280.332 128.818 279.537 128 279.537 126.727V121.272H278.196V126.818C278.196 129.045 279.378 130.113 281.014 130.113C282.332 130.113 283.196 129.409 283.605 128.522H283.696V130H285.037V121.272H283.696V126.431Z" fill="#00559B"/>
<path d="M290.788 130.181C292.47 130.181 293.038 129.136 293.334 128.659H293.493V130H294.788V118.363H293.447V122.659H293.334C293.038 122.204 292.516 121.159 290.811 121.159C288.606 121.159 287.084 122.909 287.084 125.659C287.084 128.431 288.606 130.181 290.788 130.181ZM290.97 128.977C289.288 128.977 288.425 127.5 288.425 125.636C288.425 123.795 289.266 122.363 290.97 122.363C292.606 122.363 293.47 123.681 293.47 125.636C293.47 127.613 292.584 128.977 290.97 128.977Z" fill="#00559B"/>
<path d="M298.294 133.272C299.504 133.272 300.356 132.63 300.862 131.272L304.578 121.295L303.112 121.272L300.703 128.227H300.612L298.203 121.272H296.748L299.976 130.045L299.726 130.727C299.237 132.056 298.635 132.181 297.658 131.931L297.317 133.113C297.453 133.181 297.839 133.272 298.294 133.272Z" fill="#00559B"/>
<path d="M306.783 130.09C307.345 130.09 307.805 129.63 307.805 129.068C307.805 128.505 307.345 128.045 306.783 128.045C306.22 128.045 305.76 128.505 305.76 129.068C305.76 129.63 306.22 130.09 306.783 130.09Z" fill="#00559B"/>
<path d="M166.151 55.9317H174.528V58.9999H178.057V55.9317H180.222V52.9743H178.057V41.5454H173.438L166.151 53.0255V55.9317ZM174.597 52.9743H169.867V52.838L174.46 45.5681H174.597V52.9743Z" fill="#00559B"/>
<path d="M188.996 41.3067C185.092 41.2897 182.459 43.8465 182.476 47.3579C182.484 50.6135 184.743 52.9743 187.837 52.9743C189.754 52.9743 191.459 52.0454 192.234 50.5113H192.354C192.345 53.9715 191.144 56.0766 188.868 56.0766C187.53 56.0766 186.567 55.3437 186.286 54.0738H182.646C182.987 57.0141 185.374 59.2385 188.868 59.2385C193.189 59.2385 195.976 55.7442 195.967 49.8209C195.959 43.4971 192.584 41.3238 188.996 41.3067ZM189.021 44.2045C190.717 44.2045 191.97 45.5851 191.987 47.2471C191.996 48.9175 190.675 50.2982 188.987 50.2982C187.283 50.2982 186.064 48.9687 186.055 47.2556C186.038 45.551 187.308 44.2045 189.021 44.2045Z" fill="#00559B"/>
<path d="M201.778 56.6135H198.778L198.735 57.5681C198.633 59.8863 197.968 62.2641 197.721 63.2613H200.073C200.482 62.23 201.454 59.8096 201.684 57.551L201.778 56.6135Z" fill="#00559B"/>
<path d="M211.18 59.3834C215.57 59.3834 218.22 56.0425 218.229 50.2897C218.237 44.5795 215.553 41.3067 211.18 41.3067C206.8 41.3067 204.141 44.5709 204.132 50.2897C204.115 56.0255 206.783 59.3749 211.18 59.3834ZM211.18 56.3238C209.178 56.3238 207.882 54.3124 207.891 50.2897C207.899 46.3266 209.186 44.3323 211.18 44.3323C213.166 44.3323 214.462 46.3266 214.462 50.2897C214.47 54.3124 213.175 56.3238 211.18 56.3238Z" fill="#00559B"/>
<path d="M227.704 59.3834C232.093 59.3834 234.744 56.0425 234.752 50.2897C234.761 44.5795 232.076 41.3067 227.704 41.3067C223.323 41.3067 220.664 44.5709 220.656 50.2897C220.639 56.0255 223.306 59.3749 227.704 59.3834ZM227.704 56.3238C225.701 56.3238 224.406 54.3124 224.414 50.2897C224.423 46.3266 225.71 44.3323 227.704 44.3323C229.69 44.3323 230.985 46.3266 230.985 50.2897C230.994 54.3124 229.698 56.3238 227.704 56.3238Z" fill="#00559B"/>
<path d="M244.227 59.3834C248.617 59.3834 251.267 56.0425 251.276 50.2897C251.284 44.5795 248.6 41.3067 244.227 41.3067C239.847 41.3067 237.188 44.5709 237.179 50.2897C237.162 56.0255 239.83 59.3749 244.227 59.3834ZM244.227 56.3238C242.224 56.3238 240.929 54.3124 240.938 50.2897C240.946 46.3266 242.233 44.3323 244.227 44.3323C246.213 44.3323 247.509 46.3266 247.509 50.2897C247.517 54.3124 246.222 56.3238 244.227 56.3238Z" fill="#00559B"/>
<path d="M144 52L154.5 45.9378L154.5 58.0622L144 52Z" fill="#7AC142"/>
<defs>
<linearGradient id="paint0_linear" x1="109" y1="41" x2="109" y2="222" gradientUnits="userSpaceOnUse">
<stop stop-color="#99D5FB"/>
<stop offset="1" stop-color="#AFDCF8"/>
</linearGradient>
<linearGradient id="paint1_linear" x1="167" y1="143" x2="167" y2="222" gradientUnits="userSpaceOnUse">
<stop stop-color="#99D5FB"/>
<stop offset="1" stop-color="#AFDCF8"/>
</linearGradient>
<linearGradient id="paint2_linear" x1="228" y1="175" x2="228" y2="222" gradientUnits="userSpaceOnUse">
<stop stop-color="#99D5FB"/>
<stop offset="1" stop-color="#AFDCF8"/>
</linearGradient>
<linearGradient id="paint3_linear" x1="46.921" y1="107.676" x2="46.921" y2="230.268" gradientUnits="userSpaceOnUse">
<stop stop-color="#0069AA"/>
<stop offset="1" stop-color="#005CAA"/>
</linearGradient>
<linearGradient id="paint4_linear" x1="44.1873" y1="113.427" x2="46.155" y2="32.782" gradientUnits="userSpaceOnUse">
<stop stop-color="#86CC48"/>
<stop offset="1" stop-color="#A3E56A"/>
</linearGradient>
</defs>
</svg>
