<svg width="1600" height="889" viewBox="0 0 1600 889" fill="none" xmlns="http://www.w3.org/2000/svg">
<rect width="1600" height="642" fill="#F1F8FD"/>
<path d="M-13 642H1347V672C1347 699.614 1324.61 722 1297 722H-13V642Z" fill="#F1F8FD"/>
<path d="M-13 720H503V750C503 777.614 480.614 800 453 800H-13V720Z" fill="#F1F8FD"/>
<circle cx="581" cy="769" r="34" fill="#F1F8FD"/>
<path d="M1376 813C1376 779.863 1402.86 753 1436 753H1832C1865.14 753 1892 779.863 1892 813V829C1892 862.137 1865.14 889 1832 889H1436C1402.86 889 1376 862.137 1376 829V813Z" fill="#F1F8FD"/>
</svg>
