<svg width="451" height="308" viewBox="0 0 451 308" fill="none" xmlns="http://www.w3.org/2000/svg">
<path d="M211.873 23.0004L213.169 19.0203H219.467L220.762 23.0004H224.717L218.7 5.5459H213.944L207.919 23.0004H211.873ZM214.106 16.1396L216.254 9.53453H216.39L218.538 16.1396H214.106Z" fill="#002D44"/>
<path d="M230.964 23.2135C233.078 23.2135 234.177 21.9948 234.68 20.9039H234.833V23.0004H238.413V5.5459H234.791V12.1084H234.68C234.194 11.0431 233.146 9.73908 230.956 9.73908C228.083 9.73908 225.654 11.972 225.654 16.472C225.654 20.8527 227.981 23.2135 230.964 23.2135ZM232.115 20.3243C230.333 20.3243 229.362 18.7391 229.362 16.455C229.362 14.1879 230.316 12.6283 232.115 12.6283C233.879 12.6283 234.868 14.1198 234.868 16.455C234.868 18.7902 233.862 20.3243 232.115 20.3243Z" fill="#002D44"/>
<path d="M249.793 17.4266C249.802 19.1823 248.6 20.1027 247.296 20.1027C245.924 20.1027 245.037 19.1396 245.029 17.597V9.90953H241.398V18.2448C241.407 21.3044 243.196 23.1709 245.83 23.1709C247.799 23.1709 249.213 22.1567 249.802 20.6226H249.938V23.0004H253.424V9.90953H249.793V17.4266Z" fill="#002D44"/>
<path d="M259.958 5.5459H256.328V23.0004H259.958V5.5459Z" fill="#002D44"/>
<path d="M269.83 9.90953H267.367V6.77317H263.736V9.90953H261.946V12.6368H263.736V19.455C263.719 22.0203 265.466 23.2902 268.1 23.1794C269.037 23.1453 269.702 22.9578 270.069 22.8385L269.498 20.1368C269.319 20.1709 268.935 20.2561 268.594 20.2561C267.87 20.2561 267.367 19.9834 267.367 18.9777V12.6368H269.83V9.90953Z" fill="#002D44"/>
<path d="M280.826 23.0004L282.122 19.0203H288.42L289.716 23.0004H293.67L287.653 5.5459H282.897L276.872 23.0004H280.826ZM283.059 16.1396L285.207 9.53453H285.343L287.491 16.1396H283.059Z" fill="#002D44"/>
<path d="M300.991 28.1823C304.733 28.1823 307.392 26.4777 307.392 23.1283V9.90953H303.787V12.1084H303.65C303.164 11.0431 302.099 9.73908 299.909 9.73908C297.037 9.73908 294.608 11.972 294.608 16.4294C294.608 20.7845 296.968 22.8129 299.917 22.8129C302.005 22.8129 303.173 21.7646 303.65 20.6823H303.804V23.0771C303.804 24.8754 302.653 25.5743 301.076 25.5743C299.474 25.5743 298.664 24.8754 298.366 24.0828L295.008 24.5345C295.443 26.597 297.463 28.1823 300.991 28.1823ZM301.068 20.0857C299.287 20.0857 298.315 18.6709 298.315 16.4124C298.315 14.1879 299.27 12.6283 301.068 12.6283C302.832 12.6283 303.821 14.1198 303.821 16.4124C303.821 18.722 302.815 20.0857 301.068 20.0857Z" fill="#002D44"/>
<path d="M316.247 23.2561C319.485 23.2561 321.667 21.6794 322.179 19.2504L318.821 19.0289C318.454 20.026 317.517 20.5459 316.306 20.5459C314.491 20.5459 313.341 19.3442 313.341 17.3925V17.384H322.255V16.3868C322.255 11.9379 319.562 9.73908 316.102 9.73908C312.25 9.73908 309.753 12.4749 309.753 16.5146C309.753 20.6652 312.216 23.2561 316.247 23.2561ZM313.341 15.134C313.417 13.6425 314.551 12.4493 316.162 12.4493C317.738 12.4493 318.829 13.5743 318.838 15.134H313.341Z" fill="#002D44"/>
<path d="M335.517 13.6425C335.193 11.2306 333.25 9.73908 329.943 9.73908C326.593 9.73908 324.386 11.2902 324.395 13.8129C324.386 15.7732 325.622 17.0431 328.179 17.5544L330.446 18.0061C331.588 18.2362 332.108 18.6539 332.125 19.3101C332.108 20.0857 331.264 20.6396 329.994 20.6396C328.699 20.6396 327.838 20.0857 327.616 19.0203L324.045 19.2078C324.386 21.7135 326.517 23.2561 329.985 23.2561C333.378 23.2561 335.806 21.526 335.815 18.9436C335.806 17.0516 334.571 15.9181 332.031 15.3982L329.662 14.9209C328.443 14.6567 327.991 14.2391 328 13.6084C327.991 12.8243 328.878 12.3129 330.003 12.3129C331.264 12.3129 332.014 13.0033 332.193 13.847L335.517 13.6425Z" fill="#002D44"/>
<path opacity="0.3" d="M426.143 307.652H24.3262C10.8572 307.652 0 296.744 0 283.326C0 269.857 10.9084 259 24.3262 259H426.143C439.612 259 450.47 269.908 450.47 283.326C450.47 296.744 439.612 307.652 426.143 307.652Z" fill="#7AC142"/>
<path d="M379.295 119H420.359C423.661 119 426.362 121.645 426.362 124.878V279.121C426.362 282.354 423.661 284.999 420.359 284.999H379.295C375.993 284.999 373.292 282.354 373.292 279.121V124.878C373.292 121.645 375.993 119 379.295 119Z" fill="url(#paint0_linear)"/>
<path d="M313.737 171H354.801C358.103 171 360.804 173.665 360.804 176.922V279.078C360.804 282.335 358.103 285 354.801 285H313.737C310.435 285 307.734 282.335 307.734 279.078V176.922C307.734 173.665 310.435 171 313.737 171Z" fill="url(#paint1_linear)"/>
<path d="M248.119 164H289.183C292.485 164 295.187 166.829 295.187 170.286V278.715C295.187 282.172 292.485 285 289.183 285H248.119C244.818 285 242.116 282.172 242.116 278.715V170.286C242.116 166.829 244.818 164 248.119 164Z" fill="url(#paint2_linear)"/>
<path d="M182.561 119H223.625C226.927 119 229.629 121.91 229.629 125.467V278.533C229.629 282.09 226.927 285 223.625 285H182.561C179.259 285 176.558 282.09 176.558 278.533V125.467C176.558 121.91 179.259 119 182.561 119Z" fill="url(#paint3_linear)"/>
<path d="M117.003 69.2344H158.067C161.369 69.2344 164.071 71.9359 164.071 75.2378V278.996C164.071 282.297 161.369 284.999 158.067 284.999H117.003C113.702 284.999 111 282.297 111 278.996V75.2378C111 71.9359 113.642 69.2344 117.003 69.2344Z" fill="url(#paint4_linear)"/>
<path d="M123.234 40.2387C127.154 40.2387 129.958 38.0825 129.95 35.0995C129.958 32.9262 128.577 31.3751 126.012 31.0512V30.9149C127.964 30.5654 129.31 29.1847 129.302 27.2245C129.31 24.4717 126.898 22.3069 123.285 22.3069C119.705 22.3069 117.012 24.4035 116.961 27.4205H120.498C120.54 26.091 121.759 25.2302 123.268 25.2302C124.759 25.2302 125.756 26.1336 125.748 27.4461C125.756 28.8183 124.589 29.7472 122.91 29.7472H121.282V32.4575H122.91C124.887 32.4575 126.123 33.4461 126.114 34.8524C126.123 36.2416 124.93 37.1961 123.242 37.1961C121.614 37.1961 120.396 36.3438 120.327 35.0654H116.611C116.671 38.1166 119.398 40.2387 123.234 40.2387Z" fill="#004F7F"/>
<path d="M139.054 40.2387C142.974 40.2387 145.778 38.0825 145.77 35.0995C145.778 32.9262 144.398 31.3751 141.832 31.0512V30.9149C143.784 30.5654 145.131 29.1847 145.122 27.2245C145.131 24.4717 142.719 22.3069 139.105 22.3069C135.526 22.3069 132.832 24.4035 132.781 27.4205H136.318C136.361 26.091 137.579 25.2302 139.088 25.2302C140.579 25.2302 141.577 26.1336 141.568 27.4461C141.577 28.8183 140.409 29.7472 138.73 29.7472H137.102V32.4575H138.73C140.707 32.4575 141.943 33.4461 141.935 34.8524C141.943 36.2416 140.75 37.1961 139.062 37.1961C137.435 37.1961 136.216 36.3438 136.148 35.0654H132.432C132.491 38.1166 135.219 40.2387 139.054 40.2387Z" fill="#004F7F"/>
<path d="M157.977 36.7274C157.985 38.824 159.323 40.6052 161.82 40.6052C164.292 40.6052 165.673 38.824 165.664 36.7274V35.8069C165.673 33.6933 164.326 31.9291 161.82 31.9291C159.357 31.9291 157.985 33.7103 157.977 35.8069V36.7274ZM149.019 26.7387C149.028 28.8353 150.366 30.5995 152.854 30.5995C155.334 30.5995 156.715 28.8524 156.707 26.7387V25.8183C156.715 23.7046 155.369 21.9404 152.854 21.9404C150.417 21.9404 149.028 23.7046 149.019 25.8183V26.7387ZM149.854 40.0001H152.079L164.079 22.5455H161.854L149.854 40.0001ZM160.457 35.8069C160.465 34.9717 160.798 34.1109 161.82 34.1109C162.894 34.1109 163.175 34.9717 163.167 35.8069V36.7274C163.175 37.5626 162.86 38.4063 161.82 38.4063C160.78 38.4063 160.465 37.537 160.457 36.7274V35.8069ZM151.516 25.8183C151.525 25.0086 151.84 24.1222 152.854 24.1222C153.928 24.1222 154.218 24.983 154.209 25.8183V26.7387C154.218 27.574 153.894 28.4177 152.854 28.4177C151.849 28.4177 151.525 27.574 151.516 26.7387V25.8183Z" fill="#004F7F"/>
<path d="M124.295 52.3632H122.886L119.977 54.295V55.7268L122.818 53.8405H122.886V63.9996H124.295V52.3632Z" fill="#004F7F"/>
<path d="M131.369 64.1586C133.693 64.1586 135.313 62.8007 135.324 60.9086C135.313 59.4371 134.33 58.1871 133.074 57.9541V57.8859C134.165 57.6018 134.881 56.5336 134.892 55.295C134.881 53.5223 133.392 52.2041 131.369 52.2041C129.324 52.2041 127.835 53.5223 127.847 55.295C127.835 56.5336 128.551 57.6018 129.665 57.8859V57.9541C128.386 58.1871 127.403 59.4371 127.415 60.9086C127.403 62.8007 129.023 64.1586 131.369 64.1586ZM131.369 62.9086C129.773 62.9086 128.79 62.0905 128.801 60.8405C128.79 59.528 129.875 58.5905 131.369 58.5905C132.841 58.5905 133.926 59.528 133.938 60.8405C133.926 62.0905 132.943 62.9086 131.369 62.9086ZM131.369 57.3859C130.097 57.3859 129.199 56.5905 129.21 55.3859C129.199 54.2041 130.063 53.4314 131.369 53.4314C132.653 53.4314 133.517 54.2041 133.528 55.3859C133.517 56.5905 132.619 57.3859 131.369 57.3859Z" fill="#004F7F"/>
<path d="M144.297 57.5564H136.297V58.8064H144.297V57.5564Z" fill="#004F7F"/>
<path d="M145.501 63.9996H152.842V62.7496H147.433V62.6586L150.047 59.8632C152.047 57.7211 152.638 56.7211 152.638 55.4314C152.638 53.6359 151.183 52.2041 149.138 52.2041C147.098 52.2041 145.547 53.5905 145.547 55.6359H146.888C146.888 54.3121 147.746 53.4314 149.092 53.4314C150.354 53.4314 151.32 54.2041 151.32 55.4314C151.32 56.5052 150.689 57.3007 149.342 58.7723L145.501 62.9768V63.9996Z" fill="#004F7F"/>
<path d="M154.666 61.6132H160.143V63.9996H161.484V61.6132H163.075V60.3632H161.484V52.3632H159.78L154.666 60.4541V61.6132ZM160.143 60.3632H156.189V60.2723L160.053 54.1586H160.143V60.3632Z" fill="#004F7F"/>
<path d="M180.173 87.0001H192.616V83.983H185.286V83.8637L187.835 81.3666C191.423 78.0938 192.386 76.4575 192.386 74.4717C192.386 71.4461 189.914 69.3069 186.173 69.3069C182.508 69.3069 179.994 71.4972 180.002 74.9234H183.505C183.497 73.2529 184.553 72.2302 186.147 72.2302C187.681 72.2302 188.823 73.1847 188.823 74.7188C188.823 76.108 187.971 77.0626 186.386 78.5882L180.173 84.341V87.0001Z" fill="#004F7F"/>
<path d="M202.884 69.5455H199.415L195.094 72.2813V75.5541L199.091 73.0484H199.193V87.0001H202.884V69.5455Z" fill="#004F7F"/>
<path d="M216.586 83.7274C216.595 85.824 217.933 87.6052 220.43 87.6052C222.901 87.6052 224.282 85.824 224.274 83.7274V82.8069C224.282 80.6933 222.935 78.9291 220.43 78.9291C217.967 78.9291 216.595 80.7103 216.586 82.8069V83.7274ZM207.629 73.7387C207.637 75.8353 208.975 77.5995 211.464 77.5995C213.944 77.5995 215.325 75.8524 215.316 73.7387V72.8183C215.325 70.7046 213.978 68.9404 211.464 68.9404C209.026 68.9404 207.637 70.7046 207.629 72.8183V73.7387ZM208.464 87.0001H210.688L222.688 69.5455H220.464L208.464 87.0001ZM219.066 82.8069C219.075 81.9717 219.407 81.1109 220.43 81.1109C221.504 81.1109 221.785 81.9717 221.776 82.8069V83.7274C221.785 84.5626 221.47 85.4063 220.43 85.4063C219.39 85.4063 219.075 84.537 219.066 83.7274V82.8069ZM210.126 72.8183C210.134 72.0086 210.45 71.1222 211.464 71.1222C212.538 71.1222 212.828 71.983 212.819 72.8183V73.7387C212.828 74.574 212.504 75.4177 211.464 75.4177C210.458 75.4177 210.134 74.574 210.126 73.7387V72.8183Z" fill="#004F7F"/>
<path d="M179.767 111H187.108V109.75H181.699V109.659L184.313 106.863C186.313 104.721 186.903 103.721 186.903 102.431C186.903 100.636 185.449 99.2041 183.403 99.2041C181.364 99.2041 179.813 100.59 179.813 102.636H181.153C181.153 101.312 182.011 100.431 183.358 100.431C184.619 100.431 185.585 101.204 185.585 102.431C185.585 103.505 184.955 104.301 183.608 105.772L179.767 109.977V111Z" fill="#004F7F"/>
<path d="M193.091 111.159C195.307 111.159 196.932 109.522 196.932 107.295C196.932 105.039 195.364 103.386 193.227 103.386C192.443 103.386 191.682 103.664 191.205 104.045H191.136L191.545 100.613H196.409V99.3632H190.364L189.659 105.09L190.977 105.25C191.46 104.903 192.284 104.653 193 104.659C194.483 104.67 195.568 105.795 195.568 107.318C195.568 108.812 194.523 109.909 193.091 109.909C191.898 109.909 190.949 109.142 190.841 108.09H189.477C189.563 109.863 191.091 111.159 193.091 111.159Z" fill="#004F7F"/>
<path d="M205.984 104.556H197.984V105.806H205.984V104.556Z" fill="#004F7F"/>
<path d="M211.121 111.159C213.376 111.159 215.053 109.744 215.053 107.84C215.053 106.363 214.178 105.289 212.712 105.045V104.954C213.888 104.596 214.621 103.63 214.621 102.318C214.621 100.67 213.32 99.2041 211.166 99.2041C209.155 99.2041 207.484 100.443 207.416 102.272H208.78C208.831 101.113 209.933 100.431 211.144 100.431C212.428 100.431 213.257 101.21 213.257 102.386C213.257 103.613 212.297 104.409 210.916 104.409H209.984V105.659H210.916C212.683 105.659 213.666 106.556 213.666 107.84C213.666 109.073 212.592 109.909 211.098 109.909C209.751 109.909 208.683 109.215 208.598 108.09H207.166C207.251 109.92 208.865 111.159 211.121 111.159Z" fill="#004F7F"/>
<path d="M217.104 108.613H222.581V111H223.922V108.613H225.513V107.363H223.922V99.3632H222.217L217.104 107.454V108.613ZM222.581 107.363H218.626V107.272L222.49 101.159H222.581V107.363Z" fill="#004F7F"/>
<path d="M253.415 114.546H249.946L245.625 117.281V120.554L249.622 118.048H249.724V132H253.415V114.546Z" fill="#004F7F"/>
<path d="M264.015 132.239C267.935 132.239 270.739 130.082 270.731 127.1C270.739 124.926 269.359 123.375 266.793 123.051V122.915C268.745 122.565 270.092 121.185 270.083 119.225C270.092 116.472 267.68 114.307 264.066 114.307C260.487 114.307 257.793 116.403 257.742 119.421H261.279C261.322 118.091 262.54 117.23 264.049 117.23C265.54 117.23 266.538 118.134 266.529 119.446C266.538 120.818 265.37 121.747 263.691 121.747H262.063V124.457H263.691C265.668 124.457 266.904 125.446 266.896 126.852C266.904 128.242 265.711 129.196 264.023 129.196C262.396 129.196 261.177 128.344 261.109 127.065H257.393C257.452 130.117 260.18 132.239 264.015 132.239Z" fill="#004F7F"/>
<path d="M282.938 128.727C282.946 130.824 284.284 132.605 286.781 132.605C289.253 132.605 290.634 130.824 290.625 128.727V127.807C290.634 125.693 289.287 123.929 286.781 123.929C284.318 123.929 282.946 125.71 282.938 127.807V128.727ZM273.98 118.739C273.989 120.835 275.327 122.6 277.815 122.6C280.295 122.6 281.676 120.852 281.668 118.739V117.818C281.676 115.705 280.33 113.94 277.815 113.94C275.378 113.94 273.989 115.705 273.98 117.818V118.739ZM274.815 132H277.04L289.04 114.546H286.815L274.815 132ZM285.418 127.807C285.426 126.972 285.759 126.111 286.781 126.111C287.855 126.111 288.136 126.972 288.128 127.807V128.727C288.136 129.563 287.821 130.406 286.781 130.406C285.741 130.406 285.426 129.537 285.418 128.727V127.807ZM276.477 117.818C276.486 117.009 276.801 116.122 277.815 116.122C278.889 116.122 279.179 116.983 279.17 117.818V118.739C279.179 119.574 278.855 120.418 277.815 120.418C276.81 120.418 276.486 119.574 276.477 118.739V117.818Z" fill="#004F7F"/>
<path d="M249.41 156.16C251.666 156.16 253.342 154.745 253.342 152.841C253.342 151.364 252.467 150.29 251.001 150.046V149.955C252.177 149.597 252.91 148.631 252.91 147.319C252.91 145.671 251.609 144.205 249.455 144.205C247.444 144.205 245.774 145.444 245.705 147.273H247.069C247.12 146.114 248.222 145.432 249.433 145.432C250.717 145.432 251.546 146.211 251.546 147.387C251.546 148.614 250.586 149.41 249.205 149.41H248.274V150.66H249.205C250.972 150.66 251.955 151.557 251.955 152.841C251.955 154.074 250.881 154.91 249.387 154.91C248.041 154.91 246.972 154.216 246.887 153.091H245.455C245.541 154.921 247.154 156.16 249.41 156.16Z" fill="#004F7F"/>
<path d="M259.302 156.16C261.518 156.16 263.143 154.523 263.143 152.296C263.143 150.04 261.575 148.387 259.438 148.387C258.654 148.387 257.893 148.665 257.416 149.046H257.347L257.756 145.614H262.62V144.364H256.575L255.87 150.091L257.188 150.251C257.671 149.904 258.495 149.654 259.211 149.66C260.694 149.671 261.779 150.796 261.779 152.319C261.779 153.813 260.734 154.91 259.302 154.91C258.109 154.91 257.16 154.143 257.052 153.091H255.688C255.774 154.864 257.302 156.16 259.302 156.16Z" fill="#004F7F"/>
<path d="M272.195 149.557H264.195V150.807H272.195V149.557Z" fill="#004F7F"/>
<path d="M273.127 153.614H278.604V156.001H279.945V153.614H281.536V152.364H279.945V144.364H278.241L273.127 152.455V153.614ZM278.604 152.364H274.65V152.273L278.514 146.16H278.604V152.364Z" fill="#004F7F"/>
<path d="M283.393 153.614H288.87V156.001H290.211V153.614H291.802V152.364H290.211V144.364H288.506L283.393 152.455V153.614ZM288.87 152.364H284.916V152.273L288.779 146.16H288.87V152.364Z" fill="#004F7F"/>
<path d="M318.766 121.546H315.298L310.977 124.281V127.554L314.974 125.048H315.076V139H318.766V121.546Z" fill="#004F7F"/>
<path d="M322.915 139H335.358V135.983H328.028V135.864L330.577 133.367C334.165 130.094 335.128 128.457 335.128 126.472C335.128 123.446 332.656 121.307 328.915 121.307C325.25 121.307 322.736 123.497 322.744 126.923H326.247C326.239 125.253 327.295 124.23 328.889 124.23C330.423 124.23 331.565 125.185 331.565 126.719C331.565 128.108 330.713 129.063 329.128 130.588L322.915 136.341V139Z" fill="#004F7F"/>
<path d="M347.586 135.727C347.594 137.824 348.933 139.605 351.43 139.605C353.901 139.605 355.282 137.824 355.273 135.727V134.807C355.282 132.693 353.935 130.929 351.43 130.929C348.967 130.929 347.594 132.71 347.586 134.807V135.727ZM338.629 125.739C338.637 127.835 339.975 129.6 342.464 129.6C344.944 129.6 346.325 127.852 346.316 125.739V124.818C346.325 122.705 344.978 120.94 342.464 120.94C340.026 120.94 338.637 122.705 338.629 124.818V125.739ZM339.464 139H341.688L353.688 121.546H351.464L339.464 139ZM350.066 134.807C350.075 133.972 350.407 133.111 351.43 133.111C352.504 133.111 352.785 133.972 352.776 134.807V135.727C352.785 136.563 352.469 137.406 351.43 137.406C350.39 137.406 350.075 136.537 350.066 135.727V134.807ZM341.126 124.818C341.134 124.009 341.45 123.122 342.464 123.122C343.538 123.122 343.827 123.983 343.819 124.818V125.739C343.827 126.574 343.504 127.418 342.464 127.418C341.458 127.418 341.134 126.574 341.126 125.739V124.818Z" fill="#004F7F"/>
<path d="M310.432 160.614H315.909V163.001H317.25V160.614H318.841V159.364H317.25V151.364H315.546L310.432 159.455V160.614ZM315.909 159.364H311.955V159.273L315.818 153.16H315.909V159.364Z" fill="#004F7F"/>
<path d="M324.607 163.16C326.823 163.16 328.448 161.523 328.448 159.296C328.448 157.04 326.879 155.387 324.743 155.387C323.959 155.387 323.198 155.665 322.72 156.046H322.652L323.061 152.614H327.925V151.364H321.879L321.175 157.092L322.493 157.251C322.976 156.904 323.8 156.654 324.516 156.66C325.999 156.671 327.084 157.796 327.084 159.319C327.084 160.813 326.038 161.91 324.607 161.91C323.413 161.91 322.465 161.143 322.357 160.092H320.993C321.078 161.864 322.607 163.16 324.607 163.16Z" fill="#004F7F"/>
<path d="M337.5 156.557H329.5V157.807H337.5V156.557Z" fill="#004F7F"/>
<path d="M342.341 163.16C344.557 163.16 346.182 161.523 346.182 159.296C346.182 157.04 344.614 155.387 342.477 155.387C341.693 155.387 340.932 155.665 340.455 156.046H340.386L340.796 152.614H345.659V151.364H339.614L338.909 157.092L340.227 157.251C340.71 156.904 341.534 156.654 342.25 156.66C343.733 156.671 344.818 157.796 344.818 159.319C344.818 160.813 343.773 161.91 342.341 161.91C341.148 161.91 340.199 161.143 340.091 160.092H338.727C338.813 161.864 340.341 163.16 342.341 163.16Z" fill="#004F7F"/>
<path d="M348.166 160.614H353.644V163.001H354.984V160.614H356.575V159.364H354.984V151.364H353.28L348.166 159.455V160.614ZM353.644 159.364H349.689V159.273L353.553 153.16H353.644V159.364Z" fill="#004F7F"/>
<path d="M377.173 87.0597H389.616V84.0426H382.286V83.9233L384.835 81.4261C388.423 78.1534 389.386 76.517 389.386 74.5312C389.386 71.5057 386.914 69.3665 383.173 69.3665C379.508 69.3665 376.994 71.5568 377.002 74.983H380.505C380.497 73.3125 381.553 72.2898 383.147 72.2898C384.681 72.2898 385.823 73.2443 385.823 74.7784C385.823 76.1676 384.971 77.1222 383.386 78.6477L377.173 84.4006V87.0597Z" fill="#004F7F"/>
<path d="M399.884 69.6051H396.415L392.094 72.3409V75.6136L396.091 73.108H396.193V87.0597H399.884V69.6051Z" fill="#004F7F"/>
<path d="M413.586 83.7869C413.595 85.8835 414.933 87.6648 417.43 87.6648C419.901 87.6648 421.282 85.8835 421.274 83.7869V82.8665C421.282 80.7528 419.935 78.9886 417.43 78.9886C414.967 78.9886 413.595 80.7699 413.586 82.8665V83.7869ZM404.629 73.7983C404.637 75.8949 405.975 77.6591 408.464 77.6591C410.944 77.6591 412.325 75.9119 412.316 73.7983V72.8778C412.325 70.7642 410.978 69 408.464 69C406.026 69 404.637 70.7642 404.629 72.8778V73.7983ZM405.464 87.0597H407.688L419.688 69.6051H417.464L405.464 87.0597ZM416.066 82.8665C416.075 82.0313 416.407 81.1705 417.43 81.1705C418.504 81.1705 418.785 82.0313 418.776 82.8665V83.7869C418.785 84.6222 418.47 85.4659 417.43 85.4659C416.39 85.4659 416.075 84.5966 416.066 83.7869V82.8665ZM407.126 72.8778C407.134 72.0682 407.45 71.1818 408.464 71.1818C409.538 71.1818 409.828 72.0426 409.819 72.8778V73.7983C409.828 74.6335 409.504 75.4773 408.464 75.4773C407.458 75.4773 407.134 74.6335 407.126 73.7983V72.8778Z" fill="#004F7F"/>
<path d="M389.333 111.219C391.549 111.219 393.174 109.583 393.174 107.356C393.174 105.1 391.606 103.447 389.469 103.447C388.685 103.447 387.924 103.725 387.447 104.106H387.379L387.788 100.674H392.651V99.4238H386.606L385.901 105.151L387.219 105.31C387.702 104.964 388.526 104.714 389.242 104.719C390.725 104.731 391.81 105.856 391.81 107.378C391.81 108.873 390.765 109.969 389.333 109.969C388.14 109.969 387.191 109.202 387.083 108.151H385.719C385.805 109.924 387.333 111.219 389.333 111.219Z" fill="#004F7F"/>
<path d="M399.067 111.219C401.283 111.219 402.908 109.583 402.908 107.356C402.908 105.1 401.34 103.447 399.204 103.447C398.42 103.447 397.658 103.725 397.181 104.106H397.113L397.522 100.674H402.386V99.4238H396.34L395.636 105.151L396.954 105.31C397.437 104.964 398.261 104.714 398.977 104.719C400.46 104.731 401.545 105.856 401.545 107.378C401.545 108.873 400.499 109.969 399.067 109.969C397.874 109.969 396.925 109.202 396.817 108.151H395.454C395.539 109.924 397.067 111.219 399.067 111.219Z" fill="#004F7F"/>
<path d="M408.597 109.015H409.87V105.901H412.984V104.628H409.87V101.515H408.597V104.628H405.484V105.901H408.597V109.015Z" fill="#004F7F"/>
<defs>
<linearGradient id="paint0_linear" x1="399.827" y1="119" x2="399.827" y2="284.999" gradientUnits="userSpaceOnUse">
<stop stop-color="#99D5FB"/>
<stop offset="1" stop-color="#AFDCF8"/>
</linearGradient>
<linearGradient id="paint1_linear" x1="334.269" y1="171" x2="334.269" y2="285" gradientUnits="userSpaceOnUse">
<stop stop-color="#99D5FB"/>
<stop offset="1" stop-color="#AFDCF8"/>
</linearGradient>
<linearGradient id="paint2_linear" x1="268.651" y1="164" x2="268.651" y2="285" gradientUnits="userSpaceOnUse">
<stop stop-color="#99D5FB"/>
<stop offset="1" stop-color="#AFDCF8"/>
</linearGradient>
<linearGradient id="paint3_linear" x1="203.093" y1="119" x2="203.093" y2="285" gradientUnits="userSpaceOnUse">
<stop stop-color="#99D5FB"/>
<stop offset="1" stop-color="#AFDCF8"/>
</linearGradient>
<linearGradient id="paint4_linear" x1="137.535" y1="69.2344" x2="137.535" y2="284.999" gradientUnits="userSpaceOnUse">
<stop stop-color="#99D5FB"/>
<stop offset="1" stop-color="#AFDCF8"/>
</linearGradient>
</defs>
</svg>
