<svg width="451" height="308" viewBox="0 0 451 308" fill="none" xmlns="http://www.w3.org/2000/svg">
<path d="M211.873 23.0004L213.169 19.0203H219.467L220.762 23.0004H224.717L218.7 5.5459H213.944L207.919 23.0004H211.873ZM214.106 16.1396L216.254 9.53453H216.39L218.538 16.1396H214.106Z" fill="#002D44"/>
<path d="M230.964 23.2135C233.078 23.2135 234.177 21.9948 234.68 20.9039H234.833V23.0004H238.413V5.5459H234.791V12.1084H234.68C234.194 11.0431 233.146 9.73908 230.956 9.73908C228.083 9.73908 225.654 11.972 225.654 16.472C225.654 20.8527 227.981 23.2135 230.964 23.2135ZM232.115 20.3243C230.333 20.3243 229.362 18.7391 229.362 16.455C229.362 14.1879 230.316 12.6283 232.115 12.6283C233.879 12.6283 234.868 14.1198 234.868 16.455C234.868 18.7902 233.862 20.3243 232.115 20.3243Z" fill="#002D44"/>
<path d="M249.793 17.4266C249.802 19.1823 248.6 20.1027 247.296 20.1027C245.924 20.1027 245.037 19.1396 245.029 17.597V9.90953H241.398V18.2448C241.407 21.3044 243.196 23.1709 245.83 23.1709C247.799 23.1709 249.213 22.1567 249.802 20.6226H249.938V23.0004H253.424V9.90953H249.793V17.4266Z" fill="#002D44"/>
<path d="M259.958 5.5459H256.328V23.0004H259.958V5.5459Z" fill="#002D44"/>
<path d="M269.83 9.90953H267.367V6.77317H263.736V9.90953H261.946V12.6368H263.736V19.455C263.719 22.0203 265.466 23.2902 268.1 23.1794C269.037 23.1453 269.702 22.9578 270.069 22.8385L269.498 20.1368C269.319 20.1709 268.935 20.2561 268.594 20.2561C267.87 20.2561 267.367 19.9834 267.367 18.9777V12.6368H269.83V9.90953Z" fill="#002D44"/>
<path d="M280.826 23.0004L282.122 19.0203H288.42L289.716 23.0004H293.67L287.653 5.5459H282.897L276.872 23.0004H280.826ZM283.059 16.1396L285.207 9.53453H285.343L287.491 16.1396H283.059Z" fill="#002D44"/>
<path d="M300.991 28.1823C304.733 28.1823 307.392 26.4777 307.392 23.1283V9.90953H303.787V12.1084H303.65C303.164 11.0431 302.099 9.73908 299.909 9.73908C297.037 9.73908 294.608 11.972 294.608 16.4294C294.608 20.7845 296.968 22.8129 299.917 22.8129C302.005 22.8129 303.173 21.7646 303.65 20.6823H303.804V23.0771C303.804 24.8754 302.653 25.5743 301.076 25.5743C299.474 25.5743 298.664 24.8754 298.366 24.0828L295.008 24.5345C295.443 26.597 297.463 28.1823 300.991 28.1823ZM301.068 20.0857C299.287 20.0857 298.315 18.6709 298.315 16.4124C298.315 14.1879 299.27 12.6283 301.068 12.6283C302.832 12.6283 303.821 14.1198 303.821 16.4124C303.821 18.722 302.815 20.0857 301.068 20.0857Z" fill="#002D44"/>
<path d="M316.247 23.2561C319.485 23.2561 321.667 21.6794 322.179 19.2504L318.821 19.0289C318.454 20.026 317.517 20.5459 316.306 20.5459C314.491 20.5459 313.341 19.3442 313.341 17.3925V17.384H322.255V16.3868C322.255 11.9379 319.562 9.73908 316.102 9.73908C312.25 9.73908 309.753 12.4749 309.753 16.5146C309.753 20.6652 312.216 23.2561 316.247 23.2561ZM313.341 15.134C313.417 13.6425 314.551 12.4493 316.162 12.4493C317.738 12.4493 318.829 13.5743 318.838 15.134H313.341Z" fill="#002D44"/>
<path d="M335.517 13.6425C335.193 11.2306 333.25 9.73908 329.943 9.73908C326.593 9.73908 324.386 11.2902 324.395 13.8129C324.386 15.7732 325.622 17.0431 328.179 17.5544L330.446 18.0061C331.588 18.2362 332.108 18.6539 332.125 19.3101C332.108 20.0857 331.264 20.6396 329.994 20.6396C328.699 20.6396 327.838 20.0857 327.616 19.0203L324.045 19.2078C324.386 21.7135 326.517 23.2561 329.985 23.2561C333.378 23.2561 335.806 21.526 335.815 18.9436C335.806 17.0516 334.571 15.9181 332.031 15.3982L329.662 14.9209C328.443 14.6567 327.991 14.2391 328 13.6084C327.991 12.8243 328.878 12.3129 330.003 12.3129C331.264 12.3129 332.014 13.0033 332.193 13.847L335.517 13.6425Z" fill="#002D44"/>
<path opacity="0.3" d="M426.143 307.652H24.3262C10.8572 307.652 0 296.744 0 283.326C0 269.857 10.9084 259 24.3262 259H426.143C439.612 259 450.47 269.908 450.47 283.326C450.47 296.744 439.612 307.652 426.143 307.652Z" fill="#7AC142"/>
<path d="M379.295 115.461H420.359C423.661 115.461 426.362 118.162 426.362 121.464V278.995C426.362 282.297 423.661 284.999 420.359 284.999H379.295C375.993 284.999 373.292 282.297 373.292 278.995V121.464C373.292 118.162 375.993 115.461 379.295 115.461Z" fill="url(#paint0_linear)"/>
<path d="M313.737 169.434H354.801C358.103 169.434 360.804 172.135 360.804 175.437V278.997C360.804 282.299 358.103 285 354.801 285H313.737C310.435 285 307.734 282.299 307.734 278.997V175.437C307.734 172.135 310.435 169.434 313.737 169.434Z" fill="url(#paint1_linear)"/>
<path d="M248.119 169.434H289.183C292.485 169.434 295.187 172.135 295.187 175.437V278.997C295.187 282.299 292.485 285 289.183 285H248.119C244.818 285 242.116 282.299 242.116 278.997V175.437C242.116 172.135 244.818 169.434 248.119 169.434Z" fill="url(#paint2_linear)"/>
<path d="M182.561 130.891H223.625C226.927 130.891 229.629 133.592 229.629 136.894V278.996C229.629 282.298 226.927 285 223.625 285H182.561C179.259 285 176.558 282.298 176.558 278.996V136.894C176.558 133.592 179.259 130.891 182.561 130.891Z" fill="url(#paint3_linear)"/>
<path d="M117.003 69.2344H158.067C161.369 69.2344 164.071 71.9359 164.071 75.2378V278.996C164.071 282.297 161.369 284.999 158.067 284.999H117.003C113.702 284.999 111 282.297 111 278.996V75.2378C111 71.9359 113.642 69.2344 117.003 69.2344Z" fill="url(#paint4_linear)"/>
<path d="M123.234 40.2387C127.154 40.2387 129.958 38.0825 129.95 35.0995C129.958 32.9262 128.577 31.3751 126.012 31.0512V30.9149C127.964 30.5654 129.31 29.1847 129.302 27.2245C129.31 24.4717 126.898 22.3069 123.285 22.3069C119.705 22.3069 117.012 24.4035 116.961 27.4205H120.498C120.54 26.091 121.759 25.2302 123.268 25.2302C124.759 25.2302 125.756 26.1336 125.748 27.4461C125.756 28.8183 124.589 29.7472 122.91 29.7472H121.282V32.4575H122.91C124.887 32.4575 126.123 33.4461 126.114 34.8524C126.123 36.2416 124.93 37.1961 123.242 37.1961C121.614 37.1961 120.396 36.3438 120.327 35.0654H116.611C116.671 38.1166 119.398 40.2387 123.234 40.2387Z" fill="#004F7F"/>
<path d="M139.054 40.2387C142.974 40.2387 145.778 38.0825 145.77 35.0995C145.778 32.9262 144.398 31.3751 141.832 31.0512V30.9149C143.784 30.5654 145.131 29.1847 145.122 27.2245C145.131 24.4717 142.719 22.3069 139.105 22.3069C135.526 22.3069 132.832 24.4035 132.781 27.4205H136.318C136.361 26.091 137.579 25.2302 139.088 25.2302C140.579 25.2302 141.577 26.1336 141.568 27.4461C141.577 28.8183 140.409 29.7472 138.73 29.7472H137.102V32.4575H138.73C140.707 32.4575 141.943 33.4461 141.935 34.8524C141.943 36.2416 140.75 37.1961 139.062 37.1961C137.435 37.1961 136.216 36.3438 136.148 35.0654H132.432C132.491 38.1166 135.219 40.2387 139.054 40.2387Z" fill="#004F7F"/>
<path d="M157.977 36.7274C157.985 38.824 159.323 40.6052 161.82 40.6052C164.292 40.6052 165.673 38.824 165.664 36.7274V35.8069C165.673 33.6933 164.326 31.9291 161.82 31.9291C159.357 31.9291 157.985 33.7103 157.977 35.8069V36.7274ZM149.019 26.7387C149.028 28.8353 150.366 30.5995 152.854 30.5995C155.334 30.5995 156.715 28.8524 156.707 26.7387V25.8183C156.715 23.7046 155.369 21.9404 152.854 21.9404C150.417 21.9404 149.028 23.7046 149.019 25.8183V26.7387ZM149.854 40.0001H152.079L164.079 22.5455H161.854L149.854 40.0001ZM160.457 35.8069C160.465 34.9717 160.798 34.1109 161.82 34.1109C162.894 34.1109 163.175 34.9717 163.167 35.8069V36.7274C163.175 37.5626 162.86 38.4063 161.82 38.4063C160.78 38.4063 160.465 37.537 160.457 36.7274V35.8069ZM151.516 25.8183C151.525 25.0086 151.84 24.1222 152.854 24.1222C153.928 24.1222 154.218 24.983 154.209 25.8183V26.7387C154.218 27.574 153.894 28.4177 152.854 28.4177C151.849 28.4177 151.525 27.574 151.516 26.7387V25.8183Z" fill="#004F7F"/>
<path d="M124.295 52.3632H122.886L119.977 54.295V55.7268L122.818 53.8405H122.886V63.9996H124.295V52.3632Z" fill="#004F7F"/>
<path d="M131.369 64.1586C133.693 64.1586 135.313 62.8007 135.324 60.9086C135.313 59.4371 134.33 58.1871 133.074 57.9541V57.8859C134.165 57.6018 134.881 56.5336 134.892 55.295C134.881 53.5223 133.392 52.2041 131.369 52.2041C129.324 52.2041 127.835 53.5223 127.847 55.295C127.835 56.5336 128.551 57.6018 129.665 57.8859V57.9541C128.386 58.1871 127.403 59.4371 127.415 60.9086C127.403 62.8007 129.023 64.1586 131.369 64.1586ZM131.369 62.9086C129.773 62.9086 128.79 62.0905 128.801 60.8405C128.79 59.528 129.875 58.5905 131.369 58.5905C132.841 58.5905 133.926 59.528 133.938 60.8405C133.926 62.0905 132.943 62.9086 131.369 62.9086ZM131.369 57.3859C130.097 57.3859 129.199 56.5905 129.21 55.3859C129.199 54.2041 130.063 53.4314 131.369 53.4314C132.653 53.4314 133.517 54.2041 133.528 55.3859C133.517 56.5905 132.619 57.3859 131.369 57.3859Z" fill="#004F7F"/>
<path d="M144.297 57.5564H136.297V58.8064H144.297V57.5564Z" fill="#004F7F"/>
<path d="M145.501 63.9996H152.842V62.7496H147.433V62.6586L150.047 59.8632C152.047 57.7211 152.638 56.7211 152.638 55.4314C152.638 53.6359 151.183 52.2041 149.138 52.2041C147.098 52.2041 145.547 53.5905 145.547 55.6359H146.888C146.888 54.3121 147.746 53.4314 149.092 53.4314C150.354 53.4314 151.32 54.2041 151.32 55.4314C151.32 56.5052 150.689 57.3007 149.342 58.7723L145.501 62.9768V63.9996Z" fill="#004F7F"/>
<path d="M154.666 61.6132H160.143V63.9996H161.484V61.6132H163.075V60.3632H161.484V52.3632H159.78L154.666 60.4541V61.6132ZM160.143 60.3632H156.189V60.2723L160.053 54.1586H160.143V60.3632Z" fill="#004F7F"/>
<path d="M180.173 98.0001H192.616V94.983H185.286V94.8637L187.835 92.3666C191.423 89.0938 192.386 87.4575 192.386 85.4717C192.386 82.4461 189.914 80.3069 186.173 80.3069C182.508 80.3069 179.994 82.4972 180.002 85.9234H183.505C183.497 84.2529 184.553 83.2302 186.147 83.2302C187.681 83.2302 188.823 84.1847 188.823 85.7188C188.823 87.108 187.971 88.0626 186.386 89.5882L180.173 95.341V98.0001Z" fill="#004F7F"/>
<path d="M202.884 80.5455H199.415L195.094 83.2813V86.5541L199.091 84.0484H199.193V98.0001H202.884V80.5455Z" fill="#004F7F"/>
<path d="M216.586 94.7274C216.595 96.824 217.933 98.6052 220.43 98.6052C222.901 98.6052 224.282 96.824 224.274 94.7274V93.8069C224.282 91.6933 222.935 89.9291 220.43 89.9291C217.967 89.9291 216.595 91.7103 216.586 93.8069V94.7274ZM207.629 84.7387C207.637 86.8353 208.975 88.5995 211.464 88.5995C213.944 88.5995 215.325 86.8524 215.316 84.7387V83.8183C215.325 81.7046 213.978 79.9404 211.464 79.9404C209.026 79.9404 207.637 81.7046 207.629 83.8183V84.7387ZM208.464 98.0001H210.688L222.688 80.5455H220.464L208.464 98.0001ZM219.066 93.8069C219.075 92.9717 219.407 92.1109 220.43 92.1109C221.504 92.1109 221.785 92.9717 221.776 93.8069V94.7274C221.785 95.5626 221.47 96.4063 220.43 96.4063C219.39 96.4063 219.075 95.537 219.066 94.7274V93.8069ZM210.126 83.8183C210.134 83.0086 210.45 82.1222 211.464 82.1222C212.538 82.1222 212.828 82.983 212.819 83.8183V84.7387C212.828 85.574 212.504 86.4177 211.464 86.4177C210.458 86.4177 210.134 85.574 210.126 84.7387V83.8183Z" fill="#004F7F"/>
<path d="M179.767 122H187.108V120.75H181.699V120.659L184.313 117.863C186.313 115.721 186.903 114.721 186.903 113.431C186.903 111.636 185.449 110.204 183.403 110.204C181.364 110.204 179.813 111.59 179.813 113.636H181.153C181.153 112.312 182.011 111.431 183.358 111.431C184.619 111.431 185.585 112.204 185.585 113.431C185.585 114.505 184.955 115.301 183.608 116.772L179.767 120.977V122Z" fill="#004F7F"/>
<path d="M193.091 122.159C195.307 122.159 196.932 120.522 196.932 118.295C196.932 116.039 195.364 114.386 193.227 114.386C192.443 114.386 191.682 114.664 191.205 115.045H191.136L191.545 111.613H196.409V110.363H190.364L189.659 116.09L190.977 116.25C191.46 115.903 192.284 115.653 193 115.659C194.483 115.67 195.568 116.795 195.568 118.318C195.568 119.812 194.523 120.909 193.091 120.909C191.898 120.909 190.949 120.142 190.841 119.09H189.477C189.563 120.863 191.091 122.159 193.091 122.159Z" fill="#004F7F"/>
<path d="M205.984 115.556H197.984V116.806H205.984V115.556Z" fill="#004F7F"/>
<path d="M211.121 122.159C213.376 122.159 215.053 120.744 215.053 118.84C215.053 117.363 214.178 116.289 212.712 116.045V115.954C213.888 115.596 214.621 114.63 214.621 113.318C214.621 111.67 213.32 110.204 211.166 110.204C209.155 110.204 207.484 111.443 207.416 113.272H208.78C208.831 112.113 209.933 111.431 211.144 111.431C212.428 111.431 213.257 112.21 213.257 113.386C213.257 114.613 212.297 115.409 210.916 115.409H209.984V116.659H210.916C212.683 116.659 213.666 117.556 213.666 118.84C213.666 120.073 212.592 120.909 211.098 120.909C209.751 120.909 208.683 120.215 208.598 119.09H207.166C207.251 120.92 208.865 122.159 211.121 122.159Z" fill="#004F7F"/>
<path d="M217.104 119.613H222.581V122H223.922V119.613H225.513V118.363H223.922V110.363H222.217L217.104 118.454V119.613ZM222.581 118.363H218.626V118.272L222.49 112.159H222.581V118.363Z" fill="#004F7F"/>
<path d="M253.415 116.546H249.946L245.625 119.281V122.554L249.622 120.048H249.724V134H253.415V116.546Z" fill="#004F7F"/>
<path d="M264.015 134.239C267.935 134.239 270.739 132.082 270.731 129.1C270.739 126.926 269.359 125.375 266.793 125.051V124.915C268.745 124.565 270.092 123.185 270.083 121.225C270.092 118.472 267.68 116.307 264.066 116.307C260.487 116.307 257.793 118.403 257.742 121.421H261.279C261.322 120.091 262.54 119.23 264.049 119.23C265.54 119.23 266.538 120.134 266.529 121.446C266.538 122.818 265.37 123.747 263.691 123.747H262.063V126.457H263.691C265.668 126.457 266.904 127.446 266.896 128.852C266.904 130.242 265.711 131.196 264.023 131.196C262.396 131.196 261.177 130.344 261.109 129.065H257.393C257.452 132.117 260.18 134.239 264.015 134.239Z" fill="#004F7F"/>
<path d="M282.938 130.727C282.946 132.824 284.284 134.605 286.781 134.605C289.253 134.605 290.634 132.824 290.625 130.727V129.807C290.634 127.693 289.287 125.929 286.781 125.929C284.318 125.929 282.946 127.71 282.938 129.807V130.727ZM273.98 120.739C273.989 122.835 275.327 124.6 277.815 124.6C280.295 124.6 281.676 122.852 281.668 120.739V119.818C281.676 117.705 280.33 115.94 277.815 115.94C275.378 115.94 273.989 117.705 273.98 119.818V120.739ZM274.815 134H277.04L289.04 116.546H286.815L274.815 134ZM285.418 129.807C285.426 128.972 285.759 128.111 286.781 128.111C287.855 128.111 288.136 128.972 288.128 129.807V130.727C288.136 131.563 287.821 132.406 286.781 132.406C285.741 132.406 285.426 131.537 285.418 130.727V129.807ZM276.477 119.818C276.486 119.009 276.801 118.122 277.815 118.122C278.889 118.122 279.179 118.983 279.17 119.818V120.739C279.179 121.574 278.855 122.418 277.815 122.418C276.81 122.418 276.486 121.574 276.477 120.739V119.818Z" fill="#004F7F"/>
<path d="M249.41 158.16C251.666 158.16 253.342 156.745 253.342 154.841C253.342 153.364 252.467 152.29 251.001 152.046V151.955C252.177 151.597 252.91 150.631 252.91 149.319C252.91 147.671 251.609 146.205 249.455 146.205C247.444 146.205 245.774 147.444 245.705 149.273H247.069C247.12 148.114 248.222 147.432 249.433 147.432C250.717 147.432 251.546 148.211 251.546 149.387C251.546 150.614 250.586 151.41 249.205 151.41H248.274V152.66H249.205C250.972 152.66 251.955 153.557 251.955 154.841C251.955 156.074 250.881 156.91 249.387 156.91C248.041 156.91 246.972 156.216 246.887 155.091H245.455C245.541 156.921 247.154 158.16 249.41 158.16Z" fill="#004F7F"/>
<path d="M259.302 158.16C261.518 158.16 263.143 156.523 263.143 154.296C263.143 152.04 261.575 150.387 259.438 150.387C258.654 150.387 257.893 150.665 257.416 151.046H257.347L257.756 147.614H262.62V146.364H256.575L255.87 152.091L257.188 152.251C257.671 151.904 258.495 151.654 259.211 151.66C260.694 151.671 261.779 152.796 261.779 154.319C261.779 155.813 260.734 156.91 259.302 156.91C258.109 156.91 257.16 156.143 257.052 155.091H255.688C255.774 156.864 257.302 158.16 259.302 158.16Z" fill="#004F7F"/>
<path d="M272.195 151.557H264.195V152.807H272.195V151.557Z" fill="#004F7F"/>
<path d="M273.127 155.614H278.604V158.001H279.945V155.614H281.536V154.364H279.945V146.364H278.241L273.127 154.455V155.614ZM278.604 154.364H274.65V154.273L278.514 148.16H278.604V154.364Z" fill="#004F7F"/>
<path d="M283.393 155.614H288.87V158.001H290.211V155.614H291.802V154.364H290.211V146.364H288.506L283.393 154.455V155.614ZM288.87 154.364H284.916V154.273L288.779 148.16H288.87V154.364Z" fill="#004F7F"/>
<path d="M318.766 116.546H315.298L310.977 119.281V122.554L314.974 120.048H315.076V134H318.766V116.546Z" fill="#004F7F"/>
<path d="M322.915 134H335.358V130.983H328.028V130.864L330.577 128.367C334.165 125.094 335.128 123.457 335.128 121.472C335.128 118.446 332.656 116.307 328.915 116.307C325.25 116.307 322.736 118.497 322.744 121.923H326.247C326.239 120.253 327.295 119.23 328.889 119.23C330.423 119.23 331.565 120.185 331.565 121.719C331.565 123.108 330.713 124.063 329.128 125.588L322.915 131.341V134Z" fill="#004F7F"/>
<path d="M347.586 130.727C347.594 132.824 348.933 134.605 351.43 134.605C353.901 134.605 355.282 132.824 355.273 130.727V129.807C355.282 127.693 353.935 125.929 351.43 125.929C348.967 125.929 347.594 127.71 347.586 129.807V130.727ZM338.629 120.739C338.637 122.835 339.975 124.6 342.464 124.6C344.944 124.6 346.325 122.852 346.316 120.739V119.818C346.325 117.705 344.978 115.94 342.464 115.94C340.026 115.94 338.637 117.705 338.629 119.818V120.739ZM339.464 134H341.688L353.688 116.546H351.464L339.464 134ZM350.066 129.807C350.075 128.972 350.407 128.111 351.43 128.111C352.504 128.111 352.785 128.972 352.776 129.807V130.727C352.785 131.563 352.469 132.406 351.43 132.406C350.39 132.406 350.075 131.537 350.066 130.727V129.807ZM341.126 119.818C341.134 119.009 341.45 118.122 342.464 118.122C343.538 118.122 343.827 118.983 343.819 119.818V120.739C343.827 121.574 343.504 122.418 342.464 122.418C341.458 122.418 341.134 121.574 341.126 120.739V119.818Z" fill="#004F7F"/>
<path d="M310.432 155.614H315.909V158.001H317.25V155.614H318.841V154.364H317.25V146.364H315.546L310.432 154.455V155.614ZM315.909 154.364H311.955V154.273L315.818 148.16H315.909V154.364Z" fill="#004F7F"/>
<path d="M324.607 158.16C326.823 158.16 328.448 156.523 328.448 154.296C328.448 152.04 326.879 150.387 324.743 150.387C323.959 150.387 323.198 150.665 322.72 151.046H322.652L323.061 147.614H327.925V146.364H321.879L321.175 152.092L322.493 152.251C322.976 151.904 323.8 151.654 324.516 151.66C325.999 151.671 327.084 152.796 327.084 154.319C327.084 155.813 326.038 156.91 324.607 156.91C323.413 156.91 322.465 156.143 322.357 155.092H320.993C321.078 156.864 322.607 158.16 324.607 158.16Z" fill="#004F7F"/>
<path d="M337.5 151.557H329.5V152.807H337.5V151.557Z" fill="#004F7F"/>
<path d="M342.341 158.16C344.557 158.16 346.182 156.523 346.182 154.296C346.182 152.04 344.614 150.387 342.477 150.387C341.693 150.387 340.932 150.665 340.455 151.046H340.386L340.796 147.614H345.659V146.364H339.614L338.909 152.092L340.227 152.251C340.71 151.904 341.534 151.654 342.25 151.66C343.733 151.671 344.818 152.796 344.818 154.319C344.818 155.813 343.773 156.91 342.341 156.91C341.148 156.91 340.199 156.143 340.091 155.092H338.727C338.813 156.864 340.341 158.16 342.341 158.16Z" fill="#004F7F"/>
<path d="M348.166 155.614H353.644V158.001H354.984V155.614H356.575V154.364H354.984V146.364H353.28L348.166 154.455V155.614ZM353.644 154.364H349.689V154.273L353.553 148.16H353.644V154.364Z" fill="#004F7F"/>
<path d="M377.173 79.0001H389.616V75.983H382.286V75.8637L384.835 73.3666C388.423 70.0938 389.386 68.4575 389.386 66.4717C389.386 63.4461 386.914 61.3069 383.173 61.3069C379.508 61.3069 376.994 63.4972 377.002 66.9234H380.505C380.497 65.2529 381.553 64.2302 383.147 64.2302C384.681 64.2302 385.823 65.1847 385.823 66.7188C385.823 68.108 384.971 69.0626 383.386 70.5882L377.173 76.341V79.0001Z" fill="#004F7F"/>
<path d="M399.884 61.5455H396.415L392.094 64.2813V67.5541L396.091 65.0484H396.193V79.0001H399.884V61.5455Z" fill="#004F7F"/>
<path d="M413.586 75.7274C413.595 77.824 414.933 79.6052 417.43 79.6052C419.901 79.6052 421.282 77.824 421.274 75.7274V74.8069C421.282 72.6933 419.935 70.9291 417.43 70.9291C414.967 70.9291 413.595 72.7103 413.586 74.8069V75.7274ZM404.629 65.7387C404.637 67.8353 405.975 69.5995 408.464 69.5995C410.944 69.5995 412.325 67.8524 412.316 65.7387V64.8183C412.325 62.7046 410.978 60.9404 408.464 60.9404C406.026 60.9404 404.637 62.7046 404.629 64.8183V65.7387ZM405.464 79.0001H407.688L419.688 61.5455H417.464L405.464 79.0001ZM416.066 74.8069C416.075 73.9717 416.407 73.1109 417.43 73.1109C418.504 73.1109 418.785 73.9717 418.776 74.8069V75.7274C418.785 76.5626 418.47 77.4063 417.43 77.4063C416.39 77.4063 416.075 76.537 416.066 75.7274V74.8069ZM407.126 64.8183C407.134 64.0086 407.45 63.1222 408.464 63.1222C409.538 63.1222 409.828 63.983 409.819 64.8183V65.7387C409.828 66.574 409.504 67.4177 408.464 67.4177C407.458 67.4177 407.134 66.574 407.126 65.7387V64.8183Z" fill="#004F7F"/>
<path d="M389.333 103.16C391.549 103.16 393.174 101.523 393.174 99.2961C393.174 97.0404 391.606 95.387 389.469 95.387C388.685 95.387 387.924 95.6654 387.447 96.0461H387.379L387.788 92.6143H392.651V91.3643H386.606L385.901 97.0915L387.219 97.2506C387.702 96.904 388.526 96.654 389.242 96.6597C390.725 96.6711 391.81 97.7961 391.81 99.3188C391.81 100.813 390.765 101.91 389.333 101.91C388.14 101.91 387.191 101.143 387.083 100.092H385.719C385.805 101.864 387.333 103.16 389.333 103.16Z" fill="#004F7F"/>
<path d="M399.067 103.16C401.283 103.16 402.908 101.523 402.908 99.2961C402.908 97.0404 401.34 95.387 399.204 95.387C398.42 95.387 397.658 95.6654 397.181 96.0461H397.113L397.522 92.6143H402.386V91.3643H396.34L395.636 97.0915L396.954 97.2506C397.437 96.904 398.261 96.654 398.977 96.6597C400.46 96.6711 401.545 97.7961 401.545 99.3188C401.545 100.813 400.499 101.91 399.067 101.91C397.874 101.91 396.925 101.143 396.817 100.092H395.454C395.539 101.864 397.067 103.16 399.067 103.16Z" fill="#004F7F"/>
<path d="M408.597 100.955H409.87V97.8415H412.984V96.5688H409.87V93.4552H408.597V96.5688H405.484V97.8415H408.597V100.955Z" fill="#004F7F"/>
<defs>
<linearGradient id="paint0_linear" x1="399.827" y1="115.461" x2="399.827" y2="284.999" gradientUnits="userSpaceOnUse">
<stop stop-color="#99D5FB"/>
<stop offset="1" stop-color="#AFDCF8"/>
</linearGradient>
<linearGradient id="paint1_linear" x1="334.269" y1="169.434" x2="334.269" y2="285" gradientUnits="userSpaceOnUse">
<stop stop-color="#99D5FB"/>
<stop offset="1" stop-color="#AFDCF8"/>
</linearGradient>
<linearGradient id="paint2_linear" x1="268.651" y1="169.434" x2="268.651" y2="285" gradientUnits="userSpaceOnUse">
<stop stop-color="#99D5FB"/>
<stop offset="1" stop-color="#AFDCF8"/>
</linearGradient>
<linearGradient id="paint3_linear" x1="203.093" y1="130.891" x2="203.093" y2="285" gradientUnits="userSpaceOnUse">
<stop stop-color="#99D5FB"/>
<stop offset="1" stop-color="#AFDCF8"/>
</linearGradient>
<linearGradient id="paint4_linear" x1="137.535" y1="69.2344" x2="137.535" y2="284.999" gradientUnits="userSpaceOnUse">
<stop stop-color="#99D5FB"/>
<stop offset="1" stop-color="#AFDCF8"/>
</linearGradient>
</defs>
</svg>
