<svg width="825" height="427" viewBox="0 0 825 427" fill="none" xmlns="http://www.w3.org/2000/svg">
<path opacity="0.3" d="M777.1 426.3H-7.5C-33.8 426.3 -55 405 -55 378.8C-55 352.5 -33.7 331.3 -7.5 331.3H777.1C803.4 331.3 824.6 352.6 824.6 378.8C824.6 405 803.4 426.3 777.1 426.3Z" fill="#7AC142"/>
<path d="M635.4 77.1001H703.8C709.3 77.1001 713.8 81.6001 713.8 87.1001V349.5C713.8 355 709.3 359.5 703.8 359.5H635.4C629.9 359.5 625.4 355 625.4 349.5V87.1001C625.4 81.6001 629.9 77.1001 635.4 77.1001Z" fill="url(#paint0_linear)"/>
<path d="M526.2 167H594.6C600.1 167 604.6 171.5 604.6 177V349.5C604.6 355 600.1 359.5 594.6 359.5H526.2C520.7 359.5 516.2 355 516.2 349.5V177C516.2 171.5 520.7 167 526.2 167Z" fill="url(#paint1_linear)"/>
<path d="M416.9 167H485.3C490.8 167 495.3 171.5 495.3 177V349.5C495.3 355 490.8 359.5 485.3 359.5H416.9C411.4 359.5 406.9 355 406.9 349.5V177C406.9 171.5 411.4 167 416.9 167Z" fill="url(#paint2_linear)"/>
<path d="M307.7 102.8H376.1C381.6 102.8 386.1 107.3 386.1 112.8V349.5C386.1 355 381.6 359.5 376.1 359.5H307.7C302.2 359.5 297.7 355 297.7 349.5V112.8C297.7 107.3 302.2 102.8 307.7 102.8Z" fill="url(#paint3_linear)"/>
<path d="M198.5 0.100098H266.9C272.4 0.100098 276.9 4.6001 276.9 10.1001V349.5C276.9 355 272.4 359.5 266.9 359.5H198.5C193 359.5 188.5 355 188.5 349.5V10.1001C188.5 4.6001 192.9 0.100098 198.5 0.100098Z" fill="url(#paint4_linear)"/>
<defs>
<linearGradient id="paint0_linear" x1="669.6" y1="77.1001" x2="669.6" y2="359.5" gradientUnits="userSpaceOnUse">
<stop stop-color="#99D5FB"/>
<stop offset="1" stop-color="#AFDCF8"/>
</linearGradient>
<linearGradient id="paint1_linear" x1="560.4" y1="167" x2="560.4" y2="359.5" gradientUnits="userSpaceOnUse">
<stop stop-color="#99D5FB"/>
<stop offset="1" stop-color="#AFDCF8"/>
</linearGradient>
<linearGradient id="paint2_linear" x1="451.1" y1="167" x2="451.1" y2="359.5" gradientUnits="userSpaceOnUse">
<stop stop-color="#99D5FB"/>
<stop offset="1" stop-color="#AFDCF8"/>
</linearGradient>
<linearGradient id="paint3_linear" x1="341.9" y1="102.8" x2="341.9" y2="359.5" gradientUnits="userSpaceOnUse">
<stop stop-color="#99D5FB"/>
<stop offset="1" stop-color="#AFDCF8"/>
</linearGradient>
<linearGradient id="paint4_linear" x1="232.7" y1="0.100098" x2="232.7" y2="359.5" gradientUnits="userSpaceOnUse">
<stop stop-color="#99D5FB"/>
<stop offset="1" stop-color="#AFDCF8"/>
</linearGradient>
</defs>
</svg>
