<svg width="373" height="303" viewBox="0 0 373 303" fill="none" xmlns="http://www.w3.org/2000/svg">
<path d="M133.873 17.9995L135.169 14.0194H141.467L142.762 17.9995H146.717L140.7 0.544922H135.944L129.919 17.9995H133.873ZM136.106 11.1387L138.254 4.53356H138.39L140.538 11.1387H136.106Z" fill="#002D44"/>
<path d="M152.964 18.2125C155.078 18.2125 156.177 16.9938 156.68 15.9029H156.833V17.9995H160.413V0.544922H156.791V7.10742H156.68C156.194 6.04208 155.146 4.7381 152.956 4.7381C150.083 4.7381 147.654 6.97106 147.654 11.4711C147.654 15.8517 149.981 18.2125 152.964 18.2125ZM154.115 15.3233C152.333 15.3233 151.362 13.7381 151.362 11.454C151.362 9.18697 152.316 7.62731 154.115 7.62731C155.879 7.62731 156.868 9.11879 156.868 11.454C156.868 13.7892 155.862 15.3233 154.115 15.3233Z" fill="#002D44"/>
<path d="M171.793 12.4256C171.802 14.1813 170.6 15.1017 169.296 15.1017C167.924 15.1017 167.037 14.1387 167.029 12.5961V4.90856H163.398V13.2438C163.407 16.3034 165.196 18.1699 167.83 18.1699C169.799 18.1699 171.213 17.1557 171.802 15.6216H171.938V17.9995H175.424V4.90856H171.793V12.4256Z" fill="#002D44"/>
<path d="M181.958 0.544922H178.328V17.9995H181.958V0.544922Z" fill="#002D44"/>
<path d="M191.83 4.90856H189.367V1.77219H185.736V4.90856H183.946V7.63583H185.736V14.454C185.719 17.0194 187.466 18.2892 190.1 18.1784C191.037 18.1444 191.702 17.9569 192.069 17.8375L191.498 15.1358C191.319 15.1699 190.935 15.2551 190.594 15.2551C189.87 15.2551 189.367 14.9824 189.367 13.9767V7.63583H191.83V4.90856Z" fill="#002D44"/>
<path d="M202.826 17.9995L204.122 14.0194H210.42L211.716 17.9995H215.67L209.653 0.544922H204.897L198.872 17.9995H202.826ZM205.059 11.1387L207.207 4.53356H207.343L209.491 11.1387H205.059Z" fill="#002D44"/>
<path d="M222.991 23.1813C226.733 23.1813 229.392 21.4767 229.392 18.1273V4.90856H225.787V7.10742H225.65C225.164 6.04208 224.099 4.7381 221.909 4.7381C219.037 4.7381 216.608 6.97106 216.608 11.4284C216.608 15.7836 218.968 17.812 221.917 17.812C224.005 17.812 225.173 16.7637 225.65 15.6813H225.804V18.0762C225.804 19.8745 224.653 20.5733 223.076 20.5733C221.474 20.5733 220.664 19.8745 220.366 19.0819L217.008 19.5336C217.443 21.5961 219.463 23.1813 222.991 23.1813ZM223.068 15.0847C221.287 15.0847 220.315 13.6699 220.315 11.4114C220.315 9.18697 221.27 7.62731 223.068 7.62731C224.832 7.62731 225.821 9.11879 225.821 11.4114C225.821 13.7211 224.815 15.0847 223.068 15.0847Z" fill="#002D44"/>
<path d="M238.247 18.2551C241.485 18.2551 243.667 16.6784 244.179 14.2495L240.821 14.0279C240.454 15.025 239.517 15.5449 238.306 15.5449C236.491 15.5449 235.341 14.3432 235.341 12.3915V12.383H244.255V11.3858C244.255 6.93697 241.562 4.7381 238.102 4.7381C234.25 4.7381 231.753 7.4739 231.753 11.5137C231.753 15.6642 234.216 18.2551 238.247 18.2551ZM235.341 10.133C235.417 8.64151 236.551 7.44833 238.162 7.44833C239.738 7.44833 240.829 8.57333 240.838 10.133H235.341Z" fill="#002D44"/>
<path d="M257.517 8.64151C257.193 6.22958 255.25 4.7381 251.943 4.7381C248.593 4.7381 246.386 6.28924 246.395 8.81197C246.386 10.7722 247.622 12.0421 250.179 12.5534L252.446 13.0051C253.588 13.2353 254.108 13.6529 254.125 14.3091C254.108 15.0847 253.264 15.6387 251.994 15.6387C250.699 15.6387 249.838 15.0847 249.616 14.0194L246.045 14.2069C246.386 16.7125 248.517 18.2551 251.985 18.2551C255.378 18.2551 257.806 16.525 257.815 13.9426C257.806 12.0506 256.571 10.9171 254.031 10.3972L251.662 9.91992C250.443 9.65572 249.991 9.2381 250 8.60742C249.991 7.82333 250.878 7.31197 252.003 7.31197C253.264 7.31197 254.014 8.00231 254.193 8.84606L257.517 8.64151Z" fill="#002D44"/>
<path opacity="0.3" d="M348.143 302.651H-53.6738C-67.1428 302.651 -78 291.743 -78 278.325C-78 264.856 -67.0916 253.999 -53.6738 253.999H348.143C361.612 253.999 372.47 264.907 372.47 278.325C372.47 291.743 361.612 302.651 348.143 302.651Z" fill="#7AC142"/>
<path d="M301.295 110.46H342.359C345.661 110.46 348.362 113.162 348.362 116.463V273.994C348.362 277.296 345.661 279.998 342.359 279.998H301.295C297.993 279.998 295.292 277.296 295.292 273.994V116.463C295.292 113.162 297.993 110.46 301.295 110.46Z" fill="url(#paint0_linear)"/>
<path d="M235.737 164.433H276.801C280.103 164.433 282.804 167.134 282.804 170.436V273.996C282.804 277.298 280.103 279.999 276.801 279.999H235.737C232.435 279.999 229.734 277.298 229.734 273.996V170.436C229.734 167.134 232.435 164.433 235.737 164.433Z" fill="url(#paint1_linear)"/>
<path d="M170.119 164.433H211.183C214.485 164.433 217.187 167.134 217.187 170.436V273.996C217.187 277.298 214.485 279.999 211.183 279.999H170.119C166.818 279.999 164.116 277.298 164.116 273.996V170.436C164.116 167.134 166.818 164.433 170.119 164.433Z" fill="url(#paint2_linear)"/>
<path d="M104.561 125.89H145.625C148.927 125.89 151.629 128.591 151.629 131.893V273.995C151.629 277.297 148.927 279.999 145.625 279.999H104.561C101.259 279.999 98.5579 277.297 98.5579 273.995V131.893C98.5579 128.591 101.259 125.89 104.561 125.89Z" fill="url(#paint3_linear)"/>
<path d="M39.0035 64.2334H80.0672C83.3691 64.2334 86.0706 66.935 86.0706 70.2369V273.995C86.0706 277.296 83.3691 279.998 80.0672 279.998H39.0035C35.7016 279.998 33 277.296 33 273.995V70.2369C33 66.935 35.6415 64.2334 39.0035 64.2334Z" fill="url(#paint4_linear)"/>
<path d="M39.1102 34.9991H51.5534V31.9821H44.2238V31.8627L46.7721 29.3656C50.3602 26.0929 51.3232 24.4565 51.3232 22.4707C51.3232 19.4451 48.8516 17.3059 45.1102 17.3059C41.4454 17.3059 38.9312 19.4963 38.9397 22.9224H42.4426C42.434 21.252 43.4909 20.2292 45.0846 20.2292C46.6187 20.2292 47.7607 21.1838 47.7607 22.7179C47.7607 24.1071 46.9085 25.0616 45.3232 26.5872L39.1102 32.34V34.9991Z" fill="#004F7F"/>
<path d="M60.7387 35.2377C64.6762 35.2377 67.5058 33.1326 67.5143 30.3031C67.5058 28.1213 65.8268 26.34 63.7302 25.9906V25.8713C65.5541 25.4963 66.858 23.9196 66.8666 22.002C66.858 19.3002 64.2671 17.3059 60.7387 17.3059C57.2018 17.3059 54.6109 19.3002 54.6194 22.002C54.6109 23.911 55.8978 25.4963 57.7558 25.8713V25.9906C55.6251 26.34 53.9632 28.1213 53.9717 30.3031C53.9632 33.1326 56.8012 35.2377 60.7387 35.2377ZM60.7387 32.5275C58.983 32.5275 57.8069 31.4877 57.8069 30.0133C57.8069 28.5048 59.0427 27.4139 60.7387 27.4139C62.4262 27.4139 63.6705 28.5048 63.6705 30.0133C63.6705 31.4963 62.4859 32.5275 60.7387 32.5275ZM60.7387 24.7292C59.2643 24.7292 58.216 23.7662 58.216 22.3855C58.216 21.0218 59.2472 20.0843 60.7387 20.0843C62.2217 20.0843 63.2615 21.0304 63.2615 22.3855C63.2615 23.7662 62.2046 24.7292 60.7387 24.7292Z" fill="#004F7F"/>
<path d="M79.6485 31.7264C79.657 33.823 80.9951 35.6042 83.4923 35.6042C85.9639 35.6042 87.3445 33.823 87.336 31.7264V30.8059C87.3445 28.6923 85.998 26.9281 83.4923 26.9281C81.0292 26.9281 79.657 28.7093 79.6485 30.8059V31.7264ZM70.6911 21.7377C70.6997 23.8343 72.0377 25.5985 74.5264 25.5985C77.0065 25.5985 78.3872 23.8514 78.3786 21.7377V20.8173C78.3872 18.7037 77.0406 16.9395 74.5264 16.9395C72.0889 16.9395 70.6997 18.7037 70.6911 20.8173V21.7377ZM71.5264 34.9991H73.7508L85.7508 17.5446H83.5264L71.5264 34.9991ZM82.1286 30.8059C82.1372 29.9707 82.4695 29.1099 83.4923 29.1099C84.5661 29.1099 84.8474 29.9707 84.8389 30.8059V31.7264C84.8474 32.5616 84.532 33.4054 83.4923 33.4054C82.4525 33.4054 82.1372 32.536 82.1286 31.7264V30.8059ZM73.1883 20.8173C73.1968 20.0076 73.5122 19.1213 74.5264 19.1213C75.6002 19.1213 75.89 19.9821 75.8815 20.8173V21.7377C75.89 22.573 75.5661 23.4167 74.5264 23.4167C73.5207 23.4167 73.1968 22.573 73.1883 21.7377V20.8173Z" fill="#004F7F"/>
<path d="M46.2955 47.3622H44.8864L41.9773 49.294V50.7259L44.8182 48.8395H44.8864V58.9986H46.2955V47.3622Z" fill="#004F7F"/>
<path d="M53.3693 59.1577C55.6932 59.1577 57.3125 57.7997 57.3239 55.9077C57.3125 54.4361 56.3296 53.1861 55.0739 52.9531V52.8849C56.1648 52.6009 56.8807 51.5327 56.8921 50.294C56.8807 48.5213 55.3921 47.2031 53.3693 47.2031C51.3239 47.2031 49.8353 48.5213 49.8466 50.294C49.8353 51.5327 50.5512 52.6009 51.6648 52.8849V52.9531C50.3864 53.1861 49.4034 54.4361 49.4148 55.9077C49.4034 57.7997 51.0227 59.1577 53.3693 59.1577ZM53.3693 57.9077C51.7727 57.9077 50.7898 57.0895 50.8012 55.8395C50.7898 54.527 51.875 53.5895 53.3693 53.5895C54.8409 53.5895 55.9262 54.527 55.9375 55.8395C55.9262 57.0895 54.9432 57.9077 53.3693 57.9077ZM53.3693 52.3849C52.0966 52.3849 51.1989 51.5895 51.2103 50.3849C51.1989 49.2031 52.0625 48.4304 53.3693 48.4304C54.6534 48.4304 55.5171 49.2031 55.5284 50.3849C55.5171 51.5895 54.6193 52.3849 53.3693 52.3849Z" fill="#004F7F"/>
<path d="M66.2969 52.5554H58.2969V53.8054H66.2969V52.5554Z" fill="#004F7F"/>
<path d="M67.5014 58.9986H74.8424V57.7486H69.4333V57.6577L72.0469 54.8622C74.0469 52.7202 74.6378 51.7202 74.6378 50.4304C74.6378 48.6349 73.1833 47.2031 71.1378 47.2031C69.098 47.2031 67.5469 48.5895 67.5469 50.6349H68.8878C68.8878 49.3111 69.7458 48.4304 71.0924 48.4304C72.3537 48.4304 73.3196 49.2031 73.3196 50.4304C73.3196 51.5043 72.6889 52.2997 71.3424 53.7713L67.5014 57.9759V58.9986Z" fill="#004F7F"/>
<path d="M76.6662 56.6122H82.1435V58.9986H83.4844V56.6122H85.0753V55.3622H83.4844V47.3622H81.7799L76.6662 55.4531V56.6122ZM82.1435 55.3622H78.1889V55.2713L82.0526 49.1577H82.1435V55.3622Z" fill="#004F7F"/>
<path d="M99.782 92.9991H112.225V89.9821H104.896V89.8627L107.444 87.3656C111.032 84.0929 111.995 82.4565 111.995 80.4707C111.995 77.4451 109.524 75.3059 105.782 75.3059C102.117 75.3059 99.6031 77.4963 99.6116 80.9224H103.114C103.106 79.252 104.163 78.2292 105.756 78.2292C107.291 78.2292 108.433 79.1838 108.433 80.7179C108.433 82.1071 107.58 83.0616 105.995 84.5872L99.782 90.34V92.9991Z" fill="#004F7F"/>
<path d="M121.743 93.3826C126.132 93.3826 128.783 90.0417 128.791 84.2889C128.8 78.5787 126.115 75.3059 121.743 75.3059C117.362 75.3059 114.703 78.5701 114.695 84.2889C114.678 90.0247 117.345 93.3741 121.743 93.3826ZM121.743 90.323C119.74 90.323 118.445 88.3116 118.453 84.2889C118.462 80.3258 119.749 78.3315 121.743 78.3315C123.729 78.3315 125.024 80.3258 125.024 84.2889C125.033 88.3116 123.737 90.323 121.743 90.323Z" fill="#004F7F"/>
<path d="M140.977 89.7264C140.985 91.823 142.323 93.6042 144.82 93.6042C147.292 93.6042 148.673 91.823 148.664 89.7264V88.8059C148.673 86.6923 147.326 84.9281 144.82 84.9281C142.357 84.9281 140.985 86.7093 140.977 88.8059V89.7264ZM132.019 79.7377C132.028 81.8343 133.366 83.5985 135.854 83.5985C138.335 83.5985 139.715 81.8514 139.707 79.7377V78.8173C139.715 76.7037 138.369 74.9395 135.854 74.9395C133.417 74.9395 132.028 76.7037 132.019 78.8173V79.7377ZM132.854 92.9991H135.079L147.079 75.5446H144.854L132.854 92.9991ZM143.457 88.8059C143.465 87.9707 143.798 87.1099 144.82 87.1099C145.894 87.1099 146.176 87.9707 146.167 88.8059V89.7264C146.176 90.5616 145.86 91.4054 144.82 91.4054C143.781 91.4054 143.465 90.536 143.457 89.7264V88.8059ZM134.516 78.8173C134.525 78.0076 134.84 77.1213 135.854 77.1213C136.928 77.1213 137.218 77.9821 137.21 78.8173V79.7377C137.218 80.573 136.894 81.4167 135.854 81.4167C134.849 81.4167 134.525 80.573 134.516 79.7377V78.8173Z" fill="#004F7F"/>
<path d="M101.767 116.999H109.108V115.749H103.699V115.658L106.313 112.862C108.313 110.72 108.903 109.72 108.903 108.43C108.903 106.635 107.449 105.203 105.403 105.203C103.364 105.203 101.813 106.589 101.813 108.635H103.153C103.153 107.311 104.011 106.43 105.358 106.43C106.619 106.43 107.585 107.203 107.585 108.43C107.585 109.504 106.955 110.3 105.608 111.771L101.767 115.976V116.999Z" fill="#004F7F"/>
<path d="M115.091 117.158C117.307 117.158 118.932 115.521 118.932 113.294C118.932 111.038 117.364 109.385 115.227 109.385C114.443 109.385 113.682 109.663 113.205 110.044H113.136L113.545 106.612H118.409V105.362H112.364L111.659 111.089L112.977 111.249C113.46 110.902 114.284 110.652 115 110.658C116.483 110.669 117.568 111.794 117.568 113.317C117.568 114.811 116.523 115.908 115.091 115.908C113.898 115.908 112.949 115.141 112.841 114.089H111.477C111.563 115.862 113.091 117.158 115.091 117.158Z" fill="#004F7F"/>
<path d="M127.984 110.555H119.984V111.805H127.984V110.555Z" fill="#004F7F"/>
<path d="M133.121 117.158C135.376 117.158 137.053 115.743 137.053 113.839C137.053 112.362 136.178 111.288 134.712 111.044V110.953C135.888 110.595 136.621 109.629 136.621 108.317C136.621 106.669 135.32 105.203 133.166 105.203C131.155 105.203 129.484 106.442 129.416 108.271H130.78C130.831 107.112 131.933 106.43 133.144 106.43C134.428 106.43 135.257 107.209 135.257 108.385C135.257 109.612 134.297 110.408 132.916 110.408H131.984V111.658H132.916C134.683 111.658 135.666 112.555 135.666 113.839C135.666 115.072 134.592 115.908 133.098 115.908C131.751 115.908 130.683 115.214 130.598 114.089H129.166C129.251 115.919 130.865 117.158 133.121 117.158Z" fill="#004F7F"/>
<path d="M139.104 114.612H144.581V116.999H145.922V114.612H147.513V113.362H145.922V105.362H144.217L139.104 113.453V114.612ZM144.581 113.362H140.626V113.271L144.49 107.158H144.581V113.362Z" fill="#004F7F"/>
<path d="M175.591 111.545H172.122L167.801 114.28V117.553L171.798 115.047H171.9V128.999H175.591V111.545Z" fill="#004F7F"/>
<path d="M186.114 129.238C190 129.238 192.642 126.707 192.634 123.178C192.642 119.837 190.307 117.434 187.162 117.434C185.628 117.434 184.307 118.073 183.694 118.934H183.591L184.043 114.562H191.671V111.545H181L180.174 120.749L183.455 121.337C183.992 120.613 185.032 120.161 186.063 120.161C187.819 120.17 189.08 121.439 189.08 123.272C189.08 125.087 187.844 126.34 186.114 126.34C184.648 126.34 183.463 125.42 183.378 124.064H179.799C179.867 127.081 182.5 129.238 186.114 129.238Z" fill="#004F7F"/>
<path d="M204.762 125.726C204.77 127.823 206.108 129.604 208.605 129.604C211.077 129.604 212.458 127.823 212.449 125.726V124.806C212.458 122.692 211.111 120.928 208.605 120.928C206.142 120.928 204.77 122.709 204.762 124.806V125.726ZM195.804 115.738C195.813 117.834 197.151 119.599 199.64 119.599C202.12 119.599 203.5 117.851 203.492 115.738V114.817C203.5 112.704 202.154 110.939 199.64 110.939C197.202 110.939 195.813 112.704 195.804 114.817V115.738ZM196.64 128.999H198.864L210.864 111.545H208.64L196.64 128.999ZM207.242 124.806C207.25 123.971 207.583 123.11 208.605 123.11C209.679 123.11 209.961 123.971 209.952 124.806V125.726C209.961 126.562 209.645 127.405 208.605 127.405C207.566 127.405 207.25 126.536 207.242 125.726V124.806ZM198.301 114.817C198.31 114.008 198.625 113.121 199.64 113.121C200.713 113.121 201.003 113.982 200.995 114.817V115.738C201.003 116.573 200.679 117.417 199.64 117.417C198.634 117.417 198.31 116.573 198.301 115.738V114.817Z" fill="#004F7F"/>
<path d="M171.41 153.159C173.666 153.159 175.342 151.744 175.342 149.84C175.342 148.363 174.467 147.289 173.001 147.045V146.954C174.177 146.596 174.91 145.63 174.91 144.318C174.91 142.67 173.609 141.204 171.455 141.204C169.444 141.204 167.774 142.443 167.705 144.272H169.069C169.12 143.113 170.222 142.431 171.433 142.431C172.717 142.431 173.546 143.21 173.546 144.386C173.546 145.613 172.586 146.409 171.205 146.409H170.274V147.659H171.205C172.972 147.659 173.955 148.556 173.955 149.84C173.955 151.073 172.881 151.909 171.387 151.909C170.041 151.909 168.972 151.215 168.887 150.09H167.455C167.541 151.92 169.154 153.159 171.41 153.159Z" fill="#004F7F"/>
<path d="M181.302 153.159C183.518 153.159 185.143 151.522 185.143 149.295C185.143 147.039 183.575 145.386 181.438 145.386C180.654 145.386 179.893 145.664 179.416 146.045H179.347L179.756 142.613H184.62V141.363H178.575L177.87 147.09L179.188 147.25C179.671 146.903 180.495 146.653 181.211 146.659C182.694 146.67 183.779 147.795 183.779 149.318C183.779 150.812 182.734 151.909 181.302 151.909C180.109 151.909 179.16 151.142 179.052 150.09H177.688C177.774 151.863 179.302 153.159 181.302 153.159Z" fill="#004F7F"/>
<path d="M194.195 146.556H186.195V147.806H194.195V146.556Z" fill="#004F7F"/>
<path d="M195.127 150.613H200.604V153H201.945V150.613H203.536V149.363H201.945V141.363H200.241L195.127 149.454V150.613ZM200.604 149.363H196.65V149.272L200.514 143.159H200.604V149.363Z" fill="#004F7F"/>
<path d="M205.393 150.613H210.87V153H212.211V150.613H213.802V149.363H212.211V141.363H210.506L205.393 149.454V150.613ZM210.87 149.363H206.916V149.272L210.779 143.159H210.87V149.363Z" fill="#004F7F"/>
<path d="M240.591 111.545H237.122L232.801 114.28V117.553L236.798 115.047H236.9V128.999H240.591V111.545Z" fill="#004F7F"/>
<path d="M251.114 129.238C255 129.238 257.642 126.707 257.634 123.178C257.642 119.837 255.307 117.434 252.162 117.434C250.628 117.434 249.307 118.073 248.694 118.934H248.591L249.043 114.562H256.671V111.545H246L245.174 120.749L248.455 121.337C248.992 120.613 250.032 120.161 251.063 120.161C252.819 120.17 254.08 121.439 254.08 123.272C254.08 125.087 252.844 126.34 251.114 126.34C249.648 126.34 248.463 125.42 248.378 124.064H244.799C244.867 127.081 247.5 129.238 251.114 129.238Z" fill="#004F7F"/>
<path d="M269.762 125.726C269.77 127.823 271.108 129.604 273.605 129.604C276.077 129.604 277.458 127.823 277.449 125.726V124.806C277.458 122.692 276.111 120.928 273.605 120.928C271.142 120.928 269.77 122.709 269.762 124.806V125.726ZM260.804 115.738C260.813 117.834 262.151 119.599 264.64 119.599C267.12 119.599 268.5 117.851 268.492 115.738V114.817C268.5 112.704 267.154 110.939 264.64 110.939C262.202 110.939 260.813 112.704 260.804 114.817V115.738ZM261.64 128.999H263.864L275.864 111.545H273.64L261.64 128.999ZM272.242 124.806C272.25 123.971 272.583 123.11 273.605 123.11C274.679 123.11 274.961 123.971 274.952 124.806V125.726C274.961 126.562 274.645 127.405 273.605 127.405C272.566 127.405 272.25 126.536 272.242 125.726V124.806ZM263.301 114.817C263.31 114.008 263.625 113.121 264.64 113.121C265.713 113.121 266.003 113.982 265.995 114.817V115.738C266.003 116.573 265.679 117.417 264.64 117.417C263.634 117.417 263.31 116.573 263.301 115.738V114.817Z" fill="#004F7F"/>
<path d="M232.432 150.613H237.909V153H239.25V150.613H240.841V149.363H239.25V141.363H237.546L232.432 149.454V150.613ZM237.909 149.363H233.955V149.272L237.818 143.159H237.909V149.363Z" fill="#004F7F"/>
<path d="M246.607 153.159C248.823 153.159 250.448 151.522 250.448 149.295C250.448 147.039 248.879 145.386 246.743 145.386C245.959 145.386 245.198 145.664 244.72 146.045H244.652L245.061 142.613H249.925V141.363H243.879L243.175 147.091L244.493 147.25C244.976 146.903 245.8 146.653 246.516 146.659C247.999 146.67 249.084 147.795 249.084 149.318C249.084 150.812 248.038 151.909 246.607 151.909C245.413 151.909 244.465 151.142 244.357 150.091H242.993C243.078 151.863 244.607 153.159 246.607 153.159Z" fill="#004F7F"/>
<path d="M259.5 146.556H251.5V147.806H259.5V146.556Z" fill="#004F7F"/>
<path d="M264.341 153.159C266.557 153.159 268.182 151.522 268.182 149.295C268.182 147.039 266.614 145.386 264.477 145.386C263.693 145.386 262.932 145.664 262.455 146.045H262.386L262.796 142.613H267.659V141.363H261.614L260.909 147.091L262.227 147.25C262.71 146.903 263.534 146.653 264.25 146.659C265.733 146.67 266.818 147.795 266.818 149.318C266.818 150.812 265.773 151.909 264.341 151.909C263.148 151.909 262.199 151.142 262.091 150.091H260.727C260.813 151.863 262.341 153.159 264.341 153.159Z" fill="#004F7F"/>
<path d="M270.166 150.613H275.644V153H276.984V150.613H278.575V149.363H276.984V141.363H275.28L270.166 149.454V150.613ZM275.644 149.363H271.689V149.272L275.553 143.159H275.644V149.363Z" fill="#004F7F"/>
<path d="M297.485 73.9991H309.928V70.9821H302.599V70.8627L305.147 68.3656C308.735 65.0929 309.698 63.4565 309.698 61.4707C309.698 58.4451 307.227 56.3059 303.485 56.3059C299.82 56.3059 297.306 58.4963 297.315 61.9224H300.818C300.809 60.252 301.866 59.2292 303.46 59.2292C304.994 59.2292 306.136 60.1838 306.136 61.7179C306.136 63.1071 305.283 64.0616 303.698 65.5872L297.485 71.34V73.9991Z" fill="#004F7F"/>
<path d="M312.602 73.9991H325.046V70.9821H317.716V70.8627L320.264 68.3656C323.852 65.0929 324.815 63.4565 324.815 61.4707C324.815 58.4451 322.344 56.3059 318.602 56.3059C314.938 56.3059 312.423 58.4963 312.432 61.9224H315.935C315.926 60.252 316.983 59.2292 318.577 59.2292C320.111 59.2292 321.253 60.1838 321.253 61.7179C321.253 63.1071 320.401 64.0616 318.815 65.5872L312.602 71.34V73.9991Z" fill="#004F7F"/>
<path d="M337.274 70.7264C337.282 72.823 338.62 74.6042 341.117 74.6042C343.589 74.6042 344.97 72.823 344.961 70.7264V69.8059C344.97 67.6923 343.623 65.9281 341.117 65.9281C338.654 65.9281 337.282 67.7093 337.274 69.8059V70.7264ZM328.316 60.7377C328.325 62.8343 329.663 64.5985 332.151 64.5985C334.631 64.5985 336.012 62.8514 336.004 60.7377V59.8173C336.012 57.7037 334.666 55.9395 332.151 55.9395C329.714 55.9395 328.325 57.7037 328.316 59.8173V60.7377ZM329.151 73.9991H331.376L343.376 56.5446H341.151L329.151 73.9991ZM339.754 69.8059C339.762 68.9707 340.095 68.1099 341.117 68.1099C342.191 68.1099 342.472 68.9707 342.464 69.8059V70.7264C342.472 71.5616 342.157 72.4054 341.117 72.4054C340.078 72.4054 339.762 71.536 339.754 70.7264V69.8059ZM330.813 59.8173C330.822 59.0076 331.137 58.1213 332.151 58.1213C333.225 58.1213 333.515 58.9821 333.506 59.8173V60.7377C333.515 61.573 333.191 62.4167 332.151 62.4167C331.146 62.4167 330.822 61.573 330.813 60.7377V59.8173Z" fill="#004F7F"/>
<path d="M311.333 98.1587C313.549 98.1587 315.174 96.5224 315.174 94.2951C315.174 92.0394 313.606 90.386 311.469 90.386C310.685 90.386 309.924 90.6644 309.447 91.0451H309.379L309.788 87.6133H314.651V86.3633H308.606L307.901 92.0906L309.219 92.2496C309.702 91.9031 310.526 91.6531 311.242 91.6587C312.725 91.6701 313.81 92.7951 313.81 94.3178C313.81 95.8121 312.765 96.9087 311.333 96.9087C310.14 96.9087 309.191 96.1417 309.083 95.0906H307.719C307.805 96.8633 309.333 98.1587 311.333 98.1587Z" fill="#004F7F"/>
<path d="M321.067 98.1587C323.283 98.1587 324.908 96.5224 324.908 94.2951C324.908 92.0394 323.34 90.386 321.204 90.386C320.42 90.386 319.658 90.6644 319.181 91.0451H319.113L319.522 87.6133H324.386V86.3633H318.34L317.636 92.0906L318.954 92.2496C319.437 91.9031 320.261 91.6531 320.977 91.6587C322.46 91.6701 323.545 92.7951 323.545 94.3178C323.545 95.8121 322.499 96.9087 321.067 96.9087C319.874 96.9087 318.925 96.1417 318.817 95.0906H317.454C317.539 96.8633 319.067 98.1587 321.067 98.1587Z" fill="#004F7F"/>
<path d="M330.597 95.9542H331.87V92.8406H334.984V91.5678H331.87V88.4542H330.597V91.5678H327.484V92.8406H330.597V95.9542Z" fill="#004F7F"/>
<defs>
<linearGradient id="paint0_linear" x1="321.827" y1="110.46" x2="321.827" y2="279.998" gradientUnits="userSpaceOnUse">
<stop stop-color="#99D5FB"/>
<stop offset="1" stop-color="#AFDCF8"/>
</linearGradient>
<linearGradient id="paint1_linear" x1="256.269" y1="164.433" x2="256.269" y2="279.999" gradientUnits="userSpaceOnUse">
<stop stop-color="#99D5FB"/>
<stop offset="1" stop-color="#AFDCF8"/>
</linearGradient>
<linearGradient id="paint2_linear" x1="190.651" y1="164.433" x2="190.651" y2="279.999" gradientUnits="userSpaceOnUse">
<stop stop-color="#99D5FB"/>
<stop offset="1" stop-color="#AFDCF8"/>
</linearGradient>
<linearGradient id="paint3_linear" x1="125.093" y1="125.89" x2="125.093" y2="279.999" gradientUnits="userSpaceOnUse">
<stop stop-color="#99D5FB"/>
<stop offset="1" stop-color="#AFDCF8"/>
</linearGradient>
<linearGradient id="paint4_linear" x1="59.5353" y1="64.2334" x2="59.5353" y2="279.998" gradientUnits="userSpaceOnUse">
<stop stop-color="#99D5FB"/>
<stop offset="1" stop-color="#AFDCF8"/>
</linearGradient>
</defs>
</svg>
