<svg width="383" height="161" viewBox="0 0 383 161" fill="none" xmlns="http://www.w3.org/2000/svg">
<rect x="22" width="194" height="41" rx="20.5" fill="#E2F7D1"/>
<rect x="146" y="120" width="194" height="41" rx="20.5" fill="#E2F7D1"/>
<rect x="146" y="49" width="237" height="41" rx="20.5" fill="#E5F0F7"/>
<rect y="86" width="264" height="41" rx="20.5" fill="#E5F0F7"/>
<g clip-path="url(#clip0)">
<path d="M130.129 81.5854L127.433 79.6705C126.45 78.9684 125.911 77.7875 126.037 76.5748C126.164 75.3939 126.228 74.2131 126.228 73.0322C126.228 71.8195 126.164 70.6386 126.037 69.4897C125.911 68.2769 126.45 67.0961 127.433 66.3939L130.129 64.479C132 63.1386 132.539 60.5854 131.397 58.5748L123.913 45.5216C122.771 43.511 120.297 42.7131 118.204 43.6705L115.191 45.0429C114.113 45.5535 112.812 45.4258 111.861 44.7237C109.958 43.3195 107.896 42.1386 105.708 41.1492C104.598 40.6386 103.869 39.5854 103.742 38.3727L103.425 35.0854C103.203 32.7875 101.3 31.0322 98.9846 31.0322H84.0151C81.7316 31.0322 79.797 32.7875 79.575 35.0854L79.2579 38.3727C79.131 39.5854 78.4016 40.6386 77.2915 41.1492C75.1032 42.1386 73.0735 43.3195 71.1388 44.7237C70.1557 45.4258 68.8871 45.5535 67.8088 45.0429L64.7959 43.6705C62.7027 42.7131 60.2289 43.511 59.0872 45.5216L51.6024 58.5429C50.4607 60.5535 50.9998 63.1067 52.871 64.4471L55.5668 66.362C56.55 67.0641 57.0891 68.245 56.9623 69.4578C56.8354 70.6386 56.772 71.8195 56.772 73.0003C56.772 74.2131 56.8354 75.3939 56.9623 76.5429C57.0891 77.7556 56.55 78.9365 55.5668 79.6386L52.871 81.5535C50.9998 82.8939 50.4607 85.4471 51.6024 87.4578L59.0872 100.511C60.2289 102.522 62.7027 103.319 64.7959 102.362L67.8088 100.99C68.8871 100.479 70.1874 100.607 71.1388 101.309C73.0417 102.713 75.1032 103.894 77.2915 104.883C78.4016 105.394 79.131 106.447 79.2579 107.66L79.575 110.947C79.797 113.245 81.6999 115 84.0151 115H98.9846C101.268 115 103.203 113.245 103.425 110.947L103.742 107.66C103.869 106.447 104.598 105.394 105.708 104.883C107.896 103.894 109.926 102.713 111.861 101.309C112.844 100.607 114.113 100.479 115.191 100.99L118.204 102.362C120.297 103.319 122.771 102.522 123.913 100.511L131.397 87.4578C132.539 85.479 132 82.9258 130.129 81.5854ZM91.4998 87.3939C83.6028 87.3939 77.1964 80.9471 77.1964 73.0003C77.1964 65.0535 83.6028 58.6067 91.4998 58.6067C99.3969 58.6067 105.803 65.0535 105.803 73.0003C105.803 80.9471 99.3969 87.3939 91.4998 87.3939Z" fill="#7AC142"/>
</g>
<path d="M228.875 100.209L225.813 98.0437C224.696 97.2497 224.084 95.9142 224.228 94.5426C224.372 93.2071 224.444 91.8716 224.444 90.5361C224.444 89.1645 224.372 87.8291 224.228 86.5297C224.084 85.1581 224.696 83.8226 225.813 83.0285L228.875 80.8629C231 79.3469 231.612 76.4594 230.316 74.1854L221.814 59.4229C220.518 57.149 217.708 56.2466 215.33 57.3294L211.908 58.8815C210.684 59.459 209.207 59.3146 208.126 58.5206C205.965 56.9324 203.623 55.5969 201.138 54.478C199.877 53.9005 199.048 52.7094 198.904 51.3378L198.544 47.6201C198.292 45.0213 196.131 43.0361 193.501 43.0361H176.499C173.905 43.0361 171.708 45.0213 171.456 47.6201L171.095 51.3378C170.951 52.7094 170.123 53.9005 168.862 54.478C166.377 55.5969 164.071 56.9324 161.874 58.5206C160.757 59.3146 159.316 59.459 158.092 58.8815L154.669 57.3294C152.292 56.2466 149.482 57.149 148.186 59.4229L139.684 74.1494C138.388 76.4233 139 79.3108 141.125 80.8268L144.187 82.9924C145.304 83.7865 145.916 85.122 145.772 86.4936C145.628 87.8291 145.556 89.1645 145.556 90.5C145.556 91.8716 145.628 93.2071 145.772 94.5065C145.916 95.8781 145.304 97.2136 144.187 98.0076L141.125 100.173C139 101.689 138.388 104.577 139.684 106.851L148.186 121.613C149.482 123.887 152.292 124.79 154.669 123.707L158.092 122.155C159.316 121.577 160.793 121.722 161.874 122.516C164.035 124.104 166.377 125.439 168.862 126.558C170.123 127.136 170.951 128.327 171.095 129.698L171.456 133.416C171.708 136.015 173.869 138 176.499 138H193.501C196.095 138 198.292 136.015 198.544 133.416L198.904 129.698C199.048 128.327 199.877 127.136 201.138 126.558C203.623 125.439 205.929 124.104 208.126 122.516C209.243 121.722 210.684 121.577 211.908 122.155L215.33 123.707C217.708 124.79 220.518 123.887 221.814 121.613L230.316 106.851C231.612 104.613 231 101.725 228.875 100.209ZM185 106.779C176.03 106.779 168.754 99.4875 168.754 90.5C168.754 81.5126 176.03 74.2215 185 74.2215C193.969 74.2215 201.246 81.5126 201.246 90.5C201.246 99.4875 193.969 106.779 185 106.779Z" fill="#007AB7"/>
<g clip-path="url(#clip1)">
<path d="M295.58 94.7218L295.028 91.4615C294.829 90.2699 295.283 89.0536 296.23 88.2858C297.155 87.5405 298.035 86.7504 298.87 85.9154C299.728 85.0578 300.518 84.178 301.24 83.2759C302.008 82.3286 303.224 81.8748 304.416 82.0736L307.676 82.6257C309.947 83.001 312.134 81.5769 312.748 79.3478L316.686 64.8253C317.3 62.5963 316.115 60.2829 313.958 59.4798L310.857 58.3197C309.734 57.9183 308.904 56.9086 308.728 55.7393C308.376 53.4008 307.753 51.1081 306.905 48.8612C306.481 47.7152 306.71 46.4547 307.478 45.5074L309.578 42.9587C311.046 41.1769 310.942 38.5902 309.305 36.9531L298.72 26.3681C297.105 24.7534 294.496 24.6266 292.714 26.0945L290.165 28.1947C289.218 28.9625 287.958 29.1914 286.812 28.7676C284.565 27.9198 282.294 27.3195 279.933 26.9445C278.742 26.7458 277.754 25.939 277.353 24.8155L276.193 21.7146C275.39 19.5575 273.076 18.3725 270.847 18.9869L256.347 22.9018C254.118 23.5162 252.694 25.7028 253.07 27.9738L253.622 31.234C253.82 32.4257 253.367 33.6419 252.419 34.4098C251.495 35.155 250.615 35.9452 249.78 36.7802C248.922 37.6377 248.132 38.5176 247.409 39.4197C246.642 40.3669 245.425 40.8207 244.234 40.622L240.974 40.0698C238.703 39.6945 236.516 41.1186 235.902 43.3477L231.964 57.8702C231.35 60.0993 232.535 62.4127 234.692 63.2158L237.793 64.3758C238.916 64.7772 239.745 65.787 239.922 66.9562C240.274 69.2947 240.897 71.5874 241.745 73.8344C242.169 74.9804 241.94 76.2409 241.172 77.1881L239.072 79.7368C237.604 81.5186 237.708 84.1054 239.345 85.7425L249.93 96.3275C251.545 97.9421 254.154 98.0689 255.936 96.6011L258.485 94.5009C259.432 93.733 260.692 93.5041 261.838 93.9279C264.085 94.7757 266.356 95.376 268.716 95.751C269.908 95.9497 270.895 96.7565 271.297 97.8801L272.457 100.981C273.26 103.138 275.573 104.323 277.802 103.709L292.325 99.7712C294.531 99.1793 295.956 96.9927 295.58 94.7218ZM264.158 71.5143C258.574 65.9303 258.603 56.8417 264.222 51.2224C269.841 45.6032 278.93 45.5746 284.514 51.1587C290.098 56.7427 290.07 65.8313 284.45 71.4505C278.831 77.0698 269.742 77.0983 264.158 71.5143Z" fill="#7AC142"/>
</g>
<defs>
<clipPath id="clip0">
<rect width="81" height="84" fill="white" transform="translate(51 31)"/>
</clipPath>
<clipPath id="clip1">
<rect width="81" height="84" fill="white" transform="translate(275.397 3) rotate(45)"/>
</clipPath>
</defs>
</svg>
