<svg width="1600" height="3353" viewBox="0 0 1600 3353" fill="none" xmlns="http://www.w3.org/2000/svg">
<rect y="177" width="1600" height="3176" fill="#F1F8FD"/>
<ellipse cx="515" cy="60.8228" rx="34" ry="36.9282" fill="#F1F8FD"/>
<ellipse cx="401" cy="60.823" rx="43" ry="46.7034" fill="#F1F8FD"/>
<path d="M1602 180.297L1086 180.297L1086 64.1199C1086 36.5057 1108.39 14.1198 1136 14.1198L1602 14.1199L1602 180.297Z" fill="#F1F8FD"/>
<path d="M1330 180.297L814 180.297L814 139.062C814 111.448 836.386 89.0624 864 89.0624L1330 89.0625L1330 180.297Z" fill="#F1F8FD"/>
<path d="M-55 57.0215C-55 25.5294 -29.4706 0 2.02151 0H285.978C317.471 0 343 25.5294 343 57.0215V57.0215C343 88.5136 317.471 114.043 285.978 114.043H2.02151C-29.4706 114.043 -55 88.5136 -55 57.0215V57.0215Z" fill="#F1F8FD"/>
</svg>
