<svg width="1600" height="814" viewBox="0 0 1600 814" fill="none" xmlns="http://www.w3.org/2000/svg">
<path opacity="0.2" d="M1367.1 636.7H659.7C659.7 586.8 619.3 546.4 569.4 546.4H-0.400024V813.5H446.9H549.5H1367.1H1599.6V636.7C1599.6 613.2 1580.6 594.2 1557.1 594.2H1409.7C1386.1 594.2 1367.1 613.2 1367.1 636.7Z" fill="#7AC142"/>
<path opacity="0.15" d="M1285.6 214.8V211.3C1285.6 193.1 1270.8 178.3 1252.6 178.3H1056.7C1038.5 178.3 1023.7 193.1 1023.7 211.3V214.8C1023.7 233 1038.5 247.8 1056.7 247.8H1138C1156.2 247.8 1171 262.6 1171 280.8V312.1C1171 330.3 1156.2 345.1 1138 345.1H840.6C822.4 345.1 807.6 359.9 807.6 378.1C807.6 396.3 822.4 411.1 840.6 411.1H1400.2C1418.4 411.1 1433.2 396.3 1433.2 378.1C1433.2 359.9 1448 345.1 1466.2 345.1H1529.7C1547.9 345.1 1562.7 330.3 1562.7 312.1V280.8C1562.7 262.6 1547.9 247.8 1529.7 247.8H1318.6C1300.4 247.8 1285.6 233 1285.6 214.8Z" fill="#007AB7"/>
<path opacity="0.15" d="M292.7 73.7V56.5C292.7 25.3 267.4 0 236.2 0H5.5C-25.7 0 -51 25.3 -51 56.5V73.7C-51 104.9 -25.7 130.2 5.5 130.2H16.8C48 130.2 73.3 155.5 73.3 186.7V203.9C73.3 235.1 98.6 260.4 129.8 260.4H360.5C391.7 260.4 417 235.1 417 203.9V186.7C417 155.5 391.7 130.2 360.5 130.2H349.2C318 130.2 292.7 104.9 292.7 73.7Z" fill="#007AB7"/>
<path d="M207.3 218.5V148.9C207.3 143.4 202.8 138.9 197.3 138.9H177.2V106.4C177.2 100.9 172.7 96.4004 167.2 96.4004H148.3C142.8 96.4004 138.3 100.9 138.3 106.4V138.9H118.2C112.7 138.9 108.2 143.4 108.2 148.9V218.5H87.5C82 218.5 77.5 223 77.5 228.5V659H238V228.5C238 223 233.5 218.5 228 218.5H207.3Z" fill="#079BD6"/>
<path d="M472.8 241.8H344.4H317.6C310.4 241.8 304.6 246 304.6 251.3V659H512.4V251.3C512.4 246.1 506.6 241.8 499.4 241.8H472.8Z" fill="#60C3EF"/>
<path d="M414.6 288.8H272.7C267.1 288.8 262.5 293.3 262.5 299V698.3C262.5 703.9 267 708.5 272.7 708.5H414.6C420.2 708.5 424.8 704 424.8 698.3V299C424.8 293.4 420.2 288.8 414.6 288.8Z" fill="#007AB7"/>
<path d="M313 353.4H299.4C293.4 353.4 288.5 348.5 288.5 342.5V328.9C288.5 322.9 293.4 318 299.4 318H313C319 318 323.9 322.9 323.9 328.9V342.5C323.8 348.6 319 353.4 313 353.4Z" fill="#7AC142"/>
<path d="M384.8 353.4H371.2C365.2 353.4 360.3 348.5 360.3 342.5V328.9C360.3 322.9 365.2 318 371.2 318H384.8C390.8 318 395.7 322.9 395.7 328.9V342.5C395.6 348.6 390.8 353.4 384.8 353.4Z" fill="#7AC142"/>
<path d="M313 419.1H299.4C293.4 419.1 288.5 414.2 288.5 408.2V394.6C288.5 388.6 293.4 383.7 299.4 383.7H313C319 383.7 323.9 388.6 323.9 394.6V408.2C323.8 414.3 319 419.1 313 419.1Z" fill="#7AC142"/>
<path d="M384.8 419.1H371.2C365.2 419.1 360.3 414.2 360.3 408.2V394.6C360.3 388.6 365.2 383.7 371.2 383.7H384.8C390.8 383.7 395.7 388.6 395.7 394.6V408.2C395.6 414.3 390.8 419.1 384.8 419.1Z" fill="#7AC142"/>
<path d="M313 484.9H299.4C293.4 484.9 288.5 480 288.5 474V460.4C288.5 454.4 293.4 449.5 299.4 449.5H313C319 449.5 323.9 454.4 323.9 460.4V474C323.8 480 319 484.9 313 484.9Z" fill="#7AC142"/>
<path d="M384.8 484.9H371.2C365.2 484.9 360.3 480 360.3 474V460.4C360.3 454.4 365.2 449.5 371.2 449.5H384.8C390.8 449.5 395.7 454.4 395.7 460.4V474C395.6 480 390.8 484.9 384.8 484.9Z" fill="#7AC142"/>
<path d="M313 550.6H299.4C293.4 550.6 288.5 545.7 288.5 539.7V526C288.5 520 293.4 515.1 299.4 515.1H313C319 515.1 323.9 520 323.9 526V539.6C323.8 545.7 319 550.6 313 550.6Z" fill="#7AC142"/>
<path d="M384.8 550.6H371.2C365.2 550.6 360.3 545.7 360.3 539.7V526C360.3 520 365.2 515.1 371.2 515.1H384.8C390.8 515.1 395.7 520 395.7 526V539.6C395.6 545.7 390.8 550.6 384.8 550.6Z" fill="#7AC142"/>
<path d="M313 616.3H299.4C293.4 616.3 288.5 611.4 288.5 605.4V591.8C288.5 585.8 293.4 580.9 299.4 580.9H313C319 580.9 323.9 585.8 323.9 591.8V605.4C323.8 611.4 319 616.3 313 616.3Z" fill="#7AC142"/>
<path d="M384.8 616.3H371.2C365.2 616.3 360.3 611.4 360.3 605.4V591.8C360.3 585.8 365.2 580.9 371.2 580.9H384.8C390.8 580.9 395.7 585.8 395.7 591.8V605.4C395.6 611.4 390.8 616.3 384.8 616.3Z" fill="#7AC142"/>
<path d="M-0.400024 372.2L96.8 436.4C103.8 441.1 108.1 448.9 108.1 457.4V698.4C108.1 703.9 103.6 708.4 98.1 708.4H-0.400024V372.2Z" fill="#007AB7"/>
<path d="M248.5 708.4H125.4C119.9 708.4 115.4 703.9 115.4 698.4V525.1C115.4 519.6 119.9 515.1 125.4 515.1H248.5C254 515.1 258.5 519.6 258.5 525.1V698.4C258.5 704 254 708.4 248.5 708.4Z" fill="#007AB7"/>
<path d="M866.489 678H757.511C753.905 678 751 675.839 751 673.157V609.981C751 607.522 752.703 605.287 755.608 604.095L808.594 581.671C810.698 580.776 813.302 580.776 815.406 581.671L868.392 604.095C871.197 605.287 873 607.522 873 609.981V673.157C873 675.839 870.095 678 866.489 678Z" fill="#60C3EF"/>
<path d="M1064.6 677.7H955.9C952.3 677.7 949.4 674.8 949.4 671.2V586.4C949.4 583.1 951.1 580.1 954 578.5L1006.9 548.4C1009 547.2 1011.6 547.2 1013.7 548.4L1066.6 578.5C1069.4 580.1 1071.2 583.1 1071.2 586.4V671.2C1071.2 674.8 1068.2 677.7 1064.6 677.7Z" fill="#60C3EF"/>
<path d="M1263.1 677.7H1154.4C1150.8 677.7 1147.9 674.8 1147.9 671.2V586.4C1147.9 583.1 1149.6 580.1 1152.5 578.5L1205.4 548.4C1207.5 547.2 1210.1 547.2 1212.2 548.4L1265.1 578.5C1267.9 580.1 1269.7 583.1 1269.7 586.4V671.2C1269.7 674.8 1266.7 677.7 1263.1 677.7Z" fill="#60C3EF"/>
<path d="M1529 606.1H1420.3C1416.7 606.1 1413.8 603.2 1413.8 599.6V515C1413.8 511.7 1415.5 508.7 1418.4 507.1L1443 487L1471.3 477C1473.4 475.8 1476 475.8 1478.1 477L1507.9 487.8L1531 507.1C1533.8 508.7 1535.6 511.7 1535.6 515V599.6C1535.5 603.1 1532.6 606.1 1529 606.1Z" fill="#FF6A52"/>
<path d="M1416.3 505.4L1441.9 484.5L1471.4 474.1C1473.6 472.9 1476.3 472.9 1478.4 474.1L1509.4 485.3L1533.5 505.4" stroke="#CC4640" stroke-width="8.3255" stroke-miterlimit="10" stroke-linecap="round"/>
<path d="M565.5 708.4H445.6C439.2 708.4 434 703.2 434 696.8V461C434 454.6 439.2 449.4 445.6 449.4L491.3 412.8C499.7 406.1 511.5 406.1 519.9 412.8L565.6 449.4C572 449.4 577.2 454.6 577.2 461V696.8C577.1 703.3 571.9 708.4 565.5 708.4Z" fill="#007AB7"/>
<path d="M71.4 478.1H22.6C18 478.1 14.3 474.4 14.3 469.8C14.3 465.2 18 461.5 22.6 461.5H71.5C76.1 461.5 79.8 465.2 79.8 469.8C79.7 474.4 76 478.1 71.4 478.1Z" fill="#B5EA86"/>
<path opacity="0.3" d="M487.6 489.1H454C450.1 489.1 446.9 485.9 446.9 482V479.6C446.9 475.7 450.1 472.5 454 472.5H487.6C491.5 472.5 494.7 475.7 494.7 479.6V482C494.6 485.9 491.5 489.1 487.6 489.1Z" fill="#B5EA86"/>
<path opacity="0.3" d="M554.5 489.1H520.9C517 489.1 513.8 485.9 513.8 482V479.6C513.8 475.7 517 472.5 520.9 472.5H554.5C558.4 472.5 561.6 475.7 561.6 479.6V482C561.6 485.9 558.4 489.1 554.5 489.1Z" fill="#B5EA86"/>
<path opacity="0.3" d="M487.6 526.3H454C450.1 526.3 446.9 523.1 446.9 519.2V516.8C446.9 512.9 450.1 509.7 454 509.7H487.6C491.5 509.7 494.7 512.9 494.7 516.8V519.2C494.6 523.1 491.5 526.3 487.6 526.3Z" fill="#B5EA86"/>
<path opacity="0.3" d="M554.5 526.3H520.9C517 526.3 513.8 523.1 513.8 519.2V516.8C513.8 512.9 517 509.7 520.9 509.7H554.5C558.4 509.7 561.6 512.9 561.6 516.8V519.2C561.6 523.1 558.4 526.3 554.5 526.3Z" fill="#B5EA86"/>
<path opacity="0.3" d="M487.6 563.4H454C450.1 563.4 446.9 560.2 446.9 556.3V553.9C446.9 550 450.1 546.8 454 546.8H487.6C491.5 546.8 494.7 550 494.7 553.9V556.3C494.6 560.2 491.5 563.4 487.6 563.4Z" fill="#B5EA86"/>
<path opacity="0.3" d="M554.5 563.4H520.9C517 563.4 513.8 560.2 513.8 556.3V553.9C513.8 550 517 546.8 520.9 546.8H554.5C558.4 546.8 561.6 550 561.6 553.9V556.3C561.6 560.2 558.4 563.4 554.5 563.4Z" fill="#B5EA86"/>
<path opacity="0.3" d="M487.6 600.5H454C450.1 600.5 446.9 597.3 446.9 593.4V591C446.9 587.1 450.1 583.9 454 583.9H487.6C491.5 583.9 494.7 587.1 494.7 591V593.4C494.6 597.4 491.5 600.5 487.6 600.5Z" fill="#B5EA86"/>
<path opacity="0.3" d="M554.5 600.5H520.9C517 600.5 513.8 597.3 513.8 593.4V591C513.8 587.1 517 583.9 520.9 583.9H554.5C558.4 583.9 561.6 587.1 561.6 591V593.4C561.6 597.4 558.4 600.5 554.5 600.5Z" fill="#B5EA86"/>
<path opacity="0.3" d="M487.6 637.7H454C450.1 637.7 446.9 634.5 446.9 630.6V628.2C446.9 624.3 450.1 621.1 454 621.1H487.6C491.5 621.1 494.7 624.3 494.7 628.2V630.6C494.6 634.5 491.5 637.7 487.6 637.7Z" fill="#B5EA86"/>
<path opacity="0.3" d="M554.5 637.7H520.9C517 637.7 513.8 634.5 513.8 630.6V628.2C513.8 624.3 517 621.1 520.9 621.1H554.5C558.4 621.1 561.6 624.3 561.6 628.2V630.6C561.6 634.5 558.4 637.7 554.5 637.7Z" fill="#B5EA86"/>
<path opacity="0.3" d="M487.6 674.8H454C450.1 674.8 446.9 671.6 446.9 667.7V665.3C446.9 661.4 450.1 658.2 454 658.2H487.6C491.5 658.2 494.7 661.4 494.7 665.3V667.7C494.6 671.6 491.5 674.8 487.6 674.8Z" fill="#B5EA86"/>
<path opacity="0.3" d="M554.5 674.8H520.9C517 674.8 513.8 671.6 513.8 667.7V665.3C513.8 661.4 517 658.2 520.9 658.2H554.5C558.4 658.2 561.6 661.4 561.6 665.3V667.7C561.6 671.6 558.4 674.8 554.5 674.8Z" fill="#B5EA86"/>
<path d="M71.4 515.3H22.6C18 515.3 14.3 511.6 14.3 507C14.3 502.4 18 498.7 22.6 498.7H71.5C76.1 498.7 79.8 502.4 79.8 507C79.7 511.5 76 515.3 71.4 515.3Z" fill="#B5EA86"/>
<path d="M71.4 552.4H22.6C18 552.4 14.3 548.7 14.3 544.1C14.3 539.5 18 535.8 22.6 535.8H71.5C76.1 535.8 79.8 539.5 79.8 544.1C79.7 548.7 76 552.4 71.4 552.4Z" fill="#B5EA86"/>
<path d="M71.4 589.5H22.6C18 589.5 14.3 585.8 14.3 581.2C14.3 576.6 18 572.9 22.6 572.9H71.5C76.1 572.9 79.8 576.6 79.8 581.2C79.7 585.8 76 589.5 71.4 589.5Z" fill="#B5EA86"/>
<path d="M71.4 626.7H22.6C18 626.7 14.3 623 14.3 618.4C14.3 613.8 18 610.1 22.6 610.1H71.5C76.1 610.1 79.8 613.8 79.8 618.4C79.7 623 76 626.7 71.4 626.7Z" fill="#B5EA86"/>
<path d="M71.4 663.8H22.6C18 663.8 14.3 660.1 14.3 655.5C14.3 650.9 18 647.2 22.6 647.2H71.5C76.1 647.2 79.8 650.9 79.8 655.5C79.7 660.1 76 663.8 71.4 663.8Z" fill="#B5EA86"/>
<path d="M1563.7 452.6C1552.5 452.6 1543.5 461.6 1543.5 472.8V603H1583.9V472.8C1583.9 461.7 1574.9 452.6 1563.7 452.6Z" fill="#FF6A52"/>
<path opacity="0.3" d="M846.9 677.7V642.35C846.9 635.198 841.102 629.4 833.95 629.4C826.798 629.4 821 635.198 821 642.35V677.7H846.9Z" fill="#004F7F"/>
<path opacity="0.3" d="M792 629H776C773.239 629 771 631.239 771 634V647C771 649.761 773.239 652 776 652H792C794.761 652 797 649.761 797 647V634C797 631.239 794.761 629 792 629Z" fill="#004F7F"/>
<path opacity="0.3" d="M1023.2 677.7V642.35C1023.2 635.198 1017.4 629.4 1010.25 629.4C1003.1 629.4 997.3 635.198 997.3 642.35V677.7H1023.2Z" fill="#0069AA"/>
<path opacity="0.3" d="M1197.9 677.7V642.35C1197.9 635.198 1192.1 629.4 1184.95 629.4C1177.8 629.4 1172 635.198 1172 642.35V677.7H1197.9Z" fill="#004F7F"/>
<path opacity="0.3" d="M1239 630H1223C1220.24 630 1218 632.239 1218 635V648C1218 650.761 1220.24 653 1223 653H1239C1241.76 653 1244 650.761 1244 648V635C1244 632.239 1241.76 630 1239 630Z" fill="#004F7F"/>
<path opacity="0.3" d="M1193 596H1177C1174.24 596 1172 598.239 1172 601V611C1172 613.761 1174.24 616 1177 616H1193C1195.76 616 1198 613.761 1198 611V601C1198 598.239 1195.76 596 1193 596Z" fill="#004F7F"/>
<path opacity="0.3" d="M1239 596H1223C1220.24 596 1218 598.239 1218 601V611C1218 613.761 1220.24 616 1223 616H1239C1241.76 616 1244 613.761 1244 611V601C1244 598.239 1241.76 596 1239 596Z" fill="#004F7F"/>
<path d="M1054.4 547.5H1046.2C1044.7 547.5 1043.4 548.7 1043.4 550.3V576.2H1057.1V550.3C1057.1 548.7 1055.9 547.5 1054.4 547.5Z" fill="#60C3EF"/>
<path opacity="0.3" d="M1730.3 699.6H1599.6C1599.6 673.3 1578.3 652.1 1552.1 652.1H1461.3C1435 652.1 1413.8 673.4 1413.8 699.6H945.8C919.5 699.6 898.3 720.9 898.3 747.1C898.3 773.4 919.6 794.6 945.8 794.6H1730.4C1756.7 794.6 1777.9 773.3 1777.9 747.1C1777.8 720.9 1756.6 699.6 1730.3 699.6Z" fill="#7AC142"/>
<path opacity="0.5" d="M1506.7 546.4H1444V606H1506.7V546.4Z" fill="#F7B9B2"/>
<path opacity="0.5" d="M1554.8 483.6C1553.1 483.6 1551.7 485 1551.7 486.7V600C1551.7 601.7 1553.1 603.1 1554.8 603.1C1556.5 603.1 1557.9 601.7 1557.9 600V486.7C1557.8 485 1556.4 483.6 1554.8 483.6Z" fill="#F7B9B2"/>
<path opacity="0.5" d="M1475.4 508.5C1480.87 508.5 1485.3 504.068 1485.3 498.6C1485.3 493.133 1480.87 488.7 1475.4 488.7C1469.93 488.7 1465.5 493.133 1465.5 498.6C1465.5 504.068 1469.93 508.5 1475.4 508.5Z" fill="#F7B9B2"/>
<path d="M691.8 660.6C685.7 660.6 680.8 655.7 680.8 649.6V487.4C680.8 481.3 685.7 476.4 691.8 476.4C697.9 476.4 702.8 481.3 702.8 487.4V649.6C702.8 655.6 697.9 660.6 691.8 660.6Z" fill="#A35B2B"/>
<path d="M703.3 524.2H691.8C689.9 524.2 688.3 522.6 688.3 520.7C688.3 518.8 689.9 517.2 691.8 517.2H703.3C718.6 517.2 731.1 504.7 731.1 489.4V485.5C731.1 483.6 732.7 482 734.6 482C736.5 482 738.1 483.6 738.1 485.5V489.4C738.1 508.6 722.5 524.2 703.3 524.2Z" fill="#A35B2B"/>
<path d="M691.8 559.399H691.5C672.3 559.399 656.7 543.799 656.7 524.599V489.399C656.7 487.499 658.3 485.899 660.2 485.899C662.1 485.899 663.7 487.499 663.7 489.399V524.599C663.7 539.899 676.2 552.399 691.5 552.399H691.8C693.7 552.399 695.3 553.999 695.3 555.899C695.3 557.799 693.8 559.399 691.8 559.399Z" fill="#A35B2B"/>
<path d="M773.5 393.8H762V375.4C762 355.9 746.2 340 726.6 340H668.4C648.9 340 633 355.8 633 375.4H619.3C599.9 375.4 584.1 391.2 584.1 410.6V417.2C584.1 436.6 599.9 452.4 619.3 452.4C619.3 472.7 635.7 489.1 656 489.1H683.8H712.8H743.7C753.5 489.1 761.4 481.2 761.4 471.4H773.5C793 471.4 808.9 455.6 808.9 436V429.1C808.9 409.6 793.1 393.8 773.5 393.8Z" fill="#7AC142"/>
<path d="M1309.1 657.7C1315.2 657.7 1320.1 652.8 1320.1 646.7V506.6C1320.1 500.5 1315.2 495.6 1309.1 495.6C1303 495.6 1298.1 500.5 1298.1 506.6V646.7C1298.1 652.7 1303 657.7 1309.1 657.7Z" fill="#A35B2B"/>
<path d="M1297.6 563.6H1309.1C1311 563.6 1312.6 562 1312.6 560.1C1312.6 558.2 1311 556.6 1309.1 556.6H1297.6C1282.3 556.6 1269.8 544.1 1269.8 528.8V524.9C1269.8 523 1268.2 521.4 1266.3 521.4C1264.4 521.4 1262.8 523 1262.8 524.9V528.8C1262.8 548 1278.4 563.6 1297.6 563.6Z" fill="#A35B2B"/>
<path d="M1227.4 442.7H1238.9V424.3C1238.9 404.8 1254.7 388.9 1274.3 388.9H1332.5C1352 388.9 1367.9 404.7 1367.9 424.3H1381.6C1401 424.3 1416.8 440.1 1416.8 459.5V466.1C1416.8 485.5 1401 501.3 1381.6 501.3C1381.6 521.6 1365.2 538 1344.9 538H1317.1H1288.1H1257.2C1247.4 538 1239.5 530.1 1239.5 520.3H1227.4C1207.9 520.3 1192 504.5 1192 484.9V478C1192 458.5 1207.9 442.7 1227.4 442.7Z" fill="#7AC142"/>
<circle cx="1009" cy="578" r="11" fill="#00559B" fill-opacity="0.6"/>
</svg>
