<svg width="311" height="190" viewBox="0 0 311 190" fill="none" xmlns="http://www.w3.org/2000/svg">
<path d="M47.6782 156.537H64.566C63.5667 154.435 63.067 152.134 63.067 149.633C63.067 140.628 70.4617 133.224 79.4552 133.224H265.221C274.214 133.224 281.609 140.628 281.609 149.633C281.609 158.638 274.214 166.041 265.221 166.041H248.333C249.332 168.143 249.832 170.444 249.832 172.945C249.832 181.95 242.437 189.354 233.444 189.354H47.6782C38.6847 189.254 31.29 181.95 31.29 172.945C31.29 163.84 38.6847 156.537 47.6782 156.537Z" fill="#E2F7D1"/>
<rect x="48" width="154" height="41" rx="20.5" fill="#E5F0F7"/>
<rect x="219" y="21" width="92" height="40" rx="20" fill="#E5F0F7"/>
<ellipse cx="202.5" cy="38.5" rx="7.5" ry="6.5" fill="#E5F0F7"/>
<ellipse cx="174" cy="52.5" rx="7" ry="6.5" fill="#E5F0F7"/>
<rect y="59.6121" width="148.167" height="29.4449" rx="14.7224" fill="#E5F0F7"/>
<g clip-path="url(#clip0)">
<path d="M57.1205 66.3483C62.9626 66.3483 67.6986 61.6347 67.6986 55.8203C67.6986 50.0058 62.9626 45.2922 57.1205 45.2922C51.2784 45.2922 46.5425 50.0058 46.5425 55.8203C46.5425 61.6347 51.2784 66.3483 57.1205 66.3483Z" fill="#0069AA"/>
<path d="M64.6152 70.1575H50.1301C46.7547 70.1575 43.6451 71.9562 41.9707 74.8395L27.1668 101.794C26.2365 103.487 26.7149 105.604 28.283 106.768C30.0903 108.09 32.6418 107.614 33.8378 105.736L45.0272 87.1663L45.5056 116.079L45.984 163.905C46.0106 166.55 48.1634 168.666 50.8212 168.666C53.4524 168.666 55.5786 166.576 55.6584 163.984L56.8544 116.608C56.8544 116.317 57.0936 116.105 57.3859 116.105C57.6783 116.105 57.9175 116.343 57.9175 116.608L59.1135 163.984C59.1667 166.603 61.3195 168.666 63.9507 168.666C66.6085 168.666 68.7613 166.55 68.7879 163.905L69.2663 116.079L69.7447 87.1663L80.9341 105.736C82.1567 107.614 84.6816 108.09 86.4889 106.768C88.057 105.63 88.5354 103.514 87.6051 101.794L72.8012 74.8395C71.1002 71.9298 67.9906 70.1575 64.6152 70.1575Z" fill="#0069AA"/>
<path d="M112.004 53.2809C117.846 53.2809 122.582 48.5674 122.582 42.7529C122.582 36.9384 117.846 32.2249 112.004 32.2249C106.162 32.2249 101.426 36.9384 101.426 42.7529C101.426 48.5674 106.162 53.2809 112.004 53.2809Z" fill="#A3E56A"/>
<path d="M119.499 57.0901H105.014C101.638 57.0901 98.5288 58.8888 96.8544 61.7722L83.1135 88.7271C82.1833 90.42 82.6617 92.5362 84.2298 93.7001C86.0371 95.0227 88.5886 94.5466 89.7846 92.6685L101.506 71.9828L99.8577 103.011L100.868 149.25C100.894 151.895 103.047 154.011 105.705 154.011C108.336 154.011 110.462 151.922 110.542 149.329L111.738 103.54C111.738 103.249 111.977 103.038 112.27 103.038C112.562 103.038 112.801 103.276 112.801 103.54L113.997 149.329C114.05 151.948 116.203 154.011 118.834 154.011C121.492 154.011 123.645 151.895 123.672 149.25L124.682 103.011L122.768 71.9828L134.755 92.6685C135.977 94.5466 138.502 95.0227 140.309 93.7001C141.878 92.5627 142.356 90.4465 141.426 88.7271L127.658 61.7722C125.984 58.8624 122.874 57.0901 119.499 57.0901Z" fill="#A3E56A"/>
<path d="M98.13 81.4852C103.444 81.4852 107.751 77.198 107.751 71.9095C107.751 66.6209 103.444 62.3337 98.13 62.3337C92.8164 62.3337 88.5088 66.6209 88.5088 71.9095C88.5088 77.198 92.8164 81.4852 98.13 81.4852Z" fill="#7AC142"/>
<path d="M104.562 84.6064H92.2031C88.8277 84.6064 85.7181 86.4052 84.0437 89.2885L70.5686 112.038C69.6384 113.73 70.1168 115.847 71.6849 117.011C73.4922 118.333 76.0437 117.857 77.2397 115.979L87.3659 100.557L86.4888 127.089L86.9672 167.319C86.9938 169.964 89.1466 172.08 91.8044 172.08C94.4357 172.08 96.5619 169.991 96.6416 167.398L97.8377 127.592C97.8377 127.301 98.0769 127.089 98.3692 127.089C98.6616 127.089 98.9008 127.327 98.9008 127.592L100.097 167.398C100.15 170.017 102.303 172.08 104.934 172.08C107.592 172.08 109.745 169.964 109.771 167.319L110.25 127.089L109.399 100.584L119.525 116.005C120.748 117.884 123.273 118.36 125.08 117.037C126.648 115.9 127.127 113.783 126.196 112.064L112.721 89.315C111.02 86.4052 107.911 84.6064 104.562 84.6064Z" fill="#7AC142"/>
<path d="M91.5385 63.1008C94.5152 60.8788 98.4753 61.4872 101.691 59.6091C101.505 59.9795 101.346 60.3498 101.16 60.7201C102.303 60.7995 103.472 60.6143 104.535 60.1646C103.578 60.8524 103.605 62.3337 104.136 63.3654C104.668 64.397 105.625 65.1641 106.369 66.0635C107.113 66.9629 107.724 68.1532 107.406 69.2642C107.459 69.0526 100.362 68.5236 99.7245 68.5236C97.5185 68.55 95.2594 68.841 93.1066 69.2113C92.3358 69.3436 88.5883 69.9255 88.5352 70.8778C88.6946 68.1532 89.173 64.8731 91.5385 63.1008Z" fill="#7AC142"/>
<path d="M46.6219 57.6719C47.4458 55.1854 45.293 52.6459 45.3993 50.0536C45.4791 48.2019 46.7548 46.5883 48.2166 45.4773C52.2565 42.4353 57.9442 42.4882 62.7814 43.9696C64.4292 44.4722 66.1036 45.1864 67.1136 46.5883C68.7083 48.8103 68.1501 52.355 67.087 54.6828C66.3694 54.5505 65.7315 54.1008 65.0139 53.9421C64.1103 53.7305 63.1269 53.9686 62.1966 53.9686C59.9375 54.0215 57.705 53.7834 55.4458 53.8363C52.2033 53.9156 48.6418 54.7886 46.7548 57.4338" fill="#0069AA"/>
<path d="M198.702 60.132C204.544 60.132 209.28 55.4184 209.28 49.604C209.28 43.7895 204.544 39.0759 198.702 39.0759C192.859 39.0759 188.124 43.7895 188.124 49.604C188.124 55.4184 192.859 60.132 198.702 60.132Z" fill="#7AC142"/>
<path d="M206.196 63.9412H191.711C188.336 63.9412 185.226 65.7399 183.552 68.6232L168.748 95.5782C167.818 97.2711 168.296 99.3873 169.864 100.551C171.671 101.874 174.223 101.398 175.419 99.5196L186.608 80.95L187.087 109.862L187.565 157.688C187.592 160.334 189.744 162.45 192.402 162.45C195.033 162.45 197.16 160.36 197.239 157.768L198.435 110.391C198.435 110.101 198.675 109.889 198.967 109.889C199.259 109.889 199.499 110.127 199.499 110.391L200.695 157.768C200.748 160.386 202.901 162.45 205.532 162.45C208.19 162.45 210.342 160.334 210.369 157.688L210.847 109.862L211.326 80.95L222.515 99.5196C223.738 101.398 226.263 101.874 228.07 100.551C229.638 99.4138 230.116 97.2976 229.186 95.5782L214.382 68.6232C212.681 65.7399 209.572 63.9412 206.196 63.9412Z" fill="#7AC142"/>
<path d="M103.313 33.8384C97.4656 39.4992 101.718 47.5407 98.0503 54.048C105.997 48.202 117.426 47.4614 126.037 52.2757C123.698 50.9795 123.858 44.4987 123.804 42.3825C123.725 38.9437 122.715 35.6372 120.057 33.23C117.532 30.9287 114.954 30.9022 111.818 31.299C108.575 31.6693 105.891 31.3519 103.313 33.8384Z" fill="#A3E56A"/>
<path d="M153.838 70.3427C159.68 70.3427 164.416 65.6291 164.416 59.8147C164.416 54.0002 159.68 49.2866 153.838 49.2866C147.996 49.2866 143.26 54.0002 143.26 59.8147C143.26 65.6291 147.996 70.3427 153.838 70.3427Z" fill="#0882BF"/>
<path d="M161.333 74.1519H146.848C143.472 74.1519 140.363 75.9506 138.688 78.8339L124.948 105.789C124.017 107.482 124.496 109.598 126.064 110.762C127.871 112.085 130.423 111.608 131.619 109.73L143.339 89.0445L141.692 120.073L142.702 166.312C142.728 168.957 144.881 171.073 147.539 171.073C150.17 171.073 152.296 168.984 152.376 166.391L153.572 120.602C153.572 120.311 153.811 120.1 154.104 120.1C154.396 120.1 154.635 120.338 154.635 120.602L155.831 166.391C155.884 169.01 158.037 171.073 160.668 171.073C163.326 171.073 165.479 168.957 165.506 166.312L166.516 120.073L164.602 89.0445L176.589 109.73C177.811 111.608 180.336 112.085 182.143 110.762C183.711 109.624 184.19 107.508 183.26 105.789L169.519 78.8339C167.791 75.9506 164.682 74.1519 161.333 74.1519Z" fill="#0882BF"/>
<path d="M155.167 48.599C153.466 47.488 151.286 47.1441 149.346 47.6996C146.848 48.3874 144.961 50.3448 143.207 52.223C141.426 54.1275 139.486 56.4818 140.071 59.0212C140.443 60.6348 141.772 61.9574 141.958 63.6239C142.117 65.2111 141.16 66.6659 140.549 68.1473C139.938 69.6286 139.831 71.639 141.16 72.5119C142.144 73.1468 143.499 72.8558 144.456 72.1945C145.413 71.5332 146.13 70.5809 146.954 69.7344C150.33 66.3485 156.017 65.5549 160.217 67.8298C161.811 68.7028 163.22 69.9725 165.001 70.4486C166.755 70.9248 169.094 70.1577 169.359 68.3589C169.572 67.0627 168.642 65.8724 168.19 64.6291C167.526 62.7775 167.951 60.7406 168.163 58.7831C168.376 56.8257 168.243 54.6301 166.835 53.2546C166.064 52.5139 165.001 52.1172 164.257 51.3765C162.848 49.9745 162.768 47.6467 161.386 46.2183C160.217 45.0015 158.33 44.7634 156.682 45.1337C155.034 45.5041 153.599 46.4299 152.164 47.3557" fill="#0882BF"/>
<path d="M231.871 89.4677C237.184 89.4677 241.492 85.1805 241.492 79.8919C241.492 74.6034 237.184 70.3162 231.871 70.3162C226.557 70.3162 222.25 74.6034 222.25 79.8919C222.25 85.1805 226.557 89.4677 231.871 89.4677Z" fill="#0069AA"/>
<path d="M238.303 92.6155H225.944C222.568 92.6155 219.459 94.4142 217.784 97.2975L204.309 120.047C203.379 121.74 203.858 123.856 205.426 125.02C207.233 126.342 209.784 125.866 210.98 123.988L221.107 108.566L220.256 135.072L220.735 176.311C220.761 178.956 222.914 181.072 225.572 181.072C228.203 181.072 230.329 178.982 230.409 176.39L231.605 135.574C231.605 135.283 231.844 135.072 232.137 135.072C232.429 135.072 232.668 135.31 232.668 135.574L233.864 176.364C233.917 178.982 236.07 181.046 238.701 181.046C241.359 181.046 243.512 178.93 243.538 176.284L244.017 135.045L243.166 108.54L253.293 123.962C254.515 125.84 257.04 126.316 258.847 124.993C260.416 123.856 260.894 121.74 259.964 120.02L246.489 97.2711C244.788 94.3878 241.678 92.6155 238.303 92.6155Z" fill="#0069AA"/>
<path d="M236.229 68.0148C237.372 65.4754 240.322 63.9412 243.113 64.1793C245.904 64.4173 248.429 66.3219 249.731 68.782C251.033 71.2685 251.14 74.2576 250.369 76.9293C249.97 78.2784 249.359 79.5481 248.934 80.8971C248.535 82.2462 248.349 83.7275 248.801 85.0501C247.445 85.4998 246.09 84.2037 245.718 82.8546C245.346 81.5055 245.532 80.0507 245.266 78.6751C244.761 75.8712 242.156 73.5434 239.286 73.3582C238.037 73.2789 234.582 74.2576 234.05 72.5911C233.784 71.7182 234.635 71.2949 235.06 70.6865C235.671 69.893 235.831 68.8878 236.229 68.0148Z" fill="#0069AA"/>
<path d="M187.167 44.0489C187.246 41.6153 188.097 39.0759 189.957 37.4888C192.163 35.6107 195.273 35.3726 198.17 35.2139C198.143 35.7429 198.143 36.2455 198.117 36.7746C200.004 35.0022 203.167 35.2139 205.373 36.5629C207.605 37.912 209.094 40.1605 210.529 42.3295C209.545 44.7896 209.067 47.4348 209.12 50.0801C203.937 50.1594 198.755 50.2388 193.599 50.2917C192.27 50.3182 189.585 50.8737 188.416 50.0007C187.007 48.9691 187.114 45.6096 187.167 44.0489Z" fill="#7AC142"/>
</g>
<defs>
<clipPath id="clip0">
<rect width="233.754" height="149.985" fill="white" transform="translate(26.6885 31.0874)"/>
</clipPath>
</defs>
</svg>
