<svg width="639" height="552" viewBox="0 0 639 552" fill="none" xmlns="http://www.w3.org/2000/svg">
<path opacity="0.3" d="M647.157 551.7H74.8425C46.7217 551.7 24 531.5 24 506.5V501.2C24 476.2 46.7217 456 74.8425 456H647.157C675.278 456 698 476.2 698 501.2V506.5C698 531.5 675.278 551.7 647.157 551.7Z" fill="#7AC142"/>
<path d="M160.975 500C154.297 500 148.704 494.822 148.287 488.139L134.93 318.326C134.93 306.799 144.28 297.444 155.799 297.444H166.234C177.754 297.444 187.103 306.799 187.103 318.326L173.747 488.139C173.246 494.822 167.737 500 160.975 500Z" fill="#EFC59E"/>
<path d="M275.255 177.915C263.652 177.915 254.135 168.476 254.135 156.782V143.418C254.135 131.807 263.568 122.285 275.255 122.285C286.859 122.285 296.375 131.724 296.375 143.418V156.782C296.375 168.476 286.942 177.915 275.255 177.915Z" fill="#DDAA7C"/>
<path d="M287.944 248.079L244.452 209.322C240.278 205.647 239.944 199.215 243.617 195.038C247.29 190.862 253.718 190.528 257.892 194.203L301.384 232.96C305.557 236.636 305.891 243.067 302.218 247.244C298.545 251.337 292.118 251.754 287.944 248.079Z" fill="#FC857A"/>
<path d="M320.834 304.628L321.168 315.653C321.251 319.412 318.163 322.419 314.49 322.252C310.9 322.085 308.062 318.994 308.312 315.403L309.064 303.124L320.834 304.628Z" fill="#E8BB8B"/>
<path d="M225.085 297.528L224.501 308.553C224.334 312.312 220.995 315.069 217.322 314.651C213.733 314.233 211.145 310.892 211.646 307.301L213.399 295.105L225.085 297.528Z" fill="#E8BB8B"/>
<path d="M320.5 238.39C325.425 238.807 329.015 243.151 328.43 247.995L321.669 305.379L309.063 304.377L311.317 246.659C311.317 241.731 315.575 237.972 320.5 238.39Z" fill="#FC857A"/>
<path d="M228.341 230.287C233.183 230.955 236.522 235.549 235.687 240.394L225.503 297.277L212.981 295.523L218.658 238.055C219.075 233.127 223.499 229.619 228.341 230.287Z" fill="#FC857A"/>
<path d="M306.559 295.188L307.477 489.392C307.394 494.57 303.137 498.747 297.961 498.747H295.457C290.448 498.747 286.274 494.821 285.94 489.809L277.509 339.291C277.509 338.707 277.008 338.289 276.424 338.289C275.84 338.289 275.339 338.79 275.339 339.375L271.582 489.893C271.499 495.072 267.241 499.248 262.066 499.248H258.56C253.551 499.248 249.377 495.322 249.043 490.31L244.786 297.444L306.559 295.188Z" fill="url(#paint0_linear)"/>
<path d="M327.512 240.478L313.905 198.463C309.898 190.361 301.717 185.266 292.702 185.182L258.393 185.099C248.709 185.099 240.028 190.862 236.355 199.8L219.242 235.383C217.322 239.977 219.576 245.239 224.167 247.077C228.758 248.998 234.017 246.742 235.854 242.148L243.367 229.953L243.951 299.198C244.035 303.04 247.123 306.047 250.963 306.047H299.797C303.637 306.047 306.726 303.04 306.81 299.198L307.561 236.552L311.568 248.329C313.738 252.756 319.164 254.594 323.588 252.422C327.846 250.334 329.682 244.988 327.512 240.478Z" fill="#FC857A"/>
<path d="M396.13 177.915C384.527 177.915 375.01 168.476 375.01 156.782V143.418C375.01 131.807 384.443 122.285 396.13 122.285C407.733 122.285 417.25 131.724 417.25 143.418V156.782C417.25 168.476 407.817 177.915 396.13 177.915Z" fill="#CE956E"/>
<path d="M408.819 248.079L365.327 209.322C361.153 205.647 360.819 199.215 364.492 195.038C368.165 190.862 374.593 190.528 378.767 194.203L422.258 232.96C426.432 236.636 426.766 243.067 423.093 247.244C419.42 251.337 412.992 251.754 408.819 248.079Z" fill="#FC857A"/>
<path d="M468.254 192.115L472.762 182.008C474.265 178.583 478.355 177.163 481.694 178.917C484.866 180.588 486.035 184.597 484.282 187.771L478.272 198.463L468.254 192.115Z" fill="#CE956E"/>
<path d="M345.126 301.788L342.705 312.563C341.87 316.238 338.114 318.41 334.608 317.324C331.101 316.322 329.182 312.563 330.267 309.138L334.023 297.444L345.126 301.788Z" fill="#CE956E"/>
<path d="M440.457 252.339C436.199 249.833 434.864 244.404 437.535 240.227L468.588 191.53L479.524 197.962L452.394 248.914C450.14 253.258 444.714 254.761 440.457 252.339Z" fill="#E5B01C"/>
<path d="M359.734 236.051C364.409 237.554 366.913 242.65 365.244 247.244L345.543 301.537L333.439 297.695L348.715 241.981C350.051 237.22 355.059 234.547 359.734 236.051Z" fill="#E5B01C"/>
<path d="M429.938 295.188L428.352 489.392C428.269 494.57 424.011 498.747 418.836 498.747H416.331C411.323 498.747 407.149 494.821 406.815 489.809L398.384 339.291C398.384 338.707 397.883 338.289 397.299 338.289C396.714 338.289 396.213 338.79 396.213 339.375L392.457 489.893C392.374 495.072 388.116 499.248 382.941 499.248H379.518C374.509 499.248 370.336 495.322 370.002 490.31L363.24 297.444L429.938 295.188Z" fill="#0069AA"/>
<path d="M452.06 238.724L429.688 198.463C425.681 190.361 417.5 185.266 408.485 185.182L384.193 185.099C374.509 185.099 364.993 190.862 361.32 199.8L348.965 239.392C347.045 243.986 349.299 249.248 353.891 251.086C358.482 253.007 363.741 250.752 365.577 246.158L367.414 238.891L358.899 316.405C358.983 320.247 362.071 323.254 365.911 323.254H426.432C430.272 323.254 433.361 320.247 433.444 316.405L424.93 228.366L435.949 246.659C438.119 251.086 443.545 252.924 447.969 250.752C452.477 248.58 454.314 243.151 452.06 238.724Z" fill="#E5B01C"/>
<path d="M392.04 129.051C387.532 129.886 383.442 133.227 381.188 137.404C379.101 141.413 378.35 146.007 378.266 150.518C378.183 154.527 378.183 159.121 379.351 162.88C382.273 171.901 387.198 180.588 387.282 190.361C383.024 191.28 379.351 194.036 375.595 196.208C371.838 198.38 367.164 199.967 363.073 198.547C368.332 193.953 367.665 182.927 367.581 176.579C367.498 168.476 366.579 160.374 366.913 152.355C367.331 142.75 368.499 132.058 376.096 125.459C383.024 119.362 391.038 118.359 399.803 118.192C398.885 118.192 397.382 128.299 397.215 129.302C395.462 128.717 393.793 128.717 392.04 129.051Z" fill="#01527A"/>
<path d="M414.495 127.13C415.33 128.216 416.081 129.469 416.665 130.805C420.171 138.657 422.175 147.177 422.008 155.78C421.758 165.219 421.507 174.825 425.013 183.846C426.182 186.769 427.684 189.609 427.768 192.7C427.768 191.864 416.498 192.198 415.413 192.282C411.824 192.616 411.323 194.036 408.652 196.041C407.399 190.194 407.733 183.511 408.318 177.581C409.153 168.727 411.323 159.957 410.822 151.019C410.572 146.843 409.57 142.666 407.817 138.907C405.646 134.397 402.558 133.645 398.968 130.972C398.718 130.722 398.384 130.471 398.3 130.22C398.134 129.886 398.217 129.469 398.3 129.135C398.885 126.211 399.72 123.371 400.721 120.615C400.805 120.364 400.888 120.114 401.139 119.947C401.556 119.612 402.14 119.696 402.641 119.863C407.566 121.283 411.657 123.455 414.495 127.13Z" fill="#01527A"/>
<path d="M266.74 117.858C265.488 117.691 264.236 117.608 262.9 117.775C261.899 117.942 260.897 118.192 260.229 118.861C259.561 119.529 259.144 120.698 259.728 121.533C257.141 121.366 253.468 122.619 253.968 125.877C254.052 126.295 254.219 126.796 254.135 127.213C253.968 127.965 253.301 128.383 252.716 128.884C250.88 130.471 250.462 133.06 250.379 135.483C250.379 136.401 250.379 137.404 250.796 138.239C252.716 141.747 269.161 131.306 272.5 130.137C278.761 127.965 286.024 127.297 292.284 130.053C290.281 124.958 284.271 123.538 279.679 121.868C277.008 120.865 274.42 120.197 271.749 119.195C270.079 118.693 268.41 118.192 266.74 117.858Z" fill="#473021"/>
<path d="M254.72 159.79C255.054 159.957 255.471 159.957 255.889 159.79C256.64 159.372 256.723 158.37 256.723 157.534C256.723 153.107 256.723 148.68 256.723 144.17C256.723 142.499 258.142 135.733 254.386 137.237C252.549 137.989 252.716 141.33 252.633 142.917C252.466 145.423 252.466 147.929 252.716 150.434C252.883 152.439 253.969 154.193 253.718 156.198C253.635 157.033 253.468 157.952 253.802 158.787C253.969 159.288 254.302 159.622 254.72 159.79Z" fill="#473021"/>
<path d="M292.368 124.708C293.787 125.626 294.622 127.13 295.206 128.717C295.206 129.636 295.958 130.972 296.125 131.891C296.375 133.061 296.542 134.23 296.625 135.483C296.792 137.822 296.792 140.16 296.792 142.499C296.876 147.344 297.293 151.938 297.043 156.783C297.043 157.451 296.959 158.286 296.375 158.62C295.707 159.038 294.705 158.537 294.372 157.868C294.038 157.117 294.038 156.281 294.121 155.446C294.539 146.926 292.034 138.323 287.026 131.473C285.773 129.719 282.351 125.209 285.773 124.039C287.693 123.288 290.699 123.705 292.368 124.708Z" fill="#473021"/>
<path d="M179.257 397.26H142.527C139.187 397.26 136.433 394.671 136.266 391.33L131.591 317.574H190.192L185.517 391.33C185.35 394.671 182.596 397.26 179.257 397.26Z" fill="#0069AA"/>
<path d="M160.975 187.771C149.372 187.771 139.855 178.333 139.855 166.639V153.274C139.855 141.664 149.288 132.142 160.975 132.142C172.578 132.142 182.095 141.58 182.095 153.274V166.639C182.095 178.249 172.662 187.771 160.975 187.771Z" fill="#EFC59E"/>
<path d="M183.764 329.101H137.434C132.426 329.101 128.252 324.925 128.252 319.913L134.93 212.245C134.93 200.718 144.28 191.363 155.799 191.363H162.06C173.58 191.363 182.929 200.718 182.929 212.245L192.947 319.913C192.947 325.008 188.773 329.101 183.764 329.101Z" fill="#7AC142"/>
<path d="M187.187 257.935L143.695 219.178C139.521 215.503 139.187 209.071 142.86 204.894C146.533 200.718 152.961 200.384 157.135 204.059L200.627 242.816C204.8 246.492 205.134 252.923 201.461 257.1C197.788 261.276 191.361 261.61 187.187 257.935Z" fill="#86CC48"/>
<path d="M185.35 245.991L207.138 210.825L217.906 216.087L203.048 255.596C200.376 260.524 194.282 262.362 189.357 259.689C184.516 257.016 182.679 250.919 185.35 245.991Z" fill="#86CC48"/>
<path d="M207.054 210.909L210.394 200.384C211.562 196.792 215.402 194.955 218.908 196.291C222.247 197.628 223.917 201.47 222.498 204.811L217.74 216.171L207.054 210.909Z" fill="#EFC59E"/>
<path d="M149.121 127.965C141.942 129.72 135.682 134.815 132.509 141.497C124.996 157.2 135.097 176.078 131.09 192.95C129.838 198.046 127.417 202.807 125.915 207.818C124.496 212.83 124.162 218.677 127.083 223.021C130.005 227.364 136.934 229.118 140.607 225.359C142.527 223.355 143.111 220.515 143.612 217.758C146.534 200.886 148.203 183.846 148.704 166.723C148.787 164.551 148.871 162.296 149.956 160.458C151.459 157.952 154.464 156.95 156.968 155.613C163.146 152.356 171.326 143.585 170.658 135.901C169.907 127.297 155.966 126.295 149.121 127.965Z" fill="#CC473A"/>
<path d="M165.065 132.476C172.161 131.056 179.924 135.65 182.011 142.583C175.751 144.337 168.571 139.826 167.319 133.478" fill="#CC473A"/>
<path d="M490.292 104H294.708C281.621 104 271 94.7326 271 83.3138V42.6862C271 31.2674 281.621 22 294.708 22H490.292C503.379 22 514 31.2674 514 42.6862V83.3138C514 94.7326 503.284 104 490.292 104Z" fill="#D3E1EA"/>
<path d="M319.999 104.41C319.999 104.41 326.093 120.698 339.032 128.55C341.703 130.137 344.959 127.631 344.207 124.624C342.872 119.612 341.536 112.345 341.536 104.327H319.999V104.41Z" fill="#D3E1EA"/>
<path d="M23.0224 83H232.978C245.686 83 256 73.629 256 62.0827V20.9173C256 9.37097 245.686 0 232.978 0H23.0224C10.314 0 4.20825e-05 9.37097 4.20825e-05 20.9173V62.0827C4.20825e-05 73.5454 10.314 83 23.0224 83Z" fill="#D3E1EA"/>
<path d="M207.555 82.8599C207.555 82.8599 201.461 99.1479 188.522 107C185.851 108.587 182.596 106.081 183.347 103.074C184.682 98.062 186.018 90.7951 186.018 82.7764H207.555V82.8599Z" fill="#D3E1EA"/>
<defs>
<linearGradient id="paint0_linear" x1="276.175" y1="295.183" x2="276.175" y2="499.333" gradientUnits="userSpaceOnUse">
<stop stop-color="#0069AA"/>
<stop offset="1" stop-color="#3BA6D7"/>
</linearGradient>
</defs>
</svg>
