<svg width="607" height="552" viewBox="0 0 607 552" fill="none" xmlns="http://www.w3.org/2000/svg">
<path opacity="0.3" d="M795.1 551.7H45.2001C20.2001 551.7 0 531.5 0 506.5V501.2C0 476.2 20.2001 456 45.2001 456H795.1C820.1 456 840.3 476.2 840.3 501.2V506.5C840.3 531.5 820.1 551.7 795.1 551.7Z" fill="#7AC142"/>
<path d="M136.975 500C130.297 500 124.704 494.822 124.287 488.139L110.93 318.326C110.93 306.799 120.28 297.444 131.799 297.444H142.234C153.754 297.444 163.103 306.799 163.103 318.326L149.747 488.139C149.246 494.822 143.737 500 136.975 500Z" fill="#EFC59E"/>
<path d="M251.255 177.915C239.652 177.915 230.135 168.476 230.135 156.782V143.418C230.135 131.807 239.568 122.285 251.255 122.285C262.859 122.285 272.375 131.724 272.375 143.418V156.782C272.375 168.476 262.942 177.915 251.255 177.915Z" fill="#DDAA7C"/>
<path d="M263.944 248.079L220.452 209.322C216.278 205.647 215.944 199.215 219.617 195.038C223.29 190.862 229.718 190.528 233.892 194.203L277.384 232.96C281.557 236.636 281.891 243.067 278.218 247.244C274.545 251.337 268.118 251.754 263.944 248.079Z" fill="#FC857A"/>
<path d="M296.834 304.628L297.168 315.653C297.251 319.412 294.163 322.419 290.49 322.252C286.9 322.085 284.062 318.994 284.312 315.403L285.064 303.124L296.834 304.628Z" fill="#E8BB8B"/>
<path d="M201.085 297.528L200.501 308.553C200.334 312.312 196.995 315.069 193.322 314.651C189.733 314.233 187.145 310.892 187.646 307.301L189.399 295.105L201.085 297.528Z" fill="#E8BB8B"/>
<path d="M296.5 238.39C301.425 238.807 305.015 243.151 304.43 247.995L297.669 305.379L285.063 304.377L287.317 246.659C287.317 241.731 291.575 237.972 296.5 238.39Z" fill="#FC857A"/>
<path d="M204.341 230.287C209.183 230.955 212.522 235.549 211.687 240.394L201.503 297.277L188.981 295.523L194.658 238.055C195.075 233.127 199.499 229.619 204.341 230.287Z" fill="#FC857A"/>
<path d="M282.559 295.188L283.477 489.392C283.394 494.57 279.137 498.747 273.961 498.747H271.457C266.448 498.747 262.274 494.821 261.94 489.809L253.509 339.291C253.509 338.707 253.008 338.289 252.424 338.289C251.84 338.289 251.339 338.79 251.339 339.375L247.582 489.893C247.499 495.072 243.241 499.248 238.066 499.248H234.56C229.551 499.248 225.377 495.322 225.043 490.31L220.786 297.444L282.559 295.188Z" fill="url(#paint0_linear)"/>
<path d="M303.512 240.478L289.905 198.463C285.898 190.361 277.717 185.266 268.702 185.182L234.393 185.099C224.709 185.099 216.028 190.862 212.355 199.8L195.242 235.383C193.322 239.977 195.576 245.239 200.167 247.077C204.758 248.998 210.017 246.742 211.854 242.148L219.367 229.953L219.951 299.198C220.035 303.04 223.123 306.047 226.963 306.047H275.797C279.637 306.047 282.726 303.04 282.81 299.198L283.561 236.552L287.568 248.329C289.738 252.756 295.164 254.594 299.588 252.422C303.846 250.334 305.682 244.988 303.512 240.478Z" fill="#FC857A"/>
<path d="M372.13 177.915C360.527 177.915 351.01 168.476 351.01 156.782V143.418C351.01 131.807 360.443 122.285 372.13 122.285C383.733 122.285 393.25 131.724 393.25 143.418V156.782C393.25 168.476 383.817 177.915 372.13 177.915Z" fill="#CE956E"/>
<path d="M384.819 248.079L341.327 209.322C337.153 205.647 336.819 199.215 340.492 195.038C344.165 190.862 350.593 190.528 354.767 194.203L398.258 232.96C402.432 236.636 402.766 243.067 399.093 247.244C395.42 251.337 388.992 251.754 384.819 248.079Z" fill="#FC857A"/>
<path d="M444.254 192.115L448.762 182.008C450.265 178.583 454.355 177.163 457.694 178.917C460.866 180.588 462.035 184.597 460.282 187.771L454.272 198.463L444.254 192.115Z" fill="#CE956E"/>
<path d="M321.126 301.788L318.705 312.563C317.87 316.238 314.114 318.41 310.608 317.324C307.101 316.322 305.182 312.563 306.267 309.138L310.023 297.444L321.126 301.788Z" fill="#CE956E"/>
<path d="M416.457 252.339C412.199 249.833 410.864 244.404 413.535 240.227L444.588 191.53L455.524 197.962L428.394 248.914C426.14 253.258 420.714 254.761 416.457 252.339Z" fill="#E5B01C"/>
<path d="M335.734 236.051C340.409 237.554 342.913 242.65 341.244 247.244L321.543 301.537L309.439 297.695L324.715 241.981C326.051 237.22 331.059 234.547 335.734 236.051Z" fill="#E5B01C"/>
<path d="M405.938 295.188L404.352 489.392C404.269 494.57 400.011 498.747 394.836 498.747H392.331C387.323 498.747 383.149 494.821 382.815 489.809L374.384 339.291C374.384 338.707 373.883 338.289 373.299 338.289C372.714 338.289 372.213 338.79 372.213 339.375L368.457 489.893C368.374 495.072 364.116 499.248 358.941 499.248H355.518C350.509 499.248 346.336 495.322 346.002 490.31L339.24 297.444L405.938 295.188Z" fill="#0069AA"/>
<path d="M428.06 238.724L405.688 198.463C401.681 190.361 393.5 185.266 384.485 185.182L360.193 185.099C350.509 185.099 340.993 190.862 337.32 199.8L324.965 239.392C323.045 243.986 325.299 249.248 329.891 251.086C334.482 253.007 339.741 250.752 341.577 246.158L343.414 238.891L334.899 316.405C334.983 320.247 338.071 323.254 341.911 323.254H402.432C406.272 323.254 409.361 320.247 409.444 316.405L400.93 228.366L411.949 246.659C414.119 251.086 419.545 252.924 423.969 250.752C428.477 248.58 430.314 243.151 428.06 238.724Z" fill="#E5B01C"/>
<path d="M368.04 129.051C363.532 129.886 359.442 133.227 357.188 137.404C355.101 141.413 354.35 146.007 354.266 150.518C354.183 154.527 354.183 159.121 355.351 162.88C358.273 171.901 363.198 180.588 363.282 190.361C359.024 191.28 355.351 194.036 351.595 196.208C347.838 198.379 343.164 199.967 339.073 198.547C344.332 193.953 343.665 182.927 343.581 176.579C343.498 168.476 342.579 160.374 342.913 152.355C343.331 142.75 344.499 132.058 352.096 125.459C359.024 119.362 367.038 118.359 375.803 118.192C374.885 118.192 373.382 128.299 373.215 129.302C371.462 128.717 369.793 128.717 368.04 129.051Z" fill="#01527A"/>
<path d="M390.495 127.13C391.33 128.216 392.081 129.469 392.665 130.805C396.171 138.657 398.175 147.177 398.008 155.78C397.758 165.219 397.507 174.825 401.013 183.846C402.182 186.769 403.684 189.609 403.768 192.7C403.768 191.864 392.498 192.198 391.413 192.282C387.824 192.616 387.323 194.036 384.652 196.041C383.399 190.194 383.733 183.511 384.318 177.581C385.153 168.727 387.323 159.957 386.822 151.019C386.572 146.843 385.57 142.666 383.817 138.907C381.646 134.397 378.558 133.645 374.968 130.972C374.718 130.722 374.384 130.471 374.3 130.22C374.134 129.886 374.217 129.469 374.3 129.135C374.885 126.211 375.72 123.371 376.721 120.615C376.805 120.364 376.888 120.114 377.139 119.947C377.556 119.612 378.14 119.696 378.641 119.863C383.566 121.283 387.657 123.455 390.495 127.13Z" fill="#01527A"/>
<path d="M242.74 117.858C241.488 117.691 240.236 117.608 238.9 117.775C237.899 117.942 236.897 118.192 236.229 118.861C235.561 119.529 235.144 120.698 235.728 121.533C233.141 121.366 229.468 122.619 229.968 125.877C230.052 126.295 230.219 126.796 230.135 127.213C229.968 127.965 229.301 128.383 228.716 128.884C226.88 130.471 226.462 133.06 226.379 135.483C226.379 136.401 226.379 137.404 226.796 138.239C228.716 141.747 245.161 131.306 248.5 130.137C254.761 127.965 262.024 127.297 268.284 130.053C266.281 124.958 260.271 123.538 255.679 121.868C253.008 120.865 250.42 120.197 247.749 119.195C246.079 118.693 244.41 118.192 242.74 117.858Z" fill="#473021"/>
<path d="M230.72 159.79C231.054 159.957 231.471 159.957 231.889 159.79C232.64 159.372 232.723 158.37 232.723 157.534C232.723 153.107 232.723 148.68 232.723 144.17C232.723 142.499 234.142 135.733 230.386 137.237C228.549 137.989 228.716 141.33 228.633 142.917C228.466 145.423 228.466 147.929 228.716 150.434C228.883 152.439 229.969 154.193 229.718 156.198C229.635 157.033 229.468 157.952 229.802 158.787C229.969 159.288 230.302 159.622 230.72 159.79Z" fill="#473021"/>
<path d="M268.368 124.708C269.787 125.626 270.622 127.13 271.206 128.717C271.206 129.636 271.958 130.972 272.125 131.891C272.375 133.061 272.542 134.23 272.625 135.483C272.792 137.822 272.792 140.16 272.792 142.499C272.876 147.344 273.293 151.938 273.043 156.783C273.043 157.451 272.959 158.286 272.375 158.62C271.707 159.038 270.705 158.537 270.372 157.868C270.038 157.117 270.038 156.281 270.121 155.446C270.539 146.926 268.034 138.323 263.026 131.473C261.773 129.719 258.351 125.209 261.773 124.039C263.693 123.288 266.699 123.705 268.368 124.708Z" fill="#473021"/>
<path d="M155.257 397.26H118.527C115.187 397.26 112.433 394.671 112.266 391.33L107.591 317.574H166.192L161.517 391.33C161.35 394.671 158.596 397.26 155.257 397.26Z" fill="#0069AA"/>
<path d="M136.975 187.771C125.372 187.771 115.855 178.333 115.855 166.639V153.274C115.855 141.664 125.288 132.142 136.975 132.142C148.578 132.142 158.095 141.58 158.095 153.274V166.639C158.095 178.249 148.662 187.771 136.975 187.771Z" fill="#EFC59E"/>
<path d="M159.764 329.101H113.434C108.426 329.101 104.252 324.925 104.252 319.913L110.93 212.245C110.93 200.718 120.28 191.363 131.799 191.363H138.06C149.58 191.363 158.929 200.718 158.929 212.245L168.947 319.913C168.947 325.008 164.773 329.101 159.764 329.101Z" fill="#7AC142"/>
<path d="M163.187 257.935L119.695 219.178C115.521 215.503 115.187 209.071 118.86 204.894C122.533 200.718 128.961 200.384 133.135 204.059L176.627 242.816C180.8 246.492 181.134 252.923 177.461 257.1C173.788 261.276 167.361 261.61 163.187 257.935Z" fill="#86CC48"/>
<path d="M161.35 245.991L183.138 210.825L193.906 216.087L179.048 255.596C176.376 260.524 170.282 262.362 165.357 259.689C160.516 257.016 158.679 250.919 161.35 245.991Z" fill="#86CC48"/>
<path d="M183.054 210.909L186.394 200.384C187.562 196.792 191.402 194.955 194.908 196.291C198.247 197.628 199.917 201.47 198.498 204.811L193.74 216.171L183.054 210.909Z" fill="#EFC59E"/>
<path d="M125.121 127.965C117.942 129.72 111.682 134.815 108.509 141.497C100.996 157.2 111.097 176.078 107.09 192.95C105.838 198.046 103.417 202.807 101.915 207.818C100.496 212.83 100.162 218.677 103.083 223.021C106.005 227.364 112.934 229.118 116.607 225.359C118.527 223.355 119.111 220.515 119.612 217.758C122.534 200.886 124.203 183.846 124.704 166.723C124.787 164.551 124.871 162.296 125.956 160.458C127.459 157.952 130.464 156.95 132.968 155.613C139.146 152.356 147.326 143.585 146.658 135.901C145.907 127.297 131.966 126.295 125.121 127.965Z" fill="#CC473A"/>
<path d="M141.065 132.476C148.161 131.056 155.924 135.65 158.011 142.583C151.751 144.337 144.571 139.826 143.319 133.478" fill="#CC473A"/>
<path d="M440.2 104.41H268.034C256.514 104.41 247.165 95.0551 247.165 83.5282V42.5159C247.165 30.989 256.514 21.6338 268.034 21.6338H440.2C451.72 21.6338 461.069 30.989 461.069 42.5159V83.5282C461.069 95.0551 451.637 104.41 440.2 104.41Z" fill="#D3E1EA"/>
<path d="M295.999 104.41C295.999 104.41 302.093 120.698 315.032 128.55C317.703 130.137 320.959 127.631 320.207 124.624C318.872 119.612 317.536 112.345 317.536 104.327H295.999V104.41Z" fill="#D3E1EA"/>
<path d="M21.2001 82.86H211.52C223.04 82.86 232.39 73.5049 232.39 61.978V20.8821C232.39 9.35516 223.04 0 211.52 0H21.2001C9.68029 0 0.330849 9.35516 0.330849 20.8821V61.978C0.330849 73.4213 9.68029 82.86 21.2001 82.86Z" fill="#D3E1EA"/>
<path d="M183.555 82.8599C183.555 82.8599 177.461 99.1479 164.522 107C161.851 108.587 158.596 106.081 159.347 103.074C160.682 98.062 162.018 90.7951 162.018 82.7764H183.555V82.8599Z" fill="#D3E1EA"/>
<defs>
<linearGradient id="paint0_linear" x1="252.175" y1="295.183" x2="252.175" y2="499.333" gradientUnits="userSpaceOnUse">
<stop stop-color="#0069AA"/>
<stop offset="1" stop-color="#3BA6D7"/>
</linearGradient>
</defs>
</svg>
