<svg width="370" height="351" viewBox="0 0 370 351" fill="none" xmlns="http://www.w3.org/2000/svg">
<path opacity="0.3" d="M331.361 350.837H53.6692C40.0248 350.837 29 339.822 29 326.189V323.299C29 309.667 40.0248 298.652 53.6692 298.652H331.361C345.006 298.652 356.031 309.667 356.031 323.299V326.189C356.031 339.822 345.006 350.837 331.361 350.837Z" fill="#7AC142"/>
<path d="M94.758 322.645C91.1131 322.645 88.0606 319.821 87.8328 316.177L80.5432 223.58C80.5432 217.295 85.6459 212.193 91.9332 212.193H97.6282C103.916 212.193 109.018 217.295 109.018 223.58L101.729 316.177C101.455 319.821 98.4483 322.645 94.758 322.645Z" fill="#EFC59E"/>
<path d="M157.13 147.015C150.797 147.015 145.603 141.868 145.603 135.492V128.204C145.603 121.873 150.751 116.681 157.13 116.681C163.463 116.681 168.656 121.827 168.656 128.204V135.492C168.656 141.868 163.508 147.015 157.13 147.015Z" fill="#DDAA7C"/>
<path d="M164.055 185.275L140.318 164.141C138.04 162.137 137.858 158.63 139.862 156.353C141.867 154.076 145.375 153.893 147.653 155.897L171.39 177.031C173.668 179.035 173.85 182.542 171.846 184.82C169.841 187.052 166.333 187.279 164.055 185.275Z" fill="#FC857A"/>
<path d="M182.005 216.11L182.188 222.122C182.233 224.172 180.548 225.811 178.543 225.72C176.584 225.629 175.035 223.944 175.171 221.985L175.582 215.29L182.005 216.11Z" fill="#E8BB8B"/>
<path d="M129.748 212.239L129.429 218.251C129.338 220.301 127.516 221.804 125.511 221.576C123.552 221.348 122.14 219.526 122.413 217.568L123.37 210.918L129.748 212.239Z" fill="#E8BB8B"/>
<path d="M181.823 179.991C184.511 180.219 186.47 182.587 186.151 185.229L182.461 216.52L175.582 215.973L176.812 184.5C176.812 181.813 179.135 179.763 181.823 179.991Z" fill="#FC857A"/>
<path d="M131.525 175.573C134.168 175.937 135.99 178.442 135.534 181.084L129.976 212.102L123.142 211.145L126.24 179.809C126.468 177.121 128.883 175.208 131.525 175.573Z" fill="#FC857A"/>
<path d="M174.215 210.964L174.716 316.861C174.67 319.685 172.347 321.962 169.522 321.962H168.155C165.422 321.962 163.144 319.821 162.961 317.089L158.36 235.013C158.36 234.694 158.086 234.466 157.767 234.466C157.449 234.466 157.175 234.739 157.175 235.058L155.125 317.134C155.079 319.958 152.756 322.235 149.931 322.235H148.018C145.284 322.235 143.006 320.095 142.824 317.362L140.5 212.194L174.215 210.964Z" fill="url(#paint0_linear)"/>
<path d="M185.65 181.13L178.224 158.22C176.037 153.802 171.572 151.024 166.652 150.978L147.927 150.933C142.642 150.933 137.904 154.075 135.899 158.949L126.559 178.352C125.511 180.857 126.741 183.727 129.247 184.729C131.753 185.776 134.623 184.546 135.626 182.041L139.726 175.391L140.045 213.15C140.09 215.245 141.776 216.885 143.872 216.885H170.525C172.62 216.885 174.306 215.245 174.352 213.15L174.762 178.99L176.949 185.412C178.133 187.826 181.094 188.828 183.509 187.644C185.833 186.505 186.835 183.59 185.65 181.13Z" fill="#FC857A"/>
<path d="M223.101 147.015C216.768 147.015 211.574 141.868 211.574 135.492V128.204C211.574 121.873 216.722 116.681 223.101 116.681C229.434 116.681 234.627 121.827 234.627 128.204V135.492C234.627 141.868 229.479 147.015 223.101 147.015Z" fill="#CE956E"/>
<path d="M230.026 185.275L206.289 164.141C204.011 162.137 203.829 158.63 205.833 156.353C207.838 154.076 211.346 153.893 213.624 155.897L237.361 177.031C239.639 179.035 239.821 182.542 237.817 184.82C235.812 187.052 232.304 187.279 230.026 185.275Z" fill="#FC857A"/>
<path d="M262.465 154.758L264.925 149.247C265.745 147.379 267.977 146.605 269.8 147.561C271.531 148.472 272.169 150.659 271.212 152.389L267.932 158.219L262.465 154.758Z" fill="#CE956E"/>
<path d="M195.264 214.562L193.942 220.437C193.487 222.441 191.436 223.626 189.523 223.034C187.609 222.487 186.562 220.437 187.154 218.57L189.204 212.193L195.264 214.562Z" fill="#CE956E"/>
<path d="M247.293 187.598C244.97 186.231 244.241 183.271 245.699 180.993L262.647 154.439L268.615 157.947L253.808 185.73C252.578 188.099 249.617 188.919 247.293 187.598Z" fill="#E5B01C"/>
<path d="M203.237 178.716C205.788 179.536 207.155 182.314 206.244 184.819L195.491 214.425L188.885 212.33L197.223 181.95C197.952 179.353 200.685 177.896 203.237 178.716Z" fill="#E5B01C"/>
<path d="M241.553 210.964L240.687 316.861C240.641 319.685 238.318 321.962 235.493 321.962H234.126C231.393 321.962 229.115 319.821 228.933 317.089L224.331 235.013C224.331 234.694 224.058 234.466 223.739 234.466C223.42 234.466 223.146 234.739 223.146 235.058L221.096 317.134C221.051 319.958 218.727 322.235 215.902 322.235H214.034C211.301 322.235 209.023 320.095 208.841 317.362L205.15 212.194L241.553 210.964Z" fill="#0069AA"/>
<path d="M253.626 180.174L241.416 158.22C239.229 153.802 234.764 151.024 229.844 150.978L216.586 150.933C211.301 150.933 206.107 154.075 204.102 158.949L197.359 180.538C196.311 183.043 197.542 185.913 200.047 186.915C202.553 187.962 205.423 186.733 206.426 184.228L207.428 180.265L202.781 222.533C202.827 224.628 204.512 226.268 206.608 226.268H239.639C241.735 226.268 243.421 224.628 243.466 222.533L238.819 174.526L244.833 184.501C246.018 186.915 248.979 187.917 251.394 186.733C253.854 185.548 254.856 182.588 253.626 180.174Z" fill="#E5B01C"/>
<path d="M220.868 120.37C218.408 120.826 216.176 122.648 214.945 124.925C213.806 127.111 213.396 129.616 213.351 132.076C213.305 134.262 213.305 136.767 213.943 138.817C215.538 143.736 218.226 148.473 218.271 153.802C215.948 154.303 213.943 155.806 211.893 156.99C209.843 158.174 207.291 159.04 205.059 158.266C207.929 155.76 207.565 149.748 207.519 146.287C207.474 141.869 206.972 137.451 207.155 133.078C207.382 127.84 208.02 122.01 212.166 118.412C215.948 115.087 220.321 114.54 225.105 114.449C224.604 114.449 223.784 119.96 223.693 120.507C222.736 120.188 221.825 120.188 220.868 120.37Z" fill="#01527A"/>
<path d="M233.124 119.323C233.58 119.915 233.99 120.598 234.308 121.327C236.222 125.608 237.315 130.254 237.224 134.945C237.088 140.092 236.951 145.33 238.865 150.249C239.502 151.843 240.322 153.392 240.368 155.077C240.368 154.622 234.217 154.804 233.625 154.849C231.666 155.031 231.393 155.806 229.935 156.899C229.251 153.711 229.434 150.067 229.752 146.833C230.208 142.005 231.393 137.223 231.119 132.349C230.983 130.072 230.436 127.794 229.479 125.745C228.295 123.285 226.609 122.875 224.65 121.418C224.513 121.281 224.331 121.144 224.285 121.008C224.194 120.826 224.24 120.598 224.285 120.416C224.604 118.822 225.06 117.273 225.607 115.77C225.652 115.633 225.698 115.497 225.834 115.406C226.062 115.223 226.381 115.269 226.654 115.36C229.342 116.134 231.575 117.319 233.124 119.323Z" fill="#01527A"/>
<path d="M152.483 114.267C151.799 114.176 151.116 114.13 150.387 114.222C149.84 114.313 149.294 114.449 148.929 114.814C148.565 115.178 148.337 115.816 148.656 116.271C147.243 116.18 145.239 116.863 145.512 118.64C145.558 118.867 145.649 119.141 145.603 119.368C145.512 119.778 145.148 120.006 144.829 120.279C143.826 121.145 143.599 122.557 143.553 123.878C143.553 124.379 143.553 124.925 143.781 125.381C144.829 127.294 153.804 121.6 155.626 120.962C159.043 119.778 163.007 119.414 166.424 120.917C165.331 118.139 162.05 117.364 159.545 116.453C158.087 115.907 156.674 115.542 155.216 114.996C154.305 114.723 153.394 114.449 152.483 114.267Z" fill="#473021"/>
<path d="M145.922 137.132C146.104 137.223 146.332 137.223 146.56 137.132C146.97 136.904 147.015 136.357 147.015 135.902C147.015 133.488 147.015 131.074 147.015 128.614C147.015 127.703 147.79 124.014 145.74 124.834C144.737 125.244 144.829 127.066 144.783 127.931C144.692 129.297 144.692 130.664 144.829 132.03C144.92 133.123 145.512 134.08 145.375 135.173C145.33 135.628 145.239 136.129 145.421 136.585C145.512 136.858 145.694 137.04 145.922 137.132Z" fill="#473021"/>
<path d="M166.47 118.002C167.244 118.503 167.7 119.323 168.019 120.188C168.019 120.689 168.429 121.418 168.52 121.919C168.657 122.557 168.748 123.194 168.793 123.877C168.884 125.153 168.884 126.428 168.884 127.703C168.93 130.345 169.158 132.85 169.021 135.492C169.021 135.856 168.975 136.312 168.657 136.494C168.292 136.722 167.745 136.448 167.563 136.084C167.381 135.674 167.381 135.219 167.426 134.763C167.654 130.117 166.287 125.426 163.554 121.691C162.87 120.735 161.002 118.275 162.87 117.637C163.918 117.228 165.558 117.455 166.47 118.002Z" fill="#473021"/>
<path d="M104.736 266.622H84.6893C82.8669 266.622 81.3634 265.21 81.2723 263.388L78.7209 223.17H110.704L108.153 263.388C108.062 265.21 106.558 266.622 104.736 266.622Z" fill="#0069AA"/>
<path d="M94.7581 152.39C88.4253 152.39 83.2314 147.243 83.2314 140.867V133.579C83.2314 127.248 88.3797 122.056 94.7581 122.056C101.091 122.056 106.285 127.202 106.285 133.579V140.867C106.285 147.198 101.137 152.39 94.7581 152.39Z" fill="#EFC59E"/>
<path d="M107.196 229.456H81.91C79.1764 229.456 76.8984 227.178 76.8984 224.446L80.5432 165.735C80.5432 159.45 85.646 154.349 91.9333 154.349H95.3503C101.638 154.349 106.74 159.45 106.74 165.735L112.207 224.446C112.207 227.224 109.929 229.456 107.196 229.456Z" fill="#7AC142"/>
<path d="M109.064 190.649L85.3271 169.515C83.0491 167.511 82.8668 164.004 84.8715 161.727C86.8761 159.45 90.3842 159.267 92.6622 161.271L116.399 182.405C118.677 184.409 118.859 187.916 116.855 190.194C114.85 192.471 111.342 192.653 109.064 190.649Z" fill="#86CC48"/>
<path d="M108.062 184.136L119.953 164.961L125.83 167.83L117.72 189.374C116.262 192.061 112.937 193.063 110.249 191.606C107.606 190.148 106.604 186.824 108.062 184.136Z" fill="#86CC48"/>
<path d="M119.907 165.007L121.73 159.268C122.367 157.309 124.463 156.307 126.377 157.036C128.199 157.765 129.11 159.86 128.336 161.682L125.739 167.876L119.907 165.007Z" fill="#EFC59E"/>
<path d="M88.2885 119.778C84.3703 120.735 80.9533 123.513 79.222 127.157C75.1216 135.72 80.6344 146.013 78.4475 155.214C77.7641 157.992 76.4429 160.588 75.6228 163.321C74.8483 166.054 74.666 169.242 76.2606 171.611C77.8552 173.979 81.6367 174.936 83.6413 172.886C84.6892 171.793 85.0081 170.244 85.2815 168.741C86.8761 159.541 87.7873 150.249 88.0607 140.912C88.1062 139.728 88.1518 138.498 88.7441 137.496C89.5641 136.13 91.2043 135.583 92.5711 134.854C95.9425 133.078 100.407 128.295 100.043 124.105C99.6329 119.414 92.0244 118.867 88.2885 119.778Z" fill="#CC473A"/>
<path d="M96.9905 122.237C100.863 121.463 105.1 123.968 106.239 127.748C102.822 128.705 98.904 126.245 98.2206 122.784" fill="#CC473A"/>
<path d="M340.292 107H210.708C202.037 107 195 99.9929 195 91.3592V60.6408C195 52.0071 202.037 45 210.708 45H340.292C348.963 45 356 52.0071 356 60.6408V91.3592C356 99.9929 348.9 107 340.292 107Z" fill="#D3E1EA"/>
<path d="M254.272 106.934C254.272 106.934 250.947 115.816 243.885 120.097C242.427 120.963 240.65 119.596 241.06 117.957C241.789 115.224 242.518 111.261 242.518 106.889H254.272V106.934Z" fill="#D3E1EA"/>
<path d="M29.8279 103H174.172C182.909 103 190 95.8871 190 87.123V55.877C190 47.1129 182.909 40 174.172 40H29.8279C21.0909 40 14 47.1129 14 55.877V87.123C14 95.8236 21.0909 103 29.8279 103Z" fill="#D3E1EA"/>
<path d="M120.181 102.182C120.181 102.182 116.855 111.064 109.793 115.345C108.335 116.211 106.558 114.844 106.968 113.205C107.697 110.472 108.426 106.509 108.426 102.137H120.181V102.182Z" fill="#D3E1EA"/>
<path d="M128.134 23H139.93V19.9574H131.825V15.7898H139.29V12.7472H131.825V8.58807H139.896V5.54545H128.134V23ZM149.724 9.90909H147.261V6.77273H143.631V9.90909H141.841V12.6364H143.631V19.4545C143.614 22.0199 145.361 23.2898 147.994 23.179C148.932 23.1449 149.597 22.9574 149.963 22.8381L149.392 20.1364C149.213 20.1705 148.83 20.2557 148.489 20.2557C147.764 20.2557 147.261 19.983 147.261 18.9773V12.6364H149.724V9.90909ZM156.001 15.4318C156.01 13.7443 157.041 12.7557 158.524 12.7557C159.999 12.7557 160.868 13.7017 160.859 15.3125V23H164.49V14.6648C164.499 11.5966 162.692 9.73864 159.964 9.73864C157.979 9.73864 156.649 10.6761 156.053 12.2188H155.899V5.54545H152.371V23H156.001V15.4318ZM170.978 15.4318C170.987 13.7443 171.992 12.7557 173.458 12.7557C174.915 12.7557 175.793 13.7102 175.785 15.3125V23H179.415V14.6648C179.415 11.6136 177.626 9.73864 174.898 9.73864C172.955 9.73864 171.549 10.6932 170.961 12.2188H170.808V9.90909H167.347V23H170.978V15.4318ZM182.277 23H185.908V9.90909H182.277V23ZM184.101 8.22159C185.183 8.22159 186.07 7.39489 186.07 6.38068C186.07 5.375 185.183 4.54829 184.101 4.54829C183.027 4.54829 182.141 5.375 182.141 6.38068C182.141 7.39489 183.027 8.22159 184.101 8.22159ZM194.731 23.2557C198.217 23.2557 200.407 21.2102 200.577 18.2017H197.151C196.938 19.5994 196.018 20.3835 194.773 20.3835C193.077 20.3835 191.978 18.9602 191.978 16.4545C191.978 13.983 193.086 12.5682 194.773 12.5682C196.103 12.5682 196.955 13.446 197.151 14.75H200.577C200.424 11.7244 198.131 9.73864 194.714 9.73864C190.742 9.73864 188.288 12.4915 188.288 16.5057C188.288 20.4858 190.7 23.2557 194.731 23.2557ZM202.902 23H206.533V9.90909H202.902V23ZM204.726 8.22159C205.808 8.22159 206.695 7.39489 206.695 6.38068C206.695 5.375 205.808 4.54829 204.726 4.54829C203.652 4.54829 202.766 5.375 202.766 6.38068C202.766 7.39489 203.652 8.22159 204.726 8.22159ZM216.404 9.90909H213.941V6.77273H210.31V9.90909H208.521V12.6364H210.31V19.4545C210.293 22.0199 212.04 23.2898 214.674 23.179C215.612 23.1449 216.276 22.9574 216.643 22.8381L216.072 20.1364C215.893 20.1705 215.509 20.2557 215.168 20.2557C214.444 20.2557 213.941 19.983 213.941 18.9773V12.6364H216.404V9.90909ZM221.011 27.9091C223.712 27.9091 225.144 26.5284 225.886 24.4148L230.974 9.92614L227.13 9.90909L224.394 19.5227H224.258L221.548 9.90909H217.729L222.425 23.375L222.212 23.929C221.735 25.1562 220.823 25.2159 219.545 24.8239L218.727 27.5341C219.246 27.7557 220.09 27.9091 221.011 27.9091Z" fill="#002D44"/>
<path d="M217.77 83.2387C221.708 83.2387 224.537 81.1336 224.546 78.3041C224.537 76.1222 222.858 74.341 220.761 73.9916V73.8722C222.585 73.4972 223.889 71.9205 223.898 70.0029C223.889 67.3012 221.298 65.3069 217.77 65.3069C214.233 65.3069 211.642 67.3012 211.651 70.0029C211.642 71.912 212.929 73.4972 214.787 73.8722V73.9916C212.656 74.341 210.994 76.1222 211.003 78.3041C210.994 81.1336 213.833 83.2387 217.77 83.2387ZM217.77 80.5285C216.014 80.5285 214.838 79.4887 214.838 78.0143C214.838 76.5058 216.074 75.4149 217.77 75.4149C219.458 75.4149 220.702 76.5058 220.702 78.0143C220.702 79.4972 219.517 80.5285 217.77 80.5285ZM217.77 72.7302C216.296 72.7302 215.247 71.7671 215.247 70.3865C215.247 69.0228 216.279 68.0853 217.77 68.0853C219.253 68.0853 220.293 69.0313 220.293 70.3865C220.293 71.7671 219.236 72.7302 217.77 72.7302Z" fill="#002D44"/>
<path d="M233.578 83.2387C237.498 83.2387 240.302 81.0825 240.293 78.0995C240.302 75.9262 238.921 74.3751 236.356 74.0512V73.9149C238.308 73.5654 239.654 72.1847 239.646 70.2245C239.654 67.4717 237.242 65.3069 233.629 65.3069C230.049 65.3069 227.356 67.4035 227.305 70.4205H230.842C230.884 69.091 232.103 68.2302 233.612 68.2302C235.103 68.2302 236.1 69.1336 236.092 70.4461C236.1 71.8183 234.933 72.7472 233.254 72.7472H231.626V75.4575H233.254C235.231 75.4575 236.467 76.4461 236.458 77.8524C236.467 79.2416 235.274 80.1961 233.586 80.1961C231.958 80.1961 230.739 79.3438 230.671 78.0654H226.955C227.015 81.1166 229.742 83.2387 233.578 83.2387Z" fill="#002D44"/>
<path d="M252.5 79.7274C252.509 81.824 253.847 83.6052 256.344 83.6052C258.815 83.6052 260.196 81.824 260.188 79.7274V78.8069C260.196 76.6933 258.85 74.9291 256.344 74.9291C253.881 74.9291 252.509 76.7103 252.5 78.8069V79.7274ZM243.543 69.7387C243.551 71.8353 244.889 73.5995 247.378 73.5995C249.858 73.5995 251.239 71.8524 251.23 69.7387V68.8183C251.239 66.7046 249.892 64.9404 247.378 64.9404C244.94 64.9404 243.551 66.7046 243.543 68.8183V69.7387ZM244.378 83.0001H246.602L258.602 65.5455H256.378L244.378 83.0001ZM254.98 78.8069C254.989 77.9717 255.321 77.1109 256.344 77.1109C257.418 77.1109 257.699 77.9717 257.69 78.8069V79.7274C257.699 80.5626 257.384 81.4063 256.344 81.4063C255.304 81.4063 254.989 80.537 254.98 79.7274V78.8069ZM246.04 68.8183C246.048 68.0086 246.364 67.1222 247.378 67.1222C248.452 67.1222 248.742 67.983 248.733 68.8183V69.7387C248.742 70.574 248.418 71.4177 247.378 71.4177C246.372 71.4177 246.048 70.574 246.04 69.7387V68.8183Z" fill="#002D44"/>
<path d="M271.409 76H272.818V70.7955H279.023V76H280.432V64.3636H279.023V69.5455H272.818V64.3636H271.409V76Z" fill="#002D44"/>
<path d="M283.071 76H284.412V67.2727H283.071V76ZM283.753 65.8182C284.276 65.8182 284.707 65.4091 284.707 64.9091C284.707 64.4091 284.276 64 283.753 64C283.23 64 282.798 64.4091 282.798 64.9091C282.798 65.4091 283.23 65.8182 283.753 65.8182Z" fill="#002D44"/>
<path d="M293.05 69.2273C292.629 67.9886 291.686 67.1591 289.959 67.1591C288.118 67.1591 286.754 68.2045 286.754 69.6818C286.754 70.8864 287.47 71.6932 289.072 72.0682L290.527 72.4091C291.408 72.6136 291.822 73.0341 291.822 73.6364C291.822 74.3864 291.027 75 289.777 75C288.68 75 287.993 74.5284 287.754 73.5909L286.481 73.9091C286.794 75.392 288.016 76.1818 289.8 76.1818C291.828 76.1818 293.209 75.0739 293.209 73.5682C293.209 72.3523 292.447 71.5852 290.891 71.2045L289.595 70.8864C288.561 70.6307 288.095 70.2841 288.095 69.6136C288.095 68.8636 288.891 68.3182 289.959 68.3182C291.129 68.3182 291.612 68.9659 291.845 69.5682L293.05 69.2273Z" fill="#002D44"/>
<path d="M295.227 79.2727H296.568V74.6591H296.682C296.977 75.1364 297.545 76.1818 299.227 76.1818C301.409 76.1818 302.932 74.4318 302.932 71.6591C302.932 68.9091 301.409 67.1591 299.204 67.1591C297.5 67.1591 296.977 68.2045 296.682 68.6591H296.523V67.2727H295.227V79.2727ZM296.545 71.6364C296.545 69.6818 297.409 68.3636 299.045 68.3636C300.75 68.3636 301.591 69.7955 301.591 71.6364C301.591 73.5 300.727 74.9773 299.045 74.9773C297.432 74.9773 296.545 73.6136 296.545 71.6364Z" fill="#002D44"/>
<path d="M307.545 76.2045C309.068 76.2045 309.864 75.3864 310.136 74.8182H310.204V76H311.545V70.25C311.545 67.4773 309.432 67.1591 308.318 67.1591C307 67.1591 305.5 67.6136 304.818 69.2045L306.091 69.6591C306.386 69.0227 307.085 68.3409 308.364 68.3409C309.597 68.3409 310.204 68.9943 310.204 70.1136V70.1591C310.204 70.8068 309.545 70.75 307.954 70.9545C306.335 71.1648 304.568 71.5227 304.568 73.5227C304.568 75.2273 305.886 76.2045 307.545 76.2045ZM307.75 75C306.682 75 305.909 74.5227 305.909 73.5909C305.909 72.5682 306.841 72.25 307.886 72.1136C308.454 72.0455 309.977 71.8864 310.204 71.6136V72.8409C310.204 73.9318 309.341 75 307.75 75Z" fill="#002D44"/>
<path d="M315.334 70.75C315.334 69.2273 316.277 68.3636 317.561 68.3636C318.805 68.3636 319.561 69.1761 319.561 70.5455V76H320.902V70.4545C320.902 68.2273 319.714 67.1591 317.947 67.1591C316.629 67.1591 315.811 67.75 315.402 68.6364H315.288V67.2727H313.993V76H315.334V70.75Z" fill="#002D44"/>
<path d="M323.352 76H324.693V67.2727H323.352V76ZM324.034 65.8182C324.557 65.8182 324.989 65.4091 324.989 64.9091C324.989 64.4091 324.557 64 324.034 64C323.511 64 323.079 64.4091 323.079 64.9091C323.079 65.4091 323.511 65.8182 324.034 65.8182Z" fill="#002D44"/>
<path d="M330.695 76.1818C332.626 76.1818 333.899 75 334.126 73.4545H332.785C332.535 74.4091 331.74 74.9773 330.695 74.9773C329.104 74.9773 328.081 73.6591 328.081 71.6364C328.081 69.6591 329.126 68.3636 330.695 68.3636C331.876 68.3636 332.581 69.0909 332.785 69.8864H334.126C333.899 68.25 332.513 67.1591 330.672 67.1591C328.308 67.1591 326.74 69.0227 326.74 71.6818C326.74 74.2955 328.24 76.1818 330.695 76.1818Z" fill="#002D44"/>
<path d="M274.773 96.1818C277.136 96.1818 278.727 94.3864 278.727 91.6818C278.727 88.9545 277.136 87.1591 274.773 87.1591C272.409 87.1591 270.818 88.9545 270.818 91.6818C270.818 94.3864 272.409 96.1818 274.773 96.1818ZM274.773 94.9773C272.977 94.9773 272.159 93.4318 272.159 91.6818C272.159 89.9318 272.977 88.3636 274.773 88.3636C276.568 88.3636 277.386 89.9318 277.386 91.6818C277.386 93.4318 276.568 94.9773 274.773 94.9773Z" fill="#002D44"/>
<path d="M280.774 96H282.115V90.4773C282.115 89.2955 283.047 88.4318 284.32 88.4318C284.677 88.4318 285.047 88.5 285.138 88.5227V87.1591C284.984 87.1477 284.632 87.1364 284.433 87.1364C283.388 87.1364 282.479 87.7273 282.16 88.5909H282.07V87.2727H280.774V96Z" fill="#002D44"/>
<path d="M291.409 96H298.227V94.75H292.818V84.3636H291.409V96Z" fill="#002D44"/>
<path d="M302.795 96.2045C304.318 96.2045 305.114 95.3864 305.386 94.8182H305.454V96H306.795V90.25C306.795 87.4773 304.682 87.1591 303.568 87.1591C302.25 87.1591 300.75 87.6136 300.068 89.2045L301.341 89.6591C301.636 89.0227 302.335 88.3409 303.614 88.3409C304.847 88.3409 305.454 88.9943 305.454 90.1136V90.1591C305.454 90.8068 304.795 90.75 303.204 90.9545C301.585 91.1648 299.818 91.5227 299.818 93.5227C299.818 95.2273 301.136 96.2045 302.795 96.2045ZM303 95C301.932 95 301.159 94.5227 301.159 93.5909C301.159 92.5682 302.091 92.25 303.136 92.1136C303.704 92.0455 305.227 91.8864 305.454 91.6136V92.8409C305.454 93.9318 304.591 95 303 95Z" fill="#002D44"/>
<path d="M313.038 87.2727H311.175V85.1818H309.834V87.2727H308.516V88.4091H309.834V93.8636C309.834 95.3864 311.061 96.1136 312.197 96.1136C312.697 96.1136 313.016 96.0227 313.197 95.9545L312.925 94.75C312.811 94.7727 312.629 94.8182 312.334 94.8182C311.743 94.8182 311.175 94.6364 311.175 93.5V88.4091H313.038V87.2727Z" fill="#002D44"/>
<path d="M315.055 96H316.396V87.2727H315.055V96ZM315.737 85.8182C316.26 85.8182 316.692 85.4091 316.692 84.9091C316.692 84.4091 316.26 84 315.737 84C315.214 84 314.783 84.4091 314.783 84.9091C314.783 85.4091 315.214 85.8182 315.737 85.8182Z" fill="#002D44"/>
<path d="M320.193 90.75C320.193 89.2273 321.136 88.3636 322.42 88.3636C323.665 88.3636 324.42 89.1761 324.42 90.5455V96H325.761V90.4545C325.761 88.2273 324.574 87.1591 322.807 87.1591C321.489 87.1591 320.67 87.75 320.261 88.6364H320.148V87.2727H318.852V96H320.193V90.75Z" fill="#002D44"/>
<path d="M331.757 96.1818C334.121 96.1818 335.712 94.3864 335.712 91.6818C335.712 88.9545 334.121 87.1591 331.757 87.1591C329.393 87.1591 327.802 88.9545 327.802 91.6818C327.802 94.3864 329.393 96.1818 331.757 96.1818ZM331.757 94.9773C329.962 94.9773 329.143 93.4318 329.143 91.6818C329.143 89.9318 329.962 88.3636 331.757 88.3636C333.552 88.3636 334.371 89.9318 334.371 91.6818C334.371 93.4318 333.552 94.9773 331.757 94.9773Z" fill="#002D44"/>
<path d="M37.6882 57.5455H34.2195L29.8984 60.2813V63.5541L33.8956 61.0484H33.9979V75.0001H37.6882V57.5455Z" fill="#002D44"/>
<path d="M42.527 75.0001H46.3366L53.581 60.6052V57.5455H41.3338V60.5626H49.7628V60.6819L42.527 75.0001Z" fill="#002D44"/>
<path d="M65.6641 71.7274C65.6726 73.824 67.0107 75.6052 69.5078 75.6052C71.9794 75.6052 73.3601 73.824 73.3516 71.7274V70.8069C73.3601 68.6933 72.0135 66.9291 69.5078 66.9291C67.0447 66.9291 65.6726 68.7103 65.6641 70.8069V71.7274ZM56.7067 61.7387C56.7152 63.8353 58.0533 65.5995 60.5419 65.5995C63.022 65.5995 64.4027 63.8524 64.3942 61.7387V60.8183C64.4027 58.7046 63.0561 56.9404 60.5419 56.9404C58.1044 56.9404 56.7152 58.7046 56.7067 60.8183V61.7387ZM57.5419 75.0001H59.7663L71.7663 57.5455H69.5419L57.5419 75.0001ZM68.1442 70.8069C68.1527 69.9717 68.4851 69.1109 69.5078 69.1109C70.5817 69.1109 70.8629 69.9717 70.8544 70.8069V71.7274C70.8629 72.5626 70.5476 73.4063 69.5078 73.4063C68.468 73.4063 68.1527 72.537 68.1442 71.7274V70.8069ZM59.2038 60.8183C59.2124 60.0086 59.5277 59.1222 60.5419 59.1222C61.6158 59.1222 61.9055 59.983 61.897 60.8183V61.7387C61.9055 62.574 61.5817 63.4177 60.5419 63.4177C59.5362 63.4177 59.2124 62.574 59.2038 61.7387V60.8183Z" fill="#002D44"/>
<path d="M93.6363 57.3636H92.2499V66.5227H92.1363L85.7727 57.3636H84.409V69H85.8181V59.8636H85.9318L92.2727 69H93.6363V57.3636Z" fill="#002D44"/>
<path d="M99.8195 69.1818C102.183 69.1818 103.774 67.3864 103.774 64.6818C103.774 61.9545 102.183 60.1591 99.8195 60.1591C97.4559 60.1591 95.865 61.9545 95.865 64.6818C95.865 67.3864 97.4559 69.1818 99.8195 69.1818ZM99.8195 67.9773C98.0241 67.9773 97.2059 66.4318 97.2059 64.6818C97.2059 62.9318 98.0241 61.3636 99.8195 61.3636C101.615 61.3636 102.433 62.9318 102.433 64.6818C102.433 66.4318 101.615 67.9773 99.8195 67.9773Z" fill="#002D44"/>
<path d="M109.616 60.2727H107.753V58.1818H106.412V60.2727H105.094V61.4091H106.412V66.8636C106.412 68.3864 107.639 69.1136 108.776 69.1136C109.276 69.1136 109.594 69.0227 109.776 68.9545L109.503 67.75C109.389 67.7727 109.207 67.8182 108.912 67.8182C108.321 67.8182 107.753 67.6364 107.753 66.5V61.4091H109.616V60.2727Z" fill="#002D44"/>
<path d="M116.315 69H117.724V63.7955H123.929V69H125.338V57.3636H123.929V62.5455H117.724V57.3636H116.315V69Z" fill="#002D44"/>
<path d="M127.977 69H129.318V60.2727H127.977V69ZM128.659 58.8182C129.182 58.8182 129.614 58.4091 129.614 57.9091C129.614 57.4091 129.182 57 128.659 57C128.136 57 127.704 57.4091 127.704 57.9091C127.704 58.4091 128.136 58.8182 128.659 58.8182Z" fill="#002D44"/>
<path d="M137.956 62.2273C137.535 60.9886 136.592 60.1591 134.865 60.1591C133.024 60.1591 131.66 61.2045 131.66 62.6818C131.66 63.8864 132.376 64.6932 133.979 65.0682L135.433 65.4091C136.314 65.6136 136.729 66.0341 136.729 66.6364C136.729 67.3864 135.933 68 134.683 68C133.587 68 132.899 67.5284 132.66 66.5909L131.388 66.9091C131.7 68.392 132.922 69.1818 134.706 69.1818C136.734 69.1818 138.115 68.0739 138.115 66.5682C138.115 65.3523 137.354 64.5852 135.797 64.2045L134.501 63.8864C133.467 63.6307 133.001 63.2841 133.001 62.6136C133.001 61.8636 133.797 61.3182 134.865 61.3182C136.035 61.3182 136.518 61.9659 136.751 62.5682L137.956 62.2273Z" fill="#002D44"/>
<path d="M140.133 72.2727H141.474V67.6591H141.588C141.883 68.1364 142.452 69.1818 144.133 69.1818C146.315 69.1818 147.838 67.4318 147.838 64.6591C147.838 61.9091 146.315 60.1591 144.111 60.1591C142.406 60.1591 141.883 61.2045 141.588 61.6591H141.429V60.2727H140.133V72.2727ZM141.452 64.6364C141.452 62.6818 142.315 61.3636 143.952 61.3636C145.656 61.3636 146.497 62.7955 146.497 64.6364C146.497 66.5 145.633 67.9773 143.952 67.9773C142.338 67.9773 141.452 66.6136 141.452 64.6364Z" fill="#002D44"/>
<path d="M152.452 69.2045C153.974 69.2045 154.77 68.3864 155.043 67.8182H155.111V69H156.452V63.25C156.452 60.4773 154.338 60.1591 153.224 60.1591C151.906 60.1591 150.406 60.6136 149.724 62.2045L150.997 62.6591C151.293 62.0227 151.991 61.3409 153.27 61.3409C154.503 61.3409 155.111 61.9943 155.111 63.1136V63.1591C155.111 63.8068 154.452 63.75 152.861 63.9545C151.241 64.1648 149.474 64.5227 149.474 66.5227C149.474 68.2273 150.793 69.2045 152.452 69.2045ZM152.656 68C151.588 68 150.815 67.5227 150.815 66.5909C150.815 65.5682 151.747 65.25 152.793 65.1136C153.361 65.0455 154.883 64.8864 155.111 64.6136V65.8409C155.111 66.9318 154.247 68 152.656 68Z" fill="#002D44"/>
<path d="M160.24 63.75C160.24 62.2273 161.183 61.3636 162.467 61.3636C163.712 61.3636 164.467 62.1761 164.467 63.5455V69H165.808V63.4545C165.808 61.2273 164.621 60.1591 162.854 60.1591C161.535 60.1591 160.717 60.75 160.308 61.6364H160.195V60.2727H158.899V69H160.24V63.75Z" fill="#002D44"/>
<path d="M168.258 69H169.599V60.2727H168.258V69ZM168.94 58.8182C169.463 58.8182 169.895 58.4091 169.895 57.9091C169.895 57.4091 169.463 57 168.94 57C168.418 57 167.986 57.4091 167.986 57.9091C167.986 58.4091 168.418 58.8182 168.94 58.8182Z" fill="#002D44"/>
<path d="M175.601 69.1818C177.533 69.1818 178.805 68 179.033 66.4545H177.692C177.442 67.4091 176.646 67.9773 175.601 67.9773C174.01 67.9773 172.987 66.6591 172.987 64.6364C172.987 62.6591 174.033 61.3636 175.601 61.3636C176.783 61.3636 177.487 62.0909 177.692 62.8864H179.033C178.805 61.25 177.419 60.1591 175.578 60.1591C173.214 60.1591 171.646 62.0227 171.646 64.6818C171.646 67.2955 173.146 69.1818 175.601 69.1818Z" fill="#002D44"/>
<path d="M87.7727 89.1818C90.1363 89.1818 91.7272 87.3864 91.7272 84.6818C91.7272 81.9545 90.1363 80.1591 87.7727 80.1591C85.409 80.1591 83.8181 81.9545 83.8181 84.6818C83.8181 87.3864 85.409 89.1818 87.7727 89.1818ZM87.7727 87.9773C85.9772 87.9773 85.159 86.4318 85.159 84.6818C85.159 82.9318 85.9772 81.3636 87.7727 81.3636C89.5681 81.3636 90.3863 82.9318 90.3863 84.6818C90.3863 86.4318 89.5681 87.9773 87.7727 87.9773Z" fill="#002D44"/>
<path d="M93.7741 89H95.115V83.4773C95.115 82.2955 96.0468 81.4318 97.3195 81.4318C97.6775 81.4318 98.0468 81.5 98.1377 81.5227V80.1591C97.9843 80.1477 97.632 80.1364 97.4332 80.1364C96.3877 80.1364 95.4786 80.7273 95.1604 81.5909H95.0695V80.2727H93.7741V89Z" fill="#002D44"/>
<path d="M104.409 89H111.227V87.75H105.818V77.3636H104.409V89Z" fill="#002D44"/>
<path d="M115.795 89.2045C117.318 89.2045 118.114 88.3864 118.386 87.8182H118.454V89H119.795V83.25C119.795 80.4773 117.682 80.1591 116.568 80.1591C115.25 80.1591 113.75 80.6136 113.068 82.2045L114.341 82.6591C114.636 82.0227 115.335 81.3409 116.614 81.3409C117.847 81.3409 118.454 81.9943 118.454 83.1136V83.1591C118.454 83.8068 117.795 83.75 116.204 83.9545C114.585 84.1648 112.818 84.5227 112.818 86.5227C112.818 88.2273 114.136 89.2045 115.795 89.2045ZM116 88C114.932 88 114.159 87.5227 114.159 86.5909C114.159 85.5682 115.091 85.25 116.136 85.1136C116.704 85.0455 118.227 84.8864 118.454 84.6136V85.8409C118.454 86.9318 117.591 88 116 88Z" fill="#002D44"/>
<path d="M126.038 80.2727H124.175V78.1818H122.834V80.2727H121.516V81.4091H122.834V86.8636C122.834 88.3864 124.061 89.1136 125.197 89.1136C125.697 89.1136 126.016 89.0227 126.197 88.9545L125.925 87.75C125.811 87.7727 125.629 87.8182 125.334 87.8182C124.743 87.8182 124.175 87.6364 124.175 86.5V81.4091H126.038V80.2727Z" fill="#002D44"/>
<path d="M128.055 89H129.396V80.2727H128.055V89ZM128.737 78.8182C129.26 78.8182 129.692 78.4091 129.692 77.9091C129.692 77.4091 129.26 77 128.737 77C128.214 77 127.783 77.4091 127.783 77.9091C127.783 78.4091 128.214 78.8182 128.737 78.8182Z" fill="#002D44"/>
<path d="M133.193 83.75C133.193 82.2273 134.136 81.3636 135.42 81.3636C136.665 81.3636 137.42 82.1761 137.42 83.5455V89H138.761V83.4545C138.761 81.2273 137.574 80.1591 135.807 80.1591C134.489 80.1591 133.67 80.75 133.261 81.6364H133.148V80.2727H131.852V89H133.193V83.75Z" fill="#002D44"/>
<path d="M144.757 89.1818C147.121 89.1818 148.712 87.3864 148.712 84.6818C148.712 81.9545 147.121 80.1591 144.757 80.1591C142.393 80.1591 140.802 81.9545 140.802 84.6818C140.802 87.3864 142.393 89.1818 144.757 89.1818ZM144.757 87.9773C142.962 87.9773 142.143 86.4318 142.143 84.6818C142.143 82.9318 142.962 81.3636 144.757 81.3636C146.552 81.3636 147.371 82.9318 147.371 84.6818C147.371 86.4318 146.552 87.9773 144.757 87.9773Z" fill="#002D44"/>
<defs>
<linearGradient id="paint0_linear" x1="157.631" y1="210.961" x2="157.631" y2="322.282" gradientUnits="userSpaceOnUse">
<stop stop-color="#0069AA"/>
<stop offset="1" stop-color="#3BA6D7"/>
</linearGradient>
</defs>
</svg>
