<svg width="885" height="432" viewBox="0 0 885 432" fill="none" xmlns="http://www.w3.org/2000/svg">
<path d="M821.888 90.7457H656.47C641.404 90.7457 629.182 78.4913 629.182 63.3846C629.182 28.4174 600.84 0 565.965 0H272.217C237.342 0 209 28.4174 209 63.3846V91.4851C209 126.452 237.342 154.87 272.217 154.87H343.336C358.403 154.87 370.625 167.124 370.625 182.231V245.615C370.625 280.583 398.967 309 433.842 309H565.86C600.734 309 629.077 280.583 629.077 245.615H821.783C856.657 245.615 885 217.198 885 182.231V154.13C885.105 119.163 856.763 90.7457 821.888 90.7457Z" fill="#E5F0F7"/>
<path opacity="0.3" d="M668.505 432H42.4951C19.0277 432 0 415.454 0 395.048V392.952C0 372.546 19.0277 356 42.4951 356H668.505C691.972 356 711 372.546 711 392.952V395.048C711 415.454 691.972 432 668.505 432Z" fill="#7AC142"/>
<path d="M282.654 57.75C271.669 57.75 262.66 48.8299 262.66 37.7784V25.1482C262.66 14.1757 271.59 5.17664 282.654 5.17664C293.638 5.17664 302.647 14.0967 302.647 25.1482V37.7784C302.647 48.8299 293.717 57.75 282.654 57.75Z" fill="#FFDAB6"/>
<rect x="349" y="66" width="84" height="330" rx="10" fill="url(#paint0_linear)"/>
<rect x="455" y="252" width="84" height="144" rx="10" fill="url(#paint1_linear)"/>
<rect x="566" y="311" width="84" height="85" rx="10" fill="url(#paint2_linear)"/>
<path d="M274.277 2.65048C274.04 2.72942 273.882 2.72942 273.645 2.80836C269.615 3.91351 265.979 8.09728 263.609 11.3338C261.159 14.5703 259.183 18.2804 258.63 22.2274C258.077 26.0954 258.788 29.9634 258.709 33.8314C258.63 37.6995 257.445 41.9622 254.205 44.0935C256.101 46.3828 257.998 48.672 259.894 50.9612C261.554 52.9347 263.609 55.066 266.137 54.8292C269.378 54.5135 270.879 50.4087 270.563 47.1721C270.247 43.9356 268.824 40.6991 269.378 37.4626C270.247 32.4105 275.463 29.4898 279.256 26.0165C285.183 20.4907 289.608 10.7812 288.818 2.65048C284.471 1.62428 278.782 1.54534 274.277 2.65048Z" fill="#FF6A52"/>
<path d="M302.647 12.2021C305.097 18.2804 303.596 25.4639 306.124 31.5422C307.547 34.9366 310.155 37.9363 310.471 41.5675C310.787 45.1198 308.653 48.5931 305.887 50.8034C303.121 53.0137 299.644 54.3556 296.246 55.5397C294.745 47.409 294.666 38.9625 295.93 30.7528C296.799 25.1481 298.538 19.5435 294.428 14.7282C292.848 12.8336 290.872 11.2548 289.766 9.04453C288.897 7.3868 287.869 3.28197 290.003 2.17682C291.426 1.46637 294.112 3.12409 295.219 3.91348C298.064 5.80802 301.383 9.12347 302.647 12.2021Z" fill="#FF6A52"/>
<path d="M338.446 122.085H350.537C350.537 122.085 347.06 140.399 348.877 144.03C349.43 145.215 349.668 146.556 349.668 147.898C349.668 150.819 347.297 153.266 344.294 153.266C339.631 153.266 335.838 149.635 335.522 144.978C335.285 140.636 335.127 135.663 335.522 133.216C336.47 128.164 338.446 122.085 338.446 122.085Z" fill="#FFDAB6"/>
<path d="M248.357 176.869C248.357 176.869 238.795 190.604 241.877 194.709C244.959 198.814 252.861 209.945 256.259 206.55C259.657 203.156 250.648 191.315 250.648 191.315C250.648 191.315 262.66 189.42 258.946 178.843C258.314 177.106 256.101 171.264 256.101 171.264L248.357 176.869Z" fill="#FFDAB6"/>
<path d="M322.008 190.92L319.401 397.899C319.322 403.424 314.817 407.924 309.206 407.924C303.833 407.924 299.407 403.74 299.091 398.372L289.213 237.968C289.213 237.415 288.66 236.942 288.106 236.942C287.474 236.942 287 237.415 287 238.047L284.787 398.451C284.708 403.977 280.204 408.477 274.593 408.477H273.566C268.192 408.477 263.767 404.293 263.45 398.925L251.755 193.367L322.008 190.92Z" fill="url(#paint3_linear)"/>
<path d="M352.592 61.697L315.45 61.5391H271.59C262.028 61.5391 253.019 66.3544 247.724 74.3272L220.619 114.902C216.983 121.138 217.142 128.953 221.093 135.031L248.041 176.948L252.387 173.869L251.834 191.868C251.676 196.762 255.627 200.867 260.527 200.867H313.474C318.452 200.867 322.404 196.683 322.167 191.71L314.817 93.4305C314.738 92.0885 315.608 90.8255 316.872 90.5097L339.394 84.3525C340.501 84.0367 341.607 84.8261 341.607 86.0102L338.525 122.164L350.616 122.085L361.917 71.2486C362.549 65.7228 357.965 61.0654 352.592 61.697ZM251.755 193.367C250.885 192.104 250.332 191.315 250.332 191.315C250.332 191.315 250.965 191.236 251.834 190.92L251.755 193.367ZM252.703 163.686C247.645 150.898 241.086 134.637 238.32 127.769C237.451 125.717 237.688 123.348 238.874 121.454L254.679 105.903L252.703 163.686Z" fill="url(#paint4_linear)"/>
<path d="M474.841 136.909H476.852V129.989H477.023C477.466 130.705 478.318 132.273 480.841 132.273C484.114 132.273 486.398 129.648 486.398 125.489C486.398 121.364 484.114 118.739 480.807 118.739C478.25 118.739 477.466 120.307 477.023 120.989H476.784V118.909H474.841V136.909ZM476.818 125.455C476.818 122.523 478.114 120.545 480.568 120.545C483.125 120.545 484.386 122.693 484.386 125.455C484.386 128.25 483.091 130.466 480.568 130.466C478.148 130.466 476.818 128.42 476.818 125.455ZM494.955 132.273C497.614 132.273 499.557 130.943 500.17 128.966L498.227 128.42C497.716 129.784 496.531 130.466 494.955 130.466C492.594 130.466 490.966 128.94 490.872 126.136H500.375V125.284C500.375 120.409 497.477 118.739 494.75 118.739C491.205 118.739 488.852 121.534 488.852 125.557C488.852 129.58 491.17 132.273 494.955 132.273ZM490.872 124.398C491.009 122.361 492.449 120.545 494.75 120.545C496.932 120.545 498.33 122.182 498.33 124.398H490.872ZM508.753 132.273C512.298 132.273 514.685 129.58 514.685 125.523C514.685 121.432 512.298 118.739 508.753 118.739C505.207 118.739 502.821 121.432 502.821 125.523C502.821 129.58 505.207 132.273 508.753 132.273ZM508.753 130.466C506.06 130.466 504.832 128.148 504.832 125.523C504.832 122.898 506.06 120.545 508.753 120.545C511.446 120.545 512.673 122.898 512.673 125.523C512.673 128.148 511.446 130.466 508.753 130.466ZM517.755 136.909H519.766V129.989H519.937C520.38 130.705 521.232 132.273 523.755 132.273C527.028 132.273 529.312 129.648 529.312 125.489C529.312 121.364 527.028 118.739 523.721 118.739C521.164 118.739 520.38 120.307 519.937 120.989H519.698V118.909H517.755V136.909ZM519.732 125.455C519.732 122.523 521.028 120.545 523.482 120.545C526.039 120.545 527.3 122.693 527.3 125.455C527.3 128.25 526.005 130.466 523.482 130.466C521.062 130.466 519.732 128.42 519.732 125.455ZM534.391 114.545H532.38V132H534.391V114.545ZM543.564 132.273C546.223 132.273 548.166 130.943 548.78 128.966L546.837 128.42C546.325 129.784 545.141 130.466 543.564 130.466C541.203 130.466 539.575 128.94 539.482 126.136H548.984V125.284C548.984 120.409 546.087 118.739 543.359 118.739C539.814 118.739 537.462 121.534 537.462 125.557C537.462 129.58 539.78 132.273 543.564 132.273ZM539.482 124.398C539.618 122.361 541.058 120.545 543.359 120.545C545.541 120.545 546.939 122.182 546.939 124.398H539.482ZM562.646 132.307C564.93 132.307 566.124 131.08 566.533 130.227H566.635V132H568.646V123.375C568.646 119.216 565.476 118.739 563.805 118.739C561.828 118.739 559.578 119.42 558.555 121.807L560.464 122.489C560.908 121.534 561.956 120.511 563.874 120.511C565.723 120.511 566.635 121.491 566.635 123.17V123.239C566.635 124.21 565.646 124.125 563.26 124.432C560.831 124.747 558.18 125.284 558.18 128.284C558.18 130.841 560.158 132.307 562.646 132.307ZM562.953 130.5C561.351 130.5 560.192 129.784 560.192 128.386C560.192 126.852 561.589 126.375 563.158 126.17C564.01 126.068 566.294 125.83 566.635 125.42V127.261C566.635 128.898 565.339 130.5 562.953 130.5ZM577.602 137.182C580.738 137.182 583.261 135.75 583.261 132.375V118.909H581.317V120.989H581.113C580.67 120.307 579.852 118.739 577.295 118.739C573.988 118.739 571.704 121.364 571.704 125.386C571.704 129.477 574.09 131.795 577.261 131.795C579.817 131.795 580.636 130.295 581.079 129.58H581.249V132.239C581.249 134.42 579.715 135.409 577.602 135.409C575.224 135.409 574.388 134.156 573.852 133.432L572.249 134.557C573.067 135.929 574.678 137.182 577.602 137.182ZM577.533 129.989C575.011 129.989 573.715 128.08 573.715 125.352C573.715 122.693 574.977 120.545 577.533 120.545C579.988 120.545 581.283 122.523 581.283 125.352C581.283 128.25 579.954 129.989 577.533 129.989ZM592.431 132.273C595.09 132.273 597.033 130.943 597.647 128.966L595.704 128.42C595.192 129.784 594.008 130.466 592.431 130.466C590.07 130.466 588.442 128.94 588.349 126.136H597.852V125.284C597.852 120.409 594.954 118.739 592.227 118.739C588.681 118.739 586.329 121.534 586.329 125.557C586.329 129.58 588.647 132.273 592.431 132.273ZM588.349 124.398C588.485 122.361 589.925 120.545 592.227 120.545C594.408 120.545 595.806 122.182 595.806 124.398H588.349ZM610.184 121.841C609.553 119.983 608.138 118.739 605.548 118.739C602.786 118.739 600.741 120.307 600.741 122.523C600.741 124.33 601.815 125.54 604.218 126.102L606.4 126.614C607.721 126.92 608.343 127.551 608.343 128.455C608.343 129.58 607.15 130.5 605.275 130.5C603.63 130.5 602.599 129.793 602.241 128.386L600.332 128.864C600.8 131.088 602.633 132.273 605.309 132.273C608.352 132.273 610.423 130.611 610.423 128.352C610.423 126.528 609.281 125.378 606.945 124.807L605.002 124.33C603.451 123.946 602.752 123.426 602.752 122.42C602.752 121.295 603.945 120.477 605.548 120.477C607.303 120.477 608.028 121.449 608.377 122.352L610.184 121.841ZM482.009 146.545H478.54L474.219 149.281V152.554L478.216 150.048H478.318V164H482.009V146.545ZM486.157 164H498.6V160.983H491.271V160.864L493.819 158.366C497.407 155.094 498.37 153.457 498.37 151.472C498.37 148.446 495.898 146.307 492.157 146.307C488.492 146.307 485.978 148.497 485.987 151.923H489.489C489.481 150.253 490.538 149.23 492.131 149.23C493.665 149.23 494.808 150.185 494.808 151.719C494.808 153.108 493.955 154.062 492.37 155.588L486.157 161.341V164ZM510.596 164.247C512.531 164.247 513.783 163.403 514.423 162.185H514.525V164H517.968V155.17C517.968 152.051 515.326 150.739 512.411 150.739C509.275 150.739 507.212 152.239 506.71 154.625L510.067 154.898C510.315 154.028 511.09 153.389 512.394 153.389C513.63 153.389 514.337 154.011 514.337 155.085V155.136C514.337 155.98 513.442 156.091 511.167 156.312C508.576 156.551 506.249 157.42 506.249 160.344C506.249 162.935 508.099 164.247 510.596 164.247ZM511.636 161.741C510.519 161.741 509.718 161.222 509.718 160.224C509.718 159.202 510.562 158.699 511.84 158.52C512.633 158.409 513.928 158.222 514.363 157.932V159.321C514.363 160.693 513.229 161.741 511.636 161.741ZM524.415 156.432C524.424 154.744 525.43 153.756 526.896 153.756C528.353 153.756 529.231 154.71 529.222 156.312V164H532.853V155.665C532.853 152.614 531.063 150.739 528.336 150.739C526.393 150.739 524.987 151.693 524.398 153.219H524.245V150.909H520.785V164H524.415V156.432ZM540.538 164.213C542.652 164.213 543.751 162.994 544.254 161.903H544.408V164H547.987V146.545H544.365V153.108H544.254C543.768 152.043 542.72 150.739 540.53 150.739C537.658 150.739 535.229 152.972 535.229 157.472C535.229 161.852 537.555 164.213 540.538 164.213ZM541.689 161.324C539.908 161.324 538.936 159.739 538.936 157.455C538.936 155.188 539.891 153.628 541.689 153.628C543.453 153.628 544.442 155.119 544.442 157.455C544.442 159.79 543.436 161.324 541.689 161.324ZM562.442 164.256C566.413 164.256 568.885 161.537 568.885 157.506C568.885 153.449 566.413 150.739 562.442 150.739C558.47 150.739 555.999 153.449 555.999 157.506C555.999 161.537 558.47 164.256 562.442 164.256ZM562.459 161.443C560.626 161.443 559.689 159.764 559.689 157.48C559.689 155.196 560.626 153.509 562.459 153.509C564.257 153.509 565.195 155.196 565.195 157.48C565.195 159.764 564.257 161.443 562.459 161.443ZM574.876 146.545H571.246V164H574.876V146.545ZM582.609 164.213C584.722 164.213 585.822 162.994 586.325 161.903H586.478V164H590.058V146.545H586.435V153.108H586.325C585.839 152.043 584.79 150.739 582.6 150.739C579.728 150.739 577.299 152.972 577.299 157.472C577.299 161.852 579.626 164.213 582.609 164.213ZM583.759 161.324C581.978 161.324 581.006 159.739 581.006 157.455C581.006 155.188 581.961 153.628 583.759 153.628C585.523 153.628 586.512 155.119 586.512 157.455C586.512 159.79 585.506 161.324 583.759 161.324ZM599.009 164.256C602.247 164.256 604.429 162.679 604.94 160.25L601.582 160.028C601.216 161.026 600.278 161.545 599.068 161.545C597.253 161.545 596.102 160.344 596.102 158.392V158.384H605.017V157.386C605.017 152.938 602.324 150.739 598.864 150.739C595.011 150.739 592.514 153.474 592.514 157.514C592.514 161.665 594.977 164.256 599.009 164.256ZM596.102 156.134C596.179 154.642 597.312 153.449 598.923 153.449C600.5 153.449 601.591 154.574 601.599 156.134H596.102ZM607.386 164H611.017V156.594C611.017 154.983 612.193 153.875 613.795 153.875C614.298 153.875 614.989 153.96 615.33 154.071V150.849C615.006 150.773 614.554 150.722 614.188 150.722C612.722 150.722 611.52 151.574 611.043 153.193H610.906V150.909H607.386V164ZM478.693 196.307C480.977 196.307 482.17 195.08 482.58 194.227H482.682V196H484.693V187.375C484.693 183.216 481.523 182.739 479.852 182.739C477.875 182.739 475.625 183.42 474.602 185.807L476.511 186.489C476.955 185.534 478.003 184.511 479.92 184.511C481.77 184.511 482.682 185.491 482.682 187.17V187.239C482.682 188.21 481.693 188.125 479.307 188.432C476.878 188.747 474.227 189.284 474.227 192.284C474.227 194.841 476.205 196.307 478.693 196.307ZM479 194.5C477.398 194.5 476.239 193.784 476.239 192.386C476.239 190.852 477.636 190.375 479.205 190.17C480.057 190.068 482.341 189.83 482.682 189.42V191.261C482.682 192.898 481.386 194.5 479 194.5ZM488.364 196H490.376V187.716C490.376 185.943 491.773 184.648 493.683 184.648C494.219 184.648 494.773 184.75 494.91 184.784V182.739C494.68 182.722 494.151 182.705 493.853 182.705C492.285 182.705 490.921 183.591 490.444 184.886H490.308V182.909H488.364V196ZM502.384 196.273C505.043 196.273 506.987 194.943 507.6 192.966L505.657 192.42C505.146 193.784 503.961 194.466 502.384 194.466C500.023 194.466 498.396 192.94 498.302 190.136H507.805V189.284C507.805 184.409 504.907 182.739 502.18 182.739C498.634 182.739 496.282 185.534 496.282 189.557C496.282 193.58 498.6 196.273 502.384 196.273ZM498.302 188.398C498.438 186.361 499.879 184.545 502.18 184.545C504.362 184.545 505.759 186.182 505.759 188.398H498.302ZM517.614 200.909H519.626V193.989H519.796C520.239 194.705 521.092 196.273 523.614 196.273C526.887 196.273 529.171 193.648 529.171 189.489C529.171 185.364 526.887 182.739 523.58 182.739C521.023 182.739 520.239 184.307 519.796 184.989H519.558V182.909H517.614V200.909ZM519.592 189.455C519.592 186.523 520.887 184.545 523.342 184.545C525.898 184.545 527.16 186.693 527.16 189.455C527.16 192.25 525.864 194.466 523.342 194.466C520.921 194.466 519.592 192.42 519.592 189.455ZM536.092 196.307C538.376 196.307 539.569 195.08 539.978 194.227H540.08V196H542.092V187.375C542.092 183.216 538.921 182.739 537.251 182.739C535.273 182.739 533.023 183.42 532.001 185.807L533.91 186.489C534.353 185.534 535.401 184.511 537.319 184.511C539.168 184.511 540.08 185.491 540.08 187.17V187.239C540.08 188.21 539.092 188.125 536.705 188.432C534.276 188.747 531.626 189.284 531.626 192.284C531.626 194.841 533.603 196.307 536.092 196.307ZM536.398 194.5C534.796 194.5 533.637 193.784 533.637 192.386C533.637 190.852 535.035 190.375 536.603 190.17C537.455 190.068 539.739 189.83 540.08 189.42V191.261C540.08 192.898 538.785 194.5 536.398 194.5ZM545.763 196H547.774V187.716C547.774 185.943 549.172 184.648 551.081 184.648C551.618 184.648 552.172 184.75 552.308 184.784V182.739C552.078 182.722 551.55 182.705 551.251 182.705C549.683 182.705 548.32 183.591 547.842 184.886H547.706V182.909H545.763V196ZM561.206 182.909H558.411V179.773H556.399V182.909H554.422V184.614H556.399V192.795C556.399 195.08 558.24 196.17 559.945 196.17C560.695 196.17 561.172 196.034 561.445 195.932L561.036 194.125C560.865 194.159 560.592 194.227 560.149 194.227C559.263 194.227 558.411 193.955 558.411 192.25V184.614H561.206V182.909ZM564.232 196H566.243V182.909H564.232V196ZM565.254 180.727C566.038 180.727 566.686 180.114 566.686 179.364C566.686 178.614 566.038 178 565.254 178C564.47 178 563.822 178.614 563.822 179.364C563.822 180.114 564.47 180.727 565.254 180.727ZM575.245 196.273C578.143 196.273 580.052 194.5 580.393 192.182H578.381C578.006 193.614 576.813 194.466 575.245 194.466C572.859 194.466 571.325 192.489 571.325 189.455C571.325 186.489 572.893 184.545 575.245 184.545C577.018 184.545 578.075 185.636 578.381 186.83H580.393C580.052 184.375 577.972 182.739 575.211 182.739C571.665 182.739 569.313 185.534 569.313 189.523C569.313 193.443 571.563 196.273 575.245 196.273ZM583.333 196H585.344V182.909H583.333V196ZM584.356 180.727C585.14 180.727 585.788 180.114 585.788 179.364C585.788 178.614 585.14 178 584.356 178C583.572 178 582.924 178.614 582.924 179.364C582.924 180.114 583.572 180.727 584.356 180.727ZM589.028 200.909H591.04V193.989H591.21C591.653 194.705 592.506 196.273 595.028 196.273C598.301 196.273 600.585 193.648 600.585 189.489C600.585 185.364 598.301 182.739 594.994 182.739C592.438 182.739 591.653 184.307 591.21 184.989H590.972V182.909H589.028V200.909ZM591.006 189.455C591.006 186.523 592.301 184.545 594.756 184.545C597.312 184.545 598.574 186.693 598.574 189.455C598.574 192.25 597.278 194.466 594.756 194.466C592.335 194.466 591.006 192.42 591.006 189.455ZM607.506 196.307C609.79 196.307 610.983 195.08 611.392 194.227H611.494V196H613.506V187.375C613.506 183.216 610.335 182.739 608.665 182.739C606.688 182.739 604.438 183.42 603.415 185.807L605.324 186.489C605.767 185.534 606.815 184.511 608.733 184.511C610.582 184.511 611.494 185.491 611.494 187.17V187.239C611.494 188.21 610.506 188.125 608.119 188.432C605.69 188.747 603.04 189.284 603.04 192.284C603.04 194.841 605.017 196.307 607.506 196.307ZM607.812 194.5C606.21 194.5 605.051 193.784 605.051 192.386C605.051 190.852 606.449 190.375 608.017 190.17C608.869 190.068 611.153 189.83 611.494 189.42V191.261C611.494 192.898 610.199 194.5 607.812 194.5ZM622.87 182.909H620.075V179.773H618.063V182.909H616.086V184.614H618.063V192.795C618.063 195.08 619.904 196.17 621.609 196.17C622.359 196.17 622.836 196.034 623.109 195.932L622.7 194.125C622.529 194.159 622.256 194.227 621.813 194.227C620.927 194.227 620.075 193.955 620.075 192.25V184.614H622.87V182.909ZM625.896 196H627.907V182.909H625.896V196ZM626.918 180.727C627.702 180.727 628.35 180.114 628.35 179.364C628.35 178.614 627.702 178 626.918 178C626.134 178 625.487 178.614 625.487 179.364C625.487 180.114 626.134 180.727 626.918 180.727ZM633.602 188.125C633.602 185.841 635.017 184.545 636.943 184.545C638.81 184.545 639.943 185.764 639.943 187.818V196H641.955V187.682C641.955 184.341 640.173 182.739 637.523 182.739C635.545 182.739 634.318 183.625 633.705 184.955H633.534V182.909H631.591V196H633.602V188.125ZM650.914 201.182C654.05 201.182 656.573 199.75 656.573 196.375V182.909H654.63V184.989H654.425C653.982 184.307 653.164 182.739 650.607 182.739C647.3 182.739 645.016 185.364 645.016 189.386C645.016 193.477 647.403 195.795 650.573 195.795C653.13 195.795 653.948 194.295 654.391 193.58H654.562V196.239C654.562 198.42 653.028 199.409 650.914 199.409C648.536 199.409 647.701 198.156 647.164 197.432L645.562 198.557C646.38 199.929 647.991 201.182 650.914 201.182ZM650.846 193.989C648.323 193.989 647.028 192.08 647.028 189.352C647.028 186.693 648.289 184.545 650.846 184.545C653.3 184.545 654.596 186.523 654.596 189.352C654.596 192.25 653.266 193.989 650.846 193.989ZM474.841 228H476.852V214.909H474.841V228ZM475.864 212.727C476.648 212.727 477.295 212.114 477.295 211.364C477.295 210.614 476.648 210 475.864 210C475.08 210 474.432 210.614 474.432 211.364C474.432 212.114 475.08 212.727 475.864 212.727ZM482.548 220.125C482.548 217.841 483.962 216.545 485.888 216.545C487.755 216.545 488.888 217.764 488.888 219.818V228H490.9V219.682C490.9 216.341 489.119 214.739 486.468 214.739C484.491 214.739 483.263 215.625 482.65 216.955H482.479V214.909H480.536V228H482.548V220.125ZM507.018 214.909H504.223V211.773H502.212V214.909H500.234V216.614H502.212V224.795C502.212 227.08 504.053 228.17 505.757 228.17C506.507 228.17 506.984 228.034 507.257 227.932L506.848 226.125C506.678 226.159 506.405 226.227 505.962 226.227C505.075 226.227 504.223 225.955 504.223 224.25V216.614H507.018V214.909ZM512.337 220.125C512.337 217.841 513.794 216.545 515.78 216.545C517.672 216.545 518.814 217.739 518.814 219.818V228H520.825V219.682C520.825 216.315 519.036 214.739 516.359 214.739C514.297 214.739 513.121 215.599 512.507 216.955H512.337V210.545H510.325V228H512.337V220.125ZM529.994 228.273C532.653 228.273 534.596 226.943 535.21 224.966L533.266 224.42C532.755 225.784 531.57 226.466 529.994 226.466C527.633 226.466 526.005 224.94 525.911 222.136H535.414V221.284C535.414 216.409 532.516 214.739 529.789 214.739C526.244 214.739 523.891 217.534 523.891 221.557C523.891 225.58 526.21 228.273 529.994 228.273ZM525.911 220.398C526.048 218.361 527.488 216.545 529.789 216.545C531.971 216.545 533.369 218.182 533.369 220.398H525.911ZM545.496 228H547.61V221.625H551.428C555.494 221.625 557.326 219.153 557.326 216.068C557.326 212.983 555.494 210.545 551.394 210.545H545.496V228ZM547.61 219.75V212.42H551.326C554.164 212.42 555.246 213.972 555.246 216.068C555.246 218.165 554.164 219.75 551.36 219.75H547.61ZM559.665 228L561.421 223.057H568.478L570.234 228H572.45L566.04 210.545H563.859L557.45 228H559.665ZM562.086 221.182L564.881 213.307H565.018L567.813 221.182H562.086ZM572.175 212.42H577.663V228H579.777V212.42H585.266V210.545H572.175V212.42ZM588.528 228H590.641V220.193H599.948V228H602.062V210.545H599.948V218.318H590.641V210.545H588.528V228ZM622.589 214.909H624.634C624.54 212.276 622.112 210.307 618.737 210.307C615.396 210.307 612.771 212.25 612.771 215.182C612.771 217.534 614.475 218.932 617.202 219.716L619.35 220.33C621.191 220.841 622.827 221.489 622.827 223.227C622.827 225.136 620.987 226.398 618.566 226.398C616.487 226.398 614.646 225.477 614.475 223.5H612.293C612.498 226.364 614.816 228.307 618.566 228.307C622.589 228.307 624.873 226.091 624.873 223.261C624.873 219.989 621.771 218.932 619.964 218.455L618.191 217.977C616.896 217.636 614.816 216.955 614.816 215.08C614.816 213.409 616.35 212.182 618.668 212.182C620.782 212.182 622.384 213.188 622.589 214.909ZM633.768 214.909H630.973V211.773H628.962V214.909H626.984V216.614H628.962V224.795C628.962 227.08 630.803 228.17 632.507 228.17C633.257 228.17 633.734 228.034 634.007 227.932L633.598 226.125C633.428 226.159 633.155 226.227 632.712 226.227C631.825 226.227 630.973 225.955 630.973 224.25V216.614H633.768V214.909ZM645.044 222.648C645.044 225.102 643.169 226.227 641.669 226.227C639.999 226.227 638.805 225 638.805 223.091V214.909H636.794V223.227C636.794 226.568 638.567 228.17 641.021 228.17C642.999 228.17 644.294 227.114 644.908 225.784H645.044V228H647.055V214.909H645.044V222.648ZM655.683 228.273C658.205 228.273 659.058 226.705 659.501 225.989H659.739V228H661.683V210.545H659.671V216.989H659.501C659.058 216.307 658.273 214.739 655.717 214.739C652.41 214.739 650.126 217.364 650.126 221.489C650.126 225.648 652.41 228.273 655.683 228.273ZM655.955 226.466C653.433 226.466 652.137 224.25 652.137 221.455C652.137 218.693 653.398 216.545 655.955 216.545C658.41 216.545 659.705 218.523 659.705 221.455C659.705 224.42 658.376 226.466 655.955 226.466ZM666.941 232.909C668.756 232.909 670.035 231.946 670.793 229.909L676.367 214.943L674.168 214.909L670.555 225.341H670.418L666.805 214.909H664.623L669.464 228.068L669.089 229.091C668.356 231.085 667.452 231.273 665.987 230.898L665.475 232.67C665.68 232.773 666.259 232.909 666.941 232.909ZM679.674 228.136C680.518 228.136 681.208 227.446 681.208 226.602C681.208 225.759 680.518 225.068 679.674 225.068C678.83 225.068 678.14 225.759 678.14 226.602C678.14 227.446 678.83 228.136 679.674 228.136Z" fill="#00559B"/>
<path d="M470.63 94.6534H482.499V99H487.497V94.6534H490.564V90.4638H487.497V74.2727H480.953L470.63 90.5362V94.6534ZM482.595 90.4638H475.894V90.2706L482.402 79.9716H482.595V90.4638ZM502.994 73.9347C497.464 73.9105 493.733 77.5327 493.757 82.5071C493.77 87.1193 496.969 90.4638 501.352 90.4638C504.069 90.4638 506.483 89.1477 507.582 86.9744H507.751C507.739 91.8764 506.037 94.8587 502.813 94.8587C500.917 94.8587 499.553 93.8203 499.154 92.0213H493.999C494.482 96.1868 497.863 99.3381 502.813 99.3381C508.934 99.3381 512.882 94.3878 512.87 85.9964C512.858 77.0376 508.077 73.9588 502.994 73.9347ZM503.03 78.0398C505.433 78.0398 507.208 79.9957 507.232 82.3501C507.244 84.7166 505.373 86.6726 502.982 86.6726C500.567 86.6726 498.841 84.7891 498.828 82.3622C498.804 79.9474 500.603 78.0398 503.03 78.0398ZM521.102 95.6193H516.852L516.791 96.9716C516.646 100.256 515.705 103.624 515.355 105.037H518.687C519.267 103.576 520.643 100.147 520.969 96.9474L521.102 95.6193ZM534.422 99.5433C540.64 99.5433 544.395 94.8104 544.407 86.6605C544.419 78.571 540.616 73.9347 534.422 73.9347C528.216 73.9347 524.449 78.5589 524.437 86.6605C524.413 94.7862 528.192 99.5312 534.422 99.5433ZM534.422 95.2088C531.585 95.2088 529.75 92.3594 529.762 86.6605C529.774 81.0462 531.597 78.2209 534.422 78.2209C537.235 78.2209 539.071 81.0462 539.071 86.6605C539.083 92.3594 537.248 95.2088 534.422 95.2088ZM557.83 99.5433C564.048 99.5433 567.803 94.8104 567.816 86.6605C567.828 78.571 564.024 73.9347 557.83 73.9347C551.624 73.9347 547.857 78.5589 547.845 86.6605C547.821 94.7862 551.6 99.5312 557.83 99.5433ZM557.83 95.2088C554.993 95.2088 553.158 92.3594 553.17 86.6605C553.182 81.0462 555.005 78.2209 557.83 78.2209C560.644 78.2209 562.479 81.0462 562.479 86.6605C562.491 92.3594 560.656 95.2088 557.83 95.2088ZM581.239 99.5433C587.457 99.5433 591.212 94.8104 591.224 86.6605C591.236 78.571 587.433 73.9347 581.239 73.9347C575.033 73.9347 571.266 78.5589 571.254 86.6605C571.229 94.7862 575.009 99.5312 581.239 99.5433ZM581.239 95.2088C578.401 95.2088 576.566 92.3594 576.578 86.6605C576.59 81.0462 578.413 78.2209 581.239 78.2209C584.052 78.2209 585.887 81.0462 585.887 86.6605C585.899 92.3594 584.064 95.2088 581.239 95.2088Z" fill="#00559B"/>
<path d="M448 84L458.5 77.9378L458.5 90.0622L448 84Z" fill="#7AC142"/>
<defs>
<linearGradient id="paint0_linear" x1="391" y1="66" x2="391" y2="396" gradientUnits="userSpaceOnUse">
<stop stop-color="#99D5FB"/>
<stop offset="1" stop-color="#AFDCF8"/>
</linearGradient>
<linearGradient id="paint1_linear" x1="497" y1="252" x2="497" y2="396" gradientUnits="userSpaceOnUse">
<stop stop-color="#99D5FB"/>
<stop offset="1" stop-color="#AFDCF8"/>
</linearGradient>
<linearGradient id="paint2_linear" x1="608" y1="311" x2="608" y2="396" gradientUnits="userSpaceOnUse">
<stop stop-color="#99D5FB"/>
<stop offset="1" stop-color="#AFDCF8"/>
</linearGradient>
<linearGradient id="paint3_linear" x1="286.882" y1="190.92" x2="286.882" y2="408.477" gradientUnits="userSpaceOnUse">
<stop stop-color="#0069AA"/>
<stop offset="1" stop-color="#005CAA"/>
</linearGradient>
<linearGradient id="paint4_linear" x1="282.033" y1="201.128" x2="285.527" y2="58.0121" gradientUnits="userSpaceOnUse">
<stop stop-color="#86CC48"/>
<stop offset="1" stop-color="#A3E56A"/>
</linearGradient>
</defs>
</svg>
