<svg width="1600" height="369" viewBox="0 0 1600 369" fill="none" xmlns="http://www.w3.org/2000/svg">
<g clip-path="url(#clip0)">
<path opacity="0.15" d="M1506.24 35.5563V33.1057C1506.24 20.3625 1495.89 10 1483.16 10H1346.18C1333.46 10 1323.11 20.3625 1323.11 33.1057V35.5563C1323.11 48.2994 1333.46 58.662 1346.18 58.662H1403.03C1415.76 58.662 1426.11 69.0245 1426.11 81.7676V103.683C1426.11 116.426 1415.76 126.789 1403.03 126.789H1195.08C1182.35 126.789 1172 137.151 1172 149.894C1172 162.637 1182.35 173 1195.08 173H1586.37C1599.1 173 1609.45 162.637 1609.45 149.894C1609.45 137.151 1619.8 126.789 1632.52 126.789H1676.92C1689.65 126.789 1700 116.426 1700 103.683V81.7676C1700 69.0245 1689.65 58.662 1676.92 58.662H1529.31C1516.59 58.662 1506.24 48.2994 1506.24 35.5563Z" fill="#007AB7"/>
<path opacity="0.2" d="M1367.5 255.3H660.1C660.1 205.4 619.7 165 569.8 165H0V369H447.3H549.9H1367.5H1600V255.3C1600 231.8 1581 212.8 1557.5 212.8H1410.1C1386.5 212.8 1367.5 231.8 1367.5 255.3Z" fill="#7AC142"/>
<path opacity="0.3" d="M1345.79 348.841H861.208C845.053 348.841 832 335.788 832 319.633V316.208C832 300.053 845.053 287 861.208 287H1345.79C1361.95 287 1375 300.053 1375 316.208V319.633C1375 335.788 1361.95 348.841 1345.79 348.841Z" fill="#7AC142"/>
<path d="M18.7992 252.6C13.9963 252.6 10.1382 248.742 10.1382 243.939V116.228C10.1382 111.425 13.9963 107.567 18.7992 107.567C23.6021 107.567 27.4602 111.425 27.4602 116.228V243.939C27.4602 248.663 23.6021 252.6 18.7992 252.6Z" fill="#A35B2B"/>
<path d="M27.854 145.203H18.7992C17.3032 145.203 16.0435 143.944 16.0435 142.448C16.0435 140.952 17.3032 139.692 18.7992 139.692H27.854C39.9007 139.692 49.7427 129.85 49.7427 117.803V114.732C49.7427 113.236 51.0025 111.977 52.4985 111.977C53.9945 111.977 55.2543 113.236 55.2543 114.732V117.803C55.2543 132.921 42.9714 145.203 27.854 145.203Z" fill="#A35B2B"/>
<path d="M18.7991 172.918H18.5629C3.4455 172.918 -8.8374 160.635 -8.8374 145.518V117.803C-8.8374 116.307 -7.57762 115.047 -6.08162 115.047C-4.58562 115.047 -3.32584 116.307 -3.32584 117.803V145.518C-3.32584 157.565 6.51623 167.407 18.5629 167.407H18.7991C20.2951 167.407 21.5549 168.667 21.5549 170.163C21.5549 171.659 20.3739 172.918 18.7991 172.918Z" fill="#A35B2B"/>
<path d="M83.1272 42.5781H74.0725V28.0161C74.0725 12.5835 61.6321 0 46.1997 0H0.375023C-14.9786 0 -27.4978 12.5044 -27.4978 28.0161H-38.2847C-53.5596 28.0161 -66 40.5205 -66 55.874V61.0973C-66 76.4507 -53.5596 88.955 -38.2847 88.955C-38.2847 105.021 -25.3719 118 -9.38834 118H12.5004H35.3341H59.6637C67.3799 118 73.6001 111.748 73.6001 103.992H83.1272C98.4809 103.992 111 91.4875 111 75.9758V70.5151C111 55.0825 98.5596 42.5781 83.1272 42.5781Z" fill="#7AC142"/>
<path fill-rule="evenodd" clip-rule="evenodd" d="M92.5 236C98.299 236 103 240.731 103 246.566V281.434C103 287.269 98.299 292 92.5 292C86.701 292 82 287.269 82 281.434V246.566C82 240.731 86.701 236 92.5 236Z" fill="#A35B2B"/>
<path d="M87.985 125.169C90.0238 120.944 95.9762 120.944 98.015 125.169L118.642 167.923C119.773 170.267 118.086 173 115.508 173H70.4923C67.914 173 66.2269 170.267 67.3579 167.923L87.985 125.169Z" fill="#249B29"/>
<path d="M92.5 134L127.587 200.789C128.831 203.157 127.116 206 124.444 206H60.5557C57.884 206 56.1693 203.157 57.4131 200.789L92.5 134Z" fill="#249B29"/>
<path d="M92.5 147L143.62 248.872C144.802 251.228 143.083 254 140.44 254H44.5604C41.9171 254 40.1978 251.228 41.38 248.872L92.5 147Z" fill="#249B29"/>
<path d="M1303.39 267.191C1298.78 267.191 1295.08 263.488 1295.08 258.878V136.304C1295.08 131.695 1298.78 127.992 1303.39 127.992C1308 127.992 1311.7 131.695 1311.7 136.304V258.878C1311.7 263.412 1308 267.191 1303.39 267.191Z" fill="#A35B2B"/>
<path d="M1312.08 164.114H1303.39C1301.95 164.114 1300.74 162.904 1300.74 161.469C1300.74 160.033 1301.95 158.824 1303.39 158.824H1312.08C1323.64 158.824 1333.09 149.377 1333.09 137.815V134.868C1333.09 133.432 1334.3 132.223 1335.73 132.223C1337.17 132.223 1338.38 133.432 1338.38 134.868V137.815C1338.38 152.325 1326.59 164.114 1312.08 164.114Z" fill="#A35B2B"/>
<path d="M1303.39 190.714H1303.16C1288.65 190.714 1276.86 178.925 1276.86 164.415V137.815C1276.86 136.379 1278.07 135.17 1279.51 135.17C1280.94 135.17 1282.15 136.379 1282.15 137.815V164.415C1282.15 175.978 1291.6 185.424 1303.16 185.424H1303.39C1304.82 185.424 1306.03 186.633 1306.03 188.069C1306.03 189.504 1304.9 190.714 1303.39 190.714Z" fill="#A35B2B"/>
<path d="M1365.23 65.6063H1356.53V51.7186C1356.53 37.0007 1344.58 25 1329.76 25H1285.75C1271 25 1258.98 36.9253 1258.98 51.7186H1248.62C1233.95 51.7186 1222 63.6439 1222 78.2863V83.2677C1222 97.9101 1233.95 109.835 1248.62 109.835C1248.62 125.157 1261.02 137.535 1276.37 137.535H1297.4H1319.33H1342.69C1350.1 137.535 1356.08 131.573 1356.08 124.176H1365.23C1379.98 124.176 1392 112.251 1392 97.4572V92.2494C1392 77.5316 1380.05 65.6063 1365.23 65.6063Z" fill="#7AC142"/>
<path d="M1540.49 224H1400.38C1395.74 224 1392 220.303 1392 215.713V107.596C1392 103.389 1394.19 99.5637 1397.93 97.5238L1466.12 59.1475C1468.82 57.6175 1472.18 57.6175 1474.88 59.1475L1543.07 97.5238C1546.68 99.5637 1549 103.389 1549 107.596V215.713C1549 220.303 1545.13 224 1540.49 224Z" fill="#60C3EF"/>
<path opacity="0.3" d="M1456 224V178.5C1456 169.94 1449.06 163 1440.5 163C1431.94 163 1425 169.94 1425 178.5V224H1456Z" fill="#004F7F"/>
<path opacity="0.3" d="M1510 163H1487C1484.24 163 1482 165.239 1482 168V188C1482 190.761 1484.24 193 1487 193H1510C1512.76 193 1515 190.761 1515 188V168C1515 165.239 1512.76 163 1510 163Z" fill="#004F7F"/>
<path opacity="0.3" d="M1451 119H1430C1427.24 119 1425 121.239 1425 124V140C1425 142.761 1427.24 145 1430 145H1451C1453.76 145 1456 142.761 1456 140V124C1456 121.239 1453.76 119 1451 119Z" fill="#004F7F"/>
<path opacity="0.3" d="M1510 119H1487C1484.24 119 1482 121.239 1482 124V140C1482 142.761 1484.24 145 1487 145H1510C1512.76 145 1515 142.761 1515 140V124C1515 121.239 1512.76 119 1510 119Z" fill="#004F7F"/>
<path d="M994.381 328C990.305 328 986.891 324.84 986.636 320.761L978.484 217.118C978.484 210.083 984.191 204.373 991.222 204.373H997.59C1004.62 204.373 1010.33 210.083 1010.33 217.118L1002.18 320.761C1001.87 324.84 998.507 328 994.381 328Z" fill="#EFC59E"/>
<path d="M999.005 165.746L1015.64 150.062L1020.64 154.403L1007.09 173.392C1004.96 175.645 1001.45 175.76 999.198 173.632C996.992 171.516 996.878 167.999 999.005 165.746Z" fill="#86CC48"/>
<path d="M1015.58 150.095L1018.86 144.949C1020 143.197 1022.31 142.761 1023.99 143.973C1025.59 145.162 1025.93 147.451 1024.7 149.034L1020.54 154.425L1015.58 150.095Z" fill="#EFC59E"/>
<path d="M1086.36 131.42C1079.27 131.42 1073.47 125.659 1073.47 118.522V110.365C1073.47 103.279 1079.22 97.4668 1086.36 97.4668C1093.44 97.4668 1099.25 103.228 1099.25 110.365V118.522C1099.25 125.659 1093.49 131.42 1086.36 131.42Z" fill="#DDAA7C"/>
<path d="M1094.1 174.244L1067.56 150.589C1065.01 148.346 1064.8 144.421 1067.05 141.871C1069.29 139.322 1073.21 139.119 1075.76 141.362L1102.3 165.017C1104.85 167.26 1105.05 171.185 1102.81 173.734C1100.57 176.232 1096.65 176.487 1094.1 174.244Z" fill="#FC857A"/>
<path d="M1114.17 208.758L1114.38 215.487C1114.43 217.782 1112.54 219.617 1110.3 219.515C1108.11 219.413 1106.38 217.527 1106.53 215.334L1106.99 207.84L1114.17 208.758Z" fill="#E8BB8B"/>
<path d="M1055.74 204.424L1055.38 211.154C1055.28 213.448 1053.24 215.13 1051 214.875C1048.81 214.62 1047.23 212.581 1047.53 210.389L1048.6 202.946L1055.74 204.424Z" fill="#E8BB8B"/>
<path d="M1113.97 168.329C1116.98 168.584 1119.17 171.235 1118.81 174.192L1114.68 209.215L1106.99 208.603L1108.37 173.376C1108.37 170.368 1110.96 168.074 1113.97 168.329Z" fill="#FC857A"/>
<path d="M1057.72 163.385C1060.68 163.793 1062.72 166.597 1062.21 169.553L1055.99 204.271L1048.35 203.2L1051.81 168.126C1052.07 165.118 1054.77 162.977 1057.72 163.385Z" fill="#FC857A"/>
<path d="M1105.46 202.995L1106.02 321.524C1105.97 324.685 1103.37 327.234 1100.21 327.234H1098.69C1095.63 327.234 1093.08 324.838 1092.88 321.779L1087.73 229.912C1087.73 229.555 1087.43 229.3 1087.07 229.3C1086.71 229.3 1086.41 229.606 1086.41 229.963L1084.11 321.83C1084.06 324.991 1081.47 327.54 1078.31 327.54H1076.17C1073.11 327.54 1070.56 325.144 1070.36 322.085L1067.76 204.371L1105.46 202.995Z" fill="url(#paint0_linear)"/>
<path d="M1118.25 169.604L1109.95 143.961C1107.5 139.015 1102.51 135.906 1097 135.855L1076.06 135.804C1070.15 135.804 1064.86 139.321 1062.61 144.776L1052.17 166.494C1051 169.298 1052.37 172.51 1055.18 173.631C1057.98 174.804 1061.19 173.427 1062.31 170.623L1066.89 163.18L1067.25 205.443C1067.3 207.788 1069.19 209.623 1071.53 209.623H1101.33C1103.68 209.623 1105.56 207.788 1105.61 205.443L1106.07 167.208L1108.52 174.396C1109.84 177.098 1113.16 178.219 1115.86 176.894C1118.45 175.619 1119.57 172.357 1118.25 169.604Z" fill="#FC857A"/>
<path d="M1081.16 94.7648C1080.4 94.6628 1079.63 94.6118 1078.82 94.7138C1078.2 94.8157 1077.59 94.9687 1077.19 95.3765C1076.78 95.7844 1076.52 96.4981 1076.88 97.0079C1075.3 96.9059 1073.06 97.6706 1073.36 99.6589C1073.42 99.9138 1073.52 100.22 1073.47 100.475C1073.36 100.933 1072.96 101.188 1072.6 101.494C1071.48 102.463 1071.22 104.043 1071.17 105.522C1071.17 106.082 1071.17 106.694 1071.43 107.204C1072.6 109.345 1082.64 102.973 1084.68 102.259C1088.5 100.933 1092.93 100.526 1096.75 102.208C1095.53 99.0981 1091.86 98.2314 1089.06 97.2118C1087.43 96.6 1085.85 96.1922 1084.22 95.5804C1083.2 95.2746 1082.18 94.9687 1081.16 94.7648Z" fill="#473021"/>
<path d="M1073.82 120.356C1074.03 120.458 1074.28 120.458 1074.54 120.356C1075 120.101 1075.05 119.489 1075.05 118.979C1075.05 116.277 1075.05 113.575 1075.05 110.822C1075.05 109.803 1075.91 105.673 1073.62 106.591C1072.5 107.05 1072.6 109.089 1072.55 110.058C1072.45 111.587 1072.45 113.117 1072.6 114.646C1072.7 115.869 1073.36 116.94 1073.21 118.164C1073.16 118.673 1073.06 119.234 1073.26 119.744C1073.36 120.05 1073.57 120.254 1073.82 120.356Z" fill="#473021"/>
<path d="M1096.8 98.9454C1097.67 99.5061 1098.18 100.424 1098.53 101.392C1098.53 101.953 1098.99 102.769 1099.09 103.33C1099.25 104.043 1099.35 104.757 1099.4 105.522C1099.5 106.949 1099.5 108.377 1099.5 109.804C1099.55 112.761 1099.81 115.565 1099.65 118.522C1099.65 118.93 1099.6 119.439 1099.25 119.643C1098.84 119.898 1098.23 119.592 1098.02 119.185C1097.82 118.726 1097.82 118.216 1097.87 117.706C1098.13 112.506 1096.6 107.255 1093.54 103.075C1092.78 102.004 1090.69 99.2512 1092.78 98.5375C1093.95 98.0787 1095.78 98.3336 1096.8 98.9454Z" fill="#473021"/>
<path d="M1006.1 266H982.905C980.796 266 979.057 264.408 978.952 262.353L976 217H1013L1010.05 262.353C1009.94 264.408 1008.2 266 1006.1 266Z" fill="#0069AA"/>
<path d="M994.38 137.435C987.298 137.435 981.49 131.675 981.49 124.537V116.38C981.49 109.294 987.247 103.482 994.38 103.482C1001.46 103.482 1007.27 109.243 1007.27 116.38V124.537C1007.27 131.624 1001.51 137.435 994.38 137.435Z" fill="#EFC59E"/>
<path d="M1008.29 223.693H980.013C976.956 223.693 974.408 221.144 974.408 218.086L978.484 152.372C978.484 145.337 984.19 139.627 991.221 139.627H995.043C1002.07 139.627 1007.78 145.337 1007.78 152.372L1013.89 218.086C1013.89 221.195 1011.35 223.693 1008.29 223.693Z" fill="#7AC142"/>
<path d="M1010.38 180.257L983.834 156.602C981.287 154.359 981.083 150.433 983.325 147.884C985.566 145.335 989.489 145.131 992.037 147.374L1018.58 171.029C1021.13 173.272 1021.33 177.198 1019.09 179.747C1016.85 182.296 1012.93 182.5 1010.38 180.257Z" fill="#86CC48"/>
<path d="M1009.26 172.967L1022.55 151.504L1029.13 154.716L1020.06 178.829C1018.43 181.837 1014.71 182.959 1011.7 181.327C1008.75 179.696 1007.63 175.974 1009.26 172.967Z" fill="#86CC48"/>
<path d="M1022.5 151.555L1024.54 145.132C1025.26 142.939 1027.6 141.818 1029.74 142.633C1031.78 143.449 1032.8 145.794 1031.93 147.833L1029.03 154.767L1022.5 151.555Z" fill="#EFC59E"/>
<path d="M987.292 100.418C983.064 101.504 979.376 104.659 977.508 108.797C973.083 118.521 979.032 130.21 976.672 140.658C975.934 143.813 974.509 146.761 973.624 149.864C972.788 152.968 972.591 156.588 974.312 159.278C976.033 161.967 980.114 163.054 982.277 160.726C983.408 159.485 983.752 157.726 984.047 156.019C985.768 145.571 986.751 135.02 987.046 124.417C987.095 123.072 987.145 121.676 987.784 120.538C988.669 118.986 990.439 118.366 991.914 117.538C995.552 115.521 1000.37 110.09 999.977 105.332C999.535 100.004 991.324 99.3835 987.292 100.418Z" fill="#CC473A"/>
<path d="M997 104.144C1001.19 103.351 1005.77 105.916 1007 109.787C1003.31 110.766 999.069 108.248 998.33 104.704" fill="#CC473A"/>
<path d="M1183.22 86H1077.78C1070.73 86 1065 80.2361 1065 73.1342V47.8658C1065 40.7639 1070.73 35 1077.78 35H1183.22C1190.27 35 1196 40.7639 1196 47.8658V73.1342C1196 80.2361 1190.22 86 1183.22 86Z" fill="#D3E1EA"/>
<path d="M1138 85.0507C1138 85.0507 1134.24 94.9362 1126.26 99.7015C1124.61 100.665 1122.6 99.1439 1123.07 97.3189C1123.89 94.2772 1124.72 89.8667 1124.72 85H1138V85.0507Z" fill="#D3E1EA"/>
<path d="M924.68 72H1040.32C1047.32 72 1053 66.2419 1053 59.1472V33.8528C1053 26.7581 1047.32 21 1040.32 21H924.68C917.681 21 912 26.7581 912 33.8528V59.1472C912 66.1905 917.681 72 924.68 72Z" fill="#D3E1EA"/>
<path d="M1024 72.0507C1024 72.0507 1020.24 81.9362 1012.26 86.7015C1010.61 87.6647 1008.6 86.1439 1009.07 84.3189C1009.89 81.2772 1010.72 76.8667 1010.72 72H1024V72.0507Z" fill="#D3E1EA"/>
<path d="M1028.07 134.428L1029 134L1018.87 156L1018.69 155.506C1018.25 154.277 1018.3 152.924 1018.85 151.735L1025.63 136.889C1026.12 135.803 1026.99 134.93 1028.07 134.428Z" fill="white"/>
<path fill-rule="evenodd" clip-rule="evenodd" d="M1030.24 133.423C1030.84 133.716 1031.1 134.445 1030.81 135.053L1020.44 156.557C1020.14 157.164 1019.41 157.419 1018.81 157.126C1018.2 156.834 1017.95 156.104 1018.24 155.497L1028.61 133.992C1028.9 133.385 1029.63 133.13 1030.24 133.423Z" fill="#002D44"/>
</g>
<defs>
<linearGradient id="paint0_linear" x1="1086.92" y1="202.991" x2="1086.92" y2="327.592" gradientUnits="userSpaceOnUse">
<stop stop-color="#0069AA"/>
<stop offset="1" stop-color="#3BA6D7"/>
</linearGradient>
<clipPath id="clip0">
<rect width="1602" height="369" fill="white"/>
</clipPath>
</defs>
</svg>
