<svg width="375" height="327" viewBox="0 0 375 327" fill="none" xmlns="http://www.w3.org/2000/svg">
<path opacity="0.3" d="M517.76 262H60.2404C31.9598 262 9 239.148 9 211C9 182.852 31.9598 160 60.2404 160H517.76C546.04 160 569 182.852 569 211C569 239.148 546.113 262 517.76 262Z" fill="#7AC142"/>
<path fill-rule="evenodd" clip-rule="evenodd" d="M68.287 72.7451C68.287 68.8624 65.1395 65.7148 61.2568 65.7148C57.3741 65.7148 54.2266 68.8624 54.2266 72.7451V99.2249H42.0409V85.8674C42.0409 83.279 39.9425 81.1806 37.3541 81.1806C34.7656 81.1806 32.6672 83.279 32.6672 85.8674V99.2249C32.6672 104.402 36.864 108.599 42.0409 108.599H54.2266V172.106C54.2266 175.988 57.3741 179.136 61.2568 179.136C65.1395 179.136 68.287 175.988 68.287 172.106V136.251H77.192C82.3689 136.251 86.5656 132.054 86.5656 126.877V96.6473C86.5656 94.0589 84.4672 91.9605 81.8788 91.9605C79.2903 91.9605 77.192 94.0589 77.192 96.6473V126.877H68.287V72.7451Z" fill="#5E9A2E"/>
<path fill-rule="evenodd" clip-rule="evenodd" d="M247.767 86.1567C250.405 87.2296 251.673 90.2374 250.6 92.8748C246.857 102.077 242.842 112.036 240.718 124.985C238.599 137.903 238.337 154.003 242.45 175.253C242.991 178.048 241.163 180.753 238.368 181.294C235.572 181.835 232.868 180.007 232.327 177.212C228.003 154.875 228.21 137.542 230.543 123.316C232.872 109.12 237.293 98.2224 241.049 88.9897C242.122 86.3522 245.13 85.0839 247.767 86.1567Z" fill="#BF7B43"/>
<path d="M219.997 80.547C215.406 75.1008 213.879 67.2761 213.751 60.923C213.659 56.3572 217.584 52.9932 222.068 53.8599C227.95 54.9967 235.117 57.7616 240.065 63.6308C244.928 69.4005 246.603 76.9321 246.908 83.0302C247.148 87.8357 242.942 91.3333 238.245 90.2915C231.931 88.8914 224.511 85.9018 219.997 80.547Z" fill="#7BC043"/>
<path d="M244.938 62.0159C247.442 55.3385 253.517 50.1671 258.995 46.938C262.934 44.6163 267.795 46.3943 269.233 50.7344C271.118 56.4251 272.211 64.0355 269.513 71.2314C266.86 78.3052 261.112 83.4611 255.943 86.7195C251.868 89.2882 246.753 87.3308 245.363 82.7185C243.497 76.5218 242.476 68.5812 244.938 62.0159Z" fill="#7BC043"/>
<path d="M272.381 76.4065C279.472 75.8867 286.69 79.2469 291.898 82.8746C295.639 85.48 296.058 90.6222 292.735 93.7427C288.374 97.8387 281.941 102.022 274.3 102.582C266.788 103.133 259.72 100.064 254.615 96.7293C250.594 94.1029 250.231 88.6554 253.821 85.4645C258.648 81.1733 265.409 76.9176 272.381 76.4065Z" fill="#80CE3B"/>
<path d="M224.648 83.4771C230.811 82.0636 237.524 83.6273 242.752 85.819C247.177 87.6738 248.446 92.996 245.257 96.5811C241.7 100.581 236.483 104.716 229.867 106.233C223.381 107.721 216.847 106.395 211.761 104.45C207.046 102.647 205.792 97.0057 209.233 93.3114C213.157 89.0976 218.603 84.8634 224.648 83.4771Z" fill="#80CE3B"/>
<path d="M264.28 106.508C265.445 112.723 263.613 119.368 261.213 124.504C259.182 128.851 253.813 129.905 250.359 126.575C246.505 122.86 242.583 117.481 241.333 110.81C240.107 104.269 241.694 97.7932 243.841 92.7901C245.832 88.1509 251.52 87.1243 255.073 90.7107C259.126 94.8015 263.138 100.413 264.28 106.508Z" fill="#7BC043"/>
<path d="M148.695 179C151.544 179 153.833 176.703 153.833 173.844V108.172C153.833 105.313 151.544 103.016 148.695 103.016C145.846 103.016 143.557 105.313 143.557 108.172V173.844C143.557 176.656 145.846 179 148.695 179Z" fill="#A35B2B"/>
<path d="M143.324 134.891H148.695C149.583 134.891 150.33 134.141 150.33 133.25C150.33 132.359 149.583 131.609 148.695 131.609H143.324C136.177 131.609 130.339 125.75 130.339 118.578V116.75C130.339 115.859 129.592 115.109 128.704 115.109C127.817 115.109 127.069 115.859 127.069 116.75V118.578C127.069 127.578 134.356 134.891 143.324 134.891Z" fill="#A35B2B"/>
<path d="M110.068 78.2188H115.439V69.5938C115.439 60.4532 122.819 53 131.974 53H159.158C168.266 53 175.693 60.4063 175.693 69.5938H182.092C191.153 69.5938 198.533 77.0001 198.533 86.0938V89.1876C198.533 98.2814 191.153 105.688 182.092 105.688C182.092 115.203 174.432 122.891 164.95 122.891H151.965H138.42H123.987C119.409 122.891 115.719 119.188 115.719 114.594H110.068C100.96 114.594 93.533 107.188 93.533 98.0001V94.7657C93.533 85.6251 100.96 78.2188 110.068 78.2188Z" fill="#7AC142"/>
<path d="M125.098 221H137.542V217.983H130.212V217.864L132.76 215.367C136.348 212.094 137.312 210.457 137.312 208.472C137.312 205.446 134.84 203.307 131.098 203.307C127.434 203.307 124.919 205.497 124.928 208.923H128.431C128.422 207.253 129.479 206.23 131.073 206.23C132.607 206.23 133.749 207.185 133.749 208.719C133.749 210.108 132.897 211.063 131.312 212.588L125.098 218.341V221Z" fill="#004F7F"/>
<path d="M139.576 217.932H147.954V221H151.483V217.932H153.647V214.975H151.483V203.546H146.863L139.576 215.026V217.932ZM148.022 214.975H143.292V214.838L147.886 207.568H148.022V214.975Z" fill="#004F7F"/>
<path d="M165.66 217.727C165.669 219.824 167.007 221.605 169.504 221.605C171.976 221.605 173.356 219.824 173.348 217.727V216.807C173.356 214.693 172.01 212.929 169.504 212.929C167.041 212.929 165.669 214.71 165.66 216.807V217.727ZM156.703 207.739C156.711 209.835 158.049 211.6 160.538 211.6C163.018 211.6 164.399 209.852 164.39 207.739V206.818C164.399 204.705 163.052 202.94 160.538 202.94C158.101 202.94 156.711 204.705 156.703 206.818V207.739ZM157.538 221H159.763L171.763 203.546H169.538L157.538 221ZM168.14 216.807C168.149 215.972 168.481 215.111 169.504 215.111C170.578 215.111 170.859 215.972 170.851 216.807V217.727C170.859 218.563 170.544 219.406 169.504 219.406C168.464 219.406 168.149 218.537 168.14 217.727V216.807ZM159.2 206.818C159.209 206.009 159.524 205.122 160.538 205.122C161.612 205.122 161.902 205.983 161.893 206.818V207.739C161.902 208.574 161.578 209.418 160.538 209.418C159.532 209.418 159.209 208.574 159.2 207.739V206.818Z" fill="#004F7F"/>
<path d="M118.831 231.364V243H120.149V234.159H120.263L123.899 243H125.172L128.808 234.159H128.922V243H130.24V231.364H128.558L124.604 241.023H124.467L120.513 231.364H118.831Z" fill="#004F7F"/>
<path d="M132.884 243H134.225V234.273H132.884V243ZM133.565 232.818C134.088 232.818 134.52 232.409 134.52 231.909C134.52 231.409 134.088 231 133.565 231C133.043 231 132.611 231.409 132.611 231.909C132.611 232.409 133.043 232.818 133.565 232.818Z" fill="#004F7F"/>
<path d="M139.976 243.182C141.658 243.182 142.226 242.136 142.521 241.659H142.68V243H143.976V231.364H142.635V235.659H142.521C142.226 235.205 141.703 234.159 139.999 234.159C137.794 234.159 136.271 235.909 136.271 238.659C136.271 241.432 137.794 243.182 139.976 243.182ZM140.158 241.977C138.476 241.977 137.612 240.5 137.612 238.636C137.612 236.795 138.453 235.364 140.158 235.364C141.794 235.364 142.658 236.682 142.658 238.636C142.658 240.614 141.771 241.977 140.158 241.977Z" fill="#004F7F"/>
<path d="M148.595 243H149.913L151.823 236.295H151.959L153.868 243H155.186L157.845 234.273H156.436L154.55 240.932H154.459L152.618 234.273H151.186L149.323 240.955H149.232L147.345 234.273H145.936L148.595 243Z" fill="#004F7F"/>
<path d="M162.98 243.182C164.753 243.182 166.048 242.295 166.457 240.977L165.162 240.614C164.821 241.523 164.031 241.977 162.98 241.977C161.406 241.977 160.321 240.96 160.259 239.091H166.594V238.523C166.594 235.273 164.662 234.159 162.844 234.159C160.48 234.159 158.912 236.023 158.912 238.705C158.912 241.386 160.457 243.182 162.98 243.182ZM160.259 237.932C160.35 236.574 161.31 235.364 162.844 235.364C164.298 235.364 165.23 236.455 165.23 237.932H160.259Z" fill="#004F7F"/>
<path d="M174.815 236.227C174.395 234.989 173.452 234.159 171.725 234.159C169.884 234.159 168.52 235.205 168.52 236.682C168.52 237.886 169.236 238.693 170.838 239.068L172.293 239.409C173.173 239.614 173.588 240.034 173.588 240.636C173.588 241.386 172.793 242 171.543 242C170.446 242 169.759 241.528 169.52 240.591L168.247 240.909C168.56 242.392 169.781 243.182 171.565 243.182C173.594 243.182 174.975 242.074 174.975 240.568C174.975 239.352 174.213 238.585 172.656 238.205L171.361 237.886C170.327 237.631 169.861 237.284 169.861 236.614C169.861 235.864 170.656 235.318 171.725 235.318C172.895 235.318 173.378 235.966 173.611 236.568L174.815 236.227Z" fill="#004F7F"/>
<path d="M180.788 234.273H178.925V232.182H177.584V234.273H176.266V235.409H177.584V240.864C177.584 242.386 178.811 243.114 179.948 243.114C180.448 243.114 180.766 243.023 180.948 242.955L180.675 241.75C180.561 241.773 180.379 241.818 180.084 241.818C179.493 241.818 178.925 241.636 178.925 240.5V235.409H180.788V234.273Z" fill="#004F7F"/>
<path fill-rule="evenodd" clip-rule="evenodd" d="M326.58 138.596C330.462 138.596 333.61 141.743 333.61 145.626V168.826C333.61 172.708 330.462 175.856 326.58 175.856C322.697 175.856 319.549 172.708 319.549 168.826V145.626C319.549 141.743 322.697 138.596 326.58 138.596Z" fill="#A35B2B"/>
<path fill-rule="evenodd" clip-rule="evenodd" d="M319.859 73.8824C322.782 67.8947 331.315 67.8947 334.237 73.8824L342.411 90.627C343.63 93.1244 342.565 95.9329 340.391 97.1728L348.156 111.934C349.511 114.511 348.371 117.488 346.043 118.703L358.816 144.248C360.478 147.572 358.06 151.484 354.343 151.484H299.753C296.036 151.484 293.618 147.572 295.281 144.248L308.053 118.703C305.725 117.488 304.585 114.511 305.94 111.934L313.705 97.1726C311.531 95.9326 310.466 93.1243 311.685 90.627L319.859 73.8824Z" fill="#249B29"/>
<rect x="-28" y="283" width="77" height="44" rx="22" fill="#CBE5C2"/>
<path d="M38.1336 221H50.5768V217.983H43.2472V217.864L45.7955 215.367C49.3836 212.094 50.3467 210.457 50.3467 208.472C50.3467 205.446 47.8751 203.307 44.1336 203.307C40.4688 203.307 37.9546 205.497 37.9632 208.923H41.466C41.4575 207.253 42.5143 206.23 44.108 206.23C45.6421 206.23 46.7842 207.185 46.7842 208.719C46.7842 210.108 45.9319 211.063 44.3467 212.588L38.1336 218.341V221Z" fill="#004F7F"/>
<path d="M59.7025 221.239C63.623 221.239 66.4269 219.082 66.4184 216.1C66.4269 213.926 65.0463 212.375 62.4809 212.051V211.915C64.4326 211.565 65.7792 210.185 65.7707 208.225C65.7792 205.472 63.3673 203.307 59.7536 203.307C56.1741 203.307 53.4809 205.403 53.4298 208.421H56.9667C57.0093 207.091 58.2281 206.23 59.7366 206.23C61.2281 206.23 62.2252 207.134 62.2167 208.446C62.2252 209.818 61.0576 210.747 59.3786 210.747H57.7508V213.457H59.3786C61.3559 213.457 62.5917 214.446 62.5832 215.852C62.5917 217.242 61.3985 218.196 59.711 218.196C58.0832 218.196 56.8644 217.344 56.7963 216.065H53.0803C53.14 219.117 55.8673 221.239 59.7025 221.239Z" fill="#004F7F"/>
<path d="M78.6251 217.727C78.6336 219.824 79.9717 221.605 82.4688 221.605C84.9404 221.605 86.3211 219.824 86.3126 217.727V216.807C86.3211 214.693 84.9745 212.929 82.4688 212.929C80.0058 212.929 78.6336 214.71 78.6251 216.807V217.727ZM69.6677 207.739C69.6762 209.835 71.0143 211.6 73.5029 211.6C75.983 211.6 77.3637 209.852 77.3552 207.739V206.818C77.3637 204.705 76.0171 202.94 73.5029 202.94C71.0654 202.94 69.6762 204.705 69.6677 206.818V207.739ZM70.5029 221H72.7274L84.7274 203.546H82.5029L70.5029 221ZM81.1052 216.807C81.1137 215.972 81.4461 215.111 82.4688 215.111C83.5427 215.111 83.824 215.972 83.8154 216.807V217.727C83.824 218.563 83.5086 219.406 82.4688 219.406C81.4291 219.406 81.1137 218.537 81.1052 217.727V216.807ZM72.1649 206.818C72.1734 206.009 72.4887 205.122 73.5029 205.122C74.5768 205.122 74.8666 205.983 74.858 206.818V207.739C74.8666 208.574 74.5427 209.418 73.5029 209.418C72.4972 209.418 72.1734 208.574 72.1649 207.739V206.818Z" fill="#004F7F"/>
<path d="M47.093 243H48.5475L51.1157 233.727H51.2066L53.7748 243H55.2293L58.4111 231.363H56.9793L54.5475 240.841H54.4339L51.9566 231.363H50.3657L47.8884 240.841H47.7748L45.343 231.363H43.9111L47.093 243Z" fill="#004F7F"/>
<path d="M62.8316 243.181C64.6043 243.181 65.8998 242.295 66.3089 240.977L65.0134 240.613C64.6725 241.522 63.8827 241.977 62.8316 241.977C61.2577 241.977 60.1725 240.96 60.11 239.091H66.4452V238.522C66.4452 235.272 64.5134 234.159 62.6952 234.159C60.3316 234.159 58.7634 236.022 58.7634 238.704C58.7634 241.386 60.3089 243.181 62.8316 243.181ZM60.11 237.931C60.2009 236.574 61.1611 235.363 62.6952 235.363C64.1498 235.363 65.0816 236.454 65.0816 237.931H60.11Z" fill="#004F7F"/>
<path d="M74.6668 236.227C74.2464 234.988 73.3032 234.159 71.5759 234.159C69.735 234.159 68.3714 235.204 68.3714 236.681C68.3714 237.886 69.0873 238.693 70.6895 239.068L72.1441 239.409C73.0248 239.613 73.4395 240.034 73.4395 240.636C73.4395 241.386 72.6441 242 71.3941 242C70.2975 242 69.61 241.528 69.3714 240.591L68.0986 240.909C68.4111 242.392 69.6327 243.181 71.4168 243.181C73.4452 243.181 74.8259 242.074 74.8259 240.568C74.8259 239.352 74.0645 238.585 72.5077 238.204L71.2123 237.886C70.1782 237.63 69.7123 237.284 69.7123 236.613C69.7123 235.863 70.5077 235.318 71.5759 235.318C72.7464 235.318 73.2293 235.966 73.4623 236.568L74.6668 236.227Z" fill="#004F7F"/>
<path d="M80.6398 234.272H78.7762V232.181H77.4353V234.272H76.1171V235.409H77.4353V240.863C77.4353 242.386 78.6626 243.113 79.7989 243.113C80.2989 243.113 80.6171 243.022 80.7989 242.954L80.5262 241.75C80.4126 241.772 80.2307 241.818 79.9353 241.818C79.3444 241.818 78.7762 241.636 78.7762 240.5V235.409H80.6398V234.272Z" fill="#004F7F"/>
<path d="M220.21 224.239C224.131 224.239 226.935 222.082 226.926 219.1C226.935 216.926 225.554 215.375 222.989 215.051V214.915C224.94 214.565 226.287 213.185 226.278 211.225C226.287 208.472 223.875 206.307 220.261 206.307C216.682 206.307 213.989 208.403 213.938 211.421H217.474C217.517 210.091 218.736 209.23 220.244 209.23C221.736 209.23 222.733 210.134 222.724 211.446C222.733 212.818 221.565 213.747 219.886 213.747H218.259V216.457H219.886C221.864 216.457 223.099 217.446 223.091 218.852C223.099 220.242 221.906 221.196 220.219 221.196C218.591 221.196 217.372 220.344 217.304 219.065H213.588C213.648 222.117 216.375 224.239 220.21 224.239Z" fill="#004F7F"/>
<path d="M236.09 224.239C240.028 224.239 242.857 222.134 242.866 219.304C242.857 217.122 241.178 215.341 239.082 214.992V214.872C240.906 214.497 242.21 212.921 242.218 211.003C242.21 208.301 239.619 206.307 236.09 206.307C232.553 206.307 229.962 208.301 229.971 211.003C229.962 212.912 231.249 214.497 233.107 214.872V214.992C230.977 215.341 229.315 217.122 229.323 219.304C229.315 222.134 232.153 224.239 236.09 224.239ZM236.09 221.528C234.335 221.528 233.158 220.489 233.158 219.014C233.158 217.506 234.394 216.415 236.09 216.415C237.778 216.415 239.022 217.506 239.022 219.014C239.022 220.497 237.837 221.528 236.09 221.528ZM236.09 213.73C234.616 213.73 233.568 212.767 233.568 211.386C233.568 210.023 234.599 209.085 236.09 209.085C237.573 209.085 238.613 210.031 238.613 211.386C238.613 212.767 237.556 213.73 236.09 213.73Z" fill="#004F7F"/>
<path d="M255 220.727C255.009 222.824 256.347 224.605 258.844 224.605C261.315 224.605 262.696 222.824 262.688 220.727V219.807C262.696 217.693 261.35 215.929 258.844 215.929C256.381 215.929 255.009 217.71 255 219.807V220.727ZM246.043 210.739C246.051 212.835 247.389 214.6 249.878 214.6C252.358 214.6 253.739 212.852 253.73 210.739V209.818C253.739 207.705 252.392 205.94 249.878 205.94C247.44 205.94 246.051 207.705 246.043 209.818V210.739ZM246.878 224H249.102L261.102 206.546H258.878L246.878 224ZM257.48 219.807C257.489 218.972 257.821 218.111 258.844 218.111C259.918 218.111 260.199 218.972 260.19 219.807V220.727C260.199 221.563 259.884 222.406 258.844 222.406C257.804 222.406 257.489 221.537 257.48 220.727V219.807ZM248.54 209.818C248.548 209.009 248.864 208.122 249.878 208.122C250.952 208.122 251.242 208.983 251.233 209.818V210.739C251.242 211.574 250.918 212.418 249.878 212.418C248.872 212.418 248.548 211.574 248.54 210.739V209.818Z" fill="#004F7F"/>
<path d="M224.023 237.272H225.386C225.324 235.517 223.705 234.204 221.455 234.204C219.227 234.204 217.477 235.5 217.477 237.454C217.477 239.022 218.614 239.954 220.432 240.477L221.864 240.886C223.091 241.227 224.182 241.659 224.182 242.818C224.182 244.09 222.955 244.931 221.341 244.931C219.955 244.931 218.727 244.318 218.614 243H217.159C217.296 244.909 218.841 246.204 221.341 246.204C224.023 246.204 225.546 244.727 225.546 242.84C225.546 240.659 223.477 239.954 222.273 239.636L221.091 239.318C220.227 239.09 218.841 238.636 218.841 237.386C218.841 236.272 219.864 235.454 221.409 235.454C222.818 235.454 223.886 236.125 224.023 237.272Z" fill="#004F7F"/>
<path d="M231.226 246.181C233.59 246.181 235.18 244.386 235.18 241.681C235.18 238.954 233.59 237.159 231.226 237.159C228.862 237.159 227.271 238.954 227.271 241.681C227.271 244.386 228.862 246.181 231.226 246.181ZM231.226 244.977C229.43 244.977 228.612 243.431 228.612 241.681C228.612 239.931 229.43 238.363 231.226 238.363C233.021 238.363 233.84 239.931 233.84 241.681C233.84 243.431 233.021 244.977 231.226 244.977Z" fill="#004F7F"/>
<path d="M242.727 242.431C242.727 244.068 241.477 244.818 240.477 244.818C239.364 244.818 238.568 244 238.568 242.727V237.272H237.227V242.818C237.227 245.045 238.409 246.113 240.046 246.113C241.364 246.113 242.227 245.409 242.636 244.522H242.727V246H244.068V237.272H242.727V242.431Z" fill="#004F7F"/>
<path d="M250.32 237.272H248.456V235.181H247.115V237.272H245.797V238.409H247.115V243.863C247.115 245.386 248.342 246.113 249.479 246.113C249.979 246.113 250.297 246.022 250.479 245.954L250.206 244.75C250.092 244.772 249.911 244.818 249.615 244.818C249.024 244.818 248.456 244.636 248.456 243.5V238.409H250.32V237.272Z" fill="#004F7F"/>
<path d="M253.865 240.75C253.865 239.227 254.837 238.363 256.161 238.363C257.422 238.363 258.183 239.159 258.183 240.545V246H259.524V240.454C259.524 238.21 258.331 237.159 256.547 237.159C255.172 237.159 254.388 237.733 253.979 238.636H253.865V234.363H252.524V246H253.865V240.75Z" fill="#004F7F"/>
<path d="M312.591 206.546H309.122L304.801 209.281V212.554L308.798 210.048H308.9V224H312.591V206.546Z" fill="#004F7F"/>
<path d="M323.114 224.239C327 224.239 329.642 221.707 329.634 218.179C329.642 214.838 327.307 212.435 324.162 212.435C322.628 212.435 321.307 213.074 320.694 213.935H320.591L321.043 209.563H328.671V206.546H318L317.174 215.75L320.455 216.338C320.992 215.614 322.032 215.162 323.063 215.162C324.819 215.171 326.08 216.44 326.08 218.273C326.08 220.088 324.844 221.341 323.114 221.341C321.648 221.341 320.463 220.421 320.378 219.065H316.799C316.867 222.082 319.5 224.239 323.114 224.239Z" fill="#004F7F"/>
<path d="M341.762 220.727C341.77 222.824 343.108 224.605 345.605 224.605C348.077 224.605 349.458 222.824 349.449 220.727V219.807C349.458 217.693 348.111 215.929 345.605 215.929C343.142 215.929 341.77 217.71 341.762 219.807V220.727ZM332.804 210.739C332.813 212.835 334.151 214.6 336.64 214.6C339.12 214.6 340.5 212.852 340.492 210.739V209.818C340.5 207.705 339.154 205.94 336.64 205.94C334.202 205.94 332.813 207.705 332.804 209.818V210.739ZM333.64 224H335.864L347.864 206.546H345.64L333.64 224ZM344.242 219.807C344.25 218.972 344.583 218.111 345.605 218.111C346.679 218.111 346.961 218.972 346.952 219.807V220.727C346.961 221.563 346.645 222.406 345.605 222.406C344.566 222.406 344.25 221.537 344.242 220.727V219.807ZM335.301 209.818C335.31 209.009 335.625 208.122 336.64 208.122C337.713 208.122 338.003 208.983 337.995 209.818V210.739C338.003 211.574 337.679 212.418 336.64 212.418C335.634 212.418 335.31 211.574 335.301 210.739V209.818Z" fill="#004F7F"/>
<path d="M300.113 234.363H298.727V243.522H298.613L292.249 234.363H290.886V246H292.295V236.863H292.408L298.749 246H300.113V234.363Z" fill="#004F7F"/>
<path d="M306.296 246.181C308.66 246.181 310.251 244.386 310.251 241.681C310.251 238.954 308.66 237.159 306.296 237.159C303.933 237.159 302.342 238.954 302.342 241.681C302.342 244.386 303.933 246.181 306.296 246.181ZM306.296 244.977C304.501 244.977 303.683 243.431 303.683 241.681C303.683 239.931 304.501 238.363 306.296 238.363C308.092 238.363 308.91 239.931 308.91 241.681C308.91 243.431 308.092 244.977 306.296 244.977Z" fill="#004F7F"/>
<path d="M312.298 246H313.639V240.477C313.639 239.295 314.57 238.431 315.843 238.431C316.201 238.431 316.57 238.5 316.661 238.522V237.159C316.508 237.147 316.156 237.136 315.957 237.136C314.911 237.136 314.002 237.727 313.684 238.591H313.593V237.272H312.298V246Z" fill="#004F7F"/>
<path d="M322.593 237.272H320.729V235.181H319.389V237.272H318.07V238.409H319.389V243.863C319.389 245.386 320.616 246.113 321.752 246.113C322.252 246.113 322.57 246.022 322.752 245.954L322.479 244.75C322.366 244.772 322.184 244.818 321.889 244.818C321.298 244.818 320.729 244.636 320.729 243.5V238.409H322.593V237.272Z" fill="#004F7F"/>
<path d="M326.139 240.75C326.139 239.227 327.11 238.363 328.434 238.363C329.695 238.363 330.457 239.159 330.457 240.545V246H331.798V240.454C331.798 238.21 330.604 237.159 328.82 237.159C327.445 237.159 326.661 237.733 326.252 238.636H326.139V234.363H324.798V246H326.139V240.75Z" fill="#004F7F"/>
<path d="M337.91 246.181C339.683 246.181 340.978 245.295 341.387 243.977L340.092 243.613C339.751 244.522 338.961 244.977 337.91 244.977C336.336 244.977 335.251 243.96 335.188 242.091H341.524V241.522C341.524 238.272 339.592 237.159 337.774 237.159C335.41 237.159 333.842 239.022 333.842 241.704C333.842 244.386 335.387 246.181 337.91 246.181ZM335.188 240.931C335.279 239.574 336.239 238.363 337.774 238.363C339.228 238.363 340.16 239.454 340.16 240.931H335.188Z" fill="#004F7F"/>
<path d="M346.131 246.204C347.654 246.204 348.45 245.386 348.722 244.818H348.791V246H350.131V240.25C350.131 237.477 348.018 237.159 346.904 237.159C345.586 237.159 344.086 237.613 343.404 239.204L344.677 239.659C344.972 239.022 345.671 238.341 346.95 238.341C348.183 238.341 348.791 238.994 348.791 240.113V240.159C348.791 240.806 348.131 240.75 346.541 240.954C344.921 241.164 343.154 241.522 343.154 243.522C343.154 245.227 344.472 246.204 346.131 246.204ZM346.336 245C345.268 245 344.495 244.522 344.495 243.591C344.495 242.568 345.427 242.25 346.472 242.113C347.041 242.045 348.563 241.886 348.791 241.613V242.841C348.791 243.931 347.927 245 346.336 245Z" fill="#004F7F"/>
<path d="M358.761 239.227C358.34 237.988 357.397 237.159 355.67 237.159C353.829 237.159 352.465 238.204 352.465 239.681C352.465 240.886 353.181 241.693 354.783 242.068L356.238 242.409C357.119 242.613 357.533 243.034 357.533 243.636C357.533 244.386 356.738 245 355.488 245C354.391 245 353.704 244.528 353.465 243.591L352.193 243.909C352.505 245.392 353.727 246.181 355.511 246.181C357.539 246.181 358.92 245.074 358.92 243.568C358.92 242.352 358.158 241.585 356.602 241.204L355.306 240.886C354.272 240.63 353.806 240.284 353.806 239.613C353.806 238.863 354.602 238.318 355.67 238.318C356.84 238.318 357.323 238.966 357.556 239.568L358.761 239.227Z" fill="#004F7F"/>
<path d="M364.734 237.272H362.87V235.181H361.529V237.272H360.211V238.409H361.529V243.863C361.529 245.386 362.756 246.113 363.893 246.113C364.393 246.113 364.711 246.022 364.893 245.954L364.62 244.75C364.506 244.772 364.325 244.818 364.029 244.818C363.438 244.818 362.87 244.636 362.87 243.5V238.409H364.734V237.272Z" fill="#004F7F"/>
<path d="M145.274 6.18732H149.024C148.547 2.73562 145.505 0.306641 141.559 0.306641C136.948 0.306641 133.394 3.6305 133.394 9.28959C133.394 14.8123 136.718 18.2385 141.635 18.2385C146.042 18.2385 149.186 15.4515 149.186 10.8578V8.65891H141.882V11.4373H145.632C145.581 13.6021 144.107 14.9743 141.652 14.9743C138.882 14.9743 137.135 12.9032 137.135 9.2555C137.135 5.62482 138.951 3.57085 141.618 3.57085C143.519 3.57085 144.806 4.55096 145.274 6.18732Z" fill="#002D44"/>
<path d="M157.856 18.2555C161.095 18.2555 163.277 16.6788 163.788 14.2498L160.43 14.0282C160.064 15.0254 159.126 15.5453 157.916 15.5453C156.1 15.5453 154.95 14.3436 154.95 12.3919V12.3833H163.865V11.3862C163.865 6.93732 161.172 4.73846 157.711 4.73846C153.859 4.73846 151.362 7.47425 151.362 11.514C151.362 15.6646 153.825 18.2555 157.856 18.2555ZM154.95 10.1333C155.027 8.64187 156.16 7.44869 157.771 7.44869C159.348 7.44869 160.439 8.57369 160.447 10.1333H154.95Z" fill="#002D44"/>
<path d="M172.149 18.2555C176.12 18.2555 178.592 15.5368 178.592 11.5055C178.592 7.44869 176.12 4.73846 172.149 4.73846C168.177 4.73846 165.706 7.44869 165.706 11.5055C165.706 15.5368 168.177 18.2555 172.149 18.2555ZM172.166 15.443C170.333 15.443 169.396 13.764 169.396 11.4799C169.396 9.19585 170.333 7.50835 172.166 7.50835C173.964 7.50835 174.902 9.19585 174.902 11.4799C174.902 13.764 173.964 15.443 172.166 15.443Z" fill="#002D44"/>
<path d="M186.85 23.1816C190.592 23.1816 193.251 21.4771 193.251 18.1277V4.90891H189.646V7.10778H189.51C189.024 6.04244 187.958 4.73846 185.768 4.73846C182.896 4.73846 180.467 6.97141 180.467 11.4288C180.467 15.7839 182.828 17.8123 185.777 17.8123C187.865 17.8123 189.032 16.764 189.51 15.6816H189.663V18.0765C189.663 19.8748 188.512 20.5737 186.936 20.5737C185.333 20.5737 184.524 19.8748 184.225 19.0822L180.868 19.5339C181.302 21.5964 183.322 23.1816 186.85 23.1816ZM186.927 15.0851C185.146 15.0851 184.174 13.6703 184.174 11.4118C184.174 9.18732 185.129 7.62766 186.927 7.62766C188.691 7.62766 189.68 9.11914 189.68 11.4118C189.68 13.7214 188.674 15.0851 186.927 15.0851Z" fill="#002D44"/>
<path d="M196.14 17.9998H199.771V10.5936C199.771 8.98278 200.947 7.87482 202.549 7.87482C203.052 7.87482 203.743 7.96005 204.083 8.07085V4.84925C203.76 4.77255 203.308 4.72141 202.941 4.72141C201.475 4.72141 200.274 5.57369 199.796 7.19301H199.66V4.90891H196.14V17.9998Z" fill="#002D44"/>
<path d="M209.319 18.247C211.253 18.247 212.506 17.4032 213.145 16.1845H213.247V17.9998H216.691V9.17028C216.691 6.05096 214.049 4.73846 211.134 4.73846C207.997 4.73846 205.935 6.23846 205.432 8.62482L208.79 8.89755C209.037 8.02823 209.813 7.38903 211.117 7.38903C212.353 7.38903 213.06 8.01119 213.06 9.08505V9.13619C213.06 9.97994 212.165 10.0907 209.89 10.3123C207.299 10.551 204.972 11.4203 204.972 14.3436C204.972 16.9345 206.821 18.247 209.319 18.247ZM210.358 15.7413C209.242 15.7413 208.441 15.2214 208.441 14.2243C208.441 13.2015 209.284 12.6987 210.563 12.5197C211.355 12.4089 212.651 12.2214 213.086 11.9316V13.3208C213.086 14.693 211.952 15.7413 210.358 15.7413Z" fill="#002D44"/>
<path d="M219.507 22.9089H223.138V15.9032H223.249C223.752 16.9941 224.851 18.2129 226.965 18.2129C229.948 18.2129 232.274 15.8521 232.274 11.4714C232.274 6.97141 229.846 4.73846 226.973 4.73846C224.783 4.73846 223.735 6.04244 223.249 7.10778H223.087V4.90891H219.507V22.9089ZM223.061 11.4544C223.061 9.11914 224.05 7.62766 225.814 7.62766C227.613 7.62766 228.567 9.18732 228.567 11.4544C228.567 13.7385 227.595 15.3237 225.814 15.3237C224.067 15.3237 223.061 13.7896 223.061 11.4544Z" fill="#002D44"/>
<path d="M238.326 10.4316C238.334 8.74414 239.365 7.75551 240.848 7.75551C242.323 7.75551 243.192 8.70153 243.184 10.3123V17.9998H246.814V9.66459C246.823 6.59641 245.016 4.73846 242.289 4.73846C240.303 4.73846 238.973 5.67596 238.377 7.21857H238.223V0.545277H234.695V17.9998H238.326V10.4316Z" fill="#002D44"/>
<path d="M251.444 22.9089C254.146 22.9089 255.578 21.5282 256.319 19.4146L261.407 4.92596L257.564 4.90891L254.828 14.5226H254.691L251.981 4.90891H248.163L252.859 18.3748L252.646 18.9288C252.169 20.1561 251.257 20.2157 249.978 19.8237L249.16 22.5339C249.68 22.7555 250.524 22.9089 251.444 22.9089Z" fill="#002D44"/>
</svg>
