<svg width="1047" height="404" viewBox="0 0 1047 404" fill="none" xmlns="http://www.w3.org/2000/svg">
<path opacity="0.3" d="M1079.25 403.7H294.85C246.364 403.7 207 364.336 207 315.85C207 267.364 246.364 228 294.85 228H1079.25C1127.74 228 1167.1 267.364 1167.1 315.85C1167.1 364.336 1127.86 403.7 1079.25 403.7Z" fill="#7AC142"/>
<path d="M359 197.5H393C398.523 197.5 403 193.023 403 187.5V123" stroke="#5E9A2E" stroke-width="20" stroke-linecap="round" stroke-linejoin="round"/>
<path d="M360.5 138.5H318C312.477 138.5 308 134.023 308 128.5V100" stroke="#5E9A2E" stroke-width="20" stroke-linecap="round" stroke-linejoin="round"/>
<path d="M359 284V72" stroke="#5E9A2E" stroke-width="30" stroke-linecap="round"/>
<path d="M722 292.804C704 199.804 724 150.137 740 110.804" stroke="#BF7B43" stroke-width="22" stroke-linecap="round" stroke-linejoin="round"/>
<path d="M684.894 88.6439C672.835 74.3383 670.682 52.341 671.811 37.9801C672.169 33.4275 676.048 30.1114 680.599 30.4918C693.987 31.611 714.537 36.9237 727.711 52.5509C740.783 68.0584 743.057 89.5315 742.295 103.341C742.03 108.145 737.873 111.616 733.097 111.035C718.408 109.247 696.863 102.843 684.894 88.6439Z" fill="#7BC043"/>
<path d="M738.107 49.1076C744.685 31.5654 762.817 18.8946 775.897 12.8329C780.045 10.9105 784.842 12.6714 786.737 16.8322C792.31 29.0673 797.727 49.6077 790.542 68.7702C783.411 87.7861 765.796 100.306 753.377 106.418C749.055 108.545 743.987 106.617 742.157 102.162C736.53 88.4633 731.578 66.519 738.107 49.1076Z" fill="#7BC043"/>
<path d="M796.661 79.8131C815.282 78.448 834.317 89.6239 845.256 98.9696C848.722 101.93 849.13 107.006 846.161 110.465C837.422 120.647 821.097 134.172 800.756 135.663C780.571 137.143 761.888 126.373 751.179 117.648C747.456 114.615 747.085 109.224 750.349 105.7C760.39 94.8566 778.18 81.1679 796.661 79.8131Z" fill="#80CE3B"/>
<path d="M694.816 94.8981C711.601 91.0484 730.297 97.5487 741.878 103.974C746.074 106.302 747.323 111.557 744.589 115.5C737.535 125.672 724.25 139.255 705.952 143.451C687.809 147.613 669.486 141.456 658.189 135.533C653.718 133.188 652.467 127.607 655.491 123.564C663.649 112.659 678.169 98.7162 694.816 94.8981Z" fill="#80CE3B"/>
<path d="M779.377 144.039C782.55 160.964 775.304 179.385 768.419 190.698C765.925 194.797 760.624 195.834 756.794 192.944C746.913 185.487 733.875 171.668 730.416 153.216C726.987 134.92 733.874 116.859 740.246 105.809C742.768 101.436 748.396 100.411 752.314 103.594C762.882 112.183 776.231 127.251 779.377 144.039Z" fill="#7BC043"/>
<path d="M541.1 299.799C547.2 299.799 552.1 294.899 552.1 288.799V148.699C552.1 142.599 547.2 137.699 541.1 137.699C535 137.699 530.1 142.599 530.1 148.699V288.799C530.1 294.799 535 299.799 541.1 299.799Z" fill="#A35B2B"/>
<path d="M529.6 205.7H541.1C543 205.7 544.6 204.1 544.6 202.2C544.6 200.3 543 198.7 541.1 198.7H529.6C514.3 198.7 501.8 186.2 501.8 170.9V167C501.8 165.1 500.2 163.5 498.3 163.5C496.4 163.5 494.8 165.1 494.8 167V170.9C494.8 190.1 510.4 205.7 529.6 205.7Z" fill="#A35B2B"/>
<path d="M458.4 84.7999H469.9V66.4C469.9 46.9 485.7 31 505.3 31H563.5C583 31 598.9 46.8 598.9 66.4H612.6C632 66.4 647.8 82.2 647.8 101.6V108.2C647.8 127.6 632 143.4 612.6 143.4C612.6 163.7 596.2 180.1 575.9 180.1H548.1H519.1H488.2C478.4 180.1 470.5 172.2 470.5 162.4H458.4C438.9 162.4 423 146.6 423 127V120.1C423 100.6 438.9 84.7999 458.4 84.7999Z" fill="#7AC142"/>
<path d="M899.5 227.5V277" stroke="#A35B2B" stroke-width="30" stroke-linecap="round"/>
<path d="M893.311 57.7283C896.234 51.7407 904.767 51.7407 907.689 57.7283L937.259 118.307C938.88 121.628 936.462 125.5 932.766 125.5H868.234C864.538 125.5 862.12 121.628 863.741 118.307L893.311 57.7283Z" fill="#249B29"/>
<path d="M900.5 70L949.906 163.922C951.657 167.252 949.243 171.25 945.481 171.25H855.519C851.757 171.25 849.343 167.252 851.094 163.922L900.5 70Z" fill="#249B29"/>
<path d="M900.5 89L972.382 232.764C974.044 236.088 971.627 240 967.91 240H833.09C829.373 240 826.956 236.088 828.618 232.764L900.5 89Z" fill="#249B29"/>
<rect y="269" width="165" height="96" rx="48" fill="#CBE5C2"/>
</svg>
