<svg width="1600" height="2453" viewBox="0 0 1600 2453" fill="none" xmlns="http://www.w3.org/2000/svg">
<path d="M1316.1 138.549V179.054H1087C1043 179.054 1007.3 212.839 1007.3 254.48C1007.3 299.906 968.4 336.625 920.5 336.625H641V302.366C641 276.341 618.7 255.237 591.2 255.237H416.5C372.1 255.237 336.1 221.167 336.1 179.148V102.776H392.6C422.6 102.776 446.9 79.7793 446.9 51.3881C446.9 22.9969 422.6 0 392.6 0H-0.400024V102.776V336.625V2453H1599.6V545.3V336.72V203.849V179.054V51.3881H1408.2C1357.3 51.3881 1316.1 90.3787 1316.1 138.549Z" fill="#EDF4F9"/>
<path d="M511.6 85.3628C530.046 85.3628 545 71.211 545 53.7539C545 36.2968 530.046 22.145 511.6 22.145C493.154 22.145 478.2 36.2968 478.2 53.7539C478.2 71.211 493.154 85.3628 511.6 85.3628Z" fill="#EDF4F9"/>
<path d="M910.8 296.026C932.394 296.026 949.9 279.459 949.9 259.022C949.9 238.586 932.394 222.019 910.8 222.019C889.206 222.019 871.7 238.586 871.7 259.022C871.7 279.459 889.206 296.026 910.8 296.026Z" fill="#EDF4F9"/>
</svg>
