<svg width="470" height="543" viewBox="0 0 470 543" fill="none" xmlns="http://www.w3.org/2000/svg">
<g filter="url(#filter0_d)">
<path d="M51.9999 371C26.9999 334 57.3432 309.824 97.9999 293C141.5 275 288 255 367 308C385.438 320.37 387.333 344.667 385 349" stroke="#FF6A52" stroke-width="14"/>
<path d="M384.5 348.5C357.5 342.5 305.5 347 262.5 424.5" stroke="#FF6A52" stroke-width="14"/>
<path d="M383.199 346.819C400.498 368.4 419.409 417.048 368.841 489.836" stroke="#FF6A52" stroke-width="14"/>
<circle cx="65" cy="392" r="30" fill="#FC857A"/>
<circle cx="65" cy="392" r="14" fill="#F25F47"/>
<rect x="266.84" y="403" width="21.118" height="38.2763" rx="10" transform="rotate(30.7782 266.84 403)" fill="#FC857A"/>
<rect x="369.586" y="462" width="21.118" height="38.2763" rx="10" transform="rotate(30.7782 369.586 462)" fill="#FC857A"/>
</g>
<path d="M9.8916 262.721L124.376 146.76L185.71 203.666L296.145 94.6681L353.344 148.479L461.109 51" stroke="#E2F7D1" stroke-width="16" stroke-miterlimit="10" stroke-linecap="round" stroke-linejoin="round"/>
<g clip-path="url(#clip0)">
<path d="M282.399 148.88H187.723C182.375 148.88 178 153.301 178 158.705V190.269H292V158.705C292 153.301 287.746 148.88 282.399 148.88Z" fill="#76B73D"/>
<path d="M191.004 156.863H180.795C179.945 156.863 179.215 157.6 179.215 158.459V195.918C179.215 196.778 179.945 197.515 180.795 197.515H191.004C191.855 197.515 192.584 196.778 192.584 195.918V158.582C192.706 157.6 191.977 156.863 191.004 156.863Z" fill="#BF7B43"/>
<path d="M207.29 145.441H197.081C196.23 145.441 195.501 146.178 195.501 147.038V195.918C195.501 196.778 196.23 197.515 197.081 197.515H207.29C208.141 197.515 208.87 196.778 208.87 195.918V147.16C208.87 146.178 208.141 145.441 207.29 145.441Z" fill="#BF7B43"/>
<path d="M223.454 114H213.245C212.394 114 211.665 114.737 211.665 115.597V196.041C211.665 196.901 212.394 197.638 213.245 197.638H223.454C224.305 197.638 225.034 196.901 225.034 196.041V115.597C225.155 114.737 224.426 114 223.454 114Z" fill="#BF7B43"/>
<path d="M239.74 130.826H229.531C228.68 130.826 227.951 131.563 227.951 132.422V196.041C227.951 196.901 228.68 197.638 229.531 197.638H239.74C240.591 197.638 241.32 196.901 241.32 196.041V132.422C241.32 131.563 240.591 130.826 239.74 130.826Z" fill="#BF7B43"/>
<path d="M256.026 136.23H245.817C244.966 136.23 244.237 136.967 244.237 137.826V201.691C244.237 202.55 244.966 203.287 245.817 203.287H256.026C256.876 203.287 257.606 202.55 257.606 201.691V137.826C257.606 136.967 256.876 136.23 256.026 136.23Z" fill="#BF7B43"/>
<path d="M272.19 145.441H261.981C261.13 145.441 260.401 146.178 260.401 147.038V195.918C260.401 196.778 261.13 197.515 261.981 197.515H272.19C273.041 197.515 273.77 196.778 273.77 195.918V147.16C273.891 146.178 273.162 145.441 272.19 145.441Z" fill="#BF7B43"/>
<path d="M288.475 156.863H278.266C277.416 156.863 276.687 157.6 276.687 158.459V195.918C276.687 196.778 277.416 197.515 278.266 197.515H288.475C289.326 197.515 290.055 196.778 290.055 195.918V158.582C290.055 157.6 289.326 156.863 288.475 156.863Z" fill="#BF7B43"/>
<path d="M289.205 170.495C284.586 170.495 280.819 174.18 280.819 178.847C280.697 183.268 277.416 186.952 273.041 186.952H235H197.081C192.706 186.952 189.424 183.268 189.303 178.847C189.181 174.18 185.414 170.495 180.795 170.495H178V197.76V343.174C178 348.578 182.375 353 187.723 353H282.399C287.746 353 292.122 348.578 292.122 343.174V197.637V170.495H289.205Z" fill="url(#paint0_linear)"/>
<path d="M236.086 234.043L178.543 204.711V297.596H292V204.711L236.086 234.043Z" fill="#F1F8FD" fill-opacity="0.4"/>
</g>
<g filter="url(#filter1_d)">
<path d="M359.709 329.063C435.773 281.183 407.776 213.016 407.776 213.016C407.776 213.016 346.357 172.184 285.97 247.744C283.386 250.924 281.232 254.363 279.423 258.059C272.877 271.555 260.386 304.048 280.026 326.054C299.322 347.802 332.574 339.98 347.218 335.08C351.525 333.619 355.746 331.556 359.709 329.063Z" fill="#7AC142"/>
<path d="M391.926 278.604C391.323 276.111 388.825 274.65 386.413 275.166C366.6 279.807 355.574 266.57 351.783 260.724C372.027 238.976 396.922 224.535 397.181 224.449C399.42 223.159 400.109 220.409 398.903 218.174C397.611 216.025 394.855 215.251 392.615 216.454C391.926 216.884 381.589 222.816 368.84 232.873C366.255 230.122 362.551 224.965 363.843 218.861C364.36 216.368 362.723 213.962 360.225 213.446C357.727 212.93 355.315 214.563 354.798 217.056C352.817 226.598 357.641 234.162 361.431 238.46C361.517 238.546 361.604 238.632 361.69 238.718C355.401 244.048 348.854 250.237 342.738 257.114C341.705 258.317 340.671 259.435 339.637 260.638C334.382 266.913 327.749 273.962 320.686 281.097C317.068 279.034 310.09 273.704 305.008 261.412C304.06 259.091 301.39 257.973 298.978 258.919C296.566 259.865 295.532 262.529 296.479 264.936C299.408 271.899 302.854 277.143 306.3 280.925C309.056 284.02 311.727 286.169 313.967 287.716C294.067 307.057 271.67 326.226 259.955 334.393C257.887 335.854 257.371 338.691 258.835 340.754C258.921 340.926 259.007 341.012 259.18 341.183C260.73 342.903 263.314 343.247 265.296 341.871C282.783 329.579 323.615 293.475 345.495 267.773C346.27 268.89 347.218 270.008 348.165 271.125C356.004 279.979 369.701 288.404 388.48 283.934C390.978 283.504 392.529 281.011 391.926 278.604Z" fill="#8CDD45"/>
</g>
<g clip-path="url(#clip1)" filter="url(#filter2_d)">
<path d="M121.979 165.532L192.733 338.538C196.271 347.131 192.054 357.083 183.461 360.62C174.868 364.158 164.917 359.941 161.379 351.348L90.625 178.342C89.438 175.433 90.88 172.065 93.788 170.878L114.516 162.369C117.424 161.182 120.792 162.624 121.979 165.532Z" fill="#BF7B43"/>
<path d="M174.089 292.829L180.617 308.824C181.658 311.283 180.464 314.134 178.004 315.175L155.691 324.3C153.232 325.341 150.381 324.147 149.34 321.687L142.812 305.693C141.771 303.234 142.965 300.383 145.425 299.342L167.738 290.216C170.198 289.176 173.049 290.37 174.089 292.829Z" fill="#0069AA"/>
<path d="M116.357 154.323C117.151 156.149 116.237 158.273 114.465 158.99L89.9015 169.188C88.0761 169.982 85.9514 169.067 85.2346 167.296C84.4406 165.47 85.3554 163.346 87.1265 162.629L111.745 152.354C113.516 151.638 115.641 152.552 116.357 154.323Z" fill="#FF6A52"/>
</g>
<g clip-path="url(#clip2)" filter="url(#filter3_d)">
<path d="M128.207 359H97.9809C94.2451 359 91.1885 355.942 91.1885 352.205V266.814C91.1885 263.076 94.2451 260.019 97.9809 260.019H128.321C132.056 260.019 135.113 263.076 135.113 266.814V352.318C135 355.942 132.056 359 128.207 359Z" fill="url(#paint1_linear)"/>
<path d="M127.302 258.886H116.208V254.469H127.302C128.547 254.469 129.566 255.488 129.566 256.734C129.566 257.867 128.547 258.886 127.302 258.886Z" fill="#40585A"/>
<path d="M116.207 250.392C119.146 250.392 121.528 248.009 121.528 245.069C121.528 242.13 119.146 239.747 116.207 239.747C113.269 239.747 110.887 242.13 110.887 245.069C110.887 248.009 113.269 250.392 116.207 250.392Z" fill="#677A7A"/>
<path d="M102.849 226.043L94.1322 255.036C93.0002 258.66 89.2643 260.698 85.6417 259.566L67.8681 254.356C64.2454 253.224 62.2077 249.486 63.3398 245.862L71.9436 216.87C73.0756 213.246 76.8115 211.207 80.4341 212.34L98.2077 217.663C101.83 218.682 103.868 222.533 102.849 226.043Z" fill="url(#paint2_linear)"/>
<path d="M117 243.597H99.5658C97.7545 243.597 96.396 245.069 96.396 246.768V258.773H120.283V246.768C120.17 245.069 118.698 243.597 117 243.597Z" fill="#40585A"/>
</g>
<defs>
<filter id="filter0_d" x="0" y="237.842" width="473.706" height="305.142" filterUnits="userSpaceOnUse" color-interpolation-filters="sRGB">
<feFlood flood-opacity="0" result="BackgroundImageFix"/>
<feColorMatrix in="SourceAlpha" type="matrix" values="0 0 0 0 0 0 0 0 0 0 0 0 0 0 0 0 0 0 127 0"/>
<feOffset dy="6"/>
<feGaussianBlur stdDeviation="17.5"/>
<feColorMatrix type="matrix" values="0 0 0 0 0.0288582 0 0 0 0 0.322059 0 0 0 0 0.503564 0 0 0 0.2 0"/>
<feBlend mode="normal" in2="BackgroundImageFix" result="effect1_dropShadow"/>
<feBlend mode="normal" in="SourceGraphic" in2="effect1_dropShadow" result="shape"/>
</filter>
<filter id="filter1_d" x="223" y="173" width="224.81" height="210.72" filterUnits="userSpaceOnUse" color-interpolation-filters="sRGB">
<feFlood flood-opacity="0" result="BackgroundImageFix"/>
<feColorMatrix in="SourceAlpha" type="matrix" values="0 0 0 0 0 0 0 0 0 0 0 0 0 0 0 0 0 0 127 0"/>
<feOffset dy="6"/>
<feGaussianBlur stdDeviation="17.5"/>
<feColorMatrix type="matrix" values="0 0 0 0 0.0288582 0 0 0 0 0.322059 0 0 0 0 0.503564 0 0 0 0.2 0"/>
<feBlend mode="normal" in2="BackgroundImageFix" result="effect1_dropShadow"/>
<feBlend mode="normal" in="SourceGraphic" in2="effect1_dropShadow" result="shape"/>
</filter>
<filter id="filter2_d" x="-14.0894" y="113.531" width="309.897" height="295.941" filterUnits="userSpaceOnUse" color-interpolation-filters="sRGB">
<feFlood flood-opacity="0" result="BackgroundImageFix"/>
<feColorMatrix in="SourceAlpha" type="matrix" values="0 0 0 0 0 0 0 0 0 0 0 0 0 0 0 0 0 0 127 0"/>
<feOffset dy="6"/>
<feGaussianBlur stdDeviation="17.5"/>
<feColorMatrix type="matrix" values="0 0 0 0 0.0288582 0 0 0 0 0.322059 0 0 0 0 0.503564 0 0 0 0.2 0"/>
<feBlend mode="normal" in2="BackgroundImageFix" result="effect1_dropShadow"/>
<feBlend mode="normal" in="SourceGraphic" in2="effect1_dropShadow" result="shape"/>
</filter>
<filter id="filter3_d" x="28" y="183" width="142" height="217" filterUnits="userSpaceOnUse" color-interpolation-filters="sRGB">
<feFlood flood-opacity="0" result="BackgroundImageFix"/>
<feColorMatrix in="SourceAlpha" type="matrix" values="0 0 0 0 0 0 0 0 0 0 0 0 0 0 0 0 0 0 127 0"/>
<feOffset dy="6"/>
<feGaussianBlur stdDeviation="17.5"/>
<feColorMatrix type="matrix" values="0 0 0 0 0.0288582 0 0 0 0 0.322059 0 0 0 0 0.503564 0 0 0 0.2 0"/>
<feBlend mode="normal" in2="BackgroundImageFix" result="effect1_dropShadow"/>
<feBlend mode="normal" in="SourceGraphic" in2="effect1_dropShadow" result="shape"/>
</filter>
<linearGradient id="paint0_linear" x1="180.29" y1="353" x2="332.423" y2="313.679" gradientUnits="userSpaceOnUse">
<stop offset="0.277132" stop-color="#0069AA"/>
<stop offset="1" stop-color="#1F93DB"/>
</linearGradient>
<linearGradient id="paint1_linear" x1="91.155" y1="309.501" x2="135.045" y2="309.501" gradientUnits="userSpaceOnUse">
<stop stop-color="#0069AA"/>
<stop offset="1" stop-color="#3BA6D7"/>
</linearGradient>
<linearGradient id="paint2_linear" x1="76.7382" y1="257.012" x2="89.3566" y2="214.957" gradientUnits="userSpaceOnUse">
<stop stop-color="#0069AA"/>
<stop offset="1" stop-color="#3BA6D7"/>
</linearGradient>
<clipPath id="clip0">
<rect width="114" height="239" fill="white" transform="translate(178 114)"/>
</clipPath>
<clipPath id="clip1">
<rect width="138.616" height="195.799" fill="white" transform="translate(20.9106 255.993) rotate(-54.9382)"/>
</clipPath>
<clipPath id="clip2">
<rect width="72" height="147" fill="white" transform="translate(63 212)"/>
</clipPath>
</defs>
</svg>
