<svg width="369" height="262" viewBox="0 0 369 262" fill="none" xmlns="http://www.w3.org/2000/svg">
<path opacity="0.5" d="M406.023 250.239H172.448C164.208 250.239 157.527 243.565 157.527 235.334C157.527 227.103 164.208 220.429 172.448 220.429H405.979C414.219 220.429 420.9 227.103 420.9 235.334C420.9 243.609 414.219 250.239 406.023 250.239Z" fill="url(#paint0_linear)"/>
<path d="M227.46 85.4423L238.873 74.083L242.457 77.0463L233.31 90.6692C231.868 92.2744 229.355 92.439 227.748 90.9985C226.182 89.5168 226.017 87.0474 227.46 85.4423Z" fill="#007AB7"/>
<path d="M238.872 74.0827L241.097 70.3786C241.839 69.1438 243.487 68.7734 244.682 69.5966C245.836 70.4197 246.124 71.9837 245.3 73.1361L242.498 77.0048L238.872 74.0827Z" fill="#AF7A4F"/>
<path d="M226.471 236.446C223.174 236.446 220.414 233.895 220.208 230.602L213.615 134.624C213.615 128.945 218.23 124.335 223.916 124.335H229.066C234.752 124.335 239.367 128.945 239.367 134.624L232.774 230.602C232.527 233.895 229.767 236.446 226.471 236.446Z" fill="url(#paint1_linear)"/>
<path d="M226.471 70.2552C220.744 70.2552 216.047 65.6045 216.047 59.8425V53.2574C216.047 47.5366 220.702 42.8447 226.471 42.8447C232.198 42.8447 236.895 47.4955 236.895 53.2574V59.8425C236.895 65.6045 232.239 70.2552 226.471 70.2552Z" fill="#AF7A4F"/>
<path d="M234.835 139.934H218.148C215.676 139.934 213.616 137.876 213.616 135.407L211.555 82.3556C211.555 76.676 216.17 72.0664 221.856 72.0664H229.066C234.752 72.0664 239.367 76.676 239.367 82.3556V135.407C239.367 137.876 237.307 139.934 234.835 139.934Z" fill="url(#paint2_linear)"/>
<path d="M218.683 52.9692C219.384 51.2817 220.62 49.4297 222.35 48.8123C224.699 48.0303 228.036 48.195 230.426 48.4831C232.033 48.6888 233.928 48.9769 235.041 47.7422C236.277 46.3429 235.329 44.0793 233.928 42.8857C230.962 40.4163 226.677 40.4986 222.886 41.0748C220.126 41.4864 217.077 42.3095 215.593 44.6555C214.398 46.5487 214.398 49.265 214.028 51.4052C213.574 54.2039 214.357 57.5376 215.223 60.1716C215.346 60.5832 215.511 61.0359 215.841 61.3652C216.17 61.6944 216.665 61.859 217.077 61.6532C217.695 61.3652 217.695 60.542 217.653 59.8424C217.53 57.7022 217.695 55.5209 218.436 53.5453C218.519 53.4219 218.601 53.2161 218.683 52.9692Z" fill="#0069AA"/>
<path d="M239.408 104.868L217.942 85.7708C215.882 83.9599 215.717 80.7908 217.53 78.733C219.343 76.6751 222.515 76.5105 224.575 78.3214L246.042 97.4182C248.102 99.2291 248.267 102.398 246.454 104.456C244.6 106.473 241.468 106.678 239.408 104.868Z" fill="#007AB7"/>
<path d="M239.325 97.9536L253.787 83.5898L258.361 87.3351L246.783 104.58C244.97 106.638 241.798 106.802 239.737 104.991C237.677 103.181 237.513 100.011 239.325 97.9536Z" fill="#007AB7"/>
<path d="M256.301 83.3423L241.963 76.0987C241.18 75.6459 240.933 74.617 241.427 73.835L246.577 65.8917C247.031 65.1098 248.061 64.8628 248.843 65.3567L264.088 70.5836C264.871 71.0364 265.118 72.0653 264.624 72.8473L258.526 82.8072C258.073 83.5892 257.043 83.8361 256.301 83.3423Z" fill="#01527A"/>
<path d="M256.383 81.8617L243.775 75.5647L249.296 66.9629L262.77 71.3255L256.383 81.8617Z" fill="#E6E6E6"/>
<path d="M253.788 83.5896L256.589 78.8977C257.537 77.3337 259.638 76.881 261.122 77.9099C262.605 78.9388 262.935 80.9555 261.904 82.396L258.361 87.2937L253.788 83.5896Z" fill="#AF7A4F"/>
<path d="M294.016 235.129C297.313 235.17 300.073 232.66 300.362 229.367L308.19 141.991C308.272 136.353 303.699 131.62 298.013 131.579L292.863 131.496C287.218 131.414 282.48 135.982 282.439 141.662L287.836 229.203C288.042 232.495 290.72 235.088 294.016 235.129Z" fill="#CCA283"/>
<path d="M281.656 145.448L279.719 176.193C279.596 178.456 281.367 180.391 283.633 180.391H306.377C308.643 180.391 310.456 178.497 310.291 176.234L308.313 143.432L281.656 145.448Z" fill="url(#paint3_linear)"/>
<path d="M295.582 77.4984C301.309 77.4984 306.006 72.8476 306.006 67.0857V60.5006C306.006 54.7798 301.35 50.0879 295.582 50.0879C289.855 50.0879 285.158 54.7386 285.158 60.5006V67.0857C285.158 72.8476 289.814 77.4984 295.582 77.4984Z" fill="#CCA283"/>
<path d="M285.158 147.135H305.141C307.613 147.135 309.673 145.119 309.673 142.608L306.789 89.5568C306.789 83.8772 302.174 79.2676 296.489 79.2676H292.986C287.3 79.2676 282.686 83.8772 282.686 89.5568L280.626 142.608C280.626 145.119 282.686 147.135 285.158 147.135Z" fill="url(#paint4_linear)"/>
<path d="M285.158 116.31L298.755 90.9982C300.032 88.57 299.125 85.5655 296.736 84.2485C294.305 82.9726 291.297 83.8781 289.979 86.2652L276.382 111.577C275.105 114.005 276.011 117.009 278.401 118.326C280.832 119.602 283.839 118.697 285.158 116.31Z" fill="#86CC48"/>
<path d="M281.409 108.736L261.096 107.131L260.025 112.934L280.008 118.614C282.727 118.984 285.24 117.091 285.652 114.374C286.023 111.658 284.128 109.148 281.409 108.736Z" fill="#86CC48"/>
<path d="M261.055 107.131L255.905 105.362C254.174 104.786 252.279 105.773 251.784 107.543C251.331 109.272 252.361 111.041 254.092 111.453L259.984 112.893L261.055 107.131Z" fill="#CCA283"/>
<path d="M261.055 107.131C261.055 107.131 259.283 103.838 258.459 103.715C257.635 103.591 255.74 104.538 257.017 106.061C258.294 107.542 261.055 107.131 261.055 107.131Z" fill="#CCA283"/>
<path d="M284.87 60.3773C285.117 60.6654 285.57 60.8711 286.27 61.0769C287.671 61.4062 290.638 62.0235 291.833 60.9123C292.203 60.583 292.368 60.048 292.492 59.5541C293.275 56.6731 293.687 53.8744 294.016 50.9111C294.181 49.553 292.657 49.306 291.627 49.4706C289.361 49.8822 287.383 51.4873 286.229 53.4629C285.323 54.9445 284.87 56.6731 284.663 58.4017C284.499 59.3895 284.54 59.9657 284.87 60.3773Z" fill="#01527A"/>
<path d="M295.252 67.7029C295.252 67.744 295.252 67.7852 295.252 67.7852C294.758 71.2835 295.87 84.6595 295.582 88.199C295.541 88.5694 299.537 89.3103 299.949 89.3514C301.515 89.5572 303.081 89.5984 304.646 89.4749C306.212 89.3103 307.778 89.0222 309.261 88.4871C309.961 88.2402 310.909 87.9933 311.527 87.5405C312.186 87.0466 312.145 86.6351 312.145 85.7296C312.186 82.5194 310.703 69.4726 310.621 66.2624C310.538 63.3403 310.415 60.377 309.302 57.6606C308.107 54.6973 305.8 52.1456 302.957 50.7051C301.433 49.9231 299.785 49.4704 298.095 49.3058C296.818 49.1823 294.84 48.8119 293.687 49.635C291.915 50.8697 293.563 55.8909 293.851 57.5371C294.14 59.348 294.428 61.2001 294.758 63.011C295.005 64.575 295.458 66.1801 295.252 67.7029Z" fill="#01527A"/>
<path d="M322.322 40.8276H248.777C243.091 40.8276 238.476 36.2181 238.476 30.5384V10.2892C238.476 4.60957 243.091 0 248.777 0H322.322C328.008 0 332.623 4.60957 332.623 10.2892V30.5384C332.623 36.1769 328.008 40.8276 322.322 40.8276Z" fill="#D3E1EA"/>
<path d="M262.579 40.8283C262.579 40.8283 265.587 48.8538 271.973 52.7226C273.292 53.5046 274.899 52.2699 274.528 50.7882C273.869 48.3188 273.209 44.7382 273.209 40.7871H262.579V40.8283Z" fill="#D3E1EA"/>
<g opacity="0.5">
<path opacity="0.5" d="M320.262 10.9888H249.807C249.065 10.9888 248.447 10.3715 248.447 9.63063C248.447 8.88981 249.065 8.27246 249.807 8.27246H320.262C321.004 8.27246 321.622 8.88981 321.622 9.63063C321.622 10.3715 321.004 10.9888 320.262 10.9888Z" fill="#0069AA"/>
</g>
<g opacity="0.5">
<path opacity="0.5" d="M320.262 20.4546H249.807C249.065 20.4546 248.447 19.8373 248.447 19.0965C248.447 18.3556 249.065 17.7383 249.807 17.7383H320.262C321.004 17.7383 321.622 18.3556 321.622 19.0965C321.622 19.8373 321.004 20.4546 320.262 20.4546Z" fill="#0069AA"/>
</g>
<g opacity="0.5">
<path opacity="0.5" d="M302.463 29.9213H249.642C248.983 29.9213 248.488 29.3863 248.488 28.7689V28.3985C248.488 27.74 249.024 27.2461 249.642 27.2461H302.463C303.122 27.2461 303.617 27.7811 303.617 28.3985V28.7689C303.617 29.3863 303.122 29.9213 302.463 29.9213Z" fill="#0069AA"/>
</g>
<g opacity="0.08">
<path opacity="0.9" d="M199.165 120.98C199.165 116.198 195.274 112.316 190.481 112.316H180.978C164.307 112.316 150.83 98.8287 150.83 82.2357C150.83 65.6018 164.348 52.1557 180.978 52.1557H284.98C293.746 52.1557 300.873 45.0444 300.873 36.2983C300.873 22.3209 312.22 11 326.229 11H452.555C466.564 11 477.91 22.3209 477.91 36.2983V54.3626C477.91 68.34 466.564 79.6609 452.555 79.6609H361.046C352.813 79.6609 346.177 86.3226 346.177 94.4966C346.177 102.711 352.854 109.332 361.046 109.332H401.639C415.321 109.332 426.421 120.408 426.421 134.058C426.421 147.709 415.321 158.784 401.639 158.784H276.419C266.916 158.784 259.174 166.468 259.174 175.99C259.174 183.715 252.907 189.968 245.165 189.968H62.2299C45.5174 189.968 32 176.44 32 159.806C32 143.131 45.5584 129.644 62.2299 129.644H190.522C195.274 129.644 199.165 125.762 199.165 120.98Z" fill="#0069AA"/>
</g>
<path d="M38.4247 77.3634H36.669V88.9997H38.4247V77.3634Z" fill="#00559B"/>
<path d="M42.544 83.8179C42.544 82.4259 43.3963 81.6304 44.5781 81.6304C45.7315 81.6304 46.4304 82.3861 46.4304 83.6531V88.9997H48.1293V83.4486C48.1293 81.2895 46.9418 80.1588 45.1577 80.1588C43.8452 80.1588 42.9872 80.7668 42.5838 81.6929H42.4759V80.2725H40.8452V88.9997H42.544V83.8179Z" fill="#00559B"/>
<path d="M54.4815 80.2725H52.6918V78.1816H50.9929V80.2725H49.7145V81.6361H50.9929V86.7895C50.9872 88.3747 52.1974 89.1418 53.5384 89.1134C54.0781 89.1077 54.4418 89.0054 54.6406 88.9316L54.3338 87.5281C54.2202 87.5509 54.0099 87.602 53.7372 87.602C53.1861 87.602 52.6918 87.4202 52.6918 86.4372V81.6361H54.4815V80.2725Z" fill="#00559B"/>
<path d="M60.0284 89.1759C61.9318 89.1759 63.2784 88.2384 63.6648 86.8179L62.0568 86.5281C61.75 87.352 61.0114 87.7725 60.0455 87.7725C58.5909 87.7725 57.6136 86.8293 57.5682 85.1475H63.7727V84.5452C63.7727 81.3918 61.8864 80.1588 59.9091 80.1588C57.4773 80.1588 55.875 82.0111 55.875 84.6929C55.875 87.4031 57.4545 89.1759 60.0284 89.1759ZM57.5739 83.8747C57.642 82.6361 58.5398 81.5622 59.9205 81.5622C61.2386 81.5622 62.1023 82.5395 62.108 83.8747H57.5739Z" fill="#00559B"/>
<path d="M65.6577 88.9997H67.3565V83.6702C67.3565 82.5281 68.2372 81.7043 69.4418 81.7043C69.794 81.7043 70.1918 81.7668 70.3281 81.8066V80.1816C70.1577 80.1588 69.8224 80.1418 69.6065 80.1418C68.5838 80.1418 67.7088 80.7213 67.3906 81.6588H67.2997V80.2725H65.6577V88.9997Z" fill="#00559B"/>
<path d="M79.5298 80.2725H77.706L75.5014 86.9884H75.4105L73.2003 80.2725H71.3764L74.5469 88.9997H76.3651L79.5298 80.2725Z" fill="#00559B"/>
<path d="M81.1264 88.9997H82.8253V80.2725H81.1264V88.9997ZM81.9844 78.9259C82.5696 78.9259 83.0582 78.4713 83.0582 77.9145C83.0582 77.3577 82.5696 76.8975 81.9844 76.8975C81.3935 76.8975 80.9105 77.3577 80.9105 77.9145C80.9105 78.4713 81.3935 78.9259 81.9844 78.9259Z" fill="#00559B"/>
<path d="M88.8722 89.1759C90.7756 89.1759 92.1222 88.2384 92.5085 86.8179L90.9006 86.5281C90.5937 87.352 89.8551 87.7725 88.8892 87.7725C87.4347 87.7725 86.4574 86.8293 86.4119 85.1475H92.6165V84.5452C92.6165 81.3918 90.7301 80.1588 88.7528 80.1588C86.321 80.1588 84.7188 82.0111 84.7188 84.6929C84.7188 87.4031 86.2983 89.1759 88.8722 89.1759ZM86.4176 83.8747C86.4858 82.6361 87.3835 81.5622 88.7642 81.5622C90.0824 81.5622 90.946 82.5395 90.9517 83.8747H86.4176Z" fill="#00559B"/>
<path d="M96.3778 88.9997H98.1051L99.8778 82.6986H100.009L101.781 88.9997H103.514L106.077 80.2725H104.321L102.622 86.6531H102.537L100.832 80.2725H99.0767L97.3608 86.6816H97.2756L95.5653 80.2725H93.8097L96.3778 88.9997Z" fill="#00559B"/>
<path d="M111.185 89.1759C113.088 89.1759 114.435 88.2384 114.821 86.8179L113.213 86.5281C112.906 87.352 112.168 87.7725 111.202 87.7725C109.747 87.7725 108.77 86.8293 108.724 85.1475H114.929V84.5452C114.929 81.3918 113.043 80.1588 111.065 80.1588C108.634 80.1588 107.031 82.0111 107.031 84.6929C107.031 87.4031 108.611 89.1759 111.185 89.1759ZM108.73 83.8747C108.798 82.6361 109.696 81.5622 111.077 81.5622C112.395 81.5622 113.259 82.5395 113.264 83.8747H108.73Z" fill="#00559B"/>
<path d="M116.814 88.9997H118.513V83.6702C118.513 82.5281 119.393 81.7043 120.598 81.7043C120.95 81.7043 121.348 81.7668 121.484 81.8066V80.1816C121.314 80.1588 120.979 80.1418 120.763 80.1418C119.74 80.1418 118.865 80.7213 118.547 81.6588H118.456V80.2725H116.814V88.9997Z" fill="#00559B"/>
<path d="M129.494 82.4031C129.142 81.0452 128.08 80.1588 126.193 80.1588C124.222 80.1588 122.824 81.1986 122.824 82.7441C122.824 83.9827 123.574 84.8066 125.21 85.1702L126.688 85.4941C127.528 85.6816 127.92 86.0566 127.92 86.602C127.92 87.2781 127.199 87.8066 126.085 87.8066C125.068 87.8066 124.415 87.3691 124.21 86.5111L122.568 86.7611C122.852 88.3066 124.136 89.1759 126.097 89.1759C128.205 89.1759 129.665 88.0566 129.665 86.477C129.665 85.2441 128.881 84.4827 127.278 84.1134L125.892 83.7952C124.932 83.5679 124.517 83.2441 124.523 82.6531C124.517 81.9827 125.244 81.5054 126.21 81.5054C127.267 81.5054 127.756 82.0906 127.955 82.6759L129.494 82.4031Z" fill="#00559B"/>
<path d="M139.443 89.1759C141.506 89.1759 142.841 87.9372 143.028 86.2384H141.375C141.159 87.1816 140.426 87.7384 139.455 87.7384C138.017 87.7384 137.091 86.5395 137.091 84.6361C137.091 82.7668 138.034 81.5906 139.455 81.5906C140.534 81.5906 141.193 82.2725 141.375 83.0906H143.028C142.847 81.3293 141.409 80.1588 139.426 80.1588C136.966 80.1588 135.375 82.0111 135.375 84.6759C135.375 87.3066 136.909 89.1759 139.443 89.1759Z" fill="#00559B"/>
<path d="M148.521 89.1759C150.982 89.1759 152.589 87.3747 152.589 84.6759C152.589 81.96 150.982 80.1588 148.521 80.1588C146.061 80.1588 144.453 81.96 144.453 84.6759C144.453 87.3747 146.061 89.1759 148.521 89.1759ZM148.527 87.7497C146.919 87.7497 146.169 86.3463 146.169 84.6702C146.169 82.9997 146.919 81.5793 148.527 81.5793C150.124 81.5793 150.874 82.9997 150.874 84.6702C150.874 86.3463 150.124 87.7497 148.527 87.7497Z" fill="#00559B"/>
<path d="M156.185 83.8179C156.185 82.4259 157.037 81.6304 158.219 81.6304C159.372 81.6304 160.071 82.3861 160.071 83.6531V88.9997H161.77V83.4486C161.77 81.2895 160.582 80.1588 158.798 80.1588C157.486 80.1588 156.628 80.7668 156.224 81.6929H156.116V80.2725H154.486V88.9997H156.185V83.8179Z" fill="#00559B"/>
<path d="M168.122 80.2725H166.332V78.1816H164.634V80.2725H163.355V81.6361H164.634V86.7895C164.628 88.3747 165.838 89.1418 167.179 89.1134C167.719 89.1077 168.082 89.0054 168.281 88.9316L167.974 87.5281C167.861 87.5509 167.651 87.602 167.378 87.602C166.827 87.602 166.332 87.4202 166.332 86.4372V81.6361H168.122V80.2725Z" fill="#00559B"/>
<path d="M172.541 89.1929C173.984 89.1929 174.797 88.46 175.121 87.8066H175.189V88.9997H176.848V83.2043C176.848 80.6645 174.848 80.1588 173.462 80.1588C171.882 80.1588 170.428 80.7952 169.859 82.3861L171.456 82.7497C171.706 82.1304 172.342 81.5338 173.484 81.5338C174.581 81.5338 175.143 82.1077 175.143 83.0963V83.1361C175.143 83.7554 174.507 83.7441 172.939 83.9259C171.286 84.1191 169.592 84.5509 169.592 86.5338C169.592 88.2497 170.882 89.1929 172.541 89.1929ZM172.911 87.8293C171.95 87.8293 171.257 87.3975 171.257 86.5566C171.257 85.6475 172.064 85.3236 173.047 85.1929C173.598 85.1191 174.905 84.9713 175.149 84.727V85.852C175.149 86.8861 174.325 87.8293 172.911 87.8293Z" fill="#00559B"/>
<path d="M182.787 89.1759C184.849 89.1759 186.185 87.9372 186.372 86.2384H184.719C184.503 87.1816 183.77 87.7384 182.798 87.7384C181.361 87.7384 180.435 86.5395 180.435 84.6361C180.435 82.7668 181.378 81.5906 182.798 81.5906C183.878 81.5906 184.537 82.2725 184.719 83.0906H186.372C186.19 81.3293 184.753 80.1588 182.77 80.1588C180.31 80.1588 178.719 82.0111 178.719 84.6759C178.719 87.3066 180.253 89.1759 182.787 89.1759Z" fill="#00559B"/>
<path d="M192.263 80.2725H190.473V78.1816H188.774V80.2725H187.496V81.6361H188.774V86.7895C188.768 88.3747 189.979 89.1418 191.32 89.1134C191.859 89.1077 192.223 89.0054 192.422 88.9316L192.115 87.5281C192.001 87.5509 191.791 87.602 191.518 87.602C190.967 87.602 190.473 87.4202 190.473 86.4372V81.6361H192.263V80.2725Z" fill="#00559B"/>
<path d="M9.16903 113.176C11.0724 113.176 12.419 112.238 12.8054 110.818L11.1974 110.528C10.8906 111.352 10.152 111.772 9.18608 111.772C7.73153 111.772 6.75426 110.829 6.70881 109.147H12.9134V108.545C12.9134 105.392 11.027 104.159 9.04972 104.159C6.6179 104.159 5.01562 106.011 5.01562 108.693C5.01562 111.403 6.59517 113.176 9.16903 113.176ZM6.71449 107.875C6.78267 106.636 7.6804 105.562 9.06108 105.562C10.3793 105.562 11.2429 106.54 11.2486 107.875H6.71449Z" fill="#00559B"/>
<path d="M17.3381 113.193C18.7812 113.193 19.5938 112.46 19.9176 111.807H19.9858V113H21.6449V107.204C21.6449 104.665 19.6449 104.159 18.2585 104.159C16.679 104.159 15.2244 104.795 14.6562 106.386L16.2528 106.75C16.5028 106.13 17.1392 105.534 18.2812 105.534C19.3778 105.534 19.9403 106.108 19.9403 107.096V107.136C19.9403 107.755 19.304 107.744 17.7358 107.926C16.0824 108.119 14.3892 108.551 14.3892 110.534C14.3892 112.25 15.679 113.193 17.3381 113.193ZM17.7074 111.829C16.7472 111.829 16.054 111.397 16.054 110.557C16.054 109.647 16.8608 109.324 17.8438 109.193C18.3949 109.119 19.7017 108.971 19.946 108.727V109.852C19.946 110.886 19.1222 111.829 17.7074 111.829Z" fill="#00559B"/>
<path d="M27.5838 113.176C29.6463 113.176 30.9815 111.937 31.169 110.238H29.5156C29.2997 111.182 28.5668 111.738 27.5952 111.738C26.1577 111.738 25.2315 110.54 25.2315 108.636C25.2315 106.767 26.1747 105.591 27.5952 105.591C28.6747 105.591 29.3338 106.272 29.5156 107.091H31.169C30.9872 105.329 29.5497 104.159 27.5668 104.159C25.1065 104.159 23.5156 106.011 23.5156 108.676C23.5156 111.307 25.0497 113.176 27.5838 113.176Z" fill="#00559B"/>
<path d="M34.6847 107.818C34.6847 106.426 35.5653 105.63 36.7756 105.63C37.946 105.63 38.6449 106.375 38.6449 107.653V113H40.3438V107.449C40.3438 105.272 39.1506 104.159 37.3551 104.159C35.9972 104.159 35.179 104.75 34.7699 105.693H34.6619V101.363H32.9858V113H34.6847V107.818Z" fill="#00559B"/>
<path d="M46.8452 116.272H48.544V111.642H48.6463C48.9531 112.199 49.5781 113.17 51.169 113.17C53.2827 113.17 54.8168 111.477 54.8168 108.653C54.8168 105.824 53.2599 104.159 51.152 104.159C49.5327 104.159 48.9474 105.147 48.6463 105.687H48.5043V104.272H46.8452V116.272ZM48.5099 108.636C48.5099 106.812 49.3054 105.602 50.7884 105.602C52.3281 105.602 53.1009 106.903 53.1009 108.636C53.1009 110.386 52.3054 111.721 50.7884 111.721C49.3281 111.721 48.5099 110.471 48.5099 108.636Z" fill="#00559B"/>
<path d="M60.4815 113.176C62.3849 113.176 63.7315 112.238 64.1179 110.818L62.5099 110.528C62.2031 111.352 61.4645 111.772 60.4986 111.772C59.044 111.772 58.0668 110.829 58.0213 109.147H64.2259V108.545C64.2259 105.392 62.3395 104.159 60.3622 104.159C57.9304 104.159 56.3281 106.011 56.3281 108.693C56.3281 111.403 57.9077 113.176 60.4815 113.176ZM58.027 107.875C58.0952 106.636 58.9929 105.562 60.3736 105.562C61.6918 105.562 62.5554 106.54 62.5611 107.875H58.027Z" fill="#00559B"/>
<path d="M66.1108 113H67.8097V107.67C67.8097 106.528 68.6903 105.704 69.8949 105.704C70.2472 105.704 70.6449 105.767 70.7812 105.807V104.182C70.6108 104.159 70.2756 104.142 70.0597 104.142C69.0369 104.142 68.1619 104.721 67.8438 105.659H67.7528V104.272H66.1108V113Z" fill="#00559B"/>
<path d="M78.7912 106.403C78.4389 105.045 77.3764 104.159 75.4901 104.159C73.5185 104.159 72.1207 105.199 72.1207 106.744C72.1207 107.983 72.8707 108.807 74.5071 109.17L75.9844 109.494C76.8253 109.682 77.2173 110.057 77.2173 110.602C77.2173 111.278 76.4957 111.807 75.3821 111.807C74.3651 111.807 73.7116 111.369 73.5071 110.511L71.8651 110.761C72.1491 112.307 73.4332 113.176 75.3935 113.176C77.5014 113.176 78.9616 112.057 78.9616 110.477C78.9616 109.244 78.1776 108.483 76.5753 108.113L75.1889 107.795C74.2287 107.568 73.8139 107.244 73.8196 106.653C73.8139 105.983 74.5412 105.505 75.5071 105.505C76.5639 105.505 77.0526 106.091 77.2514 106.676L78.7912 106.403Z" fill="#00559B"/>
<path d="M84.5057 113.176C86.9659 113.176 88.5739 111.375 88.5739 108.676C88.5739 105.96 86.9659 104.159 84.5057 104.159C82.0455 104.159 80.4375 105.96 80.4375 108.676C80.4375 111.375 82.0455 113.176 84.5057 113.176ZM84.5114 111.75C82.9034 111.75 82.1534 110.346 82.1534 108.67C82.1534 107 82.9034 105.579 84.5114 105.579C86.108 105.579 86.858 107 86.858 108.67C86.858 110.346 86.108 111.75 84.5114 111.75Z" fill="#00559B"/>
<path d="M92.169 107.818C92.169 106.426 93.0213 105.63 94.2031 105.63C95.3565 105.63 96.0554 106.386 96.0554 107.653V113H97.7543V107.449C97.7543 105.29 96.5668 104.159 94.7827 104.159C93.4702 104.159 92.6122 104.767 92.2088 105.693H92.1009V104.272H90.4702V113H92.169V107.818Z" fill="#00559B"/>
<path d="M108.034 113.17C110.682 113.17 112.33 111.358 112.33 108.67C112.33 105.966 110.682 104.159 108.034 104.159C105.386 104.159 103.739 105.966 103.739 108.67C103.739 111.358 105.386 113.17 108.034 113.17ZM108.045 111.295C106.824 111.295 106.199 110.176 106.199 108.653C106.199 107.13 106.824 106.005 108.045 106.005C109.244 106.005 109.869 107.13 109.869 108.653C109.869 110.176 109.244 111.295 108.045 111.295Z" fill="#00559B"/>
<path d="M116.324 107.954C116.33 106.829 117 106.17 117.977 106.17C118.949 106.17 119.534 106.807 119.528 107.875V113H121.949V107.443C121.949 105.409 120.756 104.159 118.938 104.159C117.642 104.159 116.705 104.795 116.312 105.812H116.21V104.272H113.903V113H116.324V107.954Z" fill="#00559B"/>
<path d="M127.8 113.17C130.124 113.17 131.584 111.807 131.697 109.801H129.413C129.271 110.733 128.658 111.255 127.828 111.255C126.697 111.255 125.964 110.307 125.964 108.636C125.964 106.988 126.703 106.045 127.828 106.045C128.714 106.045 129.283 106.63 129.413 107.5H131.697C131.595 105.483 130.067 104.159 127.788 104.159C125.141 104.159 123.504 105.994 123.504 108.67C123.504 111.324 125.112 113.17 127.8 113.17Z" fill="#00559B"/>
<path d="M137.224 113.17C139.384 113.17 140.838 112.119 141.179 110.5L138.94 110.352C138.696 111.017 138.071 111.363 137.264 111.363C136.054 111.363 135.287 110.562 135.287 109.261V109.255H141.23V108.591C141.23 105.625 139.435 104.159 137.128 104.159C134.56 104.159 132.895 105.983 132.895 108.676C132.895 111.443 134.537 113.17 137.224 113.17ZM135.287 107.755C135.338 106.761 136.094 105.966 137.168 105.966C138.219 105.966 138.946 106.716 138.952 107.755H135.287Z" fill="#00559B"/>
<path d="M149.001 113.165C150.291 113.165 151.126 112.602 151.553 111.79H151.621V113H153.916V107.113C153.916 105.034 152.155 104.159 150.212 104.159C148.121 104.159 146.746 105.159 146.411 106.75L148.649 106.932C148.814 106.352 149.331 105.926 150.2 105.926C151.024 105.926 151.496 106.341 151.496 107.057V107.091C151.496 107.653 150.899 107.727 149.382 107.875C147.655 108.034 146.104 108.613 146.104 110.562C146.104 112.29 147.337 113.165 149.001 113.165ZM149.695 111.494C148.95 111.494 148.416 111.147 148.416 110.483C148.416 109.801 148.979 109.466 149.831 109.346C150.359 109.272 151.223 109.147 151.513 108.954V109.88C151.513 110.795 150.757 111.494 149.695 111.494Z" fill="#00559B"/>
<path d="M160.991 116.272C162.793 116.272 163.747 115.352 164.241 113.943L167.634 104.284L165.071 104.272L163.247 110.682H163.156L161.349 104.272H158.804L161.935 113.25L161.793 113.619C161.474 114.437 160.866 114.477 160.014 114.216L159.469 116.022C159.815 116.17 160.378 116.272 160.991 116.272Z" fill="#00559B"/>
<path d="M172.553 113.17C174.712 113.17 176.166 112.119 176.507 110.5L174.268 110.352C174.024 111.017 173.399 111.363 172.592 111.363C171.382 111.363 170.615 110.562 170.615 109.261V109.255H176.558V108.591C176.558 105.625 174.763 104.159 172.456 104.159C169.888 104.159 168.223 105.983 168.223 108.676C168.223 111.443 169.865 113.17 172.553 113.17ZM170.615 107.755C170.666 106.761 171.422 105.966 172.496 105.966C173.547 105.966 174.274 106.716 174.28 107.755H170.615Z" fill="#00559B"/>
<path d="M180.626 113.165C181.916 113.165 182.751 112.602 183.178 111.79H183.246V113H185.541V107.113C185.541 105.034 183.78 104.159 181.837 104.159C179.746 104.159 178.371 105.159 178.036 106.75L180.274 106.932C180.439 106.352 180.956 105.926 181.825 105.926C182.649 105.926 183.121 106.341 183.121 107.057V107.091C183.121 107.653 182.524 107.727 181.007 107.875C179.28 108.034 177.729 108.613 177.729 110.562C177.729 112.29 178.962 113.165 180.626 113.165ZM181.32 111.494C180.575 111.494 180.041 111.147 180.041 110.483C180.041 109.801 180.604 109.466 181.456 109.346C181.984 109.272 182.848 109.147 183.138 108.954V109.88C183.138 110.795 182.382 111.494 181.32 111.494Z" fill="#00559B"/>
<path d="M187.419 113H189.839V108.062C189.839 106.988 190.624 106.25 191.692 106.25C192.027 106.25 192.487 106.307 192.714 106.38V104.233C192.499 104.182 192.197 104.147 191.953 104.147C190.976 104.147 190.175 104.716 189.857 105.795H189.766V104.272H187.419V113Z" fill="#00559B"/>
<path d="M49.4744 137.176C51.9347 137.176 53.5426 135.375 53.5426 132.676C53.5426 129.96 51.9347 128.159 49.4744 128.159C47.0142 128.159 45.4062 129.96 45.4062 132.676C45.4062 135.375 47.0142 137.176 49.4744 137.176ZM49.4801 135.75C47.8722 135.75 47.1222 134.346 47.1222 132.67C47.1222 131 47.8722 129.579 49.4801 129.579C51.0767 129.579 51.8267 131 51.8267 132.67C51.8267 134.346 51.0767 135.75 49.4801 135.75Z" fill="#00559B"/>
<path d="M55.4389 137H57.1378V131.67C57.1378 130.528 58.0185 129.704 59.223 129.704C59.5753 129.704 59.973 129.767 60.1094 129.807V128.182C59.9389 128.159 59.6037 128.142 59.3878 128.142C58.3651 128.142 57.4901 128.721 57.1719 129.659H57.081V128.272H55.4389V137Z" fill="#00559B"/>
<path d="M69.6151 137.17C71.7741 137.17 73.2287 136.119 73.5696 134.5L71.331 134.352C71.0866 135.017 70.4616 135.363 69.6548 135.363C68.4446 135.363 67.6776 134.562 67.6776 133.261V133.255H73.6207V132.591C73.6207 129.625 71.8253 128.159 69.5185 128.159C66.9503 128.159 65.2855 129.983 65.2855 132.676C65.2855 135.443 66.9276 137.17 69.6151 137.17ZM67.6776 131.755C67.7287 130.761 68.4844 129.966 69.5582 129.966C70.6094 129.966 71.3366 130.716 71.3423 131.755H67.6776Z" fill="#00559B"/>
<path d="M83.0866 128.272H80.5241L78.7173 134.517H78.6264L76.8139 128.272H74.2571L77.3082 137H80.0355L83.0866 128.272Z" fill="#00559B"/>
<path d="M88.0057 137.17C90.1648 137.17 91.6193 136.119 91.9602 134.5L89.7216 134.352C89.4773 135.017 88.8523 135.363 88.0455 135.363C86.8352 135.363 86.0682 134.562 86.0682 133.261V133.255H92.0114V132.591C92.0114 129.625 90.2159 128.159 87.9091 128.159C85.3409 128.159 83.6761 129.983 83.6761 132.676C83.6761 135.443 85.3182 137.17 88.0057 137.17ZM86.0682 131.755C86.1193 130.761 86.875 129.966 87.9489 129.966C89 129.966 89.7273 130.716 89.733 131.755H86.0682Z" fill="#00559B"/>
<path d="M93.5909 137H96.0114V132.062C96.0114 130.988 96.7955 130.25 97.8636 130.25C98.1989 130.25 98.6591 130.307 98.8864 130.38V128.233C98.6705 128.182 98.3693 128.147 98.125 128.147C97.1477 128.147 96.3466 128.716 96.0284 129.795H95.9375V128.272H93.5909V137Z" fill="#00559B"/>
<path d="M101.898 140.272C103.699 140.272 104.653 139.352 105.148 137.943L108.54 128.284L105.977 128.272L104.153 134.682H104.062L102.256 128.272H99.7102L102.841 137.25L102.699 137.619C102.381 138.437 101.773 138.477 100.92 138.216L100.375 140.022C100.722 140.17 101.284 140.272 101.898 140.272Z" fill="#00559B"/>
<path d="M117.425 137.17C120.072 137.17 121.72 135.358 121.72 132.67C121.72 129.966 120.072 128.159 117.425 128.159C114.777 128.159 113.129 129.966 113.129 132.67C113.129 135.358 114.777 137.17 117.425 137.17ZM117.436 135.295C116.214 135.295 115.589 134.176 115.589 132.653C115.589 131.13 116.214 130.005 117.436 130.005C118.635 130.005 119.26 131.13 119.26 132.653C119.26 134.176 118.635 135.295 117.436 135.295Z" fill="#00559B"/>
<path d="M127.936 128.272H126.294V126.182H123.874V128.272H122.68V130.091H123.874V134.636C123.862 136.346 125.027 137.193 126.783 137.119C127.408 137.096 127.851 136.971 128.095 136.892L127.714 135.091C127.595 135.113 127.339 135.17 127.112 135.17C126.629 135.17 126.294 134.988 126.294 134.318V130.091H127.936V128.272Z" fill="#00559B"/>
<path d="M132.121 131.954C132.126 130.829 132.814 130.17 133.803 130.17C134.786 130.17 135.365 130.801 135.359 131.875V137H137.78V131.443C137.786 129.397 136.581 128.159 134.763 128.159C133.439 128.159 132.553 128.784 132.155 129.812H132.053V125.363H129.7V137H132.121V131.954Z" fill="#00559B"/>
<path d="M143.662 137.17C145.821 137.17 147.276 136.119 147.616 134.5L145.378 134.352C145.134 135.017 144.509 135.363 143.702 135.363C142.491 135.363 141.724 134.562 141.724 133.261V133.255H147.668V132.591C147.668 129.625 145.872 128.159 143.565 128.159C140.997 128.159 139.332 129.983 139.332 132.676C139.332 135.443 140.974 137.17 143.662 137.17ZM141.724 131.755C141.776 130.761 142.531 129.966 143.605 129.966C144.656 129.966 145.384 130.716 145.389 131.755H141.724Z" fill="#00559B"/>
<path d="M149.247 137H151.668V132.062C151.668 130.988 152.452 130.25 153.52 130.25C153.855 130.25 154.315 130.307 154.543 130.38V128.233C154.327 128.182 154.026 128.147 153.781 128.147C152.804 128.147 152.003 128.716 151.685 129.795H151.594V128.272H149.247V137Z" fill="#00559B"/>
<path d="M160.991 140.272C162.793 140.272 163.747 139.352 164.241 137.943L167.634 128.284L165.071 128.272L163.247 134.682H163.156L161.349 128.272H158.804L161.935 137.25L161.793 137.619C161.474 138.437 160.866 138.477 160.014 138.216L159.469 140.022C159.815 140.17 160.378 140.272 160.991 140.272Z" fill="#00559B"/>
<path d="M172.553 137.17C174.712 137.17 176.166 136.119 176.507 134.5L174.268 134.352C174.024 135.017 173.399 135.363 172.592 135.363C171.382 135.363 170.615 134.562 170.615 133.261V133.255H176.558V132.591C176.558 129.625 174.763 128.159 172.456 128.159C169.888 128.159 168.223 129.983 168.223 132.676C168.223 135.443 169.865 137.17 172.553 137.17ZM170.615 131.755C170.666 130.761 171.422 129.966 172.496 129.966C173.547 129.966 174.274 130.716 174.28 131.755H170.615Z" fill="#00559B"/>
<path d="M180.626 137.165C181.916 137.165 182.751 136.602 183.178 135.79H183.246V137H185.541V131.113C185.541 129.034 183.78 128.159 181.837 128.159C179.746 128.159 178.371 129.159 178.036 130.75L180.274 130.932C180.439 130.352 180.956 129.926 181.825 129.926C182.649 129.926 183.121 130.341 183.121 131.057V131.091C183.121 131.653 182.524 131.727 181.007 131.875C179.28 132.034 177.729 132.613 177.729 134.562C177.729 136.29 178.962 137.165 180.626 137.165ZM181.32 135.494C180.575 135.494 180.041 135.147 180.041 134.483C180.041 133.801 180.604 133.466 181.456 133.346C181.984 133.272 182.848 133.147 183.138 132.954V133.88C183.138 134.795 182.382 135.494 181.32 135.494Z" fill="#00559B"/>
<path d="M187.419 137H189.839V132.062C189.839 130.988 190.624 130.25 191.692 130.25C192.027 130.25 192.487 130.307 192.714 130.38V128.233C192.499 128.182 192.197 128.147 191.953 128.147C190.976 128.147 190.175 128.716 189.857 129.795H189.766V128.272H187.419V137Z" fill="#00559B"/>
<defs>
<linearGradient id="paint0_linear" x1="159.566" y1="233.022" x2="418.282" y2="243.431" gradientUnits="userSpaceOnUse">
<stop stop-color="#7AC142"/>
<stop offset="1" stop-color="#A3E56A"/>
</linearGradient>
<linearGradient id="paint1_linear" x1="226.491" y1="124.335" x2="226.491" y2="236.446" gradientUnits="userSpaceOnUse">
<stop stop-color="#A3E56A"/>
<stop offset="1" stop-color="#7AC142"/>
</linearGradient>
<linearGradient id="paint2_linear" x1="225.461" y1="72.0664" x2="225.461" y2="139.934" gradientUnits="userSpaceOnUse">
<stop stop-color="#0069AA"/>
<stop offset="1" stop-color="#045D95"/>
</linearGradient>
<linearGradient id="paint3_linear" x1="295.007" y1="143.432" x2="295.007" y2="180.391" gradientUnits="userSpaceOnUse">
<stop stop-color="#FF6A52"/>
<stop offset="1" stop-color="#EA5941"/>
</linearGradient>
<linearGradient id="paint4_linear" x1="295.149" y1="79.2676" x2="295.149" y2="147.135" gradientUnits="userSpaceOnUse">
<stop stop-color="#A3E56A"/>
<stop offset="1" stop-color="#7AC142"/>
</linearGradient>
</defs>
</svg>
