<svg width="160" height="97" viewBox="0 0 160 97" fill="none" xmlns="http://www.w3.org/2000/svg">
<path d="M144.216 35.1342H123.61C117.671 35.1342 112.849 30.3153 112.849 24.3813C112.849 16.9738 106.83 11 99.4565 11H31.9778C24.5643 11 18.5856 17.0136 18.5856 24.3813V35.7316C18.5856 43.1391 24.6041 49.1129 31.9778 49.1129H39.192C43.7357 49.1129 47.4026 52.7769 47.4026 57.317C47.4026 61.8571 43.7357 65.521 39.192 65.521H10.1757C5.07395 65.521 0.968628 69.623 0.968628 74.7207C0.968628 79.8183 5.07395 83.9203 10.1757 83.9203H132.538C134.571 83.9203 136.205 82.2875 136.205 80.2564C136.205 77.1898 138.676 74.7207 141.745 74.7207H144.216C152.945 74.7207 160 67.6716 160 58.9498V50.8652C160 42.1833 152.945 35.1342 144.216 35.1342Z" fill="#E2F7D1"/>
<path d="M108.423 45.7785C99.7223 8.889 68.8245 10.597 68.8245 10.597C68.8245 10.597 44.2188 29.3708 66.0365 63.8494C66.9598 65.3115 68.0225 66.6423 69.2472 67.8825C73.7286 72.3815 84.9597 81.8229 96.3636 77.1081C107.646 72.4612 109.059 58.1463 109.101 51.6545C109.11 49.6716 108.87 47.7205 108.423 45.7785Z" fill="#7AC142"/>
<path d="M92.7421 25.9936C91.6762 25.8942 90.7137 26.6459 90.6194 27.7143C89.8017 36.2434 83.0148 38.7527 80.1786 39.4821C74.3211 28.4281 71.9404 16.554 71.9126 16.4091C71.6955 15.3544 70.6857 14.6891 69.6753 14.8794C68.6245 15.0924 67.9656 16.102 68.16 17.1161C68.2383 17.4465 69.1823 22.3718 71.4294 28.8677C69.9834 29.5154 67.4181 30.2538 65.1908 28.9323C64.2492 28.3892 63.0768 28.6701 62.5395 29.6118C62.0022 30.5536 62.2876 31.7305 63.2292 32.2736C66.7422 34.3735 70.4039 33.5036 72.6477 32.5706C72.6882 32.548 72.7287 32.5254 72.7693 32.5027C74.0485 35.7439 75.6087 39.2023 77.4981 42.5836C77.8168 43.154 78.1355 43.7243 78.4947 44.272C80.2602 47.2415 82.2001 50.8084 84.069 54.6289C82.7517 55.7926 79.687 57.8259 74.104 58.1121C73.0253 58.1802 72.2576 59.0903 72.3077 60.1315C72.3805 61.2135 73.2915 61.9874 74.3296 61.942C77.525 61.7603 80.0319 61.1079 82.0098 60.27C83.6003 59.5952 84.8337 58.8525 85.7785 58.1643C90.7805 68.734 95.3313 80.3044 97.0243 86.0942C97.3225 87.1037 98.4134 87.7237 99.4187 87.4292C99.4997 87.3839 99.563 87.402 99.6441 87.3567C100.541 86.9627 101.015 86.0029 100.739 85.0342C98.2427 76.3789 89.4211 55.1667 82.1946 42.8996C82.7492 42.7501 83.3215 42.5373 83.871 42.2836C88.4397 40.3724 93.6655 36.1159 94.4626 28.0259C94.5619 27.0616 93.808 26.093 92.7421 25.9936Z" fill="#8CDD45"/>
</svg>
