<svg width="801" height="150" viewBox="0 0 801 150" fill="none" xmlns="http://www.w3.org/2000/svg">
<g clip-path="url(#clip0)">
<path d="M71.8135 143.08C71.4394 138.965 74.4317 135.224 78.7332 134.85C82.8476 134.476 86.5879 137.469 86.962 141.771C87.336 145.885 84.3437 149.626 80.0423 150C75.9279 150.374 72.1875 147.382 71.8135 143.08Z" fill="#7BC043"/>
<path d="M71.441 124.751C71.0669 121.384 73.4982 118.392 76.8645 118.204C80.2308 117.83 83.2231 120.262 83.4101 123.628C83.7842 126.995 81.3529 129.988 77.9866 130.175C74.8073 130.549 71.815 128.117 71.441 124.751Z" fill="#7BC043"/>
<path d="M71.8133 108.853C71.6263 106.608 73.3095 104.551 75.5537 104.364C77.7979 104.177 79.8552 105.86 80.0422 108.105C80.2292 110.349 78.546 112.406 76.3018 112.593C74.0576 112.781 72.0003 111.097 71.8133 108.853Z" fill="#7BC043"/>
<path d="M41.331 135.037C42.8271 131.11 47.3156 129.239 51.243 130.736C55.1704 132.232 57.0405 136.721 55.5444 140.648C54.0482 144.576 49.5598 146.446 45.6324 144.95C41.705 143.267 39.8349 138.965 41.331 135.037Z" fill="#7BC043"/>
<path d="M49.3728 118.579C50.6819 115.399 54.0483 113.903 57.2276 115.025C60.4069 116.334 61.903 119.701 60.7809 122.88C59.4718 126.06 56.1055 127.556 52.9261 126.434C49.7468 125.125 48.0637 121.758 49.3728 118.579Z" fill="#7BC043"/>
<path d="M56.8536 104.364C57.6016 102.307 60.0329 101.185 62.2771 101.933C64.5213 102.681 65.4564 105.112 64.7083 107.357C63.9603 109.601 61.529 110.536 59.2848 109.788C57.0406 109.04 56.1055 106.609 56.8536 104.364Z" fill="#7BC043"/>
<path d="M17.7668 114.09C20.9461 111.284 25.6215 111.471 28.4268 114.651C31.2321 117.83 31.0451 122.506 27.8658 125.312C24.6864 128.117 20.011 127.93 17.2057 124.751C14.4004 121.571 14.5874 116.895 17.7668 114.09Z" fill="#7BC043"/>
<path d="M32.3542 102.868C34.7855 100.623 38.7129 100.81 40.9571 103.242C43.2013 105.673 43.0143 109.601 40.5831 111.845C38.1518 114.09 34.2244 113.903 31.9802 111.471C29.736 109.04 29.923 105.112 32.3542 102.868Z" fill="#7BC043"/>
<path d="M45.4455 93.7032C47.1287 92.207 49.7469 92.207 51.4301 94.0773C52.9262 95.7606 52.7392 98.3791 51.056 100.062C49.3729 101.559 46.7546 101.559 45.0715 99.6883C43.5753 97.818 43.7623 95.1995 45.4455 93.7032Z" fill="#7BC043"/>
<path d="M6.17158 84.7257C10.286 83.6035 14.4004 86.0349 15.5225 90.1496C16.6446 94.2643 14.2134 98.379 10.099 99.5012C5.98457 100.623 1.87016 98.192 0.748049 94.0773C-0.187044 89.9626 2.2442 85.8479 6.17158 84.7257Z" fill="#7BC043"/>
<path d="M24.3123 81.3591C27.4916 80.4239 30.858 82.4813 31.7931 85.6608C32.7282 88.8404 30.671 92.207 27.4916 93.1422C24.3123 94.0773 20.946 92.02 20.0109 88.8404C19.0758 85.6608 20.946 82.2943 24.3123 81.3591Z" fill="#7BC043"/>
<path d="M40.022 79.1147C42.2662 78.5536 44.5104 79.8628 45.0715 82.1072C45.6325 84.3516 44.3234 86.596 42.0792 87.1571C39.835 87.7182 37.5907 86.409 37.0297 84.1646C36.6557 81.9202 37.9648 79.6758 40.022 79.1147Z" fill="#7BC043"/>
<path d="M9.16387 53.3042C13.2783 54.0523 15.8965 58.167 15.1485 62.2817C14.4004 66.3965 10.286 69.0149 6.17157 68.2668C1.87015 67.3316 -0.748112 63.4039 0.186981 59.2892C0.935055 55.1745 5.04946 52.369 9.16387 53.3042Z" fill="#7BC043"/>
<path d="M26.7436 58.3541C30.1099 59.1022 32.1671 62.2818 31.419 65.4613C30.671 68.8279 27.4917 70.8853 24.3123 70.1371C20.946 69.389 18.8888 66.2094 19.6369 63.0299C20.1979 59.8503 23.3773 57.793 26.7436 58.3541Z" fill="#7BC043"/>
<path d="M41.8921 63.591C44.1363 63.965 45.6325 66.2094 45.0714 68.4538C44.6974 70.6982 42.4531 72.1945 40.2089 71.6334C37.9647 71.2593 36.4685 69.0149 37.0296 66.7705C37.4036 64.5261 39.6479 63.0299 41.8921 63.591Z" fill="#7BC043"/>
<path d="M25.8085 26.5586C29.1749 29.177 29.7359 33.8528 27.1177 37.2194C24.4994 40.586 19.8239 41.1471 16.4576 38.5287C13.0913 35.9102 12.5302 31.2344 15.1485 27.8678C17.7667 24.5012 22.6292 23.9401 25.8085 26.5586Z" fill="#7BC043"/>
<path d="M39.2739 39.0898C41.8921 41.1472 42.2662 45.0748 40.209 47.6933C38.1518 50.3117 34.2244 50.6858 31.6061 48.6285C28.9879 46.5711 28.6138 42.6434 30.671 40.025C32.7282 37.4065 36.6556 37.0324 39.2739 39.0898Z" fill="#7BC043"/>
<path d="M50.495 50.4987C52.3652 51.995 52.5522 54.6134 51.2431 56.2967C49.7469 58.167 47.1286 58.3541 45.4455 57.0448C43.5753 55.5486 43.3883 52.9301 44.6974 51.2468C46.1935 49.3765 48.8118 49.0024 50.495 50.4987Z" fill="#7BC043"/>
<path d="M52.9262 10.2869C54.6094 14.0275 53.1132 18.7033 49.1858 20.3866C45.4455 22.0699 40.77 20.5736 39.0868 16.646C37.4037 12.9053 38.8998 8.22951 42.8272 6.54621C46.5676 4.86292 51.056 6.35918 52.9262 10.2869Z" fill="#7BC043"/>
<path d="M59.0977 27.4938C60.5939 30.4864 59.0977 34.227 56.1055 35.5362C53.1132 37.0325 49.3728 35.5362 48.0637 32.5437C46.5675 29.5512 48.0637 25.8106 51.056 24.5013C54.0482 23.0051 57.7886 24.3143 59.0977 27.4938Z" fill="#7BC043"/>
<path d="M64.1473 42.6435C65.0824 44.7008 64.1473 47.1323 62.0901 48.2545C60.0329 49.1896 57.6017 48.2545 56.4796 46.1971C55.5445 44.1397 56.4796 41.7083 58.5368 40.5861C60.594 39.651 63.2122 40.5861 64.1473 42.6435Z" fill="#7BC043"/>
<path d="M84.3453 7.85535C84.1583 11.9701 80.6049 15.3366 76.4905 15.1496C72.3761 14.9626 69.0098 11.409 69.1968 7.29425C69.3838 3.17954 72.9372 -0.187044 77.0516 -1.14879e-05C81.166 0.187021 84.3453 3.74064 84.3453 7.85535Z" fill="#7BC043"/>
<path d="M82.1012 25.9976C81.9141 29.3641 79.1089 31.9826 75.7425 31.7956C72.3762 31.6085 69.758 28.8031 69.945 25.4365C70.132 22.0699 72.9373 19.4514 76.3036 19.6385C79.6699 19.8255 82.2882 22.631 82.1012 25.9976Z" fill="#7BC043"/>
<path d="M79.6699 41.8952C79.6699 44.1396 77.6127 46.01 75.3684 46.01C73.1242 46.01 71.254 43.9526 71.254 41.7082C71.254 39.4638 73.3112 37.5935 75.5555 37.5935C77.9867 37.5935 79.8569 39.6509 79.6699 41.8952Z" fill="#7BC043"/>
<path d="M111.276 113.529C111.65 106.983 111.837 102.12 111.837 92.9552V56.6709C111.837 47.6934 111.089 40.7732 109.593 34.2271H118.57C123.245 34.2271 126.986 33.853 129.978 33.666C133.157 33.2919 135.588 33.1049 137.833 33.1049C155.412 33.1049 165.698 41.5213 165.698 57.045C165.698 81.9203 135.962 85.0999 128.482 85.0999V93.3293C128.482 102.307 128.856 108.105 129.043 113.903H111.276V113.529ZM128.669 72.5687C132.97 72.5687 149.054 71.0724 149.054 57.232C149.054 49.3767 143.817 45.262 136.523 45.262C133.905 45.262 131.287 45.449 128.669 45.8231V72.5687Z" fill="#0069AA"/>
<path d="M161.958 113.529C165.324 104.738 168.878 96.5088 172.431 86.7831L177.855 71.8205C181.595 61.3467 186.27 48.4415 187.58 36.2844L209.087 32.3567C210.583 40.5861 215.258 55.9228 219.934 69.0151L225.17 83.9777C228.911 94.8255 233.586 105.299 237.701 113.716H218.251C215.632 106.609 212.266 95.7607 210.77 91.459H186.27C184.587 97.0699 181.782 108.105 180.473 113.716H161.958V113.529ZM207.778 80.6111C205.72 73.3168 201.232 58.9153 198.988 47.3193H198.801C196.182 58.7283 191.694 72.0076 189.076 80.6111H207.778Z" fill="#0069AA"/>
<path d="M248.173 113.529C248.547 106.234 248.734 101.933 248.734 89.4015V46.3841H243.311C239.571 46.3841 232.464 46.5711 226.105 47.5063L226.853 34.0399H270.99C277.535 34.0399 283.333 33.6659 288.008 32.9177L287.26 46.3841H265.566V89.4015C265.566 101.933 265.94 108.105 266.127 113.529H248.173Z" fill="#0069AA"/>
<path d="M299.416 113.529C299.791 106.983 299.978 102.12 299.978 92.9552V56.6709C299.978 47.6934 299.229 40.7732 297.733 34.2271H317.183C316.996 39.838 316.622 47.8804 316.622 56.6709V64.9004H346.545V56.6709C346.545 47.6934 345.797 40.7732 344.301 34.2271H363.751C363.564 39.838 363.19 47.8804 363.19 56.6709V92.9552C363.19 99.1273 363.564 107.731 363.751 113.529H345.984C346.358 106.983 346.545 102.12 346.545 92.9552V77.0575H316.622V92.9552C316.622 99.1273 316.996 107.731 317.183 113.529H299.416Z" fill="#0069AA"/>
<path d="M394.796 37.2195H402.838C407.887 37.2195 411.44 39.8379 411.44 44.8878C411.44 50.8728 406.391 52.7432 401.903 52.7432H397.975L397.788 63.7781H394.609L394.796 37.2195ZM397.975 50.1247H402.277C405.082 50.1247 408.074 48.6285 408.074 44.7008C408.074 41.8953 406.391 39.2768 402.09 39.2768H397.975V50.1247Z" fill="#0069AA"/>
<path d="M424.345 43.9526C429.955 43.9526 433.322 47.8803 433.322 54.0524C433.322 58.9152 429.955 64.1521 423.971 64.1521C418.36 64.1521 414.994 60.4115 414.994 54.0524C414.807 49.1895 418.173 43.9526 424.345 43.9526ZM423.971 61.9078C426.963 61.9078 429.955 59.4763 429.955 54.0524C429.955 48.8155 427.337 46.197 424.158 46.197C421.165 46.197 418.173 48.6284 418.173 54.0524C418.173 59.4763 420.791 61.9078 423.971 61.9078Z" fill="#0069AA"/>
<path d="M438.932 44.5137H442.112V47.1322C443.047 45.4489 445.478 43.9526 448.096 43.9526C451.462 43.9526 455.951 46.3841 455.951 53.8654C455.951 58.9152 452.398 64.1521 447.535 64.1521C444.917 64.1521 443.047 63.0299 442.112 61.7207V73.3167H438.932V44.5137ZM441.925 58.5412C443.234 60.5985 444.917 61.5337 446.787 61.5337C450.153 61.5337 452.585 57.793 452.585 54.0524C452.585 48.8155 450.153 46.5711 447.535 46.5711C445.104 46.5711 443.047 48.4414 442.112 50.1247L441.925 58.5412Z" fill="#0069AA"/>
<path d="M461.935 44.5138H465.115V53.1173C465.115 54.8006 465.115 56.4839 465.115 58.3542C465.115 60.4115 466.424 61.3467 468.668 61.3467C470.725 61.3467 472.408 60.2245 474.466 57.7931L474.653 44.5138H477.832L477.271 63.5911H474.092L474.279 60.5986C472.595 62.843 469.977 64.1522 467.733 64.1522C463.245 64.1522 461.748 61.9078 461.748 58.3542C461.748 56.8579 461.748 55.3617 461.748 54.0524L461.935 44.5138Z" fill="#0069AA"/>
<path d="M484.378 34.9751H487.557L487.183 63.5911H484.004L484.378 34.9751Z" fill="#0069AA"/>
<path d="M511.121 62.8429C509.999 63.7781 508.877 64.1522 507.568 64.1522C505.885 64.1522 504.763 62.6559 504.763 60.9726C503.267 62.8429 501.396 64.1522 498.965 64.1522C495.599 64.1522 493.355 61.9078 493.355 58.5412C493.355 53.1172 500.461 51.808 504.576 51.621C504.576 50.8729 504.576 49.9377 504.576 49.1896C504.576 47.5063 503.641 46.3841 501.583 46.3841C500.087 46.3841 498.778 46.9452 495.973 49.0025L494.664 46.9452C498.591 44.5138 499.713 43.7656 502.518 43.7656C505.698 43.7656 507.381 45.636 507.381 48.6285C507.381 52.1821 507.007 55.5487 507.007 58.9153C507.007 60.2245 507.194 61.7207 508.316 61.7207C509.064 61.7207 509.438 61.3467 509.999 61.1596L511.121 62.8429ZM504.576 53.6783C499.152 54.4265 496.347 55.3616 496.347 58.5412C496.347 60.5985 497.656 61.7207 499.713 61.7207C501.583 61.7207 503.08 60.4115 504.202 58.9153L504.576 53.6783Z" fill="#0069AA"/>
<path d="M516.732 44.5137V37.4065H519.911V44.5137H525.148V46.7581H519.911V54.6135C519.911 56.6708 519.911 58.1671 519.911 59.1023C519.911 60.5985 520.285 61.5337 521.781 61.5337C522.903 61.5337 524.213 60.9726 524.961 60.4115L525.896 62.4688C524.587 63.404 522.716 64.1521 521.033 64.1521C518.041 64.1521 516.919 62.2818 516.919 59.2893C516.919 57.9801 516.919 56.4838 516.919 53.8654V46.9452H513.553V44.7008H516.732V44.5137Z" fill="#0069AA"/>
<path d="M529.823 37.2195H533.189V40.5861H529.823V37.2195ZM529.823 44.5137H533.002L532.815 63.591H529.636L529.823 44.5137Z" fill="#0069AA"/>
<path d="M548.151 43.9526C553.761 43.9526 557.128 47.8803 557.128 54.0524C557.128 58.9152 553.761 64.1521 547.777 64.1521C542.166 64.1521 538.8 60.4115 538.8 54.0524C538.8 49.1895 542.166 43.9526 548.151 43.9526ZM547.964 61.9078C550.956 61.9078 553.949 59.4763 553.949 54.0524C553.949 48.8155 551.33 46.197 548.151 46.197C545.159 46.197 542.166 48.6284 542.166 54.0524C542.166 59.4763 544.785 61.9078 547.964 61.9078Z" fill="#0069AA"/>
<path d="M562.364 44.5137H565.544L565.357 47.5063C567.04 45.2619 569.658 43.9526 571.902 43.9526C576.391 43.9526 577.887 46.197 577.887 49.7506C577.887 51.2469 577.887 52.7432 577.887 54.0524V63.591H574.708V54.9875C574.708 53.3043 574.708 51.621 574.708 49.7506C574.708 47.6933 573.399 46.7581 571.154 46.7581C569.097 46.7581 567.414 47.8803 565.357 50.3117L565.17 63.591H561.99L562.364 44.5137Z" fill="#0069AA"/>
<path d="M606.314 37.2195H609.493L620.153 63.217L616.787 64.3392L613.046 54.9876H602.012L598.085 64.3392L594.905 63.404L606.314 37.2195ZM607.81 40.212L603.321 52.1821H612.111L607.81 40.212Z" fill="#0069AA"/>
<path d="M624.641 60.2245C625.764 60.9726 627.26 61.9078 628.943 61.9078C630.626 61.9078 632.683 60.9726 632.683 58.9152C632.683 54.2394 623.706 56.2968 623.706 49.7506C623.706 46.197 626.699 43.9526 630.252 43.9526C632.496 43.9526 634.367 44.5137 635.863 45.6359L634.367 47.5063C633.244 46.9452 632.122 46.197 630.626 46.197C628.382 46.197 626.699 47.1322 626.699 49.3766C626.699 53.4913 635.676 51.808 635.676 58.3541C635.676 61.9078 632.496 64.1521 629.317 64.1521C627.073 64.1521 625.016 63.404 623.332 62.2818L624.641 60.2245Z" fill="#0069AA"/>
<path d="M641.473 60.2245C642.595 60.9726 644.091 61.9078 645.775 61.9078C647.458 61.9078 649.515 60.9726 649.515 58.9152C649.515 54.2394 640.538 56.2968 640.538 49.7506C640.538 46.197 643.53 43.9526 647.084 43.9526C649.328 43.9526 651.198 44.5137 652.694 45.6359L651.198 47.5063C650.076 46.9452 648.954 46.197 647.458 46.197C645.214 46.197 643.53 47.1322 643.53 49.3766C643.53 53.4913 652.507 51.808 652.507 58.3541C652.507 61.9078 649.328 64.1521 646.149 64.1521C643.904 64.1521 641.847 63.404 640.164 62.2818L641.473 60.2245Z" fill="#0069AA"/>
<path d="M660.362 53.6783V54.2394C660.362 58.1671 661.858 61.7207 665.786 61.7207C668.03 61.7207 669.713 60.4115 671.209 58.9153L672.705 60.5986C670.648 62.4689 668.217 63.9651 665.411 63.9651C659.988 63.9651 656.996 60.0374 656.996 53.8654C656.996 48.6285 660.736 43.7656 665.786 43.7656C671.022 43.7656 673.266 47.6933 673.266 52.7432V53.3043H660.362V53.6783ZM670.274 51.621C670.274 48.8155 669.152 46.3841 665.973 46.3841C662.98 46.3841 661.11 49.0025 660.736 51.621H670.274Z" fill="#0069AA"/>
<path d="M679.251 60.2245C680.373 60.9726 681.869 61.9078 683.552 61.9078C685.236 61.9078 687.293 60.9726 687.293 58.9152C687.293 54.2394 678.316 56.2968 678.316 49.7506C678.316 46.197 681.308 43.9526 684.862 43.9526C687.106 43.9526 688.976 44.5137 690.472 45.6359L688.976 47.5063C687.854 46.9452 686.732 46.197 685.236 46.197C682.991 46.197 681.308 47.1322 681.308 49.3766C681.308 53.4913 690.285 51.808 690.285 58.3541C690.285 61.9078 687.106 64.1521 683.927 64.1521C681.682 64.1521 679.625 63.404 677.942 62.2818L679.251 60.2245Z" fill="#0069AA"/>
<path d="M695.896 60.2245C697.018 60.9726 698.514 61.9078 700.197 61.9078C701.88 61.9078 703.937 60.9726 703.937 58.9152C703.937 54.2394 694.96 56.2968 694.96 49.7506C694.96 46.197 697.953 43.9526 701.506 43.9526C703.75 43.9526 705.621 44.5137 707.117 45.6359L705.621 47.5063C704.499 46.9452 703.376 46.197 701.88 46.197C699.636 46.197 697.953 47.1322 697.953 49.3766C697.953 53.4913 706.93 51.808 706.93 58.3541C706.93 61.9078 703.75 64.1521 700.571 64.1521C698.327 64.1521 696.27 63.404 694.586 62.2818L695.896 60.2245Z" fill="#0069AA"/>
<path d="M713.101 44.5137H716.281V47.3192C717.964 45.4489 720.021 43.9526 722.639 43.9526C725.07 43.9526 726.941 45.0748 727.502 47.5063C729.185 45.6359 731.803 43.9526 734.234 43.9526C738.162 43.9526 739.658 46.197 739.658 49.7506C739.658 51.2469 739.658 52.7432 739.658 54.0524V63.591H736.479V54.9875C736.479 53.3043 736.479 51.621 736.479 49.7506C736.479 47.6933 735.169 46.7581 733.486 46.7581C731.242 46.7581 729.559 48.0673 728.063 49.9377L727.876 63.591H724.883V54.9875C724.883 53.3043 724.883 51.621 724.883 49.7506C724.883 47.6933 723.574 46.7581 721.891 46.7581C719.647 46.7581 717.964 48.0673 716.468 49.9377L716.281 63.591H713.101V44.5137Z" fill="#0069AA"/>
<path d="M748.822 53.6783V54.2394C748.822 58.1671 750.318 61.7207 754.245 61.7207C756.489 61.7207 758.173 60.4115 759.669 58.9153L761.165 60.5986C759.108 62.4689 756.677 63.9651 753.871 63.9651C748.448 63.9651 745.455 60.0374 745.455 53.8654C745.455 48.6285 749.196 43.7656 754.245 43.7656C759.482 43.7656 761.726 47.6933 761.726 52.7432V53.3043H748.822V53.6783ZM758.734 51.621C758.734 48.8155 757.612 46.3841 754.432 46.3841C751.44 46.3841 749.57 49.0025 749.196 51.621H758.734Z" fill="#0069AA"/>
<path d="M768.085 44.5137H771.264L771.077 47.5063C772.76 45.2619 775.378 43.9526 777.622 43.9526C782.111 43.9526 783.607 46.197 783.607 49.7506C783.607 51.2469 783.607 52.7432 783.607 54.0524V63.591H780.428V54.9875C780.428 53.3043 780.428 51.621 780.428 49.7506C780.428 47.6933 779.119 46.7581 776.874 46.7581C774.817 46.7581 773.134 47.8803 771.077 50.3117L770.89 63.591H767.711L768.085 44.5137Z" fill="#0069AA"/>
<path d="M792.21 44.5137V37.4065H795.389V44.5137H800.626V46.7581H795.389V54.6135C795.389 56.6708 795.389 58.1671 795.389 59.1023C795.389 60.5985 795.764 61.5337 797.26 61.5337C798.382 61.5337 799.691 60.9726 800.439 60.4115L801.374 62.4688C800.065 63.404 798.195 64.1521 796.512 64.1521C793.519 64.1521 792.397 62.2818 792.397 59.2893C792.397 57.9801 792.397 56.4838 792.397 53.8654V46.9452H789.031V44.7008H792.21V44.5137Z" fill="#0069AA"/>
<path d="M403.399 88.8405C409.009 88.8405 412.376 92.7681 412.376 98.9402C412.376 103.803 409.009 109.04 403.025 109.04C397.414 109.04 394.048 105.299 394.048 98.9402C394.048 94.0774 397.414 88.8405 403.399 88.8405ZM403.025 106.796C406.017 106.796 409.009 104.364 409.009 98.9402C409.009 93.7033 406.391 91.0848 403.212 91.0848C400.219 91.0848 397.227 93.5163 397.227 98.9402C397.414 104.177 400.032 106.796 403.025 106.796Z" fill="#0069AA"/>
<path d="M416.49 89.4015H420.23C420.23 88.2793 420.23 86.9701 420.417 85.6609C420.791 80.985 424.158 79.3018 428.459 79.3018V81.9202H427.15C424.532 81.9202 423.41 83.9776 423.41 86.222L423.223 89.2145H428.459V91.6459H423.223L423.036 108.479H419.856L420.043 91.6459H416.303V89.4015H416.49Z" fill="#0069AA"/>
<path d="M443.047 81.9203H463.432V84.7258H455.016L454.642 108.479H451.275L451.462 84.7258H443.047V81.9203Z" fill="#0069AA"/>
<path d="M474.653 88.8405C480.263 88.8405 483.63 92.7681 483.63 98.9402C483.63 103.803 480.263 109.04 474.279 109.04C468.668 109.04 465.302 105.299 465.302 98.9402C465.115 94.0774 468.481 88.8405 474.653 88.8405ZM474.279 106.796C477.271 106.796 480.263 104.364 480.263 98.9402C480.263 93.7033 477.645 91.0848 474.466 91.0848C471.474 91.0848 468.481 93.5163 468.481 98.9402C468.481 104.177 471.099 106.796 474.279 106.796Z" fill="#0069AA"/>
<path d="M489.801 79.6758H492.98V91.8329C493.916 90.1496 496.347 88.6533 498.965 88.6533C502.331 88.6533 506.82 91.0848 506.82 98.5661C506.82 103.616 503.266 108.853 498.404 108.853C495.786 108.853 493.916 107.731 492.98 106.421L492.793 108.292H489.801V79.6758ZM492.793 103.429C494.103 105.486 495.786 106.421 497.656 106.421C501.022 106.421 503.454 102.681 503.454 98.9401C503.454 93.7032 501.022 91.4588 498.404 91.4588C495.973 91.4588 493.916 93.3292 492.98 95.0124L492.793 103.429Z" fill="#0069AA"/>
<path d="M528.701 107.731C527.579 108.666 526.457 109.04 525.148 109.04C523.465 109.04 522.342 107.544 522.342 105.86C520.846 107.731 518.976 109.04 516.545 109.04C513.179 109.04 510.934 106.796 510.934 103.429C510.934 98.0051 518.041 96.6958 522.155 96.5088C522.155 95.7607 522.155 94.8255 522.155 94.0774C522.155 92.3941 521.22 91.2719 519.163 91.2719C517.667 91.2719 516.358 91.833 513.553 93.8903L512.243 91.833C516.171 89.4016 517.293 88.6534 520.098 88.6534C523.278 88.6534 524.961 90.5238 524.961 93.5163C524.961 97.0699 524.587 100.436 524.587 103.803C524.587 105.112 524.774 106.609 525.896 106.609C526.644 106.609 527.018 106.234 527.579 106.047L528.701 107.731ZM522.155 98.5662C516.732 99.3143 513.927 100.249 513.927 103.429C513.927 105.486 515.236 106.609 517.293 106.609C519.163 106.609 520.659 105.299 521.781 103.803L522.155 98.5662Z" fill="#0069AA"/>
<path d="M544.785 93.7033C543.662 92.207 542.166 91.4589 540.67 91.4589C537.865 91.4589 534.873 94.2644 534.873 99.5013C534.873 103.803 537.678 106.422 540.67 106.422C542.353 106.422 544.036 105.112 544.972 103.99L546.655 105.86C544.785 108.105 542.727 109.04 540.109 109.04C535.247 109.04 531.506 105.299 531.506 98.9402C531.506 93.7033 535.247 88.8405 540.483 88.8405C542.914 88.8405 545.346 90.1497 546.842 92.02L544.785 93.7033Z" fill="#0069AA"/>
<path d="M563.112 93.7033C561.99 92.207 560.494 91.4589 558.998 91.4589C556.193 91.4589 553.2 94.2644 553.2 99.5013C553.2 103.803 556.006 106.422 558.998 106.422C560.681 106.422 562.364 105.112 563.299 103.99L564.983 105.86C563.112 108.105 561.055 109.04 558.437 109.04C553.574 109.04 549.834 105.299 549.834 98.9402C549.834 93.7033 553.574 88.8405 558.811 88.8405C561.242 88.8405 563.673 90.1497 565.17 92.02L563.112 93.7033Z" fill="#0069AA"/>
<path d="M577.513 88.8405C583.123 88.8405 586.49 92.7681 586.49 98.9402C586.49 103.803 583.123 109.04 577.139 109.04C571.528 109.04 568.162 105.299 568.162 98.9402C568.162 94.0774 571.341 88.8405 577.513 88.8405ZM577.139 106.796C580.131 106.796 583.123 104.364 583.123 98.9402C583.123 93.7033 580.505 91.0848 577.326 91.0848C574.333 91.0848 571.341 93.5163 571.341 98.9402C571.528 104.177 574.146 106.796 577.139 106.796Z" fill="#0069AA"/>
<path d="M621.088 107.731C619.966 108.666 618.844 109.04 617.535 109.04C615.852 109.04 614.73 107.544 614.73 105.86C613.233 107.731 611.363 109.04 608.932 109.04C605.566 109.04 603.322 106.796 603.322 103.429C603.322 98.0051 610.428 96.6958 614.543 96.5088C614.543 95.7607 614.543 94.8255 614.543 94.0774C614.543 92.3941 613.607 91.2719 611.55 91.2719C610.054 91.2719 608.745 91.833 605.94 93.8903L604.631 91.833C608.558 89.4016 609.68 88.6534 612.485 88.6534C615.665 88.6534 617.348 90.5238 617.348 93.5163C617.348 97.0699 616.974 100.436 616.974 103.803C616.974 105.112 617.161 106.609 618.283 106.609C619.031 106.609 619.405 106.234 619.966 106.047L621.088 107.731ZM614.543 98.5662C609.119 99.3143 606.314 100.249 606.314 103.429C606.314 105.486 607.623 106.609 609.68 106.609C611.55 106.609 613.046 105.299 614.169 103.803L614.543 98.5662Z" fill="#0069AA"/>
<path d="M625.203 89.4015H628.382L628.195 92.3941C629.878 90.1497 632.496 88.8405 634.74 88.8405C639.229 88.8405 640.725 91.0848 640.725 94.6385C640.725 96.1347 640.725 97.631 640.725 98.9402V108.479H637.546V99.8754C637.546 98.1921 637.546 96.5088 637.546 94.6385C637.546 92.5811 636.237 91.6459 633.992 91.6459C631.935 91.6459 630.252 92.7681 628.195 95.1996L628.008 108.479H624.829L625.203 89.4015Z" fill="#0069AA"/>
<path d="M659.988 79.6758H663.167L662.98 108.479H659.801V105.86C658.866 107.544 656.622 109.04 653.816 109.04C650.45 109.04 646.149 106.608 646.149 99.1272C646.149 93.3292 650.45 88.8404 654.939 88.8404C657.183 88.8404 659.24 89.9626 659.988 91.2718V79.6758ZM659.988 94.4514C658.679 92.207 657.183 91.4588 655.313 91.4588C651.946 91.4588 649.515 95.1995 649.515 98.9401C649.515 104.177 651.946 106.421 654.564 106.421C656.996 106.421 659.053 104.551 659.801 102.868L659.988 94.4514Z" fill="#0069AA"/>
<path d="M682.991 81.9203H686.358L686.171 93.7033H700.571L700.758 81.9203H704.124L703.937 108.479H700.571L700.758 96.5088H686.358L686.171 108.479H682.617L682.991 81.9203Z" fill="#0069AA"/>
<path d="M713.288 98.5661V99.1272C713.288 103.055 714.784 106.609 718.712 106.609C720.956 106.609 722.639 105.299 724.135 103.803L725.631 105.486C723.574 107.357 721.143 108.853 718.338 108.853C712.914 108.853 709.922 104.925 709.922 98.7532C709.922 93.5163 713.662 88.6534 718.712 88.6534C723.948 88.6534 726.192 92.5811 726.192 97.631V98.1921H713.288V98.5661ZM723.2 96.5088C723.2 93.7033 722.078 91.2719 718.899 91.2719C715.907 91.2719 714.036 93.8903 713.662 96.5088H723.2Z" fill="#0069AA"/>
<path d="M748.635 107.731C747.513 108.666 746.391 109.04 745.081 109.04C743.398 109.04 742.276 107.544 742.276 105.86C740.78 107.731 738.91 109.04 736.479 109.04C733.112 109.04 730.868 106.796 730.868 103.429C730.868 98.0051 737.975 96.6958 742.089 96.5088C742.089 95.7607 742.089 94.8255 742.089 94.0774C742.089 92.3941 741.154 91.2719 739.097 91.2719C737.601 91.2719 736.292 91.833 733.486 93.8903L732.177 91.833C736.105 89.4016 737.227 88.6534 740.032 88.6534C743.211 88.6534 744.894 90.5238 744.894 93.5163C744.894 97.0699 744.52 100.436 744.52 103.803C744.52 105.112 744.707 106.609 745.829 106.609C746.578 106.609 746.952 106.234 747.513 106.047L748.635 107.731ZM742.089 98.5662C736.666 99.3143 733.86 100.249 733.86 103.429C733.86 105.486 735.169 106.609 737.227 106.609C739.097 106.609 740.593 105.299 741.715 103.803L742.089 98.5662Z" fill="#0069AA"/>
<path d="M752.749 79.6758H755.928L755.741 108.479H752.562L752.749 79.6758Z" fill="#0069AA"/>
<path d="M764.157 89.4015V82.2943H767.337V89.4015H772.573V91.6459H767.337V99.5013C767.337 101.559 767.337 103.055 767.337 103.99C767.337 105.486 767.711 106.421 769.207 106.421C770.329 106.421 771.638 105.86 772.386 105.299L773.321 107.357C772.012 108.292 770.142 109.04 768.459 109.04C765.466 109.04 764.344 107.17 764.344 104.177C764.344 102.868 764.344 101.372 764.344 98.7531V91.833H760.978V89.5886H764.157V89.4015Z" fill="#0069AA"/>
<path d="M777.249 79.6758H780.428L780.241 92.394C781.737 90.1496 784.355 88.8404 786.787 88.8404C791.275 88.8404 792.771 91.0848 792.771 94.6384C792.771 96.1346 792.771 97.6309 792.771 98.9401V108.479H789.592V99.8753C789.592 98.192 789.592 96.5087 789.592 94.6384C789.592 92.581 788.283 91.6459 786.038 91.6459C783.981 91.6459 782.298 92.7681 780.241 95.1995L780.054 108.479H776.875L777.249 79.6758Z" fill="#0069AA"/>
</g>
<defs>
<clipPath id="clip0">
<rect width="801" height="150" fill="white"/>
</clipPath>
</defs>
</svg>
