<svg width="375" height="226" viewBox="0 0 375 226" fill="none" xmlns="http://www.w3.org/2000/svg">
<path opacity="0.3" d="M235.526 200H-3.75689C-12.727 200 -20 192.735 -20 183.774V182.854C-20 173.894 -12.727 166.629 -3.75689 166.629H235.526C244.496 166.629 251.769 173.894 251.769 182.854V183.774C251.769 192.735 244.496 200 235.526 200Z" fill="#7AC142"/>
<path opacity="0.3" d="M308.976 199.021H283.618C274.648 199.021 267.375 191.756 267.375 182.796C267.375 173.835 274.648 166.57 283.618 166.57H308.976C317.946 166.57 325.219 173.835 325.219 182.796C325.219 191.756 317.946 199.021 308.976 199.021Z" fill="#7AC142"/>
<path d="M179.517 55.5453V72.9998H183.097V61.5964H183.242L187.759 72.9146H190.196L194.713 61.639H194.858V72.9998H198.438V55.5453H193.886L189.08 67.2726H188.875L184.068 55.5453H179.517Z" fill="#00559B"/>
<path d="M207.325 73.2555C211.296 73.2555 213.768 70.5368 213.768 66.5055C213.768 62.4487 211.296 59.7385 207.325 59.7385C203.353 59.7385 200.881 62.4487 200.881 66.5055C200.881 70.5368 203.353 73.2555 207.325 73.2555ZM207.342 70.443C205.509 70.443 204.572 68.764 204.572 66.4799C204.572 64.1958 205.509 62.5083 207.342 62.5083C209.14 62.5083 210.077 64.1958 210.077 66.4799C210.077 68.764 209.14 70.443 207.342 70.443Z" fill="#00559B"/>
<path d="M216.129 72.9998H219.759V65.5936C219.759 63.9828 220.935 62.8748 222.538 62.8748C223.041 62.8748 223.731 62.96 224.072 63.0708V59.8493C223.748 59.7726 223.296 59.7214 222.93 59.7214C221.464 59.7214 220.262 60.5737 219.785 62.193H219.648V59.9089H216.129V72.9998Z" fill="#00559B"/>
<path d="M231.305 73.2555C234.544 73.2555 236.726 71.6788 237.237 69.2498L233.879 69.0282C233.513 70.0254 232.575 70.5453 231.365 70.5453C229.55 70.5453 228.399 69.3436 228.399 67.3919V67.3833H237.314V66.3862C237.314 61.9373 234.621 59.7385 231.161 59.7385C227.308 59.7385 224.811 62.4743 224.811 66.514C224.811 70.6646 227.274 73.2555 231.305 73.2555ZM228.399 65.1333C228.476 63.6419 229.609 62.4487 231.22 62.4487C232.797 62.4487 233.888 63.5737 233.896 65.1333H228.399Z" fill="#00559B"/>
<path d="M252.201 59.9089H249.738V56.7726H246.107V59.9089H244.318V62.6362H246.107V69.4544C246.09 72.0197 247.837 73.2896 250.471 73.1788C251.408 73.1447 252.073 72.9572 252.44 72.8379L251.869 70.1362C251.69 70.1703 251.306 70.2555 250.965 70.2555C250.241 70.2555 249.738 69.9828 249.738 68.9771V62.6362H252.201V59.9089Z" fill="#00559B"/>
<path d="M258.478 65.4316C258.487 63.7441 259.518 62.7555 261.001 62.7555C262.475 62.7555 263.345 63.7015 263.336 65.3123V72.9998H266.967V64.6646C266.975 61.5964 265.168 59.7385 262.441 59.7385C260.455 59.7385 259.126 60.676 258.529 62.2186H258.376V55.5453H254.847V72.9998H258.478V65.4316Z" fill="#00559B"/>
<path d="M273.557 73.247C275.492 73.247 276.744 72.4032 277.384 71.1845H277.486V72.9998H280.929V64.1703C280.929 61.051 278.287 59.7385 275.372 59.7385C272.236 59.7385 270.173 61.2385 269.671 63.6248L273.028 63.8976C273.276 63.0282 274.051 62.389 275.355 62.389C276.591 62.389 277.298 63.0112 277.298 64.0851V64.1362C277.298 64.9799 276.403 65.0907 274.128 65.3123C271.537 65.551 269.21 66.4203 269.21 69.3436C269.21 71.9345 271.06 73.247 273.557 73.247ZM274.597 70.7413C273.48 70.7413 272.679 70.2214 272.679 69.2243C272.679 68.2015 273.523 67.6987 274.801 67.5197C275.594 67.4089 276.889 67.2214 277.324 66.9316V68.3208C277.324 69.693 276.19 70.7413 274.597 70.7413Z" fill="#00559B"/>
<path d="M287.376 65.4316C287.385 63.7441 288.391 62.7555 289.857 62.7555C291.314 62.7555 292.192 63.71 292.183 65.3123V72.9998H295.814V64.6646C295.814 61.6135 294.024 59.7385 291.297 59.7385C289.354 59.7385 287.947 60.693 287.359 62.2186H287.206V59.9089H283.746V72.9998H287.376V65.4316Z" fill="#00559B"/>
<path d="M304.196 72.9998H316.639V69.9828H309.31V69.8635L311.858 67.3663C315.446 64.0936 316.409 62.4572 316.409 60.4714C316.409 57.4458 313.938 55.3066 310.196 55.3066C306.531 55.3066 304.017 57.497 304.026 60.9231H307.528C307.52 59.2527 308.577 58.2299 310.171 58.2299C311.705 58.2299 312.847 59.1845 312.847 60.7186C312.847 62.1078 311.994 63.0623 310.409 64.5879L304.196 70.3407V72.9998Z" fill="#00559B"/>
<path d="M325.688 73.2385C329.575 73.2385 332.217 70.7072 332.208 67.1788C332.217 63.8379 329.881 61.4345 326.737 61.4345C325.202 61.4345 323.881 62.0737 323.268 62.9345H323.166L323.617 58.5623H331.245V55.5453H320.575L319.748 64.7498L323.029 65.3379C323.566 64.6135 324.606 64.1618 325.637 64.1618C327.393 64.1703 328.654 65.4402 328.654 67.2726C328.654 69.0879 327.418 70.3407 325.688 70.3407C324.222 70.3407 323.038 69.4203 322.952 68.0652H319.373C319.441 71.0822 322.075 73.2385 325.688 73.2385Z" fill="#00559B"/>
<path d="M341.626 73.3833C346.015 73.3833 348.666 70.0424 348.674 64.2896C348.683 58.5794 345.998 55.3066 341.626 55.3066C337.245 55.3066 334.586 58.5708 334.577 64.2896C334.56 70.0254 337.228 73.3748 341.626 73.3833ZM341.626 70.3237C339.623 70.3237 338.327 68.3123 338.336 64.2896C338.345 60.3265 339.631 58.3322 341.626 58.3322C343.612 58.3322 344.907 60.3265 344.907 64.2896C344.916 68.3123 343.62 70.3237 341.626 70.3237Z" fill="#00559B"/>
<path d="M179.227 97.9996H180.568V92.4769C180.568 91.2951 181.5 90.4315 182.773 90.4315C183.131 90.4315 183.5 90.4996 183.591 90.5224V89.1587C183.438 89.1474 183.085 89.136 182.886 89.136C181.841 89.136 180.932 89.7269 180.614 90.5906H180.523V89.2724H179.227V97.9996Z" fill="#00559B"/>
<path d="M188.574 98.1815C190.347 98.1815 191.642 97.2951 192.051 95.9769L190.756 95.6133C190.415 96.5224 189.625 96.9769 188.574 96.9769C187 96.9769 185.915 95.9599 185.852 94.0906H192.188V93.5224C192.188 90.2724 190.256 89.1587 188.438 89.1587C186.074 89.1587 184.506 91.0224 184.506 93.7042C184.506 96.386 186.051 98.1815 188.574 98.1815ZM185.852 92.9315C185.943 91.5735 186.903 90.3633 188.438 90.3633C189.892 90.3633 190.824 91.4542 190.824 92.9315H185.852Z" fill="#00559B"/>
<path d="M200.409 91.2269C199.989 89.9883 199.045 89.1587 197.318 89.1587C195.477 89.1587 194.114 90.2042 194.114 91.6815C194.114 92.886 194.83 93.6928 196.432 94.0678L197.886 94.4087C198.767 94.6133 199.182 95.0337 199.182 95.636C199.182 96.386 198.386 96.9996 197.136 96.9996C196.04 96.9996 195.352 96.5281 195.114 95.5906L193.841 95.9087C194.153 97.3917 195.375 98.1815 197.159 98.1815C199.188 98.1815 200.568 97.0735 200.568 95.5678C200.568 94.3519 199.807 93.5849 198.25 93.2042L196.955 92.886C195.92 92.6303 195.455 92.2837 195.455 91.6133C195.455 90.8633 196.25 90.3178 197.318 90.3178C198.489 90.3178 198.972 90.9656 199.205 91.5678L200.409 91.2269Z" fill="#00559B"/>
<path d="M206.246 98.1815C208.018 98.1815 209.314 97.2951 209.723 95.9769L208.428 95.6133C208.087 96.5224 207.297 96.9769 206.246 96.9769C204.672 96.9769 203.587 95.9599 203.524 94.0906H209.859V93.5224C209.859 90.2724 207.928 89.1587 206.109 89.1587C203.746 89.1587 202.178 91.0224 202.178 93.7042C202.178 96.386 203.723 98.1815 206.246 98.1815ZM203.524 92.9315C203.615 91.5735 204.575 90.3633 206.109 90.3633C207.564 90.3633 208.496 91.4542 208.496 92.9315H203.524Z" fill="#00559B"/>
<path d="M214.467 98.2042C215.99 98.2042 216.786 97.386 217.058 96.8178H217.126V97.9996H218.467V92.2496C218.467 89.4769 216.354 89.1587 215.24 89.1587C213.922 89.1587 212.422 89.6133 211.74 91.2042L213.013 91.6587C213.308 91.0224 214.007 90.3406 215.286 90.3406C216.518 90.3406 217.126 90.994 217.126 92.1133V92.1587C217.126 92.8065 216.467 92.7496 214.876 92.9542C213.257 93.1644 211.49 93.5224 211.49 95.5224C211.49 97.2269 212.808 98.2042 214.467 98.2042ZM214.672 96.9996C213.604 96.9996 212.831 96.5224 212.831 95.5906C212.831 94.5678 213.763 94.2496 214.808 94.1133C215.376 94.0451 216.899 93.886 217.126 93.6133V94.8406C217.126 95.9315 216.263 96.9996 214.672 96.9996Z" fill="#00559B"/>
<path d="M220.915 97.9996H222.256V92.4769C222.256 91.2951 223.188 90.4315 224.46 90.4315C224.818 90.4315 225.188 90.4996 225.278 90.5224V89.1587C225.125 89.1474 224.773 89.136 224.574 89.136C223.528 89.136 222.619 89.7269 222.301 90.5906H222.21V89.2724H220.915V97.9996Z" fill="#00559B"/>
<path d="M230.148 98.1815C232.08 98.1815 233.352 96.9996 233.58 95.4542H232.239C231.989 96.4087 231.193 96.9769 230.148 96.9769C228.557 96.9769 227.534 95.6587 227.534 93.636C227.534 91.6587 228.58 90.3633 230.148 90.3633C231.33 90.3633 232.034 91.0906 232.239 91.886H233.58C233.352 90.2496 231.966 89.1587 230.125 89.1587C227.761 89.1587 226.193 91.0224 226.193 93.6815C226.193 96.2951 227.693 98.1815 230.148 98.1815Z" fill="#00559B"/>
<path d="M236.881 92.7496C236.881 91.2269 237.852 90.3633 239.176 90.3633C240.438 90.3633 241.199 91.1587 241.199 92.5451V97.9996H242.54V92.4542C242.54 90.2099 241.347 89.1587 239.563 89.1587C238.188 89.1587 237.403 89.7326 236.994 90.636H236.881V86.3633H235.54V97.9996H236.881V92.7496Z" fill="#00559B"/>
<path d="M249.493 101.272H250.834V96.6587H250.947C251.243 97.136 251.811 98.1815 253.493 98.1815C255.675 98.1815 257.197 96.4315 257.197 93.6587C257.197 90.9087 255.675 89.1587 253.47 89.1587C251.766 89.1587 251.243 90.2042 250.947 90.6587H250.788V89.2724H249.493V101.272ZM250.811 93.636C250.811 91.6815 251.675 90.3633 253.311 90.3633C255.016 90.3633 255.857 91.7951 255.857 93.636C255.857 95.4996 254.993 96.9769 253.311 96.9769C251.697 96.9769 250.811 95.6133 250.811 93.636Z" fill="#00559B"/>
<path d="M261.811 98.2042C263.334 98.2042 264.129 97.386 264.402 96.8178H264.47V97.9996H265.811V92.2496C265.811 89.4769 263.697 89.1587 262.584 89.1587C261.266 89.1587 259.766 89.6133 259.084 91.2042L260.357 91.6587C260.652 91.0224 261.351 90.3406 262.629 90.3406C263.862 90.3406 264.47 90.994 264.47 92.1133V92.1587C264.47 92.8065 263.811 92.7496 262.22 92.9542C260.601 93.1644 258.834 93.5224 258.834 95.5224C258.834 97.2269 260.152 98.2042 261.811 98.2042ZM262.016 96.9996C260.947 96.9996 260.175 96.5224 260.175 95.5906C260.175 94.5678 261.107 94.2496 262.152 94.1133C262.72 94.0451 264.243 93.886 264.47 93.6133V94.8406C264.47 95.9315 263.607 96.9996 262.016 96.9996Z" fill="#00559B"/>
<path d="M268.259 101.272H269.599V96.6587H269.713C270.009 97.136 270.577 98.1815 272.259 98.1815C274.44 98.1815 275.963 96.4315 275.963 93.6587C275.963 90.9087 274.44 89.1587 272.236 89.1587C270.531 89.1587 270.009 90.2042 269.713 90.6587H269.554V89.2724H268.259V101.272ZM269.577 93.636C269.577 91.6815 270.44 90.3633 272.077 90.3633C273.781 90.3633 274.622 91.7951 274.622 93.636C274.622 95.4996 273.759 96.9769 272.077 96.9769C270.463 96.9769 269.577 95.6133 269.577 93.636Z" fill="#00559B"/>
<path d="M281.668 98.1815C283.44 98.1815 284.736 97.2951 285.145 95.9769L283.849 95.6133C283.509 96.5224 282.719 96.9769 281.668 96.9769C280.094 96.9769 279.009 95.9599 278.946 94.0906H285.281V93.5224C285.281 90.2724 283.349 89.1587 281.531 89.1587C279.168 89.1587 277.599 91.0224 277.599 93.7042C277.599 96.386 279.145 98.1815 281.668 98.1815ZM278.946 92.9315C279.037 91.5735 279.997 90.3633 281.531 90.3633C282.986 90.3633 283.918 91.4542 283.918 92.9315H278.946Z" fill="#00559B"/>
<path d="M287.321 97.9996H288.662V92.4769C288.662 91.2951 289.594 90.4315 290.867 90.4315C291.224 90.4315 291.594 90.4996 291.685 90.5224V89.1587C291.531 89.1474 291.179 89.136 290.98 89.136C289.935 89.136 289.026 89.7269 288.707 90.5906H288.617V89.2724H287.321V97.9996Z" fill="#00559B"/>
<path d="M299.456 91.2269C299.036 89.9883 298.092 89.1587 296.365 89.1587C294.524 89.1587 293.161 90.2042 293.161 91.6815C293.161 92.886 293.876 93.6928 295.479 94.0678L296.933 94.4087C297.814 94.6133 298.229 95.0337 298.229 95.636C298.229 96.386 297.433 96.9996 296.183 96.9996C295.087 96.9996 294.399 96.5281 294.161 95.5906L292.888 95.9087C293.2 97.3917 294.422 98.1815 296.206 98.1815C298.234 98.1815 299.615 97.0735 299.615 95.5678C299.615 94.3519 298.854 93.5849 297.297 93.2042L296.001 92.886C294.967 92.6303 294.501 92.2837 294.501 91.6133C294.501 90.8633 295.297 90.3178 296.365 90.3178C297.536 90.3178 298.018 90.9656 298.251 91.5678L299.456 91.2269Z" fill="#00559B"/>
<path d="M307.474 92.7496C307.474 91.2269 308.446 90.3633 309.77 90.3633C311.031 90.3633 311.793 91.1587 311.793 92.5451V97.9996H313.134V92.4542C313.134 90.2099 311.94 89.1587 310.156 89.1587C308.781 89.1587 307.997 89.7326 307.588 90.636H307.474V86.3633H306.134V97.9996H307.474V92.7496Z" fill="#00559B"/>
<path d="M318.155 98.2042C319.678 98.2042 320.473 97.386 320.746 96.8178H320.814V97.9996H322.155V92.2496C322.155 89.4769 320.041 89.1587 318.928 89.1587C317.609 89.1587 316.109 89.6133 315.428 91.2042L316.7 91.6587C316.996 91.0224 317.695 90.3406 318.973 90.3406C320.206 90.3406 320.814 90.994 320.814 92.1133V92.1587C320.814 92.8065 320.155 92.7496 318.564 92.9542C316.945 93.1644 315.178 93.5224 315.178 95.5224C315.178 97.2269 316.496 98.2042 318.155 98.2042ZM318.359 96.9996C317.291 96.9996 316.518 96.5224 316.518 95.5906C316.518 94.5678 317.45 94.2496 318.496 94.1133C319.064 94.0451 320.587 93.886 320.814 93.6133V94.8406C320.814 95.9315 319.95 96.9996 318.359 96.9996Z" fill="#00559B"/>
<path d="M331.426 89.2724H329.972L327.563 96.2269H327.472L325.063 89.2724H323.608L326.835 97.9996H328.199L331.426 89.2724Z" fill="#00559B"/>
<path d="M336.543 98.1815C338.315 98.1815 339.611 97.2951 340.02 95.9769L338.724 95.6133C338.384 96.5224 337.594 96.9769 336.543 96.9769C334.969 96.9769 333.884 95.9599 333.821 94.0906H340.156V93.5224C340.156 90.2724 338.224 89.1587 336.406 89.1587C334.043 89.1587 332.474 91.0224 332.474 93.7042C332.474 96.386 334.02 98.1815 336.543 98.1815ZM333.821 92.9315C333.912 91.5735 334.872 90.3633 336.406 90.3633C337.861 90.3633 338.793 91.4542 338.793 92.9315H333.821Z" fill="#00559B"/>
<path d="M179.409 122H180.705V120.659H180.864C181.159 121.136 181.727 122.181 183.409 122.181C185.591 122.181 187.114 120.431 187.114 117.659C187.114 114.909 185.591 113.159 183.386 113.159C181.682 113.159 181.159 114.204 180.864 114.659H180.75V110.363H179.409V122ZM180.727 117.636C180.727 115.681 181.591 114.363 183.227 114.363C184.932 114.363 185.773 115.795 185.773 117.636C185.773 119.5 184.909 120.977 183.227 120.977C181.614 120.977 180.727 119.613 180.727 117.636Z" fill="#00559B"/>
<path d="M192.824 122.181C194.597 122.181 195.892 121.295 196.301 119.977L195.006 119.613C194.665 120.522 193.875 120.977 192.824 120.977C191.25 120.977 190.165 119.96 190.102 118.091H196.438V117.522C196.438 114.272 194.506 113.159 192.688 113.159C190.324 113.159 188.756 115.022 188.756 117.704C188.756 120.386 190.301 122.181 192.824 122.181ZM190.102 116.931C190.193 115.574 191.153 114.363 192.688 114.363C194.142 114.363 195.074 115.454 195.074 116.931H190.102Z" fill="#00559B"/>
<path d="M202.136 122.181C203.909 122.181 205.205 121.295 205.614 119.977L204.318 119.613C203.977 120.522 203.188 120.977 202.136 120.977C200.563 120.977 199.477 119.96 199.415 118.091H205.75V117.522C205.75 114.272 203.818 113.159 202 113.159C199.636 113.159 198.068 115.022 198.068 117.704C198.068 120.386 199.614 122.181 202.136 122.181ZM199.415 116.931C199.506 115.574 200.466 114.363 202 114.363C203.455 114.363 204.386 115.454 204.386 116.931H199.415Z" fill="#00559B"/>
<path d="M209.131 116.75C209.131 115.227 210.074 114.363 211.358 114.363C212.602 114.363 213.358 115.176 213.358 116.545V122H214.699V116.454C214.699 114.227 213.511 113.159 211.744 113.159C210.426 113.159 209.608 113.75 209.199 114.636H209.085V113.272H207.79V122H209.131V116.75Z" fill="#00559B"/>
<path d="M221.649 125.272H222.99V120.659H223.104C223.399 121.136 223.967 122.181 225.649 122.181C227.831 122.181 229.354 120.431 229.354 117.659C229.354 114.909 227.831 113.159 225.626 113.159C223.922 113.159 223.399 114.204 223.104 114.659H222.945V113.272H221.649V125.272ZM222.967 117.636C222.967 115.681 223.831 114.363 225.467 114.363C227.172 114.363 228.013 115.795 228.013 117.636C228.013 119.5 227.149 120.977 225.467 120.977C223.854 120.977 222.967 119.613 222.967 117.636Z" fill="#00559B"/>
<path d="M236.899 118.431C236.899 120.068 235.649 120.818 234.649 120.818C233.536 120.818 232.74 120 232.74 118.727V113.272H231.399V118.818C231.399 121.045 232.581 122.113 234.217 122.113C235.536 122.113 236.399 121.409 236.808 120.522H236.899V122H238.24V113.272H236.899V118.431Z" fill="#00559B"/>
<path d="M240.878 122H242.173V120.659H242.332C242.628 121.136 243.196 122.181 244.878 122.181C247.06 122.181 248.582 120.431 248.582 117.659C248.582 114.909 247.06 113.159 244.855 113.159C243.151 113.159 242.628 114.204 242.332 114.659H242.219V110.363H240.878V122ZM242.196 117.636C242.196 115.681 243.06 114.363 244.696 114.363C246.401 114.363 247.242 115.795 247.242 117.636C247.242 119.5 246.378 120.977 244.696 120.977C243.082 120.977 242.196 119.613 242.196 117.636Z" fill="#00559B"/>
<path d="M251.974 110.363H250.634V122H251.974V110.363Z" fill="#00559B"/>
<path d="M254.43 122H255.771V113.272H254.43V122ZM255.112 111.818C255.635 111.818 256.067 111.409 256.067 110.909C256.067 110.409 255.635 110 255.112 110C254.59 110 254.158 110.409 254.158 110.909C254.158 111.409 254.59 111.818 255.112 111.818Z" fill="#00559B"/>
<path d="M264.409 115.227C263.989 113.988 263.045 113.159 261.318 113.159C259.477 113.159 258.114 114.204 258.114 115.681C258.114 116.886 258.83 117.693 260.432 118.068L261.886 118.409C262.767 118.613 263.182 119.034 263.182 119.636C263.182 120.386 262.386 121 261.136 121C260.04 121 259.352 120.528 259.114 119.591L257.841 119.909C258.153 121.392 259.375 122.181 261.159 122.181C263.188 122.181 264.568 121.074 264.568 119.568C264.568 118.352 263.807 117.585 262.25 117.204L260.955 116.886C259.92 116.63 259.455 116.284 259.455 115.613C259.455 114.863 260.25 114.318 261.318 114.318C262.489 114.318 262.972 114.966 263.205 115.568L264.409 115.227Z" fill="#00559B"/>
<path d="M267.928 116.75C267.928 115.227 268.899 114.363 270.223 114.363C271.484 114.363 272.246 115.159 272.246 116.545V122H273.587V116.454C273.587 114.21 272.393 113.159 270.609 113.159C269.234 113.159 268.45 113.733 268.041 114.636H267.928V110.363H266.587V122H267.928V116.75Z" fill="#00559B"/>
<path d="M279.699 122.181C281.472 122.181 282.767 121.295 283.176 119.977L281.881 119.613C281.54 120.522 280.75 120.977 279.699 120.977C278.125 120.977 277.04 119.96 276.977 118.091H283.313V117.522C283.313 114.272 281.381 113.159 279.563 113.159C277.199 113.159 275.631 115.022 275.631 117.704C275.631 120.386 277.176 122.181 279.699 122.181ZM276.977 116.931C277.068 115.574 278.028 114.363 279.563 114.363C281.017 114.363 281.949 115.454 281.949 116.931H276.977Z" fill="#00559B"/>
<path d="M288.648 122.181C290.33 122.181 290.898 121.136 291.193 120.659H291.352V122H292.648V110.363H291.307V114.659H291.193C290.898 114.204 290.375 113.159 288.67 113.159C286.466 113.159 284.943 114.909 284.943 117.659C284.943 120.431 286.466 122.181 288.648 122.181ZM288.83 120.977C287.148 120.977 286.284 119.5 286.284 117.636C286.284 115.795 287.125 114.363 288.83 114.363C290.466 114.363 291.33 115.681 291.33 117.636C291.33 119.613 290.443 120.977 288.83 120.977Z" fill="#00559B"/>
<path d="M305.972 115.227C305.551 113.988 304.608 113.159 302.881 113.159C301.04 113.159 299.676 114.204 299.676 115.681C299.676 116.886 300.392 117.693 301.994 118.068L303.449 118.409C304.33 118.613 304.744 119.034 304.744 119.636C304.744 120.386 303.949 121 302.699 121C301.602 121 300.915 120.528 300.676 119.591L299.403 119.909C299.716 121.392 300.938 122.181 302.722 122.181C304.75 122.181 306.131 121.074 306.131 119.568C306.131 118.352 305.369 117.585 303.813 117.204L302.517 116.886C301.483 116.63 301.017 116.284 301.017 115.613C301.017 114.863 301.813 114.318 302.881 114.318C304.051 114.318 304.534 114.966 304.767 115.568L305.972 115.227Z" fill="#00559B"/>
<path d="M311.695 122.181C314.058 122.181 315.649 120.386 315.649 117.681C315.649 114.954 314.058 113.159 311.695 113.159C309.331 113.159 307.74 114.954 307.74 117.681C307.74 120.386 309.331 122.181 311.695 122.181ZM311.695 120.977C309.899 120.977 309.081 119.431 309.081 117.681C309.081 115.931 309.899 114.363 311.695 114.363C313.49 114.363 314.308 115.931 314.308 117.681C314.308 119.431 313.49 120.977 311.695 120.977Z" fill="#00559B"/>
<path d="M326.082 113.272H324.128V112.386C324.128 111.522 324.491 111.068 325.378 111.068C325.764 111.068 325.991 111.159 326.128 111.204L326.514 110.045C326.31 109.954 325.901 109.818 325.241 109.818C323.991 109.818 322.787 110.568 322.787 112.068V113.272H321.378V114.409H322.787V122H324.128V114.409H326.082V113.272Z" fill="#00559B"/>
<path d="M330.28 122.204C331.803 122.204 332.598 121.386 332.871 120.818H332.939V122H334.28V116.25C334.28 113.477 332.166 113.159 331.053 113.159C329.734 113.159 328.234 113.613 327.553 115.204L328.825 115.659C329.121 115.022 329.82 114.341 331.098 114.341C332.331 114.341 332.939 114.994 332.939 116.113V116.159C332.939 116.806 332.28 116.75 330.689 116.954C329.07 117.164 327.303 117.522 327.303 119.522C327.303 121.227 328.621 122.204 330.28 122.204ZM330.484 121C329.416 121 328.643 120.522 328.643 119.591C328.643 118.568 329.575 118.25 330.621 118.113C331.189 118.045 332.712 117.886 332.939 117.613V118.841C332.939 119.931 332.075 121 330.484 121Z" fill="#00559B"/>
<path d="M336.727 122H338.068V116.477C338.068 115.295 339 114.431 340.273 114.431C340.631 114.431 341 114.5 341.091 114.522V113.159C340.938 113.147 340.585 113.136 340.386 113.136C339.341 113.136 338.432 113.727 338.114 114.591H338.023V113.272H336.727V122Z" fill="#00559B"/>
<path d="M184.727 142.431C184.727 144.068 183.477 144.818 182.477 144.818C181.364 144.818 180.568 144 180.568 142.727V137.272H179.227V142.818C179.227 145.045 180.409 146.113 182.045 146.113C183.364 146.113 184.227 145.409 184.636 144.522H184.727V146H186.068V137.272H184.727V142.431Z" fill="#00559B"/>
<path d="M194.706 139.227C194.286 137.988 193.342 137.159 191.615 137.159C189.774 137.159 188.411 138.204 188.411 139.681C188.411 140.886 189.126 141.693 190.729 142.068L192.183 142.409C193.064 142.613 193.479 143.034 193.479 143.636C193.479 144.386 192.683 145 191.433 145C190.337 145 189.649 144.528 189.411 143.591L188.138 143.909C188.45 145.392 189.672 146.181 191.456 146.181C193.484 146.181 194.865 145.074 194.865 143.568C194.865 142.352 194.104 141.585 192.547 141.204L191.251 140.886C190.217 140.63 189.751 140.284 189.751 139.613C189.751 138.863 190.547 138.318 191.615 138.318C192.786 138.318 193.268 138.966 193.501 139.568L194.706 139.227Z" fill="#00559B"/>
<path d="M196.884 146H198.224V137.272H196.884V146ZM197.565 135.818C198.088 135.818 198.52 135.409 198.52 134.909C198.52 134.409 198.088 134 197.565 134C197.043 134 196.611 134.409 196.611 134.909C196.611 135.409 197.043 135.818 197.565 135.818Z" fill="#00559B"/>
<path d="M202.021 140.75C202.021 139.227 202.965 138.363 204.249 138.363C205.493 138.363 206.249 139.176 206.249 140.545V146H207.59V140.454C207.59 138.227 206.402 137.159 204.635 137.159C203.317 137.159 202.499 137.75 202.09 138.636H201.976V137.272H200.68V146H202.021V140.75Z" fill="#00559B"/>
<path d="M213.563 149.454C215.653 149.454 217.335 148.5 217.335 146.25V137.272H216.04V138.659H215.903C215.608 138.204 215.063 137.159 213.358 137.159C211.153 137.159 209.631 138.909 209.631 141.591C209.631 144.318 211.222 145.863 213.335 145.863C215.04 145.863 215.585 144.863 215.881 144.386H215.994V146.159C215.994 147.613 214.972 148.272 213.563 148.272C211.977 148.272 211.42 147.437 211.063 146.954L209.994 147.704C210.54 148.619 211.614 149.454 213.563 149.454ZM213.517 144.659C211.835 144.659 210.972 143.386 210.972 141.568C210.972 139.795 211.813 138.363 213.517 138.363C215.153 138.363 216.017 139.681 216.017 141.568C216.017 143.5 215.131 144.659 213.517 144.659Z" fill="#00559B"/>
<path d="M224.472 146H225.881V141.75H228.426C231.136 141.75 232.358 140.102 232.358 138.045C232.358 135.988 231.136 134.363 228.403 134.363H224.472V146ZM225.881 140.5V135.613H228.358C230.25 135.613 230.972 136.647 230.972 138.045C230.972 139.443 230.25 140.5 228.381 140.5H225.881Z" fill="#00559B"/>
<path d="M233.918 146L235.088 142.704H239.793L240.963 146H242.44L238.168 134.363H236.713L232.44 146H233.918ZM235.531 141.454L237.395 136.204H237.486L239.349 141.454H235.531Z" fill="#00559B"/>
<path d="M242.257 135.613H245.916V146H247.325V135.613H250.984V134.363H242.257V135.613Z" fill="#00559B"/>
<path d="M253.159 146H254.568V140.795H260.773V146H262.182V134.363H260.773V139.545H254.568V134.363H253.159V146Z" fill="#00559B"/>
<path d="M275.867 137.272H277.23C277.168 135.517 275.548 134.204 273.298 134.204C271.071 134.204 269.321 135.5 269.321 137.454C269.321 139.022 270.457 139.954 272.276 140.477L273.707 140.886C274.935 141.227 276.026 141.659 276.026 142.818C276.026 144.091 274.798 144.931 273.185 144.931C271.798 144.931 270.571 144.318 270.457 143H269.003C269.139 144.909 270.685 146.204 273.185 146.204C275.867 146.204 277.389 144.727 277.389 142.841C277.389 140.659 275.321 139.954 274.117 139.636L272.935 139.318C272.071 139.091 270.685 138.636 270.685 137.386C270.685 136.272 271.707 135.454 273.253 135.454C274.662 135.454 275.73 136.125 275.867 137.272Z" fill="#00559B"/>
<path d="M283.32 137.272H281.456V135.181H280.115V137.272H278.797V138.409H280.115V143.863C280.115 145.386 281.342 146.113 282.479 146.113C282.979 146.113 283.297 146.022 283.479 145.954L283.206 144.75C283.092 144.772 282.911 144.818 282.615 144.818C282.024 144.818 281.456 144.636 281.456 143.5V138.409H283.32V137.272Z" fill="#00559B"/>
<path d="M290.837 142.431C290.837 144.068 289.587 144.818 288.587 144.818C287.473 144.818 286.678 144 286.678 142.727V137.272H285.337V142.818C285.337 145.045 286.518 146.113 288.155 146.113C289.473 146.113 290.337 145.409 290.746 144.522H290.837V146H292.178V137.272H290.837V142.431Z" fill="#00559B"/>
<path d="M297.929 146.181C299.611 146.181 300.179 145.136 300.474 144.659H300.634V146H301.929V134.363H300.588V138.659H300.474C300.179 138.204 299.656 137.159 297.952 137.159C295.747 137.159 294.224 138.909 294.224 141.659C294.224 144.431 295.747 146.181 297.929 146.181ZM298.111 144.977C296.429 144.977 295.565 143.5 295.565 141.636C295.565 139.795 296.406 138.363 298.111 138.363C299.747 138.363 300.611 139.681 300.611 141.636C300.611 143.613 299.724 144.977 298.111 144.977Z" fill="#00559B"/>
<path d="M305.435 149.272C306.645 149.272 307.497 148.63 308.003 147.272L311.719 137.295L310.253 137.272L307.844 144.227H307.753L305.344 137.272H303.889L307.116 146.045L306.866 146.727C306.378 148.056 305.776 148.181 304.798 147.931L304.457 149.113C304.594 149.181 304.98 149.272 305.435 149.272Z" fill="#00559B"/>
<path d="M321.288 146.181C322.97 146.181 323.538 145.136 323.834 144.659H323.993V146H325.288V134.363H323.947V138.659H323.834C323.538 138.204 323.016 137.159 321.311 137.159C319.107 137.159 317.584 138.909 317.584 141.659C317.584 144.431 319.107 146.181 321.288 146.181ZM321.47 144.977C319.788 144.977 318.925 143.5 318.925 141.636C318.925 139.795 319.766 138.363 321.47 138.363C323.107 138.363 323.97 139.681 323.97 141.636C323.97 143.613 323.084 144.977 321.47 144.977Z" fill="#00559B"/>
<path d="M330.499 146.204C332.021 146.204 332.817 145.386 333.09 144.818H333.158V146H334.499V140.25C334.499 137.477 332.385 137.159 331.271 137.159C329.953 137.159 328.453 137.613 327.771 139.204L329.044 139.659C329.34 139.022 330.038 138.341 331.317 138.341C332.55 138.341 333.158 138.994 333.158 140.113V140.159C333.158 140.806 332.499 140.75 330.908 140.954C329.288 141.164 327.521 141.522 327.521 143.522C327.521 145.227 328.84 146.204 330.499 146.204ZM330.703 145C329.635 145 328.862 144.522 328.862 143.591C328.862 142.568 329.794 142.25 330.84 142.113C331.408 142.045 332.93 141.886 333.158 141.613V142.841C333.158 143.931 332.294 145 330.703 145Z" fill="#00559B"/>
<path d="M340.741 137.272H338.878V135.181H337.537V137.272H336.219V138.409H337.537V143.863C337.537 145.386 338.764 146.113 339.901 146.113C340.401 146.113 340.719 146.022 340.901 145.954L340.628 144.75C340.514 144.772 340.332 144.818 340.037 144.818C339.446 144.818 338.878 144.636 338.878 143.5V138.409H340.741V137.272Z" fill="#00559B"/>
<path d="M345.327 146.204C346.849 146.204 347.645 145.386 347.918 144.818H347.986V146H349.327V140.25C349.327 137.477 347.213 137.159 346.099 137.159C344.781 137.159 343.281 137.613 342.599 139.204L343.872 139.659C344.168 139.022 344.866 138.341 346.145 138.341C347.378 138.341 347.986 138.994 347.986 140.113V140.159C347.986 140.806 347.327 140.75 345.736 140.954C344.116 141.164 342.349 141.522 342.349 143.522C342.349 145.227 343.668 146.204 345.327 146.204ZM345.531 145C344.463 145 343.69 144.522 343.69 143.591C343.69 142.568 344.622 142.25 345.668 142.113C346.236 142.045 347.759 141.886 347.986 141.613V142.841C347.986 143.931 347.122 145 345.531 145Z" fill="#00559B"/>
<path d="M352.751 146.091C353.314 146.091 353.774 145.63 353.774 145.068C353.774 144.505 353.314 144.045 352.751 144.045C352.189 144.045 351.729 144.505 351.729 145.068C351.729 145.63 352.189 146.091 352.751 146.091Z" fill="#00559B"/>
<rect x="7" y="19" width="106" height="137" rx="10" fill="#DEF5FF"/>
<rect x="26.0544" y="22.875" width="105.532" height="137.437" rx="10" transform="rotate(5.46678 26.0544 22.875)" fill="#B9EAFF"/>
<g filter="url(#filter0_d)">
<rect x="52.6277" y="29.0869" width="105.532" height="137.437" rx="10" transform="rotate(11.1906 52.6277 29.0869)" fill="#60C3EF"/>
</g>
<rect x="61.0935" y="49.5254" width="80.9897" height="9.81694" rx="4.90847" transform="rotate(11.1906 61.0935 49.5254)" fill="white" fill-opacity="0.31"/>
<rect x="57.7593" y="66.3779" width="80.9897" height="9.81694" rx="4.90847" transform="rotate(11.1906 57.7593 66.3779)" fill="white" fill-opacity="0.31"/>
<rect x="54.425" y="83.2305" width="80.9897" height="9.81694" rx="4.90847" transform="rotate(11.1906 54.425 83.2305)" fill="white" fill-opacity="0.31"/>
<rect x="51.0911" y="100.084" width="80.9897" height="9.81694" rx="4.90847" transform="rotate(11.1906 51.0911 100.084)" fill="white" fill-opacity="0.31"/>
<rect x="47.7568" y="116.937" width="80.9897" height="9.81694" rx="4.90847" transform="rotate(11.1906 47.7568 116.937)" fill="white" fill-opacity="0.31"/>
<path d="M42.6658 156.896L64.4172 143.374L82.4405 159.762L105.518 147.44L115.704 156.022" stroke="#FC857A" stroke-width="4" stroke-linecap="round" stroke-linejoin="round"/>
<defs>
<filter id="filter0_d" x="-9.04517" y="0.0869141" width="200.199" height="225.305" filterUnits="userSpaceOnUse" color-interpolation-filters="sRGB">
<feFlood flood-opacity="0" result="BackgroundImageFix"/>
<feColorMatrix in="SourceAlpha" type="matrix" values="0 0 0 0 0 0 0 0 0 0 0 0 0 0 0 0 0 0 127 0"/>
<feOffset dy="6"/>
<feGaussianBlur stdDeviation="17.5"/>
<feColorMatrix type="matrix" values="0 0 0 0 0.0288582 0 0 0 0 0.322059 0 0 0 0 0.503564 0 0 0 0.1 0"/>
<feBlend mode="normal" in2="BackgroundImageFix" result="effect1_dropShadow"/>
<feBlend mode="normal" in="SourceGraphic" in2="effect1_dropShadow" result="shape"/>
</filter>
</defs>
</svg>
