<svg width="837" height="432" viewBox="0 0 837 432" fill="none" xmlns="http://www.w3.org/2000/svg">
<path d="M773.888 90.7457H608.47C593.404 90.7457 581.182 78.4913 581.182 63.3846C581.182 28.4174 552.84 0 517.965 0H224.217C189.342 0 161 28.4174 161 63.3846V91.4851C161 126.452 189.342 154.87 224.217 154.87H295.336C310.403 154.87 322.625 167.124 322.625 182.231V245.615C322.625 280.583 350.967 309 385.842 309H517.86C552.734 309 581.077 280.583 581.077 245.615H773.783C808.657 245.615 837 217.198 837 182.231V154.13C837.105 119.163 808.763 90.7457 773.888 90.7457Z" fill="#E5F0F7"/>
<path opacity="0.3" d="M620.505 432H-5.50491C-28.9723 432 -48 415.454 -48 395.048V392.952C-48 372.546 -28.9723 356 -5.50491 356H620.505C643.972 356 663 372.546 663 392.952V395.048C663 415.454 643.972 432 620.505 432Z" fill="#7AC142"/>
<path d="M234.654 57.75C223.669 57.75 214.66 48.8299 214.66 37.7784V25.1482C214.66 14.1757 223.59 5.17664 234.654 5.17664C245.638 5.17664 254.647 14.0967 254.647 25.1482V37.7784C254.647 48.8299 245.717 57.75 234.654 57.75Z" fill="#FFDAB6"/>
<rect x="301" y="66" width="84" height="330" rx="10" fill="url(#paint0_linear)"/>
<rect x="407" y="252" width="84" height="144" rx="10" fill="url(#paint1_linear)"/>
<rect x="518" y="311" width="84" height="85" rx="10" fill="url(#paint2_linear)"/>
<path d="M226.277 2.65048C226.04 2.72942 225.882 2.72942 225.645 2.80836C221.614 3.91351 217.979 8.09728 215.609 11.3338C213.159 14.5703 211.183 18.2804 210.63 22.2274C210.077 26.0954 210.788 29.9634 210.709 33.8314C210.63 37.6995 209.445 41.9622 206.204 44.0935C208.101 46.3828 209.998 48.672 211.894 50.9612C213.554 52.9347 215.609 55.066 218.137 54.8292C221.377 54.5135 222.879 50.4087 222.563 47.1721C222.247 43.9356 220.824 40.6991 221.377 37.4626C222.247 32.4105 227.462 29.4898 231.256 26.0165C237.183 20.4907 241.608 10.7812 240.818 2.65048C236.471 1.62428 230.781 1.54534 226.277 2.65048Z" fill="#FF6A52"/>
<path d="M254.647 12.2021C257.097 18.2804 255.596 25.4639 258.124 31.5422C259.547 34.9366 262.155 37.9363 262.471 41.5675C262.787 45.1198 260.653 48.5931 257.887 50.8034C255.121 53.0137 251.644 54.3556 248.246 55.5397C246.745 47.409 246.666 38.9625 247.93 30.7528C248.799 25.1481 250.538 19.5435 246.429 14.7282C244.848 12.8336 242.872 11.2548 241.766 9.04453C240.897 7.3868 239.869 3.28197 242.003 2.17682C243.426 1.46637 246.112 3.12409 247.219 3.91348C250.064 5.80802 253.383 9.12347 254.647 12.2021Z" fill="#FF6A52"/>
<path d="M290.446 122.085H302.537C302.537 122.085 299.06 140.399 300.877 144.03C301.43 145.215 301.668 146.556 301.668 147.898C301.668 150.819 299.297 153.266 296.294 153.266C291.631 153.266 287.838 149.635 287.522 144.978C287.285 140.636 287.127 135.663 287.522 133.216C288.47 128.164 290.446 122.085 290.446 122.085Z" fill="#FFDAB6"/>
<path d="M200.357 176.869C200.357 176.869 190.794 190.604 193.876 194.709C196.958 198.814 204.861 209.945 208.259 206.55C211.657 203.156 202.648 191.315 202.648 191.315C202.648 191.315 214.66 189.42 210.946 178.843C210.314 177.106 208.101 171.264 208.101 171.264L200.357 176.869Z" fill="#FFDAB6"/>
<path d="M274.009 190.92L271.401 397.899C271.322 403.424 266.817 407.924 261.206 407.924C255.833 407.924 251.407 403.74 251.091 398.372L241.213 237.968C241.213 237.415 240.66 236.942 240.107 236.942C239.474 236.942 239 237.415 239 238.047L236.787 398.451C236.708 403.977 232.204 408.477 226.593 408.477H225.566C220.192 408.477 215.767 404.293 215.451 398.925L203.755 193.367L274.009 190.92Z" fill="url(#paint3_linear)"/>
<path d="M304.591 61.697L267.449 61.5391H223.59C214.028 61.5391 205.019 66.3544 199.724 74.3272L172.619 114.902C168.983 121.138 169.141 128.953 173.093 135.031L200.04 176.948L204.387 173.869L203.834 191.868C203.676 196.762 207.627 200.867 212.527 200.867H265.474C270.452 200.867 274.404 196.683 274.167 191.71L266.817 93.4305C266.738 92.0885 267.607 90.8255 268.872 90.5097L291.394 84.3525C292.501 84.0367 293.607 84.8261 293.607 86.0102L290.525 122.164L302.616 122.085L313.916 71.2486C314.549 65.7228 309.965 61.0654 304.591 61.697ZM203.755 193.367C202.885 192.104 202.332 191.315 202.332 191.315C202.332 191.315 202.964 191.236 203.834 190.92L203.755 193.367ZM204.703 163.686C199.645 150.898 193.086 134.637 190.32 127.769C189.451 125.717 189.688 123.348 190.873 121.454L206.679 105.903L204.703 163.686Z" fill="url(#paint4_linear)"/>
<defs>
<linearGradient id="paint0_linear" x1="343" y1="66" x2="343" y2="396" gradientUnits="userSpaceOnUse">
<stop stop-color="#99D5FB"/>
<stop offset="1" stop-color="#AFDCF8"/>
</linearGradient>
<linearGradient id="paint1_linear" x1="449" y1="252" x2="449" y2="396" gradientUnits="userSpaceOnUse">
<stop stop-color="#99D5FB"/>
<stop offset="1" stop-color="#AFDCF8"/>
</linearGradient>
<linearGradient id="paint2_linear" x1="560" y1="311" x2="560" y2="396" gradientUnits="userSpaceOnUse">
<stop stop-color="#99D5FB"/>
<stop offset="1" stop-color="#AFDCF8"/>
</linearGradient>
<linearGradient id="paint3_linear" x1="238.882" y1="190.92" x2="238.882" y2="408.477" gradientUnits="userSpaceOnUse">
<stop stop-color="#0069AA"/>
<stop offset="1" stop-color="#005CAA"/>
</linearGradient>
<linearGradient id="paint4_linear" x1="234.033" y1="201.128" x2="237.527" y2="58.0121" gradientUnits="userSpaceOnUse">
<stop stop-color="#86CC48"/>
<stop offset="1" stop-color="#A3E56A"/>
</linearGradient>
</defs>
</svg>
