<svg xmlns="http://www.w3.org/2000/svg" width="132.19" height="154.48" viewBox="0 0 132.19 154.48"><title>Pin-Mobile</title><g id="Layer_2" data-name="Layer 2"><g id="Layer_1-2" data-name="Layer 1"><polygon points="7.12 67.86 7.12 131.64 123.51 131.64 123.51 68.21 64.66 30.29 7.12 67.86" style="fill:#00559b"/><polygon points="6.74 67.86 6.74 131.64 123.12 131.64 123.12 68.21 64.85 96.28 6.74 67.86" style="fill:#0069aa"/><polygon points="20.58 74.49 20.58 0 107.99 0 107.99 75.42 64.83 96.13 20.58 74.49" style="fill:#e6e6e6"/><polygon points="14.86 131.64 38.81 107.69 89.56 107.69 113.71 131.84 14.86 131.64" style="fill:#00559b"/><line x1="27.6" y1="18.27" x2="47.44" y2="18.27" style="fill:none;stroke:#0069aa;stroke-linecap:round;stroke-miterlimit:10;stroke-width:1.30501665579374px;opacity:0.76"/><line x1="27.6" y1="24.28" x2="97.24" y2="24.28" style="fill:none;stroke:#0069aa;stroke-linecap:round;stroke-miterlimit:10;stroke-width:1.30501665579374px;opacity:0.76"/><line x1="27.6" y1="30.29" x2="102.54" y2="30.29" style="fill:none;stroke:#0069aa;stroke-linecap:round;stroke-miterlimit:10;stroke-width:1.30501665579374px;opacity:0.76"/><line x1="40.48" y1="79.42" x2="89.66" y2="79.42" style="fill:none;stroke:#0069aa;stroke-linecap:round;stroke-miterlimit:10;stroke-width:1.30501665579374px;opacity:0.76"/><line x1="49.96" y1="84.59" x2="80.18" y2="84.59" style="fill:none;stroke:#0069aa;stroke-linecap:round;stroke-miterlimit:10;stroke-width:1.30501665579374px;opacity:0.76"/><line x1="27.6" y1="36.29" x2="100.06" y2="36.29" style="fill:none;stroke:#0069aa;stroke-linecap:round;stroke-miterlimit:10;stroke-width:1.30501665579374px;opacity:0.76"/><rect x="16.1" y="51.49" width="100.38" height="19.75" style="fill:#005caa;opacity:0.1"/><path d="M122.7,120.94H9.49A9.52,9.52,0,0,0,0,130.43v1.4a9.52,9.52,0,0,0,9.49,9.49h17.4v5.38a7.8,7.8,0,0,0,7.78,7.78H97.52a7.8,7.8,0,0,0,7.78-7.78v-5.38h17.4a9.52,9.52,0,0,0,9.49-9.49v-1.4A9.52,9.52,0,0,0,122.7,120.94Z" style="fill:#0069aa;opacity:0.1"/></g></g></svg>