<svg xmlns="http://www.w3.org/2000/svg" width="372.18" height="229.13" viewBox="0 0 372.18 229.13"><title>Pin</title><g id="Layer_2" data-name="Layer 2"><g id="Layer_1-2" data-name="Layer 1"><polygon points="144.19 94.7 144.19 183.69 306.6 183.69 306.6 95.18 224.49 42.26 144.19 94.7" style="fill:#00559b"/><polygon points="143.66 94.7 143.66 183.69 306.07 183.69 306.07 95.18 224.75 134.35 143.66 94.7" style="fill:#0069aa"/><polygon points="162.97 103.95 162.97 0 284.95 0 284.95 105.24 224.73 134.14 162.97 103.95" style="fill:#e6e6e6"/><polygon points="155 183.69 188.41 150.27 259.24 150.27 292.93 183.97 155 183.69" style="fill:#00559b"/><line x1="172.77" y1="17.04" x2="192.6" y2="17.04" style="fill:none;stroke:#0069aa;stroke-linecap:round;stroke-miterlimit:10;stroke-width:1.8210356365826px;opacity:0.76"/><line x1="242.13" y1="11.83" x2="261.96" y2="11.83" style="fill:none;stroke:#0069aa;stroke-linecap:round;stroke-miterlimit:10;stroke-width:1.8210356365826px;opacity:0.76"/><line x1="172.77" y1="25.49" x2="200.45" y2="25.49" style="fill:none;stroke:#0069aa;stroke-linecap:round;stroke-miterlimit:10;stroke-width:1.8210356365826px;opacity:0.76"/><line x1="172.77" y1="33.88" x2="269.95" y2="33.88" style="fill:none;stroke:#0069aa;stroke-linecap:round;stroke-miterlimit:10;stroke-width:1.8210356365826px;opacity:0.76"/><line x1="172.77" y1="42.26" x2="277.35" y2="42.26" style="fill:none;stroke:#0069aa;stroke-linecap:round;stroke-miterlimit:10;stroke-width:1.8210356365826px;opacity:0.76"/><line x1="190.75" y1="110.83" x2="259.37" y2="110.83" style="fill:none;stroke:#0069aa;stroke-linecap:round;stroke-miterlimit:10;stroke-width:1.8210356365826px;opacity:0.76"/><line x1="203.98" y1="118.04" x2="246.14" y2="118.04" style="fill:none;stroke:#0069aa;stroke-linecap:round;stroke-miterlimit:10;stroke-width:1.8210356365826px;opacity:0.76"/><line x1="172.77" y1="50.65" x2="273.88" y2="50.65" style="fill:none;stroke:#0069aa;stroke-linecap:round;stroke-miterlimit:10;stroke-width:1.8210356365826px;opacity:0.76"/><rect x="156.72" y="71.85" width="140.07" height="27.56" style="fill:#005caa;opacity:0.1"/><path d="M351.26,155.2H101.72A21,21,0,0,0,80.8,176.12v3.07a21,21,0,0,0,20.92,20.93h38.35V212a17.2,17.2,0,0,0,17.15,17.15H295.76A17.2,17.2,0,0,0,312.91,212V200.12h38.35a21,21,0,0,0,20.92-20.93v-3.07A21,21,0,0,0,351.26,155.2Z" style="fill:#0069aa;opacity:0.1"/><circle cx="47.85" cy="177.36" r="14.98" style="fill:#0069aa;opacity:0.1"/><circle cx="10.86" cy="177.36" r="10.86" style="fill:#0069aa;opacity:0.1"/></g></g></svg>