<svg width="304" height="173" viewBox="0 0 304 173" fill="none" xmlns="http://www.w3.org/2000/svg">
<path d="M275.576 57.8209H201.198C194.424 57.8209 188.928 52.3084 188.928 45.5128C188.928 29.7832 176.185 17 160.504 17H28.4245C12.7437 17 0 29.7832 0 45.5128V58.1535C0 73.8831 12.7437 86.6663 28.4245 86.6663H60.4021C67.1766 86.6663 72.672 92.1788 72.672 98.9744V127.487C72.672 143.217 85.4156 156 101.096 156H160.456C176.137 156 188.881 143.217 188.881 127.487H275.528C291.209 127.487 303.953 114.704 303.953 98.9744V86.3337C304 70.6041 291.256 57.8209 275.576 57.8209Z" fill="#E5F0F7"/>
<g clip-path="url(#clip0)">
<path d="M181.017 110H92.7835C91.2371 110 90 108.762 90 107.215V96.0764C90 94.5294 91.2371 93.2917 92.7835 93.2917H181.017C182.563 93.2917 183.801 94.5294 183.801 96.0764V107.215C183.801 108.762 182.563 110 181.017 110Z" fill="#E5B01C"/>
<path d="M191.4 110H189.235C187.689 110 186.452 108.762 186.452 107.215V96.0764C186.452 94.5294 187.689 93.2917 189.235 93.2917H191.4C192.947 93.2917 194.184 94.5294 194.184 96.0764V107.215C194.184 108.762 192.947 110 191.4 110Z" fill="#7AC142"/>
<path d="M201.827 110H199.662C198.116 110 196.879 108.762 196.879 107.215V96.0764C196.879 94.5294 198.116 93.2917 199.662 93.2917H201.827C203.374 93.2917 204.611 94.5294 204.611 96.0764V107.215C204.611 108.762 203.374 110 201.827 110Z" fill="#7AC142"/>
<path d="M251.401 17H227.763C223.698 17 220.296 20.2709 220.34 24.2933C220.384 26.9895 218.219 29.1554 215.568 29.1554H198.425C194.316 29.1554 191.002 32.4705 191.002 36.5813V50.2837L192.195 85.5124C192.284 87.7224 194.051 89.4463 196.26 89.4463C198.425 89.4463 200.193 87.7666 200.325 85.6008L201.474 63.3674C201.474 56.1184 207.35 50.2837 214.552 50.2837H242.255C246.364 50.2837 249.677 46.9686 249.677 42.8579V33.7524C249.677 32.6915 250.561 31.8075 251.622 31.8075C255.731 31.8075 259.044 28.4924 259.044 24.3817C258.956 20.3151 255.421 17 251.401 17Z" fill="#D4E5F0"/>
</g>
<path d="M94.5 28.5L210 144" stroke="#007AB7" stroke-width="10"/>
<circle cx="151.5" cy="86.5" r="81.5" stroke="#007AB7" stroke-width="10"/>
<defs>
<clipPath id="clip0">
<rect width="169" height="93" fill="white" transform="translate(90 17)"/>
</clipPath>
</defs>
</svg>
