<svg width="366" height="383" viewBox="0 0 366 383" fill="none" xmlns="http://www.w3.org/2000/svg">
<path d="M164.466 23.0004H168.157V16.8129H170.85L174.157 23.0004H178.231L174.523 16.2164C176.509 15.3641 177.608 13.634 177.608 11.2476C177.608 7.77885 175.316 5.5459 171.353 5.5459H164.466V23.0004ZM168.157 13.847V8.56294H170.645C172.776 8.56294 173.807 9.50897 173.807 11.2476C173.807 12.9777 172.776 13.847 170.662 13.847H168.157Z" fill="#002D44"/>
<path d="M183.881 23.2476C185.816 23.2476 187.069 22.4039 187.708 21.1851H187.81V23.0004H191.253V14.1709C191.253 11.0516 188.611 9.73908 185.696 9.73908C182.56 9.73908 180.498 11.2391 179.995 13.6254L183.353 13.8982C183.6 13.0289 184.375 12.3896 185.679 12.3896C186.915 12.3896 187.623 13.0118 187.623 14.0857V14.1368C187.623 14.9806 186.728 15.0914 184.452 15.3129C181.861 15.5516 179.534 16.4209 179.534 19.3442C179.534 21.9351 181.384 23.2476 183.881 23.2476ZM184.921 20.7419C183.804 20.7419 183.003 20.222 183.003 19.2249C183.003 18.2021 183.847 17.6993 185.125 17.5203C185.918 17.4095 187.213 17.222 187.648 16.9323V18.3215C187.648 19.6936 186.515 20.7419 184.921 20.7419Z" fill="#002D44"/>
<path d="M199.985 23.2561C203.471 23.2561 205.661 21.2107 205.831 18.2021H202.405C202.192 19.5999 201.272 20.384 200.027 20.384C198.331 20.384 197.232 18.9607 197.232 16.455C197.232 13.9834 198.34 12.5686 200.027 12.5686C201.357 12.5686 202.209 13.4465 202.405 14.7504H205.831C205.678 11.7249 203.385 9.73908 199.968 9.73908C195.996 9.73908 193.542 12.4919 193.542 16.5061C193.542 20.4862 195.954 23.2561 199.985 23.2561Z" fill="#002D44"/>
<path d="M214.122 23.2561C217.36 23.2561 219.542 21.6794 220.054 19.2504L216.696 19.0289C216.329 20.026 215.392 20.5459 214.182 20.5459C212.366 20.5459 211.216 19.3442 211.216 17.3925V17.384H220.13V16.3868C220.13 11.9379 217.437 9.73908 213.977 9.73908C210.125 9.73908 207.628 12.4749 207.628 16.5146C207.628 20.6652 210.091 23.2561 214.122 23.2561ZM211.216 15.134C211.292 13.6425 212.426 12.4493 214.037 12.4493C215.613 12.4493 216.704 13.5743 216.713 15.134H211.216Z" fill="#002D44"/>
<rect x="-33" y="225" width="399" height="39" rx="19.5" fill="#CBE5C2"/>
<path d="M62.3211 114.26L69.2299 97.668L74.2132 99.1403L70.6456 117.092C69.8528 119.357 67.3611 120.603 65.0393 119.81C62.7742 119.017 61.5283 116.525 62.3211 114.26Z" fill="#FC857A"/>
<path d="M69.23 97.6688L69.9095 92.912C70.136 91.3263 71.665 90.2504 73.3073 90.5902C74.8362 90.9299 75.7989 92.4589 75.4592 93.9879L74.2133 99.1978L69.23 97.6688Z" fill="#F4D2BA"/>
<path d="M59.0366 260.307C55.3557 260.307 52.2978 257.476 52.0712 253.795L44.7095 160.357C44.7095 154.015 49.8627 148.861 56.2051 148.861H61.9247C68.2671 148.861 73.4203 154.015 73.4203 160.357L66.0586 253.795C65.7754 257.476 62.7175 260.307 59.0366 260.307Z" fill="#0069AA"/>
<path d="M59.0367 88.5503C52.6376 88.5503 47.4277 83.3405 47.4277 76.9414V69.5796C47.4277 63.1806 52.6376 57.9707 59.0367 57.9707C65.4357 57.9707 70.6456 63.1806 70.6456 69.5796V76.9414C70.6456 83.3405 65.4924 88.5503 59.0367 88.5503Z" fill="#F4D2BA"/>
<path d="M71.5516 166.302H46.0685C43.2937 166.302 41.0286 164.037 41.0286 161.262L44.7094 102.028C44.7094 95.6855 49.8627 90.5322 56.2051 90.5322H59.6595C66.0019 90.5322 71.1552 95.6855 71.1552 102.028L76.6482 161.262C76.6482 164.037 74.383 166.302 71.5516 166.302Z" fill="#FF6A52"/>
<path d="M73.4769 127.115L49.5229 105.822C47.2577 103.784 47.0312 100.273 49.0698 97.9511C51.1085 95.6859 54.6194 95.4594 56.9412 97.498L80.8953 118.791C83.1604 120.829 83.387 124.34 81.3483 126.662C79.3097 128.984 75.7421 129.154 73.4769 127.115Z" fill="#FC857A"/>
<path d="M72.4008 122.019L78.9698 100.217L85.4255 101.463L83.217 124.567C82.5374 127.569 79.5361 129.381 76.5348 128.701C73.5901 128.022 71.7213 125.02 72.4008 122.019Z" fill="#FC857A"/>
<path d="M78.97 100.274L79.2531 94.2142C79.3664 92.1756 81.1785 90.59 83.2171 90.8165C85.1991 91.043 86.6149 92.8551 86.3317 94.8372L85.4257 101.519L78.97 100.274Z" fill="#F4D2BA"/>
<path d="M61.0751 69.1274C58.2437 70.4865 55.0725 70.9961 52.241 72.2986C50.259 73.2046 48.4469 74.7902 47.5408 76.659C47.3143 77.1687 46.5215 77.0554 46.4648 76.4891C46.0118 73.0914 46.2383 69.5804 47.3709 66.2959C48.8433 62.1054 52.0711 58.4811 56.2617 57.0088C59.4329 55.9328 66.3416 56.1593 68.0971 59.8402C69.7393 63.5211 63.9066 67.7683 61.0751 69.1274Z" fill="#E5B01C"/>
<path d="M44.8227 47.4385C40.0659 45.9662 34.0632 48.288 32.5908 53.1014C31.7414 55.9329 32.5342 58.9342 33.6668 61.6524C35.7054 66.3526 39.9526 72.0155 35.5922 76.7723C35.4789 76.8856 35.4223 76.9422 35.309 77.0555C34.1764 78.1881 35.6488 80.0568 37.0079 79.1508C37.914 78.5278 38.7068 77.735 39.3297 76.829C42.331 72.4685 40.1225 61.9922 47.5409 61.256C49.6362 61.0295 52.0712 60.9729 53.1471 58.821C53.4869 58.0282 53.6002 57.1787 53.4869 56.3293C52.864 51.9122 48.7867 48.6278 44.8227 47.4385Z" fill="#E5B01C"/>
<path d="M137.364 77.9458C130.965 77.9458 125.755 72.736 125.755 66.3369V58.9751C125.755 52.5761 130.965 47.3662 137.364 47.3662C143.763 47.3662 148.973 52.5761 148.973 58.9751V66.3369C148.973 72.7926 143.763 77.9458 137.364 77.9458Z" fill="#8C6449"/>
<path d="M144.329 116.567L120.375 95.218C118.11 93.1794 117.883 89.6684 119.922 87.3466C121.961 85.0814 125.472 84.8549 127.794 86.8935L151.748 108.186C154.013 110.225 154.239 113.736 152.201 116.057C150.162 118.379 146.594 118.606 144.329 116.567Z" fill="#FC857A"/>
<path d="M173.154 81.854L174.513 75.908C174.966 73.9259 177.004 72.6801 178.986 73.303C180.912 73.8693 181.988 75.9079 181.365 77.7767L179.269 84.2324L173.154 81.854Z" fill="#8C6449"/>
<path d="M123.433 141.257L125.755 146.863C126.548 148.788 125.529 150.94 123.603 151.563C121.734 152.186 119.639 151.167 119.073 149.242L117.091 142.786L123.433 141.257Z" fill="#8C6449"/>
<path d="M164.772 117.302C162.224 116.453 160.922 113.621 161.884 111.073L173.323 81.3994L179.949 83.6646L170.888 114.131C170.096 116.736 167.321 118.208 164.772 117.302Z" fill="#7AC142"/>
<path d="M109.333 106.997C111.938 106.204 114.656 107.676 115.335 110.281L123.547 140.974L116.864 143.013L106.275 113.056C105.369 110.621 106.784 107.846 109.333 106.997Z" fill="#7AC142"/>
<path d="M154.579 142.503L155.089 249.362C155.032 252.25 152.711 254.515 149.823 254.515H148.464C145.689 254.515 143.424 252.363 143.254 249.588L138.61 166.797C138.61 166.514 138.327 166.23 138.044 166.23C137.704 166.23 137.477 166.514 137.477 166.797L135.382 249.588C135.326 252.476 133.004 254.741 130.116 254.741H128.19C125.416 254.741 123.15 252.59 122.98 249.815L120.659 143.692L154.579 142.503Z" fill="#0069AA"/>
<path d="M170.888 110.509L158.6 89.3295C156.391 84.8558 151.861 82.0244 146.934 82.0244L128.02 81.9678C122.697 81.9678 117.883 85.139 115.901 90.0657L106.501 109.603C105.482 112.151 106.671 115.039 109.219 116.058C111.767 117.078 114.656 115.889 115.675 113.34L119.809 106.658L120.149 144.713C120.205 146.808 121.904 148.507 123.999 148.507H150.898C152.993 148.507 154.692 146.808 154.749 144.713L155.145 103.43L162.111 114.869C163.3 117.304 166.301 118.324 168.736 117.134C171.115 115.945 172.077 112.944 170.888 110.509Z" fill="#7AC142"/>
<path d="M130.682 53.3692C132.097 53.1427 133.06 54.6717 134.136 55.6344C135.835 57.22 138.553 57.5031 140.592 56.3705C141.554 55.8043 142.347 54.9548 143.367 54.5018C144.273 54.1054 145.575 53.9355 146.481 54.3885C147.331 54.7849 147.387 55.8043 148.633 55.6344C149.766 55.4645 148.18 51.5005 147.84 51.1041C146.821 49.8582 145.179 48.6124 143.763 47.8762C139.119 45.4412 131.814 45.7809 128.133 49.9715C127.397 50.7643 124.962 55.4645 126.604 56.2007C127.68 56.767 129.549 53.5957 130.682 53.3692Z" fill="#969696"/>
<path d="M217.867 83.1558C211.468 83.1558 206.258 77.9459 206.258 71.5469V64.1851C206.258 57.786 211.468 52.5762 217.867 52.5762C224.266 52.5762 229.476 57.786 229.476 64.1851V71.5469C229.42 78.0026 224.266 83.1558 217.867 83.1558Z" fill="#FCBA8D"/>
<path d="M240.405 148.449L239.046 154.395C238.593 156.377 236.555 157.623 234.573 157C232.647 156.433 231.571 154.395 232.194 152.526L234.29 146.07L240.405 148.449Z" fill="#FCBA8D"/>
<path d="M192.101 148.676V154.735C192.101 156.774 190.345 158.416 188.307 158.303C186.325 158.189 184.796 156.434 185.022 154.452L185.645 147.713L192.101 148.676Z" fill="#FCBA8D"/>
<path d="M248.787 112.999C251.335 113.848 252.637 116.68 251.675 119.228L240.236 148.901L233.61 146.636L242.671 116.17C243.464 113.565 246.238 112.093 248.787 112.999Z" fill="#0069AA"/>
<path d="M191.988 111.64C194.649 111.867 196.631 114.302 196.291 116.963L192.271 148.506L185.305 147.883L186.778 116.171C186.948 113.452 189.326 111.414 191.988 111.64Z" fill="#0069AA"/>
<path d="M235.648 147.713L234.403 249.645C234.346 252.533 232.024 254.798 229.136 254.798H227.777C225.002 254.798 222.737 252.646 222.567 249.872L219.113 171.95C219.113 171.667 218.83 171.384 218.546 171.384C218.207 171.384 217.98 171.667 217.98 171.95L217.074 249.872C217.017 252.76 214.696 255.025 211.808 255.025H209.882C207.107 255.025 204.842 252.873 204.672 250.098L199.916 148.959L235.648 147.713Z" fill="#002D44"/>
<path d="M251.391 115.717L239.103 94.5375C236.894 90.0639 232.364 87.2324 227.437 87.2324L208.523 87.1758C203.2 87.1758 198.387 90.347 196.405 95.2737L187.004 114.811C185.985 117.359 187.174 120.247 189.722 121.266C192.271 122.286 195.159 121.097 196.178 118.548L200.312 111.866L198.84 157.679C198.896 159.774 200.595 161.473 202.69 161.473H233.1C235.195 161.473 236.894 159.774 236.951 157.679L235.592 108.638L242.557 120.077C243.746 122.512 246.748 123.532 249.183 122.342C251.561 121.153 252.581 118.208 251.391 115.717Z" fill="#0069AA"/>
<path d="M224.153 58.5789C224.153 59.938 223.587 61.2971 222.568 62.2031C224.323 62.0332 226.022 61.467 227.494 60.5043C227.777 62.2598 228.4 63.9586 229.306 65.4876C229.59 62.8261 229.929 60.1645 230.156 57.5029C230.212 56.9933 230.043 53.1991 230.212 53.1425C225.852 54.1618 221.605 51.2171 217.188 50.934C213.79 50.7075 210.279 52.1798 208.071 54.7281C206.938 56.0306 206.145 57.5596 205.749 59.2018C205.466 60.2211 204.786 63.2225 205.579 64.1851C206.655 65.4876 210.449 63.6755 211.751 63.1658C213.847 62.3164 215.829 61.2404 217.867 60.3344C218.32 60.0512 224.153 58.1258 224.153 58.5789Z" fill="#002D44"/>
<path d="M307.233 259.781C310.914 259.837 314.029 257.006 314.312 253.382L323.033 155.867C323.146 149.524 318.05 144.314 311.707 144.201L305.988 144.144C299.645 144.031 294.435 149.128 294.322 155.47L300.325 253.155C300.495 256.836 303.553 259.724 307.233 259.781Z" fill="#FC857A"/>
<path d="M308.932 83.7779C315.331 83.7779 320.541 78.568 320.541 72.1689V64.8072C320.541 58.4081 315.331 53.1982 308.932 53.1982C302.533 53.1982 297.323 58.4081 297.323 64.8072V72.1689C297.323 78.568 302.533 83.7779 308.932 83.7779Z" fill="#DD9666"/>
<path d="M297.323 161.529H319.579C322.353 161.529 324.619 159.264 324.619 156.489L321.391 97.2555C321.391 90.913 316.237 85.7598 309.895 85.7598H305.988C299.645 85.7598 294.492 90.913 294.492 97.2555L292.17 156.489C292.283 159.264 294.549 161.529 297.323 161.529Z" fill="#7AC142"/>
<path d="M297.323 127.101L312.5 98.8429C313.972 96.1247 312.953 92.7836 310.235 91.3113C307.517 89.8389 304.176 90.8582 302.703 93.5764L287.527 121.834C286.054 124.552 287.074 127.894 289.792 129.366C292.51 130.782 295.851 129.762 297.323 127.101Z" fill="#86CC48"/>
<path d="M293.133 118.663L270.481 116.851L269.292 123.306L291.604 129.649C294.605 130.102 297.437 127.95 297.89 124.949C298.286 121.947 296.134 119.116 293.133 118.663Z" fill="#86CC48"/>
<path d="M270.481 116.85L264.705 114.868C262.78 114.188 260.684 115.321 260.118 117.303C259.608 119.228 260.798 121.21 262.723 121.663L269.292 123.249L270.481 116.85Z" fill="#DD9666"/>
<path d="M270.481 116.851C270.481 116.851 268.499 113.17 267.593 113.056C266.687 112.943 264.535 113.962 265.951 115.661C267.366 117.36 270.481 116.851 270.481 116.851Z" fill="#DD9666"/>
<path d="M294.945 58.8618C294.435 60.3341 294.265 62.033 295.115 63.3355C295.568 64.0717 296.304 64.5247 297.097 64.9211C298.343 65.544 299.758 65.8838 301.118 65.7705C303.156 65.6573 305.025 64.6946 306.667 63.562C308.309 62.4294 309.838 61.0137 310.688 59.1449C312.5 55.2375 309.782 50.594 305.365 51.4434C301.061 52.2362 296.587 54.5014 294.945 58.8618Z" fill="#0069AA"/>
<path d="M308.932 62.712C309.329 64.9772 310.008 66.9592 310.744 67.9219C311.367 68.7713 312.217 69.5641 312.613 70.5268C313.406 72.339 311.594 75.6234 311.311 77.5488C310.971 79.7007 311.48 81.5128 312.273 83.4382C312.896 84.9106 314.142 86.4962 314.312 88.0818C314.425 88.9312 314.142 89.7807 313.972 90.6301C313.349 93.8013 314.199 97.822 318.219 97.9352C320.881 97.9919 322.92 95.4436 323.656 92.8953C324.448 90.0638 324.165 86.9492 322.863 84.2877C322.806 84.1178 324.505 81.1164 324.618 80.6634C325.015 79.2477 325.071 77.9452 324.958 76.5295C324.845 74.0378 324.562 71.263 322.127 69.8473C323.995 66.1664 323.769 61.5228 321.56 58.0685C319.918 55.4635 315.728 52.1224 312.33 52.6321C308.649 53.1417 308.196 58.4082 308.932 62.712Z" fill="#0069AA"/>
<path d="M128.403 269.546H124.934L120.613 272.281V275.554L124.61 273.048H124.713V287H128.403V269.546Z" fill="#004F7F"/>
<path d="M139.25 287.239C143.137 287.256 145.787 284.707 145.779 281.153C145.787 277.881 143.503 275.52 140.409 275.52C138.492 275.52 136.796 276.44 136.012 277.983H135.892C135.909 274.582 137.103 272.469 139.378 272.469C140.716 272.469 141.679 273.202 141.961 274.421H145.6C145.25 271.548 142.864 269.307 139.378 269.307C135.066 269.307 132.296 272.801 132.279 278.665C132.27 285.057 135.662 287.222 139.25 287.239ZM139.233 284.341C137.529 284.341 136.267 282.969 136.267 281.264C136.276 279.568 137.563 278.188 139.259 278.188C140.963 278.188 142.208 279.526 142.199 281.256C142.208 283.003 140.938 284.341 139.233 284.341Z" fill="#004F7F"/>
<path d="M157.949 283.727C157.958 285.824 159.296 287.605 161.793 287.605C164.265 287.605 165.645 285.824 165.637 283.727V282.807C165.645 280.693 164.299 278.929 161.793 278.929C159.33 278.929 157.958 280.71 157.949 282.807V283.727ZM148.992 273.739C149 275.835 150.338 277.6 152.827 277.6C155.307 277.6 156.688 275.852 156.679 273.739V272.818C156.688 270.705 155.341 268.94 152.827 268.94C150.39 268.94 149 270.705 148.992 272.818V273.739ZM149.827 287H152.051L164.051 269.546H161.827L149.827 287ZM160.429 282.807C160.438 281.972 160.77 281.111 161.793 281.111C162.867 281.111 163.148 281.972 163.14 282.807V283.727C163.148 284.563 162.833 285.406 161.793 285.406C160.753 285.406 160.438 284.537 160.429 283.727V282.807ZM151.489 272.818C151.498 272.009 151.813 271.122 152.827 271.122C153.901 271.122 154.191 271.983 154.182 272.818V273.739C154.191 274.574 153.867 275.418 152.827 275.418C151.821 275.418 151.498 274.574 151.489 273.739V272.818Z" fill="#004F7F"/>
<path d="M114.479 310H118.684C121.434 310 122.57 308.659 122.57 306.909C122.57 305.068 121.298 304.068 120.229 304V303.886C121.229 303.613 122.116 302.954 122.116 301.454C122.116 299.75 120.979 298.363 118.548 298.363H114.479V310ZM115.889 308.75V304.704H118.752C120.275 304.704 121.229 305.727 121.229 306.909C121.229 307.931 120.525 308.75 118.684 308.75H115.889ZM115.889 303.477V299.613H118.548C120.093 299.613 120.775 300.431 120.775 301.454C120.775 302.681 119.775 303.477 118.502 303.477H115.889Z" fill="#004F7F"/>
<path d="M126.045 298.363H124.704V310H126.045V298.363Z" fill="#004F7F"/>
<path d="M131.069 310.204C132.592 310.204 133.387 309.386 133.66 308.818H133.728V310H135.069V304.25C135.069 301.477 132.955 301.159 131.842 301.159C130.524 301.159 129.024 301.613 128.342 303.204L129.614 303.659C129.91 303.022 130.609 302.341 131.887 302.341C133.12 302.341 133.728 302.994 133.728 304.113V304.159C133.728 304.806 133.069 304.75 131.478 304.954C129.859 305.164 128.092 305.522 128.092 307.522C128.092 309.227 129.41 310.204 131.069 310.204ZM131.274 309C130.205 309 129.433 308.522 129.433 307.591C129.433 306.568 130.364 306.25 131.41 306.113C131.978 306.045 133.501 305.886 133.728 305.613V306.841C133.728 307.931 132.864 309 131.274 309Z" fill="#004F7F"/>
<path d="M141.062 310.181C142.994 310.181 144.266 309 144.494 307.454H143.153C142.903 308.409 142.107 308.977 141.062 308.977C139.471 308.977 138.448 307.659 138.448 305.636C138.448 303.659 139.494 302.363 141.062 302.363C142.244 302.363 142.948 303.091 143.153 303.886H144.494C144.266 302.25 142.88 301.159 141.039 301.159C138.676 301.159 137.107 303.022 137.107 305.681C137.107 308.295 138.607 310.181 141.062 310.181Z" fill="#004F7F"/>
<path d="M146.454 310H147.795V306.733L148.732 305.863L151.999 310H153.704L149.744 305L153.431 301.272H151.772L147.954 305.159H147.795V298.363H146.454V310Z" fill="#004F7F"/>
<path d="M163.203 310.181C165.566 310.181 167.157 308.386 167.157 305.681C167.157 302.954 165.566 301.159 163.203 301.159C160.839 301.159 159.248 302.954 159.248 305.681C159.248 308.386 160.839 310.181 163.203 310.181ZM163.203 308.977C161.407 308.977 160.589 307.431 160.589 305.681C160.589 303.931 161.407 302.363 163.203 302.363C164.998 302.363 165.816 303.931 165.816 305.681C165.816 307.431 164.998 308.977 163.203 308.977Z" fill="#004F7F"/>
<path d="M169.204 310H170.545V304.477C170.545 303.295 171.477 302.431 172.749 302.431C173.107 302.431 173.477 302.5 173.568 302.522V301.159C173.414 301.147 173.062 301.136 172.863 301.136C171.818 301.136 170.908 301.727 170.59 302.591H170.499V301.272H169.204V310Z" fill="#004F7F"/>
<path d="M116.316 330L117.487 326.704H122.191L123.362 330H124.839L120.566 318.363H119.112L114.839 330H116.316ZM117.93 325.454L119.793 320.204H119.884L121.748 325.454H117.93Z" fill="#004F7F"/>
<path d="M130.356 321.272H128.401V320.386C128.401 319.522 128.765 319.068 129.651 319.068C130.038 319.068 130.265 319.159 130.401 319.204L130.788 318.045C130.583 317.954 130.174 317.818 129.515 317.818C128.265 317.818 127.06 318.568 127.06 320.068V321.272H125.651V322.409H127.06V330H128.401V322.409H130.356V321.272Z" fill="#004F7F"/>
<path d="M132.235 330H133.576V324.477C133.576 323.295 134.508 322.431 135.781 322.431C136.139 322.431 136.508 322.5 136.599 322.522V321.159C136.445 321.147 136.093 321.136 135.894 321.136C134.849 321.136 133.94 321.727 133.622 322.591H133.531V321.272H132.235V330Z" fill="#004F7F"/>
<path d="M138.188 330H139.529V321.272H138.188V330ZM138.87 319.818C139.393 319.818 139.825 319.409 139.825 318.909C139.825 318.409 139.393 318 138.87 318C138.347 318 137.916 318.409 137.916 318.909C137.916 319.409 138.347 319.818 138.87 319.818Z" fill="#004F7F"/>
<path d="M145.531 330.181C147.462 330.181 148.735 329 148.962 327.454H147.622C147.372 328.409 146.576 328.977 145.531 328.977C143.94 328.977 142.917 327.659 142.917 325.636C142.917 323.659 143.962 322.363 145.531 322.363C146.712 322.363 147.417 323.091 147.622 323.886H148.962C148.735 322.25 147.349 321.159 145.508 321.159C143.144 321.159 141.576 323.022 141.576 325.681C141.576 328.295 143.076 330.181 145.531 330.181Z" fill="#004F7F"/>
<path d="M153.491 330.204C155.014 330.204 155.809 329.386 156.082 328.818H156.15V330H157.491V324.25C157.491 321.477 155.377 321.159 154.264 321.159C152.945 321.159 151.445 321.613 150.764 323.204L152.036 323.659C152.332 323.022 153.031 322.341 154.309 322.341C155.542 322.341 156.15 322.994 156.15 324.113V324.159C156.15 324.806 155.491 324.75 153.9 324.954C152.281 325.164 150.514 325.522 150.514 327.522C150.514 329.227 151.832 330.204 153.491 330.204ZM153.695 329C152.627 329 151.854 328.522 151.854 327.591C151.854 326.568 152.786 326.25 153.832 326.113C154.4 326.045 155.923 325.886 156.15 325.613V326.841C156.15 327.931 155.286 329 153.695 329Z" fill="#004F7F"/>
<path d="M161.279 324.75C161.279 323.227 162.222 322.363 163.506 322.363C164.751 322.363 165.506 323.176 165.506 324.545V330H166.847V324.454C166.847 322.227 165.66 321.159 163.893 321.159C162.575 321.159 161.756 321.75 161.347 322.636H161.234V321.272H159.938V330H161.279V324.75Z" fill="#004F7F"/>
<path d="M109.84 350L111.01 346.704H115.715L116.885 350H118.362L114.09 338.363H112.635L108.362 350H109.84ZM111.453 345.454L113.317 340.204H113.408L115.271 345.454H111.453Z" fill="#004F7F"/>
<path d="M119.993 350H121.334V344.545C121.334 343.267 122.266 342.363 123.311 342.363C124.328 342.363 125.038 343.028 125.038 344.022V350H126.402V344.318C126.402 343.193 127.107 342.363 128.334 342.363C129.288 342.363 130.107 342.869 130.107 344.159V350H131.448V344.159C131.448 342.108 130.345 341.159 128.788 341.159C127.538 341.159 126.624 341.733 126.175 342.636H126.084C125.652 341.704 124.891 341.159 123.743 341.159C122.607 341.159 121.766 341.704 121.402 342.636H121.288V341.272H119.993V350Z" fill="#004F7F"/>
<path d="M137.558 350.181C139.331 350.181 140.627 349.295 141.036 347.977L139.74 347.613C139.399 348.522 138.609 348.977 137.558 348.977C135.984 348.977 134.899 347.96 134.837 346.091H141.172V345.522C141.172 342.272 139.24 341.159 137.422 341.159C135.058 341.159 133.49 343.022 133.49 345.704C133.49 348.386 135.036 350.181 137.558 350.181ZM134.837 344.931C134.928 343.574 135.888 342.363 137.422 342.363C138.877 342.363 139.808 343.454 139.808 344.931H134.837Z" fill="#004F7F"/>
<path d="M143.212 350H144.553V344.477C144.553 343.295 145.484 342.431 146.757 342.431C147.115 342.431 147.484 342.5 147.575 342.522V341.159C147.422 341.147 147.07 341.136 146.871 341.136C145.825 341.136 144.916 341.727 144.598 342.591H144.507V341.272H143.212V350Z" fill="#004F7F"/>
<path d="M149.165 350H150.506V341.272H149.165V350ZM149.847 339.818C150.369 339.818 150.801 339.409 150.801 338.909C150.801 338.409 150.369 338 149.847 338C149.324 338 148.892 338.409 148.892 338.909C148.892 339.409 149.324 339.818 149.847 339.818Z" fill="#004F7F"/>
<path d="M156.507 350.181C158.439 350.181 159.712 349 159.939 347.454H158.598C158.348 348.409 157.553 348.977 156.507 348.977C154.916 348.977 153.894 347.659 153.894 345.636C153.894 343.659 154.939 342.363 156.507 342.363C157.689 342.363 158.394 343.091 158.598 343.886H159.939C159.712 342.25 158.325 341.159 156.484 341.159C154.121 341.159 152.553 343.022 152.553 345.681C152.553 348.295 154.053 350.181 156.507 350.181Z" fill="#004F7F"/>
<path d="M164.467 350.204C165.99 350.204 166.786 349.386 167.058 348.818H167.127V350H168.467V344.25C168.467 341.477 166.354 341.159 165.24 341.159C163.922 341.159 162.422 341.613 161.74 343.204L163.013 343.659C163.308 343.022 164.007 342.341 165.286 342.341C166.519 342.341 167.127 342.994 167.127 344.113V344.159C167.127 344.806 166.467 344.75 164.877 344.954C163.257 345.164 161.49 345.522 161.49 347.522C161.49 349.227 162.808 350.204 164.467 350.204ZM164.672 349C163.604 349 162.831 348.522 162.831 347.591C162.831 346.568 163.763 346.25 164.808 346.113C165.377 346.045 166.899 345.886 167.127 345.613V346.841C167.127 347.931 166.263 349 164.672 349Z" fill="#004F7F"/>
<path d="M172.256 344.75C172.256 343.227 173.199 342.363 174.483 342.363C175.727 342.363 176.483 343.176 176.483 344.545V350H177.824V344.454C177.824 342.227 176.636 341.159 174.869 341.159C173.551 341.159 172.733 341.75 172.324 342.636H172.21V341.272H170.915V350H172.256V344.75Z" fill="#004F7F"/>
<path d="M41.7261 287H45.5358L52.7801 272.605V269.546H40.533V272.563H48.9619V272.682L41.7261 287Z" fill="#004F7F"/>
<path d="M53.6388 283.932H62.0166V287H65.545V283.932H67.7098V280.975H65.545V269.546H60.9257L53.6388 281.026V283.932ZM62.0848 280.975H57.3547V280.838L61.9484 273.568H62.0848V280.975Z" fill="#004F7F"/>
<path d="M79.7226 283.727C79.7311 285.824 81.0692 287.605 83.5663 287.605C86.0379 287.605 87.4186 285.824 87.4101 283.727V282.807C87.4186 280.693 86.072 278.929 83.5663 278.929C81.1033 278.929 79.7311 280.71 79.7226 282.807V283.727ZM70.7652 273.739C70.7737 275.835 72.1118 277.6 74.6004 277.6C77.0805 277.6 78.4612 275.852 78.4527 273.739V272.818C78.4612 270.705 77.1146 268.94 74.6004 268.94C72.1629 268.94 70.7737 270.705 70.7652 272.818V273.739ZM71.6004 287H73.8249L85.8249 269.546H83.6004L71.6004 287ZM82.2027 282.807C82.2112 281.972 82.5436 281.111 83.5663 281.111C84.6402 281.111 84.9215 281.972 84.9129 282.807V283.727C84.9215 284.563 84.6061 285.406 83.5663 285.406C82.5266 285.406 82.2112 284.537 82.2027 283.727V282.807ZM73.2624 272.818C73.2709 272.009 73.5862 271.122 74.6004 271.122C75.6743 271.122 75.9641 271.983 75.9555 272.818V273.739C75.9641 274.574 75.6402 275.418 74.6004 275.418C73.5948 275.418 73.2709 274.574 73.2624 273.739V272.818Z" fill="#004F7F"/>
<path d="M46.2883 310H47.7428L50.311 300.727H50.4019L52.9701 310H54.4246L57.6064 298.364H56.1746L53.7428 307.841H53.6292L51.1519 298.364H49.561L47.0837 307.841H46.9701L44.5383 298.364H43.1064L46.2883 310Z" fill="#004F7F"/>
<path d="M60.5212 304.75C60.5212 303.227 61.4928 302.364 62.8167 302.364C64.078 302.364 64.8394 303.159 64.8394 304.545V310H66.1803V304.455C66.1803 302.21 64.9871 301.159 63.203 301.159C61.828 301.159 61.0439 301.733 60.6349 302.636H60.5212V298.364H59.1803V310H60.5212V304.75Z" fill="#004F7F"/>
<path d="M68.6334 310H69.9743V301.273H68.6334V310ZM69.3153 299.818C69.838 299.818 70.2698 299.409 70.2698 298.909C70.2698 298.409 69.838 298 69.3153 298C68.7925 298 68.3607 298.409 68.3607 298.909C68.3607 299.409 68.7925 299.818 69.3153 299.818Z" fill="#004F7F"/>
<path d="M76.2258 301.273H74.3621V299.182H73.0212V301.273H71.703V302.409H73.0212V307.864C73.0212 309.386 74.2485 310.114 75.3849 310.114C75.8849 310.114 76.203 310.023 76.3849 309.955L76.1121 308.75C75.9985 308.773 75.8167 308.818 75.5212 308.818C74.9303 308.818 74.3621 308.636 74.3621 307.5V302.409H76.2258V301.273Z" fill="#004F7F"/>
<path d="M81.8082 310.182C83.5809 310.182 84.8763 309.295 85.2854 307.977L83.99 307.614C83.6491 308.523 82.8593 308.977 81.8082 308.977C80.2343 308.977 79.1491 307.96 79.0866 306.091H85.4218V305.523C85.4218 302.273 83.49 301.159 81.6718 301.159C79.3081 301.159 77.74 303.023 77.74 305.705C77.74 308.386 79.2854 310.182 81.8082 310.182ZM79.0866 304.932C79.1775 303.574 80.1377 302.364 81.6718 302.364C83.1263 302.364 84.0582 303.455 84.0582 304.932H79.0866Z" fill="#004F7F"/>
<path d="M212.144 290.239C216.064 290.239 218.868 288.082 218.86 285.1C218.868 282.926 217.488 281.375 214.922 281.051V280.915C216.874 280.565 218.221 279.185 218.212 277.225C218.221 274.472 215.809 272.307 212.195 272.307C208.615 272.307 205.922 274.403 205.871 277.421H209.408C209.451 276.091 210.669 275.23 212.178 275.23C213.669 275.23 214.667 276.134 214.658 277.446C214.667 278.818 213.499 279.747 211.82 279.747H210.192V282.457H211.82C213.797 282.457 215.033 283.446 215.025 284.852C215.033 286.242 213.84 287.196 212.152 287.196C210.525 287.196 209.306 286.344 209.238 285.065H205.522C205.581 288.117 208.309 290.239 212.144 290.239Z" fill="#004F7F"/>
<path d="M231.066 286.727C231.075 288.824 232.413 290.605 234.91 290.605C237.382 290.605 238.762 288.824 238.754 286.727V285.807C238.762 283.693 237.416 281.929 234.91 281.929C232.447 281.929 231.075 283.71 231.066 285.807V286.727ZM222.109 276.739C222.118 278.835 223.456 280.6 225.944 280.6C228.424 280.6 229.805 278.852 229.797 276.739V275.818C229.805 273.705 228.459 271.94 225.944 271.94C223.507 271.94 222.118 273.705 222.109 275.818V276.739ZM222.944 290H225.169L237.169 272.546H234.944L222.944 290ZM233.547 285.807C233.555 284.972 233.887 284.111 234.91 284.111C235.984 284.111 236.265 284.972 236.257 285.807V286.727C236.265 287.563 235.95 288.406 234.91 288.406C233.87 288.406 233.555 287.537 233.547 286.727V285.807ZM224.606 275.818C224.615 275.009 224.93 274.122 225.944 274.122C227.018 274.122 227.308 274.983 227.299 275.818V276.739C227.308 277.574 226.984 278.418 225.944 278.418C224.939 278.418 224.615 277.574 224.606 276.739V275.818Z" fill="#004F7F"/>
<path d="M203.715 313L204.885 309.705H209.59L210.76 313H212.237L207.965 301.364H206.51L202.237 313H203.715ZM205.328 308.455L207.192 303.205H207.283L209.146 308.455H205.328Z" fill="#004F7F"/>
<path d="M220.05 306.227C219.629 304.989 218.686 304.159 216.959 304.159C215.118 304.159 213.754 305.205 213.754 306.682C213.754 307.886 214.47 308.693 216.073 309.068L217.527 309.409C218.408 309.614 218.823 310.034 218.823 310.636C218.823 311.386 218.027 312 216.777 312C215.68 312 214.993 311.528 214.754 310.591L213.482 310.909C213.794 312.392 215.016 313.182 216.8 313.182C218.828 313.182 220.209 312.074 220.209 310.568C220.209 309.352 219.448 308.585 217.891 308.205L216.595 307.886C215.561 307.631 215.095 307.284 215.095 306.614C215.095 305.864 215.891 305.318 216.959 305.318C218.129 305.318 218.612 305.966 218.845 306.568L220.05 306.227Z" fill="#004F7F"/>
<path d="M222.227 313H223.568V304.273H222.227V313ZM222.909 302.818C223.432 302.818 223.864 302.409 223.864 301.909C223.864 301.409 223.432 301 222.909 301C222.386 301 221.955 301.409 221.955 301.909C221.955 302.409 222.386 302.818 222.909 302.818Z" fill="#004F7F"/>
<path d="M228.592 313.205C230.115 313.205 230.911 312.386 231.183 311.818H231.252V313H232.592V307.25C232.592 304.477 230.479 304.159 229.365 304.159C228.047 304.159 226.547 304.614 225.865 306.205L227.138 306.659C227.433 306.023 228.132 305.341 229.411 305.341C230.644 305.341 231.252 305.994 231.252 307.114V307.159C231.252 307.807 230.592 307.75 229.002 307.955C227.382 308.165 225.615 308.523 225.615 310.523C225.615 312.227 226.933 313.205 228.592 313.205ZM228.797 312C227.729 312 226.956 311.523 226.956 310.591C226.956 309.568 227.888 309.25 228.933 309.114C229.502 309.045 231.024 308.886 231.252 308.614V309.841C231.252 310.932 230.388 312 228.797 312Z" fill="#004F7F"/>
<path d="M236.381 307.75C236.381 306.227 237.324 305.364 238.608 305.364C239.852 305.364 240.608 306.176 240.608 307.545V313H241.949V307.455C241.949 305.227 240.761 304.159 238.994 304.159C237.676 304.159 236.858 304.75 236.449 305.636H236.335V304.273H235.04V313H236.381V307.75Z" fill="#004F7F"/>
<path d="M289.156 290H292.965L300.21 275.605V272.546H287.963V275.563H296.392V275.682L289.156 290Z" fill="#004F7F"/>
<path d="M312.293 286.727C312.301 288.824 313.639 290.605 316.137 290.605C318.608 290.605 319.989 288.824 319.98 286.727V285.807C319.989 283.693 318.642 281.929 316.137 281.929C313.674 281.929 312.301 283.71 312.293 285.807V286.727ZM303.336 276.739C303.344 278.835 304.682 280.6 307.171 280.6C309.651 280.6 311.032 278.852 311.023 276.739V275.818C311.032 273.705 309.685 271.94 307.171 271.94C304.733 271.94 303.344 273.705 303.336 275.818V276.739ZM304.171 290H306.395L318.395 272.546H316.171L304.171 290ZM314.773 285.807C314.782 284.972 315.114 284.111 316.137 284.111C317.211 284.111 317.492 284.972 317.483 285.807V286.727C317.492 287.563 317.176 288.406 316.137 288.406C315.097 288.406 314.782 287.537 314.773 286.727V285.807ZM305.833 275.818C305.841 275.009 306.157 274.122 307.171 274.122C308.245 274.122 308.534 274.983 308.526 275.818V276.739C308.534 277.574 308.211 278.418 307.171 278.418C306.165 278.418 305.841 277.574 305.833 276.739V275.818Z" fill="#004F7F"/>
<path d="M290.282 307.181C290.282 303.5 288.123 301.204 285.146 301.204C282.168 301.204 280.009 303.5 280.009 307.181C280.009 310.863 282.168 313.159 285.146 313.159C288.123 313.159 290.282 310.863 290.282 307.181ZM288.918 307.181C288.918 310.204 287.259 311.84 285.146 311.84C283.032 311.84 281.373 310.204 281.373 307.181C281.373 304.159 283.032 302.522 285.146 302.522C287.259 302.522 288.918 304.159 288.918 307.181Z" fill="#004F7F"/>
<path d="M296.265 304.272H294.401V302.181H293.06V304.272H291.742V305.409H293.06V310.863C293.06 312.386 294.288 313.113 295.424 313.113C295.924 313.113 296.242 313.022 296.424 312.954L296.151 311.75C296.038 311.772 295.856 311.818 295.56 311.818C294.969 311.818 294.401 311.636 294.401 310.5V305.409H296.265V304.272Z" fill="#004F7F"/>
<path d="M299.81 307.75C299.81 306.227 300.782 305.363 302.106 305.363C303.367 305.363 304.129 306.159 304.129 307.545V313H305.469V307.454C305.469 305.21 304.276 304.159 302.492 304.159C301.117 304.159 300.333 304.733 299.924 305.636H299.81V301.363H298.469V313H299.81V307.75Z" fill="#004F7F"/>
<path d="M311.582 313.181C313.354 313.181 314.65 312.295 315.059 310.977L313.764 310.613C313.423 311.522 312.633 311.977 311.582 311.977C310.008 311.977 308.923 310.96 308.86 309.09H315.195V308.522C315.195 305.272 313.264 304.159 311.445 304.159C309.082 304.159 307.514 306.022 307.514 308.704C307.514 311.386 309.059 313.181 311.582 313.181ZM308.86 307.931C308.951 306.573 309.911 305.363 311.445 305.363C312.9 305.363 313.832 306.454 313.832 307.931H308.86Z" fill="#004F7F"/>
<path d="M317.235 313H318.576V307.477C318.576 306.295 319.508 305.431 320.781 305.431C321.139 305.431 321.508 305.5 321.599 305.522V304.159C321.445 304.147 321.093 304.136 320.894 304.136C319.849 304.136 318.94 304.727 318.621 305.59H318.531V304.272H317.235V313Z" fill="#004F7F"/>
<path d="M324.188 311.409H322.734L322.666 312.045C322.501 313.585 322.177 315.119 322.029 315.84H323.052C323.325 315.068 323.904 313.318 324.097 312.022L324.188 311.409Z" fill="#004F7F"/>
<path d="M271.712 333H273.053V324.272H271.712V333ZM272.393 322.818C272.916 322.818 273.348 322.409 273.348 321.909C273.348 321.409 272.916 321 272.393 321C271.871 321 271.439 321.409 271.439 321.909C271.439 322.409 271.871 322.818 272.393 322.818Z" fill="#004F7F"/>
<path d="M276.849 327.75C276.849 326.227 277.793 325.363 279.077 325.363C280.321 325.363 281.077 326.176 281.077 327.545V333H282.418V327.454C282.418 325.227 281.23 324.159 279.463 324.159C278.145 324.159 277.327 324.75 276.918 325.636H276.804V324.272H275.509V333H276.849V327.75Z" fill="#004F7F"/>
<path d="M288.413 333.181C290.345 333.181 291.618 332 291.845 330.454H290.504C290.254 331.409 289.459 331.977 288.413 331.977C286.822 331.977 285.8 330.659 285.8 328.636C285.8 326.659 286.845 325.363 288.413 325.363C289.595 325.363 290.3 326.09 290.504 326.886H291.845C291.618 325.25 290.232 324.159 288.391 324.159C286.027 324.159 284.459 326.022 284.459 328.681C284.459 331.295 285.959 333.181 288.413 333.181Z" fill="#004F7F"/>
<path d="M295.146 321.363H293.805V333H295.146V321.363Z" fill="#004F7F"/>
<path d="M303.102 329.431C303.102 331.068 301.852 331.818 300.852 331.818C299.739 331.818 298.943 331 298.943 329.727V324.272H297.602V329.818C297.602 332.045 298.784 333.113 300.42 333.113C301.739 333.113 302.602 332.409 303.011 331.522H303.102V333H304.443V324.272H303.102V329.431Z" fill="#004F7F"/>
<path d="M310.195 333.181C311.876 333.181 312.445 332.136 312.74 331.659H312.899V333H314.195V321.363H312.854V325.659H312.74C312.445 325.204 311.922 324.159 310.217 324.159C308.013 324.159 306.49 325.909 306.49 328.659C306.49 331.431 308.013 333.181 310.195 333.181ZM310.376 331.977C308.695 331.977 307.831 330.5 307.831 328.636C307.831 326.795 308.672 325.363 310.376 325.363C312.013 325.363 312.876 326.681 312.876 328.636C312.876 330.613 311.99 331.977 310.376 331.977Z" fill="#004F7F"/>
<path d="M316.837 333H318.178V324.272H316.837V333ZM317.518 322.818C318.041 322.818 318.473 322.409 318.473 321.909C318.473 321.409 318.041 321 317.518 321C316.996 321 316.564 321.409 316.564 321.909C316.564 322.409 316.996 322.818 317.518 322.818Z" fill="#004F7F"/>
<path d="M321.974 327.75C321.974 326.227 322.918 325.363 324.202 325.363C325.446 325.363 326.202 326.176 326.202 327.545V333H327.543V327.454C327.543 325.227 326.355 324.159 324.588 324.159C323.27 324.159 322.452 324.75 322.043 325.636H321.929V324.272H320.634V333H321.974V327.75Z" fill="#004F7F"/>
<path d="M333.516 336.454C335.607 336.454 337.288 335.5 337.288 333.25V324.272H335.993V325.659H335.857C335.561 325.204 335.016 324.159 333.311 324.159C331.107 324.159 329.584 325.909 329.584 328.59C329.584 331.318 331.175 332.863 333.288 332.863C334.993 332.863 335.538 331.863 335.834 331.386H335.947V333.159C335.947 334.613 334.925 335.272 333.516 335.272C331.93 335.272 331.374 334.437 331.016 333.954L329.947 334.704C330.493 335.619 331.567 336.454 333.516 336.454ZM333.47 331.659C331.788 331.659 330.925 330.386 330.925 328.568C330.925 326.795 331.766 325.363 333.47 325.363C335.107 325.363 335.97 326.681 335.97 328.568C335.97 330.5 335.084 331.659 333.47 331.659Z" fill="#004F7F"/>
<path d="M263.485 353H264.826V347.545C264.826 346.267 265.758 345.363 266.803 345.363C267.82 345.363 268.531 346.028 268.531 347.022V353H269.894V347.318C269.894 346.193 270.599 345.363 271.826 345.363C272.781 345.363 273.599 345.869 273.599 347.159V353H274.94V347.159C274.94 345.108 273.837 344.159 272.281 344.159C271.031 344.159 270.116 344.733 269.667 345.636H269.576C269.144 344.704 268.383 344.159 267.235 344.159C266.099 344.159 265.258 344.704 264.894 345.636H264.781V344.272H263.485V353Z" fill="#004F7F"/>
<path d="M282.891 349.431C282.891 351.068 281.641 351.818 280.641 351.818C279.528 351.818 278.732 351 278.732 349.727V344.272H277.391V349.818C277.391 352.045 278.573 353.113 280.21 353.113C281.528 353.113 282.391 352.409 282.8 351.522H282.891V353H284.232V344.272H282.891V349.431Z" fill="#004F7F"/>
<path d="M288.029 341.363H286.688V353H288.029V341.363Z" fill="#004F7F"/>
<path d="M294.281 344.272H292.417V342.181H291.076V344.272H289.758V345.409H291.076V350.863C291.076 352.386 292.303 353.113 293.44 353.113C293.94 353.113 294.258 353.022 294.44 352.954L294.167 351.75C294.053 351.772 293.871 351.818 293.576 351.818C292.985 351.818 292.417 351.636 292.417 350.5V345.409H294.281V344.272Z" fill="#004F7F"/>
<path d="M296.298 353H297.639V344.272H296.298V353ZM296.979 342.818C297.502 342.818 297.934 342.409 297.934 341.909C297.934 341.409 297.502 341 296.979 341C296.457 341 296.025 341.409 296.025 341.909C296.025 342.409 296.457 342.818 296.979 342.818Z" fill="#004F7F"/>
<path d="M305.094 347.386H300.004V348.636H305.094V347.386Z" fill="#004F7F"/>
<path d="M307.454 353H308.795V347.477C308.795 346.295 309.727 345.431 310.999 345.431C311.357 345.431 311.727 345.5 311.817 345.522V344.159C311.664 344.147 311.312 344.136 311.113 344.136C310.067 344.136 309.158 344.727 308.84 345.59H308.749V344.272H307.454V353Z" fill="#004F7F"/>
<path d="M315.975 353.204C317.498 353.204 318.293 352.386 318.566 351.818H318.634V353H319.975V347.25C319.975 344.477 317.862 344.159 316.748 344.159C315.43 344.159 313.93 344.613 313.248 346.204L314.521 346.659C314.816 346.022 315.515 345.34 316.793 345.34C318.026 345.34 318.634 345.994 318.634 347.113V347.159C318.634 347.806 317.975 347.75 316.384 347.954C314.765 348.164 312.998 348.522 312.998 350.522C312.998 352.227 314.316 353.204 315.975 353.204ZM316.18 352C315.112 352 314.339 351.522 314.339 350.59C314.339 349.568 315.271 349.25 316.316 349.113C316.884 349.045 318.407 348.886 318.634 348.613V349.84C318.634 350.931 317.771 352 316.18 352Z" fill="#004F7F"/>
<path d="M325.968 353.181C327.9 353.181 329.173 352 329.4 350.454H328.059C327.809 351.409 327.014 351.977 325.968 351.977C324.377 351.977 323.354 350.659 323.354 348.636C323.354 346.659 324.4 345.363 325.968 345.363C327.15 345.363 327.854 346.09 328.059 346.886H329.4C329.173 345.25 327.786 344.159 325.945 344.159C323.582 344.159 322.014 346.022 322.014 348.681C322.014 351.295 323.514 353.181 325.968 353.181Z" fill="#004F7F"/>
<path d="M331.36 353H332.701V344.272H331.36V353ZM332.042 342.818C332.565 342.818 332.996 342.409 332.996 341.909C332.996 341.409 332.565 341 332.042 341C331.519 341 331.087 341.409 331.087 341.909C331.087 342.409 331.519 342.818 332.042 342.818Z" fill="#004F7F"/>
<path d="M337.725 353.204C339.248 353.204 340.043 352.386 340.316 351.818H340.384V353H341.725V347.25C341.725 344.477 339.612 344.159 338.498 344.159C337.18 344.159 335.68 344.613 334.998 346.204L336.271 346.659C336.566 346.022 337.265 345.34 338.543 345.34C339.776 345.34 340.384 345.994 340.384 347.113V347.159C340.384 347.806 339.725 347.75 338.134 347.954C336.515 348.164 334.748 348.522 334.748 350.522C334.748 352.227 336.066 353.204 337.725 353.204ZM337.93 352C336.862 352 336.089 351.522 336.089 350.59C336.089 349.568 337.021 349.25 338.066 349.113C338.634 349.045 340.157 348.886 340.384 348.613V349.84C340.384 350.931 339.521 352 337.93 352Z" fill="#004F7F"/>
<path d="M345.514 341.363H344.173V353H345.514V341.363Z" fill="#004F7F"/>
</svg>
