<svg width="823" height="500" viewBox="0 0 823 500" fill="none" xmlns="http://www.w3.org/2000/svg">
<path opacity="0.3" d="M734.253 499.7H-50.1499C-98.6362 499.7 -138 460.336 -138 411.85C-138 363.364 -98.6362 324 -50.1499 324H734.253C782.739 324 822.103 363.364 822.103 411.85C822.103 460.336 782.864 499.7 734.253 499.7Z" fill="#7AC142"/>
<path d="M211.9 120.4L224.1 91.1001L232.9 93.7001L226.6 125.4C225.2 129.4 220.8 131.6 216.7 130.2C212.7 128.8 210.5 124.4 211.9 120.4Z" fill="#FC857A"/>
<path d="M224.1 91.0997L225.3 82.6997C225.7 79.8997 228.4 77.9997 231.3 78.5997C234 79.1997 235.7 81.8997 235.1 84.5997L232.9 93.7997L224.1 91.0997Z" fill="#F4D2BA"/>
<path d="M206.1 378.3C199.6 378.3 194.2 373.3 193.8 366.8L180.8 201.8C180.8 190.6 189.9 181.5 201.1 181.5H211.2C222.4 181.5 231.5 190.6 231.5 201.8L218.5 366.8C218 373.3 212.6 378.3 206.1 378.3Z" fill="#0069AA"/>
<path d="M206.1 75C194.8 75 185.6 65.8 185.6 54.5V41.5C185.6 30.2 194.8 21 206.1 21C217.4 21 226.6 30.2 226.6 41.5V54.5C226.6 65.8 217.5 75 206.1 75Z" fill="#F4D2BA"/>
<path d="M228.2 212.3H183.2C178.3 212.3 174.3 208.3 174.3 203.4L180.8 98.8C180.8 87.6 189.9 78.5 201.1 78.5H207.2C218.4 78.5 227.5 87.6 227.5 98.8L237.2 203.4C237.2 208.3 233.2 212.3 228.2 212.3Z" fill="#FF6A52"/>
<path d="M231.6 143.1L189.3 105.5C185.3 101.9 184.9 95.6998 188.5 91.5998C192.1 87.5998 198.3 87.1998 202.4 90.7998L244.7 128.4C248.7 132 249.1 138.2 245.5 142.3C241.9 146.4 235.6 146.7 231.6 143.1Z" fill="#FC857A"/>
<path d="M229.7 134.1L241.3 95.6001L252.7 97.8001L248.8 138.6C247.6 143.9 242.3 147.1 237 145.9C231.8 144.7 228.5 139.4 229.7 134.1Z" fill="#FC857A"/>
<path d="M241.3 95.7L241.8 85C242 81.4 245.2 78.6 248.8 79C252.3 79.4 254.8 82.6 254.3 86.1L252.7 97.9L241.3 95.7Z" fill="#F4D2BA"/>
<path d="M209.7 40.6999C204.7 43.0999 199.1 43.9999 194.1 46.2999C190.6 47.8999 187.4 50.6999 185.8 53.9999C185.4 54.8999 184 54.6999 183.9 53.6999C183.1 47.6999 183.5 41.4999 185.5 35.6999C188.1 28.2999 193.8 21.8999 201.2 19.2999C206.8 17.3999 219 17.7999 222.1 24.2999C225 30.7999 214.7 38.2999 209.7 40.6999Z" fill="#E5B01C"/>
<path d="M181 2.39991C172.6 -0.200094 162 3.89991 159.4 12.3999C157.9 17.3999 159.3 22.6999 161.3 27.4999C164.9 35.7999 172.4 45.7999 164.7 54.1999C164.5 54.3999 164.4 54.4999 164.2 54.6999C162.2 56.6999 164.8 59.9999 167.2 58.3999C168.8 57.2999 170.2 55.8999 171.3 54.2999C176.6 46.5999 172.7 28.0999 185.8 26.7999C189.5 26.3999 193.8 26.2999 195.7 22.4999C196.3 21.0999 196.5 19.5999 196.3 18.0999C195.2 10.2999 188 4.49991 181 2.39991Z" fill="#E5B01C"/>
<path d="M327 56.6001C315.7 56.6001 306.5 47.4001 306.5 36.1001V23.1001C306.5 11.8001 315.7 2.6001 327 2.6001C338.3 2.6001 347.5 11.8001 347.5 23.1001V36.1001C347.5 47.5001 338.3 56.6001 327 56.6001Z" fill="#8C6449"/>
<path d="M339.3 124.8L297 87.1004C293 83.5004 292.6 77.3004 296.2 73.2004C299.8 69.2004 306 68.8003 310.1 72.4003L352.4 110C356.4 113.6 356.8 119.8 353.2 123.9C349.6 128 343.3 128.4 339.3 124.8Z" fill="#FC857A"/>
<path d="M390.2 63.5003L392.6 53.0003C393.4 49.5003 397 47.3003 400.5 48.4003C403.9 49.4003 405.8 53.0003 404.7 56.3003L401 67.7003L390.2 63.5003Z" fill="#8C6449"/>
<path d="M302.4 168.4L306.5 178.3C307.9 181.7 306.1 185.5 302.7 186.6C299.4 187.7 295.7 185.9 294.7 182.5L291.2 171.1L302.4 168.4Z" fill="#8C6449"/>
<path d="M375.4 126.1C370.9 124.6 368.6 119.6 370.3 115.1L390.5 62.7002L402.2 66.7002L386.2 120.5C384.8 125.1 379.9 127.7 375.4 126.1Z" fill="#7AC142"/>
<path d="M277.5 107.9C282.1 106.5 286.9 109.1 288.1 113.7L302.6 167.9L290.8 171.5L272.1 118.6C270.5 114.3 273 109.4 277.5 107.9Z" fill="#7AC142"/>
<path d="M357.4 170.6L358.3 359.3C358.2 364.4 354.1 368.4 349 368.4H346.6C341.7 368.4 337.7 364.6 337.4 359.7L329.2 213.5C329.2 213 328.7 212.5 328.2 212.5C327.6 212.5 327.2 213 327.2 213.5L323.5 359.7C323.4 364.8 319.3 368.8 314.2 368.8H310.8C305.9 368.8 301.9 365 301.6 360.1L297.5 172.7L357.4 170.6Z" fill="#0069AA"/>
<path d="M386.2 114.1L364.5 76.7002C360.6 68.8002 352.6 63.8002 343.9 63.8002L310.5 63.7002C301.1 63.7002 292.6 69.3002 289.1 78.0002L272.5 112.5C270.7 117 272.8 122.1 277.3 123.9C281.8 125.7 286.9 123.6 288.7 119.1L296 107.3L296.6 174.5C296.7 178.2 299.7 181.2 303.4 181.2H350.9C354.6 181.2 357.6 178.2 357.7 174.5L358.4 101.6L370.7 121.8C372.8 126.1 378.1 127.9 382.4 125.8C386.6 123.7 388.3 118.4 386.2 114.1Z" fill="#7AC142"/>
<path d="M315.2 13.2002C317.7 12.8002 319.4 15.5002 321.3 17.2002C324.3 20.0002 329.1 20.5001 332.7 18.5001C334.4 17.5001 335.8 16.0002 337.6 15.2002C339.2 14.5002 341.5 14.2001 343.1 15.0001C344.6 15.7001 344.7 17.5002 346.9 17.2002C348.9 16.9002 346.1 9.90016 345.5 9.20016C343.7 7.00016 340.8 4.80015 338.3 3.50015C330.1 -0.799851 317.2 -0.199839 310.7 7.20016C309.4 8.60016 305.1 16.9002 308 18.2002C309.9 19.2002 313.2 13.6002 315.2 13.2002Z" fill="#969696"/>
<path d="M460 65.8003C448.7 65.8003 439.5 56.6003 439.5 45.3003V32.3003C439.5 21.0003 448.7 11.8003 460 11.8003C471.3 11.8003 480.5 21.0003 480.5 32.3003V45.3003C480.4 56.7003 471.3 65.8003 460 65.8003Z" fill="#FCBA8D"/>
<path d="M499.8 181.1L497.4 191.6C496.6 195.1 493 197.3 489.5 196.2C486.1 195.2 484.2 191.6 485.3 188.3L489 176.9L499.8 181.1Z" fill="#FCBA8D"/>
<path d="M414.5 181.5V192.2C414.5 195.8 411.4 198.7 407.8 198.5C404.3 198.3 401.6 195.2 402 191.7L403.1 179.8L414.5 181.5Z" fill="#FCBA8D"/>
<path d="M514.6 118.5C519.1 120 521.4 125 519.7 129.5L499.5 181.9L487.8 177.9L503.8 124.1C505.2 119.5 510.1 116.9 514.6 118.5Z" fill="#0069AA"/>
<path d="M414.3 116.1C419 116.5 422.5 120.8 421.9 125.5L414.8 181.2L402.5 180.1L405.1 124.1C405.4 119.3 409.6 115.7 414.3 116.1Z" fill="#0069AA"/>
<path d="M491.4 179.8L489.2 359.8C489.1 364.9 485 368.9 479.9 368.9H477.5C472.6 368.9 468.6 365.1 468.3 360.2L462.2 222.6C462.2 222.1 461.7 221.6 461.2 221.6C460.6 221.6 460.2 222.1 460.2 222.6L458.6 360.2C458.5 365.3 454.4 369.3 449.3 369.3H445.9C441 369.3 437 365.5 436.7 360.6L428.3 182L491.4 179.8Z" fill="#002D44"/>
<path d="M519.2 123.3L497.5 85.9004C493.6 78.0004 485.6 73.0004 476.9 73.0004L443.5 72.9004C434.1 72.9004 425.6 78.5004 422.1 87.2004L405.5 121.7C403.7 126.2 405.8 131.3 410.3 133.1C414.8 134.9 419.9 132.8 421.7 128.3L429 116.5L426.4 197.4C426.5 201.1 429.5 204.1 433.2 204.1H486.9C490.6 204.1 493.6 201.1 493.7 197.4L491.3 110.8L503.6 131C505.7 135.3 511 137.1 515.3 135C519.5 132.9 521.3 127.7 519.2 123.3Z" fill="#0069AA"/>
<path d="M471.1 22.4002C471.1 24.8002 470.1 27.2002 468.3 28.8002C471.4 28.5002 474.4 27.5002 477 25.8002C477.5 28.9002 478.6 31.9002 480.2 34.6002C480.7 29.9002 481.3 25.2002 481.7 20.5002C481.8 19.6002 481.5 12.9002 481.8 12.8002C474.1 14.6002 466.6 9.4002 458.8 8.9002C452.8 8.5002 446.6 11.1002 442.7 15.6002C440.7 17.9002 439.3 20.6002 438.6 23.5002C438.1 25.3002 436.9 30.6002 438.3 32.3002C440.2 34.6002 446.9 31.4002 449.2 30.5002C452.9 29.0002 456.4 27.1002 460 25.5002C460.8 25.0002 471.1 21.6002 471.1 22.4002Z" fill="#002D44"/>
<path d="M596.3 377.7C602.8 377.8 608.3 372.8 608.8 366.4L624.2 194.2C624.4 183 615.4 173.8 604.2 173.6L594.1 173.5C582.9 173.3 573.7 182.3 573.5 193.5L584.1 366C584.4 372.5 589.8 377.6 596.3 377.7Z" fill="#FC857A"/>
<path d="M599.3 66.8999C610.6 66.8999 619.8 57.6999 619.8 46.3999V33.3999C619.8 22.0999 610.6 12.8999 599.3 12.8999C588 12.8999 578.8 22.0999 578.8 33.3999V46.3999C578.8 57.6999 588 66.8999 599.3 66.8999Z" fill="#DD9666"/>
<path d="M578.8 204.2H618.1C623 204.2 627 200.2 627 195.3L621.3 90.6999C621.3 79.4999 612.2 70.3999 601 70.3999H594.1C582.9 70.3999 573.8 79.4999 573.8 90.6999L569.7 195.3C569.9 200.2 573.9 204.2 578.8 204.2Z" fill="#7AC142"/>
<path d="M578.8 143.4L605.6 93.5C608.2 88.7 606.4 82.8 601.6 80.2C596.8 77.6 590.9 79.4 588.3 84.2L561.5 134.1C558.9 138.9 560.7 144.8 565.5 147.4C570.3 149.9 576.2 148.1 578.8 143.4Z" fill="#86CC48"/>
<path d="M571.4 128.5L531.4 125.3L529.3 136.7L568.7 147.9C574 148.7 579 144.9 579.8 139.6C580.5 134.3 576.7 129.3 571.4 128.5Z" fill="#86CC48"/>
<path d="M531.4 125.3L521.2 121.8C517.8 120.6 514.1 122.6 513.1 126.1C512.2 129.5 514.3 133 517.7 133.8L529.3 136.6L531.4 125.3Z" fill="#DD9666"/>
<path d="M531.4 125.3C531.4 125.3 527.9 118.8 526.3 118.6C524.7 118.4 520.9 120.2 523.4 123.2C525.9 126.2 531.4 125.3 531.4 125.3Z" fill="#DD9666"/>
<path d="M574.6 22.9C573.7 25.5 573.4 28.5 574.9 30.8C575.7 32.1 577 32.9 578.4 33.6C580.6 34.7 583.1 35.3 585.5 35.1C589.1 34.9 592.4 33.2001 595.3 31.2001C598.2 29.2001 600.9 26.7 602.4 23.4C605.6 16.5 600.8 8.30003 593 9.80003C585.4 11.2 577.5 15.2 574.6 22.9Z" fill="#0069AA"/>
<path d="M599.3 29.7C600 33.7 601.2 37.1999 602.5 38.8999C603.6 40.3999 605.1 41.7999 605.8 43.4999C607.2 46.6999 604 52.4999 603.5 55.8999C602.9 59.6999 603.8 62.8999 605.2 66.2999C606.3 68.8999 608.5 71.6999 608.8 74.4999C609 75.9999 608.5 77.4999 608.2 78.9999C607.1 84.5999 608.6 91.6999 615.7 91.8999C620.4 91.9999 624 87.4999 625.3 82.9999C626.7 77.9999 626.2 72.4999 623.9 67.7999C623.8 67.4999 626.8 62.1999 627 61.3999C627.7 58.8999 627.8 56.6 627.6 54.1C627.4 49.7 626.9 44.7999 622.6 42.2999C625.9 35.7999 625.5 27.5999 621.6 21.4999C618.7 16.8999 611.3 10.9999 605.3 11.8999C598.8 12.7999 598 22.1 599.3 29.7Z" fill="#0069AA"/>
</svg>
