<svg width="399" height="383" viewBox="0 0 399 383" fill="none" xmlns="http://www.w3.org/2000/svg">
<path d="M197.466 23.0004H201.157V16.8129H203.85L207.157 23.0004H211.231L207.523 16.2164C209.509 15.3641 210.608 13.634 210.608 11.2476C210.608 7.77885 208.316 5.5459 204.353 5.5459H197.466V23.0004ZM201.157 13.847V8.56294H203.645C205.776 8.56294 206.807 9.50897 206.807 11.2476C206.807 12.9777 205.776 13.847 203.662 13.847H201.157Z" fill="#002D44"/>
<path d="M216.881 23.2476C218.816 23.2476 220.069 22.4039 220.708 21.1851H220.81V23.0004H224.253V14.1709C224.253 11.0516 221.611 9.73908 218.696 9.73908C215.56 9.73908 213.498 11.2391 212.995 13.6254L216.353 13.8982C216.6 13.0289 217.375 12.3896 218.679 12.3896C219.915 12.3896 220.623 13.0118 220.623 14.0857V14.1368C220.623 14.9806 219.728 15.0914 217.452 15.3129C214.861 15.5516 212.534 16.4209 212.534 19.3442C212.534 21.9351 214.384 23.2476 216.881 23.2476ZM217.921 20.7419C216.804 20.7419 216.003 20.222 216.003 19.2249C216.003 18.2021 216.847 17.6993 218.125 17.5203C218.918 17.4095 220.213 17.222 220.648 16.9323V18.3215C220.648 19.6936 219.515 20.7419 217.921 20.7419Z" fill="#002D44"/>
<path d="M232.985 23.2561C236.471 23.2561 238.661 21.2107 238.831 18.2021H235.405C235.192 19.5999 234.272 20.384 233.027 20.384C231.331 20.384 230.232 18.9607 230.232 16.455C230.232 13.9834 231.34 12.5686 233.027 12.5686C234.357 12.5686 235.209 13.4465 235.405 14.7504H238.831C238.678 11.7249 236.385 9.73908 232.968 9.73908C228.996 9.73908 226.542 12.4919 226.542 16.5061C226.542 20.4862 228.954 23.2561 232.985 23.2561Z" fill="#002D44"/>
<path d="M247.122 23.2561C250.36 23.2561 252.542 21.6794 253.054 19.2504L249.696 19.0289C249.329 20.026 248.392 20.5459 247.182 20.5459C245.366 20.5459 244.216 19.3442 244.216 17.3925V17.384H253.13V16.3868C253.13 11.9379 250.437 9.73908 246.977 9.73908C243.125 9.73908 240.628 12.4749 240.628 16.5146C240.628 20.6652 243.091 23.2561 247.122 23.2561ZM244.216 15.134C244.292 13.6425 245.426 12.4493 247.037 12.4493C248.613 12.4493 249.704 13.5743 249.713 15.134H244.216Z" fill="#002D44"/>
<rect y="225" width="399" height="39" rx="19.5" fill="#CBE5C2"/>
<path d="M95.3211 114.26L102.23 97.668L107.213 99.1403L103.646 117.092C102.853 119.357 100.361 120.603 98.0393 119.81C95.7742 119.017 94.5283 116.525 95.3211 114.26Z" fill="#FC857A"/>
<path d="M102.23 97.6688L102.91 92.912C103.136 91.3263 104.665 90.2504 106.307 90.5902C107.836 90.9299 108.799 92.4589 108.459 93.9879L107.213 99.1978L102.23 97.6688Z" fill="#F4D2BA"/>
<path d="M92.0366 260.307C88.3557 260.307 85.2978 257.476 85.0712 253.795L77.7095 160.357C77.7095 154.015 82.8627 148.861 89.2051 148.861H94.9247C101.267 148.861 106.42 154.015 106.42 160.357L99.0586 253.795C98.7754 257.476 95.7175 260.307 92.0366 260.307Z" fill="#0069AA"/>
<path d="M92.0365 88.5503C85.6375 88.5503 80.4276 83.3405 80.4276 76.9414V69.5796C80.4276 63.1806 85.6375 57.9707 92.0365 57.9707C98.4356 57.9707 103.645 63.1806 103.645 69.5796V76.9414C103.645 83.3405 98.4922 88.5503 92.0365 88.5503Z" fill="#F4D2BA"/>
<path d="M104.552 166.302H79.0685C76.2937 166.302 74.0286 164.037 74.0286 161.262L77.7094 102.028C77.7094 95.6855 82.8627 90.5322 89.2051 90.5322H92.6595C99.0019 90.5322 104.155 95.6855 104.155 102.028L109.648 161.262C109.648 164.037 107.383 166.302 104.552 166.302Z" fill="#FF6A52"/>
<path d="M106.477 127.115L82.5229 105.822C80.2577 103.784 80.0312 100.273 82.0698 97.9511C84.1085 95.6859 87.6194 95.4594 89.9412 97.498L113.895 118.791C116.16 120.829 116.387 124.34 114.348 126.662C112.31 128.984 108.742 129.154 106.477 127.115Z" fill="#FC857A"/>
<path d="M105.401 122.019L111.97 100.217L118.426 101.463L116.217 124.567C115.537 127.569 112.536 129.381 109.535 128.701C106.59 128.022 104.721 125.02 105.401 122.019Z" fill="#FC857A"/>
<path d="M111.97 100.274L112.253 94.2142C112.366 92.1756 114.178 90.59 116.217 90.8165C118.199 91.043 119.615 92.8551 119.332 94.8372L118.426 101.519L111.97 100.274Z" fill="#F4D2BA"/>
<path d="M94.0751 69.1274C91.2437 70.4865 88.0725 70.9961 85.241 72.2986C83.259 73.2046 81.4469 74.7902 80.5408 76.659C80.3143 77.1687 79.5215 77.0554 79.4648 76.4891C79.0118 73.0914 79.2383 69.5804 80.3709 66.2959C81.8433 62.1054 85.0711 58.4811 89.2617 57.0088C92.4329 55.9328 99.3416 56.1593 101.097 59.8402C102.739 63.5211 96.9066 67.7683 94.0751 69.1274Z" fill="#E5B01C"/>
<path d="M77.8227 47.4385C73.0659 45.9662 67.0632 48.288 65.5908 53.1014C64.7414 55.9329 65.5342 58.9342 66.6668 61.6524C68.7054 66.3526 72.9526 72.0155 68.5922 76.7723C68.4789 76.8856 68.4223 76.9422 68.309 77.0555C67.1764 78.1881 68.6488 80.0568 70.0079 79.1508C70.914 78.5278 71.7068 77.735 72.3297 76.829C75.331 72.4685 73.1225 61.9922 80.5409 61.256C82.6362 61.0295 85.0712 60.9729 86.1471 58.821C86.4869 58.0282 86.6002 57.1787 86.4869 56.3293C85.864 51.9122 81.7867 48.6278 77.8227 47.4385Z" fill="#E5B01C"/>
<path d="M170.364 77.9458C163.965 77.9458 158.755 72.736 158.755 66.3369V58.9751C158.755 52.5761 163.965 47.3662 170.364 47.3662C176.763 47.3662 181.973 52.5761 181.973 58.9751V66.3369C181.973 72.7926 176.763 77.9458 170.364 77.9458Z" fill="#8C6449"/>
<path d="M177.329 116.567L153.375 95.218C151.11 93.1794 150.883 89.6684 152.922 87.3466C154.961 85.0814 158.472 84.8549 160.794 86.8935L184.748 108.186C187.013 110.225 187.239 113.736 185.201 116.057C183.162 118.379 179.594 118.606 177.329 116.567Z" fill="#FC857A"/>
<path d="M206.154 81.854L207.513 75.908C207.966 73.9259 210.004 72.6801 211.986 73.303C213.912 73.8693 214.988 75.9079 214.365 77.7767L212.269 84.2324L206.154 81.854Z" fill="#8C6449"/>
<path d="M156.433 141.257L158.755 146.863C159.548 148.788 158.529 150.94 156.603 151.563C154.734 152.186 152.639 151.167 152.073 149.242L150.091 142.786L156.433 141.257Z" fill="#8C6449"/>
<path d="M197.772 117.302C195.224 116.453 193.922 113.621 194.884 111.073L206.323 81.3994L212.949 83.6646L203.888 114.131C203.096 116.736 200.321 118.208 197.772 117.302Z" fill="#7AC142"/>
<path d="M142.333 106.997C144.938 106.204 147.656 107.676 148.335 110.281L156.547 140.974L149.864 143.013L139.275 113.056C138.369 110.621 139.784 107.846 142.333 106.997Z" fill="#7AC142"/>
<path d="M187.579 142.503L188.089 249.362C188.032 252.25 185.711 254.515 182.823 254.515H181.464C178.689 254.515 176.424 252.363 176.254 249.588L171.61 166.797C171.61 166.514 171.327 166.23 171.044 166.23C170.704 166.23 170.477 166.514 170.477 166.797L168.382 249.588C168.326 252.476 166.004 254.741 163.116 254.741H161.19C158.416 254.741 156.15 252.59 155.98 249.815L153.659 143.692L187.579 142.503Z" fill="#0069AA"/>
<path d="M203.888 110.509L191.6 89.3295C189.391 84.8558 184.861 82.0244 179.934 82.0244L161.02 81.9678C155.697 81.9678 150.883 85.139 148.901 90.0657L139.501 109.603C138.482 112.151 139.671 115.039 142.219 116.058C144.767 117.078 147.656 115.889 148.675 113.34L152.809 106.658L153.149 144.713C153.205 146.808 154.904 148.507 156.999 148.507H183.898C185.993 148.507 187.692 146.808 187.749 144.713L188.145 103.43L195.111 114.869C196.3 117.304 199.301 118.324 201.736 117.134C204.115 115.945 205.077 112.944 203.888 110.509Z" fill="#7AC142"/>
<path d="M163.682 53.3692C165.097 53.1427 166.06 54.6717 167.136 55.6344C168.835 57.22 171.553 57.5031 173.592 56.3705C174.554 55.8043 175.347 54.9548 176.367 54.5018C177.273 54.1054 178.575 53.9355 179.481 54.3885C180.331 54.7849 180.387 55.8043 181.633 55.6344C182.766 55.4645 181.18 51.5005 180.84 51.1041C179.821 49.8582 178.179 48.6124 176.763 47.8762C172.119 45.4412 164.814 45.7809 161.133 49.9715C160.397 50.7643 157.962 55.4645 159.604 56.2007C160.68 56.767 162.549 53.5957 163.682 53.3692Z" fill="#969696"/>
<path d="M250.867 83.1558C244.468 83.1558 239.258 77.9459 239.258 71.5469V64.1851C239.258 57.786 244.468 52.5762 250.867 52.5762C257.266 52.5762 262.476 57.786 262.476 64.1851V71.5469C262.42 78.0026 257.266 83.1558 250.867 83.1558Z" fill="#FCBA8D"/>
<path d="M273.405 148.449L272.046 154.395C271.593 156.377 269.555 157.623 267.573 157C265.647 156.433 264.571 154.395 265.194 152.526L267.29 146.07L273.405 148.449Z" fill="#FCBA8D"/>
<path d="M225.101 148.676V154.735C225.101 156.774 223.345 158.416 221.307 158.303C219.325 158.189 217.796 156.434 218.022 154.452L218.645 147.713L225.101 148.676Z" fill="#FCBA8D"/>
<path d="M281.787 112.999C284.335 113.848 285.637 116.68 284.675 119.228L273.236 148.901L266.61 146.636L275.671 116.17C276.464 113.565 279.238 112.093 281.787 112.999Z" fill="#0069AA"/>
<path d="M224.988 111.64C227.649 111.867 229.631 114.302 229.291 116.963L225.271 148.506L218.305 147.883L219.778 116.171C219.948 113.452 222.326 111.414 224.988 111.64Z" fill="#0069AA"/>
<path d="M268.648 147.713L267.403 249.645C267.346 252.533 265.024 254.798 262.136 254.798H260.777C258.002 254.798 255.737 252.646 255.567 249.872L252.113 171.95C252.113 171.667 251.83 171.384 251.546 171.384C251.207 171.384 250.98 171.667 250.98 171.95L250.074 249.872C250.017 252.76 247.696 255.025 244.808 255.025H242.882C240.107 255.025 237.842 252.873 237.672 250.098L232.916 148.959L268.648 147.713Z" fill="#002D44"/>
<path d="M284.391 115.717L272.103 94.5375C269.894 90.0639 265.364 87.2324 260.437 87.2324L241.523 87.1758C236.2 87.1758 231.387 90.347 229.405 95.2737L220.004 114.811C218.985 117.359 220.174 120.247 222.722 121.266C225.271 122.286 228.159 121.097 229.178 118.548L233.312 111.866L231.84 157.679C231.896 159.774 233.595 161.473 235.69 161.473H266.1C268.195 161.473 269.894 159.774 269.951 157.679L268.592 108.638L275.557 120.077C276.746 122.512 279.748 123.532 282.183 122.342C284.561 121.153 285.581 118.208 284.391 115.717Z" fill="#0069AA"/>
<path d="M257.153 58.5789C257.153 59.938 256.587 61.2971 255.568 62.2031C257.323 62.0332 259.022 61.467 260.494 60.5043C260.777 62.2598 261.4 63.9586 262.306 65.4876C262.59 62.8261 262.929 60.1645 263.156 57.5029C263.212 56.9933 263.043 53.1991 263.212 53.1425C258.852 54.1618 254.605 51.2171 250.188 50.934C246.79 50.7075 243.279 52.1798 241.071 54.7281C239.938 56.0306 239.145 57.5596 238.749 59.2018C238.466 60.2211 237.786 63.2224 238.579 64.1851C239.655 65.4876 243.449 63.6755 244.751 63.1658C246.847 62.3164 248.829 61.2404 250.867 60.3344C251.32 60.0512 257.153 58.1258 257.153 58.5789Z" fill="#002D44"/>
<path d="M340.233 259.781C343.914 259.837 347.029 257.006 347.312 253.382L356.033 155.867C356.146 149.524 351.05 144.314 344.707 144.201L338.988 144.144C332.645 144.031 327.435 149.128 327.322 155.47L333.325 253.155C333.495 256.836 336.553 259.724 340.233 259.781Z" fill="#FC857A"/>
<path d="M341.932 83.7779C348.331 83.7779 353.541 78.568 353.541 72.1689V64.8072C353.541 58.4081 348.331 53.1982 341.932 53.1982C335.533 53.1982 330.323 58.4081 330.323 64.8072V72.1689C330.323 78.568 335.533 83.7779 341.932 83.7779Z" fill="#DD9666"/>
<path d="M330.323 161.529H352.579C355.353 161.529 357.619 159.264 357.619 156.489L354.391 97.2555C354.391 90.913 349.237 85.7598 342.895 85.7598H338.988C332.645 85.7598 327.492 90.913 327.492 97.2555L325.17 156.489C325.283 159.264 327.549 161.529 330.323 161.529Z" fill="#7AC142"/>
<path d="M330.323 127.101L345.5 98.8429C346.972 96.1247 345.953 92.7836 343.235 91.3113C340.517 89.8389 337.176 90.8582 335.703 93.5764L320.527 121.834C319.054 124.552 320.074 127.894 322.792 129.366C325.51 130.782 328.851 129.762 330.323 127.101Z" fill="#86CC48"/>
<path d="M326.133 118.663L303.481 116.851L302.292 123.306L324.604 129.649C327.605 130.102 330.437 127.95 330.89 124.949C331.286 121.947 329.134 119.116 326.133 118.663Z" fill="#86CC48"/>
<path d="M303.481 116.85L297.705 114.868C295.78 114.188 293.684 115.321 293.118 117.303C292.608 119.228 293.798 121.21 295.723 121.663L302.292 123.249L303.481 116.85Z" fill="#DD9666"/>
<path d="M303.481 116.851C303.481 116.851 301.499 113.17 300.593 113.056C299.687 112.943 297.535 113.962 298.951 115.661C300.366 117.36 303.481 116.851 303.481 116.851Z" fill="#DD9666"/>
<path d="M327.945 58.8618C327.435 60.3341 327.265 62.033 328.115 63.3355C328.568 64.0717 329.304 64.5247 330.097 64.9211C331.343 65.544 332.758 65.8838 334.118 65.7705C336.156 65.6573 338.025 64.6946 339.667 63.562C341.309 62.4294 342.838 61.0137 343.688 59.1449C345.5 55.2375 342.782 50.594 338.365 51.4434C334.061 52.2362 329.587 54.5014 327.945 58.8618Z" fill="#0069AA"/>
<path d="M341.932 62.712C342.329 64.9772 343.008 66.9592 343.744 67.9219C344.367 68.7713 345.217 69.5641 345.613 70.5268C346.406 72.339 344.594 75.6234 344.311 77.5488C343.971 79.7007 344.48 81.5128 345.273 83.4382C345.896 84.9106 347.142 86.4962 347.312 88.0818C347.425 88.9312 347.142 89.7807 346.972 90.6301C346.349 93.8013 347.199 97.822 351.219 97.9352C353.881 97.9919 355.92 95.4436 356.656 92.8953C357.448 90.0638 357.165 86.9492 355.863 84.2877C355.806 84.1178 357.505 81.1164 357.618 80.6634C358.015 79.2477 358.071 77.9452 357.958 76.5295C357.845 74.0378 357.562 71.263 355.127 69.8473C356.995 66.1664 356.769 61.5228 354.56 58.0685C352.918 55.4635 348.728 52.1224 345.33 52.6321C341.649 53.1417 341.196 58.4082 341.932 62.712Z" fill="#0069AA"/>
<path d="M162.188 269.546H158.719L154.398 272.281V275.554L158.396 273.048H158.498V287H162.188V269.546Z" fill="#004F7F"/>
<path d="M167.027 287H170.837L178.081 272.605V269.546H165.834V272.563H174.263V272.682L167.027 287Z" fill="#004F7F"/>
<path d="M190.164 283.727C190.173 285.824 191.511 287.605 194.008 287.605C196.479 287.605 197.86 285.824 197.852 283.727V282.807C197.86 280.693 196.513 278.929 194.008 278.929C191.545 278.929 190.173 280.71 190.164 282.807V283.727ZM181.207 273.739C181.215 275.835 182.553 277.6 185.042 277.6C187.522 277.6 188.903 275.852 188.894 273.739V272.818C188.903 270.705 187.556 268.94 185.042 268.94C182.604 268.94 181.215 270.705 181.207 272.818V273.739ZM182.042 287H184.266L196.266 269.546H194.042L182.042 287ZM192.644 282.807C192.653 281.972 192.985 281.111 194.008 281.111C195.082 281.111 195.363 281.972 195.354 282.807V283.727C195.363 284.563 195.048 285.406 194.008 285.406C192.968 285.406 192.653 284.537 192.644 283.727V282.807ZM183.704 272.818C183.712 272.009 184.028 271.122 185.042 271.122C186.116 271.122 186.406 271.983 186.397 272.818V273.739C186.406 274.574 186.082 275.418 185.042 275.418C184.036 275.418 183.712 274.574 183.704 273.739V272.818Z" fill="#004F7F"/>
<path d="M147.479 310H151.684C154.434 310 155.57 308.659 155.57 306.909C155.57 305.068 154.298 304.068 153.229 304V303.886C154.229 303.613 155.116 302.954 155.116 301.454C155.116 299.75 153.979 298.363 151.548 298.363H147.479V310ZM148.889 308.75V304.704H151.752C153.275 304.704 154.229 305.727 154.229 306.909C154.229 307.931 153.525 308.75 151.684 308.75H148.889ZM148.889 303.477V299.613H151.548C153.093 299.613 153.775 300.431 153.775 301.454C153.775 302.681 152.775 303.477 151.502 303.477H148.889Z" fill="#004F7F"/>
<path d="M159.045 298.363H157.704V310H159.045V298.363Z" fill="#004F7F"/>
<path d="M164.069 310.204C165.592 310.204 166.387 309.386 166.66 308.818H166.728V310H168.069V304.25C168.069 301.477 165.955 301.159 164.842 301.159C163.524 301.159 162.024 301.613 161.342 303.204L162.614 303.659C162.91 303.022 163.609 302.341 164.887 302.341C166.12 302.341 166.728 302.994 166.728 304.113V304.159C166.728 304.806 166.069 304.75 164.478 304.954C162.859 305.164 161.092 305.522 161.092 307.522C161.092 309.227 162.41 310.204 164.069 310.204ZM164.274 309C163.205 309 162.433 308.522 162.433 307.591C162.433 306.568 163.364 306.25 164.41 306.113C164.978 306.045 166.501 305.886 166.728 305.613V306.841C166.728 307.931 165.864 309 164.274 309Z" fill="#004F7F"/>
<path d="M174.062 310.181C175.994 310.181 177.266 309 177.494 307.454H176.153C175.903 308.409 175.107 308.977 174.062 308.977C172.471 308.977 171.448 307.659 171.448 305.636C171.448 303.659 172.494 302.363 174.062 302.363C175.244 302.363 175.948 303.091 176.153 303.886H177.494C177.266 302.25 175.88 301.159 174.039 301.159C171.676 301.159 170.107 303.022 170.107 305.681C170.107 308.295 171.607 310.181 174.062 310.181Z" fill="#004F7F"/>
<path d="M179.454 310H180.795V306.733L181.732 305.863L184.999 310H186.704L182.744 305L186.431 301.272H184.772L180.954 305.159H180.795V298.363H179.454V310Z" fill="#004F7F"/>
<path d="M196.203 310.181C198.566 310.181 200.157 308.386 200.157 305.681C200.157 302.954 198.566 301.159 196.203 301.159C193.839 301.159 192.248 302.954 192.248 305.681C192.248 308.386 193.839 310.181 196.203 310.181ZM196.203 308.977C194.407 308.977 193.589 307.431 193.589 305.681C193.589 303.931 194.407 302.363 196.203 302.363C197.998 302.363 198.816 303.931 198.816 305.681C198.816 307.431 197.998 308.977 196.203 308.977Z" fill="#004F7F"/>
<path d="M202.204 310H203.545V304.477C203.545 303.295 204.477 302.431 205.749 302.431C206.107 302.431 206.477 302.5 206.568 302.522V301.159C206.414 301.147 206.062 301.136 205.863 301.136C204.818 301.136 203.908 301.727 203.59 302.591H203.499V301.272H202.204V310Z" fill="#004F7F"/>
<path d="M149.316 330L150.487 326.704H155.191L156.362 330H157.839L153.566 318.363H152.112L147.839 330H149.316ZM150.93 325.454L152.793 320.204H152.884L154.748 325.454H150.93Z" fill="#004F7F"/>
<path d="M163.356 321.272H161.401V320.386C161.401 319.522 161.765 319.068 162.651 319.068C163.038 319.068 163.265 319.159 163.401 319.204L163.788 318.045C163.583 317.954 163.174 317.818 162.515 317.818C161.265 317.818 160.06 318.568 160.06 320.068V321.272H158.651V322.409H160.06V330H161.401V322.409H163.356V321.272Z" fill="#004F7F"/>
<path d="M165.235 330H166.576V324.477C166.576 323.295 167.508 322.431 168.781 322.431C169.139 322.431 169.508 322.5 169.599 322.522V321.159C169.445 321.147 169.093 321.136 168.894 321.136C167.849 321.136 166.94 321.727 166.622 322.591H166.531V321.272H165.235V330Z" fill="#004F7F"/>
<path d="M171.188 330H172.529V321.272H171.188V330ZM171.87 319.818C172.393 319.818 172.825 319.409 172.825 318.909C172.825 318.409 172.393 318 171.87 318C171.347 318 170.916 318.409 170.916 318.909C170.916 319.409 171.347 319.818 171.87 319.818Z" fill="#004F7F"/>
<path d="M178.531 330.181C180.462 330.181 181.735 329 181.962 327.454H180.622C180.372 328.409 179.576 328.977 178.531 328.977C176.94 328.977 175.917 327.659 175.917 325.636C175.917 323.659 176.962 322.363 178.531 322.363C179.712 322.363 180.417 323.091 180.622 323.886H181.962C181.735 322.25 180.349 321.159 178.508 321.159C176.144 321.159 174.576 323.022 174.576 325.681C174.576 328.295 176.076 330.181 178.531 330.181Z" fill="#004F7F"/>
<path d="M186.491 330.204C188.014 330.204 188.809 329.386 189.082 328.818H189.15V330H190.491V324.25C190.491 321.477 188.377 321.159 187.264 321.159C185.945 321.159 184.445 321.613 183.764 323.204L185.036 323.659C185.332 323.022 186.031 322.341 187.309 322.341C188.542 322.341 189.15 322.994 189.15 324.113V324.159C189.15 324.806 188.491 324.75 186.9 324.954C185.281 325.164 183.514 325.522 183.514 327.522C183.514 329.227 184.832 330.204 186.491 330.204ZM186.695 329C185.627 329 184.854 328.522 184.854 327.591C184.854 326.568 185.786 326.25 186.832 326.113C187.4 326.045 188.923 325.886 189.15 325.613V326.841C189.15 327.931 188.286 329 186.695 329Z" fill="#004F7F"/>
<path d="M194.279 324.75C194.279 323.227 195.222 322.363 196.506 322.363C197.751 322.363 198.506 323.176 198.506 324.545V330H199.847V324.454C199.847 322.227 198.66 321.159 196.893 321.159C195.575 321.159 194.756 321.75 194.347 322.636H194.234V321.272H192.938V330H194.279V324.75Z" fill="#004F7F"/>
<path d="M142.84 350L144.01 346.704H148.715L149.885 350H151.362L147.09 338.363H145.635L141.362 350H142.84ZM144.453 345.454L146.317 340.204H146.408L148.271 345.454H144.453Z" fill="#004F7F"/>
<path d="M152.993 350H154.334V344.545C154.334 343.267 155.266 342.363 156.311 342.363C157.328 342.363 158.038 343.028 158.038 344.022V350H159.402V344.318C159.402 343.193 160.107 342.363 161.334 342.363C162.288 342.363 163.107 342.869 163.107 344.159V350H164.448V344.159C164.448 342.108 163.345 341.159 161.788 341.159C160.538 341.159 159.624 341.733 159.175 342.636H159.084C158.652 341.704 157.891 341.159 156.743 341.159C155.607 341.159 154.766 341.704 154.402 342.636H154.288V341.272H152.993V350Z" fill="#004F7F"/>
<path d="M170.558 350.181C172.331 350.181 173.627 349.295 174.036 347.977L172.74 347.613C172.399 348.522 171.609 348.977 170.558 348.977C168.984 348.977 167.899 347.96 167.837 346.091H174.172V345.522C174.172 342.272 172.24 341.159 170.422 341.159C168.058 341.159 166.49 343.022 166.49 345.704C166.49 348.386 168.036 350.181 170.558 350.181ZM167.837 344.931C167.928 343.574 168.888 342.363 170.422 342.363C171.877 342.363 172.808 343.454 172.808 344.931H167.837Z" fill="#004F7F"/>
<path d="M176.212 350H177.553V344.477C177.553 343.295 178.484 342.431 179.757 342.431C180.115 342.431 180.484 342.5 180.575 342.522V341.159C180.422 341.147 180.07 341.136 179.871 341.136C178.825 341.136 177.916 341.727 177.598 342.591H177.507V341.272H176.212V350Z" fill="#004F7F"/>
<path d="M182.165 350H183.506V341.272H182.165V350ZM182.847 339.818C183.369 339.818 183.801 339.409 183.801 338.909C183.801 338.409 183.369 338 182.847 338C182.324 338 181.892 338.409 181.892 338.909C181.892 339.409 182.324 339.818 182.847 339.818Z" fill="#004F7F"/>
<path d="M189.507 350.181C191.439 350.181 192.712 349 192.939 347.454H191.598C191.348 348.409 190.553 348.977 189.507 348.977C187.916 348.977 186.894 347.659 186.894 345.636C186.894 343.659 187.939 342.363 189.507 342.363C190.689 342.363 191.394 343.091 191.598 343.886H192.939C192.712 342.25 191.325 341.159 189.484 341.159C187.121 341.159 185.553 343.022 185.553 345.681C185.553 348.295 187.053 350.181 189.507 350.181Z" fill="#004F7F"/>
<path d="M197.467 350.204C198.99 350.204 199.786 349.386 200.058 348.818H200.127V350H201.467V344.25C201.467 341.477 199.354 341.159 198.24 341.159C196.922 341.159 195.422 341.613 194.74 343.204L196.013 343.659C196.308 343.022 197.007 342.341 198.286 342.341C199.519 342.341 200.127 342.994 200.127 344.113V344.159C200.127 344.806 199.467 344.75 197.877 344.954C196.257 345.164 194.49 345.522 194.49 347.522C194.49 349.227 195.808 350.204 197.467 350.204ZM197.672 349C196.604 349 195.831 348.522 195.831 347.591C195.831 346.568 196.763 346.25 197.808 346.113C198.377 346.045 199.899 345.886 200.127 345.613V346.841C200.127 347.931 199.263 349 197.672 349Z" fill="#004F7F"/>
<path d="M205.256 344.75C205.256 343.227 206.199 342.363 207.483 342.363C208.727 342.363 209.483 343.176 209.483 344.545V350H210.824V344.454C210.824 342.227 209.636 341.159 207.869 341.159C206.551 341.159 205.733 341.75 205.324 342.636H205.21V341.272H203.915V350H205.256V344.75Z" fill="#004F7F"/>
<path d="M74.5974 287H78.407L85.6513 272.605V269.546H73.4042V272.563H81.8332V272.682L74.5974 287Z" fill="#004F7F"/>
<path d="M88.1805 287H100.624V283.983H93.2941V283.864L95.8424 281.367C99.4305 278.094 100.394 276.457 100.394 274.472C100.394 271.446 97.9219 269.307 94.1805 269.307C90.5157 269.307 88.0015 271.497 88.01 274.923H91.5128C91.5043 273.253 92.5611 272.23 94.1549 272.23C95.689 272.23 96.831 273.185 96.831 274.719C96.831 276.108 95.9787 277.063 94.3935 278.588L88.1805 284.341V287Z" fill="#004F7F"/>
<path d="M112.852 283.727C112.86 285.824 114.198 287.605 116.695 287.605C119.167 287.605 120.548 285.824 120.539 283.727V282.807C120.548 280.693 119.201 278.929 116.695 278.929C114.232 278.929 112.86 280.71 112.852 282.807V283.727ZM103.894 273.739C103.903 275.835 105.241 277.6 107.729 277.6C110.21 277.6 111.59 275.852 111.582 273.739V272.818C111.59 270.705 110.244 268.94 107.729 268.94C105.292 268.94 103.903 270.705 103.894 272.818V273.739ZM104.729 287H106.954L118.954 269.546H116.729L104.729 287ZM115.332 282.807C115.34 281.972 115.673 281.111 116.695 281.111C117.769 281.111 118.05 281.972 118.042 282.807V283.727C118.05 284.563 117.735 285.406 116.695 285.406C115.656 285.406 115.34 284.537 115.332 283.727V282.807ZM106.391 272.818C106.4 272.009 106.715 271.122 107.729 271.122C108.803 271.122 109.093 271.983 109.085 272.818V273.739C109.093 274.574 108.769 275.418 107.729 275.418C106.724 275.418 106.4 274.574 106.391 273.739V272.818Z" fill="#004F7F"/>
<path d="M79.2884 310H80.7429L83.3111 300.727H83.402L85.9702 310H87.4247L90.6066 298.364H89.1747L86.7429 307.841H86.6293L84.152 298.364H82.5611L80.0838 307.841H79.9702L77.5384 298.364H76.1066L79.2884 310Z" fill="#004F7F"/>
<path d="M93.5213 304.75C93.5213 303.227 94.4929 302.364 95.8168 302.364C97.0782 302.364 97.8395 303.159 97.8395 304.545V310H99.1804V304.455C99.1804 302.21 97.9872 301.159 96.2032 301.159C94.8282 301.159 94.0441 301.733 93.635 302.636H93.5213V298.364H92.1804V310H93.5213V304.75Z" fill="#004F7F"/>
<path d="M101.634 310H102.974V301.273H101.634V310ZM102.315 299.818C102.838 299.818 103.27 299.409 103.27 298.909C103.27 298.409 102.838 298 102.315 298C101.793 298 101.361 298.409 101.361 298.909C101.361 299.409 101.793 299.818 102.315 299.818Z" fill="#004F7F"/>
<path d="M109.226 301.273H107.362V299.182H106.021V301.273H104.703V302.409H106.021V307.864C106.021 309.386 107.249 310.114 108.385 310.114C108.885 310.114 109.203 310.023 109.385 309.955L109.112 308.75C108.999 308.773 108.817 308.818 108.521 308.818C107.93 308.818 107.362 308.636 107.362 307.5V302.409H109.226V301.273Z" fill="#004F7F"/>
<path d="M114.808 310.182C116.581 310.182 117.876 309.295 118.286 307.977L116.99 307.614C116.649 308.523 115.859 308.977 114.808 308.977C113.234 308.977 112.149 307.96 112.087 306.091H118.422V305.523C118.422 302.273 116.49 301.159 114.672 301.159C112.308 301.159 110.74 303.023 110.74 305.705C110.74 308.386 112.286 310.182 114.808 310.182ZM112.087 304.932C112.178 303.574 113.138 302.364 114.672 302.364C116.126 302.364 117.058 303.455 117.058 304.932H112.087Z" fill="#004F7F"/>
<path d="M245.144 290.239C249.064 290.239 251.868 288.082 251.86 285.1C251.868 282.926 250.488 281.375 247.922 281.051V280.915C249.874 280.565 251.221 279.185 251.212 277.225C251.221 274.472 248.809 272.307 245.195 272.307C241.615 272.307 238.922 274.403 238.871 277.421H242.408C242.451 276.091 243.669 275.23 245.178 275.23C246.669 275.23 247.667 276.134 247.658 277.446C247.667 278.818 246.499 279.747 244.82 279.747H243.192V282.457H244.82C246.797 282.457 248.033 283.446 248.025 284.852C248.033 286.242 246.84 287.196 245.152 287.196C243.525 287.196 242.306 286.344 242.238 285.065H238.522C238.581 288.117 241.309 290.239 245.144 290.239Z" fill="#004F7F"/>
<path d="M264.066 286.727C264.075 288.824 265.413 290.605 267.91 290.605C270.382 290.605 271.762 288.824 271.754 286.727V285.807C271.762 283.693 270.416 281.929 267.91 281.929C265.447 281.929 264.075 283.71 264.066 285.807V286.727ZM255.109 276.739C255.118 278.835 256.456 280.6 258.944 280.6C261.424 280.6 262.805 278.852 262.797 276.739V275.818C262.805 273.705 261.459 271.94 258.944 271.94C256.507 271.94 255.118 273.705 255.109 275.818V276.739ZM255.944 290H258.169L270.169 272.546H267.944L255.944 290ZM266.547 285.807C266.555 284.972 266.887 284.111 267.91 284.111C268.984 284.111 269.265 284.972 269.257 285.807V286.727C269.265 287.563 268.95 288.406 267.91 288.406C266.87 288.406 266.555 287.537 266.547 286.727V285.807ZM257.606 275.818C257.615 275.009 257.93 274.122 258.944 274.122C260.018 274.122 260.308 274.983 260.299 275.818V276.739C260.308 277.574 259.984 278.418 258.944 278.418C257.939 278.418 257.615 277.574 257.606 276.739V275.818Z" fill="#004F7F"/>
<path d="M236.715 313L237.885 309.705H242.59L243.76 313H245.237L240.965 301.364H239.51L235.237 313H236.715ZM238.328 308.455L240.192 303.205H240.283L242.146 308.455H238.328Z" fill="#004F7F"/>
<path d="M253.05 306.227C252.629 304.989 251.686 304.159 249.959 304.159C248.118 304.159 246.754 305.205 246.754 306.682C246.754 307.886 247.47 308.693 249.073 309.068L250.527 309.409C251.408 309.614 251.823 310.034 251.823 310.636C251.823 311.386 251.027 312 249.777 312C248.68 312 247.993 311.528 247.754 310.591L246.482 310.909C246.794 312.392 248.016 313.182 249.8 313.182C251.828 313.182 253.209 312.074 253.209 310.568C253.209 309.352 252.448 308.585 250.891 308.205L249.595 307.886C248.561 307.631 248.095 307.284 248.095 306.614C248.095 305.864 248.891 305.318 249.959 305.318C251.129 305.318 251.612 305.966 251.845 306.568L253.05 306.227Z" fill="#004F7F"/>
<path d="M255.227 313H256.568V304.273H255.227V313ZM255.909 302.818C256.432 302.818 256.864 302.409 256.864 301.909C256.864 301.409 256.432 301 255.909 301C255.386 301 254.955 301.409 254.955 301.909C254.955 302.409 255.386 302.818 255.909 302.818Z" fill="#004F7F"/>
<path d="M261.592 313.205C263.115 313.205 263.911 312.386 264.183 311.818H264.252V313H265.592V307.25C265.592 304.477 263.479 304.159 262.365 304.159C261.047 304.159 259.547 304.614 258.865 306.205L260.138 306.659C260.433 306.023 261.132 305.341 262.411 305.341C263.644 305.341 264.252 305.994 264.252 307.114V307.159C264.252 307.807 263.592 307.75 262.002 307.955C260.382 308.165 258.615 308.523 258.615 310.523C258.615 312.227 259.933 313.205 261.592 313.205ZM261.797 312C260.729 312 259.956 311.523 259.956 310.591C259.956 309.568 260.888 309.25 261.933 309.114C262.502 309.045 264.024 308.886 264.252 308.614V309.841C264.252 310.932 263.388 312 261.797 312Z" fill="#004F7F"/>
<path d="M269.381 307.75C269.381 306.227 270.324 305.364 271.608 305.364C272.852 305.364 273.608 306.176 273.608 307.545V313H274.949V307.455C274.949 305.227 273.761 304.159 271.994 304.159C270.676 304.159 269.858 304.75 269.449 305.636H269.335V304.273H268.04V313H269.381V307.75Z" fill="#004F7F"/>
<path d="M327.18 290.239C331.118 290.239 333.947 288.134 333.956 285.304C333.947 283.122 332.268 281.341 330.172 280.992V280.872C331.996 280.497 333.299 278.921 333.308 277.003C333.299 274.301 330.709 272.307 327.18 272.307C323.643 272.307 321.052 274.301 321.061 277.003C321.052 278.912 322.339 280.497 324.197 280.872V280.992C322.067 281.341 320.405 283.122 320.413 285.304C320.405 288.134 323.243 290.239 327.18 290.239ZM327.18 287.528C325.424 287.528 324.248 286.489 324.248 285.014C324.248 283.506 325.484 282.415 327.18 282.415C328.868 282.415 330.112 283.506 330.112 285.014C330.112 286.497 328.927 287.528 327.18 287.528ZM327.18 279.73C325.706 279.73 324.657 278.767 324.657 277.386C324.657 276.023 325.689 275.085 327.18 275.085C328.663 275.085 329.703 276.031 329.703 277.386C329.703 278.767 328.646 279.73 327.18 279.73Z" fill="#004F7F"/>
<path d="M346.09 286.727C346.098 288.824 347.437 290.605 349.934 290.605C352.405 290.605 353.786 288.824 353.777 286.727V285.807C353.786 283.693 352.439 281.929 349.934 281.929C347.471 281.929 346.098 283.71 346.09 285.807V286.727ZM337.133 276.739C337.141 278.835 338.479 280.6 340.968 280.6C343.448 280.6 344.829 278.852 344.82 276.739V275.818C344.829 273.705 343.482 271.94 340.968 271.94C338.53 271.94 337.141 273.705 337.133 275.818V276.739ZM337.968 290H340.192L352.192 272.546H349.968L337.968 290ZM348.57 285.807C348.579 284.972 348.911 284.111 349.934 284.111C351.008 284.111 351.289 284.972 351.28 285.807V286.727C351.289 287.563 350.973 288.406 349.934 288.406C348.894 288.406 348.579 287.537 348.57 286.727V285.807ZM339.63 275.818C339.638 275.009 339.954 274.122 340.968 274.122C342.042 274.122 342.331 274.983 342.323 275.818V276.739C342.331 277.574 342.008 278.418 340.968 278.418C339.962 278.418 339.638 277.574 339.63 276.739V275.818Z" fill="#004F7F"/>
<path d="M323.282 307.181C323.282 303.5 321.123 301.204 318.146 301.204C315.168 301.204 313.009 303.5 313.009 307.181C313.009 310.863 315.168 313.159 318.146 313.159C321.123 313.159 323.282 310.863 323.282 307.181ZM321.918 307.181C321.918 310.204 320.259 311.84 318.146 311.84C316.032 311.84 314.373 310.204 314.373 307.181C314.373 304.159 316.032 302.522 318.146 302.522C320.259 302.522 321.918 304.159 321.918 307.181Z" fill="#004F7F"/>
<path d="M329.265 304.272H327.401V302.181H326.06V304.272H324.742V305.409H326.06V310.863C326.06 312.386 327.288 313.113 328.424 313.113C328.924 313.113 329.242 313.022 329.424 312.954L329.151 311.75C329.038 311.772 328.856 311.818 328.56 311.818C327.969 311.818 327.401 311.636 327.401 310.5V305.409H329.265V304.272Z" fill="#004F7F"/>
<path d="M332.81 307.75C332.81 306.227 333.782 305.363 335.106 305.363C336.367 305.363 337.129 306.159 337.129 307.545V313H338.469V307.454C338.469 305.21 337.276 304.159 335.492 304.159C334.117 304.159 333.333 304.733 332.924 305.636H332.81V301.363H331.469V313H332.81V307.75Z" fill="#004F7F"/>
<path d="M344.582 313.181C346.354 313.181 347.65 312.295 348.059 310.977L346.764 310.613C346.423 311.522 345.633 311.977 344.582 311.977C343.008 311.977 341.923 310.96 341.86 309.09H348.195V308.522C348.195 305.272 346.264 304.159 344.445 304.159C342.082 304.159 340.514 306.022 340.514 308.704C340.514 311.386 342.059 313.181 344.582 313.181ZM341.86 307.931C341.951 306.573 342.911 305.363 344.445 305.363C345.9 305.363 346.832 306.454 346.832 307.931H341.86Z" fill="#004F7F"/>
<path d="M350.235 313H351.576V307.477C351.576 306.295 352.508 305.431 353.781 305.431C354.139 305.431 354.508 305.5 354.599 305.522V304.159C354.445 304.147 354.093 304.136 353.894 304.136C352.849 304.136 351.94 304.727 351.621 305.59H351.531V304.272H350.235V313Z" fill="#004F7F"/>
<path d="M357.188 311.409H355.734L355.666 312.045C355.501 313.585 355.177 315.119 355.029 315.84H356.052C356.325 315.068 356.904 313.318 357.097 312.022L357.188 311.409Z" fill="#004F7F"/>
<path d="M304.712 333H306.053V324.272H304.712V333ZM305.393 322.818C305.916 322.818 306.348 322.409 306.348 321.909C306.348 321.409 305.916 321 305.393 321C304.871 321 304.439 321.409 304.439 321.909C304.439 322.409 304.871 322.818 305.393 322.818Z" fill="#004F7F"/>
<path d="M309.849 327.75C309.849 326.227 310.793 325.363 312.077 325.363C313.321 325.363 314.077 326.176 314.077 327.545V333H315.418V327.454C315.418 325.227 314.23 324.159 312.463 324.159C311.145 324.159 310.327 324.75 309.918 325.636H309.804V324.272H308.509V333H309.849V327.75Z" fill="#004F7F"/>
<path d="M321.413 333.181C323.345 333.181 324.618 332 324.845 330.454H323.504C323.254 331.409 322.459 331.977 321.413 331.977C319.822 331.977 318.8 330.659 318.8 328.636C318.8 326.659 319.845 325.363 321.413 325.363C322.595 325.363 323.3 326.09 323.504 326.886H324.845C324.618 325.25 323.232 324.159 321.391 324.159C319.027 324.159 317.459 326.022 317.459 328.681C317.459 331.295 318.959 333.181 321.413 333.181Z" fill="#004F7F"/>
<path d="M328.146 321.363H326.805V333H328.146V321.363Z" fill="#004F7F"/>
<path d="M336.102 329.431C336.102 331.068 334.852 331.818 333.852 331.818C332.739 331.818 331.943 331 331.943 329.727V324.272H330.602V329.818C330.602 332.045 331.784 333.113 333.42 333.113C334.739 333.113 335.602 332.409 336.011 331.522H336.102V333H337.443V324.272H336.102V329.431Z" fill="#004F7F"/>
<path d="M343.195 333.181C344.876 333.181 345.445 332.136 345.74 331.659H345.899V333H347.195V321.363H345.854V325.659H345.74C345.445 325.204 344.922 324.159 343.217 324.159C341.013 324.159 339.49 325.909 339.49 328.659C339.49 331.431 341.013 333.181 343.195 333.181ZM343.376 331.977C341.695 331.977 340.831 330.5 340.831 328.636C340.831 326.795 341.672 325.363 343.376 325.363C345.013 325.363 345.876 326.681 345.876 328.636C345.876 330.613 344.99 331.977 343.376 331.977Z" fill="#004F7F"/>
<path d="M349.837 333H351.178V324.272H349.837V333ZM350.518 322.818C351.041 322.818 351.473 322.409 351.473 321.909C351.473 321.409 351.041 321 350.518 321C349.996 321 349.564 321.409 349.564 321.909C349.564 322.409 349.996 322.818 350.518 322.818Z" fill="#004F7F"/>
<path d="M354.974 327.75C354.974 326.227 355.918 325.363 357.202 325.363C358.446 325.363 359.202 326.176 359.202 327.545V333H360.543V327.454C360.543 325.227 359.355 324.159 357.588 324.159C356.27 324.159 355.452 324.75 355.043 325.636H354.929V324.272H353.634V333H354.974V327.75Z" fill="#004F7F"/>
<path d="M366.516 336.454C368.607 336.454 370.288 335.5 370.288 333.25V324.272H368.993V325.659H368.857C368.561 325.204 368.016 324.159 366.311 324.159C364.107 324.159 362.584 325.909 362.584 328.59C362.584 331.318 364.175 332.863 366.288 332.863C367.993 332.863 368.538 331.863 368.834 331.386H368.947V333.159C368.947 334.613 367.925 335.272 366.516 335.272C364.93 335.272 364.374 334.437 364.016 333.954L362.947 334.704C363.493 335.619 364.567 336.454 366.516 336.454ZM366.47 331.659C364.788 331.659 363.925 330.386 363.925 328.568C363.925 326.795 364.766 325.363 366.47 325.363C368.107 325.363 368.97 326.681 368.97 328.568C368.97 330.5 368.084 331.659 366.47 331.659Z" fill="#004F7F"/>
<path d="M296.485 353H297.826V347.545C297.826 346.267 298.758 345.363 299.803 345.363C300.82 345.363 301.531 346.028 301.531 347.022V353H302.894V347.318C302.894 346.193 303.599 345.363 304.826 345.363C305.781 345.363 306.599 345.869 306.599 347.159V353H307.94V347.159C307.94 345.108 306.837 344.159 305.281 344.159C304.031 344.159 303.116 344.733 302.667 345.636H302.576C302.144 344.704 301.383 344.159 300.235 344.159C299.099 344.159 298.258 344.704 297.894 345.636H297.781V344.272H296.485V353Z" fill="#004F7F"/>
<path d="M315.891 349.431C315.891 351.068 314.641 351.818 313.641 351.818C312.528 351.818 311.732 351 311.732 349.727V344.272H310.391V349.818C310.391 352.045 311.573 353.113 313.21 353.113C314.528 353.113 315.391 352.409 315.8 351.522H315.891V353H317.232V344.272H315.891V349.431Z" fill="#004F7F"/>
<path d="M321.029 341.363H319.688V353H321.029V341.363Z" fill="#004F7F"/>
<path d="M327.281 344.272H325.417V342.181H324.076V344.272H322.758V345.409H324.076V350.863C324.076 352.386 325.303 353.113 326.44 353.113C326.94 353.113 327.258 353.022 327.44 352.954L327.167 351.75C327.053 351.772 326.871 351.818 326.576 351.818C325.985 351.818 325.417 351.636 325.417 350.5V345.409H327.281V344.272Z" fill="#004F7F"/>
<path d="M329.298 353H330.639V344.272H329.298V353ZM329.979 342.818C330.502 342.818 330.934 342.409 330.934 341.909C330.934 341.409 330.502 341 329.979 341C329.457 341 329.025 341.409 329.025 341.909C329.025 342.409 329.457 342.818 329.979 342.818Z" fill="#004F7F"/>
<path d="M338.094 347.386H333.004V348.636H338.094V347.386Z" fill="#004F7F"/>
<path d="M340.454 353H341.795V347.477C341.795 346.295 342.727 345.431 343.999 345.431C344.357 345.431 344.727 345.5 344.817 345.522V344.159C344.664 344.147 344.312 344.136 344.113 344.136C343.067 344.136 342.158 344.727 341.84 345.59H341.749V344.272H340.454V353Z" fill="#004F7F"/>
<path d="M348.975 353.204C350.498 353.204 351.293 352.386 351.566 351.818H351.634V353H352.975V347.25C352.975 344.477 350.862 344.159 349.748 344.159C348.43 344.159 346.93 344.613 346.248 346.204L347.521 346.659C347.816 346.022 348.515 345.34 349.793 345.34C351.026 345.34 351.634 345.994 351.634 347.113V347.159C351.634 347.806 350.975 347.75 349.384 347.954C347.765 348.164 345.998 348.522 345.998 350.522C345.998 352.227 347.316 353.204 348.975 353.204ZM349.18 352C348.112 352 347.339 351.522 347.339 350.59C347.339 349.568 348.271 349.25 349.316 349.113C349.884 349.045 351.407 348.886 351.634 348.613V349.84C351.634 350.931 350.771 352 349.18 352Z" fill="#004F7F"/>
<path d="M358.968 353.181C360.9 353.181 362.173 352 362.4 350.454H361.059C360.809 351.409 360.014 351.977 358.968 351.977C357.377 351.977 356.354 350.659 356.354 348.636C356.354 346.659 357.4 345.363 358.968 345.363C360.15 345.363 360.854 346.09 361.059 346.886H362.4C362.173 345.25 360.786 344.159 358.945 344.159C356.582 344.159 355.014 346.022 355.014 348.681C355.014 351.295 356.514 353.181 358.968 353.181Z" fill="#004F7F"/>
<path d="M364.36 353H365.701V344.272H364.36V353ZM365.042 342.818C365.565 342.818 365.996 342.409 365.996 341.909C365.996 341.409 365.565 341 365.042 341C364.519 341 364.087 341.409 364.087 341.909C364.087 342.409 364.519 342.818 365.042 342.818Z" fill="#004F7F"/>
<path d="M370.725 353.204C372.248 353.204 373.043 352.386 373.316 351.818H373.384V353H374.725V347.25C374.725 344.477 372.612 344.159 371.498 344.159C370.18 344.159 368.68 344.613 367.998 346.204L369.271 346.659C369.566 346.022 370.265 345.34 371.543 345.34C372.776 345.34 373.384 345.994 373.384 347.113V347.159C373.384 347.806 372.725 347.75 371.134 347.954C369.515 348.164 367.748 348.522 367.748 350.522C367.748 352.227 369.066 353.204 370.725 353.204ZM370.93 352C369.862 352 369.089 351.522 369.089 350.59C369.089 349.568 370.021 349.25 371.066 349.113C371.634 349.045 373.157 348.886 373.384 348.613V349.84C373.384 350.931 372.521 352 370.93 352Z" fill="#004F7F"/>
<path d="M378.514 341.363H377.173V353H378.514V341.363Z" fill="#004F7F"/>
</svg>
