<svg width="585" height="417" viewBox="0 0 585 417" fill="none" xmlns="http://www.w3.org/2000/svg">
<path opacity="0.1" d="M546.321 270.81H161.447C143.714 270.81 129.22 285.271 129.22 302.961V307.73C129.22 325.421 143.714 339.881 161.447 339.881H220.504V358.187C220.504 372.648 232.377 384.647 247.026 384.647H460.588C475.083 384.647 487.11 372.801 487.11 358.187V339.881H546.167C563.9 339.881 578.394 325.421 578.394 307.73V302.961C578.548 285.271 564.054 270.81 546.321 270.81Z" fill="#0069AA"/>
<path opacity="0.1" d="M78.9125 328.328C91.4816 328.328 101.671 317.866 101.671 304.961C101.671 292.056 91.4816 281.595 78.9125 281.595C66.3435 281.595 56.1543 292.056 56.1543 304.961C56.1543 317.866 66.3435 328.328 78.9125 328.328Z" fill="#0069AA"/>
<path opacity="0.1" d="M21.4177 321.138C30.6791 321.138 38.1869 313.895 38.1869 304.961C38.1869 296.027 30.6791 288.784 21.4177 288.784C12.1563 288.784 4.64844 296.027 4.64844 304.961C4.64844 313.895 12.1563 321.138 21.4177 321.138Z" fill="#0069AA"/>
<path d="M523.856 254.825H176.377C166.573 254.825 158.654 246.903 158.654 237.094V17.7302C158.654 7.92201 166.573 0 176.377 0H523.667C533.471 0 541.39 7.92201 541.39 17.7302V237.094C541.579 246.903 533.66 254.825 523.856 254.825Z" fill="#0069AA"/>
<path d="M350.022 248.034C354.604 248.034 358.318 244.319 358.318 239.735C358.318 235.151 354.604 231.436 350.022 231.436C345.441 231.436 341.727 235.151 341.727 239.735C341.727 244.319 345.441 248.034 350.022 248.034Z" fill="#00559B"/>
<path d="M371.138 282.363V254.825H350.022H329.094V282.363H371.138Z" fill="#0069AA"/>
<path d="M525.742 22.0685H174.869V223.702H525.742V22.0685Z" fill="#F2F2F2"/>
<path d="M402.319 174.948H313.682V188.129H402.319V174.948Z" fill="#7AC142"/>
<path d="M525.553 21.6912H174.869V39.4214H525.553V21.6912Z" fill="white"/>
<path d="M385.279 296.698H315.143C310.241 296.698 306.093 292.737 306.093 287.644V285.192C306.093 280.288 310.052 276.138 315.143 276.138H385.279C390.181 276.138 394.329 280.099 394.329 285.192V287.644C394.141 292.548 390.181 296.698 385.279 296.698Z" fill="#0069AA"/>
<rect x="201.088" y="51.5259" width="295.857" height="19.1724" fill="white"/>
<rect x="201.588" y="52.0259" width="294.857" height="18.1724" stroke="#0069AA" stroke-opacity="0.38"/>
<rect x="201.088" y="81.4828" width="295.857" height="19.1724" fill="white"/>
<rect x="201.588" y="81.9828" width="294.857" height="18.1724" stroke="#0069AA" stroke-opacity="0.38"/>
<rect x="201.088" y="111.44" width="295.857" height="55.1207" fill="white"/>
<rect x="201.588" y="111.94" width="294.857" height="54.1207" stroke="#0069AA" stroke-opacity="0.38"/>
<path opacity="0.2" d="M352.443 198.581C365.251 198.581 375.634 188.194 375.634 175.381C375.634 162.568 365.251 152.181 352.443 152.181C339.636 152.181 329.253 162.568 329.253 175.381C329.253 188.194 339.636 198.581 352.443 198.581Z" fill="#005CAA"/>
<path d="M368.281 200.845L361.305 178.965C359.797 174.061 350.747 176.89 352.444 181.794L363.379 216.5C363.567 216.877 363.19 217.255 362.813 217.066C360.739 216.123 356.026 213.482 353.763 211.596C350.935 209.333 346.222 212.916 349.238 216.5C352.255 220.084 374.88 239.512 374.88 239.512L400.898 231.213C400.898 231.213 402.218 210.653 401.652 208.201C401.087 205.749 397.882 196.129 396.939 193.111C395.431 188.585 390.34 190.282 386.004 191.602" fill="white"/>
<path d="M368.281 200.845L361.305 178.965C359.797 174.061 350.747 176.89 352.444 181.794L363.379 216.5C363.567 216.877 363.19 217.255 362.813 217.066C360.739 216.123 356.026 213.482 353.763 211.596C350.935 209.333 346.222 212.916 349.238 216.5C352.255 220.084 374.88 239.512 374.88 239.512L400.898 231.213C400.898 231.213 402.218 210.653 401.652 208.201C401.087 205.749 397.882 196.129 396.939 193.111C395.431 188.585 390.34 190.282 386.004 191.602" stroke="#7AC142" stroke-width="1.461" stroke-miterlimit="10"/>
<path d="M365.453 191.414L372.241 189.339C373.749 188.962 375.257 189.716 375.634 191.037L378.085 198.959" fill="white"/>
<path d="M365.453 191.414L372.241 189.339C373.749 188.962 375.257 189.716 375.634 191.037L378.085 198.959" stroke="#7AC142" stroke-width="1.461" stroke-miterlimit="10"/>
<path d="M375.634 191.037L381.479 189.15C383.364 188.585 385.249 189.528 386.003 191.414L388.266 198.393" fill="white"/>
<path d="M375.634 191.037L381.479 189.15C383.364 188.585 385.249 189.528 386.003 191.414L388.266 198.393" stroke="#7AC142" stroke-width="1.461" stroke-miterlimit="10"/>
<rect x="211.868" y="58.7156" width="53.9011" height="4.7931" fill="#EBF3F8"/>
<rect x="211.868" y="88.6724" width="107.802" height="4.7931" fill="#EBF3F8"/>
<rect x="211.868" y="121.026" width="264.714" height="17.9741" fill="#EBF3F8"/>
</svg>
