<svg width="1600" height="468" viewBox="0 0 1600 468" fill="none" xmlns="http://www.w3.org/2000/svg">
<g clip-path="url(#clip0)">
<path opacity="0.15" d="M1506.24 115.556V113.106C1506.24 100.363 1495.89 90 1483.16 90H1346.18C1333.46 90 1323.11 100.363 1323.11 113.106V115.556C1323.11 128.299 1333.46 138.662 1346.18 138.662H1403.03C1415.76 138.662 1426.11 149.025 1426.11 161.768V183.683C1426.11 196.426 1415.76 206.789 1403.03 206.789H1195.08C1182.35 206.789 1172 217.151 1172 229.894C1172 242.637 1182.35 253 1195.08 253H1586.37C1599.1 253 1609.45 242.637 1609.45 229.894C1609.45 217.151 1619.8 206.789 1632.52 206.789H1676.92C1689.65 206.789 1700 196.426 1700 183.683V161.768C1700 149.025 1689.65 138.662 1676.92 138.662H1529.31C1516.59 138.662 1506.24 128.299 1506.24 115.556Z" fill="#007AB7"/>
<path opacity="0.2" d="M1367.5 354.3H660.1C660.1 304.4 619.7 264 569.8 264H0V468H447.3H549.9H1367.5H1600V354.3C1600 330.8 1581 311.8 1557.5 311.8H1410.1C1386.5 311.8 1367.5 330.8 1367.5 354.3Z" fill="#7AC142"/>
<path opacity="0.3" d="M1592.79 447.841H1108.21C1092.05 447.841 1079 434.788 1079 418.633V415.208C1079 399.053 1092.05 386 1108.21 386H1592.79C1608.95 386 1622 399.053 1622 415.208V418.633C1622 434.788 1608.95 447.841 1592.79 447.841Z" fill="#7AC142"/>
<path d="M1143.43 216.122C1135.84 216.122 1129.62 209.95 1129.62 202.302V193.563C1129.62 185.97 1135.78 179.743 1143.43 179.743C1151.02 179.743 1157.24 185.916 1157.24 193.563V202.302C1157.24 209.95 1151.07 216.122 1143.43 216.122Z" fill="#CE956E"/>
<path d="M1151.73 262.006L1123.28 236.661C1120.55 234.258 1120.34 230.052 1122.74 227.321C1125.14 224.59 1129.34 224.371 1132.07 226.775L1160.51 252.12C1163.24 254.523 1163.46 258.729 1161.06 261.46C1158.66 264.137 1154.45 264.41 1151.73 262.006Z" fill="#FC857A"/>
<path d="M1190.59 225.409L1193.54 218.8C1194.52 216.56 1197.2 215.632 1199.38 216.779C1201.46 217.871 1202.22 220.493 1201.07 222.569L1197.14 229.561L1190.59 225.409Z" fill="#CE956E"/>
<path d="M1110.07 297.128L1108.49 304.174C1107.94 306.577 1105.49 307.998 1103.19 307.288C1100.9 306.632 1099.65 304.174 1100.36 301.935L1102.81 294.287L1110.07 297.128Z" fill="#CE956E"/>
<path d="M1172.22 264.572C1169.49 262.954 1168.63 259.449 1170.34 256.752L1190.29 225.31L1197.32 229.463L1179.89 262.361C1178.44 265.166 1174.96 266.136 1172.22 264.572Z" fill="#E5B01C"/>
<path d="M1119.74 254.16C1122.84 255.138 1124.5 258.452 1123.39 261.44L1110.33 296.753L1102.3 294.254L1112.43 258.017C1113.32 254.921 1116.64 253.182 1119.74 254.16Z" fill="#E5B01C"/>
<path d="M1165.17 293.181L1164.13 419.646C1164.08 423.018 1161.3 425.738 1157.92 425.738H1156.28C1153.01 425.738 1150.28 423.182 1150.06 419.918L1144.55 321.901C1144.55 321.52 1144.23 321.248 1143.84 321.248C1143.46 321.248 1143.14 321.574 1143.14 321.955L1140.68 419.972C1140.63 423.345 1137.84 426.064 1134.46 426.064H1132.23C1128.95 426.064 1126.23 423.508 1126.01 420.244L1121.59 294.65L1165.17 293.181Z" fill="#0069AA"/>
<path d="M1180.25 255.964L1165.45 229.732C1162.8 224.452 1157.39 221.133 1151.42 221.078L1135.35 221.024C1128.94 221.024 1122.65 224.779 1120.22 230.602L1112.04 256.399C1110.77 259.393 1112.26 262.822 1115.3 264.019C1118.34 265.271 1121.82 263.801 1123.03 260.808L1124.25 256.073L1118.62 306.579C1118.67 309.082 1120.71 311.042 1123.25 311.042H1163.3C1165.84 311.042 1167.88 309.082 1167.93 306.579L1162.3 249.215L1169.59 261.134C1171.03 264.019 1174.62 265.216 1177.54 263.801C1180.53 262.386 1181.74 258.849 1180.25 255.964Z" fill="#E5B01C"/>
<path d="M1140.75 183.826C1137.77 184.372 1135.06 186.555 1133.57 189.285C1132.19 191.905 1131.69 194.907 1131.64 197.855C1131.58 200.475 1131.58 203.478 1132.36 205.934C1134.29 211.83 1137.55 217.507 1137.6 223.894C1134.78 224.494 1132.36 226.296 1129.87 227.715C1127.39 229.134 1124.3 230.172 1121.59 229.244C1125.07 226.241 1124.63 219.036 1124.57 214.887C1124.52 209.592 1123.91 204.297 1124.13 199.056C1124.41 192.778 1125.18 185.791 1130.2 181.478C1134.78 177.493 1140.08 176.838 1145.88 176.729C1145.27 176.729 1144.28 183.334 1144.17 183.99C1143.01 183.607 1141.91 183.607 1140.75 183.826Z" fill="#01527A"/>
<path d="M1155.8 183.016C1156.34 183.727 1156.83 184.548 1157.21 185.424C1159.5 190.568 1160.81 196.151 1160.7 201.788C1160.53 207.973 1160.37 214.267 1162.66 220.177C1163.42 222.093 1164.4 223.954 1164.46 225.979C1164.46 225.432 1157.1 225.651 1156.4 225.705C1154.05 225.924 1153.73 226.855 1151.98 228.168C1151.17 224.337 1151.38 219.959 1151.77 216.073C1152.31 210.271 1153.73 204.525 1153.4 198.668C1153.24 195.932 1152.58 193.195 1151.44 190.733C1150.02 187.777 1148.01 187.285 1145.67 185.533C1145.5 185.369 1145.28 185.205 1145.23 185.041C1145.12 184.822 1145.18 184.548 1145.23 184.329C1145.61 182.413 1146.16 180.553 1146.81 178.747C1146.86 178.582 1146.92 178.418 1147.08 178.309C1147.35 178.09 1147.74 178.145 1148.06 178.254C1151.28 179.184 1153.94 180.607 1155.8 183.016Z" fill="#01527A"/>
<path d="M1043.16 234.821L1057.63 220.423L1062.17 224.179L1050.58 241.446C1048.75 243.481 1045.56 243.69 1043.52 241.864C1041.54 239.986 1041.33 236.856 1043.16 234.821Z" fill="#007AB7"/>
<path d="M1057.62 220.423L1060.45 215.728C1061.39 214.163 1063.47 213.693 1064.99 214.737C1066.45 215.78 1066.82 217.762 1065.77 219.223L1062.22 224.127L1057.62 220.423Z" fill="#AF7A4F"/>
<path d="M1041.91 426.226C1037.73 426.226 1034.23 422.991 1033.97 418.818L1025.61 297.162C1025.61 289.962 1031.46 284.12 1038.67 284.12H1045.2C1052.4 284.12 1058.25 289.962 1058.25 297.162L1049.9 418.818C1049.58 422.991 1046.08 426.226 1041.91 426.226Z" fill="url(#paint0_linear)"/>
<path d="M1041.91 215.571C1034.65 215.571 1028.69 209.676 1028.69 202.373V194.026C1028.69 186.774 1034.59 180.827 1041.91 180.827C1049.16 180.827 1055.12 186.722 1055.12 194.026V202.373C1055.12 209.676 1049.22 215.571 1041.91 215.571Z" fill="#AF7A4F"/>
<path d="M1052.51 303.891H1031.36C1028.22 303.891 1025.61 301.283 1025.61 298.153L1023 230.908C1023 223.709 1028.85 217.866 1036.06 217.866H1045.2C1052.4 217.866 1058.25 223.709 1058.25 230.908V298.153C1058.25 301.283 1055.64 303.891 1052.51 303.891Z" fill="url(#paint1_linear)"/>
<path d="M1032.03 193.66C1032.92 191.521 1034.49 189.174 1036.68 188.391C1039.66 187.4 1043.89 187.609 1046.92 187.974C1048.96 188.235 1051.36 188.6 1052.77 187.035C1054.33 185.261 1053.13 182.392 1051.36 180.879C1047.6 177.749 1042.17 177.853 1037.36 178.584C1033.86 179.105 1030 180.149 1028.12 183.122C1026.6 185.522 1026.6 188.965 1026.13 191.678C1025.56 195.225 1026.55 199.451 1027.65 202.79C1027.8 203.311 1028.01 203.885 1028.43 204.303C1028.85 204.72 1029.48 204.929 1030 204.668C1030.78 204.303 1030.78 203.259 1030.73 202.372C1030.57 199.66 1030.78 196.895 1031.72 194.391C1031.83 194.234 1031.93 193.973 1032.03 193.66Z" fill="#0069AA"/>
<path d="M1058.3 259.444L1031.09 235.238C1028.48 232.943 1028.27 228.926 1030.57 226.317C1032.87 223.709 1036.89 223.5 1039.5 225.796L1066.71 250.002C1069.32 252.297 1069.53 256.314 1067.23 258.923C1064.88 261.479 1060.92 261.74 1058.3 259.444Z" fill="#007AB7"/>
<path d="M1058.2 250.68L1076.53 232.474L1082.33 237.221L1067.65 259.079C1065.36 261.688 1061.33 261.896 1058.72 259.601C1056.11 257.306 1055.9 253.289 1058.2 250.68Z" fill="#007AB7"/>
<path d="M1079.72 232.16L1061.54 222.979C1060.55 222.405 1060.24 221.101 1060.86 220.109L1067.39 210.041C1067.97 209.05 1069.27 208.737 1070.26 209.363L1089.59 215.988C1090.58 216.562 1090.89 217.866 1090.27 218.857L1082.54 231.482C1081.96 232.473 1080.66 232.786 1079.72 232.16Z" fill="#01527A"/>
<path d="M1079.82 230.282L1063.84 222.301L1070.84 211.397L1087.92 216.927L1079.82 230.282Z" fill="#E6E6E6"/>
<path d="M1076.53 232.473L1080.08 226.526C1081.28 224.544 1083.95 223.97 1085.83 225.274C1087.71 226.578 1088.13 229.134 1086.82 230.96L1082.33 237.168L1076.53 232.473Z" fill="#AF7A4F"/>
<path fill-rule="evenodd" clip-rule="evenodd" d="M1198.21 141.585C1197.27 145.386 1194.88 148.452 1191.79 150.344C1190.07 151.853 1188.48 153.629 1187.58 157.273C1187.18 158.857 1185.59 159.805 1184 159.413L1179.36 158.263L1174.71 157.114C1173.13 156.721 1172.16 155.138 1172.55 153.554C1173.45 149.91 1172.88 147.598 1172.06 145.46C1170.2 142.342 1169.53 138.519 1170.47 134.719C1170.49 134.615 1170.52 134.512 1170.55 134.41C1170.58 134.283 1170.61 134.155 1170.64 134.025L1170.66 134.029C1172.83 126.781 1180.34 122.443 1187.77 124.282C1195.2 126.121 1199.82 133.46 1198.36 140.888L1198.38 140.892C1198.35 141.022 1198.31 141.149 1198.28 141.275C1198.26 141.378 1198.23 141.482 1198.21 141.585Z" fill="url(#paint2_radial)"/>
<path d="M1170.35 158.977C1170.44 158.594 1170.83 158.36 1171.21 158.455L1186.47 162.232C1186.85 162.327 1187.09 162.714 1186.99 163.097C1186.9 163.48 1186.51 163.714 1186.13 163.619L1170.87 159.842C1170.49 159.747 1170.25 159.36 1170.35 158.977Z" fill="#7AC142"/>
<path d="M1170.88 162.788C1170.97 162.405 1171.36 162.172 1171.74 162.267L1184.23 165.357C1184.61 165.452 1184.84 165.839 1184.75 166.222C1184.65 166.605 1184.27 166.839 1183.88 166.744L1171.4 163.654C1171.02 163.559 1170.78 163.171 1170.88 162.788Z" fill="#7AC142"/>
<path d="M1171.41 166.599C1171.5 166.216 1171.89 165.982 1172.27 166.077L1181.98 168.48C1182.36 168.575 1182.6 168.962 1182.5 169.345C1182.41 169.728 1182.02 169.962 1181.64 169.867L1171.93 167.464C1171.55 167.369 1171.31 166.982 1171.41 166.599Z" fill="#7AC142"/>
<path fill-rule="evenodd" clip-rule="evenodd" d="M1191.29 111.538C1191.68 111.633 1191.91 112.02 1191.81 112.403L1189.67 121.072C1189.57 121.455 1189.19 121.688 1188.8 121.594C1188.42 121.499 1188.19 121.111 1188.28 120.728L1190.43 112.06C1190.52 111.677 1190.91 111.443 1191.29 111.538ZM1207.36 124.562C1207.56 124.9 1207.45 125.339 1207.11 125.543L1200.19 129.717C1199.85 129.921 1199.42 129.812 1199.21 129.475C1199.01 129.137 1199.12 128.698 1199.45 128.494L1206.38 124.319C1206.71 124.115 1207.15 124.224 1207.36 124.562ZM1168.67 116.089C1169.01 115.885 1169.45 115.994 1169.65 116.332L1173.82 123.253C1174.03 123.591 1173.92 124.03 1173.58 124.234C1173.24 124.438 1172.8 124.329 1172.6 123.991L1168.43 117.07C1168.22 116.732 1168.33 116.293 1168.67 116.089Z" fill="#FCFF76"/>
<path d="M1251.31 424.636C1255.53 424.636 1259.07 421.364 1259.33 417.141L1267.77 309.838C1267.77 302.554 1261.86 296.643 1254.59 296.643H1247.99C1240.71 296.643 1234.8 302.554 1234.8 309.838L1243.24 417.141C1243.56 421.364 1247.04 424.636 1251.31 424.636Z" fill="#EFC59E"/>
<path d="M1246.53 256.651L1229.3 240.412L1224.12 244.907L1238.15 264.567C1240.36 266.899 1244 267.018 1246.33 264.815C1248.61 262.625 1248.73 258.983 1246.53 256.651Z" fill="#FF6A52"/>
<path d="M1229.36 240.448L1225.97 235.12C1224.79 233.306 1222.4 232.855 1220.66 234.11C1219.01 235.34 1218.65 237.711 1219.93 239.349L1224.23 244.931L1229.36 240.448Z" fill="#EFC59E"/>
<path d="M1239.21 361.052H1263.39C1265.59 361.052 1267.41 359.381 1267.52 357.224L1270.59 309.614H1232.01L1235.09 357.224C1235.2 359.381 1237.01 361.052 1239.21 361.052Z" fill="#0069AA"/>
<path d="M1251.31 227.341C1258.65 227.341 1264.66 221.377 1264.66 213.988V205.543C1264.66 198.206 1258.7 192.189 1251.31 192.189C1243.98 192.189 1237.97 198.153 1237.97 205.543V213.988C1237.97 221.324 1243.93 227.341 1251.31 227.341Z" fill="#EFC59E"/>
<path d="M1236.91 316.646H1266.19C1269.35 316.646 1271.99 314.007 1271.99 310.841L1267.77 242.806C1267.77 235.522 1261.86 229.611 1254.59 229.611H1250.63C1243.35 229.611 1237.44 235.522 1237.44 242.806L1231.11 310.841C1231.11 314.06 1233.75 316.646 1236.91 316.646Z" fill="#FC857A"/>
<path d="M1234.75 271.675L1262.23 247.185C1264.87 244.863 1265.08 240.798 1262.76 238.159C1260.44 235.52 1256.38 235.309 1253.74 237.632L1226.26 262.122C1223.62 264.444 1223.41 268.508 1225.73 271.147C1228.05 273.786 1232.12 273.998 1234.75 271.675Z" fill="#FF6A52"/>
<path d="M1235.91 264.127L1222.15 241.906L1215.34 245.231L1224.73 270.197C1226.42 273.311 1230.27 274.472 1233.38 272.783C1236.44 271.094 1237.6 267.241 1235.91 264.127Z" fill="#FF6A52"/>
<path d="M1222.2 241.958L1220.09 235.308C1219.35 233.038 1216.92 231.877 1214.71 232.722C1212.6 233.566 1211.54 235.994 1212.44 238.105L1215.45 245.283L1222.2 241.958Z" fill="#EFC59E"/>
<path d="M1216.05 224.397L1214.87 223.882L1226.05 246.744L1226.24 246.26C1226.73 244.97 1226.67 243.533 1226.07 242.291L1218.55 226.798C1218.03 225.725 1217.14 224.873 1216.05 224.397Z" fill="white"/>
<path fill-rule="evenodd" clip-rule="evenodd" d="M1214.19 223.187C1213.56 223.49 1213.3 224.245 1213.6 224.874L1224.34 247.138C1224.64 247.767 1225.4 248.031 1226.03 247.727C1226.65 247.424 1226.92 246.669 1226.61 246.04L1215.88 223.776C1215.58 223.148 1214.82 222.884 1214.19 223.187Z" fill="#002D44"/>
<path d="M1248.05 203.521C1243.4 205.307 1238.4 202.449 1238.04 196.734C1237.69 194.233 1238.69 189.232 1245.54 189.232C1252.4 189.232 1256.98 191.138 1258.4 192.09C1265.83 192.09 1266.98 198.282 1266.62 201.378C1270.91 205.093 1268.41 209.117 1266.62 210.665C1268.76 216.738 1266.26 222.096 1262.69 222.096C1259.83 222.096 1259.83 218.762 1260.19 217.095C1255.62 216.524 1255.19 211.856 1255.55 209.594C1252.76 209.037 1252.46 202.328 1252.67 198.791C1252.53 199.969 1251.48 202.202 1248.05 203.521Z" fill="#B8B6B6"/>
<path d="M1275.19 220.31C1278.05 214.88 1270.43 213.761 1266.26 213.88C1265.67 213.88 1264.48 215.166 1264.48 220.31C1264.48 226.74 1271.62 227.097 1275.19 220.31Z" fill="#B8B6B6"/>
<path fill-rule="evenodd" clip-rule="evenodd" d="M1267.97 214.103C1265.74 216.891 1264.95 220.389 1264.83 221.768L1264.12 221.709C1264.24 220.231 1265.07 216.585 1267.41 213.657L1267.97 214.103Z" fill="#A3E56A"/>
<path d="M18.7997 351.6C13.9968 351.6 10.1387 347.742 10.1387 342.939V215.228C10.1387 210.425 13.9968 206.567 18.7997 206.567C23.6026 206.567 27.4607 210.425 27.4607 215.228V342.939C27.4607 347.663 23.6026 351.6 18.7997 351.6Z" fill="#A35B2B"/>
<path d="M27.8544 244.203H18.7997C17.3037 244.203 16.0439 242.944 16.0439 241.448C16.0439 239.952 17.3037 238.692 18.7997 238.692H27.8544C39.9011 238.692 49.7432 228.85 49.7432 216.803V213.732C49.7432 212.236 51.003 210.977 52.499 210.977C53.995 210.977 55.2548 212.236 55.2548 213.732V216.803C55.2548 231.921 42.9719 244.203 27.8544 244.203Z" fill="#A35B2B"/>
<path d="M18.7996 271.918H18.5634C3.44599 271.918 -8.83691 259.635 -8.83691 244.518V216.803C-8.83691 215.307 -7.57713 214.047 -6.08113 214.047C-4.58514 214.047 -3.32535 215.307 -3.32535 216.803V244.518C-3.32535 256.565 6.51672 266.407 18.5634 266.407H18.7996C20.2956 266.407 21.5554 267.667 21.5554 269.163C21.5554 270.659 20.3744 271.918 18.7996 271.918Z" fill="#A35B2B"/>
<path d="M83.1272 141.578H74.0725V127.016C74.0725 111.584 61.6321 99 46.1997 99H0.375023C-14.9786 99 -27.4978 111.504 -27.4978 127.016H-38.2847C-53.5596 127.016 -66 139.521 -66 154.874V160.097C-66 175.451 -53.5596 187.955 -38.2847 187.955C-38.2847 204.021 -25.3719 217 -9.38834 217H12.5004H35.3341H59.6637C67.3799 217 73.6001 210.748 73.6001 202.992H83.1272C98.4809 202.992 111 190.488 111 174.976V169.515C111 154.083 98.5596 141.578 83.1272 141.578Z" fill="#7AC142"/>
<path fill-rule="evenodd" clip-rule="evenodd" d="M92.5 335C98.299 335 103 339.731 103 345.566V380.434C103 386.269 98.299 391 92.5 391C86.701 391 82 386.269 82 380.434V345.566C82 339.731 86.701 335 92.5 335Z" fill="#A35B2B"/>
<path d="M87.985 224.169C90.0238 219.944 95.9762 219.944 98.015 224.169L118.642 266.923C119.773 269.267 118.086 272 115.508 272H70.4923C67.914 272 66.2269 269.267 67.3579 266.923L87.985 224.169Z" fill="#249B29"/>
<path d="M92.5 233L127.587 299.789C128.831 302.157 127.116 305 124.444 305H60.5557C57.884 305 56.1693 302.157 57.4131 299.789L92.5 233Z" fill="#249B29"/>
<path d="M92.5 246L143.62 347.872C144.802 350.228 143.083 353 140.44 353H44.5604C41.9171 353 40.1978 350.228 41.38 347.872L92.5 246Z" fill="#249B29"/>
<path d="M1604.36 213H1475.84H1449.01C1441.81 213 1436 214.832 1436 217.144V395H1644V217.144C1644 214.876 1638.19 213 1630.99 213H1604.36Z" fill="#60C3EF"/>
<path d="M1630.1 0H1488.2C1482.6 0 1478 4.49995 1478 10.2V409.5C1478 415.1 1482.5 419.7 1488.2 419.7H1630.1C1635.7 419.7 1640.3 415.2 1640.3 409.5V10.2C1640.3 4.59995 1635.7 0 1630.1 0Z" fill="#007AB7"/>
<path d="M1528.5 64.6002H1514.9C1508.9 64.6002 1504 59.7002 1504 53.7002V40.1002C1504 34.1002 1508.9 29.2002 1514.9 29.2002H1528.5C1534.5 29.2002 1539.4 34.1002 1539.4 40.1002V53.7002C1539.3 59.8002 1534.5 64.6002 1528.5 64.6002Z" fill="#7AC142"/>
<path d="M1600.3 64.6002H1586.7C1580.7 64.6002 1575.8 59.7002 1575.8 53.7002V40.1002C1575.8 34.1002 1580.7 29.2002 1586.7 29.2002H1600.3C1606.3 29.2002 1611.2 34.1002 1611.2 40.1002V53.7002C1611.1 59.8002 1606.3 64.6002 1600.3 64.6002Z" fill="#7AC142"/>
<path d="M1528.5 130.3H1514.9C1508.9 130.3 1504 125.4 1504 119.4V105.8C1504 99.8004 1508.9 94.9004 1514.9 94.9004H1528.5C1534.5 94.9004 1539.4 99.8004 1539.4 105.8V119.4C1539.3 125.5 1534.5 130.3 1528.5 130.3Z" fill="#7AC142"/>
<path d="M1600.3 130.3H1586.7C1580.7 130.3 1575.8 125.4 1575.8 119.4V105.8C1575.8 99.8004 1580.7 94.9004 1586.7 94.9004H1600.3C1606.3 94.9004 1611.2 99.8004 1611.2 105.8V119.4C1611.1 125.5 1606.3 130.3 1600.3 130.3Z" fill="#7AC142"/>
<path d="M1528.5 196.1H1514.9C1508.9 196.1 1504 191.2 1504 185.2V171.6C1504 165.6 1508.9 160.7 1514.9 160.7H1528.5C1534.5 160.7 1539.4 165.6 1539.4 171.6V185.2C1539.3 191.2 1534.5 196.1 1528.5 196.1Z" fill="#7AC142"/>
<path d="M1600.3 196.1H1586.7C1580.7 196.1 1575.8 191.2 1575.8 185.2V171.6C1575.8 165.6 1580.7 160.7 1586.7 160.7H1600.3C1606.3 160.7 1611.2 165.6 1611.2 171.6V185.2C1611.1 191.2 1606.3 196.1 1600.3 196.1Z" fill="#7AC142"/>
<path d="M1528.5 261.8H1514.9C1508.9 261.8 1504 256.9 1504 250.9V237.2C1504 231.2 1508.9 226.3 1514.9 226.3H1528.5C1534.5 226.3 1539.4 231.2 1539.4 237.2V250.8C1539.3 256.9 1534.5 261.8 1528.5 261.8Z" fill="#7AC142"/>
<path d="M1600.3 261.8H1586.7C1580.7 261.8 1575.8 256.9 1575.8 250.9V237.2C1575.8 231.2 1580.7 226.3 1586.7 226.3H1600.3C1606.3 226.3 1611.2 231.2 1611.2 237.2V250.8C1611.1 256.9 1606.3 261.8 1600.3 261.8Z" fill="#7AC142"/>
<path d="M1528.5 327.501H1514.9C1508.9 327.501 1504 322.601 1504 316.601V303.001C1504 297.001 1508.9 292.101 1514.9 292.101H1528.5C1534.5 292.101 1539.4 297.001 1539.4 303.001V316.601C1539.3 322.601 1534.5 327.501 1528.5 327.501Z" fill="#7AC142"/>
<path d="M1600.3 327.501H1586.7C1580.7 327.501 1575.8 322.601 1575.8 316.601V303.001C1575.8 297.001 1580.7 292.101 1586.7 292.101H1600.3C1606.3 292.101 1611.2 297.001 1611.2 303.001V316.601C1611.1 322.601 1606.3 327.501 1600.3 327.501Z" fill="#7AC142"/>
</g>
<defs>
<linearGradient id="paint0_linear" x1="1041.93" y1="284.12" x2="1041.93" y2="426.226" gradientUnits="userSpaceOnUse">
<stop stop-color="#A3E56A"/>
<stop offset="1" stop-color="#7AC142"/>
</linearGradient>
<linearGradient id="paint1_linear" x1="1040.63" y1="217.866" x2="1040.63" y2="303.891" gradientUnits="userSpaceOnUse">
<stop stop-color="#0069AA"/>
<stop offset="1" stop-color="#045D95"/>
</linearGradient>
<radialGradient id="paint2_radial" cx="0" cy="0" r="1" gradientUnits="userSpaceOnUse" gradientTransform="translate(1183.56 141.273) rotate(103.904) scale(17.5035 14.2885)">
<stop stop-color="#FEFFD7"/>
<stop offset="1" stop-color="#FCFF76"/>
</radialGradient>
<clipPath id="clip0">
<rect width="1600" height="468" fill="white"/>
</clipPath>
</defs>
</svg>
