<svg xmlns="http://www.w3.org/2000/svg" width="351.86" height="195.94" viewBox="0 0 351.86 195.94"><title>Reward</title><g id="Layer_2" data-name="Layer 2"><g id="Layer_1-2" data-name="Layer 1"><polygon points="87.7 91.32 87.7 176.33 242.85 176.33 242.85 91.79 164.4 41.23 87.7 91.32" style="fill:#bfd3dd"/><rect y="153.62" width="274.51" height="42.32" rx="19.71" style="fill:#0069aa;opacity:0.1"/><text transform="translate(93.98 120.62) rotate(-20.59)" style="font-size:115.89248657226562px;fill:#7ac142;font-family:Montserrat-SemiBold, Montserrat;font-weight:600">$</text><text transform="translate(177.49 99.76) rotate(17.3)" style="font-size:93.69843292236328px;fill:#7ac142;font-family:Montserrat-SemiBold, Montserrat;font-weight:600">$</text><rect x="132.26" y="39.43" width="64.32" height="98.5" rx="8.12" transform="translate(29.12 -40.13) rotate(15.25)" style="fill:#00559b"/><path d="M166.36,73.21c.21,9.19-6.07,17-12.61,13.66-8.89-4.52-.78-17.07,4.05-15.75S166.36,73.21,166.36,73.21Z" style="fill:none;stroke:#7ac142;stroke-linecap:round;stroke-miterlimit:10;stroke-width:4.32781116207892px"/><path d="M166.27,73.54c4.85-7.82,3.39-17.72-3.93-18.18-10-.61-9.33,14.31-4.51,15.63S166.27,73.54,166.27,73.54Z" style="fill:none;stroke:#7ac142;stroke-linecap:round;stroke-miterlimit:10;stroke-width:4.32781116207892px"/><line x1="168.68" y1="74.64" x2="174.14" y2="83.66" style="fill:none;stroke:#7ac142;stroke-linecap:round;stroke-miterlimit:10;stroke-width:4.32781116207892px"/><line x1="168.9" y1="73.84" x2="178.18" y2="68.84" style="fill:none;stroke:#7ac142;stroke-linecap:round;stroke-miterlimit:10;stroke-width:4.32781116207892px"/><line x1="148.61" y1="68.52" x2="140.8" y2="66.39" style="fill:none;stroke:#7ac142;stroke-linecap:round;stroke-miterlimit:10;stroke-width:4.32781116207892px"/><line x1="195.25" y1="81.23" x2="176.67" y2="76.17" style="fill:none;stroke:#7ac142;stroke-linecap:round;stroke-miterlimit:10;stroke-width:4.32781116207892px"/><line x1="164.02" y1="49.41" x2="165.98" y2="42.21" style="fill:none;stroke:#7ac142;stroke-linecap:round;stroke-miterlimit:10;stroke-width:4.32781116207892px"/><line x1="142.35" y1="128.86" x2="152.02" y2="93.41" style="fill:none;stroke:#7ac142;stroke-linecap:round;stroke-miterlimit:10;stroke-width:4.32781116207892px"/><circle cx="174.64" cy="130.01" r="1.91" style="fill:#7ac142"/><circle cx="176.81" cy="122.04" r="1.91" style="fill:#7ac142"/><circle cx="178.98" cy="114.07" r="1.91" style="fill:#7ac142"/><circle cx="181.15" cy="106.1" r="1.91" style="fill:#7ac142"/><circle cx="183.33" cy="98.14" r="1.91" style="fill:#7ac142"/><path d="M87.19,91.32v85H242.34V91.79l-69.7,33.57a18.25,18.25,0,0,1-15.93,0Z" style="fill:#027dba"/><path d="M98,176.33l49.78-45.28a15.33,15.33,0,0,1,11.91-5.68h13.37A15.32,15.32,0,0,1,185,131l44.84,45.6Z" style="fill:#0069aa"/><rect x="70.18" y="64.34" width="5.11" height="16.85" rx="2.55" transform="translate(-23.12 35.39) rotate(-23.71)" style="fill:#0069aa;opacity:0.1"/><rect x="154.45" y="20.42" width="5.11" height="16.85" rx="2.55" transform="translate(2.41 -10.95) rotate(4.03)" style="fill:#0069aa;opacity:0.1"/><rect x="189.02" y="28.33" width="3.78" height="12.47" rx="1.89" transform="translate(2.9 -13.32) rotate(4.03)" style="fill:#0069aa;opacity:0.1"/><rect x="257.45" y="57.44" width="3.78" height="12.47" rx="1.89" transform="translate(120.98 -164.73) rotate(45)" style="fill:#0069aa;opacity:0.1"/><rect x="125.34" y="-0.51" width="3.78" height="12.47" rx="1.89" transform="translate(12.09 60.15) rotate(-27.88)" style="fill:#0069aa;opacity:0.1"/><rect x="209.6" y="6.63" width="5.11" height="16.85" rx="2.55" transform="translate(7.68 73.59) rotate(-20.03)" style="fill:#0069aa;opacity:0.1"/><rect x="234.63" y="21.44" width="5.11" height="16.85" rx="2.55" transform="translate(90.59 -158.96) rotate(45)" style="fill:#0069aa;opacity:0.1"/><circle cx="304" cy="174.92" r="14.98" style="fill:#0069aa;opacity:0.1"/><circle cx="341" cy="174.92" r="10.86" style="fill:#0069aa;opacity:0.1"/></g></g></svg>