<svg width="372" height="271" viewBox="0 0 372 271" fill="none" xmlns="http://www.w3.org/2000/svg">
<path opacity="0.3" d="M345.568 270.718H50.4319C35.8125 270.718 24 259.821 24 246.335V243.476C24 229.99 35.8125 219.093 50.4319 219.093H345.568C360.187 219.093 372 229.99 372 243.476V246.335C372 259.821 360.187 270.718 345.568 270.718Z" fill="#7AC142"/>
<path d="M129.885 76.7333C124.005 76.7333 119.204 71.9322 119.204 66.0523V59.2552C119.204 53.3753 124.005 48.5742 129.885 48.5742C135.765 48.5742 140.566 53.3753 140.566 59.2552V66.0523C140.566 71.9322 135.765 76.7333 129.885 76.7333Z" fill="#E8BB8B"/>
<path d="M136.304 112.282L114.241 92.6465C112.137 90.7584 111.922 87.5217 113.81 85.4179C115.698 83.314 118.934 83.0983 121.038 84.9863L143.101 104.622C145.205 106.51 145.421 109.747 143.533 111.851C141.645 113.955 138.408 114.116 136.304 112.282Z" fill="#FC857A"/>
<path d="M150.222 136.989L148.981 142.437C148.55 144.272 146.662 145.404 144.828 144.865C143.047 144.326 142.076 142.491 142.616 140.711L144.504 134.777L150.222 136.989Z" fill="#E8BB8B"/>
<path d="M111.706 137.529L112.785 143.032C113.162 144.866 111.867 146.646 109.979 146.916C108.145 147.131 106.473 145.837 106.311 144.003L105.664 137.799L111.706 137.529Z" fill="#E8BB8B"/>
<path d="M157.99 104.298C160.364 105.108 161.551 107.697 160.687 110.017L150.168 137.366L144.073 135.263L152.434 107.211C153.081 104.784 155.617 103.489 157.99 104.298Z" fill="#7AC142"/>
<path d="M104.963 104.083C107.444 103.813 109.656 105.647 109.818 108.129L111.868 137.367L105.448 138.068L101.133 109.1C100.755 106.618 102.481 104.353 104.963 104.083Z" fill="#7AC142"/>
<path d="M145.691 136.181L146.176 234.629C146.122 237.273 143.965 239.377 141.321 239.377H140.027C137.491 239.377 135.387 237.381 135.226 234.845L130.964 158.568C130.964 158.298 130.694 158.082 130.425 158.082C130.155 158.082 129.885 158.298 129.885 158.622L127.997 234.899C127.943 237.542 125.785 239.646 123.142 239.646H121.362C118.827 239.646 116.669 237.65 116.561 235.115L114.403 137.314L145.691 136.181Z" fill="#079BD6"/>
<path d="M160.741 106.726L149.413 87.1984C147.417 83.0986 143.209 80.5093 138.624 80.4553L121.2 80.4014C116.291 80.4014 111.868 83.3144 110.033 87.8457L101.348 105.863C100.377 108.183 101.51 110.826 103.83 111.797C106.149 112.768 108.793 111.635 109.764 109.316L113.54 103.166L113.864 138.23C113.917 140.172 115.482 141.682 117.424 141.682H142.184C144.126 141.682 145.691 140.118 145.745 138.23L146.122 100.199L152.542 110.718C153.675 112.984 156.372 113.901 158.637 112.822C160.957 111.689 161.874 108.938 160.741 106.726Z" fill="#7AC142"/>
<path d="M198.125 76.7333C192.245 76.7333 187.444 71.9322 187.444 66.0523V59.2552C187.444 53.3753 192.245 48.5742 198.125 48.5742C204.005 48.5742 208.806 53.3753 208.806 59.2552V66.0523C208.86 71.9322 204.059 76.7333 198.125 76.7333Z" fill="#A3785A"/>
<path d="M204.598 112.282L182.535 92.6465C180.431 90.7584 180.215 87.5217 182.104 85.4179C183.992 83.314 187.228 83.0983 189.332 84.9863L211.395 104.622C213.499 106.51 213.715 109.747 211.827 111.851C209.939 113.955 206.702 114.116 204.598 112.282Z" fill="#FC857A"/>
<path d="M226.284 138.284L226.985 143.84C227.201 145.728 225.799 147.4 223.91 147.508C222.076 147.616 220.512 146.214 220.458 144.379L220.242 138.176L226.284 138.284Z" fill="#A3785A"/>
<path d="M172.285 139.524L171.045 144.973C170.613 146.807 168.725 147.94 166.891 147.4C165.111 146.861 164.14 145.027 164.679 143.246L166.567 137.312L172.285 139.524Z" fill="#8C6449"/>
<path d="M222.4 104.893C224.881 104.839 226.931 106.889 226.877 109.37L226.284 138.662L219.865 138.77L218.138 109.532C217.977 107.05 219.919 104.947 222.4 104.893Z" fill="#FF6A52"/>
<path d="M179.676 106.187C182.049 106.942 183.29 109.531 182.481 111.851L172.501 139.417L166.352 137.475L174.12 109.262C174.767 106.78 177.302 105.432 179.676 106.187Z" fill="#FF6A52"/>
<path d="M213.985 136.181L214.47 234.629C214.416 237.273 212.258 239.377 209.615 239.377H208.32C205.785 239.377 203.681 237.381 203.519 234.845L199.258 158.568C199.258 158.298 198.988 158.082 198.718 158.082C198.449 158.082 198.179 158.298 198.179 158.622L196.291 234.899C196.237 237.542 194.079 239.646 191.436 239.646H189.656C187.12 239.646 184.962 237.65 184.855 235.115L182.697 137.314L213.985 136.181Z" fill="#079BD6"/>
<path d="M226.5 107.536L215.171 87.1447C213.175 83.0449 208.968 80.4555 204.382 80.4016L192.029 80.3477C187.12 80.3477 182.265 83.2607 180.431 87.792L174.174 107.859C173.203 110.179 174.335 112.822 176.655 113.793C178.975 114.764 181.618 113.631 182.589 111.312L183.56 107.59L181.348 146.861C181.402 148.803 182.966 150.314 184.909 150.314H211.395C213.337 150.314 214.902 148.749 214.956 146.861L212.744 102.195L218.354 111.474C219.487 113.739 222.184 114.656 224.45 113.578C226.716 112.553 227.633 109.801 226.5 107.536Z" fill="#FF6A52"/>
<path d="M206.54 48.5743C209.238 50.0847 211.288 52.728 211.018 56.0187C211.072 55.3174 213.553 58.608 213.661 58.8238C214.848 61.0894 213.931 64.1643 211.665 65.405C218.894 67.5089 211.773 78.7833 206.972 73.9822C205.461 72.4717 207.296 69.0193 207.242 66.9694C207.134 61.6289 204.275 56.9357 200.93 52.9438C199.905 51.7031 196.183 49.0059 198.179 47.7112C200.283 46.3626 204.221 47.3875 206.163 48.4125C206.325 48.4664 206.432 48.5204 206.54 48.5743Z" fill="#01527A"/>
<path d="M191.112 47.1176C188.846 47.4952 186.743 49.653 187.336 51.8108C185.879 52.0266 184.531 53.1594 184.153 54.6159C183.722 56.0724 184.261 57.6908 185.394 58.6618C183.614 58.8236 182.049 60.1722 181.618 61.8984C181.186 63.6247 181.942 65.5667 183.398 66.5377C181.672 68.4257 180.863 71.2848 181.995 73.6044C183.128 75.924 186.311 77.0569 188.361 75.6004C189.979 74.4136 190.411 72.1479 190.087 70.1519C189.763 68.156 188.954 66.3219 188.523 64.3799C187.768 60.9814 188.415 57.3671 190.249 54.4001C191.652 52.1884 195.212 48.8978 197.963 48.8438C197.801 48.8438 195.751 47.3873 195.05 47.2255C193.755 47.0097 192.407 46.9018 191.112 47.1176Z" fill="#01527A"/>
<path d="M190.842 51.5406C190.141 53.3208 189.817 55.3167 188.631 56.8272C193.432 56.9351 198.071 53.4287 199.258 48.7895C199.258 48.7355 194.78 48.0342 194.241 48.1421C192.569 48.5737 191.436 50.0302 190.842 51.5406Z" fill="#01527A"/>
<path d="M133.985 51.9187C134.74 54.6159 136.305 57.0974 138.462 58.9315C139.056 59.417 139.865 59.9025 140.512 59.5788C141.321 59.2012 141.375 58.1223 141.213 57.2592C140.512 53.2673 137.545 49.7609 133.769 48.3584C129.939 46.9558 125.462 47.711 122.333 50.3004C120.337 51.9187 115.913 58.4999 118.88 60.8735C121.632 63.0852 127.727 59.417 129.831 57.6368C131.611 56.1264 133.122 54.1304 133.985 51.9187Z" fill="#E5B01C"/>
<path d="M150.166 10.5652H153.702C153.651 7.45437 151.095 5.30664 147.208 5.30664C143.381 5.30664 140.577 7.42028 140.595 10.5907C140.586 13.1646 142.401 14.639 145.35 15.3464L147.251 15.8237C149.151 16.2839 150.208 16.8294 150.217 18.0055C150.208 19.2839 148.998 20.1532 147.123 20.1532C145.205 20.1532 143.825 19.2669 143.705 17.5197H140.134C140.228 21.2953 142.93 23.247 147.166 23.247C151.427 23.247 153.933 21.21 153.941 18.014C153.933 15.1078 151.742 13.5652 148.708 12.8833L147.14 12.5083C145.623 12.1589 144.353 11.5964 144.379 10.3436C144.379 9.21857 145.376 8.39187 147.183 8.39187C148.947 8.39187 150.029 9.193 150.166 10.5652Z" fill="#002D44"/>
<path d="M162.321 23.2555C165.56 23.2555 167.742 21.6788 168.253 19.2498L164.895 19.0282C164.528 20.0254 163.591 20.5453 162.381 20.5453C160.565 20.5453 159.415 19.3436 159.415 17.3919V17.3833H168.33V16.3862C168.33 11.9373 165.636 9.73846 162.176 9.73846C158.324 9.73846 155.827 12.4743 155.827 16.514C155.827 20.6646 158.29 23.2555 162.321 23.2555ZM159.415 15.1333C159.492 13.6419 160.625 12.4487 162.236 12.4487C163.813 12.4487 164.903 13.5737 164.912 15.1333H159.415Z" fill="#002D44"/>
<path d="M173.522 9.90891H169.772L173.522 16.4544L169.636 22.9998H173.386L175.925 18.4743L178.508 22.9998H182.215L178.32 16.4544L182.113 9.90891H178.389L175.925 14.4856L173.522 9.90891Z" fill="#002D44"/>
<path d="M31.4163 160.932H39.7941V164H43.3225V160.932H45.4873V157.975H43.3225V146.546H38.7032L31.4163 158.026V160.932ZM39.8623 157.975H35.1322V157.838L39.7259 150.568H39.8623V157.975Z" fill="#004F7F"/>
<path d="M54.2614 146.307C50.358 146.29 47.7245 148.847 47.7415 152.358C47.7501 155.614 50.0086 157.975 53.1023 157.975C55.02 157.975 56.7245 157.046 57.5001 155.511H57.6194C57.6109 158.972 56.4092 161.077 54.1336 161.077C52.7955 161.077 51.8325 160.344 51.5512 159.074H47.912C48.2529 162.014 50.6393 164.239 54.1336 164.239C58.4546 164.239 61.2415 160.744 61.233 154.821C61.2245 148.497 57.8495 146.324 54.2614 146.307ZM54.287 149.205C55.983 149.205 57.2359 150.585 57.2529 152.247C57.2614 153.918 55.9404 155.298 54.2529 155.298C52.5484 155.298 51.3296 153.969 51.3211 152.256C51.304 150.551 52.5739 149.205 54.287 149.205Z" fill="#004F7F"/>
<path d="M73.3438 160.727C73.3523 162.824 74.6904 164.605 77.1876 164.605C79.6592 164.605 81.0398 162.824 81.0313 160.727V159.807C81.0398 157.693 79.6933 155.929 77.1876 155.929C74.7245 155.929 73.3523 157.71 73.3438 159.807V160.727ZM64.3864 150.739C64.395 152.835 65.733 154.6 68.2217 154.6C70.7018 154.6 72.0825 152.852 72.0739 150.739V149.818C72.0825 147.705 70.7359 145.94 68.2217 145.94C65.7842 145.94 64.395 147.705 64.3864 149.818V150.739ZM65.2217 164H67.4461L79.4461 146.546H77.2217L65.2217 164ZM75.8239 159.807C75.8325 158.972 76.1648 158.111 77.1876 158.111C78.2614 158.111 78.5427 158.972 78.5342 159.807V160.727C78.5427 161.563 78.2273 162.406 77.1876 162.406C76.1478 162.406 75.8325 161.537 75.8239 160.727V159.807ZM66.8836 149.818C66.8921 149.009 67.2075 148.122 68.2217 148.122C69.2955 148.122 69.5853 148.983 69.5768 149.818V150.739C69.5853 151.574 69.2614 152.418 68.2217 152.418C67.216 152.418 66.8921 151.574 66.8836 150.739V149.818Z" fill="#004F7F"/>
<path d="M51.5029 176.363V188H52.8211V179.159H52.9347L56.5711 188H57.8438L61.4802 179.159H61.5938V188H62.912V176.363H61.2302L57.2757 186.022H57.1393L53.1847 176.363H51.5029Z" fill="#004F7F"/>
<path d="M69.2146 188.181C70.9873 188.181 72.2828 187.295 72.6919 185.977L71.3964 185.613C71.0555 186.522 70.2657 186.977 69.2146 186.977C67.6407 186.977 66.5555 185.96 66.493 184.091H72.8282V183.522C72.8282 180.272 70.8964 179.159 69.0782 179.159C66.7146 179.159 65.1464 181.022 65.1464 183.704C65.1464 186.386 66.6919 188.181 69.2146 188.181ZM66.493 182.931C66.5839 181.574 67.5441 180.363 69.0782 180.363C70.5328 180.363 71.4646 181.454 71.4646 182.931H66.493Z" fill="#004F7F"/>
<path d="M76.2089 182.75C76.2089 181.227 77.1521 180.363 78.4362 180.363C79.6805 180.363 80.4362 181.176 80.4362 182.545V188H81.7771V182.454C81.7771 180.227 80.5896 179.159 78.8225 179.159C77.5043 179.159 76.6862 179.75 76.2771 180.636H76.1634V179.272H74.868V188H76.2089V182.75Z" fill="#004F7F"/>
<path d="M248.79 164.239C252.676 164.239 255.318 161.707 255.31 158.179C255.318 154.838 252.983 152.435 249.838 152.435C248.304 152.435 246.983 153.074 246.369 153.935H246.267L246.719 149.563H254.347V146.546H243.676L242.849 155.75L246.131 156.338C246.668 155.614 247.707 155.162 248.739 155.162C250.494 155.171 251.756 156.44 251.756 158.273C251.756 160.088 250.52 161.341 248.79 161.341C247.324 161.341 246.139 160.421 246.054 159.065H242.474C242.543 162.082 245.176 164.239 248.79 164.239Z" fill="#004F7F"/>
<path d="M265.477 146.546H262.008L257.687 149.281V152.554L261.685 150.048H261.787V164H265.477V146.546Z" fill="#004F7F"/>
<path d="M279.18 160.727C279.188 162.824 280.526 164.605 283.023 164.605C285.495 164.605 286.876 162.824 286.867 160.727V159.807C286.876 157.693 285.529 155.929 283.023 155.929C280.56 155.929 279.188 157.71 279.18 159.807V160.727ZM270.222 150.739C270.231 152.835 271.569 154.6 274.057 154.6C276.538 154.6 277.918 152.852 277.91 150.739V149.818C277.918 147.705 276.572 145.94 274.057 145.94C271.62 145.94 270.231 147.705 270.222 149.818V150.739ZM271.057 164H273.282L285.282 146.546H283.057L271.057 164ZM281.66 159.807C281.668 158.972 282.001 158.111 283.023 158.111C284.097 158.111 284.378 158.972 284.37 159.807V160.727C284.378 161.563 284.063 162.406 283.023 162.406C281.984 162.406 281.668 161.537 281.66 160.727V159.807ZM272.719 149.818C272.728 149.009 273.043 148.122 274.057 148.122C275.131 148.122 275.421 148.983 275.413 149.818V150.739C275.421 151.574 275.097 152.418 274.057 152.418C273.052 152.418 272.728 151.574 272.719 150.739V149.818Z" fill="#004F7F"/>
<path d="M244.523 188H245.977L248.545 178.727H248.636L251.204 188H252.659L255.841 176.363H254.409L251.977 185.841H251.864L249.386 176.363H247.795L245.318 185.841H245.204L242.773 176.363H241.341L244.523 188Z" fill="#004F7F"/>
<path d="M260.148 188.181C262.511 188.181 264.102 186.386 264.102 183.681C264.102 180.954 262.511 179.159 260.148 179.159C257.784 179.159 256.193 180.954 256.193 183.681C256.193 186.386 257.784 188.181 260.148 188.181ZM260.148 186.977C258.352 186.977 257.534 185.431 257.534 183.681C257.534 181.931 258.352 180.363 260.148 180.363C261.943 180.363 262.761 181.931 262.761 183.681C262.761 185.431 261.943 186.977 260.148 186.977Z" fill="#004F7F"/>
<path d="M266.149 188H267.49V182.545C267.49 181.267 268.422 180.363 269.467 180.363C270.484 180.363 271.195 181.028 271.195 182.022V188H272.558V182.318C272.558 181.193 273.263 180.363 274.49 180.363C275.445 180.363 276.263 180.869 276.263 182.159V188H277.604V182.159C277.604 180.108 276.501 179.159 274.945 179.159C273.695 179.159 272.78 179.733 272.331 180.636H272.24C271.808 179.704 271.047 179.159 269.899 179.159C268.763 179.159 267.922 179.704 267.558 180.636H267.445V179.272H266.149V188Z" fill="#004F7F"/>
<path d="M283.714 188.181C285.487 188.181 286.783 187.295 287.192 185.977L285.896 185.613C285.555 186.522 284.766 186.977 283.714 186.977C282.141 186.977 281.055 185.96 280.993 184.091H287.328V183.522C287.328 180.272 285.396 179.159 283.578 179.159C281.214 179.159 279.646 181.022 279.646 183.704C279.646 186.386 281.192 188.181 283.714 188.181ZM280.993 182.931C281.084 181.574 282.044 180.363 283.578 180.363C285.033 180.363 285.964 181.454 285.964 182.931H280.993Z" fill="#004F7F"/>
<path d="M290.709 182.75C290.709 181.227 291.652 180.363 292.936 180.363C294.18 180.363 294.936 181.176 294.936 182.545V188H296.277V182.454C296.277 180.227 295.089 179.159 293.322 179.159C292.004 179.159 291.186 179.75 290.777 180.636H290.663V179.272H289.368V188H290.709V182.75Z" fill="#004F7F"/>
</svg>
