<svg width="545" height="416" viewBox="0 0 545 416" fill="none" xmlns="http://www.w3.org/2000/svg">
<path opacity="0.3" d="M550.6 415.7H45.9C20.9 415.7 0.699951 395.5 0.699951 370.5V365.2C0.699951 340.2 20.9 320 45.9 320H550.6C575.6 320 595.8 340.2 595.8 365.2V370.5C595.8 395.5 575.6 415.7 550.6 415.7Z" fill="#7AC142"/>
<path d="M167.1 56.0999C156.2 56.0999 147.3 47.1999 147.3 36.2999V23.6999C147.3 12.7999 156.2 3.8999 167.1 3.8999C178 3.8999 186.9 12.7999 186.9 23.6999V36.2999C186.9 47.1999 178 56.0999 167.1 56.0999Z" fill="#E8BB8B"/>
<path d="M179 122L138.1 85.6001C134.2 82.1001 133.8 76.1001 137.3 72.2001C140.8 68.3001 146.8 67.9 150.7 71.4L191.6 107.8C195.5 111.3 195.9 117.3 192.4 121.2C188.9 125.1 182.9 125.4 179 122Z" fill="#FC857A"/>
<path d="M204.8 167.8L202.5 177.9C201.7 181.3 198.2 183.4 194.8 182.4C191.5 181.4 189.7 178 190.7 174.7L194.2 163.7L204.8 167.8Z" fill="#E8BB8B"/>
<path d="M133.4 168.8L135.4 179C136.1 182.4 133.7 185.7 130.2 186.2C126.8 186.6 123.7 184.2 123.4 180.8L122.2 169.3L133.4 168.8Z" fill="#E8BB8B"/>
<path d="M219.2 107.2C223.6 108.7 225.8 113.5 224.2 117.8L204.7 168.5L193.4 164.6L208.9 112.6C210.1 108.1 214.8 105.7 219.2 107.2Z" fill="#7AC142"/>
<path d="M120.9 106.8C125.5 106.3 129.6 109.7 129.9 114.3L133.7 168.5L121.8 169.8L113.8 116.1C113.1 111.5 116.3 107.3 120.9 106.8Z" fill="#7AC142"/>
<path d="M196.4 166.3L197.3 348.8C197.2 353.7 193.2 357.6 188.3 357.6H185.9C181.2 357.6 177.3 353.9 177 349.2L169.1 207.8C169.1 207.3 168.6 206.9 168.1 206.9C167.6 206.9 167.1 207.3 167.1 207.9L163.6 349.3C163.5 354.2 159.5 358.1 154.6 358.1H151.3C146.6 358.1 142.6 354.4 142.4 349.7L138.4 168.4L196.4 166.3Z" fill="#079BD6"/>
<path d="M224.3 111.7L203.3 75.4999C199.6 67.8999 191.8 63.0999 183.3 62.9999L151 62.8999C141.9 62.8999 133.7 68.2999 130.3 76.6999L114.2 110.1C112.4 114.4 114.5 119.3 118.8 121.1C123.1 122.9 128 120.8 129.8 116.5L136.8 105.1L137.4 170.1C137.5 173.7 140.4 176.5 144 176.5H189.9C193.5 176.5 196.4 173.6 196.5 170.1L197.2 99.5999L209.1 119.1C211.2 123.3 216.2 125 220.4 123C224.7 120.9 226.4 115.8 224.3 111.7Z" fill="#7AC142"/>
<path d="M293.6 56.0999C282.7 56.0999 273.8 47.1999 273.8 36.2999V23.6999C273.8 12.7999 282.7 3.8999 293.6 3.8999C304.5 3.8999 313.4 12.7999 313.4 23.6999V36.2999C313.5 47.1999 304.6 56.0999 293.6 56.0999Z" fill="#A3785A"/>
<path d="M305.6 122L264.7 85.6001C260.8 82.1001 260.4 76.1001 263.9 72.2001C267.4 68.3001 273.4 67.9 277.3 71.4L318.2 107.8C322.1 111.3 322.5 117.3 319 121.2C315.5 125.1 309.5 125.4 305.6 122Z" fill="#FC857A"/>
<path d="M345.8 170.2L347.1 180.5C347.5 184 344.9 187.1 341.4 187.3C338 187.5 335.1 184.9 335 181.5L334.6 170L345.8 170.2Z" fill="#A3785A"/>
<path d="M245.7 172.5L243.4 182.6C242.6 186 239.1 188.1 235.7 187.1C232.4 186.1 230.6 182.7 231.6 179.4L235.1 168.4L245.7 172.5Z" fill="#8C6449"/>
<path d="M338.6 108.3C343.2 108.2 347 112 346.9 116.6L345.8 170.9L333.9 171.1L330.7 116.9C330.4 112.3 334 108.4 338.6 108.3Z" fill="#FF6A52"/>
<path d="M259.4 110.7C263.8 112.1 266.1 116.9 264.6 121.2L246.1 172.3L234.7 168.7L249.1 116.4C250.3 111.8 255 109.3 259.4 110.7Z" fill="#FF6A52"/>
<path d="M323 166.3L323.9 348.8C323.8 353.7 319.8 357.6 314.9 357.6H312.5C307.8 357.6 303.9 353.9 303.6 349.2L295.7 207.8C295.7 207.3 295.2 206.9 294.7 206.9C294.2 206.9 293.7 207.3 293.7 207.9L290.2 349.3C290.1 354.2 286.1 358.1 281.2 358.1H277.9C273.2 358.1 269.2 354.4 269 349.7L265 168.4L323 166.3Z" fill="#079BD6"/>
<path d="M346.2 113.2L325.2 75.4001C321.5 67.8001 313.7 63.0001 305.2 62.9001L282.3 62.8C273.2 62.8 264.2 68.2001 260.8 76.6001L249.2 113.8C247.4 118.1 249.5 123 253.8 124.8C258.1 126.6 263 124.5 264.8 120.2L266.6 113.3L262.5 186.1C262.6 189.7 265.5 192.5 269.1 192.5H318.2C321.8 192.5 324.7 189.6 324.8 186.1L320.7 103.3L331.1 120.5C333.2 124.7 338.2 126.4 342.4 124.4C346.6 122.5 348.3 117.4 346.2 113.2Z" fill="#FF6A52"/>
<path d="M309.2 3.89986C314.2 6.69986 318 11.5999 317.5 17.6999C317.6 16.3999 322.2 22.4999 322.4 22.8999C324.6 27.0999 322.9 32.7999 318.7 35.0999C332.1 38.9999 318.9 59.8999 310 50.9999C307.2 48.1999 310.6 41.7999 310.5 37.9999C310.3 28.0999 305 19.3999 298.8 11.9999C296.9 9.69987 290 4.69987 293.7 2.29987C297.6 -0.200128 304.9 1.69987 308.5 3.59987C308.8 3.69987 309 3.79986 309.2 3.89986Z" fill="#01527A"/>
<path d="M280.6 1.19997C276.4 1.89997 272.5 5.89997 273.6 9.89997C270.9 10.3 268.4 12.4 267.7 15.1C266.9 17.8 267.9 20.8 270 22.6C266.7 22.9 263.8 25.4 263 28.6C262.2 31.8 263.6 35.4 266.3 37.2C263.1 40.7 261.6 46 263.7 50.3C265.8 54.6 271.7 56.7 275.5 54C278.5 51.8 279.3 47.6 278.7 43.9C278.1 40.2 276.6 36.8 275.8 33.2C274.4 26.9 275.6 20.2 279 14.7C281.6 10.6 288.2 4.49997 293.3 4.39997C293 4.39997 289.2 1.69997 287.9 1.39997C285.5 0.999966 283 0.799969 280.6 1.19997Z" fill="#01527A"/>
<path d="M280.1 9.39997C278.8 12.7 278.2 16.4 276 19.2C284.9 19.4 293.5 12.9 295.7 4.29998C295.7 4.19998 287.4 2.89998 286.4 3.09998C283.3 3.89998 281.2 6.59997 280.1 9.39997Z" fill="#01527A"/>
<path d="M174.7 10.1001C176.1 15.1001 179 19.7001 183 23.1001C184.1 24.0001 185.6 24.9001 186.8 24.3001C188.3 23.6001 188.4 21.6001 188.1 20.0001C186.8 12.6001 181.3 6.10007 174.3 3.50007C167.2 0.900069 158.9 2.30008 153.1 7.10008C149.4 10.1001 141.2 22.3001 146.7 26.7001C151.8 30.8001 163.1 24.0001 167 20.7001C170.3 17.9001 173.1 14.2001 174.7 10.1001Z" fill="#E5B01C"/>
</svg>
