<svg width="319" height="240" viewBox="0 0 319 240" fill="none" xmlns="http://www.w3.org/2000/svg">
<g opacity="0.08">
<path opacity="0.9" d="M371.222 147.167C371.222 140.799 376.404 135.628 382.787 135.628H395.443C417.645 135.628 435.592 117.667 435.592 95.569C435.592 73.4167 417.59 55.5097 395.443 55.5097H256.937C245.263 55.5097 235.771 46.0391 235.771 34.3914C235.771 15.7769 220.66 0.700195 202.004 0.700195H33.7673C15.1107 0.700195 0 15.7769 0 34.3914V58.4488C0 77.0634 15.1107 92.14 33.7673 92.14H155.635C166.6 92.14 175.437 101.012 175.437 111.898C175.437 122.838 166.545 131.655 155.635 131.655H101.575C83.3544 131.655 68.571 146.405 68.571 164.584C68.571 182.763 83.3544 197.514 101.575 197.514H268.338C280.994 197.514 291.304 207.746 291.304 220.428C291.304 230.715 299.65 239.043 309.961 239.043H553.587C575.844 239.043 593.846 221.027 593.846 198.874C593.846 176.667 575.789 158.706 553.587 158.706H382.732C376.404 158.706 371.222 153.535 371.222 147.167Z" fill="#0069AA"/>
</g>
</svg>
