<svg width="191" height="116" viewBox="0 0 191 116" fill="none" xmlns="http://www.w3.org/2000/svg">
<path d="M93.452 21.6112V31.6122C93.452 36.3252 89.6126 40.1953 84.8517 40.1953H20.9634C9.36824 40.1953 0 49.5449 0 61.0785C0 72.6505 9.36824 82 20.9634 82H93.452H157.609C167.745 82 176 73.8 176 63.6458V21.6112C176 9.65608 166.286 0 154.346 0H115.106C103.127 0 93.452 9.65608 93.452 21.6112Z" fill="#E5F0F7"/>
<g clip-path="url(#clip0)">
<path d="M49.0489 87.9566C34.6654 87.9566 23 76.3027 23 61.9333C23 47.5639 34.6654 35.91 49.0489 35.91C63.4324 35.91 75.0978 47.5639 75.0978 61.9333C75.0978 76.3027 63.4324 87.9566 49.0489 87.9566ZM49.0489 42.133C38.1197 42.133 29.2291 51.0149 29.2291 61.9333C29.2291 72.8518 38.1197 81.7337 49.0489 81.7337C59.9781 81.7337 68.8687 72.8518 68.8687 61.9333C68.8687 51.0149 59.9781 42.133 49.0489 42.133Z" fill="#098FD1"/>
<path d="M49.0489 112C47.35 112 45.9343 110.586 45.9343 108.888V84.9018C45.9343 83.2046 47.35 81.7903 49.0489 81.7903C50.7477 81.7903 52.1634 83.2046 52.1634 84.9018V108.888C52.1634 110.586 50.7477 112 49.0489 112Z" fill="#098FD1"/>
<path d="M61.5071 101.138H36.5907C34.8919 101.138 33.4762 99.7237 33.4762 98.0265C33.4762 96.3293 34.8919 94.915 36.5907 94.915H61.5071C63.2059 94.915 64.6216 96.3293 64.6216 98.0265C64.6216 99.7237 63.2059 101.138 61.5071 101.138Z" fill="#098FD1"/>
<path d="M71.9832 74.8885C65.3011 74.8885 58.619 72.3428 53.5791 67.2512C48.6525 62.3294 45.9343 55.8236 45.9343 48.8652C45.9343 41.9068 48.6525 35.401 53.5791 30.4792C58.5058 25.5574 65.018 22.8419 71.9832 22.8419C78.9485 22.8419 85.4607 25.5574 90.3874 30.4792C100.524 40.6056 100.524 57.1248 90.3874 67.3078C85.3475 72.3428 78.6653 74.8885 71.9832 74.8885ZM71.9832 29.0649C66.7168 29.0649 61.7336 31.1015 57.9961 34.8918C54.2587 38.6256 52.1634 43.604 52.1634 48.8652C52.1634 54.1264 54.202 59.1048 57.9961 62.8386C65.6975 70.5324 78.3256 70.5324 86.027 62.8386C93.7284 55.1447 93.7284 42.5857 86.027 34.8353C82.2329 31.1015 77.2496 29.0649 71.9832 29.0649Z" fill="#7AC142"/>
<path d="M88.1789 35.797C87.3861 35.797 86.5933 35.5141 85.9704 34.8918C84.7812 33.7038 84.7812 31.7238 85.9704 30.4792L102.959 13.5075C104.148 12.3195 106.13 12.3195 107.376 13.5075C108.565 14.6955 108.565 16.6755 107.376 17.9201L90.3874 34.8918C89.8211 35.4576 88.9717 35.797 88.1789 35.797Z" fill="#7AC142"/>
<path d="M106.413 31.7803C106.3 31.7803 106.243 31.7803 106.13 31.7803C104.431 31.6106 103.185 30.0831 103.299 28.386L104.431 16.5623L91.1802 17.6938C89.4813 17.8635 87.9524 16.5623 87.8391 14.8652C87.6692 13.168 88.9717 11.6405 90.6705 11.5274L107.659 10.0565C108.565 9.99995 109.471 10.3394 110.151 10.9617C110.773 11.6405 111.113 12.5457 111.057 13.4509L109.584 29.0083C109.358 30.5923 107.999 31.7803 106.413 31.7803Z" fill="#7AC142"/>
<path d="M49.049 87.9566V81.7337C59.9782 81.7337 68.8688 72.8518 68.8688 61.9333H75.0979C75.0979 76.3027 63.4325 87.9566 49.049 87.9566Z" fill="#098FD1"/>
</g>
<rect x="72" y="92" width="66" height="24" rx="12" fill="#E5F0F7"/>
<rect x="146" y="92" width="26" height="24" rx="12" fill="#E5F0F7"/>
<g clip-path="url(#clip1)">
<path d="M144.658 44.5798L102.09 49.7658C100.71 49.9245 100.237 51.6645 101.332 52.5498L135.408 78.5847C137.132 79.9081 139.272 80.4902 141.38 80.2093L183.948 75.0233C185.328 74.8646 185.801 73.1245 184.706 72.2392L150.63 46.2044C148.906 44.8809 146.765 44.2988 144.658 44.5798Z" fill="#007AB7"/>
<path d="M140.433 83.6893C138.276 83.9567 136.136 83.3746 134.461 82.0647L112.014 64.9596L108.389 78.2832C107.51 81.5146 109.431 84.867 112.666 85.747L157.359 97.9043C160.594 98.7843 163.948 96.867 164.827 93.6355L168.452 80.3119L140.433 83.6893Z" fill="#0069AA"/>
</g>
<defs>
<clipPath id="clip0">
<rect width="88" height="102" fill="white" transform="translate(23 10)"/>
</clipPath>
<clipPath id="clip1">
<rect width="87.5781" height="48.7391" fill="white" transform="translate(105.552 33.3015) rotate(15.2175)"/>
</clipPath>
</defs>
</svg>
