<svg width="348" height="170" viewBox="0 0 348 170" fill="none" xmlns="http://www.w3.org/2000/svg">
<path d="M317.315 62.946H277.253C265.708 62.946 256.331 53.5723 256.331 42.0295C256.331 27.6203 244.631 16 230.295 16H99.1077C84.6949 16 73.0716 27.6978 73.0716 42.0295V64.108C73.0716 78.5172 84.7723 90.1375 99.1077 90.1375H113.133C121.967 90.1375 129.096 97.2646 129.096 106.096C129.096 114.927 121.967 122.055 113.133 122.055H56.7216C46.8031 122.055 38.8218 130.034 38.8218 139.95C38.8218 149.866 46.8031 157.845 56.7216 157.845H294.611C298.563 157.845 301.74 154.669 301.74 150.718C301.74 144.753 306.544 139.95 312.51 139.95H317.315C334.285 139.95 348 126.238 348 109.272V93.5461C348 76.6579 334.285 62.946 317.315 62.946Z" fill="#E2F7D1"/>
<path d="M13.7929 153.894C21.4105 153.894 27.5858 147.721 27.5858 140.105C27.5858 132.489 21.4105 126.315 13.7929 126.315C6.1753 126.315 0 132.489 0 140.105C0 147.721 6.1753 153.894 13.7929 153.894Z" fill="#E2F7D1"/>
<g clip-path="url(#clip0)">
<path d="M295.02 44.3374H236.055C232.725 44.3374 230 47.061 230 50.3898V69.833H301V50.3898C301 47.061 298.351 44.3374 295.02 44.3374Z" fill="#06639C"/>
<path d="M238.099 51.7517H231.741C231.211 51.7517 230.757 52.2056 230.757 52.7352V73.389C230.757 73.9185 231.211 74.3725 231.741 74.3725H238.099C238.629 74.3725 239.083 73.9185 239.083 73.389V52.7352C239.159 52.2056 238.705 51.7517 238.099 51.7517Z" fill="#E5B01C"/>
<path d="M248.242 51.7517H241.884C241.354 51.7517 240.9 52.2056 240.9 52.7352V73.389C240.9 73.9185 241.354 74.3725 241.884 74.3725H248.242C248.772 74.3725 249.226 73.9185 249.226 73.389V52.7352C249.226 52.2056 248.772 51.7517 248.242 51.7517Z" fill="#E5B01C"/>
<path d="M258.309 51.7517H251.951C251.421 51.7517 250.967 52.2056 250.967 52.7352V73.389C250.967 73.9185 251.421 74.3725 251.951 74.3725H258.309C258.839 74.3725 259.293 73.9185 259.293 73.389V52.7352C259.369 52.2056 258.915 51.7517 258.309 51.7517Z" fill="#E5B01C"/>
<path d="M268.452 51.7517H262.094C261.564 51.7517 261.11 52.2056 261.11 52.7352V73.389C261.11 73.9185 261.564 74.3725 262.094 74.3725H268.452C268.982 74.3725 269.436 73.9185 269.436 73.389V52.7352C269.436 52.2056 268.982 51.7517 268.452 51.7517Z" fill="#E5B01C"/>
<path d="M278.595 21.6411H272.236C271.707 21.6411 271.252 22.095 271.252 22.6246V76.869C271.252 77.3986 271.707 77.8526 272.236 77.8526H278.595C279.125 77.8526 279.579 77.3986 279.579 76.869V22.7003C279.579 22.095 279.125 21.6411 278.595 21.6411Z" fill="#E5B01C"/>
<path d="M278.67 17.6316H272.085C271.555 17.6316 271.177 18.0099 271.177 18.5394V19.1447C271.177 19.6743 271.631 20.0525 272.085 20.0525H278.67C279.2 20.0525 279.579 19.6743 279.579 19.1447V18.6151C279.579 18.0855 279.2 17.6316 278.67 17.6316Z" fill="#7AC142"/>
<path d="M278.67 14H272.085C271.555 14 271.177 14.3783 271.177 14.9079V15.5131C271.177 16.0427 271.555 16.421 272.085 16.421H278.67C279.2 16.421 279.579 16.0427 279.579 15.5131V14.9079C279.579 14.3783 279.2 14 278.67 14Z" fill="#7AC142"/>
<path d="M288.662 51.7517H282.304C281.774 51.7517 281.32 52.2056 281.32 52.7352V73.389C281.32 73.9185 281.774 74.3725 282.304 74.3725H288.662C289.192 74.3725 289.646 73.9185 289.646 73.389V52.7352C289.722 52.2056 289.268 51.7517 288.662 51.7517Z" fill="#E5B01C"/>
<path d="M298.805 51.7517H292.447C291.917 51.7517 291.463 52.2056 291.463 52.7352V73.389C291.463 73.9185 291.917 74.3725 292.447 74.3725H298.805C299.335 74.3725 299.789 73.9185 299.789 73.389V52.7352C299.789 52.2056 299.335 51.7517 298.805 51.7517Z" fill="#E5B01C"/>
<path d="M299.259 57.6528C296.383 57.6528 294.036 59.9225 294.036 62.7974C293.961 65.5209 291.917 67.7906 289.192 67.7906H265.576H241.959C239.235 67.7906 237.191 65.5209 237.115 62.7974C237.039 59.9225 234.693 57.6528 231.892 57.6528H230V74.4482V164.023C230 167.352 232.725 170.076 236.055 170.076H295.02C298.351 170.076 301.076 167.352 301.076 164.023V74.3725V57.6528H299.259Z" fill="#007AB7"/>
<path d="M286.467 125.137H244.154C241.429 125.137 239.159 122.943 239.159 120.144V101.986C239.159 99.2628 241.354 96.9932 244.154 96.9932H286.467C289.192 96.9932 291.463 99.1872 291.463 101.986V120.144C291.387 122.943 289.192 125.137 286.467 125.137Z" fill="#7AC142"/>
</g>
<g clip-path="url(#clip1)">
<path d="M166.707 96H89.4376C88.0834 96 87 94.9221 87 93.5747V83.8731C87 82.5257 88.0834 81.4478 89.4376 81.4478H166.707C168.061 81.4478 169.145 82.5257 169.145 83.8731V93.5747C169.145 94.9221 168.061 96 166.707 96Z" fill="#E5B01C"/>
<path d="M175.8 96H173.904C172.55 96 171.466 94.9221 171.466 93.5747V83.8731C171.466 82.5257 172.55 81.4478 173.904 81.4478H175.8C177.154 81.4478 178.238 82.5257 178.238 83.8731V93.5747C178.238 94.9221 177.154 96 175.8 96Z" fill="#7AC142"/>
<path d="M184.932 96H183.036C181.682 96 180.598 94.9221 180.598 93.5747V83.8731C180.598 82.5257 181.682 81.4478 183.036 81.4478H184.932C186.286 81.4478 187.369 82.5257 187.369 83.8731V93.5747C187.369 94.9221 186.286 96 184.932 96Z" fill="#7AC142"/>
<path d="M228.345 15H207.644C204.084 15 201.105 17.8489 201.144 21.3522C201.182 23.7006 199.286 25.587 196.965 25.587H181.952C178.354 25.587 175.452 28.4743 175.452 32.0547V43.9891L176.496 74.6721C176.574 76.597 178.121 78.0984 180.056 78.0984C181.952 78.0984 183.5 76.6355 183.616 74.7491L184.622 55.3845C184.622 49.0708 189.768 43.9891 196.075 43.9891H220.335C223.934 43.9891 226.836 41.1017 226.836 37.5214V29.5908C226.836 28.6668 227.61 27.8969 228.538 27.8969C232.137 27.8969 235.039 25.0095 235.039 21.4292C234.961 17.8874 231.866 15 228.345 15Z" fill="#D4E5F0"/>
</g>
<path fill-rule="evenodd" clip-rule="evenodd" d="M188.482 129.553L86.4819 28.5528L93.5181 21.447L195.518 122.447L188.482 129.553Z" fill="#7AC142"/>
<circle cx="140.5" cy="75.5" r="70.5" stroke="#7AC142" stroke-width="10"/>
<defs>
<clipPath id="clip0">
<rect width="71" height="156" fill="white" transform="translate(230 14)"/>
</clipPath>
<clipPath id="clip1">
<rect width="148" height="81" fill="white" transform="translate(87 15)"/>
</clipPath>
</defs>
</svg>
