<svg width="359" height="172" viewBox="0 0 359 172" fill="none" xmlns="http://www.w3.org/2000/svg">
<rect x="3" width="194" height="41" rx="20.5" fill="#E5F0F7"/>
<rect x="132" y="52" width="227" height="41" rx="20.5" fill="#E5F0F7"/>
<rect y="86" width="231" height="41" rx="20.5" fill="#E5F0F7"/>
<path d="M300.118 20.7546H252.58C249.895 20.7546 247.698 22.9632 247.698 25.6626V41.4295H304.939V25.6626C305 22.9632 302.803 20.7546 300.118 20.7546Z" fill="#06639C"/>
<path d="M254.289 26.7668H249.162C248.735 26.7668 248.369 27.1349 248.369 27.5644V44.3129C248.369 44.7423 248.735 45.1104 249.162 45.1104H254.289C254.716 45.1104 255.082 44.7423 255.082 44.3129V27.5644C255.082 27.1349 254.716 26.7668 254.289 26.7668Z" fill="#E5B01C"/>
<path d="M262.466 26.7668H257.34C256.913 26.7668 256.546 27.1349 256.546 27.5644V44.3129C256.546 44.7423 256.913 45.1104 257.34 45.1104H262.466C262.893 45.1104 263.259 44.7423 263.259 44.3129V27.5644C263.259 27.1349 262.893 26.7668 262.466 26.7668Z" fill="#E5B01C"/>
<path d="M270.582 26.7668H265.456C265.029 26.7668 264.663 27.1349 264.663 27.5644V44.3129C264.663 44.7423 265.029 45.1104 265.456 45.1104H270.582C271.009 45.1104 271.375 44.7423 271.375 44.3129V27.5644C271.436 27.1349 271.07 26.7668 270.582 26.7668Z" fill="#E5B01C"/>
<path d="M278.759 26.7668H273.633C273.206 26.7668 272.84 27.1349 272.84 27.5644V44.3129C272.84 44.7423 273.206 45.1104 273.633 45.1104H278.759C279.186 45.1104 279.553 44.7423 279.553 44.3129V27.5644C279.553 27.1349 279.186 26.7668 278.759 26.7668Z" fill="#E5B01C"/>
<path d="M286.875 26.7668H281.749C281.322 26.7668 280.956 27.1349 280.956 27.5644V44.3129C280.956 44.7423 281.322 45.1104 281.749 45.1104H286.875C287.303 45.1104 287.669 44.7423 287.669 44.3129V27.5644C287.73 27.1349 287.364 26.7668 286.875 26.7668Z" fill="#E5B01C"/>
<path d="M295.053 26.7668H289.927C289.5 26.7668 289.134 27.1349 289.134 27.5644V44.3129C289.134 44.7423 289.5 45.1104 289.927 45.1104H295.053C295.48 45.1104 295.846 44.7423 295.846 44.3129V27.5644C295.846 27.1349 295.48 26.7668 295.053 26.7668Z" fill="#E5B01C"/>
<path d="M303.169 26.7668H298.043C297.616 26.7668 297.25 27.1349 297.25 27.5644V44.3129C297.25 44.7423 297.616 45.1104 298.043 45.1104H303.169C303.597 45.1104 303.963 44.7423 303.963 44.3129V27.5644C304.024 27.1349 303.658 26.7668 303.169 26.7668Z" fill="#E5B01C"/>
<path d="M303.596 31.5522C301.277 31.5522 299.386 33.3927 299.386 35.724C299.325 37.9326 297.677 39.7731 295.48 39.7731H276.44H257.401C255.204 39.7731 253.556 37.9326 253.495 35.724C253.434 33.3927 251.542 31.5522 249.284 31.5522H247.881V45.1719V117.81C247.881 120.509 250.078 122.718 252.763 122.718H300.301C302.986 122.718 305.183 120.509 305.183 117.81V45.1105V31.5522H303.596Z" fill="#007AB7"/>
<path d="M293.222 86.3375H259.11C256.913 86.3375 255.082 84.5583 255.082 82.2884V67.5645C255.082 65.3559 256.852 63.5154 259.11 63.5154H293.222C295.419 63.5154 297.25 65.2945 297.25 67.5645V82.2884C297.25 84.497 295.48 86.3375 293.222 86.3375Z" fill="#7AC142"/>
<path d="M136.793 81.9051C125.354 33.41 84.7358 35.6553 84.7358 35.6553C84.7358 35.6553 52.3889 60.3355 81.0706 105.661C82.2844 107.583 83.6813 109.333 85.2914 110.963C91.1826 116.878 105.947 129.289 120.939 123.091C135.771 116.982 137.629 98.164 137.684 89.6298C137.695 87.0231 137.38 84.4582 136.793 81.9051Z" fill="#7AC142"/>
<path d="M116.178 55.8959C114.777 55.7652 113.511 56.7534 113.387 58.1579C112.312 69.3704 103.39 72.6691 99.6618 73.6279C91.9615 59.0963 88.8318 43.4865 88.7953 43.2961C88.5098 41.9095 87.1823 41.0349 85.8541 41.2851C84.4726 41.5651 83.6065 42.8924 83.862 44.2254C83.9649 44.6599 85.206 51.1347 88.1601 59.6743C86.259 60.5256 82.8868 61.4963 79.9587 59.7591C78.7209 59.0452 77.1797 59.4145 76.4733 60.6525C75.767 61.8905 76.1422 63.4377 77.38 64.1517C81.9983 66.9122 86.8119 65.7687 89.7616 64.5421C89.8149 64.5124 89.8681 64.4826 89.9214 64.4528C91.6031 68.7137 93.6542 73.2601 96.1379 77.7053C96.5569 78.455 96.9758 79.2048 97.4481 79.9248C99.7691 83.8285 102.319 88.5176 104.776 93.5401C103.044 95.0699 99.0155 97.7428 91.676 98.1191C90.258 98.2086 89.2488 99.4051 89.3146 100.774C89.4103 102.196 90.608 103.214 91.9727 103.154C96.1733 102.915 99.469 102.057 102.069 100.956C104.16 100.069 105.781 99.0925 107.023 98.1876C113.599 112.083 119.582 127.293 121.807 134.904C122.199 136.232 123.633 137.047 124.955 136.66C125.061 136.6 125.145 136.624 125.251 136.564C126.43 136.046 127.053 134.784 126.691 133.511C123.409 122.133 111.812 94.247 102.312 78.1207C103.041 77.9242 103.793 77.6443 104.516 77.3109C110.522 74.7983 117.392 69.2028 118.44 58.5676C118.57 57.2999 117.579 56.0265 116.178 55.8959Z" fill="#8CDD45"/>
<path d="M225.611 22.413L178.962 134.424C176.655 139.999 170.178 142.629 164.627 140.302C159.077 137.974 156.447 131.459 158.753 125.885L205.403 13.8734C206.188 11.9917 208.388 11.1077 210.261 11.9003L223.639 17.5268C225.513 18.3194 226.396 20.5313 225.611 22.413Z" fill="#BF7B43"/>
<path d="M191.31 104.853L186.991 115.203C186.344 116.811 184.494 117.571 182.893 116.918L168.507 110.845C166.906 110.192 166.146 108.332 166.793 106.723L171.112 96.3741C171.759 94.7657 173.609 94.0054 175.21 94.6588L189.596 100.732C191.197 101.385 191.957 103.245 191.31 104.853Z" fill="#0069AA"/>
<path d="M228.158 14.6789C227.688 15.8826 226.298 16.4377 225.16 15.9522L209.254 9.33637C208.055 8.8614 207.501 7.46385 207.982 6.32063C208.452 5.11698 209.842 4.56186 210.98 5.04737L226.946 11.6527C228.084 12.1382 228.639 13.5357 228.158 14.6789Z" fill="#FF6A52"/>
<rect x="231" y="131" width="67" height="41" rx="20.5" fill="#E5F0F7"/>
<rect x="200" y="141" width="20" height="21" rx="10" fill="#E5F0F7"/>
</svg>
