<svg xmlns="http://www.w3.org/2000/svg" viewBox="0 0 1100 290" height="290" width="1100">
  <path fill="#878787" d="M162.8 218.3v-31.5h6.1v31.5h-6.1zm36 0L186.3 199v19.3h-6.1v-31.5h5.5l12.5 19.3v-19.3h6.1v31.5h-5.5zm25.5.3c-4.8 0-8.4-1-11.5-4.2l4-4c2 2 4.7 2.7 7.6 2.7 3.6 0 5.6-1.4 5.6-3.9 0-1.1-.3-2-1-2.7-.6-.6-1.3-.9-2.8-1.1l-3.8-.5c-2.7-.4-4.7-1.2-6.1-2.6-1.5-1.5-2.3-3.5-2.3-6.2 0-5.6 4.2-9.6 11-9.6 4.3 0 7.5 1.1 10.2 3.7l-3.9 3.8c-2-1.9-4.4-2.2-6.5-2.2-3.3 0-4.9 1.8-4.9 4 0 .8.3 1.6.9 2.3.6.6 1.6 1.1 2.9 1.2l3.7.5c2.9.4 4.7 1.2 6 2.4 1.7 1.6 2.4 3.9 2.4 6.7.1 6.2-4.9 9.7-11.5 9.7zm33.9-12.1h-6.1v11.9H246v-31.5h12.2c6.5 0 10.4 4.5 10.4 9.8s-3.9 9.8-10.4 9.8zm-.3-14.2h-5.7v8.6h5.7c2.8 0 4.6-1.7 4.6-4.3 0-2.5-1.8-4.3-4.6-4.3zm20.5 26v-31.5h6.1v31.5h-6.1zm34.2 0l-6.1-12.6H302v12.6h-6.1v-31.5h12.3c6.4 0 10.2 4.4 10.2 9.6 0 4.4-2.7 7.2-5.7 8.3l7 13.6h-7.1zm-4.8-26H302v8.3h5.8c2.7 0 4.5-1.7 4.5-4.2 0-2.4-1.8-4.1-4.5-4.1zm21.5 26v-31.5h6.1v31.5h-6.1zm36 0L352.9 199v19.3h-6.1v-31.5h5.5l12.5 19.3v-19.3h6.1v31.5h-5.6zm36.2-3.3c-2.4 2.5-5.4 3.6-8.9 3.6-3.4 0-6.2-1.2-8.5-3.4-1.4-1.4-2.2-3-2.6-4.7-.4-1.8-.5-4.4-.5-7.8s.2-6.1.5-7.8c.4-1.8 1.2-3.4 2.6-4.7 2.3-2.3 5.1-3.4 8.5-3.4 7.2 0 11 4.6 11.9 10.1h-6.2c-.8-3.1-2.6-4.6-5.7-4.6-1.6 0-3 .6-3.9 1.7-1.1 1.5-1.5 2.6-1.5 8.8 0 6.2.3 7.4 1.5 8.9.9 1.1 2.3 1.6 3.9 1.6 1.8 0 3.3-.6 4.4-1.8.9-1.1 1.4-2.5 1.4-4.2v-1.2h-5.8V201h11.9v4.6c.1 4.4-.8 7.1-3 9.4zm27.5 3.3v-31.5h6.1v26h14.3v5.5H429zm29.4 0v-31.5h6.1v31.5h-6.1zm28.9 0h-4.6l-10.4-31.5h6.4l6.3 20.5 6.3-20.5h6.4l-10.4 31.5zm19 0v-31.5H527v5.5h-14.6v7.4h12.4v5.5h-12.4v7.7H527v5.5h-20.7zm40 .3c-4.8 0-8.4-1-11.5-4.2l4-4c2 2 4.7 2.7 7.6 2.7 3.6 0 5.6-1.4 5.6-3.9 0-1.1-.3-2-1-2.7-.6-.6-1.3-.9-2.8-1.1l-3.8-.5c-2.7-.4-4.7-1.2-6.1-2.6-1.5-1.5-2.3-3.5-2.3-6.2 0-5.6 4.2-9.6 11-9.6 4.3 0 7.5 1.1 10.2 3.7l-3.9 3.8c-2-1.9-4.4-2.2-6.5-2.2-3.3 0-4.9 1.8-4.9 4 0 .8.3 1.6.9 2.3.6.6 1.6 1.1 2.9 1.2l3.7.5c2.9.4 4.7 1.2 6 2.4 1.7 1.6 2.4 3.9 2.4 6.7.2 6.2-4.9 9.7-11.5 9.7zm42.4-26.3v7.7h12.4v5.5h-12.4v12.8h-6.1v-31.5h20.7v5.5h-14.6zm41 26l-6.1-12.6h-4.4v12.6h-6.1v-31.5h12.3c6.4 0 10.2 4.4 10.2 9.6 0 4.4-2.7 7.2-5.7 8.3l7 13.6h-7.2zm-4.8-26h-5.8v8.3h5.8c2.7 0 4.5-1.7 4.5-4.2-.1-2.4-1.8-4.1-4.5-4.1zm21.5 26v-31.5h20.7v5.5h-14.6v7.4h12.4v5.5h-12.4v7.7h14.6v5.5h-20.7zm31.4 0v-31.5h20.7v5.5h-14.6v7.4h12.4v5.5h-12.4v7.7h14.6v5.5h-20.7zm52-26v7.7h12.4v5.5h-12.4v12.8h-6.1v-31.5h20.7v5.5h-14.6zm41 26l-6.1-12.6h-4.4v12.6h-6.1v-31.5h12.3c6.4 0 10.2 4.4 10.2 9.6 0 4.4-2.7 7.2-5.7 8.3l7 13.6h-7.2zm-4.8-26h-5.8v8.3h5.8c2.7 0 4.5-1.7 4.5-4.2 0-2.4-1.8-4.1-4.5-4.1zm40.5 22.8c-2.2 2.2-4.9 3.4-8.5 3.4-3.6 0-6.3-1.2-8.5-3.4-3.2-3.2-3.1-7.1-3.1-12.6 0-5.4-.1-9.4 3.1-12.6 2.2-2.2 5-3.4 8.5-3.4 3.6 0 6.3 1.2 8.5 3.4 3.2 3.2 3.1 7.1 3.1 12.6.1 5.5.1 9.4-3.1 12.6zm-4.5-21.4c-.9-1-2.3-1.7-3.9-1.7-1.7 0-3.1.7-4 1.7-1.2 1.3-1.5 2.8-1.5 8.8 0 6.1.3 7.5 1.5 8.8.9 1 2.3 1.7 4 1.7 1.7 0 3.1-.7 3.9-1.7 1.2-1.3 1.5-2.8 1.5-8.8 0-6-.3-7.4-1.5-8.8zm40.3 24.6V200l-6 11.9h-4.2L826 200v18.4h-6.1v-31.5h6.1l8.2 17 8.2-17h6.1v31.5h-6.2zm-670.9 53.4c-4.8 0-8.4-1-11.5-4.2l4-4c2 2 4.7 2.7 7.6 2.7 3.6 0 5.6-1.4 5.6-3.9 0-1.1-.3-2-1-2.7-.6-.6-1.3-.9-2.8-1.1l-3.8-.5c-2.7-.4-4.7-1.2-6.1-2.6-1.5-1.5-2.3-3.5-2.3-6.2 0-5.6 4.2-9.6 11-9.6 4.3 0 7.5 1.1 10.2 3.7l-3.9 3.8c-2-1.9-4.4-2.2-6.5-2.2-3.3 0-4.9 1.8-4.9 4 0 .8.3 1.6.9 2.3.6.6 1.6 1.1 2.9 1.2l3.7.5c2.9.4 4.7 1.2 6 2.4 1.7 1.6 2.4 3.9 2.4 6.7.2 6.2-4.9 9.7-11.5 9.7zm44.2-.3V253l-6 11.9h-4.2l-6.1-11.9v18.4h-6.1v-31.5h6.1l8.2 17 8.2-17h6.1v31.5h-6.2zm37.1-3.2c-2.2 2.2-4.9 3.4-8.5 3.4-3.6 0-6.3-1.2-8.5-3.4-3.2-3.2-3.1-7.1-3.1-12.6 0-5.4-.1-9.4 3.1-12.6 2.2-2.2 5-3.4 8.5-3.4 3.6 0 6.3 1.2 8.5 3.4 3.2 3.2 3.1 7.1 3.1 12.6s0 9.4-3.1 12.6zm-4.6-21.4c-.9-1-2.3-1.7-3.9-1.7-1.7 0-3.1.7-4 1.7-1.2 1.3-1.5 2.8-1.5 8.8 0 6.1.3 7.5 1.5 8.8.9 1 2.3 1.7 4 1.7 1.7 0 3.1-.7 3.9-1.7 1.2-1.3 1.5-2.8 1.5-8.8.1-6-.3-7.5-1.5-8.8zm36.2 24.6l-8.1-14.3-4.1 4.9v9.5H266V240h6.1v13.7l11.1-13.7h7.5l-10.4 12.5 11.2 19h-7.2zm15.1 0v-31.5h6.1v31.5h-6.1zm36.1 0L323 252.1v19.3h-6.1v-31.5h5.5l12.5 19.3v-19.3h6.1v31.5h-5.5zm36.2-3.3c-2.4 2.5-5.4 3.6-8.9 3.6-3.4 0-6.2-1.2-8.5-3.4-1.4-1.4-2.2-3-2.6-4.7-.4-1.8-.5-4.4-.5-7.8s.2-6.1.5-7.8c.4-1.8 1.2-3.4 2.6-4.7 2.3-2.3 5.1-3.4 8.5-3.4 7.2 0 11 4.6 11.9 10.1h-6.2c-.8-3.1-2.6-4.6-5.7-4.6-1.6 0-3 .6-3.9 1.7-1.1 1.5-1.5 2.6-1.5 8.8 0 6.2.3 7.4 1.5 8.9.9 1.1 2.3 1.6 3.9 1.6 1.8 0 3.3-.6 4.4-1.8.9-1.1 1.4-2.5 1.4-4.2V259h-5.8v-5.1h11.9v4.6c0 4.6-.8 7.3-3 9.6zm12.4 10.6v-13.6h6.3v8.7l-6.3 4.9zm28.5-7.3H408l-10.4-31.5h6.4l6.3 20.5 6.3-20.5h6.4l-10.4 31.5zm34.9 0l-1.9-5.6h-11.2l-1.9 5.6h-6.4l11.5-31.5h4.8l11.5 31.5h-6.4zm-7.4-22.2l-4 11.5h7.8l-3.8-11.5zm34.1 10.3h-6.1v11.9H462v-31.5h12.2c6.5 0 10.4 4.5 10.4 9.8s-3.9 9.8-10.4 9.8zm-.3-14.1h-5.7v8.6h5.7c2.8 0 4.6-1.7 4.6-4.3s-1.8-4.3-4.6-4.3zm20.5 26v-31.5h6.1v31.5h-6.1zm36 0L518 252.1v19.3h-6.1v-31.5h5.5l12.5 19.3v-19.3h6.1v31.5h-5.6zm36.3-3.3c-2.4 2.5-5.4 3.6-8.9 3.6-3.4 0-6.2-1.2-8.5-3.4-1.4-1.4-2.2-3-2.6-4.7-.4-1.8-.5-4.4-.5-7.8s.2-6.1.5-7.8c.4-1.8 1.2-3.4 2.6-4.7 2.3-2.3 5.1-3.4 8.5-3.4 7.2 0 11 4.6 11.9 10.1h-6.2c-.8-3.1-2.6-4.6-5.7-4.6-1.6 0-3 .6-3.9 1.7-1.2 1.5-1.5 2.6-1.5 8.8 0 6.2.3 7.4 1.5 8.9.9 1.1 2.3 1.6 3.9 1.6 1.8 0 3.3-.6 4.4-1.8.9-1.1 1.4-2.5 1.4-4.2V259h-5.8v-5.1h11.9v4.6c0 4.6-.9 7.3-3 9.6zm47.2 3.3l-2.3-2.7c-1.5 1.1-3.6 3-8.1 3-6.9 0-10.4-3.6-10.4-9.6 0-4 2.9-6.6 5.7-8.4-1.3-1.5-3.1-3.7-3.1-6.7 0-4.3 3.1-7.3 8.4-7.3 5 0 8 3.1 8 7.4 0 2.4-1.3 4.1-3.2 5.5 0 0-1.5 1.1-2.3 1.6l5.3 6.3c1-1.4 1.5-3.3 1.6-5.5h5.4c-.2 4.1-1.1 7.3-3.4 9.8l5.7 6.7h-7.3zm-12.1-14.2c-1.9 1.3-3.2 2.6-3.2 4.8 0 2.6 2.1 4.4 4.8 4.4 1.9 0 3.2-.6 4.7-1.9l-6.3-7.3zm2.2-12.7c-1.7 0-2.6 1.1-2.6 2.6 0 1.1 1 2.3 2.1 3.5.4-.3 1.3-.9 1.3-.9 1-.7 1.8-1.5 1.8-2.7 0-1.3-1-2.5-2.6-2.5zm59.6 26.9l-12.5-19.3v19.3H645v-31.5h5.5l12.5 19.3v-19.3h6.1v31.5h-5.5zm16.8 0v-31.5h6.1v31.5h-6.1zm27.9.3c-3.4 0-6.2-1.2-8.5-3.4-1.4-1.4-2.2-3-2.6-4.7-.4-1.8-.5-4.4-.5-7.8s.2-6.1.5-7.8c.4-1.8 1.2-3.4 2.6-4.7 2.3-2.3 5.1-3.4 8.5-3.4 6.1 0 10.5 3.5 11.6 9.9h-6.2c-.7-2.7-2.3-4.5-5.3-4.5-1.7 0-3 .5-3.9 1.6-1.3 1.4-1.5 2.8-1.5 8.9s.3 7.5 1.5 8.9c.9 1.1 2.3 1.6 3.9 1.6 3 0 4.6-1.8 5.3-4.5h6.2c-1.1 6.3-5.6 9.9-11.6 9.9zm39-3.5c-2.2 2.2-4.9 3.4-8.5 3.4-3.6 0-6.3-1.2-8.5-3.4-3.2-3.2-3.1-7.1-3.1-12.6 0-5.4-.1-9.4 3.1-12.6 2.2-2.2 5-3.4 8.5-3.4 3.6 0 6.3 1.2 8.5 3.4 3.2 3.2 3.1 7.1 3.1 12.6s.1 9.4-3.1 12.6zm-4.6-21.4c-.9-1-2.3-1.7-3.9-1.7-1.7 0-3.1.7-4 1.7-1.2 1.3-1.5 2.8-1.5 8.8 0 6.1.3 7.5 1.5 8.8.9 1 2.3 1.7 4 1.7 1.7 0 3.1-.7 3.9-1.7 1.2-1.3 1.5-2.8 1.5-8.8.1-6-.3-7.5-1.5-8.8zm30-1.4v26h-6.1v-26h-8.2v-5.5H781v5.5h-8.3zm17.4 26v-31.5h6.1v31.5h-6.1zm36 0l-12.5-19.3v19.3h-6.1v-31.5h5.5l12.5 19.3v-19.3h6.1v31.5h-5.5zm16.8 0v-31.5h20.7v5.5H849v7.4h12.4v5.5H849v7.7h14.6v5.5h-20.7z"/>
  <path fill="#f48220" d="M115.4 220.8c-.1.4-.3.9-.4 1.3-1.6 7.5-8.5 13-16 12.7-8.1-.3-14.5-6.1-15.5-14-1.1-8.5 4.8-16.5 13-17.8 8.9-1.4 16.9 4.1 18.6 12.8.1.4.2.7.3 1.1v3.9zm0-114.9c-.1.4-.3.8-.4 1.2-1.6 7.6-8.2 12.9-15.8 12.9-7.7-.1-14.2-5.4-15.7-13-1.6-8.2 3.5-16.3 11.7-18.5 8.1-2.1 16.7 2.5 19.2 10.5.4 1.1.6 2.2.9 3.4.1 1.1.1 2.3.1 3.5zM8.8 140c.2-.7.4-1.4.6-2 2.1-7.6 9.6-12.6 17.4-11.6 7.7 1 13.8 7.5 14 15 .3 8.3-5.1 15.2-13.1 16.6-8.7 1.6-16.8-4-18.6-12.7-.1-.3-.2-.5-.3-.8V140zm87.8 133.2c-.4-.2-.8-.4-1.2-.5-7.6-1.8-12.9-9.1-12.1-16.9.9-8.6 7.5-14.6 15.8-14.7 8 0 14.5 5.5 15.9 13.4l.3.9v3.8c-.1.4-.3.7-.4 1.1-1.4 6.3-5.3 10.3-11.4 12.3l-2.1.6h-4.8zM8.8 101.6c.2-.5.3-.9.5-1.4 1.9-7.6 8.9-12.7 16.6-12.1 8.7.6 14.6 7.7 14.8 15.2.3 8.4-5.4 15.4-13.5 16.6-8.2 1.2-16-3.9-18-12-.1-.4-.3-.8-.5-1.2.1-1.8.1-3.5.1-5.1zm55.4-90.3c.8.2 1.7.5 2.5.7 8 2.4 12.7 10.6 10.9 18.8-1.7 8-9.6 13.4-17.9 12.3C51.6 42 45.6 34.7 46 26.5c.3-7.2 5.3-13.2 12.3-14.9.4-.1.9-.3 1.3-.4 1.6.1 3.1.1 4.6.1zM8.8 178.1c.1-.4.3-.8.4-1.2 2-8.1 9.1-13.1 17.6-12.2 7.3.7 13.6 7.3 13.9 14.7.4 8.4-5 15.4-13.1 16.9-8.3 1.6-16.4-3.7-18.4-11.9-.1-.5-.3-1-.5-1.4.1-1.7.1-3.3.1-4.9zM78 103.9c.1 8.8-7.1 15.9-15.9 16-8.8.1-16.1-7.1-16.1-15.9 0-8.9 7.1-16.1 15.9-16.1 8.9 0 16.1 7.1 16.1 16zm0 38.3c0 8.9-7.1 16-16 16s-16-7.2-16-16 7.1-15.9 16-15.9 16 7.1 16 15.9zm0 38.5c-.2 9-7.4 16.1-16.4 15.9-8.8-.2-15.8-7.5-15.6-16.4.2-8.8 7.4-15.7 16.3-15.5 8.8 0 15.9 7.3 15.7 16zm0-115c0 8.9-7.2 16-16.2 16-8.7-.1-15.8-7.3-15.8-16.2 0-8.9 7.2-15.9 16.1-15.9C71 49.7 78 56.9 78 65.7zm0 153.1c.1 8.7-7.1 15.9-15.8 16-8.9.1-16.1-7-16.2-15.8-.1-8.7 7-16.1 15.5-16.2 9.3 0 16.5 6.9 16.5 16z"/>
  <path fill="#3f3a35" d="M1037.7 152.7c-1.6-.2-3.3-.5-4.9-.7-16.5-2.4-28.7-14.8-30.9-31.3-1.2-8.9-.3-17.5 3.8-25.5 5.8-11.2 15.1-17.6 27.6-19.3 9.5-1.3 18.5.3 26.6 5.7 7.7 5.2 12.1 12.6 14.5 21.3 1.5 5.3 2.4 13.2 1.9 17.1h-52.1c.5 3.8 1.7 7.1 3.8 10.2 2.7 3.8 6.6 5.4 11.1 5.7 3.2.2 6.2-.2 9-1.9 1.7-1.1 3.1-2.7 4.1-4.5.2-.4.7-.7 1.1-.7h21.4c.1 0 .2 0 .4.1-.5 2.7-1.5 5.1-2.9 7.4-5.3 8.6-13.2 13.5-22.9 15.6-2 .4-4.1.5-6.2.8-.2 0-.4.1-.6.2-1.6-.2-3.2-.2-4.8-.2zm-13.3-46.6h28.4c-.4-8.1-6.1-14-13.5-14.1-7.9-.1-13.3 4.3-14.9 14.1zm66.8-20.1c-.6 1.9-1.4 3.6-2.9 5-3 2.8-7.7 3.3-11.2 1.1-3.6-2.3-5.2-6.7-3.8-10.8 1.3-3.9 5.2-6.5 9.4-6.1 4.2.3 7.3 3.1 8.3 7.3 0 .1.1.2.2.3V86zm-1.7-1.7c0-4.2-3.3-7.6-7.4-7.6-4.2 0-7.6 3.4-7.7 7.6 0 4.2 3.4 7.6 7.6 7.6 4.2-.1 7.5-3.4 7.5-7.6zM398.2 48.1h23.1v37.7c.1 0 .2.1.3.1.3-.4.6-.7 1-1.1 3.7-4.4 7.9-8.1 13.8-9.2 8.6-1.7 16.7-.8 23.7 5.1 4.9 4.2 7.4 9.9 8.2 16.2.3 2.3.4 4.7.4 7.1v45.8h-23.2v-42.4c0-1.7-.1-3.4-.6-5-1.7-6.1-6-8.8-12.3-8.1-5.8.7-9.9 5-10.8 11.1-.3 1.6-.4 3.3-.4 4.9v39.4h-23.1c-.1-33.8-.1-67.7-.1-101.6zm152.5 29.6h22.2v9.8c.1 0 .2.1.3.1.3-.3.5-.6.8-.9 3.6-4.8 7.9-8.7 13.8-10.2 8.4-2.1 16.5-1.4 23.6 3.9 5.4 4.1 8.1 9.8 9.2 16.3.3 2.1.5 4.3.5 6.4v46.1c0 .3 0 .7-.1 1.1h-23.1v-42.1c0-1.7-.1-3.5-.5-5.1-1.6-6.6-6.4-8.9-12.4-8.2-5.9.7-10.1 5.3-10.9 11.8-.2 1.3-.2 2.7-.2 4.1v39.5h-23.1c-.1-24.2-.1-48.4-.1-72.6zM308.3 77h23.1v72.7h-22.2v-8.8c-.1 0-.2-.1-.3-.1-.3.3-.6.7-.9 1-5.6 7.3-12.9 10.5-22 10.1-4.4-.2-8.7-.9-12.6-3-6.2-3.5-9.5-9-11-15.7-.6-2.8-.9-5.8-.9-8.7-.1-15.5 0-31 0-46.6v-.8h23v42.3c0 1.7.1 3.5.5 5.1 1.4 5.8 5.5 8.2 11.9 7.7 7.3-.6 10.4-6.4 11.1-11.2.2-1.3.2-2.5.3-3.8V77zm475.8 23.6h-21.3c.2-5.8 2.2-10.9 6-15.2 4-4.5 9.2-7.1 14.9-8.4 9.9-2.2 19.8-2.2 29.4 1.3 9.6 3.5 14.4 10.7 15.3 20.7.3 3.5.2 7.1.2 10.7 0 10.8 0 21.6.1 32.4 0 1.4.2 2.8.5 4.1.3 1 1 1.9 1.5 2.8.2.4.4.8.7 1.3-.7 0-1.1.1-1.4.1h-20c-1 0-1.6-.4-1.9-1.3-.6-2.1-1.1-4.2-1.6-6.2 0-.2-.1-.4-.1-.7-.3.2-.5.4-.6.5-4.5 5.9-10.5 8.9-17.9 9.4-5.4.3-10.7 0-15.7-2.1-7.9-3.4-12-9.7-12.5-18.2-.4-5.8.7-11.2 4.8-15.6 3.4-3.7 7.7-5.9 12.5-7 4.8-1.1 9.8-1.8 14.7-2.7 3.3-.6 6.6-1.3 9.8-2.2 2.5-.7 4.3-2.2 4.4-5 .1-3-.9-5.7-3.8-6.9-4.4-1.9-9-1.8-13.3.4-2.7 1.4-4.1 3.9-4.7 7.8zm22.2 15.6c-4.9 1.4-9.8 2.6-14.6 4.1-2.1.6-4.1 1.4-6.1 2.4-3.2 1.6-4 4.5-3.7 7.8.3 3.2 2 5.2 5 6.2s6 .9 9 .3c5.6-1.1 9.8-5.2 10.3-10.7.3-3.4.1-6.9.1-10.1zm156.5 8.8c.9-3.1 1.6-6.3 2.6-9.4 3.7-12.4 7.5-24.7 11.3-37.1.2-.6.3-.9 1-.9h22.4l-.3 1.2c-8.1 23.6-16.3 47.1-24.4 70.7-.3.8-.6 1-1.4 1h-22.8c-.8 0-1.2-.2-1.5-1-8.1-23.6-16.3-47.2-24.5-70.8-.1-.3-.2-.6-.3-1 .4 0 .7-.1 1-.1h21.8c.7 0 1.1.1 1.3.9 4.2 14.1 8.3 28.1 12.5 42.2.4 1.4.8 2.9 1.1 4.4.1-.1.1-.1.2-.1zM350.4 91.5h-9.6V77h9.5V54H373v22.9h13.2v14.5H373V126c.1 4.1 1.9 6.1 6.1 6.4 2.3.2 4.6 0 7 0v17.1c-2.2.3-4.5.6-6.8.8-5.2.3-10.3.4-15.4-.8-8.1-1.9-13-7.5-13.5-15.9-.1-1.6-.2-3.3-.2-4.9V92.9c.2-.3.2-.8.2-1.4zm327.1.7H668V77.6h9.5v-23h22.6v22.9h13.2v14.6h-13.1v34.7c.2 4.1 2 6 6.2 6.3 2.3.1 4.6 0 6.9 0 0 .3.1.6.1.9v14.9c0 .8-.2 1.2-1.1 1.3-7.3 1.1-14.6 1.5-21.8-.3-7.7-1.9-12.2-7.4-12.8-15.4-.1-1.8-.2-3.7-.2-5.5V92.2zm204.6 41.1v17c-2.4.3-4.8.7-7.2.8-5.5.3-11 .4-16.4-1.2-7.1-2.1-10.9-7.1-11.8-14.3-.2-1.7-.3-3.3-.3-5V92.2h-9.6V77.6h9.6V54.7H869v22.9h13.2v14.6h-13.1v33.6c0 5.5 1.9 7.4 7.4 7.6 1.7 0 3.7-.1 5.6-.1zm-687.5-.7v17c-2.3.3-4.6.6-6.8.8-5.5.3-11 .4-16.3-1-7.3-2-11.8-7.3-12.4-14.9-.2-1.8-.2-3.6-.2-5.4V91.5h-9.6V77h9.5V54h22.6v23h13.2v14.5h-13.2v33.3c0 .6 0 1.3.1 1.9.4 3.8 2.1 5.5 6 5.9 1.4.1 2.8.1 4.2.1.9-.1 1.9-.1 2.9-.1zM206.5 77h22.1v11.3c.1 0 .2.1.3.1.2-.3.4-.7.7-1 1.9-2.3 3.6-4.8 5.7-6.8 3.6-3.5 8.2-4.7 13.2-4.7 1.4 0 2.8.1 4.2.3.3 0 .8.5.8.8v19.3c-.6 0-1.1-.1-1.6-.1-3.7-.4-7.3-.4-10.8.9-6.7 2.4-10 7.4-11.1 14.2-.3 2.1-.4 4.3-.5 6.4v32h-23.1c.1-24.2.1-48.4.1-72.7zm519 73.3V77.6h23v72.7h-23zm-189.5.1h-23V77.7h23v72.7zm122.3 0h-23V77.7h23v72.7zm236.1-72.7h23v72.7h-23V77.7zm11.4-10c-6.7 0-12.1-5.3-12.1-11.8 0-6.5 5.5-11.7 12.2-11.7 6.7 0 12.2 5.4 12.1 11.8 0 6.6-5.4 11.7-12.2 11.7zM634.6 56c0-6.5 5.4-11.8 12.1-11.8 6.7 0 12.2 5.3 12.2 11.8 0 6.5-5.4 11.8-12.1 11.8-6.8-.1-12.2-5.3-12.2-11.8zm-98-.1c0 6.6-5.4 11.8-12.1 11.8-6.7 0-12.2-5.2-12.2-11.7 0-6.5 5.4-11.8 12.1-11.8 6.8 0 12.2 5.2 12.2 11.7zM737 67.7c-6.7 0-12.1-5.3-12-11.9 0-6.5 5.5-11.7 12.2-11.7 6.7 0 12.1 5.3 12.1 11.9-.1 6.5-5.6 11.7-12.3 11.7z"/>
  <path fill="#3f3a35" d="M1086.2 89.3h-2.4c-.7-3.6-.8-3.6-3.2-3.5v3.5h-2.6v-9.9c2 0 4-.1 5.9 0 1.5.1 2.3 1.2 2.3 2.6.1 1.3-.4 2-2.1 2.7 2.5.8 2 2.8 2.1 4.6zm-5.4-8.6v3.5c1-.4 1.9-.6 2.7-1.1.2-.1.2-1.2 0-1.4-.8-.4-1.7-.7-2.7-1z"/>
</svg>
