<svg width="424" height="280" viewBox="0 0 424 280" fill="none" xmlns="http://www.w3.org/2000/svg">
<g clip-path="url(#clip0)">
<path opacity="0.2" d="M354.844 189.405H196.395C196.395 174.561 184.378 162.543 169.536 162.543H0.0506592V280H133.099H163.617H285.213H370.309H424V189.405C424 182.415 418.348 176.762 411.358 176.762H367.515C360.495 176.762 354.844 182.415 354.844 189.405Z" fill="#7AC142"/>
<path opacity="0.15" d="M366.285 18.0133V16.7655C366.285 10.2766 361.012 5 354.529 5H284.74C278.257 5 272.984 10.2766 272.984 16.7655V18.0133C272.984 24.5022 278.257 29.7788 284.74 29.7788H313.703C320.187 29.7788 325.459 35.0554 325.459 41.5443V52.7036C325.459 59.1924 320.187 64.4691 313.703 64.4691H207.756C201.272 64.4691 196 69.7457 196 76.2345C196 82.7234 201.272 88 207.756 88H407.11C413.594 88 418.866 82.7234 418.866 76.2345C418.866 69.7457 424.139 64.4691 430.622 64.4691H453.244C459.728 64.4691 465 59.1924 465 52.7036V41.5443C465 35.0554 459.728 29.7788 453.244 29.7788H378.041C371.557 29.7788 366.285 24.5022 366.285 18.0133Z" fill="#007AB7"/>
<path opacity="0.15" d="M87.2324 21.9243V16.8076C87.2324 7.52624 79.707 0 70.4267 0H1.80573C-7.4746 0 -15 7.52624 -15 16.8076V21.9243C-15 31.2056 -7.4746 38.7319 1.80573 38.7319H5.16688C14.4472 38.7319 21.9726 46.2581 21.9726 55.5395V60.6562C21.9726 69.9375 29.498 77.4638 38.7783 77.4638H107.399C116.68 77.4638 124.205 69.9375 124.205 60.6562V55.5395C124.205 46.2581 116.68 38.7319 107.399 38.7319H104.038C94.7578 38.7319 87.2324 31.2056 87.2324 21.9243Z" fill="#007AB7"/>
<path d="M61.8305 64.999V44.2945C61.8305 42.6583 60.492 41.3197 58.856 41.3197H52.8773V31.6516C52.8773 30.0154 51.5388 28.6768 49.9029 28.6768H44.2811C42.6452 28.6768 41.3067 30.0154 41.3067 31.6516V41.3197H35.328C33.692 41.3197 32.3535 42.6583 32.3535 44.2945V64.999H26.1964C24.5604 64.999 23.2219 66.3377 23.2219 67.9738V196.039H70.9621V67.9738C70.9621 66.3377 69.6236 64.999 67.9876 64.999H61.8305Z" fill="#079BD6"/>
<path d="M140.802 71.9307H102.61H94.6388C92.4972 71.9307 90.772 73.1801 90.772 74.7567V196.039H152.581V74.7567C152.581 73.2098 150.856 71.9307 148.715 71.9307H140.802Z" fill="#60C3EF"/>
<path d="M123.491 85.9121H81.2835C79.6178 85.9121 78.2495 87.2508 78.2495 88.9464V207.73C78.2495 209.396 79.588 210.764 81.2835 210.764H123.491C125.157 210.764 126.525 209.426 126.525 207.73V88.9464C126.525 87.2805 125.157 85.9121 123.491 85.9121Z" fill="#007AB7"/>
<path d="M93.2706 105.129H89.2253C87.4406 105.129 85.9832 103.672 85.9832 101.887V97.8412C85.9832 96.0563 87.4406 94.5986 89.2253 94.5986H93.2706C95.0553 94.5986 96.5128 96.0563 96.5128 97.8412V101.887C96.483 103.702 95.0553 105.129 93.2706 105.129Z" fill="#7AC142"/>
<path d="M114.627 105.129H110.582C108.797 105.129 107.34 103.672 107.34 101.887V97.8412C107.34 96.0563 108.797 94.5986 110.582 94.5986H114.627C116.412 94.5986 117.869 96.0563 117.869 97.8412V101.887C117.84 103.702 116.412 105.129 114.627 105.129Z" fill="#7AC142"/>
<path d="M93.2706 124.674H89.2253C87.4406 124.674 85.9832 123.217 85.9832 121.432V117.386C85.9832 115.601 87.4406 114.144 89.2253 114.144H93.2706C95.0553 114.144 96.5128 115.601 96.5128 117.386V121.432C96.483 123.246 95.0553 124.674 93.2706 124.674Z" fill="#7AC142"/>
<path d="M114.627 124.674H110.582C108.797 124.674 107.34 123.217 107.34 121.432V117.386C107.34 115.601 108.797 114.144 110.582 114.144H114.627C116.412 114.144 117.869 115.601 117.869 117.386V121.432C117.84 123.246 116.412 124.674 114.627 124.674Z" fill="#7AC142"/>
<path d="M93.2706 144.248H89.2253C87.4406 144.248 85.9832 142.79 85.9832 141.005V136.959C85.9832 135.174 87.4406 133.717 89.2253 133.717H93.2706C95.0553 133.717 96.5128 135.174 96.5128 136.959V141.005C96.483 142.79 95.0553 144.248 93.2706 144.248Z" fill="#7AC142"/>
<path d="M114.627 144.248H110.582C108.797 144.248 107.34 142.79 107.34 141.005V136.959C107.34 135.174 108.797 133.717 110.582 133.717H114.627C116.412 133.717 117.869 135.174 117.869 136.959V141.005C117.84 142.79 116.412 144.248 114.627 144.248Z" fill="#7AC142"/>
<path d="M93.2706 163.792H89.2253C87.4406 163.792 85.9832 162.334 85.9832 160.549V156.474C85.9832 154.689 87.4406 153.231 89.2253 153.231H93.2706C95.0553 153.231 96.5128 154.689 96.5128 156.474V160.52C96.483 162.334 95.0553 163.792 93.2706 163.792Z" fill="#7AC142"/>
<path d="M114.627 163.792H110.582C108.797 163.792 107.34 162.334 107.34 160.549V156.474C107.34 154.689 108.797 153.231 110.582 153.231H114.627C116.412 153.231 117.869 154.689 117.869 156.474V160.52C117.84 162.334 116.412 163.792 114.627 163.792Z" fill="#7AC142"/>
<path d="M93.2706 183.337H89.2253C87.4406 183.337 85.9832 181.88 85.9832 180.095V176.049C85.9832 174.264 87.4406 172.807 89.2253 172.807H93.2706C95.0553 172.807 96.5128 174.264 96.5128 176.049V180.095C96.483 181.88 95.0553 183.337 93.2706 183.337Z" fill="#7AC142"/>
<path d="M114.627 183.337H110.582C108.797 183.337 107.34 181.88 107.34 180.095V176.049C107.34 174.264 108.797 172.807 110.582 172.807H114.627C116.412 172.807 117.869 174.264 117.869 176.049V180.095C117.84 181.88 116.412 183.337 114.627 183.337Z" fill="#7AC142"/>
<path d="M0.0506592 110.722L28.9625 129.82C31.0446 131.218 32.3236 133.538 32.3236 136.067V207.76C32.3236 209.396 30.9851 210.734 29.3492 210.734H0.0506592V110.722Z" fill="#007AB7"/>
<path d="M74.0854 210.734H37.4697C35.8337 210.734 34.4952 209.396 34.4952 207.76V156.206C34.4952 154.57 35.8337 153.231 37.4697 153.231H74.0854C75.7213 153.231 77.0598 154.57 77.0598 156.206V207.76C77.0598 209.425 75.7213 210.734 74.0854 210.734Z" fill="#007AB7"/>
<path d="M257.904 201.691H225.489C224.416 201.691 223.552 201.049 223.552 200.251V181.457C223.552 180.726 224.059 180.061 224.923 179.706L240.683 173.035C241.309 172.769 242.084 172.769 242.709 173.035L258.47 179.706C259.304 180.061 259.841 180.726 259.841 181.457V200.251C259.841 201.049 258.977 201.691 257.904 201.691Z" fill="#60C3EF"/>
<path d="M311.266 201.602H278.933C277.863 201.602 277 200.739 277 199.668V174.442C277 173.46 277.506 172.568 278.368 172.092L294.103 163.138C294.728 162.781 295.501 162.781 296.126 163.138L311.861 172.092C312.694 172.568 313.229 173.46 313.229 174.442V199.668C313.229 200.739 312.337 201.602 311.266 201.602Z" fill="#60C3EF"/>
<path d="M395.266 180.302H362.933C361.863 180.302 361 179.44 361 178.369V153.202C361 152.22 361.506 151.328 362.368 150.852L369.685 144.872L378.103 141.898C378.728 141.541 379.501 141.541 380.126 141.898L388.99 145.11L395.861 150.852C396.694 151.328 397.229 152.22 397.229 153.202V178.369C397.199 179.41 396.337 180.302 395.266 180.302Z" fill="#FF6A52"/>
<path d="M361.744 150.346L369.358 144.129L378.133 141.035C378.787 140.678 379.59 140.678 380.215 141.035L389.436 144.367L396.604 150.346" stroke="#CC4640" stroke-width="4" stroke-miterlimit="10" stroke-linecap="round"/>
<path d="M168.376 210.735H132.712C130.808 210.735 129.262 209.188 129.262 207.284V137.138C129.262 135.234 130.808 133.687 132.712 133.687L146.305 122.8C148.804 120.806 152.314 120.806 154.812 122.8L168.406 133.687C170.309 133.687 171.856 135.234 171.856 137.138V207.284C171.826 209.217 170.279 210.735 168.376 210.735Z" fill="#007AB7"/>
<path d="M21.4074 142.225H6.89202C5.52377 142.225 4.42322 141.125 4.42322 139.756C4.42322 138.388 5.52377 137.287 6.89202 137.287H21.4372C22.8054 137.287 23.906 138.388 23.906 139.756C23.8762 141.125 22.7757 142.225 21.4074 142.225Z" fill="#B5EA86"/>
<path opacity="0.3" d="M145.205 145.498H135.211C134.051 145.498 133.099 144.546 133.099 143.386V142.672C133.099 141.512 134.051 140.56 135.211 140.56H145.205C146.365 140.56 147.317 141.512 147.317 142.672V143.386C147.287 144.546 146.365 145.498 145.205 145.498Z" fill="#B5EA86"/>
<path opacity="0.3" d="M165.104 145.498H155.11C153.95 145.498 152.998 144.546 152.998 143.386V142.672C152.998 141.512 153.95 140.56 155.11 140.56H165.104C166.264 140.56 167.216 141.512 167.216 142.672V143.386C167.216 144.546 166.264 145.498 165.104 145.498Z" fill="#B5EA86"/>
<path opacity="0.3" d="M145.205 156.564H135.211C134.051 156.564 133.099 155.612 133.099 154.452V153.738C133.099 152.578 134.051 151.626 135.211 151.626H145.205C146.365 151.626 147.317 152.578 147.317 153.738V154.452C147.287 155.612 146.365 156.564 145.205 156.564Z" fill="#B5EA86"/>
<path opacity="0.3" d="M165.104 156.564H155.11C153.95 156.564 152.998 155.612 152.998 154.452V153.738C152.998 152.578 153.95 151.626 155.11 151.626H165.104C166.264 151.626 167.216 152.578 167.216 153.738V154.452C167.216 155.612 166.264 156.564 165.104 156.564Z" fill="#B5EA86"/>
<path opacity="0.3" d="M145.205 167.6H135.211C134.051 167.6 133.099 166.648 133.099 165.488V164.774C133.099 163.614 134.051 162.662 135.211 162.662H145.205C146.365 162.662 147.317 163.614 147.317 164.774V165.488C147.287 166.648 146.365 167.6 145.205 167.6Z" fill="#B5EA86"/>
<path opacity="0.3" d="M165.104 167.6H155.11C153.95 167.6 152.998 166.648 152.998 165.488V164.774C152.998 163.614 153.95 162.662 155.11 162.662H165.104C166.264 162.662 167.216 163.614 167.216 164.774V165.488C167.216 166.648 166.264 167.6 165.104 167.6Z" fill="#B5EA86"/>
<path opacity="0.3" d="M145.205 178.636H135.211C134.051 178.636 133.099 177.684 133.099 176.524V175.81C133.099 174.65 134.051 173.698 135.211 173.698H145.205C146.365 173.698 147.317 174.65 147.317 175.81V176.524C147.287 177.714 146.365 178.636 145.205 178.636Z" fill="#B5EA86"/>
<path opacity="0.3" d="M165.104 178.636H155.11C153.95 178.636 152.998 177.684 152.998 176.524V175.81C152.998 174.65 153.95 173.698 155.11 173.698H165.104C166.264 173.698 167.216 174.65 167.216 175.81V176.524C167.216 177.714 166.264 178.636 165.104 178.636Z" fill="#B5EA86"/>
<path opacity="0.3" d="M145.205 189.703H135.211C134.051 189.703 133.099 188.751 133.099 187.591V186.877C133.099 185.717 134.051 184.765 135.211 184.765H145.205C146.365 184.765 147.317 185.717 147.317 186.877V187.591C147.287 188.751 146.365 189.703 145.205 189.703Z" fill="#B5EA86"/>
<path opacity="0.3" d="M165.104 189.703H155.11C153.95 189.703 152.998 188.751 152.998 187.591V186.877C152.998 185.717 153.95 184.765 155.11 184.765H165.104C166.264 184.765 167.216 185.717 167.216 186.877V187.591C167.216 188.751 166.264 189.703 165.104 189.703Z" fill="#B5EA86"/>
<path opacity="0.3" d="M145.205 200.74H135.211C134.051 200.74 133.099 199.788 133.099 198.628V197.914C133.099 196.754 134.051 195.802 135.211 195.802H145.205C146.365 195.802 147.317 196.754 147.317 197.914V198.628C147.287 199.788 146.365 200.74 145.205 200.74Z" fill="#B5EA86"/>
<path opacity="0.3" d="M165.104 200.74H155.11C153.95 200.74 152.998 199.788 152.998 198.628V197.914C152.998 196.754 153.95 195.802 155.11 195.802H165.104C166.264 195.802 167.216 196.754 167.216 197.914V198.628C167.216 199.788 166.264 200.74 165.104 200.74Z" fill="#B5EA86"/>
<path d="M21.4074 153.292H6.89202C5.52377 153.292 4.42322 152.191 4.42322 150.823C4.42322 149.454 5.52377 148.354 6.89202 148.354H21.4372C22.8054 148.354 23.906 149.454 23.906 150.823C23.8762 152.161 22.7757 153.292 21.4074 153.292Z" fill="#B5EA86"/>
<path d="M21.4074 164.328H6.89202C5.52377 164.328 4.42322 163.227 4.42322 161.859C4.42322 160.49 5.52377 159.39 6.89202 159.39H21.4372C22.8054 159.39 23.906 160.49 23.906 161.859C23.8762 163.227 22.7757 164.328 21.4074 164.328Z" fill="#B5EA86"/>
<path d="M21.4074 175.365H6.89202C5.52377 175.365 4.42322 174.264 4.42322 172.896C4.42322 171.527 5.52377 170.427 6.89202 170.427H21.4372C22.8054 170.427 23.906 171.527 23.906 172.896C23.8762 174.264 22.7757 175.365 21.4074 175.365Z" fill="#B5EA86"/>
<path d="M21.4074 186.43H6.89202C5.52377 186.43 4.42322 185.33 4.42322 183.961C4.42322 182.593 5.52377 181.492 6.89202 181.492H21.4372C22.8054 181.492 23.906 182.593 23.906 183.961C23.8762 185.33 22.7757 186.43 21.4074 186.43Z" fill="#B5EA86"/>
<path d="M21.4074 197.467H6.89202C5.52377 197.467 4.42322 196.367 4.42322 194.998C4.42322 193.63 5.52377 192.529 6.89202 192.529H21.4372C22.8054 192.529 23.906 193.63 23.906 194.998C23.8762 196.367 22.7757 197.467 21.4074 197.467Z" fill="#B5EA86"/>
<path d="M405.587 134.64C402.256 134.64 399.579 137.317 399.579 140.649V179.381H411.595V140.649C411.595 137.347 408.918 134.64 405.587 134.64Z" fill="#FF6A52"/>
<path opacity="0.3" d="M252.077 201.603V191.086C252.077 188.959 250.353 187.234 248.225 187.234C246.098 187.234 244.373 188.959 244.373 191.086V201.603H252.077Z" fill="#004F7F"/>
<path opacity="0.3" d="M233.814 187.115H232.922C231.033 187.115 229.501 188.647 229.501 190.536C229.501 192.426 231.033 193.957 232.922 193.957H233.814C235.703 193.957 237.235 192.426 237.235 190.536C237.235 188.647 235.703 187.115 233.814 187.115Z" fill="#004F7F"/>
<path opacity="0.3" d="M298.952 201.603V191.086C298.952 188.959 297.227 187.234 295.1 187.234C292.972 187.234 291.248 188.959 291.248 191.086V201.603H298.952Z" fill="#0069AA"/>
<path d="M308.232 162.87H305.793C305.347 162.87 304.96 163.227 304.96 163.703V171.408H309.035V163.703C309.035 163.227 308.678 162.87 308.232 162.87Z" fill="#60C3EF"/>
<path opacity="0.3" d="M465.688 211.333H429.134C429.134 203.951 423.177 198 415.85 198H390.456C383.1 198 377.171 203.979 377.171 211.333H246.284C238.929 211.333 233 217.312 233 224.667C233 232.049 238.957 238 246.284 238H465.716C473.071 238 479 232.021 479 224.667C478.972 217.312 473.043 211.333 465.688 211.333Z" fill="#7AC142"/>
<path opacity="0.5" d="M388.633 162.543H369.983V180.273H388.633V162.543Z" fill="#F7B9B2"/>
<path opacity="0.5" d="M402.939 143.861C402.434 143.861 402.017 144.278 402.017 144.784V178.488C402.017 178.994 402.434 179.41 402.939 179.41C403.445 179.41 403.862 178.994 403.862 178.488V144.784C403.832 144.278 403.415 143.861 402.939 143.861Z" fill="#F7B9B2"/>
<path opacity="0.5" d="M379.245 150.89C380.871 150.89 382.19 149.572 382.19 147.945C382.19 146.319 380.871 145 379.245 145C377.618 145 376.3 146.319 376.3 147.945C376.3 149.572 377.618 150.89 379.245 150.89Z" fill="#F7B9B2"/>
<path d="M205.943 196.516C204.129 196.516 202.672 195.058 202.672 193.243V144.992C202.672 143.177 204.129 141.72 205.943 141.72C207.758 141.72 209.215 143.177 209.215 144.992V193.243C209.215 195.028 207.758 196.516 205.943 196.516Z" fill="#A35B2B"/>
<path d="M209.364 155.939H205.943C205.378 155.939 204.902 155.463 204.902 154.898C204.902 154.333 205.378 153.857 205.943 153.857H209.364C213.915 153.857 217.633 150.139 217.633 145.587V144.427C217.633 143.862 218.109 143.386 218.674 143.386C219.239 143.386 219.715 143.862 219.715 144.427V145.587C219.715 151.299 215.075 155.939 209.364 155.939Z" fill="#A35B2B"/>
<path d="M205.943 166.41H205.854C200.143 166.41 195.503 161.769 195.503 156.057V145.586C195.503 145.021 195.979 144.545 196.544 144.545C197.109 144.545 197.585 145.021 197.585 145.586V156.057C197.585 160.609 201.303 164.327 205.854 164.327H205.943C206.508 164.327 206.984 164.803 206.984 165.369C206.984 165.934 206.538 166.41 205.943 166.41Z" fill="#A35B2B"/>
<path d="M230.245 117.148H226.824V111.674C226.824 105.873 222.124 101.144 216.294 101.144H198.983C193.183 101.144 188.453 105.844 188.453 111.674H184.378C178.608 111.674 173.908 116.375 173.908 122.146V124.109C173.908 129.88 178.608 134.58 184.378 134.58C184.378 140.619 189.256 145.498 195.295 145.498H203.564H212.19H221.381C224.296 145.498 226.645 143.148 226.645 140.232H230.245C236.045 140.232 240.774 135.532 240.774 129.702V127.649C240.774 121.848 236.075 117.148 230.245 117.148Z" fill="#7AC142"/>
<path d="M329.831 195.962C331.645 195.962 333.103 194.504 333.103 192.689V151.013C333.103 149.198 331.645 147.74 329.831 147.74C328.017 147.74 326.559 149.198 326.559 151.013V192.689C326.559 194.474 328.017 195.962 329.831 195.962Z" fill="#A35B2B"/>
<path d="M326.41 167.97H329.831C330.396 167.97 330.872 167.494 330.872 166.928C330.872 166.363 330.396 165.887 329.831 165.887H326.41C321.86 165.887 318.141 162.169 318.141 157.617V156.457C318.141 155.892 317.666 155.416 317.1 155.416C316.535 155.416 316.059 155.892 316.059 156.457V157.617C316.059 163.329 320.699 167.97 326.41 167.97Z" fill="#A35B2B"/>
<path d="M305.53 132.004H308.95V126.531C308.95 120.73 313.65 116 319.48 116H336.791C342.591 116 347.321 120.7 347.321 126.531H351.396C357.166 126.531 361.866 131.231 361.866 137.002V138.965C361.866 144.737 357.166 149.437 351.396 149.437C351.396 155.476 346.518 160.354 340.48 160.354H332.211H323.585H314.394C311.479 160.354 309.129 158.004 309.129 155.089H305.53C299.729 155.089 295 150.389 295 144.558V142.505C295 136.705 299.729 132.004 305.53 132.004Z" fill="#7AC142"/>
<ellipse cx="294.728" cy="171.943" rx="3.27191" ry="3.27228" fill="#00559B" fill-opacity="0.6"/>
<path d="M75.8552 47.0001H79.6648L86.9091 32.6052V29.5455H74.662V32.5626H83.091V32.6819L75.8552 47.0001Z" fill="#002D44"/>
<path d="M95.5192 29.3069C91.6158 29.2899 88.9823 31.8467 88.9993 35.358C89.0079 38.6137 91.2664 40.9745 94.3601 40.9745C96.2778 40.9745 97.9823 40.0455 98.7579 38.5115H98.8772C98.8687 41.9717 97.667 44.0768 95.3914 44.0768C94.0533 44.0768 93.0903 43.3438 92.809 42.074H89.1698C89.5107 45.0143 91.8971 47.2387 95.3914 47.2387C99.7124 47.2387 102.499 43.7444 102.491 37.8211C102.482 31.4972 99.1073 29.324 95.5192 29.3069ZM95.5448 32.2046C97.2408 32.2046 98.4937 33.5853 98.5107 35.2472C98.5192 36.9177 97.1982 38.2984 95.5107 38.2984C93.8062 38.2984 92.5874 36.9688 92.5789 35.2558C92.5618 33.5512 93.8317 32.2046 95.5448 32.2046Z" fill="#002D44"/>
<path d="M114.602 43.7274C114.61 45.824 115.948 47.6052 118.445 47.6052C120.917 47.6052 122.298 45.824 122.289 43.7274V42.8069C122.298 40.6933 120.951 38.9291 118.445 38.9291C115.982 38.9291 114.61 40.7103 114.602 42.8069V43.7274ZM105.644 33.7387C105.653 35.8353 106.991 37.5995 109.479 37.5995C111.96 37.5995 113.34 35.8524 113.332 33.7387V32.8183C113.34 30.7046 111.994 28.9404 109.479 28.9404C107.042 28.9404 105.653 30.7046 105.644 32.8183V33.7387ZM106.479 47.0001H108.704L120.704 29.5455H118.479L106.479 47.0001ZM117.082 42.8069C117.09 41.9717 117.423 41.1109 118.445 41.1109C119.519 41.1109 119.8 41.9717 119.792 42.8069V43.7274C119.8 44.5626 119.485 45.4063 118.445 45.4063C117.406 45.4063 117.09 44.537 117.082 43.7274V42.8069ZM108.141 32.8183C108.15 32.0086 108.465 31.1222 109.479 31.1222C110.553 31.1222 110.843 31.983 110.835 32.8183V33.7387C110.843 34.574 110.519 35.4177 109.479 35.4177C108.474 35.4177 108.15 34.574 108.141 33.7387V32.8183Z" fill="#002D44"/>
<path d="M142.111 29.5455V40.5654C142.111 42.5597 140.713 44.0001 138.565 44.0001C136.426 44.0001 135.02 42.5597 135.02 40.5654V29.5455H131.33V40.8808C131.33 44.699 134.21 47.2472 138.565 47.2472C142.903 47.2472 145.801 44.699 145.801 40.8808V29.5455H142.111Z" fill="#002D44"/>
<path d="M148.769 47.0001H152.4V39.5938C152.4 37.983 153.576 36.8751 155.178 36.8751C155.681 36.8751 156.371 36.9603 156.712 37.0711V33.8495C156.389 33.7728 155.937 33.7217 155.57 33.7217C154.104 33.7217 152.903 34.574 152.425 36.1933H152.289V33.9092H148.769V47.0001Z" fill="#002D44"/>
<path d="M158.658 47.0001H162.237V44.9035H162.399C162.902 45.9944 164.001 47.2132 166.115 47.2132C169.098 47.2132 171.425 44.8524 171.425 40.4717C171.425 35.9717 168.996 33.7387 166.124 33.7387C163.933 33.7387 162.885 35.0427 162.399 36.108H162.288V29.5455H158.658V47.0001ZM162.212 40.4546C162.212 38.1194 163.2 36.6279 164.965 36.6279C166.763 36.6279 167.717 38.1876 167.717 40.4546C167.717 42.7387 166.746 44.324 164.965 44.324C163.217 44.324 162.212 42.7899 162.212 40.4546Z" fill="#002D44"/>
<path d="M177.58 47.2472C179.515 47.2472 180.768 46.4035 181.407 45.1847H181.509V47.0001H184.952V38.1705C184.952 35.0512 182.31 33.7387 179.396 33.7387C176.259 33.7387 174.197 35.2387 173.694 37.6251L177.052 37.8978C177.299 37.0285 178.075 36.3893 179.379 36.3893C180.614 36.3893 181.322 37.0115 181.322 38.0853V38.1365C181.322 38.9802 180.427 39.091 178.151 39.3126C175.56 39.5512 173.234 40.4205 173.234 43.3438C173.234 45.9347 175.083 47.2472 177.58 47.2472ZM178.62 44.7416C177.504 44.7416 176.702 44.2217 176.702 43.2245C176.702 42.2018 177.546 41.699 178.825 41.52C179.617 41.4092 180.913 41.2217 181.347 40.9319V42.3211C181.347 43.6933 180.214 44.7416 178.62 44.7416Z" fill="#002D44"/>
<path d="M191.4 39.4319C191.408 37.7444 192.414 36.7558 193.88 36.7558C195.337 36.7558 196.215 37.7103 196.207 39.3126V47.0001H199.837V38.6649C199.837 35.6137 198.048 33.7387 195.32 33.7387C193.377 33.7387 191.971 34.6933 191.383 36.2188H191.229V33.9092H187.769V47.0001H191.4V39.4319Z" fill="#002D44"/>
<path d="M279.548 75.0001H291.991V71.983H284.661V71.8637L287.209 69.3666C290.798 66.0938 291.761 64.4575 291.761 62.4717C291.761 59.4461 289.289 57.3069 285.548 57.3069C281.883 57.3069 279.369 59.4972 279.377 62.9234H282.88C282.871 61.2529 283.928 60.2302 285.522 60.2302C287.056 60.2302 288.198 61.1847 288.198 62.7188C288.198 64.108 287.346 65.0626 285.761 66.5882L279.548 72.341V75.0001Z" fill="#002D44"/>
<path d="M302.258 57.5455H298.79L294.469 60.2813V63.5541L298.466 61.0484H298.568V75.0001H302.258V57.5455Z" fill="#002D44"/>
<path d="M315.961 71.7274C315.969 73.824 317.307 75.6052 319.805 75.6052C322.276 75.6052 323.657 73.824 323.648 71.7274V70.8069C323.657 68.6933 322.31 66.9291 319.805 66.9291C317.342 66.9291 315.969 68.7103 315.961 70.8069V71.7274ZM307.004 61.7387C307.012 63.8353 308.35 65.5995 310.839 65.5995C313.319 65.5995 314.7 63.8524 314.691 61.7387V60.8183C314.7 58.7046 313.353 56.9404 310.839 56.9404C308.401 56.9404 307.012 58.7046 307.004 60.8183V61.7387ZM307.839 75.0001H310.063L322.063 57.5455H319.839L307.839 75.0001ZM318.441 70.8069C318.45 69.9717 318.782 69.1109 319.805 69.1109C320.879 69.1109 321.16 69.9717 321.151 70.8069V71.7274C321.16 72.5626 320.844 73.4063 319.805 73.4063C318.765 73.4063 318.45 72.537 318.441 71.7274V70.8069ZM309.501 60.8183C309.509 60.0086 309.825 59.1222 310.839 59.1222C311.913 59.1222 312.202 59.983 312.194 60.8183V61.7387C312.202 62.574 311.879 63.4177 310.839 63.4177C309.833 63.4177 309.509 62.574 309.501 61.7387V60.8183Z" fill="#002D44"/>
<path d="M347.288 57.5455H343.615V68.5228H343.462L335.928 57.5455H332.689V75.0001H336.379V64.0143H336.507L344.101 75.0001H347.288V57.5455Z" fill="#002D44"/>
<path d="M356.184 75.2558C360.156 75.2558 362.627 72.537 362.627 68.5058C362.627 64.449 360.156 61.7387 356.184 61.7387C352.212 61.7387 349.741 64.449 349.741 68.5058C349.741 72.537 352.212 75.2558 356.184 75.2558ZM356.201 72.4433C354.369 72.4433 353.431 70.7643 353.431 68.4802C353.431 66.1961 354.369 64.5086 356.201 64.5086C357.999 64.5086 358.937 66.1961 358.937 68.4802C358.937 70.7643 357.999 72.4433 356.201 72.4433Z" fill="#002D44"/>
<path d="M371.951 61.9092H369.488V58.7728H365.857V61.9092H364.067V64.6365H365.857V71.4546C365.84 74.02 367.587 75.2899 370.221 75.1791C371.158 75.145 371.823 74.9575 372.19 74.8382L371.619 72.1365C371.44 72.1705 371.056 72.2558 370.715 72.2558C369.991 72.2558 369.488 71.983 369.488 70.9774V64.6365H371.951V61.9092Z" fill="#002D44"/>
<path d="M302.08 86.5455V97.5654C302.08 99.5597 300.682 101 298.534 101C296.395 101 294.989 99.5597 294.989 97.5654V86.5455H291.298V97.8808C291.298 101.699 294.179 104.247 298.534 104.247C302.872 104.247 305.77 101.699 305.77 97.8808V86.5455H302.08Z" fill="#002D44"/>
<path d="M308.738 104H312.369V96.5938C312.369 94.983 313.545 93.8751 315.147 93.8751C315.65 93.8751 316.34 93.9603 316.681 94.0711V90.8495C316.357 90.7728 315.906 90.7217 315.539 90.7217C314.073 90.7217 312.871 91.5739 312.394 93.1933H312.258V90.9092H308.738V104Z" fill="#002D44"/>
<path d="M318.626 104H322.206V101.903H322.368C322.871 102.994 323.97 104.213 326.084 104.213C329.067 104.213 331.393 101.852 331.393 97.4717C331.393 92.9717 328.964 90.7387 326.092 90.7387C323.902 90.7387 322.854 92.0427 322.368 93.108H322.257V86.5455H318.626V104ZM322.18 97.4546C322.18 95.1194 323.169 93.6279 324.933 93.6279C326.731 93.6279 327.686 95.1876 327.686 97.4546C327.686 99.7387 326.714 101.324 324.933 101.324C323.186 101.324 322.18 99.7899 322.18 97.4546Z" fill="#002D44"/>
<path d="M337.549 104.247C339.484 104.247 340.736 103.403 341.376 102.185H341.478V104H344.921V95.1705C344.921 92.0512 342.279 90.7387 339.364 90.7387C336.228 90.7387 334.165 92.2387 333.663 94.6251L337.021 94.8978C337.268 94.0285 338.043 93.3893 339.347 93.3893C340.583 93.3893 341.29 94.0115 341.29 95.0853V95.1365C341.29 95.9802 340.396 96.091 338.12 96.3126C335.529 96.5512 333.202 97.4205 333.202 100.344C333.202 102.935 335.052 104.247 337.549 104.247ZM338.589 101.742C337.472 101.742 336.671 101.222 336.671 100.225C336.671 99.2018 337.515 98.699 338.793 98.52C339.586 98.4092 340.881 98.2217 341.316 97.9319V99.3211C341.316 100.693 340.182 101.742 338.589 101.742Z" fill="#002D44"/>
<path d="M351.369 96.4319C351.377 94.7444 352.383 93.7558 353.849 93.7558C355.306 93.7558 356.184 94.7103 356.175 96.3126V104H359.806V95.6649C359.806 92.6137 358.016 90.7387 355.289 90.7387C353.346 90.7387 351.94 91.6933 351.352 93.2188H351.198V90.9092H347.738V104H351.369V96.4319Z" fill="#002D44"/>
</g>
<defs>
<clipPath id="clip0">
<rect width="424" height="280" fill="white"/>
</clipPath>
</defs>
</svg>
