<svg width="111" height="30" viewBox="0 0 111 30" fill="none" xmlns="http://www.w3.org/2000/svg">
<g clip-path="url(#clip0)">
<path d="M53.1998 23.7H49.6998L47.1998 13.5L44.7998 23.7H41.2998L37.2998 8.40005H40.9998L43.2998 18.7L45.7998 8.40005H49.0998L51.6998 18.7L51.7998 18L53.9998 8.30005H56.9998L53.1998 23.7Z" fill="#00467F"/>
<path d="M60.2997 18.6001V19.2001C60.2997 20.5001 61.0997 21.6001 62.4997 21.6001C63.4997 21.6001 64.4997 20.9001 64.4997 19.8001L67.4997 20.0001C67.4997 20.6001 66.1997 23.9001 62.2997 23.9001C58.8997 23.9001 56.6997 21.5001 56.6997 18.2001C56.6997 14.8001 58.6997 12.1001 62.1997 12.1001C63.7997 12.1001 65.3997 12.8001 66.3997 14.1001C67.2997 15.4001 67.5997 17.0001 67.5997 18.6001H60.2997ZM64.3997 16.7001C64.2997 15.5001 63.8997 14.3001 62.4997 14.3001C60.9997 14.3001 60.4997 15.4001 60.3997 16.7001H64.3997Z" fill="#00467F"/>
<path d="M75.9997 15.8C75.6997 14.7 74.8997 14.3 73.7997 14.3C73.0997 14.3 72.0997 14.5 72.0997 15.3C72.0997 17.4 78.8997 15 78.8997 20.1C78.8997 21.3 78.2997 22.3 77.3997 23C76.3997 23.7 75.0997 23.9 73.8997 23.9C71.4997 23.9 69.2997 23.1 68.6997 20.5L71.4997 20.1C71.6997 21.3 72.9997 21.6 73.9997 21.6C74.5997 21.6 75.9997 21.4 75.9997 20.5C75.9997 19.7 75.2997 19.6 74.6997 19.5C73.8997 19.4 71.9997 19.1 71.2997 18.8C69.9997 18.3 69.0997 17.2 69.0997 15.7C69.0997 12.9 71.4997 11.9 73.9997 11.9C76.1997 11.9 77.6997 12.8 78.4997 14.9L75.9997 15.8Z" fill="#00467F"/>
<path d="M87.1 15H84.7V19.5C84.7 21 84.8 21.3 86.2 21.3C86.5 21.3 86.9 21.3 87.3 21.2V23.7C86.7 23.9 85.8 23.9 85.2 23.9C84.3 23.9 83 23.8 82.3 23.2C81.4 22.4 81.4 21.1 81.4 20V15H79.5V12.4H81.5L81.8 9.00005L84.7 8.80005V12.4H87.1V15V15Z" fill="#00467F"/>
<path d="M95.7999 23.7001C95.6999 23.1001 95.5999 22.5001 95.5999 21.9001C94.6999 23.2001 93.6999 23.9001 91.9999 23.9001C89.9999 23.9001 88.3999 22.8001 88.3999 20.7001C88.3999 19.0001 89.4999 17.9001 90.9999 17.3001C92.2999 16.8001 94.0999 16.7001 95.4999 16.6001V16.3001C95.4999 15.8001 95.4999 15.2001 95.1999 14.8001C94.8999 14.4001 94.3999 14.3001 93.8999 14.3001C92.7999 14.3001 91.8999 14.8001 91.8999 16.0001L88.7999 15.7001C89.0999 12.9001 91.7999 12.1001 94.1999 12.1001C95.3999 12.1001 96.8999 12.4001 97.7999 13.1001C98.9999 14.0001 98.8999 15.3001 98.8999 16.7001V22.0001C98.8999 22.6001 98.8999 23.1001 99.0999 23.7001H95.7999ZM95.4999 18.3001C94.1999 18.4001 91.8999 18.7001 91.8999 20.4001C91.8999 21.3001 92.3999 21.9001 93.3999 21.9001C94.0999 21.9001 94.6999 21.5001 95.0999 21.0001C95.5999 20.3001 95.4999 19.6001 95.4999 18.8001V18.3001V18.3001Z" fill="#00467F"/>
<path d="M107.7 15H105.3V19.5C105.3 21 105.4 21.3 106.8 21.3C107.1 21.3 107.5 21.3 107.9 21.2V23.7C107.3 23.9 106.4 23.9 105.8 23.9C104.9 23.9 103.6 23.8 102.9 23.2C102 22.4 102 21.1 102 20V15H100.1V12.4H102.1L102.4 9.10003L105.3 8.90002V12.5H107.7V15V15Z" fill="#00467F"/>
<path d="M109.4 8.40002C110.3 8.40002 111 9.10002 111 10C111 10.9 110.3 11.6 109.4 11.6C108.5 11.6 107.8 10.9 107.8 10C107.7 9.10002 108.5 8.40002 109.4 8.40002ZM109.4 11.4C110.1 11.4 110.7 10.8 110.7 10.1C110.7 9.40003 110.1 8.80002 109.4 8.80002C108.7 8.80002 108.1 9.40003 108.1 10.1C108 10.8 108.6 11.4 109.4 11.4ZM109 10.9H108.6V9.20002H109.4C109.5 9.20002 110.1 9.20002 110.1 9.70002C110.1 10 109.9 10.1 109.8 10.2L110.1 11H109.7L109.4 10.3H109V10.9ZM109 9.90002H109.4C109.5 9.90002 109.7 9.90002 109.7 9.70002C109.7 9.60002 109.6 9.50002 109.4 9.50002H109V9.90002Z" fill="#00467F"/>
<path d="M31.3999 0L13.8999 24.2L16.7999 29.2L33.5999 0H31.3999Z" fill="#00467F"/>
<path d="M27.3 0H26L11 19.2L21.7 0H0L13.9 24.2L27.3 0Z" fill="#00467F"/>
</g>
<defs>
<clipPath id="clip0">
<rect width="111" height="29.2" fill="white"/>
</clipPath>
</defs>
</svg>
