<svg width="164" height="43" viewBox="0 0 164 43" fill="none" xmlns="http://www.w3.org/2000/svg">
<g clip-path="url(#clip0)">
<path d="M78.3426 34.9007H73.1885L69.507 19.8802L65.9727 34.9007H60.8186L54.9282 12.3699H60.3769L63.7638 27.5377L67.4453 12.3699H72.3049L76.1337 27.5377L76.281 26.5069L79.5207 12.2227H83.9385L78.3426 34.9007Z" fill="#00467F"/>
<path d="M88.798 27.3903V28.2738C88.798 30.1882 89.976 31.8081 92.0377 31.8081C93.5103 31.8081 94.9829 30.7773 94.9829 29.1574L99.4007 29.4519C99.4007 30.3355 97.4863 35.1951 91.7432 35.1951C86.7363 35.1951 83.4966 31.6608 83.4966 26.8012C83.4966 21.7944 86.4418 17.8184 91.5959 17.8184C93.9521 17.8184 96.3082 18.8492 97.7808 20.7636C99.1062 22.6779 99.548 25.0341 99.548 27.3903H88.798ZM94.8356 24.5923C94.6884 22.8252 94.0993 21.0581 92.0377 21.0581C89.8288 21.0581 89.0925 22.678 88.9452 24.5923H94.8356Z" fill="#00467F"/>
<path d="M111.918 23.2671C111.476 21.6472 110.298 21.0582 108.678 21.0582C107.647 21.0582 106.175 21.3527 106.175 22.5308C106.175 25.6232 116.189 22.089 116.189 29.5993C116.189 31.3664 115.305 32.839 113.98 33.8698C112.507 34.9006 110.593 35.1952 108.826 35.1952C105.291 35.1952 102.052 34.0171 101.168 30.1883L105.291 29.5993C105.586 31.3664 107.5 31.8082 108.973 31.8082C109.856 31.8082 111.918 31.5137 111.918 30.1883C111.918 29.0102 110.887 28.863 110.004 28.7157C108.826 28.5684 106.028 28.1267 104.997 27.6849C103.082 26.9486 101.757 25.3287 101.757 23.1198C101.757 18.9965 105.291 17.5239 108.973 17.5239C112.212 17.5239 114.421 18.8493 115.599 21.9417L111.918 23.2671Z" fill="#00467F"/>
<path d="M128.264 22.0891H124.73V28.7158C124.73 30.9247 124.877 31.3665 126.939 31.3665C127.38 31.3665 127.97 31.3665 128.559 31.2193V34.9008C127.675 35.1953 126.35 35.1953 125.466 35.1953C124.141 35.1953 122.226 35.048 121.196 34.1645C119.87 32.9864 119.87 31.072 119.87 29.4521V22.0891H117.072V18.2604H120.017L120.459 13.2535L124.73 12.959V18.2604H128.264V22.0891V22.0891Z" fill="#00467F"/>
<path d="M141.075 34.9006C140.928 34.017 140.781 33.1334 140.781 32.2499C139.456 34.1643 137.983 35.1951 135.48 35.1951C132.534 35.1951 130.178 33.5752 130.178 30.4827C130.178 27.9793 131.798 26.3595 134.007 25.4759C135.921 24.7396 138.572 24.5923 140.634 24.4451V24.0033C140.634 23.267 140.634 22.3834 140.192 21.7944C139.75 21.2053 139.014 21.0581 138.278 21.0581C136.658 21.0581 135.332 21.7944 135.332 23.5615L130.767 23.1197C131.209 18.9964 135.185 17.8184 138.719 17.8184C140.486 17.8184 142.695 18.2601 144.021 19.291C145.788 20.6163 145.641 22.5307 145.641 24.5923V32.3971C145.641 33.2807 145.641 34.017 145.935 34.9006H141.075ZM140.634 26.9485C138.719 27.0958 135.332 27.5375 135.332 30.041C135.332 31.3663 136.069 32.2499 137.541 32.2499C138.572 32.2499 139.456 31.6608 140.045 30.9245C140.781 29.8937 140.634 28.8629 140.634 27.6848V26.9485V26.9485Z" fill="#00467F"/>
<path d="M158.599 22.0893H155.065V28.716C155.065 30.9249 155.213 31.3667 157.274 31.3667C157.716 31.3667 158.305 31.3667 158.894 31.2195V34.901C158.01 35.1955 156.685 35.1955 155.802 35.1955C154.476 35.1955 152.562 35.0482 151.531 34.1647C150.206 32.9866 150.206 31.0722 150.206 29.4523V22.0893H147.408V18.2606H150.353L150.795 13.401L155.065 13.1064V18.4078H158.599V22.0893V22.0893Z" fill="#00467F"/>
<path d="M161.103 12.3696C162.428 12.3696 163.459 13.4005 163.459 14.7258C163.459 16.0511 162.428 17.082 161.103 17.082C159.777 17.082 158.746 16.0511 158.746 14.7258C158.599 13.4005 159.777 12.3696 161.103 12.3696ZM161.103 16.7874C162.133 16.7874 163.017 15.9039 163.017 14.8731C163.017 13.8422 162.133 12.9587 161.103 12.9587C160.072 12.9587 159.188 13.8422 159.188 14.8731C159.041 15.9039 159.924 16.7874 161.103 16.7874ZM160.513 16.0511H159.924V13.5477H161.103C161.25 13.5477 162.133 13.5477 162.133 14.284C162.133 14.7258 161.839 14.8731 161.692 15.0203L162.133 16.1984H161.544L161.103 15.1676H160.513V16.0511ZM160.513 14.5785H161.103C161.25 14.5785 161.544 14.5785 161.544 14.284C161.544 14.1368 161.397 13.9895 161.103 13.9895H160.513V14.5785Z" fill="#00467F"/>
<path d="M46.2398 0L20.4692 35.637L24.7398 43L49.4795 0H46.2398Z" fill="#00467F"/>
<path d="M40.2021 0H38.2877L16.1986 28.274L31.9555 0H0L20.4692 35.637L40.2021 0Z" fill="#00467F"/>
</g>
<defs>
<clipPath id="clip0">
<rect width="163.459" height="43" fill="white"/>
</clipPath>
</defs>
</svg>
